<?xml version="1.0" encoding="utf-8"?>
<!-- Generator: Adobe Illustrator 16.0.0, SVG Export Plug-In . SVG Version: 6.00 Build 0)  -->
<!DOCTYPE svg PUBLIC "-//W3C//DTD SVG 1.1//EN" "http://www.w3.org/Graphics/SVG/1.1/DTD/svg11.dtd">
<svg version="1.1" id="Layer_1" xmlns="http://www.w3.org/2000/svg" xmlns:xlink="http://www.w3.org/1999/xlink" x="0px" y="0px"
	 width="300px" height="80px" viewBox="0 0 300 80" enable-background="new 0 0 300 80" xml:space="preserve">
<path fill-rule="evenodd" clip-rule="evenodd" fill="#13419E" d="M36.59,30.208L36.59,30.208L36.59,30.208z M17.409,54.036
	l-0.001,0.001L17.409,54.036z M45.951,44.964l0.002-0.002l0.005-0.01c0.027-0.048,0.089-0.064,0.137-0.037
	c0.023,0.015,0.039,0.035,0.046,0.059l0.001,0.003l0.002,0.005l0.001,0.007L46.152,45c0.01,0.018,0.025,0.035,0.044,0.047
	l0.002,0.002l0.004,0.003c0.03,0.018,0.065,0.022,0.099,0.016c0.036-0.009,0.07-0.028,0.093-0.062v-0.001h0.001L46.397,45
	l0.003-0.005c0.018-0.032,0.024-0.07,0.018-0.104s-0.025-0.066-0.054-0.086l-0.002-0.002l-0.003-0.002h0V44.8l0,0l-0.009-0.006
	l-0.008-0.003l-0.001-0.001v0.001c-0.016-0.008-0.033-0.011-0.05-0.012c-0.055-0.001-0.099-0.048-0.098-0.104l0.001-0.012
	L45.951,44.964z M46.194,44.664l-0.244,0.301l0.001-0.001l-0.001,0.001v0.001l0,0.002c-0.024,0.033-0.058,0.054-0.094,0.062
	c-0.034,0.008-0.068,0.002-0.098-0.015l-0.004-0.003L45.75,45.01l-0.002-0.002c-0.03-0.02-0.049-0.053-0.054-0.087
	c-0.007-0.035,0-0.073,0.02-0.106l0.001-0.001l0.002-0.006c0.016-0.022,0.037-0.04,0.061-0.052l0.004-0.002
	c0.006-0.003,0.012-0.005,0.016-0.006c0.003-0.001,0.009-0.003,0.016-0.005v0.001l0.011-0.002h0
	c0.043-0.007,0.079-0.043,0.084-0.091c0-0.017,0.005-0.032,0.013-0.048l0.005-0.013l0.006-0.009h-0.001l0.002-0.002l0.001-0.002
	c0.023-0.032,0.057-0.055,0.092-0.062c0.034-0.007,0.069-0.003,0.099,0.016l0.004,0.003l0.003,0.001l0,0
	c0.026,0.018,0.044,0.045,0.053,0.072v0.001l0.003,0.013v0.001v0.001c0.002,0.005,0.002,0.012,0.003,0.019v0.002l0,0h0.001
	l-0.001,0.001C46.196,44.65,46.195,44.657,46.194,44.664 M47.725,44.911h0.001l0.011-0.001c0.055-0.004,0.104,0.036,0.109,0.093
	c0.003,0.026-0.005,0.052-0.021,0.071l0.001-0.001l-0.002,0.002l-0.003,0.005l-0.004,0.006l-0.006,0.01v0.001l0,0
	c-0.01,0.02-0.016,0.04-0.015,0.062l0.001,0.004v0.005c0.002,0.035,0.019,0.066,0.044,0.09c0.026,0.024,0.062,0.039,0.104,0.039
	l0.001,0.001v-0.001l0.004,0.001l0.006-0.001c0.037-0.003,0.071-0.021,0.095-0.045s0.04-0.059,0.04-0.094v-0.002v-0.004v-0.001
	l-0.002-0.011v-0.01c-0.004-0.018-0.012-0.033-0.02-0.048c-0.031-0.046-0.018-0.108,0.027-0.14l0.011-0.006L47.725,44.911z
	 M48.109,44.938l-0.386-0.026h0.002h-0.002h-0.002H47.72c-0.041,0-0.078-0.015-0.104-0.039c-0.025-0.023-0.042-0.055-0.044-0.09
	v-0.005v-0.003l-0.001-0.004c0.001-0.035,0.016-0.069,0.041-0.094c0.024-0.025,0.059-0.042,0.098-0.045l0.003-0.001l0.005,0.001
	c0.027-0.001,0.054,0.007,0.077,0.02l0.004,0.002c0.006,0.004,0.011,0.008,0.014,0.01c0.003,0.002,0.007,0.006,0.014,0.011l0,0
	l0.006,0.008h0.001c0.031,0.032,0.082,0.04,0.122,0.017c0.015-0.008,0.031-0.014,0.048-0.017l0.013-0.003l0.01-0.001h0.002h0.003
	c0.04,0,0.078,0.016,0.104,0.041c0.025,0.022,0.042,0.055,0.044,0.089v0.005v0.004c0.001,0.031-0.009,0.061-0.027,0.085h-0.001
	l-0.008,0.01h-0.001l0,0.001c-0.004,0.004-0.009,0.01-0.014,0.014l-0.002,0.001h-0.001l0,0
	C48.122,44.931,48.115,44.935,48.109,44.938 M42.394,53.578l0.002,0.002l0.008,0.007c0.046,0.031,0.057,0.095,0.024,0.141
	c-0.017,0.021-0.038,0.035-0.063,0.04l-0.002,0.001l-0.005,0.001l-0.007,0.001l-0.011,0.004v0.001
	c-0.02,0.008-0.038,0.021-0.052,0.038l-0.001,0.004l-0.004,0.004c-0.02,0.027-0.028,0.062-0.024,0.096
	c0.004,0.036,0.023,0.072,0.054,0.099l0.001,0.001h0.001l0.003,0.002l0.004,0.004c0.03,0.021,0.066,0.032,0.102,0.028
	c0.034-0.003,0.068-0.02,0.092-0.046l0.001-0.001l0.002-0.003V54l0,0l0.006-0.009l0.005-0.008c0.008-0.016,0.014-0.031,0.016-0.049
	c0.006-0.056,0.057-0.095,0.113-0.088l0.011,0.002L42.394,53.578z M40.873,52.363l0.002-0.002l0.006-0.009
	c0.033-0.045,0.096-0.055,0.142-0.021c0.021,0.016,0.035,0.039,0.04,0.063l-0.001-0.001l0.001,0.004v0.004l0.002,0.007l0.004,0.013
	l0,0c0.008,0.02,0.02,0.037,0.037,0.052l0.004,0.003l0.003,0.003c0.027,0.021,0.062,0.03,0.095,0.026
	c0.038-0.005,0.073-0.022,0.099-0.053l0.001-0.001l0,0l0.003-0.004l0.004-0.004c0.022-0.03,0.032-0.066,0.03-0.102
	c-0.002-0.035-0.018-0.068-0.044-0.093l-0.002-0.001l-0.002-0.002h0.001l-0.001-0.002l-0.001,0.001l-0.009-0.007l-0.006-0.004
	h-0.001l0,0c-0.014-0.01-0.031-0.016-0.047-0.017c-0.056-0.009-0.095-0.06-0.087-0.115l0.004-0.011L40.873,52.363z M41.148,52.092
	l-0.276,0.273l0.001-0.002l-0.001,0.002h-0.001l0,0.001c-0.026,0.03-0.063,0.048-0.099,0.051c-0.035,0.004-0.068-0.004-0.096-0.025
	l-0.005-0.001l-0.002-0.003l-0.002-0.002c-0.026-0.024-0.042-0.059-0.043-0.093c-0.003-0.035,0.007-0.073,0.031-0.104l0.002-0.002
	l0.003-0.004h-0.001c0.018-0.022,0.041-0.037,0.066-0.046l0.004-0.001c0.007-0.003,0.014-0.005,0.017-0.005
	c0.003-0.001,0.009-0.001,0.017-0.001V52.13l0.01-0.001l0,0c0.045-0.002,0.084-0.035,0.093-0.08c0.004-0.017,0.01-0.033,0.019-0.048
	l0.007-0.011l0.006-0.009l0.001-0.001l0.002-0.002c0.026-0.03,0.062-0.049,0.099-0.052c0.033-0.004,0.068,0.004,0.097,0.025
	l0.002,0.003l0.003,0.003v-0.001c0.024,0.021,0.039,0.049,0.045,0.079l0.001,0.012v0.002h0h0c0.001,0.006,0.001,0.014,0,0.02v0.002
	h0l0,0.001C41.149,52.079,41.148,52.085,41.148,52.092 M42.669,53.849l-0.277-0.271l0.002,0.001l-0.002-0.001v-0.001l-0.001-0.001
	c-0.031-0.026-0.049-0.062-0.054-0.097c-0.003-0.034,0.004-0.07,0.024-0.099l0.004-0.002l0.001-0.003l0.002-0.003
	c0.023-0.027,0.057-0.043,0.092-0.046c0.036-0.003,0.073,0.007,0.104,0.029l0.003,0.002l0.003,0.004l0,0
	c0.022,0.018,0.037,0.04,0.046,0.063l0.002,0.006c0.002,0.007,0.003,0.013,0.004,0.017c0.001,0.003,0.002,0.009,0.003,0.016v0.011
	c0.003,0.045,0.036,0.085,0.083,0.093c0.016,0.004,0.033,0.009,0.048,0.019l0.01,0.006l0.009,0.007l0.002,0.001l0.002,0.003
	c0.031,0.025,0.049,0.061,0.054,0.097c0.003,0.033-0.004,0.069-0.025,0.098l-0.003,0.003l-0.002,0.003l0,0
	c-0.02,0.024-0.047,0.04-0.076,0.047h-0.001l-0.013,0.001h-0.001h-0.001v0.001c-0.005,0-0.013,0.001-0.019,0H42.69l0,0h-0.001
	C42.683,53.851,42.677,53.85,42.669,53.849 M32.479,59.12l0.002,0.002l0.008,0.007c0.046,0.032,0.056,0.094,0.023,0.141
	c-0.015,0.021-0.038,0.035-0.062,0.04l-0.003,0.001l-0.005,0.001l-0.006,0.001l-0.012,0.005h-0.001l0,0
	c-0.019,0.008-0.037,0.021-0.051,0.038l-0.003,0.003l-0.002,0.004c-0.021,0.027-0.028,0.063-0.025,0.097
	c0.005,0.036,0.023,0.072,0.054,0.099l0.001,0.001l0.004,0.002l0.004,0.004c0.031,0.021,0.067,0.032,0.102,0.028
	c0.036-0.004,0.069-0.02,0.093-0.047h0.001l0.002-0.003l0,0v-0.001l0.006-0.009l0.006-0.008v-0.001
	c0.008-0.015,0.013-0.031,0.015-0.048c0.006-0.056,0.057-0.096,0.113-0.088l0.011,0.001L32.479,59.12z M32.754,59.39l-0.277-0.271
	l0.001,0.001l-0.001-0.001l-0.001-0.001l-0.002-0.001c-0.031-0.026-0.048-0.062-0.053-0.098c-0.003-0.033,0.004-0.069,0.025-0.097
	l0.002-0.003l0.003-0.004l0.001-0.002c0.023-0.027,0.057-0.044,0.092-0.046c0.035-0.003,0.073,0.007,0.104,0.029l0.002,0.002
	l0.004,0.004c0.022,0.018,0.038,0.04,0.046,0.064l0.001,0.005c0.003,0.007,0.004,0.013,0.005,0.016
	c0.001,0.004,0.002,0.01,0.002,0.017l0.001,0.011h0.001c0.001,0.045,0.035,0.084,0.082,0.093c0.017,0.003,0.032,0.009,0.047,0.018
	l0.011,0.007l0.008,0.007l0.002,0.001l0.002,0.002c0.031,0.026,0.049,0.062,0.054,0.098c0.003,0.033-0.004,0.069-0.024,0.098
	l-0.003,0.003l-0.002,0.003l0,0c-0.02,0.024-0.047,0.04-0.077,0.046H32.81l-0.012,0.002h0h-0.001
	c-0.006,0.001-0.013,0.001-0.019,0.001h-0.003l0,0h-0.001C32.768,59.392,32.762,59.391,32.754,59.39 M28.958,59.55h-0.002H28.958z
	 M9.566,40.353c-0.045-0.032-0.057-0.095-0.025-0.14c0.032-0.046,0.095-0.058,0.14-0.025c0.001,0.001,0.424,0.303,0.914,0.332
	l-0.028-0.04l-0.003-0.004L10.5,40.381c-0.183-0.265-0.281-0.406-0.698-0.586c-0.479-0.208-0.89-0.269-0.891-0.269
	c-0.055-0.007-0.094-0.058-0.087-0.114c0.007-0.054,0.058-0.093,0.114-0.087c0.001,0.001,0.441,0.066,0.944,0.284
	c0.04,0.017,0.077,0.034,0.111,0.051c-0.271-0.606-0.86-0.994-0.862-0.996c-0.047-0.031-0.059-0.093-0.028-0.14
	c0.032-0.046,0.094-0.059,0.141-0.028c0.002,0.001,0.791,0.52,1.022,1.32c0.176,0.125,0.268,0.259,0.399,0.451l0.064,0.093
	l0.002,0.002c0.044,0.062,0.091,0.12,0.141,0.174c0.007,0.006,0.013,0.014,0.019,0.021L9.566,40.353z M10.89,40.557l-1.324-0.204
	c0.002,0.001,0.574,0.409,1.199,0.366c0.078,0.082,0.157,0.155,0.233,0.226c0.118,0.11,0.228,0.213,0.304,0.322
	c0.177,0.253,0.419,0.677,0.42,0.678c0.026,0.049,0.087,0.067,0.136,0.041s0.068-0.087,0.042-0.136c0-0.002-0.25-0.438-0.432-0.698
	c-0.052-0.076-0.114-0.143-0.181-0.21c-0.003-0.838-0.631-1.556-0.633-1.557c-0.036-0.043-0.1-0.046-0.142-0.01
	c-0.042,0.037-0.046,0.101-0.01,0.143c0.002,0.002,0.48,0.549,0.569,1.22c-0.049-0.045-0.099-0.093-0.147-0.145L10.89,40.557z
	 M17.255,40.741v0.005V40.741z M42.315,22.373H30.518v28.861c6.79-0.167,12.235-4.842,12.235-10.584c0-0.006,0-0.013,0-0.019l0,0
	V22.72C42.753,22.529,42.556,22.373,42.315,22.373 M27.207,33.731c0.005,0.019,0.021,0.041,0.064,0.045
	c0.005,0.001,0.012,0.001,0.019,0.001l0,0h0.071h2.168l0.034-0.12v-1.5c0,0,0.017-0.088-0.134-0.098
	c-0.031-0.002-0.14-0.003-0.292-0.004v0.382c0,0.136-0.092,0.248-0.204,0.248c-0.111,0-0.202-0.112-0.202-0.248v-0.382h-0.381
	l-0.345,0.001v0.381c0,0.136-0.092,0.248-0.204,0.248c-0.111,0-0.203-0.112-0.203-0.248v-0.38l-0.309,0.002
	c0,0-0.041-0.005-0.083,0.015v1.624l0,0V33.731z M27.207,33.876h0.08h0.003h0.071h2.116c0,0.023-0.008,0.048-0.024,0.066
	l-0.32,0.364v6.921v0.002h0.097c0.126,0,0.23,0.104,0.23,0.23v1.373c0.051,0.001,0.097,0.021,0.131,0.054l0,0
	c0.033,0.032,0.055,0.075,0.059,0.124v0.013l0,0V43.2v0.001l0,0v0.002c-0.001,0.052-0.023,0.099-0.059,0.133
	c-0.032,0.03-0.075,0.051-0.123,0.054c-0.004,0-0.008,0-0.013,0l0,0l0,0h-2.034l-1.562,2.269c-0.011,0.045-0.051,0.078-0.098,0.078
	h-2.951c-0.047,0-0.087-0.032-0.099-0.076L21.15,43.39h-2.033l0,0h-0.001c-0.004,0-0.008,0-0.011,0
	c-0.048-0.003-0.092-0.023-0.124-0.054c-0.035-0.034-0.057-0.081-0.058-0.133v-0.002h0V43.2v-0.177l0,0
	c0-0.007,0.001-0.012,0.001-0.018c0.004-0.046,0.025-0.089,0.058-0.119c0.033-0.031,0.08-0.053,0.131-0.054V41.46
	c0-0.127,0.103-0.23,0.23-0.23h0.109v-6.923l-0.382-0.436h2.386c0.033-0.013,0.058-0.042,0.063-0.078l0.032-0.109
	c0.002-0.008,0.004-0.017,0.004-0.027h0v-1.5c0-0.009-0.001-0.018-0.003-0.026c0-0.004-0.001-0.01-0.002-0.016l0.763-0.449
	l0.007-0.003v-0.016h0.691v-2.786V28.76v-0.739c0-0.009,0.001-0.019,0.004-0.028c-0.144-0.051-0.4-0.184-0.445-0.485h3.368
	c0.037,0-0.222,0.418-0.475,0.496c0.001,0.004,0.001,0.009,0.001,0.013v0.002v0.002v0.002v0.737v0.101v2.786h0.69v0.015
	c0.029-0.014,0.064-0.014,0.095,0.004l0.877,0.511l0.002-0.007v1.667c0,0.021,0.018,0.04,0.039,0.04H27.207z M12.296,45.351
	l0.01,0.003h0.002l0.003,0.001c0.043,0.015,0.092,0.03,0.141,0.048c0.086,0.03,0.181,0.068,0.273,0.112
	c-0.158-0.42-0.311-0.821-0.387-1.02c-0.03-0.078-0.059-0.179-0.087-0.289c-0.049-0.075-0.107-0.16-0.171-0.248
	c-0.102-0.14-0.397-0.365-0.66-0.55c-0.053-0.037-0.104-0.072-0.15-0.104l-0.059-0.041c-0.083,0.077-0.194,0.125-0.316,0.126l0,0
	h-0.001l0,0l0,0c-0.129,0-0.246-0.054-0.33-0.138c-0.083-0.084-0.136-0.201-0.136-0.329h0v-0.001v-0.001h0
	c0-0.129,0.053-0.245,0.137-0.329c0.084-0.084,0.2-0.136,0.328-0.137l0,0h0.001h0.001l0,0c0.129,0,0.245,0.053,0.33,0.138
	c0.083,0.083,0.136,0.199,0.137,0.328l0,0v0.001v0.001l0,0c-0.001,0.062-0.013,0.121-0.035,0.176l0.059,0.039
	c0.05,0.034,0.102,0.069,0.152,0.105c0.223,0.156,0.47,0.342,0.619,0.494c-0.095-0.543-0.153-1.115-0.153-1.115l0,0l0.006,0.001
	c-0.122-0.026-0.272-0.067-0.457-0.128c-0.61-0.198-2.221-1.263-2.382-1.767c-0.161-0.505,0.104-0.532-0.192-0.543
	c-0.297-0.011-0.616-0.513-0.575-1.122c0.042-0.607,0.232-0.414,0.14-0.72s-0.531-0.837-0.311-0.957
	c0.221-0.118,0.515,0.47,0.753,0.528c0.24,0.057,0.568-0.085,0.828,0.113c0.122,0.095,0.3,0.255,0.541,0.447
	c0.026-0.387,0.155-0.649,0.353-0.833c0.307-0.286,0.483-0.845,0.517-1.191c0.034-0.347,0.372-0.052,0.431,0.25
	c0.058,0.303,0.398,0.405,0.673,0.816c0.275,0.412,0.099,0.43,0.232,0.862c0.133,0.433,0.428,0.636,0.562,0.142
	c0.135-0.494,0.068-0.885,0.604-1.008c0.537-0.124,0.588-0.292,0.872-0.527c0.285-0.235,0.606-0.117,0.352,0.348
	c-0.254,0.465,0.035,1.087,0.166,1.363c0.131,0.274-0.029,0.661-0.223,1.044c-0.194,0.383,0.315,0.538-0.062,1.008
	c-0.377,0.471-1.109,1.17-1.422,1.331c-0.312,0.163-0.987,0.485-0.987,0.485l0.015-0.008c-0.029,0.302-0.028,0.841,0.195,1.536
	c0.037-0.166,0.11-0.299,0.178-0.393c0.026-0.035,0.052-0.066,0.077-0.093l0.001-0.001c-0.03-0.061-0.046-0.129-0.046-0.201h-0.001
	v-0.001v-0.001h0.001c0-0.129,0.052-0.246,0.137-0.33c0.084-0.084,0.2-0.136,0.329-0.136v-0.001h0h0.001v0.001
	c0.129,0,0.246,0.052,0.329,0.137c0.085,0.083,0.137,0.199,0.137,0.328h0.001v0.002l0,0h-0.001c0,0.129-0.052,0.245-0.137,0.33
	c-0.084,0.084-0.2,0.137-0.328,0.137l0,0h-0.002l0,0l0,0c-0.111,0-0.213-0.039-0.293-0.104c-0.012,0.015-0.026,0.032-0.04,0.052
	c-0.111,0.153-0.234,0.427-0.116,0.809c0.005,0.018,0.006,0.035,0.002,0.052c0.401,0.909,0.795,1.632,1,1.989l0,0
	c0.154,0.054,0.334,0.114,0.527,0.242c0.412,0.274,0.255,0.358,0.544,0.706c0.29,0.348,0.64,0.422,0.575-0.086
	c-0.066-0.508-0.277-0.843,0.17-1.162c0.447-0.321,0.43-0.497,0.602-0.823s0.514-0.341,0.458,0.187s0.451,0.989,0.677,1.193
	c0.227,0.203,0.228,0.621,0.196,1.05c-0.032,0.429,0.498,0.375,0.331,0.955c-0.167,0.579-0.575,1.505-0.801,1.775
	c-0.103,0.123-0.264,0.306-0.407,0.468c0.282,0.26,0.666,0.608,0.902,0.806c0.263,0.22,1.169,0.694,1.976,1.077
	c-0.04-0.343,0.083-0.596,0.196-0.751c0.024-0.034,0.051-0.066,0.076-0.093l0.001-0.001c-0.029-0.061-0.045-0.129-0.046-0.201h0
	v-0.001l0,0h0c0-0.129,0.052-0.246,0.137-0.33c0.084-0.083,0.2-0.136,0.329-0.137l0,0h0h0.001l0,0c0.128,0,0.246,0.054,0.33,0.138
	c0.083,0.084,0.136,0.2,0.137,0.328l0,0v0.001v0.001l0,0c0,0.129-0.053,0.245-0.138,0.33c-0.083,0.083-0.2,0.136-0.328,0.136l0,0
	h-0.001h0l0,0c-0.111,0-0.213-0.039-0.292-0.104c-0.013,0.015-0.026,0.032-0.041,0.052c-0.104,0.144-0.219,0.393-0.136,0.737
	c0.358,0.167,0.683,0.309,0.898,0.388c0.406,0.153,1.046,0.497,1.532,0.771c-0.009-0.001-0.019-0.003-0.028-0.005
	c0.243,0.057,0.521-0.085,0.948-0.042c0.492,0.049,0.394,0.196,0.812,0.369c0.417,0.171,0.762,0.074,0.467-0.346
	c-0.295-0.418-0.64-0.615-0.394-1.106c0.247-0.492,0.147-0.641,0.147-1.009c0-0.369,0.295-0.542,0.492-0.05
	c0.197,0.493,0.861,0.664,1.156,0.738c0.295,0.073,0.493,0.443,0.664,0.836c0.173,0.395,0.616,0.1,0.739,0.689
	c0.124,0.591,0.197,1.601,0.124,1.944c-0.038,0.172-0.1,0.438-0.155,0.662l0.002-0.009l0.179,0.031c0,0,1.805,1.143,3.032,2.08
	c1.228-0.938,3.032-2.08,3.032-2.08l0.02-0.004c0.041-0.104,0.707-1.778,2.022-2.955c1.357-1.217,2.36-1.255,2.787-1.549
	c0.428-0.294,1.272-1.204,1.204-0.829c-0.069,0.374-0.299,0.649-0.748,1.286c-0.45,0.637-1.407,1.788-1.407,1.788
	s0.76-0.131,1.347-0.202c0.393-0.212,1.226-0.664,1.696-0.958l0.063-0.039c0.201-0.315,0.283-0.782,0.306-0.942
	c-0.096,0-0.292-0.032-0.348-0.283c-0.076-0.339,0.275-0.396,0.275-0.396s0.053-0.235,0.34-0.219
	c0.287,0.018,0.315,0.313,0.316,0.32c0.001,0.008,0.262,0.123,0.185,0.402c-0.117,0.416-0.517,0.222-0.517,0.222l-0.054-0.013
	c-0.019,0.132-0.075,0.44-0.196,0.734c0.654-0.352,1.51-0.732,1.503-0.833c0-0.008,0.001-0.014,0.003-0.019l-0.02-0.018
	c0,0-0.16-1.861,0.532-3.548c0.692-1.686,1.579-2.156,1.835-2.607c0.256-0.451,0.62-1.638,0.721-1.271
	c0.102,0.366,0.015,0.716-0.113,1.484c-0.127,0.768-0.488,2.222-0.488,2.222s0.265-0.188,0.584-0.408
	c0.09-0.2,0.552-1.224,0.895-1.984c0.035-0.478-0.319-1.118-0.32-1.121c-0.01-0.019-0.015-0.037-0.012-0.057
	c-0.087,0.013-0.305,0.018-0.394-0.242c-0.112-0.328,0.23-0.424,0.23-0.424s0.028-0.24,0.314-0.254
	c0.287-0.015,0.348,0.276,0.35,0.283c0.002,0.008,0.274,0.093,0.227,0.38c-0.07,0.426-0.489,0.278-0.489,0.278l-0.02-0.004
	c0.064,0.128,0.213,0.447,0.28,0.785l0.137-0.307c0.278-0.62,0.367-1.749,0.367-1.757c-0.214-0.333-1.037-1.699-1.237-3.269
	c-0.231-1.808,0.308-2.654,0.308-3.173s-0.269-1.731,0-1.462c0.27,0.269,0.366,0.615,0.635,1.346
	c0.269,0.73,0.673,2.174,0.673,2.174s0.616-1.327,0.866-1.693c0.25-0.365,0.173-0.904,0.384-1.25
	c0.212-0.346,0.481-0.193,0.385,0.076c-0.096,0.27-0.211,0.828-0.192,1.232c0.019,0.403,0.077,1.172,0,1.635
	c-0.077,0.461-0.097,0.557-0.097,0.557s0.924-1.269,1.597-1.903c0.673-0.635,1.461-0.924,1.154-0.52
	c-0.307,0.403-0.615,0.923-0.827,1.77c-0.212,0.847-0.404,1.673-1.039,2.328c-0.635,0.653-2.135,2.327-2.135,2.327
	s-0.285,0.665-0.4,1.058c-0.013,0.047-0.036,0.12-0.065,0.212c0.202-0.188,0.427-0.332,0.554-0.408
	c-0.063-0.072-0.166-0.239-0.015-0.446c0.204-0.281,0.479-0.055,0.479-0.055s0.212-0.116,0.389,0.11
	c0.177,0.227-0.027,0.442-0.031,0.449c-0.004,0.006,0.081,0.277-0.18,0.404c-0.389,0.188-0.508-0.24-0.508-0.24l-0.027-0.052
	c-0.225,0.133-0.804,0.508-0.87,0.913c-0.003,0.023-0.015,0.045-0.033,0.06c-0.239,0.721-0.534,1.593-0.587,1.754
	c0.102-0.062,0.19-0.114,0.258-0.146c0.398-0.194,0.597-0.701,0.952-0.897c0.354-0.197,0.513,0.07,0.296,0.257
	s-0.592,0.615-0.775,0.975c-0.183,0.362-0.512,1.059-0.808,1.423c-0.294,0.363-0.359,0.437-0.359,0.437s1.43-0.647,2.329-0.867
	c0.899-0.219,1.728-0.081,1.261,0.119c-0.468,0.199-0.991,0.499-1.594,1.13c-0.602,0.632-1.177,1.256-2.052,1.512
	c-0.875,0.254-3.006,0.969-3.006,0.969l-0.052-0.047c-0.113,0.097-0.527,0.438-0.98,0.661c0.256,0.023,0.483,0.078,0.59,0.108
	c-0.005-0.035-0.042-0.326,0.275-0.403c0.336-0.081,0.399,0.269,0.399,0.269s0.237,0.05,0.224,0.337
	c-0.012,0.288-0.307,0.321-0.314,0.322c-0.008,0-0.118,0.264-0.399,0.19c-0.417-0.109-0.231-0.513-0.231-0.513l0.002-0.006
	c-0.155-0.043-0.644-0.164-1.024-0.101c-0.391,0.186-0.886,0.493-1.212,0.706c0.213-0.098,0.422-0.202,0.633-0.214
	c0.405-0.023,0.431,0.286,0.154,0.359c-0.276,0.073-0.801,0.295-1.123,0.54c-0.32,0.246-0.922,0.73-1.345,0.929
	c-0.424,0.199-0.514,0.237-0.514,0.237s1.57,0.04,2.475,0.233c0.905,0.194,1.59,0.68,1.083,0.655s-1.11,0.018-1.926,0.324
	c-0.817,0.306-1.607,0.617-2.505,0.466c-0.831-0.14-2.796-0.394-3.091-0.432l0.002,0.004c-0.137,0.06-0.281,0.122-0.432,0.19
	c-0.919,0.413-1.686,0.906-2.366,1.489c0.477-0.195,1.205-0.055,1.321-0.03l0.002-0.009c0,0-0.062-0.324,0.274-0.406
	c0.336-0.081,0.399,0.269,0.399,0.269s0.237,0.05,0.224,0.337c-0.013,0.287-0.307,0.321-0.315,0.322
	c-0.007,0.001-0.118,0.264-0.399,0.19c-0.391-0.103-0.251-0.463-0.232-0.508c-0.14-0.028-1.002-0.191-1.355,0.114
	c0.269,0.221,0.486,0.419,0.613,0.574c0.234,0.284,0.75,1.006,1.399,1.894c4.867-0.271,8.89-1.513,11.308-2.676
	c0.39-0.277-0.038-0.668-0.578-0.416c-0.928,0.227-1.543,0.24-1.506,0.139c-0.313,0-0.175-0.416,0.264-0.63
	c5.222-1.612,11.16-6.261,13.945-10.783c0.666-1.146,1.143-2.104-0.464-1.727c-0.339,0.139-0.766,0.555-1.13,0.353
	c-0.54-0.756-0.05-1.335,1.444-2.859c2.875-2.394,4.042-3.275,3.804-7.231c1.054,2.722,1.543,5.469-0.929,7.622
	c0.865,0.013,1.305,0.125,1.795,0.315c-1.694,0.906-1.946,1.713-2.335,2.582c0.439,0.391,1.708,1.196,2.16,1.6
	c0.665,0.505,0.389,1.096,0.188,1.487c-2.611,5.039-8.586,10.633-14.235,13.189c0.189,0.353,0.013,1.084-0.301,1.134
	c-2.935,1.218-6.248,2.128-9.685,2.641l0.012-0.002c0.148,0.152,0.289,0.289,0.421,0.406c1.696,1.511,5.4,3.589,7.176,3.554
	c1.777-0.035,1.422,0.745,1.173,0.959c-0.249,0.213-3.233-0.284-5.045-1.386c-1.225-0.744-2.968-1.829-4.539-3.42h0.013
	c-3.612,0.471-7.338,0.5-10.892-0.016c0.071,0.011,0.143,0.02,0.213,0.03c-1.568,1.583-3.305,2.663-4.526,3.405
	c-1.812,1.102-4.796,1.599-5.045,1.386c-0.249-0.214-0.604-0.994,1.173-0.959c1.776,0.035,5.48-2.043,7.176-3.554
	c0.13-0.115,0.269-0.25,0.415-0.399c0.137,0.022,0.274,0.043,0.411,0.064c-2.814-0.426-5.516-1.193-7.963-2.357
	c-0.301-0.138-0.489-0.806-0.352-1.184c-5.648-2.558-12.201-7.219-14.812-12.258c-0.201-0.391-0.477-0.982,0.188-1.486
	c0.452-0.403,1.783-1.21,2.222-1.601c-0.389-0.869-1.042-1.914-2.749-2.822c0.49-0.188,0.941-0.302,1.808-0.313
	c-1.845-1.601-1.908-2.975-1.971-4.699c0.138-1.135,0.502-2.18,0.803-2.936c0,1.021,0.025,2.306,0.239,3.49
	c0.966,1.814,2.31,2.532,4.205,3.993c1.494,1.524,1.732,2.104,1.318,2.898c-0.327-0.126-0.666-0.253-1.004-0.391
	c-1.268-0.089-1.005,0.68-0.465,1.726c2.762,4.534,8.473,8.213,13.958,9.75c0.327,0.025,0.64,0.58,0.364,0.631
	c-0.439,0.163-1.192-0.189-1.645,0.024c-0.125-0.05-1.28,0.076-0.59,0.354c3.386,1.361,6.717,2.062,9.838,2.314
	c0.628-0.862,1.126-1.557,1.355-1.835c0.147-0.178,0.412-0.413,0.738-0.672l-0.019-0.018c-0.367,0.27-0.719,0.249-0.937,0.191
	c-0.043-0.012-0.082-0.025-0.114-0.037l-0.002-0.002c-0.046,0.049-0.104,0.09-0.17,0.115l-0.005,0.002
	c-0.119,0.046-0.245,0.038-0.353-0.01l-0.007-0.004c-0.105-0.048-0.193-0.136-0.239-0.253V59.28l0-0.001
	c-0.045-0.119-0.039-0.247,0.009-0.355l0.005-0.009c0.049-0.104,0.136-0.191,0.252-0.236l0.001-0.001h0.002v-0.001l0,0
	c0.12-0.045,0.247-0.038,0.355,0.01l0.01,0.004c0.104,0.05,0.191,0.138,0.236,0.253l0.001,0.004c0.039,0.104,0.039,0.212,0.007,0.31
	c0.019,0.007,0.041,0.014,0.063,0.019c0.17,0.046,0.44,0.062,0.729-0.133c-0.688-0.596-1.463-1.095-2.396-1.516
	c-0.173-0.077-0.339-0.149-0.494-0.218c0.096,0.096-0.065,0.283-0.608,0.628c-0.541,0.344-2.386,0.91-2.878,0.714
	c-0.492-0.197-0.344-0.419-0.541-0.197c-0.197,0.222-0.788,0.147-1.231-0.271c-0.443-0.418-0.172-0.442-0.467-0.566
	c-0.295-0.123-0.984-0.123-0.936-0.369c0.049-0.246,0.69-0.099,0.886-0.246c0.197-0.147,0.296-0.492,0.616-0.565
	c0.159-0.037,0.413-0.073,0.737-0.143l-0.048,0.01c-0.282-0.266-0.403-0.532-0.418-0.802c-0.021-0.366-0.268-0.788-0.494-1.053
	l0.014,0.016c-0.002-0.001-1.536-0.604-2.378-1.081c-0.106-0.023-0.316-0.064-0.559-0.093c-0.117-0.013-0.33,0.014-0.552,0.053
	c-0.204,0.036-0.413,0.082-0.571,0.119c0.006,0.079-0.007,0.156-0.038,0.226c-0.001,0.004-0.002,0.008-0.004,0.01
	c-0.049,0.104-0.137,0.192-0.253,0.236l-0.005,0.003c-0.12,0.045-0.246,0.037-0.354-0.011l-0.007-0.003
	c-0.105-0.049-0.193-0.137-0.239-0.254l-0.001-0.003v-0.001h0c-0.045-0.12-0.039-0.247,0.01-0.355l0.004-0.009
	c0.049-0.104,0.137-0.191,0.253-0.237h0.001h0.001v-0.001c0.12-0.045,0.248-0.038,0.355,0.009l0.009,0.006
	c0.086,0.04,0.16,0.106,0.208,0.191c0.166-0.039,0.386-0.089,0.594-0.125c0.239-0.043,0.471-0.071,0.611-0.054l0.041,0.005
	c-0.996-0.588-2.547-1.541-2.547-1.541c-0.109,0.066-0.352,0.115-0.765,0.148c-0.64,0.052-2.536-0.311-2.878-0.715
	c-0.343-0.404-0.109-0.531-0.386-0.428c-0.278,0.104-0.766-0.238-0.961-0.814s0.055-0.473-0.148-0.72
	c-0.204-0.246-0.813-0.569-0.654-0.764c0.158-0.194,0.655,0.235,0.898,0.197c0.244-0.038,0.491-0.297,0.808-0.213
	c0.149,0.04,0.375,0.121,0.671,0.207c-0.125-0.369-0.107-0.66,0.005-0.906c0.174-0.382,0.121-0.967,0.019-1.299
	c-0.028-0.091-0.017-0.146,0.018-0.174l-0.14-0.369c-0.124-0.087-0.302-0.16-0.45-0.213c-0.051-0.018-0.096-0.032-0.135-0.044
	l-0.005-0.002l-0.025-0.009c-0.017,0.024-0.036,0.048-0.056,0.068c-0.084,0.084-0.201,0.136-0.328,0.137l0,0h-0.002l0,0l0,0
	c-0.129-0.001-0.246-0.053-0.33-0.138c-0.083-0.084-0.135-0.2-0.136-0.329h0v-0.001l0,0h0c0-0.129,0.052-0.246,0.137-0.329
	c0.084-0.086,0.2-0.137,0.329-0.138l0,0h0h0.001l0,0c0.129,0,0.246,0.053,0.33,0.138c0.084,0.084,0.136,0.199,0.136,0.328h0v0.001
	l0,0h0C12.302,45.302,12.3,45.327,12.296,45.351 M23.568,56.163c-0.046,0.015-0.091,0.029-0.137,0.044
	C23.477,56.192,23.522,56.178,23.568,56.163 M47.133,39.832c-0.001,0.003-0.34,1.228-0.302,1.995l0.001,0.012v0.001v0.004
	c0.005,0.11,0.014,0.219,0.022,0.324c0.009,0.106,0.021,0.22,0.034,0.336c0.063,0.567,0.155,1.093,0.179,1.162
	c0.018,0.053,0.074,0.082,0.128,0.064c0.053-0.018,0.081-0.075,0.063-0.128c-0.021-0.063-0.107-0.565-0.17-1.123
	c-0.011-0.104-0.022-0.214-0.033-0.328c-0.01-0.115-0.018-0.224-0.022-0.323l-0.001-0.011c-0.036-0.735,0.294-1.932,0.295-1.936
	c0.013-0.054-0.02-0.109-0.073-0.124C47.202,39.746,47.146,39.777,47.133,39.832 M48.409,40.346
	c-0.001,0.002-0.493,1.177-0.552,1.943c-0.003,0.057,0.038,0.105,0.094,0.108c0.055,0.004,0.104-0.037,0.108-0.093
	c0.057-0.734,0.535-1.877,0.537-1.879c0.021-0.052-0.002-0.111-0.054-0.133C48.491,40.271,48.432,40.294,48.409,40.346
	 M44.427,48.689c0.038-0.04,0.103-0.041,0.143-0.002c0.04,0.038,0.04,0.103,0.001,0.143c-0.002,0.003-0.862,0.895-1.18,1.558l0,0
	l-0.01,0.021l-0.002,0.005c-0.044,0.093-0.088,0.19-0.131,0.288c-0.042,0.098-0.085,0.201-0.127,0.307
	c-0.208,0.514-0.371,0.992-0.381,1.058c-0.01,0.054-0.062,0.091-0.117,0.082c-0.055-0.01-0.092-0.062-0.083-0.117
	c0.013-0.071,0.18-0.572,0.394-1.099c0.04-0.101,0.083-0.204,0.129-0.311c0.045-0.102,0.089-0.2,0.135-0.296l0.001-0.004l0.01-0.021
	l0.001,0.001v-0.001C43.542,49.607,44.424,48.692,44.427,48.689 M45.329,50.075c-0.003,0.002-1.008,0.778-1.439,1.416
	c-0.031,0.046-0.018,0.108,0.028,0.141c0.045,0.031,0.109,0.019,0.14-0.027c0.412-0.61,1.394-1.369,1.396-1.371
	c0.044-0.035,0.051-0.1,0.016-0.143S45.373,50.04,45.329,50.075 M28.55,59.006c-0.027,0.062-0.032,0.134-0.006,0.202l0,0l0,0.002
	c0.026,0.065,0.077,0.116,0.137,0.144l0.002,0.002c0.062,0.027,0.134,0.031,0.203,0.005v0.001l0.002-0.001
	c0.053-0.021,0.096-0.058,0.125-0.102l0.001-0.001l0.001-0.002v-0.001l0.003-0.004c0.004-0.008,0.009-0.017,0.014-0.024l0.002-0.006
	c0.027-0.062,0.031-0.134,0.005-0.201h0l0-0.002c-0.026-0.066-0.075-0.116-0.134-0.145l-0.005-0.002
	c-0.062-0.027-0.134-0.031-0.202-0.005l-0.003,0.001c-0.065,0.025-0.114,0.074-0.143,0.133L28.55,59.006z M12.318,42.651
	l-0.006,0.001h0.003l0,0l0,0L12.318,42.651z M13.529,46.504c0.007,0.007,0.014,0.013,0.021,0.019
	C13.543,46.517,13.536,46.511,13.529,46.504 M13.734,46.621c0.015,0.006,0.029,0.012,0.044,0.018
	C13.764,46.633,13.749,46.627,13.734,46.621 M11.836,45.011L11.836,45.011L11.836,45.011l-0.001,0.001v-0.001
	c-0.072,0-0.138,0.03-0.186,0.078c-0.048,0.047-0.078,0.114-0.078,0.187l0,0l0,0v0.001l0,0c0,0.073,0.029,0.139,0.078,0.187
	c0.048,0.047,0.114,0.078,0.187,0.078V45.54l0,0h0.002v0.001c0.072,0,0.138-0.031,0.186-0.078c0.023-0.022,0.042-0.05,0.056-0.081
	v-0.001l0-0.001l0,0l0.001-0.002l0.001-0.002v-0.001c0.013-0.031,0.02-0.063,0.02-0.1h0l0,0v-0.001h0
	c0-0.072-0.03-0.139-0.078-0.186C11.975,45.041,11.909,45.011,11.836,45.011 M12.224,50.163c0.001,0,0.412-0.095,0.932-0.077
	c0.455,0.016,0.598,0.111,0.865,0.29l0.094,0.064c0.015,0.01,0.03,0.02,0.045,0.028c-0.466,0.152-0.968,0.026-0.97,0.025
	c-0.054-0.014-0.109,0.021-0.123,0.075c-0.013,0.053,0.02,0.108,0.074,0.121c0.002,0.001,0.684,0.172,1.25-0.097
	c0.103,0.048,0.203,0.087,0.299,0.125c0.149,0.06,0.289,0.113,0.402,0.188c0.257,0.171,0.638,0.477,0.638,0.478
	c0.042,0.035,0.106,0.031,0.143-0.012c0.036-0.043,0.03-0.106-0.013-0.143c0-0.001-0.393-0.316-0.657-0.491
	c-0.076-0.051-0.159-0.091-0.245-0.129c-0.31-0.778-1.157-1.217-1.16-1.218c-0.05-0.025-0.111-0.006-0.137,0.043
	c-0.025,0.05-0.006,0.11,0.044,0.136c0.002,0.002,0.647,0.336,0.976,0.928c-0.077-0.031-0.155-0.063-0.235-0.102
	c-0.007-0.005-0.015-0.009-0.023-0.011c-0.066-0.034-0.133-0.071-0.199-0.114l-0.093-0.062c-0.192-0.13-0.328-0.22-0.537-0.272
	c-0.508-0.659-1.432-0.854-1.435-0.854c-0.054-0.012-0.108,0.023-0.12,0.078s0.023,0.108,0.078,0.12c0.002,0,0.691,0.146,1.166,0.61
	c-0.039-0.003-0.079-0.006-0.123-0.007c-0.548-0.019-0.977,0.08-0.978,0.081c-0.055,0.011-0.09,0.063-0.08,0.118
	C12.116,50.139,12.169,50.174,12.224,50.163 M15.743,47.361c0.001,0.001,0.267,0.322,0.484,0.797
	c0.19,0.413,0.168,0.584,0.127,0.903l-0.014,0.111v0.001H16.34c-0.002,0.018-0.004,0.035-0.005,0.053
	c-0.345-0.348-0.458-0.853-0.458-0.854c-0.011-0.054-0.065-0.089-0.12-0.078c-0.054,0.013-0.089,0.065-0.079,0.12
	c0,0.001,0.091,0.405,0.354,0.768c-0.119-0.081-0.252-0.168-0.392-0.258c-0.322-0.211-0.673-0.439-0.918-0.631l-0.005-0.004
	l-0.003-0.002l0,0h0c-0.542-0.425-0.886-0.868-0.887-0.87c-0.034-0.045-0.097-0.054-0.141-0.021
	c-0.045,0.033-0.054,0.097-0.021,0.142c0.001,0.001,0.362,0.467,0.924,0.907v0.001l0.002,0.002l0.006,0.004
	c0.252,0.195,0.607,0.428,0.933,0.64c0.389,0.256,0.735,0.48,0.779,0.556c0.007,0.012,0.017,0.022,0.026,0.03
	c0.004,0.047,0.007,0.091,0.011,0.136c0.015,0.158,0.028,0.308,0.012,0.443c-0.038,0.307-0.141,0.783-0.141,0.785
	c-0.013,0.054,0.021,0.108,0.076,0.121c0.054,0.014,0.108-0.021,0.121-0.075c0-0.001,0.107-0.492,0.145-0.808
	c0.01-0.09,0.01-0.182,0.004-0.276c0.556-0.626,0.569-1.578,0.569-1.58c0.001-0.056-0.042-0.104-0.098-0.104
	s-0.103,0.042-0.104,0.098c0,0.003-0.009,0.73-0.391,1.29c-0.007-0.082-0.013-0.166-0.014-0.254c0.001-0.01,0.001-0.019,0-0.028
	c0-0.074,0.004-0.15,0.013-0.228h0l0.015-0.11c0.029-0.231,0.05-0.392,0.003-0.603c0.361-0.75,0.122-1.662,0.121-1.664
	c-0.015-0.054-0.069-0.088-0.124-0.074c-0.054,0.014-0.086,0.069-0.072,0.123c0.001,0.003,0.18,0.684-0.023,1.317
	c-0.015-0.036-0.031-0.074-0.049-0.113c-0.229-0.498-0.512-0.84-0.513-0.841c-0.036-0.043-0.1-0.048-0.142-0.013
	C15.713,47.256,15.707,47.318,15.743,47.361 M13.309,43.14L13.309,43.14L13.309,43.14h-0.001l0,0c-0.073,0-0.139,0.028-0.186,0.077
	c-0.048,0.048-0.078,0.114-0.078,0.187l0,0v0.001v0.001l0,0c0,0.059,0.02,0.112,0.052,0.156l0.001,0.002v0.001l0.001,0.001h0.001
	c0.007,0.01,0.015,0.019,0.022,0.026c0.048,0.047,0.114,0.077,0.187,0.077l0,0l0,0h0.002l0,0c0.072,0,0.138-0.03,0.186-0.077
	c0.048-0.048,0.077-0.114,0.077-0.188h0l0,0v-0.002h0c0-0.072-0.029-0.138-0.077-0.186C13.448,43.168,13.382,43.14,13.309,43.14
	 M11.109,43.079l0.001-0.002l0.003-0.006c0.029-0.042,0.046-0.094,0.046-0.148l0,0v-0.001v-0.001l0,0
	c0-0.072-0.029-0.139-0.077-0.186c-0.048-0.049-0.114-0.078-0.187-0.078v0.001h-0.001h-0.001v-0.001
	c-0.072,0-0.139,0.029-0.186,0.078c-0.048,0.047-0.078,0.113-0.078,0.186h0v0.001v0.001h0c0,0.073,0.03,0.139,0.078,0.187
	c0.047,0.047,0.114,0.077,0.187,0.077l0,0h0.001c0.072,0,0.138-0.03,0.186-0.077C11.092,43.1,11.101,43.09,11.109,43.079
	 M14.161,39.684c0.024-0.05,0.084-0.071,0.135-0.047c0.05,0.024,0.072,0.084,0.047,0.135c-0.001,0.002-0.395,0.868-1.157,1.216
	c-0.034,0.089-0.07,0.174-0.116,0.252c-0.162,0.271-0.456,0.677-0.457,0.679c-0.032,0.045-0.095,0.056-0.141,0.023
	c-0.045-0.033-0.056-0.096-0.023-0.141c0.001-0.001,0.289-0.398,0.447-0.665c0.069-0.117,0.117-0.258,0.168-0.41
	c0.014-0.042,0.028-0.085,0.044-0.129c-0.006-0.012-0.01-0.023-0.012-0.038c-0.01-0.086-0.235-0.432-0.489-0.822
	c-0.212-0.324-0.442-0.678-0.593-0.957l-0.008-0.014h0.001h-0.001c-0.336-0.63-0.479-1.198-0.479-1.2
	c-0.015-0.054,0.018-0.11,0.072-0.124c0.054-0.014,0.109,0.018,0.123,0.072c0,0.002,0.138,0.55,0.463,1.156l0,0l0.007,0.014
	c0.148,0.273,0.375,0.623,0.584,0.943c0.09,0.139,0.177,0.272,0.253,0.394c-0.095-0.438-0.016-0.843-0.015-0.845
	c0.011-0.055,0.064-0.089,0.119-0.078c0.055,0.011,0.09,0.065,0.078,0.12c0,0.001-0.101,0.508,0.075,0.966
	c0.009-0.016,0.017-0.03,0.026-0.045h0v-0.001l0.057-0.095l0-0.002c0.167-0.275,0.255-0.422,0.249-0.878
	c-0.008-0.52-0.123-0.922-0.124-0.923c-0.015-0.054,0.017-0.11,0.07-0.125c0.054-0.015,0.11,0.017,0.125,0.07
	c0,0.001,0.121,0.427,0.13,0.976c0,0.044,0,0.084,0,0.123c0.44-0.497,0.551-1.192,0.551-1.195c0.009-0.054,0.06-0.093,0.115-0.083
	c0.054,0.008,0.092,0.06,0.084,0.114c0,0.003-0.148,0.936-0.781,1.477c-0.042,0.212-0.126,0.351-0.246,0.55l-0.005,0.007
	l-0.053,0.088c-0.04,0.068-0.073,0.135-0.103,0.203c-0.002,0.009-0.006,0.018-0.011,0.026c-0.034,0.08-0.063,0.16-0.089,0.238
	C13.857,40.349,14.16,39.687,14.161,39.684 M20.304,51.744L20.304,51.744L20.304,51.744h-0.001l0,0c-0.072,0-0.138,0.03-0.187,0.077
	c-0.048,0.048-0.077,0.115-0.077,0.188l0,0l0,0v0.001l0,0c0,0.059,0.02,0.113,0.052,0.157l0.001,0.001l0.001,0.002
	c0.007,0.01,0.015,0.018,0.023,0.026c0.048,0.048,0.114,0.078,0.187,0.078l0,0h0h0.001l0,0c0.072,0,0.139-0.03,0.186-0.078
	s0.078-0.114,0.078-0.187h0v-0.001v-0.001h0c0-0.071-0.031-0.139-0.078-0.187C20.443,51.774,20.377,51.744,20.304,51.744
	 M17.001,53.492c-0.027,0.062-0.031,0.135-0.005,0.201l0,0l0.001,0.003c0.025,0.065,0.076,0.116,0.136,0.144l0.003,0.001
	c0.062,0.028,0.134,0.032,0.202,0.006v0.001l0.002-0.001c0.066-0.025,0.115-0.075,0.144-0.134l0.002-0.006
	c0.027-0.062,0.031-0.134,0.006-0.201l-0.001-0.002c-0.025-0.066-0.075-0.116-0.133-0.144l-0.006-0.003
	c-0.062-0.027-0.134-0.031-0.202-0.005l0,0l-0.002,0.001c-0.065,0.024-0.115,0.074-0.143,0.133L17.001,53.492z M16.349,51.654
	L16.349,51.654z M32.358,61.888c-1.215,0.05-2.481,0.039-3.785-0.049c0.596-0.884,1.195-1.649,1.876-2.31
	C31.143,60.202,31.751,60.982,32.358,61.888 M28.312,61.82l-0.196-0.015C28.182,61.81,28.247,61.815,28.312,61.82 M35.974,66.688
	c0.073-0.01,0.146-0.021,0.217-0.029C36.119,66.668,36.046,66.679,35.974,66.688 M2.605,50.565l0.437,0.643l0.278-0.201
	l-0.121-0.178l1.17-0.845l0.605-0.464l0.021,0.032l-0.802,0.756l-1.035,1.07l0.069,0.102l1.43-0.696l0.861-0.461l0.022,0.031
	l-0.638,0.423l-1.167,0.841l-0.121-0.177l-0.278,0.2l0.473,0.695l0.278-0.201l-0.122-0.179l1.747-1.259l0.12,0.175l0.278-0.199
	l-0.482-0.709l-0.489,0.243c-0.114,0.055-0.251,0.127-0.413,0.215l-0.411,0.224l-0.006-0.01l0.402-0.35
	c0.108-0.095,0.192-0.174,0.251-0.236l0.425-0.439l-0.48-0.706l-0.278,0.2l0.121,0.178l-1.747,1.26l-0.12-0.179L2.605,50.565z
	 M5.957,51.005L6.1,51.169L4.674,52.49c-0.131,0.121-0.203,0.262-0.214,0.421c-0.011,0.157,0.045,0.31,0.169,0.451
	c0.114,0.129,0.251,0.197,0.415,0.204c0.163,0.009,0.338-0.076,0.527-0.251L6.9,52.083l0.141,0.161l0.252-0.234l-0.466-0.532
	l-0.252,0.234l0.097,0.11l-1.341,1.243c-0.1,0.093-0.182,0.146-0.246,0.157c-0.064,0.014-0.125-0.013-0.182-0.078
	c-0.055-0.063-0.074-0.129-0.057-0.193c0.018-0.065,0.078-0.144,0.178-0.237l1.34-1.242l0.1,0.113l0.252-0.233l-0.508-0.58
	L5.957,51.005z M5.672,54.441l0.572,0.568l0.236-0.251l-0.144-0.144l0.65-0.693l1.13-0.588l0.13,0.129l0.236-0.252l-0.52-0.516
	l-0.236,0.251l0.129,0.128l-0.698,0.388l-0.005-0.005l0.338-0.745l0.131,0.13l0.236-0.251l-0.547-0.544l-0.235,0.251l0.13,0.13
	l-0.528,1.234L6.05,54.33l-0.142-0.141L5.672,54.441z M7.139,55.866l0.569,0.457l0.209-0.275l-0.15-0.12l0.579-0.764l0.503-0.713
	l0.009,0.008L8.591,55.07c-0.069,0.16-0.126,0.3-0.169,0.419L8.03,56.583l0.247,0.199l1.522-2.006l0.152,0.122l0.209-0.275
	l-0.569-0.458L9.382,54.44l0.15,0.121l-0.403,0.529l-0.488,0.716L8.631,55.8l0.356-0.786l0.374-1.033L8.87,53.586l-0.209,0.275
	l0.152,0.122L7.5,55.713l-0.152-0.122L7.139,55.866z M10.586,56.78c0.286-0.406,0.457-0.745,0.509-1.019
	c0.053-0.272-0.004-0.471-0.172-0.596c-0.11-0.083-0.238-0.108-0.382-0.077c-0.143,0.031-0.3,0.123-0.469,0.273
	c-0.169,0.151-0.35,0.361-0.54,0.631c-0.284,0.402-0.453,0.733-0.506,0.996c-0.053,0.263,0.01,0.461,0.19,0.595
	C9.567,57.846,10.023,57.578,10.586,56.78 M9.876,56.268c-0.24,0.339-0.39,0.579-0.452,0.72c-0.061,0.141-0.058,0.236,0.011,0.287
	c0.066,0.051,0.155,0.022,0.266-0.081s0.286-0.323,0.522-0.66c0.26-0.368,0.422-0.623,0.488-0.767
	c0.066-0.143,0.064-0.24-0.005-0.292c-0.074-0.055-0.169-0.021-0.29,0.101C10.297,55.696,10.117,55.928,9.876,56.268 M10.414,58.001
	l-0.18-0.12l-0.185,0.293l0.522,0.349c0.219,0.146,0.426,0.199,0.621,0.157c0.196-0.042,0.361-0.169,0.495-0.382
	c0.099-0.156,0.147-0.313,0.142-0.471c-0.003-0.158-0.062-0.294-0.175-0.405l0.004-0.008c0.121,0.063,0.242,0.069,0.363,0.021
	c0.121-0.05,0.227-0.147,0.318-0.291c0.123-0.194,0.163-0.385,0.122-0.57c-0.041-0.188-0.159-0.345-0.354-0.476l-0.525-0.351
	l-0.185,0.292l0.18,0.121L10.414,58.001z M11.908,56.383l-0.453,0.718c0.068,0.045,0.126,0.073,0.175,0.089
	c0.048,0.014,0.102,0.004,0.161-0.027c0.058-0.034,0.122-0.104,0.19-0.211c0.083-0.132,0.122-0.239,0.119-0.321
	C12.096,56.548,12.032,56.465,11.908,56.383 M11.269,57.396l-0.522,0.828c0.123,0.082,0.232,0.109,0.328,0.082
	c0.095-0.028,0.188-0.112,0.277-0.255c0.08-0.126,0.121-0.232,0.125-0.316c0.004-0.086-0.011-0.152-0.047-0.198
	C11.395,57.491,11.34,57.443,11.269,57.396 M11.545,59.155l1.111,0.66l0.611-1.089l-0.293-0.176l-0.441,0.787l-0.298-0.177
	l1.067-1.901l0.185,0.11l0.17-0.303l-0.705-0.419l-0.169,0.303l0.176,0.104l-1.066,1.901l-0.176-0.104L11.545,59.155z
	 M12.873,59.978l1.132,0.646l0.418-0.778l-0.296-0.169l-0.254,0.472l-0.307-0.175l0.456-0.847l0.25,0.143l0.164-0.307l-0.249-0.143
	l0.413-0.768l0.307,0.176l-0.233,0.434l0.297,0.169l0.398-0.739l-1.132-0.646l-0.165,0.306l0.181,0.104l-1.034,1.92l-0.181-0.104
	L12.873,59.978z M15.046,61.189l0.714,0.358l0.148-0.314l-0.179-0.09l0.41-0.867l0.898-0.918l0.163,0.082l0.149-0.314L16.7,58.8
	l-0.148,0.314l0.161,0.081l-0.547,0.59l-0.006-0.003l0.098-0.816l0.164,0.082l0.149-0.313l-0.684-0.344l-0.149,0.313l0.163,0.082
	l-0.131,1.343l-0.396,0.835l-0.178-0.089L15.046,61.189z M18.583,64.06l0.757,0.269l0.117-0.348l-0.21-0.075l0.49-1.465l0.236-0.78
	l0.037,0.014l-0.229,1.154L19.545,64.4l0.119,0.042l0.801-1.505l0.457-0.942l0.038,0.014l-0.291,0.766l-0.489,1.462l-0.21-0.074
	l-0.116,0.348l0.821,0.292l0.117-0.349l-0.211-0.075l0.731-2.187l0.208,0.073l0.116-0.348l-0.837-0.296l-0.27,0.518
	c-0.064,0.12-0.139,0.27-0.223,0.447l-0.216,0.452l-0.011-0.004l0.132-0.555c0.035-0.149,0.06-0.271,0.072-0.36l0.098-0.647
	l-0.834-0.295l-0.116,0.348L19.64,61.6l-0.731,2.187l-0.21-0.075L18.583,64.06z M21.549,62.264l0.219,0.052l-0.454,2.025
	c-0.042,0.188-0.021,0.353,0.062,0.497c0.084,0.145,0.221,0.238,0.411,0.284c0.174,0.041,0.333,0.015,0.478-0.081
	c0.145-0.095,0.248-0.277,0.308-0.546l0.424-1.889l0.215,0.051l0.081-0.357l-0.714-0.171l-0.081,0.358l0.149,0.036l-0.428,1.905
	c-0.031,0.143-0.071,0.239-0.119,0.29c-0.048,0.051-0.115,0.066-0.203,0.045c-0.086-0.021-0.14-0.064-0.162-0.131
	c-0.023-0.066-0.018-0.172,0.014-0.314l0.428-1.907l0.153,0.036l0.081-0.357l-0.779-0.187L21.549,62.264z M23.34,65.441l0.825,0.15
	l0.062-0.362l-0.207-0.037l0.171-1.001l0.65-1.198l0.188,0.033l0.062-0.361l-0.749-0.137l-0.062,0.362l0.186,0.034l-0.388,0.762
	l-0.008-0.002l-0.131-0.856l0.189,0.035l0.063-0.363l-0.79-0.143l-0.062,0.363l0.187,0.033l0.245,1.398l-0.165,0.964l-0.205-0.036
	L23.34,65.441z M25.762,65.863l1.345,0.146l0.134-1.318l-0.355-0.038l-0.097,0.952l-0.359-0.039l0.234-2.3l0.223,0.024l0.038-0.366
	l-0.852-0.093l-0.038,0.366l0.213,0.023l-0.234,2.299l-0.213-0.022L25.762,65.863z M27.433,66.023l1.363,0.074l0.047-0.936
	l-0.357-0.02l-0.028,0.568l-0.37-0.021l0.052-1.019l0.3,0.016l0.019-0.367l-0.3-0.016l0.046-0.924l0.369,0.02l-0.025,0.521
	l0.357,0.02l0.045-0.889l-1.363-0.073l-0.018,0.367l0.217,0.012l-0.117,2.31l-0.218-0.012L27.433,66.023z M29.846,65.041H30.2
	l0.072,0.692h-0.188v0.368h0.792v-0.368H30.69l-0.326-2.312h0.206v-0.368h-1.097v0.368h0.207l-0.326,2.312H29.17v0.368h0.792v-0.368
	h-0.188L29.846,65.041z M29.873,64.672h0.299l-0.126-1.357H30L29.873,64.672z M31.208,66.099l1.351-0.049l-0.045-1.325l-0.357,0.013
	l0.032,0.957l-0.36,0.013l-0.079-2.311l0.224-0.009l-0.013-0.368l-0.856,0.031l0.014,0.368l0.213-0.008l0.078,2.312l-0.213,0.007
	L31.208,66.099z M34.686,64.778c0.026,0.262,0.025,0.45-0.001,0.567c-0.028,0.117-0.084,0.181-0.169,0.189
	c-0.099,0.01-0.172-0.06-0.22-0.213c-0.048-0.152-0.097-0.468-0.145-0.948c-0.036-0.349-0.057-0.601-0.061-0.756
	c-0.006-0.156,0.003-0.263,0.025-0.318c0.023-0.056,0.064-0.086,0.128-0.093c0.084-0.009,0.155,0.038,0.212,0.142
	c0.056,0.104,0.095,0.258,0.116,0.464l0.355-0.038l-0.1-0.985l-0.355,0.039l0.015,0.147l-0.008,0.001
	c-0.085-0.125-0.2-0.178-0.34-0.163c-0.4,0.044-0.545,0.598-0.436,1.664c0.053,0.518,0.148,0.896,0.287,1.136
	c0.139,0.241,0.326,0.348,0.561,0.322c0.19-0.021,0.33-0.128,0.421-0.323c0.092-0.194,0.123-0.45,0.092-0.77L34.686,64.778z
	 M35.545,65.757l0.865-0.124l-0.05-0.364l-0.225,0.032l-0.313-2.29l0.226-0.032l-0.05-0.364l-0.864,0.124l0.049,0.364l0.224-0.032
	l0.312,2.29l-0.223,0.032L35.545,65.757z M36.285,62.911l0.223-0.04l0.351,2.048c0.032,0.188,0.114,0.332,0.246,0.432
	c0.131,0.1,0.294,0.131,0.486,0.097c0.175-0.033,0.312-0.121,0.409-0.267c0.098-0.146,0.124-0.354,0.076-0.626l-0.327-1.909
	l0.218-0.04l-0.062-0.362l-0.722,0.131l0.062,0.362l0.151-0.027l0.33,1.927c0.024,0.144,0.024,0.249,0,0.313
	c-0.025,0.066-0.081,0.108-0.17,0.125c-0.087,0.015-0.153-0.003-0.2-0.056c-0.045-0.053-0.081-0.151-0.106-0.296l-0.33-1.927
	l0.154-0.028l-0.062-0.362l-0.788,0.144L36.285,62.911z M38.78,65.156l0.532-0.127c0.319-0.075,0.525-0.251,0.623-0.528
	c0.097-0.276,0.09-0.666-0.022-1.167c-0.115-0.511-0.273-0.871-0.476-1.078c-0.202-0.208-0.471-0.272-0.801-0.193l-0.521,0.123
	l0.08,0.358l0.21-0.05l0.505,2.254l-0.211,0.05L38.78,65.156z M38.812,62.396l0.506,2.254c0.148-0.037,0.232-0.142,0.255-0.312
	c0.023-0.17-0.008-0.452-0.098-0.849c-0.068-0.309-0.135-0.545-0.197-0.708c-0.062-0.165-0.129-0.275-0.202-0.334
	C39.004,62.39,38.916,62.373,38.812,62.396 M40.86,63.553l0.342-0.094l0.244,0.649l-0.182,0.05l0.093,0.355l0.765-0.211
	l-0.093-0.355l-0.179,0.049l-0.896-2.146l0.199-0.055l-0.093-0.355l-1.059,0.292l0.093,0.355l0.199-0.056l0.267,2.321l-0.178,0.049
	l0.092,0.356l0.765-0.212l-0.093-0.355l-0.183,0.051L40.86,63.553z M40.793,63.188l0.289-0.08l-0.463-1.277l-0.045,0.013
	L40.793,63.188z M42.475,64.193l0.523-0.165c0.312-0.099,0.507-0.288,0.584-0.572c0.079-0.282,0.046-0.671-0.101-1.162
	c-0.149-0.501-0.332-0.849-0.548-1.042c-0.216-0.192-0.488-0.237-0.813-0.135l-0.511,0.16l0.105,0.353l0.205-0.065l0.658,2.212
	l-0.207,0.064L42.475,64.193z M42.321,61.438l0.656,2.212c0.146-0.048,0.223-0.158,0.234-0.331c0.012-0.17-0.04-0.45-0.155-0.838
	c-0.09-0.304-0.172-0.535-0.245-0.694c-0.073-0.158-0.148-0.264-0.224-0.316C42.51,61.417,42.422,61.406,42.321,61.438
	 M51.786,53.864l0.324-0.046v-0.525h-0.278L51.786,53.864z M46.831,61.111l0.462-0.24c0.277-0.145,0.429-0.355,0.457-0.635
	c0.029-0.276-0.063-0.634-0.278-1.068c-0.218-0.444-0.444-0.739-0.676-0.884c-0.233-0.143-0.495-0.141-0.782,0.01l-0.453,0.236
	l0.154,0.312l0.183-0.096l0.963,1.958L46.678,60.8L46.831,61.111z M46.251,58.562l0.964,1.959c0.128-0.07,0.184-0.186,0.167-0.349
	c-0.016-0.161-0.109-0.415-0.278-0.759c-0.132-0.269-0.246-0.471-0.339-0.607c-0.094-0.137-0.181-0.223-0.26-0.26
	C46.425,58.509,46.341,58.516,46.251,58.562 M48.574,60.184l1.111-0.685l-0.442-0.763l-0.292,0.18l0.269,0.462l-0.301,0.186
	l-0.482-0.831l0.245-0.15l-0.175-0.3l-0.244,0.15l-0.438-0.754l0.302-0.185l0.247,0.426l0.291-0.18l-0.42-0.726l-1.111,0.685
	l0.173,0.299l0.178-0.108l1.094,1.884L48.4,59.883L48.574,60.184z M51.334,58.346l0.609-0.47l-0.205-0.28l-0.168,0.13l-0.857-1.177
	l-0.47-0.606l0.03-0.023l0.76,0.801l1.073,1.029l0.096-0.074l-0.722-1.449l-0.476-0.871l0.03-0.023l0.43,0.643l0.855,1.174
	l-0.169,0.131l0.205,0.278l0.659-0.508l-0.204-0.28l-0.17,0.131l-1.279-1.756l0.167-0.129l-0.204-0.28l-0.672,0.519l0.252,0.495
	c0.058,0.116,0.131,0.256,0.221,0.418l0.231,0.416l-0.008,0.007l-0.353-0.401c-0.097-0.108-0.175-0.192-0.237-0.252l-0.441-0.422
	l-0.669,0.517l0.204,0.279l0.168-0.131l1.28,1.757l-0.168,0.13L51.334,58.346z M53.391,56.728l0.979-0.872l-0.566-0.672
	l-0.256,0.229l0.343,0.408l-0.266,0.236l-0.615-0.732l0.215-0.191l-0.222-0.266l-0.215,0.192l-0.559-0.664l0.265-0.235l0.315,0.375
	l0.257-0.229l-0.537-0.639l-0.979,0.872l0.222,0.264l0.156-0.139l1.396,1.66l-0.157,0.139L53.391,56.728z M54.349,54.074
	c0.045-0.045,0.08-0.085,0.105-0.121l1.142,0.708l0.342-0.338l-0.235-0.252l-0.121,0.12l-0.947-0.559
	c0.062-0.266-0.011-0.511-0.217-0.731c-0.159-0.17-0.337-0.259-0.533-0.263c-0.195-0.005-0.38,0.078-0.551,0.247l-0.507,0.501
	l0.235,0.253l0.171-0.169l1.478,1.582l-0.17,0.169l0.234,0.252l0.608-0.602l-0.235-0.252l-0.151,0.149L54.349,54.074z M53.52,53.186
	l0.594,0.637c0.108-0.107,0.163-0.21,0.162-0.31c0-0.097-0.052-0.202-0.157-0.314c-0.11-0.117-0.21-0.176-0.302-0.174
	C53.727,53.025,53.627,53.081,53.52,53.186 M56.246,53.989l0.566-0.622l-0.248-0.239l-0.148,0.162l-1.556-1.5l0.148-0.163
	l-0.248-0.238l-0.566,0.621l0.247,0.239l0.147-0.161l1.556,1.5l-0.146,0.162L56.246,53.989z M57.16,52.938l0.334-0.408
	c0.2-0.243,0.26-0.498,0.18-0.767c-0.079-0.268-0.301-0.558-0.662-0.872c-0.37-0.321-0.689-0.502-0.958-0.541
	s-0.508,0.069-0.716,0.323l-0.327,0.399l0.259,0.226l0.132-0.161l1.63,1.415L56.9,52.714L57.16,52.938z M55.658,50.825l1.629,1.414
	c0.092-0.115,0.099-0.244,0.022-0.387c-0.076-0.143-0.257-0.339-0.543-0.587c-0.225-0.194-0.405-0.335-0.543-0.423
	c-0.137-0.088-0.25-0.133-0.337-0.134C55.798,50.706,55.723,50.745,55.658,50.825 M57.888,50.396l0.198-0.28l0.556,0.33
	l-0.105,0.149l0.274,0.206l0.443-0.625l-0.274-0.206l-0.104,0.146l-1.905-1.037l0.115-0.162l-0.273-0.207L56.2,49.575l0.274,0.206
	l0.115-0.162l1.541,1.551l-0.104,0.146l0.274,0.206l0.443-0.625l-0.274-0.206l-0.105,0.149L57.888,50.396z M57.627,50.167
	l0.168-0.235l-1.082-0.661l-0.026,0.037L57.627,50.167z M22.985,56.332c-0.07,0.017-0.138,0.032-0.204,0.047
	C22.847,56.364,22.915,56.349,22.985,56.332 M24.872,53.205c0.002,0.001,0.507,0.492,0.661,1.138
	c-0.031-0.021-0.064-0.046-0.1-0.069c-0.453-0.309-0.871-0.455-0.872-0.455c-0.053-0.02-0.111,0.008-0.13,0.061
	c-0.018,0.053,0.009,0.111,0.062,0.129c0.001,0.001,0.396,0.14,0.827,0.433c0.376,0.256,0.446,0.413,0.575,0.708l0.045,0.103
	l0.003,0.006l0.02,0.043c-0.476-0.12-0.832-0.494-0.833-0.495c-0.039-0.041-0.102-0.043-0.142-0.004
	c-0.041,0.037-0.043,0.102-0.005,0.142c0.002,0.002,0.287,0.301,0.7,0.475c-0.143-0.008-0.303-0.013-0.468-0.02
	c-0.382-0.014-0.8-0.028-1.11-0.066h-0.001L24.09,55.33c-0.684-0.084-1.21-0.287-1.211-0.287c-0.052-0.021-0.111,0.007-0.13,0.06
	c-0.02,0.053,0.008,0.111,0.06,0.13c0.001,0,0.548,0.212,1.257,0.299l0.013,0.001l0.005,0.001c0.313,0.037,0.735,0.053,1.122,0.066
	c0.465,0.018,0.878,0.031,0.954,0.073c0.013,0.007,0.025,0.01,0.038,0.011c0.027,0.038,0.054,0.076,0.08,0.111
	c0.095,0.13,0.184,0.251,0.239,0.372c0.125,0.28,0.286,0.75,0.286,0.751c0.02,0.053,0.078,0.078,0.131,0.059
	c0.052-0.02,0.078-0.077,0.058-0.13c0-0.001-0.16-0.471-0.292-0.761c-0.037-0.083-0.084-0.162-0.138-0.24
	c0.154-0.824-0.327-1.646-0.329-1.648c-0.027-0.049-0.089-0.064-0.138-0.037c-0.048,0.027-0.064,0.09-0.037,0.138
	c0.001,0.002,0.369,0.63,0.331,1.307c-0.048-0.066-0.097-0.137-0.144-0.21c-0.003-0.01-0.009-0.018-0.016-0.025
	c-0.036-0.062-0.072-0.127-0.104-0.194l-0.001-0.005l-0.045-0.103c-0.094-0.214-0.159-0.361-0.309-0.519
	c-0.077-0.829-0.753-1.485-0.755-1.487c-0.04-0.04-0.104-0.04-0.144,0C24.833,53.101,24.833,53.165,24.872,53.205 M22.285,57.191
	c0.002,0,0.688-0.167,1.317,0.048c-0.036,0.015-0.074,0.03-0.113,0.047c-0.501,0.218-0.847,0.494-0.848,0.494
	c-0.044,0.034-0.053,0.098-0.02,0.141c0.033,0.046,0.097,0.054,0.142,0.021c0-0.001,0.328-0.263,0.807-0.472
	c0.417-0.181,0.587-0.156,0.906-0.109h0.004l0.107,0.016l0.004,0.001c0.017,0.002,0.032,0.005,0.048,0.007
	c-0.354,0.338-0.862,0.441-0.864,0.441c-0.055,0.011-0.089,0.065-0.078,0.12c0.012,0.054,0.064,0.089,0.12,0.078
	c0.001-0.001,0.69-0.141,1.085-0.627c0.113-0.001,0.221-0.01,0.325-0.017c0.16-0.011,0.31-0.021,0.442-0.004
	c0.306,0.043,0.784,0.156,0.785,0.156c0.054,0.013,0.109-0.021,0.122-0.075c0.013-0.055-0.021-0.109-0.075-0.121
	c-0.002-0.001-0.487-0.116-0.803-0.159c-0.09-0.013-0.182-0.014-0.276-0.011c-0.615-0.568-1.569-0.6-1.572-0.6
	c-0.055-0.001-0.103,0.043-0.104,0.099c-0.002,0.056,0.043,0.103,0.098,0.104c0.002,0,0.727,0.022,1.28,0.416
	c-0.083,0.006-0.167,0.01-0.255,0.009c-0.009-0.002-0.02-0.002-0.028,0c-0.074-0.002-0.148-0.006-0.225-0.016l-0.001-0.001
	l-0.11-0.016h-0.001c-0.231-0.035-0.39-0.059-0.603-0.015c-0.743-0.376-1.658-0.153-1.66-0.152c-0.055,0.012-0.089,0.066-0.077,0.12
	S22.23,57.204,22.285,57.191 M37.464,56.216c-0.004,0-1.248,0.261-1.913,0.648c-0.048,0.028-0.064,0.09-0.037,0.138
	c0.028,0.048,0.09,0.064,0.138,0.036c0.636-0.369,1.85-0.625,1.853-0.626c0.054-0.011,0.09-0.064,0.078-0.118
	C37.572,56.239,37.518,56.203,37.464,56.216 M37.162,54.832c-0.004,0-1.196,0.442-1.797,0.922l-0.005,0.005v0.001h-0.001
	c-0.083,0.066-0.169,0.138-0.252,0.209c-0.08,0.069-0.166,0.146-0.253,0.225c-0.426,0.386-0.801,0.77-0.843,0.829
	c-0.033,0.045-0.022,0.108,0.023,0.142c0.045,0.032,0.109,0.021,0.142-0.024c0.038-0.055,0.398-0.421,0.814-0.797
	c0.076-0.07,0.16-0.144,0.248-0.219c0.084-0.073,0.168-0.143,0.249-0.207l0.005-0.004l0,0v-0.001c0.574-0.46,1.737-0.891,1.74-0.892
	c0.052-0.019,0.079-0.076,0.06-0.129C37.273,54.839,37.214,54.812,37.162,54.832 M17.505,12.277l1.212,1.306
	c0.015-0.131,0.125-0.233,0.261-0.233c0.145,0,0.262,0.117,0.262,0.263c0,0.142-0.112,0.257-0.253,0.263l1.256,1.353
	c0,0,0.585,0.718,1.489,0.398c0.904-0.319,0.983-0.744,0.983-0.744s0.657,0.438,1.218,0.292c0.562-0.147,0.932-1.038,1.043-1.143
	c0.109-0.104,0.64,0.715,1.258,0.608c0.619-0.106,1.086-0.985,1.188-1.087c0.102-0.101,0.713,0.788,1.409,0.802h0.008
	c-0.181,0.006-0.361,0.014-0.54,0.022c-3.111,0.159-7.497,1.781-7.497,1.781c-0.506,0.293,0.531,0.851,0.531,0.851
	s0.126,0.218,0.285,0.501l0.682-0.307c0.028-0.013,0.062,0,0.074,0.028l0.251,0.56c0.013,0.028,0.001,0.062-0.028,0.075
	l-0.625,0.281c0.134,0.244,0.247,0.46,0.29,0.563c0.133,0.32,0.213,0.691,1.038,1.17c0.824,0.479,5.689,0.825,7.311,0.877
	c1.622,0.053,6.514-0.531,7.261-0.773c0.747-0.242,1.061-1.061,1.061-1.061s0.129-0.282,0.271-0.706l-0.781-0.352
	c-0.028-0.013-0.041-0.046-0.028-0.075l0.252-0.56c0.013-0.028,0.046-0.041,0.074-0.028l0.682,0.308l-0.197,0.7
	c0.071-0.212,0.145-0.459,0.207-0.724c0.186-0.797,0.745-0.745,1.035-1.064c0.292-0.32-0.53-0.531-0.53-0.531
	s-0.273-0.091-0.691-0.221l0.004,0.002c0.687,0.149,0.921,0.011,1.748-0.842c0.269-0.277,0.615-0.621,0.96-0.959
	c-0.01,0.002-0.021,0.003-0.032,0.003c-0.145,0-0.262-0.118-0.262-0.263c0-0.146,0.117-0.263,0.262-0.263
	c0.146,0,0.263,0.117,0.263,0.263c0,0.013-0.001,0.025-0.003,0.037c0.635-0.618,1.207-1.16,1.207-1.16s0.399-0.453,0.825-0.453
	c0.425,0,0.824-0.133,0.531-0.373c-0.292-0.239-0.904-0.319-1.064-0.239c-0.159,0.08-0.259,0.408-0.838,0.088
	c-0.579-0.319-0.996-0.062-1.155,0.124c-0.159,0.187-0.598,0.269-0.904,0.32c-0.307,0.049-0.292,0.292-0.266,0.478
	c0.027,0.186,0.28,0.279,0.28,0.279s-0.438,0.024-0.426,0.425c0.013,0.401,0.253,0.306,0.253,0.306s-0.399,0.08-0.359,0.358
	c0.04,0.28,0.333,0.253,0.333,0.253s-0.167,0.851-0.858,0.93c-0.691,0.08-0.966-0.717-0.939-0.904
	c0.003-0.029,0.004-0.058,0.001-0.083c0.044,0.013,0.092,0.02,0.141,0.02c0.272,0,0.493-0.221,0.493-0.493
	c0-0.271-0.221-0.493-0.493-0.493s-0.492,0.221-0.492,0.493c0,0.158,0.073,0.297,0.187,0.388c-0.046,0.028-0.102,0.082-0.166,0.168
	c-0.513,0.682-1.229,0.479-1.65-0.05c0,0-0.002-0.017-0.006-0.047c0.201,0.039,0.299,0.078,0.369-0.009
	c0.07-0.089-0.019-0.327-0.019-0.327s0.233,0.187,0.339,0.175c0.496-0.053-0.151-0.527-0.102-0.578
	c0.051-0.05,0.755,0.251,0.947,0.05c0.192-0.202,0.192-0.403,0.115-0.548c-0.077-0.144-0.443-0.21-0.443-0.316
	c0-0.106,0.569-0.29,0.64-0.399c0.071-0.11,0.034-0.379-0.197-0.408c-0.23-0.029-0.389-0.073-0.389-0.226
	c0-0.154,0.13-0.446-0.12-0.581c-0.25-0.134-0.441,0.172-0.509,0.23c-0.067,0.058-0.164-0.049-0.346-0.096
	c-0.183-0.048-0.441,0.086-0.431,0.278c0.01,0.192-0.039,0.288-0.135,0.269c-0.096-0.019-0.096-0.125-0.279-0.009
	c-0.183,0.114,0.369,0.686-0.105,0.364c-0.188-0.126-0.26-0.164-0.375-0.067c-0.115,0.097-0.009,0.279,0.115,0.375
	c0.125,0.096,0.164,0.202-0.029,0.154c-0.192-0.048-0.335,0.038-0.268,0.183c0.066,0.144,0.211,0.172,0.278,0.229
	c0.067,0.058-0.096,0.105-0.25,0.086c-0.515-0.064-0.312,0.412,0.096,0.339c0.164-0.029,0.289,0.04,0.23,0.142
	s-0.056,0.193-0.045,0.303c-0.242,0.107-0.464,0.214-0.534,0.251c-0.121,0.063-0.628,0.16-1.08-0.292
	c-0.286-0.286-0.374-0.785-0.408-1.067h0.006c0.273,0,0.494-0.221,0.494-0.492c0-0.272-0.221-0.494-0.494-0.494
	c-0.271,0-0.493,0.222-0.493,0.494c0,0.219,0.144,0.405,0.343,0.469c-0.156,0.168-0.439,0.375-0.596,0.538
	c-0.646,0.674-1.765,0.381-2.113-0.465c-0.065-0.157,0.175,0.089,0.317-0.111c0.118-0.168-0.318-0.66-0.04-0.381
	c0.063,0.063,0.448,0.313,0.529,0.018c0.057-0.208-0.142-0.376-0.257-0.479l0.019-0.006l0.01,0.002
	c0.564,0.08,0.789-0.09,0.904-0.206c0.117-0.117,0.153-0.36-0.214-0.494c-0.195-0.072-0.466-0.001-0.677,0.08l-0.042-0.014
	c0.115-0.104,0.313-0.271,0.257-0.479c-0.081-0.296-0.466-0.045-0.529,0.018c-0.502,0.502,0.11-0.156,0.04-0.394
	c-0.053-0.179-0.35-0.124-0.479,0.087c-0.092,0.147,0.21-0.505,0.233-0.562c0.068-0.163-0.063-0.423-0.186-0.438
	c-0.122-0.013-0.271-0.05-0.271-0.24s-0.271-0.233-0.271-0.027S30.26,9.16,30.097,9.187c-0.163,0.026-0.204,0.244-0.176,0.406
	c0.017,0.102,0.182,0.389,0.303,0.589c-0.13-0.21-0.372-0.24-0.479-0.087c-0.169,0.239,0.548,0.943,0,0.394
	c-0.062-0.063-0.448-0.314-0.529-0.018c-0.054,0.202,0.13,0.365,0.246,0.47c-0.199-0.071-0.436-0.122-0.612-0.057
	c-0.367,0.134-0.332,0.376-0.215,0.494c0.112,0.111,0.322,0.272,0.834,0.214c-0.116,0.104-0.307,0.271-0.252,0.475
	c0.081,0.296,0.466,0.045,0.529-0.018c0.322-0.303-0.157,0.159,0,0.381c0.25,0.355,0.582-0.294,0.177,0.244
	c-0.319,0.426-0.705,0.693-1.255,0.723c-0.551,0.03-1.046-0.589-1.233-0.882c-0.026-0.042-0.051-0.074-0.073-0.096
	c0.195-0.065,0.337-0.25,0.337-0.468c0-0.271-0.221-0.492-0.493-0.492c-0.272,0-0.493,0.221-0.493,0.492
	c0,0.269,0.214,0.487,0.48,0.493c-0.047,0.08-0.084,0.226-0.113,0.415c-0.064,0.427-0.618,0.979-0.937,1.033
	c-0.273,0.045-0.7,0.035-0.984-0.203c0.034-0.125,0.021-0.303-0.03-0.393c-0.077-0.134,0.067-0.105,0.23-0.076
	c0.408,0.072,0.61-0.469,0.096-0.404c-0.154,0.019-0.317-0.028-0.25-0.086c0.067-0.057,0.211-0.086,0.279-0.229
	c0.067-0.145-0.077-0.231-0.269-0.183c-0.192,0.048-0.153-0.058-0.029-0.154c0.125-0.096,0.23-0.278,0.115-0.375
	c-0.115-0.096-0.187-0.059-0.374,0.067c-0.474,0.321,0.077-0.25-0.105-0.364c-0.183-0.116-0.183-0.01-0.279,0.009
	s-0.145-0.076-0.135-0.269c0.009-0.192-0.25-0.326-0.431-0.278c-0.183,0.047-0.279,0.154-0.346,0.096
	c-0.067-0.058-0.259-0.365-0.509-0.23c-0.25,0.134-0.12,0.427-0.12,0.581c0,0.153-0.158,0.197-0.389,0.226
	c-0.23,0.028-0.268,0.298-0.197,0.408c0.071,0.109,0.58,0.17,0.58,0.275s-0.306,0.296-0.383,0.439
	c-0.077,0.145-0.077,0.346,0.115,0.548s0.794-0.202,0.872-0.124c0.079,0.078-0.363,0.344-0.334,0.546
	c0.029,0.203,0.212,0.154,0.307,0.105c0.096-0.048,0.424-0.35,0.287-0.228c-0.138,0.122-0.134,0.394-0.097,0.431
	c0.037,0.036,0.165,0.012,0.261-0.001c-0.232,0.463-0.663,0.559-0.987,0.43c-0.269-0.106-0.518-0.558-0.688-0.689
	c0.076-0.087,0.122-0.201,0.122-0.325c0-0.272-0.221-0.492-0.493-0.492s-0.493,0.22-0.493,0.492s0.221,0.493,0.493,0.493
	c0.062,0,0.121-0.011,0.175-0.032c-0.04,0.193-0.059,0.512-0.338,0.792c-0.398,0.399-0.798,0.238-1.038,0.079
	c-0.18-0.121-0.362-0.483-0.439-0.654c0.174,0.006,0.181-0.323,0.161-0.451c-0.02-0.128-0.011-0.158,0.118-0.316
	c0.128-0.157,0-0.276-0.118-0.394c-0.119-0.118-0.059-0.197-0.03-0.326c0.03-0.128,0.02-0.285-0.207-0.463
	c-0.227-0.177-0.482,0.03-0.482-0.049s-0.079-0.305-0.276-0.542c-0.197-0.237-0.65-0.296-0.926-0.276
	c-0.276,0.02-0.354,0.148-0.739,0.229h0c-0.131-0.059-0.24-0.097-0.314-0.105c-0.386-0.041-1.188-0.192-1.413,0.389
	C15.993,12.119,16.962,11.799,17.505,12.277 M28.88,14.354c0.493-0.036,1.395-0.756,1.52-1.519c0,0,0.568,1.338,1.343,1.479
	c0.775,0.141,1.769-0.788,1.769-0.788s0.465,0.924,1.06,1.061c0.597,0.136,1.226-0.343,1.333-0.502
	c0.106-0.16,0.269,0.65,0.85,0.851c0.582,0.2,1.303,0.106,1.462-0.053c0.147-0.147,0.3,0.52,0.86,0.743
	c-0.715-0.218-1.756-0.518-2.615-0.69C35.09,14.661,31.845,14.27,28.88,14.354 M36.796,12.471c0.146,0,0.262,0.117,0.262,0.262
	c0,0.146-0.117,0.263-0.262,0.263c-0.145,0-0.262-0.117-0.262-0.263C36.534,12.588,36.651,12.471,36.796,12.471 M30.473,10.951
	c0.145,0,0.263,0.117,0.263,0.263c0,0.145-0.118,0.262-0.263,0.262c-0.146,0-0.263-0.118-0.263-0.262
	C30.21,11.068,30.327,10.951,30.473,10.951 M24.129,12.378c0.146,0,0.263,0.116,0.263,0.262c0,0.145-0.117,0.262-0.263,0.262
	c-0.145,0-0.262-0.117-0.262-0.262C23.868,12.495,23.985,12.378,24.129,12.378 M36.362,28.036c0,0,0.068-0.179,0.401-0.154
	c0.333,0.024,0.451,0.135,0.527,0.248c0.039,0.06,0.062,0.186,0.043,0.276c-0.017,0.082-0.066,0.131-0.125,0.159
	c-0.053,0.024-0.13,0.02-0.205-0.007c-0.09-0.033-0.177-0.097-0.219-0.144c-0.026-0.031-0.094-0.065-0.154-0.098
	c-0.112-0.061-0.226-0.104-0.26-0.147C36.333,28.118,36.362,28.036,36.362,28.036 M36.466,28.061c0,0,0.053-0.096,0.313-0.073
	s0.355,0.094,0.417,0.189c0.063,0.094,0.063,0.276-0.038,0.301c-0.103,0.022-0.241-0.076-0.3-0.135s-0.359-0.208-0.393-0.224
	C36.431,28.102,36.466,28.061,36.466,28.061 M23.179,25.795c-0.008-0.001-0.017-0.001-0.025-0.001
	C23.163,25.794,23.171,25.794,23.179,25.795 M21.21,43.299l1.548,2.25c0.013-0.009,0.028-0.013,0.043-0.015l0.009-0.774l0-0.031
	l-0.047-0.053l-1.186-1.322l-0.367-0.432L21.21,43.299z M21.102,42.934h-1.985h-0.002h-0.001h0H19.11l0,0.001h-0.002h-0.001l0,0
	h-0.001h-0.002h-0.001l0,0.001H19.1h0h-0.001l-0.001,0.001h-0.001h-0.001l0,0.001l-0.003,0.001h-0.002l0,0l-0.002,0.001l0,0h-0.002
	l-0.001,0.001h-0.001h0l-0.002,0.001l0,0l-0.004,0.002l-0.001,0.001h0l-0.003,0.003H19.07h-0.002h-0.001v0.001l-0.002,0.001l0,0
	l-0.002,0.001l0,0.001l-0.001,0.001l-0.001,0.001l-0.002,0.002l0,0l-0.002,0.001l-0.001,0.002l0,0l-0.001,0.001l-0.001,0.001
	l-0.001,0.001l-0.001,0.001l0,0l-0.002,0.001l0,0v0.002l-0.002,0.001l0,0.001l-0.005,0.006l0,0.001l-0.001,0.002l-0.002,0.002v0.001
	l0,0.001l-0.001,0.001v0.002l0,0.001l-0.001,0.001v0.001l-0.001,0.001l0,0h0l-0.001,0.002v0.001l0,0v0.001l-0.001,0.001v0.002
	l-0.001,0.001h0l0,0.001v0.002l0,0v0.001v0.001h0l0,0.002l-0.001,0.005v0.002h0l0,0l0,0.002l0,0v0.002l0,0.002v0.001v0.002l0,0
	v0.002v0.002v0.001l0,0.002V43.2c0,0.049,0.042,0.089,0.093,0.089h1.985h0.035v-0.355H21.102z M27.372,42.93l-0.164,0.186
	l-1.406,1.567c-0.003,0.028-0.019,0.053-0.04,0.068l0.007,0.783c0.017,0.002,0.031,0.006,0.044,0.015l1.419-2.061l0,0l0.139-0.201
	V42.93z M19.36,30.729c0.005-0.006,0.011-0.012,0.017-0.018C19.371,30.716,19.365,30.722,19.36,30.729 M24.304,41.437L24.304,41.437
	h-0.002v0.005h0.002v0.231l0,0v0.507h1.326c0-0.007,0-0.013,0.002-0.02v-0.345l-0.002-0.003v-0.376h-0.294H24.304z M27.369,41.34
	l-1.539,0.903l-0.024,2.286l1.481-1.652c0.01-0.016,0.024-0.027,0.041-0.034l0,0l0.002-0.001l0,0l0.002-0.001h0.001l0.001-0.001
	h0.001v-0.001l0,0h0.002l0.001-0.001h0.001h0.001l0,0h0.001h0l0.001-0.001l0,0h0.002l0.001-0.001l0,0h0.001l0.005-0.001v-0.001
	h0.002l0,0h0.003l0,0h0.003h0l0.005-0.001h0.001l0,0h0.002V41.34z M27.471,42.934v0.355h1.985c0.051,0,0.092-0.04,0.092-0.089
	v-0.177c0-0.048-0.039-0.087-0.088-0.09h-0.002h-0.002H27.471z M22.903,45.534h0.713v-1.94c0-0.312,0.302-0.567,0.669-0.567
	c0.368,0,0.67,0.255,0.67,0.567v1.94h0.712l-0.007-0.773c-0.035-0.016-0.06-0.051-0.059-0.093l0.026-2.389h-2.626l-0.037,2.397
	c-0.001,0.038-0.022,0.07-0.054,0.088L22.903,45.534z M21.205,42.833L21.205,42.833L21.205,42.833h0.002l0.008,0.001h0h0.001
	l0.009,0.002h0h0.001h0h0l0.001,0.001h0.001h0l0.002,0.001h0h0.001l0.001,0.001h0.001l0.001,0.001h0.001l0.001,0.001l0.005,0.002
	h0.001l0.005,0.003l0,0l0.004,0.002h0.001l0.001,0.001h0l0,0l0.002,0.002l0.001,0.001h0v0.001l0.002,0.002h0l0.001,0.001h0
	l0.001,0.001h0l0.001,0.001c0.003,0.003,0.005,0.005,0.008,0.007v0.001l0.001,0.001v0.001l0.003,0.004l0.004,0.006l1.48,1.65
	l0.034-2.216l-1.595-0.964V42.833z M22.945,41.812v0.352l0.009,0.005c0.005,0.003,0.01,0.007,0.015,0.011h1.232l0.001-0.508v-0.129
	v-0.102v-0.005v-0.002h-0.699v0.002h-0.558v0.188V41.812z M24.968,41.329v-0.63H23.61v0.63v0.006h1.358V41.329z M24.968,39.848
	v-0.643H23.61v0.643H24.968z M23.61,34.734v0.094v0.537v0.007h1.358v-0.007v-0.537v-0.094H23.61z M21.419,33.776l0.035-0.12v-1.485
	v-0.015c0,0,0.016-0.089-0.135-0.098c-0.031-0.002-0.139-0.003-0.292-0.004v0.382c0,0.135-0.091,0.248-0.203,0.248l-0.006-0.001
	h-0.001h-0.005h-0.001l-0.013-0.002c-0.1-0.014-0.178-0.119-0.178-0.245v-0.382h-0.38l-0.347,0.002v0.38
	c0,0.135-0.091,0.248-0.203,0.248l-0.006-0.001h-0.001h-0.005h-0.001l-0.012-0.002h0h0c-0.1-0.014-0.178-0.119-0.178-0.245v-0.38
	l-0.309,0.001c0,0-0.166-0.019-0.175,0.181c-0.009,0.2,0,1.252,0,1.344c0,0.094,0.043,0.194,0.116,0.194h0.005h0.008h0.011h0.013
	h0.018h0.019h0.021h0.024h0.026h0.029h0.031h0.033h0.035h0.037h0.039h0.04h0.043h0.042h0.045h0.045h0.047h0.049h0.048h0.05h0.051
	h0.051h0.052h0.052h0.052h0.053h0.053h0.053h0.053h0.053h0.053h0.052h0.051h0.051h0.051h0.049h0.048h0.048h0.047h0.046h0.044h0.043
	h0.042h0.041h0.039h0.036h0.035h0.033h0.031h0.028h0.027h0.024h0.021h0.02h0.017h0.009H21.419z M22.945,41.329h0.564v-0.537h-0.564
	V41.329z M23.509,40.692c0.002-0.053,0.047-0.095,0.101-0.095h0.594v-0.649h-1.259v0.744H23.509z M24.304,40.598h0.664
	c0.054,0,0.097,0.042,0.101,0.095h0.561v-0.744h-1.326V40.598z M25.069,41.329h0.561v-0.537h-0.561V41.329z M22.945,39.848h0.564
	V39.3h-0.564V39.848z M23.509,39.2c0.001-0.054,0.047-0.095,0.101-0.095h0.589v-0.657h-1.254V39.2H23.509z M24.304,39.104h0.664
	c0.054,0,0.098,0.042,0.101,0.095h0.561v-0.752h-1.326V39.104z M25.069,39.848h0.561V39.3h-0.561V39.848z M22.945,38.348h0.565
	v-0.533h-0.565V38.348z M23.612,37.814v0.533h1.356v-0.536H24.63c-0.054,0-0.098-0.043-0.101-0.096h-0.513
	c-0.003,0.053-0.046,0.096-0.101,0.096h-0.002h-0.228v0.002H23.612z M23.163,37.714v-0.002v-0.754h-0.217v0.756H23.163z
	 M24.016,37.617h0.188v-0.659h-0.188V37.617z M24.529,37.617v-0.659h-0.226v0.659H24.529z M25.383,37.711h0.247v-0.753h-0.247
	V37.711z M25.283,37.812h-0.002h-0.002h-0.211v0.536h0.562v-0.536H25.283z M22.945,36.858h0.217v-0.477v0h0
	c0-0.025,0.001-0.048,0.003-0.071h-0.221V36.858z M23.181,36.208c0.019-0.087,0.051-0.166,0.094-0.229
	c0.078-0.116,0.188-0.189,0.313-0.189l0,0l0,0h0.001l0,0c0.125,0,0.236,0.073,0.313,0.189c0.028,0.042,0.051,0.09,0.07,0.142h0.231
	v-0.648h-1.259v0.736H23.181z M24,36.222c0.01,0.05,0.016,0.103,0.016,0.156l0,0v0.002v0.477h0.513v-0.477v0l0,0
	c0-0.055,0.005-0.108,0.015-0.158H24z M24.572,36.121c0.019-0.052,0.042-0.1,0.07-0.142c0.078-0.116,0.188-0.189,0.313-0.189l0,0
	h0.001h0.001l0,0c0.125,0,0.236,0.073,0.313,0.189c0.042,0.064,0.074,0.143,0.093,0.229h0.266v-0.736h-1.326v0.648H24.572z
	 M25.379,36.31c0.002,0.022,0.003,0.046,0.003,0.069h0v0.002v0.477h0.247V36.31H25.379z M22.945,35.366h0.564v-0.537h-0.564V35.366z
	 M25.069,35.366h0.561v-0.537h-0.561V35.366z M22.945,34.729h0.564c0.001-0.054,0.047-0.097,0.101-0.097h0.691v-0.646h-1.328
	c-0.008,0.008-0.018,0.015-0.028,0.02V34.729z M22.999,33.885h2.645c0-0.011,0.003-0.021,0.006-0.033
	c0.003-0.007,0.006-0.014,0.01-0.02l0.333-0.541h-3.497l0.479,0.556c0.008,0.009,0.015,0.019,0.02,0.032L22.999,33.885z
	 M25.629,33.986h-1.229v0.646h0.567c0.054,0,0.098,0.043,0.101,0.097h0.561V33.986z M20.047,41.229h0.747v-0.722h-0.747V41.229z
	 M20.998,41.229h0.105c0-0.018,0.005-0.036,0.014-0.052c0.019-0.032,0.053-0.05,0.087-0.05v-0.62h-0.207V41.229z M27.371,41.129
	c0.029,0.005,0.057,0.022,0.073,0.049c0.01,0.017,0.015,0.035,0.015,0.052h0.129v-0.722h-0.209l-0.007-0.002V41.129z M27.791,41.229
	h0.747v-0.722h-0.747V41.229z M27.37,40.306l0.008-0.001h1.16V39.82H27.69h-0.002h-0.001h-0.31H27.37V40.306z M27.37,39.619h0.008
	h0.21v-0.432h-0.21l-0.008-0.001V39.619z M27.37,38.985h0.008h0.298c0.004-0.001,0.009-0.001,0.013-0.001
	c0.005,0,0.009,0,0.014,0.001h0.835v-0.496H27.7c-0.004,0.001-0.007,0.001-0.012,0.001c-0.003,0-0.007,0-0.011-0.001h-0.3
	l-0.008-0.001V38.985z M27.37,38.288h0.008h0.21v-0.486h-0.21h-0.009L27.37,38.288z M27.369,37.601h0.009h0.28
	c0.01-0.004,0.021-0.005,0.031-0.005c0.011,0,0.022,0.001,0.031,0.005h0.818v-0.433H27.7c-0.004,0.001-0.007,0.001-0.012,0.001
	c-0.003,0-0.007,0-0.011-0.001h-0.3l-0.009,0V37.601z M27.369,36.968l0.009-0.001h0.21v-0.452h-0.21l-0.009-0.001V36.968z
	 M27.369,36.312h0.009h0.298c0.004,0,0.009-0.001,0.013-0.001c0.005,0,0.009,0.001,0.014,0.001h0.835v-0.485h-0.78H27.75h-0.007
	h-0.365l-0.009-0.001V36.312z M27.369,35.625h0.009h0.271v-0.433h-0.271h-0.01L27.369,35.625z M27.368,34.992h0.01h0.365
	l0.007-0.001l0.007,0.001h0.78V34.37H27.37l0.006,0.037c0.003,0.021,0.001,0.041-0.008,0.059V34.992z M28.538,35.193h-0.687v0.433
	h0.687V35.193z M28.538,36.515H27.79v0.453h0.748V36.515z M28.538,37.802H27.79v0.486h0.748V37.802z M28.538,39.187H27.79v0.432
	h0.748V39.187z M20.047,40.305h1.157V39.82h-0.307h-0.002h0h-0.848V40.305z M20.047,39.619h0.748v-0.432h-0.748V39.619z
	 M20.047,38.985h0.836l0.012-0.001l0.013,0.001h0.297v-0.496h-0.298c-0.004,0.001-0.008,0.001-0.012,0.001
	c-0.003,0-0.007,0-0.011-0.001h-0.837V38.985z M21.206,39.187h-0.208v0.432h0.208L21.206,39.187z M20.047,38.288h0.747v-0.486
	h-0.747V38.288z M20.047,37.601h0.818c0.01-0.004,0.02-0.005,0.03-0.005c0.012,0,0.021,0.001,0.031,0.005h0.279l0.001-0.433h-0.299
	c-0.004,0.001-0.008,0.001-0.012,0.001c-0.003,0-0.007,0-0.011-0.001h-0.837V37.601z M21.206,37.802h-0.208v0.486h0.208V37.802z
	 M20.047,36.967h0.747v-0.453h-0.747V36.967z M20.047,36.312h0.836c0.004,0,0.007-0.001,0.012-0.001s0.009,0.001,0.013,0.001h0.298
	v-0.485h-0.365h-0.007h-0.006h-0.781V36.312z M21.207,36.515h-0.209v0.452h0.209V36.515z M20.733,35.193h-0.686v0.433h0.686V35.193z
	 M20.936,35.193v0.433h0.271v-0.433H20.936z M20.047,34.992h0.777l0.01-0.001l0.01,0.001h0.362l0-0.412
	c-0.009-0.021-0.013-0.043-0.006-0.066l0.037-0.144h-1.19V34.992z M19.439,31.956h0.043h0.006c0.056,0,0.102,0.045,0.102,0.101v0.38
	v0.002H19.59c0,0.04,0.013,0.077,0.034,0.104l0.004,0.005c0.018,0.022,0.041,0.036,0.064,0.036l0,0h0.001h0.001l0,0
	c0.023,0,0.046-0.014,0.064-0.036c0.023-0.027,0.037-0.066,0.037-0.11l0,0v-0.001v-0.38l0,0c0-0.057,0.045-0.102,0.101-0.102
	l0.347-0.001l0,0h0.38c0.056,0,0.101,0.045,0.101,0.101v0.382v0.002h0c0,0.04,0.013,0.077,0.033,0.104l0.004,0.005
	c0.018,0.022,0.041,0.036,0.064,0.036l0,0h0.001h0l0,0c0.023,0,0.047-0.014,0.064-0.036c0.022-0.027,0.037-0.066,0.037-0.11l0,0
	v-0.001v-0.382l0,0l0,0c0-0.037,0.021-0.07,0.051-0.087v-0.202v-0.974h-1.538v0.974V31.956z M23.246,32.24h0.661v-0.593h-0.661
	V32.24z M24.598,32.24h0.661v-0.593h-0.661V32.24z M21.584,33.83l-0.14,0.544l1.288-0.501l-0.392-0.453L21.584,33.83z
	 M27.148,34.272l-0.073-0.441l-0.923-0.412l-0.255,0.412L27.148,34.272z M25.361,31.546L25.361,31.546l0.001-0.554h-0.455l0,0h-0.66
	v0.383v0.171v0.101h0.25c0-0.055,0.045-0.101,0.101-0.101h0.662c0.055,0,0.101,0.045,0.101,0.101l0,0V31.546z M24.145,31.546v-0.171
	v-0.383h-0.578l0,0h-0.455v0.383v0.171v0.101h0.032c0-0.055,0.045-0.101,0.102-0.101h0.661c0.056,0,0.102,0.045,0.102,0.101h0.136
	V31.546z M24.62,30.299v0.074c0,0.036-0.028,0.065-0.063,0.065h-0.646c-0.035,0-0.064-0.03-0.064-0.065v-0.074v-0.054h-0.178v0.087
	v0.182v0.374h0.477h0.103h0.551v-0.556l0,0v-0.087H24.62V30.299z M23.441,25.795c-0.004,0.001-0.009,0.002-0.015,0.003
	C23.432,25.797,23.437,25.796,23.441,25.795 M22.314,27.06v-1.214c0-0.104,0.13-0.278,0.245-0.433
	c0.114-0.155,0.375-0.246,0.367-0.042c-0.008,0.206,0.057,0.422,0.212,0.422h0.308c0.088-0.021,0.157-0.079,0.157-0.225
	c0-0.311-0.007-0.433,0.22-0.441c0.229-0.008,0.776,0.016,0.776,0.016s0.196,0.016,0.176,0.175
	c-0.021,0.159,0.003,0.299,0.003,0.299s-0.016,0.176,0.262,0.176c0.277,0,0.383-0.086,0.4-0.258
	c0.015-0.172,0.008-0.451,0.196-0.336c0.187,0.114,0.358,0.262,0.399,0.344c0.041,0.082,0.073,0.149,0.073,0.25v1.267H22.314z
	 M22.436,27.406c-0.048-0.052-0.095-0.129-0.122-0.246h3.795c0,0-0.016,0.15-0.056,0.22c-0.006,0.009-0.012,0.019-0.018,0.027
	c-0.002,0-0.005-0.001-0.009-0.001H22.436z M18.988,30.251h2.445v0.001c0.038-0.029,0.062-0.074,0.062-0.124v-0.933
	c0-0.218-0.113-0.379-0.332-0.393c-0.233-0.013-0.186,0.379-0.186,0.574c0,0.136-0.111,0.247-0.248,0.247
	c-0.136,0-0.247-0.111-0.247-0.247V28.8h-0.539v0.578c0,0.136-0.112,0.247-0.248,0.247c-0.136,0-0.247-0.111-0.247-0.247v-0.392
	c0.004-0.186-0.12-0.186-0.18-0.186c-0.19,0-0.347,0.156-0.347,0.347v0.976C18.922,30.175,18.948,30.222,18.988,30.251
	 M19.405,30.696c0.011-0.004,0.022-0.006,0.034-0.006h1.538c0.037,0,0.068,0.02,0.086,0.049l0,0l0.277-0.402l-2.259-0.005
	L19.405,30.696z M22.319,31.896l-0.72,0.423v1.272l0.716-0.389l0.004-0.002V31.896z M26.153,33.199L26.153,33.199l0.911,0.406
	l-0.007-1.234l-0.904-0.527V33.199z M27.38,28.802c-0.19,0-0.346,0.156-0.346,0.347v0.977c0,0.088,0.071,0.159,0.159,0.159h2.259
	c0.084,0,0.154-0.069,0.154-0.154v-0.932c0-0.218-0.114-0.381-0.332-0.393c-0.233-0.015-0.186,0.378-0.186,0.573
	c0,0.135-0.112,0.247-0.249,0.247c-0.135,0-0.247-0.112-0.247-0.247v-0.578h-0.539v0.578c0,0.135-0.111,0.247-0.247,0.247
	s-0.247-0.112-0.247-0.247v-0.393C27.564,28.802,27.439,28.802,27.38,28.802 M27.533,30.717c0.018-0.015,0.041-0.025,0.066-0.025
	h1.539c0.021,0,0.041,0.006,0.057,0.018l0.224-0.325H27.24L27.533,30.717z M27.6,31.958v-0.191v-0.974h1.539v0.974v0.189
	c-0.055,0-0.101,0.044-0.101,0.1v0h-0.001v0.382v0.001h0.001c0,0.043-0.015,0.083-0.038,0.11c-0.017,0.021-0.041,0.035-0.064,0.035
	l0,0h-0.001l0,0l0,0c-0.023,0-0.047-0.014-0.064-0.035l-0.004-0.005c-0.02-0.027-0.033-0.063-0.033-0.104l0,0v-0.001v-0.382
	c0-0.056-0.045-0.102-0.101-0.102h-0.381v0.001l-0.345,0.001c-0.055,0-0.101,0.045-0.101,0.101h-0.001v0.381v0.001h0.001
	c0,0.043-0.015,0.083-0.038,0.11c-0.017,0.021-0.04,0.035-0.064,0.035l0,0h-0.001h0l0,0c-0.023,0-0.046-0.014-0.065-0.035
	l-0.003-0.005c-0.021-0.027-0.033-0.063-0.033-0.104v-0.001v-0.38C27.701,32.003,27.656,31.958,27.6,31.958 M23.112,28.017v0.709
	h0.46v0c0.001-0.005,0.002-0.008,0.005-0.013v0c0.003-0.006,0.005-0.009,0.008-0.014h0.001c0.004-0.006,0.011-0.014,0.018-0.019
	l0.002-0.002l0.001-0.001l0.003-0.002l0.001-0.001h0.001l0,0h0.001l0.001-0.001l0.001-0.001h0.001l0.002-0.001v-0.001h0l0.002-0.001
	l0.001-0.001l0.002,0h0.001h0l0.004-0.001l0,0l0.002-0.002h0h0.001l0.004-0.002l0,0h0.001l0.002-0.001h0.001h0.001l0.002,0l0,0
	h0.002l0.002-0.001l0.003-0.001h0.002l0,0h0.003h0.001l0,0h0.001h0.004h0.001h0h0.002h0.007h0.467v-0.642H23.112z M24.25,28.017
	v0.642h0.556c0.044,0,0.081,0.028,0.096,0.066h0.442v-0.708H24.25z M23.668,28.76v0.648h0.177v-0.128
	c0-0.234,0.176-0.427,0.392-0.427c0.216,0,0.392,0.192,0.392,0.427v0.124h0.038h0.132h0.006V28.76H23.668z M24.629,30.144h0.165
	c0.06,0,0.11,0.037,0.114,0.084h0.101h0.354v-0.433v-0.287h-0.563h-0.17V30.144z M24.907,30.332v0.556h0.455v-0.556h-0.354H24.907z
	 M23.567,30.888v-0.556h-0.101h-0.354v0.556H23.567z M23.137,29.504L23.137,29.504l-0.025,0.001v0.723h0.354h0.101
	c0.002-0.047,0.053-0.084,0.113-0.084h0.165v-0.535v-0.101v-0.004H23.137z M24.907,28.811v0.051v0.325v0.221h0.455v-0.221v-0.326
	v-0.05H24.907z M23.112,28.811v0.051v0.541h0.455v-0.216v-0.376H23.112z M18.347,22.373h11.798v28.861
	c-6.79-0.167-12.235-4.842-12.235-10.584c0-0.006,0-0.013,0-0.019l0,0V22.72C17.91,22.529,18.106,22.373,18.347,22.373
	 M30.561,17.887c4.141,0,7.499,0.511,7.499,1.142s-3.358,1.143-7.499,1.143c-4.141,0-7.499-0.513-7.499-1.143
	S26.419,17.887,30.561,17.887 M21.596,16.894c-0.039,0.012-0.08-0.009-0.093-0.048c-0.013-0.038,0.009-0.08,0.047-0.093
	c0.011-0.003,3.997-1.305,6.611-1.492c1.304-0.093,2.245-0.116,3.065-0.097c0.825,0.019,1.522,0.079,2.344,0.15h0.005l0.001,0.001
	v-0.001c0.23,0.021,0.497,0.058,0.787,0.105c0.286,0.047,0.595,0.106,0.911,0.172c1.621,0.337,3.462,0.853,3.788,0.948
	c0.039,0.012,0.061,0.053,0.049,0.092c-0.011,0.039-0.052,0.062-0.091,0.05c-0.324-0.095-2.16-0.61-3.776-0.945
	c-0.314-0.065-0.62-0.124-0.905-0.171c-0.282-0.046-0.545-0.083-0.775-0.104h-0.006c-0.823-0.073-1.521-0.132-2.334-0.151
	c-0.813-0.018-1.75,0.004-3.052,0.097C25.575,15.594,21.607,16.889,21.596,16.894 M23.354,16.968c0.146,0,0.264,0.118,0.264,0.264
	c0,0.146-0.118,0.264-0.264,0.264c-0.146,0-0.265-0.118-0.265-0.264C23.09,17.086,23.208,16.968,23.354,16.968 M24.271,17.102
	l0.708-0.705l1.142,0.237l-0.858,0.708L24.271,17.102z M27.49,16.133c0.236,0,0.426,0.19,0.426,0.426s-0.19,0.426-0.426,0.426
	c-0.235,0-0.427-0.191-0.427-0.426S27.254,16.133,27.49,16.133 M37.594,16.968c0.146,0,0.264,0.118,0.264,0.264
	c0,0.146-0.117,0.264-0.264,0.264c-0.146,0-0.264-0.118-0.264-0.264C37.33,17.086,37.449,16.968,37.594,16.968 M36.755,17.102
	l-0.993,0.24l-0.857-0.708l1.141-0.237L36.755,17.102z M33.478,16.133c0.235,0,0.426,0.19,0.426,0.426s-0.191,0.426-0.426,0.426
	c-0.236,0-0.427-0.191-0.427-0.426S33.241,16.133,33.478,16.133 M29.115,16.007h2.75c0.031,0,0.056,0.025,0.056,0.056v0.615
	c0,0.031-0.025,0.055-0.056,0.055h-2.75c-0.031,0-0.057-0.024-0.057-0.055v-0.615C29.058,16.033,29.084,16.007,29.115,16.007
	 M17.637,21.66h25.347l0,0v0.001c0.145,0,0.278,0.048,0.373,0.124c0.102,0.08,0.165,0.192,0.165,0.317l0,0v0.001v18.643v0.007v0.012
	v0.001l0,0l0,0l0,0c0,3.067-1.481,5.844-3.874,7.853c-2.389,2.006-5.688,3.246-9.332,3.247l0,0h-0.002h-0.001l0,0
	c-3.643,0-6.942-1.241-9.333-3.247c-2.392-2.009-3.873-4.785-3.873-7.852h-0.001v-0.001l0.001-0.005v-0.007l-0.001-0.008V22.095l0,0
	h0.001c0-0.123,0.062-0.233,0.162-0.312C17.364,21.708,17.494,21.661,17.637,21.66L17.637,21.66L17.637,21.66z M42.984,21.808
	H17.637h-0.001l0,0c-0.107,0-0.205,0.035-0.274,0.091c-0.065,0.052-0.106,0.121-0.106,0.196h0l0,0v18.646v0.006l0,0.013l0,0.006
	v0.001h0l0,0c0,3.021,1.461,5.758,3.821,7.738c2.364,1.985,5.631,3.213,9.238,3.213v-0.001h0.001h0.002v0.001
	c3.607-0.001,6.873-1.228,9.237-3.213c2.361-1.98,3.82-4.718,3.82-7.738v-0.001h0l0,0h0v-0.011l0-0.009v-0.007V22.104v-0.001h0
	c0-0.077-0.042-0.149-0.108-0.202C43.194,21.844,43.094,21.808,42.984,21.808L42.984,21.808L42.984,21.808z M34.121,35.952
	l0.002-0.004c0.02-0.047,0.074-0.072,0.124-0.056c0.115,0.036,0.195,0.034,0.23,0.029c0.109-0.094,0.63-0.573,0.61-1.001
	c-0.003-0.061-0.003-0.109,0.002-0.147l-0.001-0.005c0-0.028,0.009-0.055,0.027-0.073c0.015-0.02,0.036-0.03,0.063-0.032h0.003
	l0.003-0.001h0c0.078-0.004,0.101,0.054,0.136,0.148c0.062,0.168,0.209,0.567,0.499,0.686h0.001l0.007,0.003h0.002l0.002,0.001
	c0.023,0.009,0.042,0.027,0.055,0.052c0.012,0.028-0.025,0.055-0.018,0.054l0.003-0.001c0.002-0.002,0.014-0.011,0.022-0.019
	c0.032-0.027,0.064-0.055,0.114-0.066c0.005-0.001,0.01-0.003,0.016-0.003h0.002v0c0.012-0.001,0.024,0,0.037,0.002
	c0.041,0.01,0.069,0.042,0.076,0.081c0.601-0.135,1.46-0.83,1.664-0.713c0.247,0.141,0.105,0.494,0.334,0.423
	c0.229-0.071,0.183-0.6,0.393-0.284c0.211,0.313,0.437,0.614,0.542,0.634c0.106,0.021,0.477,0.351,0.751,0
	c0.272-0.35,0.096-0.333-0.08-0.597c-0.177-0.265-0.318-0.353,0.034-0.511c0.354-0.16,0.548-0.636,0.389-0.688
	c-0.159-0.053-0.124,0.282-0.282,0.282c-0.159,0-0.603-0.302-0.531-0.531c0.072-0.227-0.264-0.421-0.264-0.421
	s0.424,0.088,0.53-0.353c0.106-0.441-0.282-0.918-0.37-0.971c-0.089-0.053,0.053-0.548,0-0.75c-0.052-0.203-0.247-0.22-0.353-0.555
	c-0.105-0.335,0.477-0.335,0.141-0.812c-0.335-0.477-0.542-0.941-0.542-0.941h0c-0.004-0.002-0.024-0.012-0.057-0.026v-0.001
	c-0.153-0.062-0.56-0.158-0.612,0.533c-0.065,0.849-1.224,0.897-1.241,0.902h-0.001l0,0l-0.001-0.001v-0.001h0l-0.001-0.001h-0.001
	l-0.002,0h-0.001l0,0l-0.003-0.001l-0.001-0.001l-0.003-0.002l-0.001-0.001l-0.003-0.001v0l-0.003-0.001l-0.002-0.001l-0.002-0.001
	c-0.008-0.003-0.016-0.006-0.027-0.011l-0.001-0.001l-0.015-0.005h-0.001l-0.001-0.001h-0.001c-0.043-0.015-0.103-0.03-0.169-0.033
	H36.34c-0.014,0-0.026,0-0.04,0.001h-0.002l0,0l-0.013,0.001l-0.003,0c-0.019,0.002-0.039,0.005-0.058,0.01h-0.001h-0.002
	c-0.01,0.002-0.019,0.005-0.029,0.009h-0.001c-0.009,0.004-0.019,0.007-0.028,0.012h-0.001h-0.001l-0.001,0.001
	c-0.122,0.055-0.238,0.185-0.297,0.462c-0.159,0.741-0.159,1.324-0.458,1.429s-0.547-0.265-0.618,0
	c-0.07,0.265,0.265,0.459,0.176,0.759c-0.088,0.299-0.07,0.175-0.371,0.193c-0.3,0.018-0.302,0.344-0.283,0.693
	c0.018,0.348-0.429,0.674-0.493,0.877c-0.064,0.203-0.567,0.606-0.106,1.058C33.861,35.811,34.001,35.899,34.121,35.952
	 M36.122,35.705c0.317-0.06,0.69-0.268,1.017-0.451c0.303-0.169,0.56-0.312,0.614-0.281l0.004,0.003
	c0.078,0.046,0.101,0.138,0.12,0.214c0.005,0.021,0.01,0.042,0.016,0.063c0.04,0.128,0.098,0.206,0.274,0.151
	c0.146-0.045,0.204-0.187,0.251-0.304l0.002-0.005c0.016-0.042,0.032-0.077,0.035-0.079c0.021-0.015-0.028,0.034-0.008,0.063
	l0.005,0.008c0.035,0.05,0.064,0.096,0.09,0.131c0.027,0.041,0.058,0.083,0.089,0.126c0.096,0.131,0.191,0.245,0.274,0.32
	c0.152,0.489,0.274,1.127,0.549,1.463c0.194,0.237,0.602,0.55,0.931,1.223c-0.01,0.005-0.02,0.013-0.028,0.021
	c-0.018,0.019-0.028,0.043-0.029,0.067v0.003c-0.001,0.018,0.003,0.036,0.013,0.052c0.042,0.094,0.084,0.196,0.125,0.308
	c0.042,0.116,0.079,0.238,0.114,0.368c0.014,0.053,0.069,0.085,0.122,0.072c0.014,0.054,0.026,0.11,0.038,0.166
	c0.17,0.805,0.152,1.408,0.101,1.787c0.062,0.331,0.293,0.49,0.527,0.367c0.231-0.123,0.231,0.109-0.083,0.451
	c-0.314,0.342-0.588,0.137-0.779,0.055c-0.192-0.083-0.124,0.164,0.082,0.301c0.205,0.137,0.602,0.835,0.657,1.108
	c0.055,0.273-0.232,0.069-0.342,0c-0.11-0.068-0.158,0.303-0.042,0.504c0.116,0.202,0.191,0.783,0.082,0.933
	c-0.109,0.15-0.218-0.054-0.423-0.095c-0.205-0.042-0.67,0.423-0.657,0.656c0.014,0.232-0.137,0.314-0.301,0.369
	c-0.165,0.056-0.192-0.411-0.287-0.232c-0.096,0.178-0.178,0.15-0.356,0.096c-0.178-0.054-0.027-0.302-0.192-0.178
	s-0.383,0.014-0.246-0.246s0.67-0.492,1.081-0.465c0.206,0.014,0.268-0.164,0.277-0.343c-0.052-0.071-0.106-0.137-0.139-0.185
	c-0.123-0.185-0.184-0.582-0.03-0.857c0.153-0.276-0.093-0.459-0.429-0.612c-0.336-0.152-0.429,0.46-0.888,0.521
	c-0.459,0.062-1.01-0.337-1.041-1.04c-0.006-0.152,0-0.312,0.021-0.475c0.033-0.015,0.054-0.023,0.054-0.023
	c0.013-0.005,0.024-0.013,0.034-0.022h0.001c0.017-0.018,0.027-0.04,0.029-0.063c0.012-0.073,0.027-0.148,0.046-0.225
	c0.019-0.074,0.041-0.152,0.066-0.231c0.132-0.397,0.354-0.798,0.681-1.157l0.001-0.001c0.068-0.075,0.119-0.151,0.156-0.227
	s0.06-0.154,0.071-0.231c0.055-0.383-0.195-0.729-0.399-0.943c-0.012-0.012-0.026-0.02-0.042-0.025l-0.024-0.008l0,0l0,0
	c-0.031-0.01-0.087-0.028-0.167-0.046c-0.041-0.036-0.067-0.055-0.067-0.055s-0.949-0.062-1.653-0.796
	c-0.145-0.151-0.22-0.375-0.247-0.636c0.011-0.007,0.021-0.014,0.031-0.018c0.04-0.017,0.063-0.057,0.061-0.098h0.001
	c-0.013-0.211,0.003-0.445,0.036-0.68C36.03,36.124,36.074,35.908,36.122,35.705 M35.18,34.869
	c-0.008-0.003-0.008-0.003,0.005-0.004c-0.015-0.406,0.084,0.528,0.609,0.729c0.102,0.221,0.153,0.036,0.243,0.022h0.002
	c-0.111,0.451-0.201,0.971-0.176,1.409c-0.076,0.033-0.162,0.107-0.223,0.27c-0.136,0.364-0.197,0.334-0.378,0.289
	c-0.183-0.045-0.515,0.257-0.85,0.529c-0.333,0.273-0.348,0.455-0.409,0.698c-0.06,0.243-0.318-0.122-0.438-0.228
	c-0.122-0.105-0.38-0.015-0.44,0.122c-0.061,0.136-0.136,0.227-0.303,0.288s-0.243-0.166-0.333-0.122
	c-0.091,0.046-0.227,0.364-0.515,0.319c-0.288-0.045-0.015-0.424,0-0.545c0.015-0.122-0.183-0.289-0.303-0.5
	c-0.121-0.212,0.591-0.242,0.894-0.197c0.303,0.045,0.378-0.243,0.561-0.546c0.182-0.304,0.44-0.318,0.47-0.152
	c0.03,0.167,0.182,0,0.182,0s0.348-0.939,0.394-1.136c0.006-0.027,0.022-0.07,0.045-0.125c0.189,0.06,0.306,0.027,0.306,0.027
	s0.69-0.574,0.666-1.101l-0.002-0.046L35.18,34.869z M36.272,32.295c-0.031-0.045-0.019-0.108,0.027-0.14
	c0.045-0.031,0.109-0.019,0.14,0.027c0.001,0.002,0.569,0.824,0.113,1.128l0,0c-0.044,0.03-0.09,0.059-0.131,0.084
	c-0.223,0.14-0.29,0.182-0.197,0.622c0.042,0.193,0.079,0.312,0.104,0.393c0.062,0.196,0.069,0.222-0.044,0.435
	c-0.026,0.049-0.087,0.067-0.136,0.041c-0.049-0.025-0.068-0.086-0.042-0.136c0.073-0.136,0.068-0.152,0.028-0.279
	c-0.026-0.084-0.065-0.208-0.108-0.412c-0.123-0.577-0.028-0.637,0.286-0.834c0.038-0.024,0.078-0.048,0.127-0.082h0.001
	C36.726,32.952,36.274,32.297,36.272,32.295 M37.888,30.477c0.037-0.041,0.102-0.043,0.143-0.006
	c0.041,0.038,0.043,0.102,0.006,0.143c-0.001,0.001-0.299,0.316-0.184,0.495l0.001,0.001c0.039,0.061,0.093,0.116,0.144,0.168
	c0.167,0.169,0.319,0.323,0.162,0.652c-0.085,0.18-0.158,0.35-0.19,0.505C37.938,32.579,37.94,32.71,38,32.829l0.002,0.006
	c0.02,0.041,0.043,0.082,0.064,0.121c0.136,0.249,0.247,0.449,0.029,0.738c-0.034,0.044-0.097,0.053-0.142,0.02
	c-0.044-0.033-0.054-0.097-0.02-0.141c0.139-0.185,0.057-0.334-0.044-0.52c-0.022-0.04-0.044-0.081-0.067-0.127l-0.003-0.006
	c-0.082-0.165-0.088-0.341-0.048-0.528c0.037-0.174,0.114-0.358,0.206-0.549c0.096-0.202-0.008-0.308-0.123-0.424
	c-0.059-0.061-0.121-0.123-0.171-0.201v-0.001C37.481,30.903,37.887,30.478,37.888,30.477 M36.602,30.113L36.602,30.113L36.6,30.112
	l0,0l-0.013-0.005l-0.003-0.002h0L36.569,30.1l-0.003-0.001l0,0l-0.015-0.005l-0.004-0.002h-0.001l0,0
	c-0.024-0.008-0.054-0.017-0.088-0.024h-0.002h-0.002l-0.002-0.001c-0.032-0.006-0.066-0.011-0.104-0.013h-0.005h-0.002h-0.02
	h-0.003H36.31h-0.002h-0.004l-0.001,0.001v-0.001l-0.005,0.001l0,0h-0.007h-0.002h-0.002l-0.01,0.001l-0.006,0.001l-0.004,0.001l0,0
	c-0.012,0.001-0.022,0.001-0.031,0.003c-0.011,0.002-0.022,0.005-0.034,0.007h-0.002l0,0L36.2,30.069h-0.002l-0.003,0.001
	l-0.001,0.001l0,0V30.07l0,0.001h-0.002l-0.011,0.003l-0.005,0.001l-0.012,0.003l0,0l0,0l-0.007,0.003l-0.015,0.004l-0.003,0.003
	l-0.016,0.005l0,0l-0.003,0.002l-0.002,0.001c-0.025,0.011-0.05,0.025-0.074,0.042c-0.069-0.094-0.125-0.251-0.366-0.183
	c-0.343,0.098-0.639-0.098-0.72-0.245c-0.082-0.147,0.245-0.491,0.393-0.393c0.147,0.098,0.213,0.164,0.343,0.196
	c0.131,0.033,0.294,0.18,0.491,0.164c0.196-0.017,0.262-0.556,0.082-0.72c-0.18-0.163,0-0.441-0.261-0.588
	c-0.262-0.147,0.049,0.523-0.458,0.179c-0.387-0.261-0.165-0.361-0.077-0.47c0.074,0.062,0.204,0.123,0.43,0.158
	c0.055,0.008,0.107-0.03,0.115-0.084c0.008-0.054-0.03-0.107-0.084-0.115c-0.384-0.06-0.356-0.122-0.356-0.122
	c0.013-0.041,0-0.083-0.031-0.109c0.074-0.052,0.183-0.075,0.183-0.075s0.932-0.064,1.357-0.048
	c0.425,0.016,0.932,0.311,0.932,0.311s0.361-0.098,0.508-0.017c0.146,0.081,0.278,0.458,0.081,0.736
	c-0.008,0.012-0.017,0.023-0.027,0.034c-0.008-0.011-0.018-0.019-0.03-0.025l0,0v-0.001l-0.007-0.003l0,0l-0.004-0.002l-0.003-0.001
	l-0.001-0.001l-0.008-0.002l-0.033-0.017h-0.001v-0.001c-0.004-0.001-0.008-0.003-0.012-0.005h0l-0.007-0.002
	c-0.093-0.036-0.256-0.08-0.413-0.013c-0.158,0.067-0.3,0.241-0.33,0.634c-0.003,0.03-0.006,0.06-0.012,0.087
	c-0.117,0.616-0.956,0.705-1.111,0.719L36.602,30.113z M33.609,34.755c-0.173-0.068-0.371-0.162-0.585-0.251
	c-0.499-0.212-0.589-1.057-0.724-1.45c-0.136-0.393-0.106-0.483-0.378-0.483s-0.242-0.347-0.151-0.648
	c0.09-0.302,0.09-0.604-0.015-0.771c-0.105-0.165-0.167-0.271-0.151-0.438c0.015-0.166-0.03-0.256-0.105-0.498
	s0.211-0.332,0.393-0.347c0.181-0.016,0.048,0.379,0.088,0.379s0.021-0.326,0.18-0.376c0.16-0.051,0.148,0.364,0.184,0.253
	c0.037-0.112,0.106-0.196,0.212-0.211c0.105-0.016,0.286,0.301,0.378,0.573c0.09,0.271-0.061,0.83-0.213,1.282
	c-0.15,0.454,0.092,0.741,0.213,0.952c0.12,0.211,0.452,0.393,0.678,0.408c0.227,0.015,0.362,0.256,0.362,0.437
	c0,0.054,0.097,0.098,0.231,0.134l0.002,0.029v0.001v0.007v0.001c0.004,0.178-0.154,0.37-0.287,0.531l-0.003,0.004
	c-0.09,0.109-0.169,0.206-0.199,0.297v0l0,0l-0.001,0.001v0.001c-0.012,0.034-0.046,0.085-0.086,0.145l-0.003,0.006L33.609,34.755z
	 M36.088,29.572c-0.131-0.142-0.373-0.383-0.568-0.464c-0.284-0.118-0.669,0.016-0.897,0.071c-0.228,0.055-0.669,0.142-0.921,0.047
	c-0.253-0.095-0.347-0.347-0.339-0.521c0.008-0.174,0.3-0.086,0.354,0.086c0.056,0.174,0.543,0.151,0.811,0.096
	c0.268-0.056,0.803-0.111,1.166-0.017c0.243,0.063,0.46,0.292,0.576,0.434c-0.002,0.044-0.007,0.087-0.017,0.127
	c-0.014,0.057-0.034,0.105-0.058,0.132c-0.008,0.008-0.015,0.014-0.02,0.014C36.146,29.581,36.117,29.577,36.088,29.572
	 M37.999,38.773c0.264,0.274,0.609,0.783,0.171,1.264c-0.472,0.515-0.729,1.114-0.82,1.673c0,0-0.447,0.184-0.516,0.341
	c-0.069,0.158,0.325,0.71,0.325,1.125c0,0.414-0.532,0.749-0.675,0.773c-0.143,0.025-0.083-0.418-0.143-0.143
	c-0.059,0.276-0.305,0.168-0.325,0.069c-0.019-0.099-0.147-0.493-0.196-0.138c-0.05,0.354-0.493,0.671-0.66,0.868
	c-0.167,0.197-0.286-0.01-0.295-0.119c-0.01-0.108-0.325-0.049-0.512,0.021c-0.187,0.068-0.157,0.286-0.275,0.364
	c-0.118,0.079-0.079-0.196-0.138-0.099c-0.059,0.099-0.089,0.118-0.315,0.109c-0.227-0.011-0.049-0.346-0.128-0.356
	c-0.078-0.009-0.039,0.168-0.226,0.179c-0.187,0.01-0.059-0.237-0.128-0.218c-0.069,0.021-0.079,0.06-0.266-0.088
	c-0.187-0.148,0.197-0.325,0.404-0.395c0.206-0.069,0.324-0.03,0.453-0.139c0.128-0.108,0.216-0.04,0.295,0
	c0.078,0.039-0.02,0.385,0.679,0.099c0.699-0.287,0.601-0.977,0.66-1.104c0.059-0.129-0.04-0.227-0.148-0.316
	c-0.108-0.089-0.079-0.247-0.009-0.414c0.068-0.168-0.237-0.296-0.522-0.789c-0.286-0.493,0.165-1.327,0.246-1.44
	c0.081-0.112,0.02-0.315-0.108-0.434c-0.129-0.118,0.058-0.325,0.186-0.129c0.128,0.198,0.375,0,0.375,0s-0.067-0.095,0.315-0.334
	C36.773,38.334,37.992,38.77,37.999,38.773 M38.771,25.654c-0.151,0.083-0.765-0.32-0.48-0.462c0.285-0.143,0.641,0.177,0.641,0.177
	S38.79,25.014,38.86,24.8c0.071-0.213,0.285-0.054,0.445,0.213c0.16,0.267,0.284,0.284,0.871,0.659
	c0.588,0.373,1.353,1.494,1.353,2.117c0,0.624-0.28,2.544-0.298,2.883c-0.018,0.337,0.106,0.921,0.422,0.996
	c0.316,0.075-0.16,1.299-0.231,1.869c-0.071,0.569,0.32,1.139,0.694,1.976c0.373,0.836,0.16,2.117-0.16,2.74
	c-0.224,0.436-0.896,0.745-1.28,0.891c-0.071-0.268-0.155-0.499-0.248-0.701c0,0,0.94-0.19,1.154-0.528s0.284-1.513-0.071-2.277
	c-0.356-0.765-0.694-2.136-0.623-2.527c0.072-0.391,0.41-0.872,0.302-1.032c-0.106-0.16-0.249-0.854-0.284-1.156
	c-0.036-0.303,0.266-1.655-0.018-3.043c-0.285-1.388-0.712-1.477-1.246-1.744c-0.534-0.267-0.712-0.125-0.997,0.054
	c-0.285,0.178-0.373,0.355-0.428,0.052C38.167,25.939,38.771,25.654,38.771,25.654"/>
<g>
	<path fill="#13419E" d="M103.279,52.016l-0.055-22.997L91.945,47.964h-3.997L76.723,29.511v22.504H68.4V13.687h7.337l14.346,23.819
		l14.127-23.819h7.283l0.109,38.329H103.279z"/>
	<path fill="#13419E" d="M150.37,44.897v7.118h-29.677V13.687h28.965v7.118h-20.15v8.323h17.796v6.899h-17.796v8.87H150.37z
		 M136.9,10.566h-6.68l7.392-7.885h9.199L136.9,10.566z"/>
	<path fill="#13419E" d="M181.854,52.016l-7.391-10.678h-0.438h-7.721v10.678h-8.87V13.687h16.591
		c10.239,0,16.646,5.312,16.646,13.908c0,5.75-2.902,9.966-7.885,12.101l8.597,12.32H181.854z M173.531,20.915h-7.228v13.36h7.228
		c5.421,0,8.158-2.519,8.158-6.68C181.689,23.379,178.952,20.915,173.531,20.915z"/>
	<path fill="#13419E" d="M197.679,13.687h8.87v38.329h-8.87V13.687z"/>
	<path fill="#13419E" d="M215.639,13.687h17.412c12.539,0,21.135,7.556,21.135,19.165c0,11.607-8.596,19.164-21.135,19.164h-17.412
		V13.687z M232.612,44.733c7.61,0,12.594-4.545,12.594-11.882c0-7.337-4.983-11.882-12.594-11.882h-8.104v23.764H232.612z"/>
	<path fill="#13419E" d="M285.562,43.803h-17.796l-3.395,8.213h-9.09l17.084-38.329h8.761l17.138,38.329h-9.308L285.562,43.803z
		 M282.77,37.067l-6.078-14.674l-6.078,14.674H282.77z"/>
</g>
<g>
	<path fill="#6A6A6A" d="M77.235,70.257h-6.168l-1.277,2.901h-1.708l5.256-11.606h1.642l5.273,11.606h-1.741L77.235,70.257z
		 M76.654,68.93l-2.504-5.688l-2.503,5.688H76.654z"/>
	<path fill="#6A6A6A" d="M85.725,69.146v4.012h-1.642v-4.045l-4.61-7.562h1.774l3.714,6.118l3.731-6.118h1.642L85.725,69.146z"/>
	<path fill="#6A6A6A" d="M91.744,68.15v-6.599h1.658v6.532c0,2.57,1.177,3.731,3.267,3.731s3.283-1.161,3.283-3.731v-6.532h1.608
		v6.599c0,3.367-1.84,5.141-4.908,5.141C93.601,73.291,91.744,71.518,91.744,68.15z"/>
	<path fill="#6A6A6A" d="M114.941,61.552v11.606h-1.36l-6.964-8.654v8.654h-1.658V61.552h1.36l6.964,8.655v-8.655H114.941z"/>
	<path fill="#6A6A6A" d="M120.728,62.994h-3.979v-1.442h9.601v1.442h-3.979v10.164h-1.642V62.994z"/>
	<path fill="#6A6A6A" d="M134.972,70.257h-6.168l-1.277,2.901h-1.708l5.256-11.606h1.642l5.272,11.606h-1.741L134.972,70.257z
		 M134.391,68.93l-2.504-5.688l-2.503,5.688H134.391z"/>
	<path fill="#6A6A6A" d="M150.475,73.158l-0.017-8.456l-4.195,7.047H145.5l-4.195-6.997v8.406h-1.592V61.551h1.36l4.842,8.158
		l4.776-8.158h1.359l0.016,11.607H150.475L150.475,73.158z"/>
	<path fill="#6A6A6A" d="M155.549,61.552h1.658v11.606h-1.658V61.552z"/>
	<path fill="#6A6A6A" d="M169.112,71.717v1.441h-8.423V61.552h8.191v1.442h-6.533v3.565h5.819v1.409h-5.819v3.748H169.112z"/>
	<path fill="#6A6A6A" d="M181.781,61.552v11.606h-1.359l-6.965-8.654v8.654h-1.658V61.552h1.359l6.965,8.655v-8.655H181.781z"/>
	<path fill="#6A6A6A" d="M187.568,62.994h-3.98v-1.442h9.602v1.442h-3.98v10.164h-1.641V62.994z"/>
	<path fill="#6A6A6A" d="M193.885,67.355c0-3.399,2.62-5.937,6.186-5.937c3.531,0,6.151,2.521,6.151,5.937s-2.62,5.936-6.151,5.936
		C196.505,73.291,193.885,70.754,193.885,67.355z M204.564,67.355c0-2.57-1.924-4.461-4.494-4.461c-2.604,0-4.527,1.891-4.527,4.461
		s1.924,4.46,4.527,4.46C202.641,71.815,204.564,69.926,204.564,67.355z"/>
	<path fill="#6A6A6A" d="M220.432,71.717v1.441h-8.34v-1.127l4.726-4.56c1.228-1.194,1.459-1.924,1.459-2.653
		c0-1.193-0.846-1.924-2.471-1.924c-1.243,0-2.255,0.398-2.968,1.26l-1.127-0.978c0.895-1.11,2.438-1.758,4.244-1.758
		c2.421,0,3.979,1.243,3.979,3.233c0,1.128-0.331,2.139-1.907,3.648l-3.548,3.416H220.432L220.432,71.717z"/>
	<path fill="#6A6A6A" d="M221.742,67.355c0-3.781,2.023-5.937,4.742-5.937c2.703,0,4.726,2.155,4.726,5.937
		c0,3.78-2.022,5.936-4.726,5.936C223.766,73.291,221.742,71.136,221.742,67.355z M229.553,67.355c0-2.969-1.261-4.461-3.068-4.461
		c-1.824,0-3.084,1.492-3.084,4.461c0,2.968,1.26,4.46,3.084,4.46C228.292,71.815,229.553,70.323,229.553,67.355z"/>
	<path fill="#6A6A6A" d="M236.351,61.552v11.606h-1.642V62.994h-2.619v-1.442H236.351L236.351,61.552z"/>
	<path fill="#6A6A6A" d="M248.041,69.875c0,2.106-1.791,3.416-4.627,3.416c-2.818,0-4.593-1.31-4.593-3.416
		c0-1.326,0.729-2.305,2.04-2.802c-1.062-0.497-1.625-1.359-1.625-2.503c0-1.941,1.674-3.151,4.178-3.151
		c2.521,0,4.212,1.21,4.212,3.151c0,1.144-0.581,2.006-1.642,2.503C247.311,67.588,248.041,68.549,248.041,69.875z M246.383,69.826
		c0-1.277-1.128-2.073-2.969-2.073c-1.84,0-2.935,0.796-2.935,2.073c0,1.31,1.095,2.122,2.935,2.122
		C245.255,71.948,246.383,71.136,246.383,69.826z M240.877,64.636c0,1.145,0.945,1.856,2.537,1.856c1.608,0,2.587-0.713,2.587-1.856
		c0-1.161-1.028-1.874-2.587-1.874S240.877,63.475,240.877,64.636z"/>
	<path fill="#6A6A6A" d="M254.176,67.919h4.46v1.376h-4.46V67.919z"/>
	<path fill="#6A6A6A" d="M272.996,71.717v1.441h-8.341v-1.127l4.726-4.56c1.227-1.194,1.459-1.924,1.459-2.653
		c0-1.193-0.846-1.924-2.471-1.924c-1.243,0-2.255,0.398-2.968,1.26l-1.128-0.978c0.896-1.11,2.438-1.758,4.245-1.758
		c2.421,0,3.979,1.243,3.979,3.233c0,1.128-0.332,2.139-1.906,3.648l-3.549,3.416H272.996L272.996,71.717z"/>
	<path fill="#6A6A6A" d="M274.306,67.355c0-3.781,2.022-5.937,4.742-5.937c2.703,0,4.726,2.155,4.726,5.937
		c0,3.78-2.022,5.936-4.726,5.936C276.328,73.291,274.306,71.136,274.306,67.355z M282.115,67.355c0-2.969-1.26-4.461-3.067-4.461
		c-1.823,0-3.084,1.492-3.084,4.461c0,2.968,1.261,4.46,3.084,4.46C280.855,71.815,282.115,70.323,282.115,67.355z"/>
	<path fill="#6A6A6A" d="M293.475,71.717v1.441h-8.342v-1.127l4.727-4.56c1.227-1.194,1.459-1.924,1.459-2.653
		c0-1.193-0.846-1.924-2.471-1.924c-1.244,0-2.256,0.398-2.969,1.26l-1.127-0.978c0.896-1.11,2.438-1.758,4.245-1.758
		c2.421,0,3.979,1.243,3.979,3.233c0,1.128-0.332,2.139-1.907,3.648l-3.548,3.416H293.475L293.475,71.717z"/>
	<path fill="#6A6A6A" d="M298.432,61.552v11.606h-1.642V62.994h-2.62v-1.442H298.432L298.432,61.552z"/>
</g>
</svg>
