<svg  xmlns="http://www.w3.org/2000/svg" xmlns:xlink="http://www.w3.org/1999/xlink" version="1.1" x="0px" y="0px" viewBox="0 0 32 32" width="80" height="80" style="enable-background:new 0 0 32 32;" xml:space="preserve">
  <path fill="#466BA0" d="M15.024,32.002c-0.572,0-1.148-0.032-1.728-0.096C6.407,31.145,0.855,25.592,0.094,18.703   c-0.479-4.33,0.846-8.488,3.729-11.707C6.667,3.821,10.741,2,15,2c0.552,0,1,0.448,1,1v12.512C16,15.781,16.219,16,16.488,16H29   c0.553,0,1,0.448,1,1c0,4.26-1.821,8.333-4.996,11.177C22.216,30.674,18.724,32.002,15.024,32.002z M14,4.039   c-3.323,0.257-6.446,1.79-8.688,4.292c-2.498,2.79-3.646,6.396-3.23,10.154C2.741,24.45,7.55,29.259,13.516,29.918   c3.761,0.416,7.365-0.733,10.154-3.23c2.502-2.241,4.034-5.364,4.291-8.688H16.488C15.116,18,14,16.884,14,15.512V4.039z"></path>
  <path fill="#ED4D4F" d="M31,14H19c-0.553,0-1-0.448-1-1V1c0-0.552,0.447-1,1-1c7.168,0,13,5.832,13,13C32,13.552,31.553,14,31,14z M20,12h9.955   C29.479,6.73,25.27,2.522,20,2.045V12z"></path>
</svg>
