<svg fill="#ED4D4F" xmlns="http://www.w3.org/2000/svg" viewBox="0 0 32 32" width="80" height="80" enable-background="new 0 0 32 32" x="0px" y="0px">
  <g>
    <path fill="#466BA0"
      d="M14 32c-.167 0-.335-.042-.487-.127-.361-.201-.561-.604-.502-1.015l.762-5.339c-2.406-1.912-3.773-4.635-3.773-7.561 0-5.537 4.935-10.042 11-10.042s11 4.504 11 10.042-4.935 10.042-11 10.042c-.565 0-1.134-.04-1.694-.12l-4.666 3.889c-.183.153-.411.231-.64.231zm7-22.083c-4.962 0-9 3.607-9 8.042 0 2.464 1.248 4.761 3.424 6.301.306.217.465.587.412.958l-.479 3.351 3.018-2.516c.229-.188.529-.271.82-.215.594.107 1.201.162 1.805.162 4.963 0 9-3.607 9-8.042 0-4.434-4.037-8.041-9-8.041zM4 24.083c-.167 0-.335-.042-.487-.127-.361-.201-.561-.604-.502-1.015l.762-5.338c-2.406-1.911-3.773-4.636-3.773-7.561 0-5.538 4.935-10.042 11-10.042 4.147 0 7.898 2.099 9.79 5.479.271.481.099 1.091-.384 1.361-.481.27-1.092.098-1.36-.384-1.539-2.748-4.622-4.456-8.046-4.456-4.962 0-9 3.607-9 8.042 0 2.464 1.248 4.761 3.424 6.302.306.216.465.586.412.958l-.478 3.35 2.141-1.785c.424-.354 1.054-.296 1.408.128.354.425.296 1.056-.128 1.409l-4.139 3.448c-.183.153-.411.231-.64.231z"></path>
    <circle cx="21" cy="22" r="1"></circle>
    <path
      d="M20.988 20.015c-.553 0-.999-.462-.999-1.015 0-1.224 1.2-2.074 1.777-2.483.165-.116.386-.584.271-.946-.11-.341-.607-.571-1.003-.571-.458 0-1.024.208-1.241.792-.192.518-.77.779-1.286.589-.518-.192-.781-.768-.589-1.286.473-1.272 1.695-2.095 3.114-2.096h.002c1.132 0 2.493.673 2.907 1.96.403 1.261-.202 2.611-1.02 3.189-.801.568-.919.817-.936.88.001.554-.445.987-.997.987z"></path>
  </g>
</svg>
