<svg fill="#ED4D4F" xmlns="http://www.w3.org/2000/svg" xmlns:xlink="http://www.w3.org/1999/xlink" version="1.1" x="0px" y="0px" viewBox="0 0 32 32" width="80" height="80" style="enable-background:new 0 0 32 32;" xml:space="preserve">
  <g>
    <path fill="#466BA0" d="M23,18c-4.963,0-9-4.038-9-9s4.037-9,9-9s9,4.038,9,9S27.963,18,23,18z M23,2c-3.859,0-7,3.14-7,7s3.141,7,7,7s7-3.14,7-7   S26.859,2,23,2z"></path>
    <path d="M9,32c-4.962,0-9-4.037-9-9s4.038-9,9-9s9,4.037,9,9S13.962,32,9,32z M9,16c-3.86,0-7,3.141-7,7s3.14,7,7,7s7-3.141,7-7   S12.86,16,9,16z"></path>
    <path
      d="M22,13c-0.271,0-0.531-0.11-0.72-0.306l-2.2-2.28c-0.384-0.397-0.372-1.03,0.025-1.414c0.398-0.382,1.03-0.372,1.414,0.025   l1.429,1.481l3.286-3.91c0.356-0.422,0.986-0.478,1.409-0.122c0.423,0.355,0.478,0.986,0.122,1.409l-4,4.76   C22.583,12.86,22.317,12.99,22.034,13C22.022,13,22.012,13,22,13z"></path>
    <path fill="#466BA0" d="M6,27c-0.256,0-0.512-0.098-0.707-0.293c-0.391-0.391-0.391-1.023,0-1.414l6-6c0.391-0.391,1.023-0.391,1.414,0   s0.391,1.023,0,1.414l-6,6C6.512,26.902,6.256,27,6,27z"></path>
    <path fill="#466BA0" d="M12,27c-0.256,0-0.512-0.098-0.707-0.293l-6-6c-0.391-0.391-0.391-1.023,0-1.414s1.023-0.391,1.414,0l6,6   c0.391,0.391,0.391,1.023,0,1.414C12.512,26.902,12.256,27,12,27z"></path>
  </g>
</svg>
