<?xml version="1.0" encoding="utf-8"?>
<!-- Generator: Adobe Illustrator 22.0.1, SVG Export Plug-In . SVG Version: 6.00 Build 0)  -->
<svg version="1.1" id="Layer_1" xmlns="http://www.w3.org/2000/svg" xmlns:xlink="http://www.w3.org/1999/xlink" x="0px" y="0px"
	 viewBox="0 0 31.1 31.4" style="enable-background:new 0 0 31.1 31.4;" xml:space="preserve">
<style type="text/css">
	.st0{fill:#FF9C9C;}
	.st1{fill:#FF3333;}
</style>
<g>
	<g>
		<path class="st0" d="M25.2,12.6c-0.5,0.1-1-0.1-1.2-0.5c-0.6-1.3-1.4-2.4-2.5-3.4c0,0,0,0,0,0c-1-1-2.2-1.7-3.5-2.3
			c-0.5-0.2-0.7-0.8-0.5-1.3c0.2-0.5,0.8-0.7,1.3-0.5c1.5,0.6,2.9,1.5,4.1,2.7c0,0,0,0,0,0c1.2,1.1,2.2,2.5,2.9,4
			c0.2,0.5,0,1.1-0.5,1.3C25.3,12.5,25.3,12.6,25.2,12.6z"/>
		<path class="st0" d="M17.6,29.9C17.6,29.9,17.6,29.9,17.6,29.9c-1.6,0.5-3.2,0.7-4.8,0.5c-0.6,0-1-0.5-0.9-1.1
			c0-0.6,0.5-1,1.1-0.9c1.4,0.1,2.8-0.1,4.1-0.5l0,0c1.3-0.4,2.6-1,3.7-1.9c0.4-0.3,1.1-0.3,1.4,0.2c0.3,0.4,0.3,1.1-0.2,1.4
			C20.6,28.7,19.1,29.4,17.6,29.9z"/>
		<path class="st0" d="M1.6,19.7c0,0-0.1,0-0.1,0c-0.5,0.1-1.1-0.3-1.1-0.8c-0.2-1.6-0.2-3.3,0.2-4.9c0,0,0,0,0,0
			c0.4-1.6,1-3.1,2-4.5C2.8,9,3.4,8.9,3.8,9.2c0.5,0.3,0.6,0.9,0.3,1.4c-0.8,1.2-1.3,2.5-1.7,3.8c0,0,0,0,0,0
			c-0.3,1.4-0.4,2.8-0.2,4.2C2.3,19.1,2,19.6,1.6,19.7z"/>
	</g>
	<g>
		<path class="st1" d="M6.4,31.2C3.8,32,1,30.5,0.2,27.8s0.7-5.4,3.3-6.2c2.6-0.8,5.4,0.7,6.2,3.3C10.6,27.6,9.1,30.4,6.4,31.2z
			 M4.1,23.5c-1.6,0.5-2.5,2.2-2,3.7c0.5,1.6,2.2,2.5,3.7,2s2.5-2.2,2-3.7C7.4,23.9,5.7,23,4.1,23.5z"/>
		<path class="st1" d="M11.5,9.8c-2.6,0.8-5.4-0.7-6.2-3.3S6,1,8.6,0.2s5.4,0.7,6.2,3.3C15.6,6.2,14.1,9,11.5,9.8z M9.2,2.1
			c-1.6,0.5-2.5,2.2-2,3.7s2.2,2.5,3.7,2c1.6-0.5,2.5-2.2,2-3.7S10.8,1.7,9.2,2.1z"/>
		<path class="st1" d="M27.5,24.8c-2.6,0.8-5.4-0.7-6.2-3.3c-0.8-2.6,0.7-5.4,3.3-6.2s5.4,0.7,6.2,3.3C31.6,21.2,30.1,24,27.5,24.8z
			 M25.2,17.1c-1.6,0.5-2.5,2.2-2,3.7s2.2,2.5,3.7,2c1.6-0.5,2.5-2.2,2-3.7C28.5,17.6,26.8,16.7,25.2,17.1z"/>
	</g>
</g>
</svg>
