<svg xmlns="http://www.w3.org/2000/svg" xmlns:xlink="http://www.w3.org/1999/xlink" viewBox="0 0 32 32">
<g fill="#FF9C9C">
<path d="M17.5,32h-3c-1.378,0-2.5-1.121-2.5-2.5v-7c0-0.275-0.224-0.5-0.5-0.5C10.122,22,9,20.879,9,19.5v-7.498   C9,10.347,10.347,9,12.002,9h7.996C21.653,9,23,10.347,23,12.002V19.5c0,1.379-1.121,2.5-2.5,2.5c-0.275,0-0.5,0.225-0.5,0.5v7   C20,30.879,18.879,32,17.5,32z M12.002,11C11.45,11,11,11.45,11,12.002V19.5c0,0.275,0.224,0.5,0.5,0.5c1.378,0,2.5,1.121,2.5,2.5   v7c0,0.275,0.224,0.5,0.5,0.5h3c0.275,0,0.5-0.225,0.5-0.5v-7c0-1.379,1.121-2.5,2.5-2.5c0.275,0,0.5-0.225,0.5-0.5v-7.498   C21,11.45,20.551,11,19.998,11H12.002z"/>
<path d="M16,8c-2.206,0-4-1.794-4-4s1.794-4,4-4c2.206,0,4,1.794,4,4S18.206,8,16,8z M16,2c-1.103,0-2,0.897-2,2s0.897,2,2,2   c1.103,0,2-0.897,2-2S17.103,2,16,2z"/>
</g>
<g fill="#ff3333">
<path d="M26.5,32H23c-0.553,0-1-0.447-1-1s0.447-1,1-1h3.5c0.275,0,0.5-0.225,0.5-0.5v-6c0-1.379,1.121-2.5,2.5-2.5   c0.275,0,0.5-0.225,0.5-0.5v-7.498C30,12.45,29.551,12,28.998,12H26c-0.553,0-1-0.448-1-1s0.447-1,1-1h2.998   C30.653,10,32,11.347,32,13.002V20.5c0,1.379-1.121,2.5-2.5,2.5c-0.275,0-0.5,0.225-0.5,0.5v6C29,30.879,27.879,32,26.5,32z"/>
<path d="M9,32H5.5C4.122,32,3,30.879,3,29.5v-6C3,23.225,2.776,23,2.5,23C1.122,23,0,21.879,0,20.5v-7.498   C0,11.347,1.347,10,3.002,10H6c0.552,0,1,0.448,1,1s-0.448,1-1,1H3.002C2.45,12,2,12.45,2,13.002V20.5C2,20.775,2.224,21,2.5,21   C3.878,21,5,22.121,5,23.5v6C5,29.775,5.224,30,5.5,30H9c0.552,0,1,0.447,1,1S9.552,32,9,32z"/>
<path d="M26,9c-2.206,0-4-1.794-4-4s1.794-4,4-4s4,1.794,4,4S28.206,9,26,9z M26,3c-1.103,0-2,0.897-2,2s0.897,2,2,2s2-0.897,2-2   S27.103,3,26,3z"/>
<path d="M6,9C3.794,9,2,7.206,2,5s1.794-4,4-4s4,1.794,4,4S8.206,9,6,9z M6,3C4.897,3,4,3.897,4,5s0.897,2,2,2s2-0.897,2-2   S7.103,3,6,3z"/>
</g>
</svg>