<svg xmlns="http://www.w3.org/2000/svg" xmlns:xlink="http://www.w3.org/1999/xlink" version="1.1" x="0px" y="0px" viewBox="0 0 100 125" style="enable-background:new 0 0 100 100;" xml:space="preserve"><style type="text/css">
	.st0{
	fill-rule:evenodd;clip-rule:evenodd;
	fill: rgba(255,51,51,.25);
	}
</style>
<path class="st0" d="M74.9,79v-5.7c4.2-0.3,7.8-2.9,9.5-6.5H79c-2.2,0-4.1-1.8-4.1-4.1v-8.1c0-2.2,1.8-4.1,4.1-4.1h8.1  c2.2,0,4.1,1.8,4.1,4.1v8.1C91.2,71.7,83.9,79,74.9,79z M54.6,79v-5.7c4.2-0.3,7.8-2.9,9.5-6.5h-5.4c-2.2,0-4.1-1.8-4.1-4.1v-8.1  c0-2.2,1.8-4.1,4.1-4.1h8.1c2.2,0,4.1,1.8,4.1,4.1v8.1C70.9,71.7,63.6,79,54.6,79z M42.4,50.5h-8.1c-2.2,0-4.1-1.8-4.1-4.1v-8.1  c0-9,7.3-16.3,16.3-16.3v5.7c-4.2,0.3-7.8,2.9-9.5,6.5h5.4c2.2,0,4.1,1.8,4.1,4.1v8.1C46.4,48.7,44.6,50.5,42.4,50.5z M22,50.5h-8.1  c-2.2,0-4.1-1.8-4.1-4.1v-8.1c0-9,7.3-16.3,16.3-16.3v5.7c-4.2,0.3-7.8,2.9-9.5,6.5H22c2.2,0,4.1,1.8,4.1,4.1v8.1  C26.1,48.7,24.2,50.5,22,50.5z"/>
<!-- <text x="0" y="115" fill="#000000" font-size="5px" font-weight="bold" font-family="'Helvetica Neue', Helvetica, Arial-Unicode, Arial, Sans-serif">Created by Rohith M S</text>
<text x="0" y="120" fill="#000000" font-size="5px" font-weight="bold" font-family="'Helvetica Neue', Helvetica, Arial-Unicode, Arial, Sans-serif">from the Noun Project</text> -->
</svg>