<svg fill="#466BA0" xmlns="http://www.w3.org/2000/svg" width="80" height="80" xmlns:xlink="http://www.w3.org/1999/xlink" version="1.1" x="0px" y="0px" viewBox="0 0 32 32" style="enable-background:new 0 0 32 32;" xml:space="preserve">
  <g fill="#ED4D4F">
    <path d="M25,15c-0.256,0-0.512-0.098-0.707-0.293c-0.391-0.391-0.391-1.023,0-1.414l3-3c0.391-0.391,1.023-0.391,1.414,0   s0.391,1.023,0,1.414l-3,3C25.512,14.902,25.256,15,25,15z"></path>
    <path d="M31,15c-0.256,0-0.512-0.098-0.707-0.293l-3-3c-0.391-0.391-0.391-1.023,0-1.414s1.023-0.391,1.414,0l3,3    c0.391,0.391,0.391,1.023,0,1.414C31.512,14.902,31.256,15,31,15z"></path>
    <path d="M7,32c-0.552,0-1-0.447-1-1v-5c0-4.413,3.59-8.003,8.002-8.003h9.046c2.179,0,3.951-1.772,3.951-3.951V11   c0-0.552,0.447-1,1-1s1,0.448,1,1v3.046c0,3.281-2.67,5.951-5.951,5.951h-9.046C10.693,19.997,8,22.69,8,26v5   C8,31.553,7.552,32,7,32z"></path>
  </g>
  <g>
    <path d="M1,16c-0.256,0-0.512-0.098-0.707-0.293c-0.391-0.391-0.391-1.023,0-1.414l6-6c0.391-0.391,1.023-0.391,1.414,0   s0.391,1.023,0,1.414l-6,6C1.512,15.902,1.256,16,1,16z"></path>
    <path d="M7,16c-0.256,0-0.512-0.098-0.707-0.293l-6-6c-0.391-0.391-0.391-1.023,0-1.414s1.023-0.391,1.414,0l6,6   c0.391,0.391,0.391,1.023,0,1.414C7.512,15.902,7.256,16,7,16z"></path>
    <path d="M19,32c-0.256,0-0.512-0.098-0.707-0.293c-0.391-0.391-0.391-1.023,0-1.414l6-6c0.391-0.391,1.023-0.391,1.414,0   s0.391,1.023,0,1.414l-6,6C19.512,31.902,19.256,32,19,32z"></path>
    <path d="M25,32c-0.256,0-0.512-0.098-0.707-0.293l-6-6c-0.391-0.391-0.391-1.023,0-1.414s1.023-0.391,1.414,0l6,6   c0.391,0.391,0.391,1.023,0,1.414C25.512,31.902,25.256,32,25,32z"></path>
    <path d="M13,8c-0.256,0-0.512-0.098-0.707-0.293c-0.391-0.391-0.391-1.023,0-1.414l6-6c0.391-0.391,1.023-0.391,1.414,0   s0.391,1.023,0,1.414l-6,6C13.512,7.902,13.256,8,13,8z"></path>
    <path d="M19,8c-0.256,0-0.512-0.098-0.707-0.293l-6-6c-0.391-0.391-0.391-1.023,0-1.414s1.023-0.391,1.414,0l6,6   c0.391,0.391,0.391,1.023,0,1.414C19.512,7.902,19.256,8,19,8z"></path>
    <path d="M28,8c-2.206,0-4-1.794-4-4s1.794-4,4-4s4,1.794,4,4S30.206,8,28,8z M28,2c-1.103,0-2,0.897-2,2s0.897,2,2,2s2-0.897,2-2   S29.103,2,28,2z"></path>
  </g>
</svg>
