<?xml version="1.0" encoding="utf-8"?>
<!-- Generator: Adobe Illustrator 22.0.1, SVG Export Plug-In . SVG Version: 6.00 Build 0)  -->
<svg version="1.1" id="_x39_e4787ba-e528-4d3f-a0d4-d0ed05e36a23"
	 xmlns="http://www.w3.org/2000/svg" xmlns:xlink="http://www.w3.org/1999/xlink" x="0px" y="0px" viewBox="0 0 853.5 518.2"
	 style="enable-background:new 0 0 853.5 518.2;" xml:space="preserve">
<style type="text/css">
	.st0{opacity:0.5;fill:url(#SVGID_1_);enable-background:new    ;}
	.st1{fill:#FFFFFF;}
	.st2{fill:#F5F5F5;}
	.st3{opacity:0.5;fill:url(#SVGID_2_);enable-background:new    ;}
	.st4{opacity:0.5;fill:url(#SVGID_3_);enable-background:new    ;}
	.st5{opacity:0.5;fill:url(#SVGID_4_);enable-background:new    ;}
	.st6{opacity:0.5;fill:url(#SVGID_5_);enable-background:new    ;}
	.st7{opacity:0.5;fill:url(#SVGID_6_);enable-background:new    ;}
	.st8{opacity:0.5;fill:url(#SVGID_7_);enable-background:new    ;}
	.st9{opacity:0.5;fill:#FF3333;enable-background:new    ;}
	.st10{fill:#FF3333;}
	.st11{opacity:0.5;fill:url(#SVGID_8_);enable-background:new    ;}
	.st12{opacity:0.5;fill:url(#SVGID_9_);enable-background:new    ;}
	.st13{opacity:0.5;fill:url(#SVGID_10_);enable-background:new    ;}
	.st14{opacity:0.5;fill:url(#SVGID_11_);enable-background:new    ;}
	.st15{opacity:0.5;fill:url(#SVGID_12_);enable-background:new    ;}
	.st16{opacity:0.5;fill:url(#SVGID_13_);enable-background:new    ;}
	.st17{opacity:0.5;fill:url(#SVGID_14_);enable-background:new    ;}
	.st18{opacity:0.5;fill:url(#SVGID_15_);enable-background:new    ;}
	.st19{opacity:0.5;fill:url(#SVGID_16_);enable-background:new    ;}
	.st20{opacity:0.5;fill:#3AD29F;enable-background:new    ;}
	.st21{fill:url(#SVGID_17_);}
	.st22{fill:#333333;}
	.st23{fill:none;stroke:#333333;stroke-width:3;stroke-miterlimit:10;}
	.st24{opacity:5.000000e-02;enable-background:new    ;}
	.st25{fill:url(#SVGID_18_);}
	.st26{fill:url(#SVGID_19_);}
	.st27{fill:url(#SVGID_20_);}
</style>
<title>control panel1</title>
<linearGradient id="SVGID_1_" gradientUnits="userSpaceOnUse" x1="426.775" y1="2" x2="426.775" y2="520.22" gradientTransform="matrix(1 0 0 -1 0 520.22)">
	<stop  offset="0" style="stop-color:#808080;stop-opacity:0.25"/>
	<stop  offset="0.54" style="stop-color:#808080;stop-opacity:0.12"/>
	<stop  offset="1" style="stop-color:#808080;stop-opacity:0.1"/>
</linearGradient>
<rect class="st0" width="853.5" height="518.2"/>
<rect x="7.5" y="8.9" class="st1" width="838.6" height="500.4"/>
<rect x="45.9" y="90" class="st2" width="436.4" height="14.9"/>
<linearGradient id="SVGID_2_" gradientUnits="userSpaceOnUse" x1="263.53" y1="397.51" x2="263.53" y2="447.99" gradientTransform="matrix(1 0 0 -1 0 520.22)">
	<stop  offset="0" style="stop-color:#808080;stop-opacity:0.25"/>
	<stop  offset="0.54" style="stop-color:#808080;stop-opacity:0.12"/>
	<stop  offset="1" style="stop-color:#808080;stop-opacity:0.1"/>
</linearGradient>
<circle class="st3" cx="263.5" cy="97.5" r="25.2"/>
<linearGradient id="SVGID_3_" gradientUnits="userSpaceOnUse" x1="129.53" y1="329.51" x2="129.53" y2="379.99" gradientTransform="matrix(1 0 0 -1 0 520.22)">
	<stop  offset="0" style="stop-color:#808080;stop-opacity:0.25"/>
	<stop  offset="0.54" style="stop-color:#808080;stop-opacity:0.12"/>
	<stop  offset="1" style="stop-color:#808080;stop-opacity:0.1"/>
</linearGradient>
<circle class="st4" cx="129.5" cy="165.5" r="25.2"/>
<linearGradient id="SVGID_4_" gradientUnits="userSpaceOnUse" x1="415.53" y1="260.51" x2="415.53" y2="310.99" gradientTransform="matrix(1 0 0 -1 0 520.22)">
	<stop  offset="0" style="stop-color:#808080;stop-opacity:0.25"/>
	<stop  offset="0.54" style="stop-color:#808080;stop-opacity:0.12"/>
	<stop  offset="1" style="stop-color:#808080;stop-opacity:0.1"/>
</linearGradient>
<circle class="st5" cx="415.5" cy="234.5" r="25.2"/>
<linearGradient id="SVGID_5_" gradientUnits="userSpaceOnUse" x1="212.53" y1="192.51" x2="212.53" y2="242.99" gradientTransform="matrix(1 0 0 -1 0 520.22)">
	<stop  offset="0" style="stop-color:#808080;stop-opacity:0.25"/>
	<stop  offset="0.54" style="stop-color:#808080;stop-opacity:0.12"/>
	<stop  offset="1" style="stop-color:#808080;stop-opacity:0.1"/>
</linearGradient>
<circle class="st6" cx="212.5" cy="302.5" r="25.2"/>
<linearGradient id="SVGID_6_" gradientUnits="userSpaceOnUse" x1="81.53" y1="124.51" x2="81.53" y2="174.99" gradientTransform="matrix(1 0 0 -1 0 520.22)">
	<stop  offset="0" style="stop-color:#808080;stop-opacity:0.25"/>
	<stop  offset="0.54" style="stop-color:#808080;stop-opacity:0.12"/>
	<stop  offset="1" style="stop-color:#808080;stop-opacity:0.1"/>
</linearGradient>
<circle class="st7" cx="81.5" cy="370.5" r="25.2"/>
<linearGradient id="SVGID_7_" gradientUnits="userSpaceOnUse" x1="346.53" y1="56.51" x2="346.53" y2="106.99" gradientTransform="matrix(1 0 0 -1 0 520.22)">
	<stop  offset="0" style="stop-color:#808080;stop-opacity:0.25"/>
	<stop  offset="0.54" style="stop-color:#808080;stop-opacity:0.12"/>
	<stop  offset="1" style="stop-color:#808080;stop-opacity:0.1"/>
</linearGradient>
<circle class="st8" cx="346.5" cy="438.5" r="25.2"/>
<ellipse transform="matrix(0.1602 -0.9871 0.9871 0.1602 125.1058 341.9842)" class="st9" cx="263.5" cy="97.5" rx="19.2" ry="19.2"/>
<rect x="45.9" y="158.3" class="st2" width="436.4" height="14.9"/>
<circle class="st9" cx="129.1" cy="165.8" r="19.2"/>
<rect x="45.9" y="226.6" class="st2" width="436.4" height="14.9"/>
<circle class="st10" cx="415" cy="234" r="19.2"/>
<rect x="45.9" y="294.8" class="st2" width="436.4" height="14.9"/>
<circle class="st10" cx="212.3" cy="302.3" r="19.2"/>
<rect x="45.9" y="363.1" class="st2" width="436.4" height="14.9"/>
<ellipse transform="matrix(3.327795e-02 -0.9994 0.9994 3.327795e-02 -292.0132 439.3219)" class="st9" cx="81.1" cy="370.6" rx="19.2" ry="19.2"/>
<rect x="45.9" y="431.4" class="st2" width="436.4" height="14.9"/>
<circle class="st10" cx="346.8" cy="438.9" r="19.2"/>
<linearGradient id="SVGID_8_" gradientUnits="userSpaceOnUse" x1="577.21" y1="200.06" x2="577.21" y2="246.4" gradientTransform="matrix(1 0 0 -1 0 520.22)">
	<stop  offset="0" style="stop-color:#808080;stop-opacity:0.25"/>
	<stop  offset="0.54" style="stop-color:#808080;stop-opacity:0.12"/>
	<stop  offset="1" style="stop-color:#808080;stop-opacity:0.1"/>
</linearGradient>
<rect x="543.1" y="273.8" class="st11" width="68.3" height="46.3"/>
<linearGradient id="SVGID_9_" gradientUnits="userSpaceOnUse" x1="668.97" y1="200.06" x2="668.97" y2="246.4" gradientTransform="matrix(1 0 0 -1 0 520.22)">
	<stop  offset="0" style="stop-color:#808080;stop-opacity:0.25"/>
	<stop  offset="0.54" style="stop-color:#808080;stop-opacity:0.12"/>
	<stop  offset="1" style="stop-color:#808080;stop-opacity:0.1"/>
</linearGradient>
<rect x="634.8" y="273.8" class="st12" width="68.3" height="46.3"/>
<linearGradient id="SVGID_10_" gradientUnits="userSpaceOnUse" x1="760.73" y1="200.06" x2="760.73" y2="246.4" gradientTransform="matrix(1 0 0 -1 0 520.22)">
	<stop  offset="0" style="stop-color:#808080;stop-opacity:0.25"/>
	<stop  offset="0.54" style="stop-color:#808080;stop-opacity:0.12"/>
	<stop  offset="1" style="stop-color:#808080;stop-opacity:0.1"/>
</linearGradient>
<rect x="726.6" y="273.8" class="st13" width="68.3" height="46.3"/>
<linearGradient id="SVGID_11_" gradientUnits="userSpaceOnUse" x1="577.21" y1="129.64" x2="577.21" y2="175.98" gradientTransform="matrix(1 0 0 -1 0 520.22)">
	<stop  offset="0" style="stop-color:#808080;stop-opacity:0.25"/>
	<stop  offset="0.54" style="stop-color:#808080;stop-opacity:0.12"/>
	<stop  offset="1" style="stop-color:#808080;stop-opacity:0.1"/>
</linearGradient>
<rect x="543.1" y="344.2" class="st14" width="68.3" height="46.3"/>
<linearGradient id="SVGID_12_" gradientUnits="userSpaceOnUse" x1="668.97" y1="129.64" x2="668.97" y2="175.98" gradientTransform="matrix(1 0 0 -1 0 520.22)">
	<stop  offset="0" style="stop-color:#808080;stop-opacity:0.25"/>
	<stop  offset="0.54" style="stop-color:#808080;stop-opacity:0.12"/>
	<stop  offset="1" style="stop-color:#808080;stop-opacity:0.1"/>
</linearGradient>
<rect x="634.8" y="344.2" class="st15" width="68.3" height="46.3"/>
<linearGradient id="SVGID_13_" gradientUnits="userSpaceOnUse" x1="760.73" y1="129.64" x2="760.73" y2="175.98" gradientTransform="matrix(1 0 0 -1 0 520.22)">
	<stop  offset="0" style="stop-color:#808080;stop-opacity:0.25"/>
	<stop  offset="0.54" style="stop-color:#808080;stop-opacity:0.12"/>
	<stop  offset="1" style="stop-color:#808080;stop-opacity:0.1"/>
</linearGradient>
<rect x="726.6" y="344.2" class="st16" width="68.3" height="46.3"/>
<linearGradient id="SVGID_14_" gradientUnits="userSpaceOnUse" x1="577.21" y1="59.23" x2="577.21" y2="105.57" gradientTransform="matrix(1 0 0 -1 0 520.22)">
	<stop  offset="0" style="stop-color:#808080;stop-opacity:0.25"/>
	<stop  offset="0.54" style="stop-color:#808080;stop-opacity:0.12"/>
	<stop  offset="1" style="stop-color:#808080;stop-opacity:0.1"/>
</linearGradient>
<rect x="543.1" y="414.6" class="st17" width="68.3" height="46.3"/>
<linearGradient id="SVGID_15_" gradientUnits="userSpaceOnUse" x1="668.97" y1="59.23" x2="668.97" y2="105.57" gradientTransform="matrix(1 0 0 -1 0 520.22)">
	<stop  offset="0" style="stop-color:#808080;stop-opacity:0.25"/>
	<stop  offset="0.54" style="stop-color:#808080;stop-opacity:0.12"/>
	<stop  offset="1" style="stop-color:#808080;stop-opacity:0.1"/>
</linearGradient>
<rect x="634.8" y="414.6" class="st18" width="68.3" height="46.3"/>
<linearGradient id="SVGID_16_" gradientUnits="userSpaceOnUse" x1="760.73" y1="59.23" x2="760.73" y2="105.57" gradientTransform="matrix(1 0 0 -1 0 520.22)">
	<stop  offset="0" style="stop-color:#808080;stop-opacity:0.25"/>
	<stop  offset="0.54" style="stop-color:#808080;stop-opacity:0.12"/>
	<stop  offset="1" style="stop-color:#808080;stop-opacity:0.1"/>
</linearGradient>
<rect x="726.6" y="414.6" class="st19" width="68.3" height="46.3"/>
<rect x="547.3" y="276.7" class="st10" width="59.8" height="40.5"/>
<rect x="639.1" y="276.7" class="st10" width="59.8" height="40.5"/>
<rect x="730.8" y="276.7" class="st9" width="59.8" height="40.5"/>
<rect x="547.3" y="347.1" class="st10" width="59.8" height="40.5"/>
<rect x="639.1" y="347.1" class="st10" width="59.8" height="40.5"/>
<rect x="730.8" y="347.1" class="st9" width="59.8" height="40.5"/>
<rect x="547.3" y="417.5" class="st10" width="59.8" height="40.5"/>
<rect x="639.1" y="417.5" class="st9" width="59.8" height="40.5"/>
<rect x="730.8" y="417.5" class="st20" width="59.8" height="40.5"/>
<linearGradient id="SVGID_17_" gradientUnits="userSpaceOnUse" x1="617.47" y1="387.07" x2="617.47" y2="465.35" gradientTransform="matrix(1 0 0 -1 0 520.22)">
	<stop  offset="0" style="stop-color:#808080;stop-opacity:0.25"/>
	<stop  offset="0.54" style="stop-color:#808080;stop-opacity:0.12"/>
	<stop  offset="1" style="stop-color:#808080;stop-opacity:0.1"/>
</linearGradient>
<circle class="st21" cx="617.5" cy="94" r="39.1"/>
<circle class="st1" cx="617.5" cy="94" r="36.7"/>
<circle class="st22" cx="617.5" cy="94" r="2.5"/>
<line class="st23" x1="617.5" y1="94" x2="639.5" y2="72"/>
<path class="st24" d="M623.8,93c0,12.3,6.2,23.8,16.4,30.6c16.1-12.3,19.1-35.3,6.8-51.4c-2.5-3.2-5.5-6-8.9-8.3
	C629.1,70.8,623.8,81.6,623.8,93z"/>
<linearGradient id="SVGID_18_" gradientUnits="userSpaceOnUse" x1="720.47" y1="387.07" x2="720.47" y2="465.35" gradientTransform="matrix(1 0 0 -1 0 520.22)">
	<stop  offset="0" style="stop-color:#808080;stop-opacity:0.25"/>
	<stop  offset="0.54" style="stop-color:#808080;stop-opacity:0.12"/>
	<stop  offset="1" style="stop-color:#808080;stop-opacity:0.1"/>
</linearGradient>
<circle class="st25" cx="720.5" cy="94" r="39.1"/>
<circle class="st1" cx="720.5" cy="94" r="36.7"/>
<circle class="st22" cx="720.5" cy="94" r="2.5"/>
<line class="st23" x1="720.5" y1="94" x2="742.5" y2="72"/>
<path class="st24" d="M726.8,93c0,12.3,6.2,23.8,16.4,30.6c16.1-12.3,19.1-35.3,6.8-51.4c-2.5-3.2-5.5-6-8.9-8.3
	C732.1,70.8,726.8,81.6,726.8,93z"/>
<linearGradient id="SVGID_19_" gradientUnits="userSpaceOnUse" x1="617.47" y1="295.07" x2="617.47" y2="373.35" gradientTransform="matrix(1 0 0 -1 0 520.22)">
	<stop  offset="0" style="stop-color:#808080;stop-opacity:0.25"/>
	<stop  offset="0.54" style="stop-color:#808080;stop-opacity:0.12"/>
	<stop  offset="1" style="stop-color:#808080;stop-opacity:0.1"/>
</linearGradient>
<circle class="st26" cx="617.5" cy="186" r="39.1"/>
<circle class="st1" cx="617.5" cy="186" r="36.7"/>
<circle class="st22" cx="617.5" cy="186" r="2.5"/>
<line class="st23" x1="617.5" y1="186" x2="594.1" y2="209.4"/>
<path class="st24" d="M623.8,185c0,12.3,6.2,23.8,16.4,30.6c16.1-12.3,19.1-35.3,6.8-51.4c-2.5-3.2-5.5-6-8.9-8.3
	C629.1,162.8,623.8,173.6,623.8,185z"/>
<linearGradient id="SVGID_20_" gradientUnits="userSpaceOnUse" x1="720.47" y1="295.07" x2="720.47" y2="373.35" gradientTransform="matrix(1 0 0 -1 0 520.22)">
	<stop  offset="0" style="stop-color:#808080;stop-opacity:0.25"/>
	<stop  offset="0.54" style="stop-color:#808080;stop-opacity:0.12"/>
	<stop  offset="1" style="stop-color:#808080;stop-opacity:0.1"/>
</linearGradient>
<circle class="st27" cx="720.5" cy="186" r="39.1"/>
<circle class="st1" cx="720.5" cy="186" r="36.7"/>
<circle class="st22" cx="720.5" cy="186" r="2.5"/>
<line class="st23" x1="720.5" y1="186" x2="742.5" y2="164"/>
<path class="st24" d="M726.8,185c0,12.3,6.2,23.8,16.4,30.6c16.1-12.3,19.1-35.3,6.8-51.4c-2.5-3.2-5.5-6-8.9-8.3
	C732.1,162.8,726.8,173.6,726.8,185z"/>
</svg>
