<svg width="148" height="81" viewBox="0 0 148 81" fill="none" xmlns="http://www.w3.org/2000/svg">
<path d="M132.458 15.5415V48.3353C132.458 54.5905 127.307 59.6498 120.96 59.6498H85.2685C81.0371 59.6498 77.0816 61.1677 73.954 63.9733C70.8264 61.1677 66.8709 59.6498 62.6395 59.6498H26.9481C20.6469 59.6498 15.5415 54.5905 15.5415 48.3353V15.5415H132.458ZM75.8398 67.1009C78.3694 64.5712 81.727 63.1914 85.2685 63.1914H120.96C129.239 63.1914 136 56.5223 136 48.3353V12H12V48.3353C12 56.5223 18.7151 63.1914 26.9481 63.1914H62.7315C66.273 63.1914 69.6306 64.5712 72.1602 67.1009L74 68.9406L75.8398 67.1009Z" fill="black"/>
<path d="M118.982 30.4435C118.982 31.5473 118.108 32.3292 117.004 32.3292C115.9 32.3292 115.026 31.5473 115.026 30.4435C115.026 29.3396 115.9 28.5577 117.004 28.5577C118.108 28.5577 118.982 29.3396 118.982 30.4435ZM115.302 45.8975H118.706V33.801H115.302V45.8975ZM108.725 38.6304L113.186 45.9435H109.507L106.517 41.0681L104.907 43.0918V45.8975H101.504V28.5117H104.907V36.5607C104.907 38.0325 104.723 39.5503 104.723 39.5503H104.815C104.815 39.5503 105.597 38.2165 106.287 37.2966L108.863 33.847H112.818L108.725 38.6304ZM98.0543 38.1705C98.0543 35.1809 96.5825 33.5251 94.2368 33.5251C92.259 33.5251 91.2012 34.7209 90.6033 35.8248H90.5113L90.6953 33.847H87.2917V45.9435H90.6953V38.7224C90.6953 37.3426 91.5231 36.3767 92.765 36.3767C94.0528 36.3767 94.6047 37.2046 94.6047 38.8144V45.8975H98.0083V38.1705H98.0543ZM84.0261 30.4435C84.0261 31.5473 83.1522 32.3292 82.0484 32.3292C80.9445 32.3292 80.0706 31.5473 80.0706 30.4435C80.0706 29.3396 80.9445 28.5577 82.0484 28.5577C83.1982 28.5577 84.0261 29.3396 84.0261 30.4435ZM80.3466 45.8975H83.7501V33.801H80.3466V45.8975ZM74.1834 42.5399C74.1834 41.574 72.8495 41.3441 71.2857 40.9301C69.446 40.4702 67.1923 39.5503 67.1923 37.2506C67.1923 34.9509 69.4 33.5251 71.9757 33.5251C74.3673 33.5251 76.5751 34.6749 77.5409 36.2847L74.6433 37.9405C74.3673 36.8366 73.4475 36.0087 72.1136 36.0087C71.2398 36.0087 70.5498 36.3767 70.5498 37.1126C70.5498 38.0325 72.1136 38.1245 73.9534 38.6764C75.8392 39.2743 77.5869 40.1482 77.5869 42.3559C77.5869 44.7936 75.3332 46.2194 72.7116 46.2194C69.8599 46.2194 67.6522 45.0236 66.6403 43.0918L69.584 41.436C69.9519 42.7699 71.0098 43.7358 72.6196 43.7358C73.5395 43.7358 74.1834 43.3218 74.1834 42.5399ZM63.0068 28.6497H59.6033V42.5859C59.6033 43.8277 59.8792 44.7476 60.4311 45.2996C60.9831 45.8515 61.811 46.1734 63.0068 46.1734C63.4208 46.1734 63.8347 46.1274 64.2487 46.0355C64.6626 45.9435 64.9846 45.8055 65.2605 45.6675L65.5365 43.3678C65.2605 43.4598 65.0306 43.5518 64.8466 43.5518C64.6626 43.5978 64.4326 43.5978 64.1567 43.5978C63.6967 43.5978 63.5127 43.5058 63.3288 43.2758C63.1448 43.0458 63.0988 42.6319 63.0988 42.08V28.6497H63.0068ZM51.4163 35.9628C50.1745 35.9628 49.1626 36.8366 48.8866 38.4924H53.67C53.67 37.0666 52.7501 35.9628 51.4163 35.9628ZM56.6596 40.7921H48.7946C48.9326 42.7699 50.0365 43.7358 51.4623 43.7358C52.7501 43.7358 53.624 42.9079 53.808 41.758L56.6596 43.3678C55.8317 44.8856 53.992 46.2654 51.4623 46.2654C48.0587 46.2654 45.5751 43.9197 45.5751 39.9182C45.5751 35.9628 48.1047 33.5711 51.3703 33.5711C54.6359 33.5711 56.7976 35.8708 56.7976 39.1823C56.7976 40.1022 56.6596 40.7921 56.6596 40.7921ZM39.4119 45.8975H42.9534V29.2936H39.4119V35.8708H32.7427V29.2936H29.2012V45.9435H32.7427V39.0444H39.3659V45.8975H39.4119Z" fill="black"/>
</svg>
