<?xml version="1.0" encoding="UTF-8"?>
<svg width="150px" height="111px" viewBox="0 0 150 111" version="1.1" xmlns="http://www.w3.org/2000/svg" xmlns:xlink="http://www.w3.org/1999/xlink">
    <!-- Generator: Sketch 54.1 (76490) - https://sketchapp.com -->
    <title>Artboard</title>
    <desc>Created with Sketch.</desc>
    <g id="Artboard" stroke="none" stroke-width="1" fill="none" fill-rule="evenodd">
        <path d="M7.3094959,30.2520427 C5.23328387,30.2520427 3.67614822,29.666463 2.6380422,28.495286 C1.59993619,27.324109 1.08089097,25.7171692 1.08089097,23.6744186 L1.08089097,9.33438089 L4.47831184,9.33438089 L4.47831184,22.9390321 C4.47831184,25.7444096 5.73210938,27.1470773 8.23974209,27.1470773 C9.31829379,27.1470773 10.3159391,26.7657696 11.2327081,26.0031427 C12.149477,25.2405158 12.8774885,24.137447 13.4167644,22.6939032 C13.9560402,21.2503594 14.2256741,19.5617109 14.2256741,17.627907 L14.2256741,9.33438089 L17.623095,9.33438089 L17.623095,29.9252043 L14.2256741,29.9252043 L14.2256741,26.1257071 C13.4706879,27.3513575 12.4797834,28.3454812 11.2529308,29.1081081 C10.0260783,29.870735 8.71161311,30.2520427 7.3094959,30.2520427 Z M25.6313013,9.33438089 L29.0287222,9.33438089 L29.0287222,13.1338781 C29.8376359,11.8537543 30.8824672,10.8460125 32.1632474,10.1106223 C33.4440275,9.37523202 34.9067913,9.00754243 36.5515826,9.00754243 C38.5738671,9.00754243 40.1714478,9.59993122 41.3443728,10.7847266 C42.5172978,11.969522 43.1576782,13.6649795 43.2655334,15.8711502 L39.8681125,15.8711502 C39.5715108,13.3653761 38.2637865,12.1125079 35.9449004,12.1125079 C34.7045659,12.1125079 33.5586219,12.5006247 32.507034,13.2768699 C31.4554461,14.0531151 30.6128402,15.2242746 29.9791911,16.7903834 C29.345542,18.3564922 29.0287222,20.2562218 29.0287222,22.4896292 L29.0287222,29.9252043 L25.6313013,29.9252043 L25.6313013,9.33438089 Z M60.6570926,30.2520427 C59.3358668,30.2520427 58.1225143,29.9592529 57.0169988,29.3736644 C55.9114833,28.7880758 55.0486549,28.0595057 54.4284877,27.1879321 L54.4284877,29.9252043 L51.0310668,29.9252043 L51.0310668,1 L54.4284877,1 L54.4284877,11.9490886 C55.0486549,11.1047517 55.9047425,10.4034178 56.9967761,9.845066 C58.0888097,9.28671416 59.308903,9.00754243 60.6570926,9.00754243 C63.596146,9.00754243 65.888034,9.97442989 67.5328253,11.9082338 C69.1776167,13.8420377 70,16.4158649 70,19.6297926 C70,22.8437202 69.1776167,25.4175474 67.5328253,27.3513514 C65.888034,29.2851553 63.596146,30.2520427 60.6570926,30.2520427 Z M60.3335287,27.1470773 C62.247958,27.1470773 63.7579077,26.4525525 64.8634232,25.0634821 C65.9689387,23.6744117 66.5216882,21.8631999 66.5216882,19.6297926 C66.5216882,17.3963852 65.9689387,15.5851735 64.8634232,14.1961031 C63.7579077,12.8070327 62.247958,12.1125079 60.3335287,12.1125079 C58.4190995,12.1125079 56.9091497,12.8070327 55.8036342,14.1961031 C54.6981187,15.5851735 54.1453693,17.3963852 54.1453693,19.6297926 C54.1453693,21.8631999 54.6981187,23.6744117 55.8036342,25.0634821 C56.9091497,26.4525525 58.4190995,27.1470773 60.3335287,27.1470773 Z M7.3094959,66 C5.5029218,66 3.99971292,65.4620837 2.79982415,64.3862351 C1.59993538,63.3103864 1,61.7647283 1,59.7492143 C1,57.515807 1.81564249,55.8339675 3.44695193,54.7036455 C5.07826138,53.5733235 7.33644513,53.008171 10.2215709,53.008171 L14.3470106,53.008171 L14.3470106,52.1093652 C14.3470106,50.6113481 13.9088555,49.5287065 13.0325322,48.8614079 C12.156209,48.1941094 11.0304875,47.8604651 9.65533411,47.8604651 C8.49589104,47.8604651 7.48476399,48.1873003 6.62192263,48.8409805 C5.75908127,49.4946607 5.16588673,50.338985 4.84232122,51.3739786 L1.84935522,50.5568825 C2.30773969,48.7864986 3.25145827,47.3770218 4.68053927,46.3284098 C6.10962028,45.2797978 7.76786864,44.7554997 9.65533411,44.7554997 C12.1629668,44.7554997 14.138035,45.3955519 15.5805979,46.6756757 C17.0231608,47.9557994 17.7444314,49.957665 17.7444314,52.6813325 L17.7444314,65.6731615 L14.9941383,65.6731615 L14.5087925,62.7724701 C13.8616615,63.7257538 12.8774978,64.5019874 11.556272,65.1011942 C10.2350461,65.7004011 8.81946828,66 7.3094959,66 Z M7.83528722,62.8950346 C8.80598375,62.8950346 9.79014742,62.6771444 10.7878077,62.2413576 C11.7854681,61.8055708 12.6280739,61.1178551 13.3156506,60.1781898 C14.0032274,59.2385245 14.3470106,58.0469379 14.3470106,56.6033941 L14.3470106,55.9497172 L9.89800703,55.9497172 C8.17232431,55.9497172 6.83763661,56.2901705 5.89390387,56.9710874 C4.95017113,57.6520042 4.47831184,58.5780373 4.47831184,59.7492143 C4.47831184,60.7297346 4.78164996,61.4991592 5.38833529,62.057511 C5.99502062,62.6158628 6.81066311,62.8950346 7.83528722,62.8950346 Z M26.1975381,45.0823382 L29.594959,45.0823382 L29.594959,48.8818353 C30.3499452,47.6561849 31.3408497,46.6620612 32.5677022,45.8994343 C33.7945548,45.1368074 35.10902,44.7554997 36.5111372,44.7554997 C38.5873492,44.7554997 40.1444848,45.3410794 41.1825909,46.5122564 C42.2206969,47.6834335 42.7397421,49.2903732 42.7397421,51.3331238 L42.7397421,65.6731615 L39.3423212,65.6731615 L39.3423212,52.0685104 C39.3423212,49.2631328 38.0885237,47.8604651 35.580891,47.8604651 C34.5023393,47.8604651 33.5046939,48.2417728 32.587925,49.0043997 C31.671156,49.7670266 30.9431445,50.8700954 30.4038687,52.3136392 C29.8645928,53.757183 29.594959,55.4458315 29.594959,57.3796354 L29.594959,65.6731615 L26.1975381,65.6731615 L26.1975381,45.0823382 Z" id="urban" fill="#000000" fill-rule="nonzero"></path>
        <path d="M88.8081395,66.2445003 C86.8546414,66.2445003 85.1385733,65.7814838 83.6598837,64.8554368 C82.1811942,63.9293899 81.0348878,62.6560944 80.2209302,61.0355123 C79.4069727,59.4149301 79,57.6105274 79,55.6222502 C79,53.6612096 79.3934069,51.8772341 80.1802326,50.2702703 C80.9670582,48.6633064 82.1065817,47.3832019 83.5988372,46.4299183 C85.0910927,45.4766347 86.8275095,45 88.8081395,45 C90.8430334,45 92.5930159,45.4425893 94.0581395,46.3277813 C95.5232631,47.2129732 96.6356551,48.4113689 97.3953488,49.9230044 C98.1550426,51.4346399 98.5348837,53.1028612 98.5348837,54.9277184 L98.5348837,56.3576367 L82.5,56.3576367 C82.6085277,58.4003873 83.2325524,60.0413724 84.372093,61.2806411 C85.5116336,62.5199098 86.990301,63.1395349 88.8081395,63.1395349 C91.7383867,63.1395349 93.9360392,61.7777216 95.4011628,59.0540541 L98.127907,60.4839723 C97.0697622,62.5539596 95.7606667,64.0315271 94.2005814,64.916719 C92.6404961,65.801911 90.8430334,66.2445003 88.8081395,66.2445003 Z M94.9127907,53.2526713 C94.6143396,51.6184708 93.9360518,50.3519844 92.877907,49.4531741 C91.8197622,48.5543638 90.4631866,48.1049654 88.8081395,48.1049654 C87.2073563,48.1049654 85.8846951,48.5611729 84.8401163,49.4736015 C83.7955374,50.3860301 83.096901,51.6457074 82.744186,53.2526713 L94.9127907,53.2526713 Z M120.104651,63.3029541 C119.480617,64.147291 118.619192,64.8486249 117.520349,65.4069767 C116.421506,65.9653286 115.193805,66.2445003 113.837209,66.2445003 C110.87983,66.2445003 108.573652,65.2776129 106.918605,63.3438089 C105.263558,61.410005 104.436047,58.8361778 104.436047,55.6222502 C104.436047,52.4083225 105.263558,49.8344953 106.918605,47.9006914 C108.573652,45.9668875 110.87983,45 113.837209,45 C115.166673,45 116.387591,45.2927899 117.5,45.8783784 C118.612409,46.4639669 119.480617,47.192537 120.104651,48.0641106 L120.104651,45.3268385 L123.523256,45.3268385 L123.523256,74.2520427 L120.104651,74.2520427 L120.104651,63.3029541 Z M114.162791,63.1395349 C116.089157,63.1395349 117.608522,62.4450101 118.72093,61.0559397 C119.833339,59.6668692 120.389535,57.8556575 120.389535,55.6222502 C120.389535,53.3888428 119.833339,51.5776311 118.72093,50.1885607 C117.608522,48.7994902 116.089157,48.1049654 114.162791,48.1049654 C112.236424,48.1049654 110.71706,48.7994902 109.604651,50.1885607 C108.492243,51.5776311 107.936047,53.3888428 107.936047,55.6222502 C107.936047,57.8556575 108.492243,59.6668692 109.604651,61.0559397 C110.71706,62.4450101 112.236424,63.1395349 114.162791,63.1395349 Z M137.156977,66.2445003 C135.067819,66.2445003 133.500974,65.6589206 132.456395,64.4877436 C131.411816,63.3165665 130.889535,61.7096268 130.889535,59.6668762 L130.889535,45.3268385 L134.30814,45.3268385 L134.30814,58.9314896 C134.30814,61.7368672 135.569755,63.1395349 138.093023,63.1395349 C139.1783,63.1395349 140.182166,62.7582272 141.104651,61.9956003 C142.027136,61.2329734 142.759687,60.1299046 143.302326,58.6863608 C143.844964,57.242817 144.116279,55.5541685 144.116279,53.6203646 L144.116279,45.3268385 L147.534884,45.3268385 L147.534884,65.9176618 L144.116279,65.9176618 L144.116279,62.1181647 C143.356585,63.3438151 142.359502,64.3379388 141.125,65.1005657 C139.890498,65.8631926 138.567837,66.2445003 137.156977,66.2445003 Z M88.2790698,78.3783784 C87.4922441,78.3783784 86.8275221,78.1060157 86.2848837,77.5612822 C85.7422453,77.0165487 85.4709302,76.3628783 85.4709302,75.6002514 C85.4709302,74.8103878 85.7422453,74.1362902 86.2848837,73.5779384 C86.8275221,73.0195866 87.4922441,72.7404148 88.2790698,72.7404148 C89.0658954,72.7404148 89.7306174,73.0195866 90.2732558,73.5779384 C90.8158942,74.1362902 91.0872093,74.8103878 91.0872093,75.6002514 C91.0872093,76.390115 90.8158942,77.0505945 90.2732558,77.5817096 C89.7306174,78.1128248 89.0658954,78.3783784 88.2790698,78.3783784 Z M79.7325581,98.6423633 L86.8139535,98.6423633 L86.8139535,84.0980515 L80.5465116,84.0980515 L80.5465116,81.0747957 L90.2325581,81.0747957 L90.2325581,98.6423633 L97.8023256,98.6423633 L97.8023256,101.665619 L79.7325581,101.665619 L79.7325581,98.6423633 Z M105.697674,81.0747957 L109.116279,81.0747957 L109.116279,83.8120679 C109.740313,82.9404943 110.608522,82.2119242 111.72093,81.6263356 C112.833339,81.0407471 114.054257,80.7479573 115.383721,80.7479573 C118.3411,80.7479573 120.647279,81.7148447 122.302326,83.6486486 C123.957373,85.5824526 124.784884,88.1562798 124.784884,91.3702074 C124.784884,94.5841351 123.957373,97.1579623 122.302326,99.0917662 C120.647279,101.02557 118.3411,101.992458 115.383721,101.992458 C114.027125,101.992458 112.799424,101.713286 111.700581,101.154934 C110.601739,100.596582 109.740313,99.8952483 109.116279,99.0509114 L109.116279,110 L105.697674,110 L105.697674,81.0747957 Z M115.05814,98.8874921 C116.984506,98.8874921 118.50387,98.1929673 119.616279,96.8038969 C120.728688,95.4148265 121.284884,93.6036148 121.284884,91.3702074 C121.284884,89.1368001 120.728688,87.3255883 119.616279,85.9365179 C118.50387,84.5474475 116.984506,83.8529227 115.05814,83.8529227 C113.131773,83.8529227 111.612409,84.5474475 110.5,85.9365179 C109.387591,87.3255883 108.831395,89.1368001 108.831395,91.3702074 C108.831395,93.6036148 109.387591,95.4148265 110.5,96.8038969 C111.612409,98.1929673 113.131773,98.8874921 115.05814,98.8874921 Z M139.273256,101.992458 C137.319758,101.992458 135.60369,101.529441 134.125,100.603394 C132.64631,99.6773471 131.500004,98.4040517 130.686047,96.7834695 C129.872089,95.1628874 129.465116,93.3584847 129.465116,91.3702074 C129.465116,89.4091668 129.858523,87.6251914 130.645349,86.0182275 C131.432174,84.4112637 132.571698,83.1311592 134.063953,82.1778755 C135.556209,81.2245919 137.292626,80.7479573 139.273256,80.7479573 C141.30815,80.7479573 143.058132,81.1905466 144.523256,82.0757385 C145.988379,82.9609305 147.100771,84.1593262 147.860465,85.6709617 C148.620159,87.1825971 149,88.8508184 149,90.6756757 L149,92.105594 L132.965116,92.105594 C133.073644,94.1483446 133.697669,95.7893297 134.837209,97.0285984 C135.97675,98.2678671 137.455417,98.8874921 139.273256,98.8874921 C142.203503,98.8874921 144.401155,97.5256788 145.866279,94.8020113 L148.593023,96.2319296 C147.534878,98.3019169 146.225783,99.7794844 144.665698,100.664676 C143.105612,101.549868 141.30815,101.992458 139.273256,101.992458 Z M145.377907,89.0006285 C145.079456,87.366428 144.401168,86.0999416 143.343023,85.2011314 C142.284878,84.3023211 140.928303,83.8529227 139.273256,83.8529227 C137.672473,83.8529227 136.349811,84.3091302 135.305233,85.2215588 C134.260654,86.1339874 133.562017,87.3936647 133.209302,89.0006285 L145.377907,89.0006285 Z" id="equipe" fill="#000000" fill-rule="nonzero"></path>
    </g>
</svg>