<svg id="Capa_1" data-name="Capa 1" xmlns="http://www.w3.org/2000/svg" viewBox="0 0 4216.69 1080"><path d="M270,270H474.87c124.5,0,186,58.64,186,147.67,0,54.65-25.33,102.43-86.86,121.61v1.81c65.51,17,94.1,64.06,94.1,117.63,0,91.21-59.36,151.29-181,151.29H270ZM485,505.26c68,0,94.83-37.64,94.83-84.69s-25.34-82.52-99.9-82.52H352.53V505.26Zm.73,236.7c70.93,0,99.89-36.19,99.89-84.69s-31.13-84-100.62-84H352.53V742Z"/><path d="M695.65,702.15C695.65,630.49,746,598.28,824.5,582l73.11-15.2c32.58-6.88,42.71-18.82,42.71-39.81,0-36.2-28.23-55.74-72.38-55.74-52.48,0-109.31,27.87-151.29,64.06h-2.17V458.21c33.29-29.32,91.2-53.57,155.63-53.57,84.69,0,149.84,39.82,149.84,129.57V810H940.32V753.55h-1.45c-28.59,50.31-75.64,63.7-118,63.7C740.53,817.25,695.65,770.2,695.65,702.15Zm244.67-56.46V604.43h-1.45c-8.32,10.86-25,18.46-47,22.8l-54.29,11.22C791.93,647.86,776,671,776,700.7c0,34.75,21.72,56.47,63.34,56.47C900.51,757.17,940.32,710.12,940.32,645.69Z"/><path d="M1069.18,411.88h79.62v64.06h1.45c26.42-55,65.87-71.3,104.24-71.3a123,123,0,0,1,44.88,8.33v76.36h-2.9c-14.84-6.87-31.12-10.49-50-10.49-57.54,0-97.72,34-97.72,123.42V810h-79.62Z"/><path d="M1297.92,610.94c0-123.78,78.9-206.3,195.45-206.3,44.88,0,100.61,14.48,128.12,45.61v75.28h-2.89c-23.17-28.23-64.43-55-118.72-55-79.62,0-119.44,57.91-119.44,140.43s39.82,140.44,119.44,140.44c54.29,0,95.55-26.79,118.72-55h2.89v75.28c-27.51,31.13-83.24,45.61-128.12,45.61C1376.82,817.25,1297.92,734.73,1297.92,610.94Z"/><path d="M1643.21,610.22c0-123.06,72.39-205.58,188.93-205.58,117.27,0,181.69,79.63,181.69,195.45v35.47H1726.46c5.06,76.73,43.79,115.09,120.16,115.09,67.32,0,117.27-25.33,140.43-54.29h2.9v75.28c-27.51,31.13-91.93,45.61-143.33,45.61C1717.77,817.25,1643.21,734,1643.21,610.22Zm295.34-34c-3.62-71.3-39.09-107.13-106.41-107.13-66.23,0-102.06,35.83-106,107.13Z"/><path d="M2051.48,270h79.63V810h-79.63Z"/><path d="M2171.65,610.22c0-123.06,81.43-205.58,198-205.58s198,82.52,198,205.58c0,123.78-81.43,207-198,207S2171.65,734,2171.65,610.22Zm313.43,0c0-89-42.34-141.15-115.46-141.15s-115.45,52.11-115.45,141.15c0,90.48,42.34,142.6,115.45,142.6S2485.08,700.7,2485.08,610.22Z"/><path d="M2608.15,411.88h79.62v56.46h1.45c27.87-47,74.92-63.7,123.06-63.7,86.14,0,152.73,53.21,152.73,166.49V810h-79.62V580.18c0-70.22-37.28-111.11-95.91-111.11-61.17,0-101.71,44.88-101.71,115.45V810h-79.62Z"/><path d="M2999.77,702.15c0-71.66,50.3-103.87,128.84-120.16l73.12-15.2c32.57-6.88,42.7-18.82,42.7-39.81,0-36.2-28.23-55.74-72.38-55.74-52.48,0-109.31,27.87-151.29,64.06h-2.17V458.21c33.29-29.32,91.2-53.57,155.63-53.57,84.69,0,149.84,39.82,149.84,129.57V810h-79.63V753.55H3243c-28.6,50.31-75.65,63.7-118,63.7C3044.65,817.25,2999.77,770.2,2999.77,702.15Zm244.66-56.46V604.43H3243c-8.33,10.86-25,18.46-47.06,22.8l-54.29,11.22c-45.6,9.41-61.53,32.58-61.53,62.25,0,34.75,21.72,56.47,63.34,56.47C3204.62,757.17,3244.43,710.12,3244.43,645.69Z"/><g id="Rodo"><path d="M3711.26,203.55c-4,1.3-6.85,5.09-8,10,3.87,3.23,8.3,4.67,12.41,3.32s6.77-5.06,8-9.9h0c-.86,4.86.18,9.48,3.33,12.35s7.79,3.37,12.6,2c.91-5-.14-9.59-3.31-12.49s-7.73-3.29-12.56-1.88c4.8-1.8,8.11-5,9-9.08s-.89-8.41-4.54-12c-4.76,1.72-8.2,4.9-9.11,9s1,8.44,4.56,12c-3.8-3.29-8.3-4.67-12.32-3.35m68.11,10.75c1.74-3.91.8-8.47-2.07-12.66-5,.73-9,3.1-10.72,7s-.86,8.41,2.05,12.66c5-.68,9-3.12,10.74-7m-10.74,7c-3.06-4-7.22-6.33-11.44-5.88s-7.69,3.52-9.92,8.07c3.12,4,7.17,6.16,11.37,5.8s7.79-3.46,10-8m-92,582.81L3412.56,539.93l264.05-264.16L3940.78,539.9Zm145.57-412.48c-91.75-91.73-145.06-121.4-145.22-121.45l-.35-.17-.41.17c0,.05-54.88,31.33-147.83,124.18-91.75,91.82-121.53,145.15-121.53,145.15l-.24.42.24.39s31.37,55,124.26,147.93c91.75,91.71,145.08,121.46,145.08,121.46l.43.28.47-.28s54.94-31.33,147.8-124.19c91.76-91.85,121.57-145.14,121.59-145.26l.22-.36-.22-.37c0-.08-31.37-54.95-124.29-147.9m-439.11,137.5A10.93,10.93,0,1,0,3394,540a10.93,10.93,0,0,0-10.91-10.88m293.6,293.57a11,11,0,1,0,11,11,11,11,0,0,0-11-11m293.54-293.57A10.93,10.93,0,1,0,3981.15,540a10.93,10.93,0,0,0-10.94-10.88M3579,186.54c-4.4-3.63-7.05-8.44-7.05-13.64,0-11.25,12.1-20.36,27.07-20.36a35.19,35.19,0,0,1,10.06,1.46,31.48,31.48,0,0,0-.74,6.95,33.45,33.45,0,0,0,7,20.16l12.13-12.23a16.09,16.09,0,0,1-2.16-7.93c0-11.28,12.1-20.34,27-20.34a33.44,33.44,0,0,1,16.25,4v24.16h16.89V144.27a32.86,32.86,0,0,1,15.58-3.66c14.88,0,27,9.06,27,20.34a15.52,15.52,0,0,1-2.19,7.93L3738,181.11a33.13,33.13,0,0,0,6.18-27.11,35.21,35.21,0,0,1,10.1-1.46c14.94,0,27.08,9.11,27.08,20.36,0,5.2-2.67,10-7.1,13.64l11.92,12c7.49-6.66,12-15.69,12-25.59,0-20.59-19.66-37.26-44-37.26a51,51,0,0,0-17.88,3.2c-7.9-9.16-20.87-15.18-35.38-15.18a49.44,49.44,0,0,0-24.33,6.24,49.41,49.41,0,0,0-24.33-6.24c-14.5,0-27.36,6-35.42,15.18a50.47,50.47,0,0,0-17.83-3.2c-24.26,0-43.94,16.67-43.94,37.26,0,9.9,4.54,18.93,11.95,25.59Zm15.15,42.75c4.22.36,8.32-1.78,11.42-5.8-2.18-4.55-5.72-7.62-10-8.07s-8.26,1.86-11.33,5.88c2.17,4.53,5.7,7.59,9.88,8m70-28c-3.71,2.19-5.63,6.41-5.85,11.44,4.46,2.39,9.13,2.79,12.84.68S3676.82,207,3677,202h0c.16,5,2.15,9.28,5.79,11.39s8.34,1.71,12.77-.68c-.19-5-2.13-9.25-5.85-11.44s-8.25-1.75-12.71.7c4.28-2.67,7-6.47,7-10.71s-2.71-8-7-10.69c-4.3,2.67-7,6.47-7,10.69s2.68,8,7,10.71c-4.49-2.45-9.11-2.81-12.74-.7m12.57-89.07a11.43,11.43,0,1,0-11.51-11.42,11.41,11.41,0,0,0,11.51,11.42m-90.48,96.46c-1.74-3.9-5.75-6.27-10.72-7-2.87,4.19-3.85,8.75-2.08,12.66s5.79,6.32,10.79,7c2.76-4.25,3.76-8.8,2-12.66m30.24.17c-3.17,2.9-4.11,7.46-3.26,12.49,4.8,1.35,9.5.79,12.64-2s4.19-7.49,3.25-12.35c1.28,4.84,4.05,8.66,8.14,9.9s8.49-.09,12.27-3.32c-1.15-4.87-3.92-8.66-8-10s-8.4.06-12.2,3.27c3.58-3.46,5.37-7.77,4.49-11.9s-4.27-7.31-9-9c-3.63,3.55-5.4,7.85-4.6,12s4.36,7.28,9,9.08c-4.79-1.44-9.4-.9-12.63,1.88M3676.61,241a176.11,176.11,0,0,1,73.24,16.39l9.42-14.28a194.56,194.56,0,0,0-165.16.05l9.46,14.23a176.36,176.36,0,0,1,73-16.39m3.92,302.93h53.82V610.8h-53.82Zm-7.7-7.76h-53.75V469.31h53.75Zm0-93.73h-53.75v-92l-26.93,26.85V442.4h-64.92l-26.94,26.91h91.86v66.82H3433.44l-3.83,3.88,3.82,3.88h24.3v24.36l26.86,26.85V543.89h26.89V622l26.9,26.94v-105h26.91V675.76l26.91,26.86V543.89h26.88V729.5L3646,756.42V543.89h26.86V783.25l3.84,3.79,3.86-3.79V637.63h53.82v92l26.86-27v-65h64.94L3853,610.8h-91.8V543.89h158.62l3.94-4-3.78-3.77h-24.33V511.8l-26.91-26.88v51.21h-26.86V458L3815,431.15v105h-26.92V404.29l-26.86-26.91V536.13h-26.86V350.53l-26.9-26.86V536.13h-26.92V296.75l-3.76-3.88-3.94,3.94Z"/></g></svg>