<svg xmlns="http://www.w3.org/2000/svg" viewBox="0 0 1024.21 330.28"><g id="Alsace"><path d="M99.91,0A99.91,99.91,0,0,0,0,99.91V330.24H924.3a99.91,99.91,0,0,0,99.91-99.91V0Z" fill="#fff"/><rect x="317.15" y="177.04" width="3.14" height="3.11" fill="#164193"/><path d="M257.43,264.16v-3.11h-3.05l-.09.08v3h-3.15v-.25l-2.35,2,2.64,1.63s.51-.17,1.51-.54c2.44-.9,4.83-1.87,7.19-2.89Z" fill="#164193"/><path d="M285.72,249.87c.6-.41,1.18-.84,1.77-1.26h-1.77Z" fill="#164193"/><path d="M264.24,251.71h2.62v3.11H270v-3.1h3.15v-3.11H270v-2.92C268,247.83,266.1,249.84,264.24,251.71Z" fill="#164193"/><path d="M344.72,158.38c7.49-50.5-11.68-90.55-48.94-102.06A73.45,73.45,0,0,0,274,53c-14.22,0-28.45,4.2-41.85,12.46a107.14,107.14,0,0,0-10.27,7.37l-.29,3.23c3.94,4.49,15,20.06,18.46,25l3.28.46a53,53,0,0,1,11.17-5.85c12.77-4.82,25.88-4.61,37,1.43,23.07,12.6,25,52.54,20.29,72.48a151.81,151.81,0,0,1-5,16.77h.92v3.11h-2.07c-.82,2.11-1.67,4.19-2.55,6.22h1.48V192.6h3.14v3.11h-3.14v3.11h-2.87c-1,2.12-2,4.2-3,6.23h2.74v-3.12h3.14v-3.11h3.14v3.11h-3.14v3.12h3.14v3.11h-3.14v-3.11h-3.14v3.11h-3.15v-2.34c-.4.79-.82,1.56-1.24,2.34h1.24v3.11h-3c-.6,1-1.2,2.09-1.81,3.11h1.63v3.11H292v-.6q-1.17,1.89-2.36,3.71H292v3.11h-3.15v-1.93q-2.82,4.26-5.74,8.16h2.6v-3.11h3.14v3.11h-3.14v3.11h-3.14v-2.4q-.91,1.22-1.83,2.4h1.83v3.11h-3.15V234.7c-1.25,1.57-2.5,3.1-3.75,4.57h3.75v3.11h-3.14v3.11h-3.14v-3.11h0v-.17q-1.5,1.69-3,3.28h3v3.11h3.14v3.12h-3.14v3.11H270v3.1h-3.14v0h0v0h-3.14v-5.7c-1.07,1.06-2.13,2.1-3.15,3.08v2.62h-2.78l-.36.34v2.78h3.14v-3.11h3.15v3.11h-3.15V264c1.06-.46,2.11-.94,3.16-1.42v-1.5h3.14c3.88-1.92,7.64-4,11.27-6.21h-1.85v-3.11h3.15V254c1.2-.76,2.4-1.53,3.58-2.32h-.44v-3.1h-6.29v-3.12h6.29v3.11h3.14v-3.11h3.14v2.12c.95-.7,1.88-1.4,2.8-2.12h-2.8v-3.11H292v2.84q1.8-1.4,3.54-2.84h-.39v-3.11h3.15V240q3.92-3.4,7.54-7h-4.41v-3.11h-3.15v3.11h-3.14v-3.11h0v-3.11h6.29v3.11h6.28v1.21c3.37-3.45,6.51-7,9.43-10.61v-3H314v-3.11h3.14v3.11h2.4c.8-1,1.57-2.07,2.33-3.11H320.3v-3.11h-3.15v-3.11h3.15v3.11h3.14v.92c1.66-2.37,3.22-4.76,4.69-7.14h-1.62v-3.12h3.15v.57c.71-1.23,1.4-2.45,2.06-3.68h-2v-3.11h3.14v1a114.36,114.36,0,0,0,5.92-13.41H336v-3.12h3.15v2c.61-1.74,1.17-3.46,1.65-5.16h-1.65v-3.11h2.48c.51-2.09,1-4.16,1.4-6.22h-3.88v3.11H336v-3.11h3.15V164.6h4.5c.2-1,.38-2.08.55-3.11h-2v-3.11h-3v-3.12h3.15v3.12Zm-62.14,77.78h3.14v3.11h-3.14Zm6.28,6.22h-3.14v3.11h-3.14v-3.11h3.14v-3.11h3.14Zm0-6.22h-3.14v-3.11h3.14Zm0-6.22H292v3.11h-3.15Zm6.29,4.66v1.56h0v3.11h-6.29v-3.11H292v-3.11h3.14Zm0-7.77H292v-3.12h3.14Zm3.14,6.22h3.15v3.11h-3.15Zm9.43-43.56h3.15v3.11h-3.15Zm-6.28,21.78h0v-3.11h3.14v3.11h0v3.11h-3.14Zm9.43,12.44h0v3.11h-3.15v-3.11h-3.14v3.11h-3.14v-3.11h3.14V220.6h-3.14v-3.11h-3.13v3.11h0v3.11h-3.14V220.6h0v-3.11h3.13v-3.11h3.15v3.11h3.14v-3.11h3.14v3.11h-3.14v3.11h6.29ZM314,220.6h-3.14v-3.11H314Zm0-6.22h-6.29v-3.11h0v-3.11h3.15v3.11H314Zm0-9.33h-3.14v-3.12H314Zm0-6.23h-3.14v-3.11H314Zm0-12.44h-3.14v-3.11H314Zm0-9.34h-3.14v-3.11H314Zm15.72-43.56h3.14v3.12h-3.14Zm0,6.23h3.14v3.11h-3.14Zm0,12.44h3.14v3.11h-3.14Zm-6.29,6.23v-3.12H320.3v-3.11h3.14v3.11h3.14v3.12h3.15v3.11h-3.15v-3.11Zm-6.29-34.23V121h3.15v3.11Zm3.15,12.45h3.14v3.11H320.3ZM317.15,149v-3.11h3.15V149Zm9.43-3.11V149h-3.14v-3.11h3.14v-3.11h3.15v3.11Zm0-12.45v-3.11h3.15v3.11Zm0-21.77v-3.12h3.15v3.12Zm-3.14-9.34h3.14v3.11h-3.14Zm0,12.45h3.14v3.11h-3.14Zm0,9.33h3.14v3.11h-3.14Zm0,6.22v3.11H320.3v-3.11Zm-6.29-34.22h3.15v3.11h-3.15Zm0,12.44h3.15v3.12h-3.15ZM314,114.82h3.14v3.11H314Zm0,12.44h3.14v3.11H314Zm0,9.34h3.14v3.11H314Zm0,18.66h3.14v3.12H314Zm0,9.34h3.14v-3.11h3.15v3.11h-3.15v3.11H314Zm6.29,3.11v3.11h-3.15v-3.11ZM314,189.49h3.14v3.11H314Zm3.14,18.67H314v-3.11h3.14Zm0-6.23H314v-3.11h3.14Zm0-6.22V192.6h3.15v3.11Zm6.29,12.45H320.3v-3.11h3.14Zm0-6.23H320.3v-3.11h3.14Zm6.29-9.33h-3.15v3.11h-3.14V192.6h3.14v-3.11h-3.14v-3.11h3.14v3.11h3.15Zm0-12.45h-3.15v3.12h-3.14v-3.12H320.3v3.12h0v3.11h-3.15v-3.11h0v-3.12H314V177h3.14v-3.11h3.15V177h3.14v3.11h3.14V177h3.15Zm0-12.44h-3.15v3.11h0v3.11h-3.14v-3.11h0v-3.11h3.14V164.6h6.29v3.11h-3.14Zm0,6.22v-3.11h3.14v3.11H336V177h-3.14v-3.11ZM336,189.49h-3.14v-3.11h-3.14v-3.11h3.14v3.11H336Zm0-28h-3.14v-3.11H336ZM336,121h-3.14v3.11h-3.14V121h3.14v-3.11H336Zm3.15,31.11H336V149h3.15Zm0-6.22H336v-3.11h3.15Zm0-15.56H336v-3.11h3.15Zm0,3.11h3.12v-3.11h3.14v3.11h-3.11v3.12h-3.15Zm0,6.23h3.15v3.11h-3.15Zm3.14,12.44V149h3.14v3.11Z" fill="#164193"/><path id="Acoeur-2" data-name="Acoeur" d="M244.71,236.51l1.75,1a70.28,70.28,0,0,0,9.11-7.86A90.44,90.44,0,0,0,263.4,221c.14-.69.28-1.39.43-2.08-3.51-17.29-11.21-43.5-19.2-64.12-7.51-19.36-16.82-35.45-25.16-48.76v0c-4-5.92-11.58-15.27-11.58-15.27C199,80.29,189.56,71.9,179.82,65.83,159.82,53.37,138,50.18,117,56.72c-40.53,12.65-58.27,59.9-44.1,117.55,8,32.67,39,75.75,87.9,93.19l3-1.81c2.12-15.91,4.85-31.26,8.13-45.6l.05,0c.78-3.52,1.59-7,2.44-10.46h63.75c.89,3.11,2.91,11.06,3.62,14.17.53,2.38,2.48,10.45,3,12.77m-99-1.88c-28.24-18-45.76-45.74-50.69-65.79-11.28-45.93,0-81.4,28.78-90.37a49.77,49.77,0,0,1,14.84-2.33c9.74,0,19.54,3,29.14,9,8.41,5.24,16.58,12.73,24.36,22.24-21,31.6-37,75.51-46.43,127.23m34.69-46.51c7.19-23.18,15.87-43.42,25.87-60.26,10,16.84,18.67,37.08,25.85,60.26Z" fill="#e20613"/><polygon points="246.8 68.02 251.72 72.49 257.62 69.45 254.89 75.51 259.61 80.19 253 79.46 250.01 85.39 248.66 78.88 242.1 77.87 247.87 74.58 246.8 68.02" fill="#ffdc00"/><polygon points="276.53 63.06 278.55 69.39 285.18 69.71 279.79 73.59 281.54 80.01 276.18 76.07 270.62 79.71 272.71 73.41 267.53 69.24 274.17 69.28 276.53 63.06" fill="#ffdc00"/><polygon points="294.47 71.94 299.82 75.89 305.38 72.26 303.28 78.56 308.45 82.74 301.81 82.69 299.44 88.89 297.43 82.55 290.8 82.22 296.2 78.35 294.47 71.94" fill="#ffdc00"/><path d="M405.69,270.1a44.71,44.71,0,0,1-9.28.72c-6.88,0-14.76-3.69-14.76-17.27v-7.77c0-13.69,7.88-17.27,14.76-17.27a60.31,60.31,0,0,1,9.39.9c.5.05.89.22.89.73V233c0,.34-.11.62-.67.62h-.17c-2-.17-6.14-.5-9.39-.5-5.47,0-9.72,3.18-9.72,12.68v7.77c0,9.39,4.25,12.69,9.72,12.69,3.19,0,7.21-.28,9.23-.45h.22c.62,0,.89.28.89.9V269C406.8,269.65,406.3,270,405.69,270.1Z" fill="#164193"/><path d="M423.35,270.82c-8.22,0-12.41-5.42-12.41-13.63v-4.25c0-8.22,4.19-13.64,12.41-13.64s12.46,5.42,12.46,13.64v4.25C435.81,265.4,431.56,270.82,423.35,270.82Zm7.54-17.88c0-5.7-2.29-9.34-7.54-9.34s-7.49,3.58-7.49,9.34v4.25c0,5.7,2.23,9.33,7.49,9.33s7.54-3.58,7.54-9.33Z" fill="#164193"/><path d="M446.82,270.43h-2.91a1.06,1.06,0,0,1-1-1.12V229.46a1,1,0,0,1,1-1.06h2.91a1,1,0,0,1,1,1.06v39.85A1.06,1.06,0,0,1,446.82,270.43Z" fill="#164193"/><path d="M460.4,270.43h-2.91a1.06,1.06,0,0,1-1-1.12V229.46a1,1,0,0,1,1-1.06h2.91a1,1,0,0,1,1,1.06v39.85A1.06,1.06,0,0,1,460.4,270.43Z" fill="#164193"/><path d="M492.14,256.63H473.42v.78c0,6.65,2.63,9.11,7.77,9.11a76.89,76.89,0,0,0,9.95-.61h.28a.79.79,0,0,1,.89.78v1.9c0,.72-.22,1.11-1.12,1.28a50.24,50.24,0,0,1-10,.95c-6.43,0-12.69-3-12.69-13.41v-5c0-8,4.42-13.08,12.41-13.08,8.16,0,12.29,5.14,12.29,13.08v3C493.2,256.12,492.81,256.63,492.14,256.63Zm-3.91-4.25c0-6.32-2.4-8.78-7.32-8.78s-7.49,2.74-7.49,8.78v.5h14.81Z" fill="#164193"/><path d="M517.74,270.21a41.19,41.19,0,0,1-7,.61c-7.6,0-11.9-5.36-11.9-13.58v-4.36c0-8.21,4.24-13.58,11.9-13.58a40.66,40.66,0,0,1,7,.62c.89.16,1.12.44,1.12,1.23v2a.85.85,0,0,1-1,.84h-.23a54.33,54.33,0,0,0-6.93-.4c-4.47,0-7,3-7,9.28v4.36c0,6.26,2.45,9.28,7,9.28a54.4,54.4,0,0,0,6.93-.39h.23a.85.85,0,0,1,1,.84v2C518.86,269.7,518.63,270,517.74,270.21Z" fill="#164193"/><path d="M540.37,270.54a26.82,26.82,0,0,1-3.63.28c-5.14,0-7.6-1.34-7.6-7.49v-19.5l-5.42-.62c-.62-.05-1.07-.39-1.07-1V240.7a1,1,0,0,1,1.07-1h5.42v-5.47a1.14,1.14,0,0,1,1-1.12l2.91-.45h.17a.89.89,0,0,1,.84.95v6.09h6a1.12,1.12,0,0,1,1.12,1.12v1.9a1.12,1.12,0,0,1-1.12,1.12h-6v19.5c0,3.08.78,3.53,3,3.53h3.13c.79,0,1.18.22,1.18.78v1.95C541.38,270.1,541.1,270.43,540.37,270.54Z" fill="#164193"/><path d="M551.05,234.77h-2.86a1.11,1.11,0,0,1-1.11-1.11v-4.47a1.12,1.12,0,0,1,1.11-1.12h2.86a1.12,1.12,0,0,1,1.11,1.12v4.47A1.11,1.11,0,0,1,551.05,234.77Zm-.12,35.66h-2.68a1.12,1.12,0,0,1-1.12-1.12v-28.5a1.13,1.13,0,0,1,1.12-1.12h2.68a1.12,1.12,0,0,1,1.12,1.12v28.5A1.12,1.12,0,0,1,550.93,270.43Z" fill="#164193"/><path d="M583.85,241l-7.54,26.61c-.73,2.51-2.63,3.18-5,3.18s-4.31-.67-5-3.18L558.7,241a1.19,1.19,0,0,1-.05-.39.86.86,0,0,1,.89-.95h3.07c.45,0,.84.34,1.07,1.06l6.42,24.37c.34,1.34.62,1.62,1.18,1.62s.84-.28,1.17-1.62l6.43-24.37c.22-.72.61-1.06,1.06-1.06H583a.87.87,0,0,1,.9.95A1,1,0,0,1,583.85,241Z" fill="#164193"/><path d="M594.36,234.77h-2.85a1.12,1.12,0,0,1-1.12-1.11v-4.47a1.12,1.12,0,0,1,1.12-1.12h2.85a1.12,1.12,0,0,1,1.11,1.12v4.47A1.11,1.11,0,0,1,594.36,234.77Zm-.12,35.66h-2.68a1.12,1.12,0,0,1-1.12-1.12v-28.5a1.13,1.13,0,0,1,1.12-1.12h2.68a1.12,1.12,0,0,1,1.12,1.12v28.5A1.12,1.12,0,0,1,594.24,270.43Z" fill="#164193"/><path d="M618.89,270.54a26.82,26.82,0,0,1-3.63.28c-5.14,0-7.6-1.34-7.6-7.49v-19.5l-5.42-.62c-.62-.05-1.07-.39-1.07-1V240.7a1,1,0,0,1,1.07-1h5.42v-5.47a1.14,1.14,0,0,1,1-1.12l2.91-.45h.17a.89.89,0,0,1,.84.95v6.09h6a1.12,1.12,0,0,1,1.12,1.12v1.9a1.12,1.12,0,0,1-1.12,1.12h-6v19.5c0,3.08.78,3.53,3,3.53h3.12c.79,0,1.18.22,1.18.78v1.95C619.9,270.1,619.62,270.43,618.89,270.54Z" fill="#164193"/><path d="M647.67,256.63H629v.78c0,6.65,2.63,9.11,7.77,9.11a76.89,76.89,0,0,0,9.95-.61H647a.79.79,0,0,1,.89.78v1.9c0,.72-.22,1.11-1.12,1.28a50.24,50.24,0,0,1-10,.95c-6.43,0-12.69-3-12.69-13.41v-5c0-8,4.42-13.08,12.41-13.08,8.16,0,12.3,5.14,12.3,13.08v3A1.09,1.09,0,0,1,647.67,256.63Zm-3.91-4.25c0-6.32-2.4-8.78-7.32-8.78s-7.49,2.74-7.49,8.78v.5h14.81Zm1.51-24.65-6.32,7c-.5.56-.67.84-1.28.84h-3c-.33,0-.5-.17-.5-.39a.79.79,0,0,1,.22-.56l5.48-6.93c.5-.61.67-.84,1.34-.84h3.69c.39,0,.61.11.61.39A.65.65,0,0,1,645.27,227.73Z" fill="#164193"/><path d="M691.77,256.63H673v.78c0,6.65,2.63,9.11,7.77,9.11a76.89,76.89,0,0,0,10-.61H691a.78.78,0,0,1,.89.78v1.9c0,.72-.22,1.11-1.11,1.28a50.35,50.35,0,0,1-10,.95c-6.42,0-12.68-3-12.68-13.41v-5c0-8,4.41-13.08,12.4-13.08,8.16,0,12.3,5.14,12.3,13.08v3C692.83,256.12,692.44,256.63,691.77,256.63Zm-3.92-4.25c0-6.32-2.4-8.78-7.32-8.78s-7.49,2.74-7.49,8.78v.5h14.81Z" fill="#164193"/><path d="M722,270.43h-2.8a1.07,1.07,0,0,1-1.06-1.12v-1.06a16.77,16.77,0,0,1-8.89,2.57c-6.7,0-9.72-4.19-9.72-11.62V240.81a1.12,1.12,0,0,1,1.12-1.12h2.68a1.13,1.13,0,0,1,1.12,1.12V259.2c0,5.64,1.9,7.38,6.15,7.38a17.78,17.78,0,0,0,7.54-2.18V240.81a1.16,1.16,0,0,1,1.12-1.12H722a1.11,1.11,0,0,1,1.06,1.12v28.5A1.07,1.07,0,0,1,722,270.43Z" fill="#164193"/><path d="M743.18,243.55a14.27,14.27,0,0,0-7.71,2.35v23.41a1.16,1.16,0,0,1-1.12,1.12h-2.74a1.11,1.11,0,0,1-1.06-1.12v-28.5a1.08,1.08,0,0,1,1.06-1.12h2.63a1.07,1.07,0,0,1,1.06,1.12V242a13.42,13.42,0,0,1,7.88-2.68c.79,0,1.18.34,1.18,1v2.29C744.36,243.21,744,243.55,743.18,243.55Z" fill="#164193"/><path d="M759.61,270.82c-8.21,0-12.4-5.42-12.4-13.63v-4.25c0-8.22,4.19-13.64,12.4-13.64s12.47,5.42,12.47,13.64v4.25C772.08,265.4,767.83,270.82,759.61,270.82Zm7.55-17.88c0-5.7-2.29-9.34-7.55-9.34s-7.49,3.58-7.49,9.34v4.25c0,5.7,2.24,9.33,7.49,9.33s7.55-3.58,7.55-9.33Z" fill="#164193"/><path d="M790.07,270.82a41.44,41.44,0,0,1-6.54-.61v10.11a1.06,1.06,0,0,1-1.06,1.07h-2.85a1,1,0,0,1-1-1.07V241.87c0-.72.16-1.06,1.17-1.28a46,46,0,0,1,10.28-1.29c8.33,0,12.19,5.42,12.19,13.81v4C802.26,265.91,798.23,270.82,790.07,270.82Zm7.27-17.71c0-5.87-1.73-9.67-7.27-9.67a41.43,41.43,0,0,0-6.54.56v22.13a44.43,44.43,0,0,0,6.54.56c5.48,0,7.27-3.58,7.27-9.56Z" fill="#164193"/><path d="M831.43,256.63H812.71v.78c0,6.65,2.62,9.11,7.76,9.11a76.77,76.77,0,0,0,9.95-.61h.28c.45,0,.9.22.9.78v1.9c0,.72-.23,1.11-1.12,1.28a50.35,50.35,0,0,1-10,.95c-6.42,0-12.68-3-12.68-13.41v-5c0-8,4.41-13.08,12.4-13.08,8.16,0,12.3,5.14,12.3,13.08v3C832.49,256.12,832.1,256.63,831.43,256.63Zm-3.91-4.25c0-6.32-2.41-8.78-7.33-8.78s-7.48,2.74-7.48,8.78v.5h14.81Zm1.5-24.65-6.31,7c-.5.56-.67.84-1.29.84h-3c-.34,0-.51-.17-.51-.39a.8.8,0,0,1,.23-.56l5.47-6.93c.51-.61.67-.84,1.34-.84h3.69c.39,0,.62.11.62.39A.67.67,0,0,1,829,227.73Z" fill="#164193"/><path d="M861.77,256.63H843.05v.78c0,6.65,2.63,9.11,7.77,9.11a76.89,76.89,0,0,0,9.95-.61h.28a.79.79,0,0,1,.89.78v1.9c0,.72-.22,1.11-1.12,1.28a50.24,50.24,0,0,1-10,.95c-6.43,0-12.69-3-12.69-13.41v-5c0-8,4.42-13.08,12.41-13.08,8.16,0,12.3,5.14,12.3,13.08v3A1.09,1.09,0,0,1,861.77,256.63Zm-3.91-4.25c0-6.32-2.4-8.78-7.32-8.78s-7.49,2.74-7.49,8.78v.5h14.81Z" fill="#164193"/><path d="M891.9,270.43h-2.69a1.12,1.12,0,0,1-1.11-1.12V250.93c0-5.65-1.9-7.38-6.15-7.38a17.64,17.64,0,0,0-7.55,2.18v23.58a1.16,1.16,0,0,1-1.11,1.12h-2.74a1.11,1.11,0,0,1-1.06-1.12v-28.5a1.07,1.07,0,0,1,1.06-1.12h2.79a1.07,1.07,0,0,1,1.06,1.12v1.06a16.88,16.88,0,0,1,8.89-2.57c6.71,0,9.73,4.19,9.73,11.63v18.38A1.12,1.12,0,0,1,891.9,270.43Z" fill="#164193"/><path d="M923,270.43h-2.68a1.12,1.12,0,0,1-1.12-1.12V250.93c0-5.65-1.9-7.38-6.15-7.38a17.6,17.6,0,0,0-7.54,2.18v23.58a1.17,1.17,0,0,1-1.12,1.12h-2.74a1.11,1.11,0,0,1-1.06-1.12v-28.5a1.08,1.08,0,0,1,1.06-1.12h2.79a1.08,1.08,0,0,1,1.07,1.12v1.06a16.85,16.85,0,0,1,8.88-2.57c6.71,0,9.73,4.19,9.73,11.63v18.38A1.12,1.12,0,0,1,923,270.43Z" fill="#164193"/><path d="M954.27,256.63H935.54v.78c0,6.65,2.63,9.11,7.77,9.11a76.89,76.89,0,0,0,10-.61h.28a.78.78,0,0,1,.89.78v1.9c0,.72-.22,1.11-1.11,1.28a50.35,50.35,0,0,1-10,.95c-6.43,0-12.69-3-12.69-13.41v-5c0-8,4.42-13.08,12.41-13.08,8.16,0,12.3,5.14,12.3,13.08v3C955.33,256.12,954.94,256.63,954.27,256.63Zm-3.92-4.25c0-6.32-2.4-8.78-7.32-8.78s-7.49,2.74-7.49,8.78v.5h14.81Z" fill="#164193"/><path d="M482.28,206.1H471.72a3.23,3.23,0,0,1-3-2.69L457,162.25H410.69l-11.46,41.16A3.61,3.61,0,0,1,396,206.1H385.45a2.87,2.87,0,0,1-3-2.87,3,3,0,0,1,.18-1.25L415.7,85.47c3-10.92,11.45-13.61,18.25-13.61,6.63,0,15,2.51,18.08,13.43L485.14,202a3,3,0,0,1,.18,1.25A2.77,2.77,0,0,1,482.28,206.1ZM437.35,89.23c-.53-2-1.61-3.23-3.4-3.23-2,0-3,1.26-3.58,3.23l-16.28,58.88h39.55Z" fill="#e20613"/><path d="M572.11,205.74c-4.65.71-18.07,1.61-34.9,1.61-19.15,0-38.12-3.76-38.12-33.29V76.7a3.59,3.59,0,0,1,3.58-3.58h9.13a3.59,3.59,0,0,1,3.58,3.58v97.36c0,13.6,3,18.61,22,18.61h34.54a1.93,1.93,0,0,1,2,2.15v8.41A2.52,2.52,0,0,1,572.11,205.74Z" fill="#e20613"/><path d="M617,207.35a179.24,179.24,0,0,1-29.71-2.5c-3-.54-3.4-1.26-3.4-3.23v-7.16A2.78,2.78,0,0,1,587,191.6h.53c8.24.72,21.3,1.07,29.53,1.07,21.48,0,27.21-8.59,27.21-21.12,0-8.94-5.19-14-21.48-24L605.39,137c-16.46-10-24.7-19.15-24.7-33.47,0-21.65,15.57-31.68,42.78-31.68A243.19,243.19,0,0,1,654.61,74c1.79.36,3,1.26,3,3v7.69a2.78,2.78,0,0,1-3,2.87h-.36c-7.87-.54-20.4-1.08-30.78-1.08-18.44,0-26.31,3.94-26.31,17,0,8.41,5.9,13.43,19.51,21.66L633.13,135c20.76,12.35,28.1,22.2,28.1,36.51C661.23,188.74,652.28,207.35,617,207.35Z" fill="#e20613"/><path d="M769.86,206.1H759.3a3.24,3.24,0,0,1-3-2.69l-11.64-41.16H698.27l-11.46,41.16a3.6,3.6,0,0,1-3.22,2.69H673a2.87,2.87,0,0,1-3-2.87,3,3,0,0,1,.18-1.25L703.28,85.47c3-10.92,11.45-13.61,18.25-13.61,6.63,0,15,2.51,18.08,13.43L772.72,202a3,3,0,0,1,.18,1.25A2.77,2.77,0,0,1,769.86,206.1ZM724.94,89.23c-.54-2-1.62-3.23-3.41-3.23-2,0-3,1.26-3.57,3.23l-16.29,58.88h39.55Z" fill="#e20613"/><path d="M859.69,205c-7.51,1.43-14.49,2.33-29.71,2.33-22,0-47.24-11.81-47.24-55.3V127.17c0-43.85,25.23-55.31,47.24-55.31a191.73,191.73,0,0,1,30.07,2.87c1.61.18,2.87.71,2.87,2.33v9.12c0,1.08-.36,2-2.15,2h-.54c-6.44-.53-19.69-1.61-30.07-1.61-17.54,0-31.14,10.2-31.14,40.63v24.88c0,30.06,13.6,40.62,31.14,40.62,10.2,0,23.09-.89,29.53-1.43h.72c2,0,2.86.9,2.86,2.87v7.33C863.27,203.59,861.66,204.67,859.69,205Z" fill="#e20613"/><path d="M954.36,206.45c-6.8.72-24.34.9-34.9.9-25.06,0-38.12-9.49-38.12-33.29V105.15c0-23.8,13.06-33.29,38.12-33.29,10.56,0,27.39.36,34.9,1.08a2.52,2.52,0,0,1,1.79,2.5v9a1.93,1.93,0,0,1-2,2.15H919.64c-19,0-22,5-22,18.61V130h54.94a3.59,3.59,0,0,1,3.58,3.58v6.8a3.59,3.59,0,0,1-3.58,3.58H897.63v30.07c0,13.6,3,18.61,22,18.61h34.54a1.93,1.93,0,0,1,2,2.15V204A2.51,2.51,0,0,1,954.36,206.45Z" fill="#e20613"/></g></svg>