<svg width="220" height="56" version="1.1" viewBox="0 0 220 56" xml:space="preserve" xmlns="http://www.w3.org/2000/svg"><defs><clipPath id="clipPath18"><path d="M 0,66.949 H 188.136 V 0 H 0 Z"/></clipPath></defs><g transform="matrix(1.3333 0 0 -1.3333 0 56)"><g transform="matrix(1.0154 0 0 1.0154 -10.863 -10.747)"><g clip-path="url(#clipPath18)"><g transform="translate(10.824 51.765)"><path d="m0 0h36.273v-25.134c0-7.695-8.089-15.922-18.136-15.922-9.516 0-18.137 8.37-18.137 15.922z" fill="#ed1c24"/></g><g transform="translate(10.824 51.765)"><path d="m0 0h36.273v-25.134c0-7.695-8.089-15.922-18.136-15.922-9.516 0-18.137 8.37-18.137 15.922z" fill="none" stroke="#ed1c24" stroke-miterlimit="3.864" stroke-width=".25"/></g><g transform="translate(11.234 23.771)"><path d="m0 0c1.511 2.012 2.558 0.164 3.708 3.113 0.711 1.824 0.289 3.739 4.456 4.817 4.711 1.218 1.222 5.393 7.121 6.832 4.521 1.102 0.855 6.009 7.473 7.044 3.667 0.573 1.469 4.92 5.741 6.225l7.333-0.028v-6.028c-5.809-0.468-3.369-5.923-7.897-6.568-5.865-0.836-2.084-5.895-8.123-7.045-4.515-0.86-1.654-5.321-6.327-6.543-4.811-1.258-3.325-3.017-4.816-5.177-1.439-2.084-3.705-1.284-4.889-3.185-1.461 1.397-3.258 4.212-3.78 6.543" fill="#fdb924"/></g><g transform="translate(38.537 24.313)"><path d="m0 0c-0.03-0.62-1.597-1.006-1.439-1.078 0.858-0.392 1.397-0.701 1.397-0.701 1.069 0.407 1.498 1.277 1.412 2.137-0.098 0.981-1.055 1.523-1.975 1.192-0.204-0.072-0.538-0.324-0.491-0.628 0.049-0.318 0.613 0.099 0.613-0.049 0-0.176-0.172 0.049-0.36-0.27-0.144-0.245 0.271-0.512 0.627-0.225 0.114-0.062 0.226-0.173 0.216-0.378" fill="#fdb924"/></g><g transform="translate(38.537 24.313)"><path d="m0 0c-0.03-0.62-1.597-1.006-1.439-1.078 0.858-0.392 1.397-0.701 1.397-0.701 1.069 0.407 1.498 1.277 1.412 2.137-0.098 0.981-1.055 1.523-1.975 1.192-0.204-0.072-0.538-0.324-0.491-0.628 0.049-0.318 0.613 0.099 0.613-0.049 0-0.176-0.172 0.049-0.36-0.27-0.144-0.245 0.271-0.512 0.627-0.225 0.114-0.062 0.226-0.173 0.216-0.378z" fill="none" stroke="#ed1c24" stroke-miterlimit="3.864" stroke-width=".22"/></g><g transform="translate(35.588 15.66)"><path d="m0 0c0.011-5e-3 0.025-0.686 0.025-0.686-0.982-0.121-0.502-0.877-1.224-0.83-0.74 0.199-0.265 1.432 0.486 1.743 0.388-0.156 0.398-0.079 0.713-0.227" fill="#fdb924"/></g><g transform="translate(35.588 15.66)"><path d="m0 0c0.011-5e-3 0.025-0.686 0.025-0.686-0.982-0.121-0.502-0.877-1.224-0.83-0.74 0.199-0.265 1.432 0.486 1.743 0.388-0.156 0.398-0.079 0.713-0.227z" fill="none" stroke="#ed1c24" stroke-miterlimit="3.864" stroke-width=".22"/></g><g transform="translate(33.967 30.695)"><path d="m0 0s0.224-0.813 0.575-1.208c0.231-0.327 1.019-0.774 1.027 0.457-0.467 0.256-0.784 0.752-0.784 1.323 0 0.833 0.676 1.509 1.51 1.509 0.833 0 1.508-0.676 1.508-1.509 0-0.557-0.301-1.043-0.75-1.304 0-1.255 0.795-0.804 1.028-0.476 0.35 0.395 0.574 1.208 0.574 1.208 3.782-0.126 4.02 0.519 4.16 0.238 0.196-0.9-2.166-1.25-1.855-1.362 0.728-0.322 1.715 0.182 1.659-0.112-0.182-0.886-2.122-0.914-2.234-1.096-0.056-0.281 1.362-0.21 1.418-0.407 0.141-0.535-2.332-0.591-2.486-0.563-0.182-0.211 0.97-0.196 0.9-0.449-0.21-0.477-1.828 0.043-1.898-0.014-0.238-0.21 0.76-0.448 0.465-0.675-0.088-0.135-1.173-0.12-1.8 0.498l-0.06-12.548c0-0.681-1.283-0.921-1.223 0l-0.047 12.563c-0.625-0.633-1.727-0.649-1.816-0.513-0.294 0.227 0.704 0.465 0.465 0.675-0.07 0.057-1.688-0.463-1.898 0.014-0.07 0.253 1.083 0.238 0.9 0.449-0.154-0.028-2.626 0.028-2.486 0.563 0.056 0.197 1.474 0.126 1.418 0.407-0.112 0.182-2.052 0.21-2.234 1.096-0.056 0.294 0.931-0.21 1.66 0.112 0.311 0.112-2.052 0.462-1.856 1.362 0.14 0.281 0.378-0.364 4.16-0.238" fill="#fdb924"/></g><g transform="translate(37.094 23.18)"><path d="m0 0c2.126-0.411 3.033-3.063 0.641-3.823-0.017-5e-3 -0.354 0.15-0.658 0.292-0.029-0.03-4e-3 0.37-4e-3 0.37 1.354 0.536 1.103 1.828-0.849 2.146-3.399 0.571-3.631 1.339-3.631 2.36 0 0.734 0.802 1.738 1.925 1.362 0.205-0.068 0.654-0.362 0.564-0.677-0.098-0.343-0.662 0.123-0.72-0.054-0.037-0.112 0.46-0.057 0.573-0.215 0.164-0.23-0.424-0.602-0.89-0.235-0.114-0.061-0.218-0.271-0.138-0.46 0.19-0.449 0.654-0.507 1.876-0.791 0.41-0.089 0.684-0.073 1.311-0.275" fill="#fdb924"/></g><g transform="translate(37.094 23.18)"><path d="m0 0c2.126-0.411 3.033-3.063 0.641-3.823-0.017-5e-3 -0.354 0.15-0.658 0.292-0.029-0.03-4e-3 0.37-4e-3 0.37 1.354 0.536 1.103 1.828-0.849 2.146-3.399 0.571-3.631 1.339-3.631 2.36 0 0.734 0.802 1.738 1.925 1.362 0.205-0.068 0.654-0.362 0.564-0.677-0.098-0.343-0.662 0.123-0.72-0.054-0.037-0.112 0.46-0.057 0.573-0.215 0.164-0.23-0.424-0.602-0.89-0.235-0.114-0.061-0.218-0.271-0.138-0.46 0.19-0.449 0.654-0.507 1.876-0.791 0.41-0.089 0.684-0.073 1.311-0.275z" fill="none" stroke="#ed1c24" stroke-miterlimit="3.864" stroke-width=".22"/></g><g transform="translate(34.323 22.574)"><path d="m0 0c0.016 8e-3 0.686-0.238 1.216-0.358 0.034 0.026 0-0.442 0-0.442-0.476-0.093-0.769-0.475-0.799-0.686-0.061-0.573 0.125-0.827 1.694-1.331 2.787-0.635 2.492-1.97 2.37-2.464-0.153-0.62-0.719-1.014-1.309-1.225-0.138 8e-3 -0.18 0.12-0.443 0.262-0.026 0.015-7e-3 0.331-7e-3 0.331-5e-3 0.043 0.625 0.448 0.625 0.873 0 0.353-0.033 0.804-1.373 1.162-3.999 0.71-3.264 3.226-1.974 3.878" fill="#fdb924"/></g><g transform="translate(34.323 22.574)"><path d="m0 0c0.016 8e-3 0.686-0.238 1.216-0.358 0.034 0.026 0-0.442 0-0.442-0.476-0.093-0.769-0.475-0.799-0.686-0.061-0.573 0.125-0.827 1.694-1.331 2.787-0.635 2.492-1.97 2.37-2.464-0.153-0.62-0.719-1.014-1.309-1.225-0.138 8e-3 -0.18 0.12-0.443 0.262-0.026 0.015-7e-3 0.331-7e-3 0.331-5e-3 0.043 0.625 0.448 0.625 0.873 0 0.353-0.033 0.804-1.373 1.162-3.999 0.71-3.264 3.226-1.974 3.878z" fill="none" stroke="#ed1c24" stroke-miterlimit="3.864" stroke-width=".22"/></g><g transform="translate(34.102 16.508)"><path d="m0 0c0.479-0.484 1.314-0.726 1.314-0.726 0.755-0.362 0.807-0.362 1.273-0.569 0.987-0.362 0.806-1.168 1.277-1.069 0.573 0.197 0.35 1.359-0.589 1.864-0.728 0.404-1.057 0.48-1.471 0.672-1.338 0.637-1.387 1.337-0.367 2.073-0.455 0.223-0.744 0.225-1.027 0.427-0.76-0.343-1.442-1.628-0.41-2.672" fill="#fdb924"/></g><g transform="translate(34.102 16.508)"><path d="m0 0c0.479-0.484 1.314-0.726 1.314-0.726 0.755-0.362 0.807-0.362 1.273-0.569 0.987-0.362 0.806-1.168 1.277-1.069 0.573 0.197 0.35 1.359-0.589 1.864-0.728 0.404-1.057 0.48-1.471 0.672-1.338 0.637-1.387 1.337-0.367 2.073-0.455 0.223-0.744 0.225-1.027 0.427-0.76-0.343-1.442-1.628-0.41-2.672z" fill="none" stroke="#ed1c24" stroke-miterlimit="3.864" stroke-width=".22"/></g><path d="m20.91 33.71h-4.417v10.073h4.417z" fill="#fdb924"/><g transform="translate(13.365 49.148)"><path d="m0 0h8.983l2.372-2.06v-2.77h-11.355z" fill="#fdb924"/></g><g transform="translate(64.865 37.854)"><path d="m0 0v-13.585h-3.792v13.585h-5.113v3.216h14.042v-3.216z" fill="#231f20"/></g><g transform="translate(77.512 37.11)"><path d="m0 0-2.664-6.528h5.305zm-3.912-9.578-1.32-3.263h-3.913l7.297 16.801h3.912l7.177-16.801h-4.055l-1.321 3.263z" fill="#231f20"/></g><g transform="translate(103.34 24.269)"><path d="m0 0v11.329l-4.464-9.625h-2.473l-4.464 9.625v-11.329h-3.432v16.801h4.248l4.897-10.272 4.872 10.272h4.223v-16.801z" fill="#231f20"/></g><g transform="translate(114.26 32.238)"><path d="m0 0h3.145c2.111 0 3.31 0.959 3.31 2.88 0 1.872-1.199 2.808-3.31 2.808h-3.145zm3.336 8.832c4.271 0 6.721-2.112 6.721-5.832 0-3.912-2.45-6.169-6.721-6.169h-3.336v-4.8h-3.793v16.801z" fill="#231f20"/></g><g transform="translate(130.53 37.926)"><path d="m0 0v-3.648h8.111v-3.144h-8.111v-3.722h9.264v-3.143h-13.057v16.801h12.793v-3.144z" fill="#231f20"/></g><g transform="translate(150.06 32.238)"><path d="m0 0c2.09 0 3.289 0.959 3.289 2.88 0 1.872-1.199 2.808-3.289 2.808h-3.504v-5.688zm0.361-3.169h-3.865v-4.8h-3.791v16.801h7.295c4.393 0 6.889-2.112 6.889-5.832 0-2.592-1.104-4.465-3.145-5.425l3.578-5.544h-4.297z" fill="#231f20"/></g><g transform="translate(163.94 37.926)"><path d="m0 0v-3.648h8.111v-3.144h-8.111v-3.722h9.264v-3.143h-13.057v16.801h12.793v-3.144z" fill="#231f20"/></g></g></g></g></svg>