<?xml version="1.0" encoding="UTF-8" standalone="no"?>
<svg
   xmlns:dc="http://purl.org/dc/elements/1.1/"
   xmlns:cc="http://creativecommons.org/ns#"
   xmlns:rdf="http://www.w3.org/1999/02/22-rdf-syntax-ns#"
   xmlns:svg="http://www.w3.org/2000/svg"
   xmlns="http://www.w3.org/2000/svg"
   xmlns:sodipodi="http://sodipodi.sourceforge.net/DTD/sodipodi-0.dtd"
   xmlns:inkscape="http://www.inkscape.org/namespaces/inkscape"
   width="138"
   height="38"
   viewBox="0 0 138 38"
   version="1.1"
   id="svg10"
   sodipodi:docname="logo.svg"
   inkscape:version="0.92.4 5da689c313, 2019-01-14">
  <metadata
     id="metadata16">
    <rdf:RDF>
      <cc:Work
         rdf:about="">
        <dc:format>image/svg+xml</dc:format>
        <dc:type
           rdf:resource="http://purl.org/dc/dcmitype/StillImage" />
        <dc:title>logo</dc:title>
      </cc:Work>
    </rdf:RDF>
  </metadata>
  <defs
     id="defs14" />
  <sodipodi:namedview
     pagecolor="#ffffff"
     bordercolor="#666666"
     borderopacity="1"
     objecttolerance="10"
     gridtolerance="10"
     guidetolerance="10"
     inkscape:pageopacity="0"
     inkscape:pageshadow="2"
     inkscape:window-width="1288"
     inkscape:window-height="610"
     id="namedview12"
     showgrid="false"
     fit-margin-top="0"
     fit-margin-left="0"
     fit-margin-right="0"
     fit-margin-bottom="0"
     inkscape:zoom="1.6692357"
     inkscape:cx="70.222129"
     inkscape:cy="55.565607"
     inkscape:window-x="0"
     inkscape:window-y="0"
     inkscape:window-maximized="0"
     inkscape:current-layer="svg10" />
  <!-- Generator: Sketch 52.5 (67469) - http://www.bohemiancoding.com/sketch -->
  <title
     id="title2">logo</title>
  <desc
     id="desc4">Created with Sketch.</desc>
  <g
     id="g7612"
     transform="matrix(0.85979651,0,0,0.85979651,-20.418002,-16.973456)">
    <path
       d="m 39.538954,33.830564 c -11.212455,0 -15.209939,9.798644 -15.209939,17.306154 0,6.386188 2.973739,10.481241 8.482466,10.481241 3.558736,0 5.947476,-1.901256 7.751218,-4.48502 0.877493,2.778704 3.461236,4.094965 6.434974,4.289992 l 2.43749,-5.557496 C 48.118918,55.329461 48.070169,54.45166 48.265168,52.794189 l 2.33999,-16.087407 c -3.509986,-1.99877 -7.458719,-2.876218 -11.066204,-2.876218 z m -0.292498,6.044977 c 0.974997,0 1.608744,0.146095 2.437491,0.38988 l -1.706244,11.748745 c -1.316244,2.144953 -2.778738,3.266186 -4.338732,3.266186 -1.364994,0 -2.48624,-0.731354 -2.48624,-4.143722 0,-4.826231 1.511245,-11.261177 6.093725,-11.261177 z"
       style="font-style:italic;font-variant:normal;font-weight:800;font-stretch:normal;font-size:medium;line-height:4.61601639px;font-family:'Fira Sans';-inkscape-font-specification:'Fira Sans, Ultra-Bold Italic';font-variant-ligatures:normal;font-variant-caps:normal;font-variant-numeric:normal;font-feature-settings:normal;text-align:start;letter-spacing:0.04761592px;word-spacing:0px;writing-mode:lr-tb;text-anchor:start;fill:#15355e;fill-opacity:1;stroke:none;stroke-width:0.26458329px;stroke-linecap:butt;stroke-linejoin:miter;stroke-opacity:1"
       id="path7598"
       inkscape:connector-curvature="0" />
    <path
       d="m 66.387531,27.639702 h -8.872462 l -4.72873,33.881131 H 73.505003 L 75.40625,54.500892 H 62.682551 Z"
       style="font-style:italic;font-variant:normal;font-weight:800;font-stretch:normal;font-size:medium;line-height:4.61601639px;font-family:'Fira Sans';-inkscape-font-specification:'Fira Sans, Ultra-Bold Italic';font-variant-ligatures:normal;font-variant-caps:normal;font-variant-numeric:normal;font-feature-settings:normal;text-align:start;letter-spacing:0.04761592px;word-spacing:0px;writing-mode:lr-tb;text-anchor:start;fill:#15355e;fill-opacity:1;stroke:none;stroke-width:0.26458329px;stroke-linecap:butt;stroke-linejoin:miter;stroke-opacity:1"
       id="path7600"
       inkscape:connector-curvature="0" />
    <path
       d="m 93.125886,33.830564 c -11.212454,0 -15.209941,9.798644 -15.209941,17.306154 0,6.386188 2.973741,10.481241 8.482472,10.481241 3.558736,0 5.947473,-1.901256 7.751215,-4.48502 0.877536,2.778704 3.461239,4.094965 6.434968,4.289992 l 2.4375,-5.557496 c -1.31625,-0.535974 -1.36499,-1.413775 -1.17,-3.071246 l 2.34,-16.087407 c -3.50999,-1.99877 -7.45873,-2.876218 -11.066214,-2.876218 z m -0.292453,6.044977 c 0.974997,0 1.60874,0.146095 2.437494,0.38988 l -1.706246,11.748745 c -1.316243,2.144953 -2.77874,3.266186 -4.338732,3.266186 -1.365,0 -2.486242,-0.731354 -2.486242,-4.143722 0,-4.826231 1.511244,-11.261177 6.093726,-11.261177 z"
       style="font-style:italic;font-variant:normal;font-weight:800;font-stretch:normal;font-size:5.53919125px;line-height:4.61601639px;font-family:'Fira Sans';-inkscape-font-specification:'Fira Sans, Ultra-Bold Italic';font-variant-ligatures:normal;font-variant-caps:normal;font-variant-numeric:normal;font-feature-settings:normal;text-align:start;letter-spacing:0.14284776px;word-spacing:0px;writing-mode:lr-tb;text-anchor:start;fill:#15355e;fill-opacity:1;stroke:none;stroke-width:0.26458329px;stroke-linecap:butt;stroke-linejoin:miter;stroke-opacity:1"
       id="path7602"
       inkscape:connector-curvature="0" />
    <path
       d="m 125.6934,33.830564 c -2.53499,0 -5.21623,1.16999 -7.01997,2.973732 l 1.85249,-13.211189 -8.62872,0.877448 -4.87498,34.807336 c 3.46123,1.462531 7.06873,2.340068 11.06621,2.340068 12.6262,0 15.55118,-10.188788 15.55118,-17.696209 0,-6.434946 -2.68123,-10.091186 -7.94621,-10.091186 z m -3.46124,6.288674 c 1.46249,0 2.63249,0.779759 2.63249,4.094965 0,4.582535 -1.51124,11.114994 -5.80123,11.114994 -1.17,0 -2.04749,-0.243785 -2.87623,-0.535975 l 1.65749,-11.894928 c 1.31624,-1.803742 2.77874,-2.778792 4.38748,-2.778792 z"
       style="font-style:italic;font-variant:normal;font-weight:800;font-stretch:normal;font-size:5.53919125px;line-height:4.61601639px;font-family:'Fira Sans';-inkscape-font-specification:'Fira Sans, Ultra-Bold Italic';font-variant-ligatures:normal;font-variant-caps:normal;font-variant-numeric:normal;font-feature-settings:normal;text-align:start;letter-spacing:0.14284776px;word-spacing:0px;writing-mode:lr-tb;text-anchor:start;fill:#15355e;fill-opacity:1;stroke:none;stroke-width:0.26458329px;stroke-linecap:butt;stroke-linejoin:miter;stroke-opacity:1"
       id="path7604"
       inkscape:connector-curvature="0" />
    <path
       d="m 149.13327,33.830564 c -7.31248,0 -11.35871,3.948694 -11.35871,8.628654 0,3.948783 2.19374,6.191249 6.53248,7.702537 4.09498,1.462444 5.02122,1.852499 5.02122,3.217429 0,1.316261 -1.31624,2.096283 -3.41248,2.096283 -2.97374,0 -5.26498,-1.218747 -6.97122,-2.730035 l -4.19249,4.436263 c 2.29124,2.583765 6.48373,4.436264 11.11496,4.436264 8.77496,0 11.89494,-4.728805 11.89494,-9.262494 0,-4.094966 -2.33998,-6.483703 -6.58121,-7.897477 -4.09498,-1.365018 -4.92374,-1.706228 -4.92374,-2.827461 0,-1.023808 0.87754,-1.706229 2.925,-1.706229 1.99874,0 4.19247,0.682069 6.04497,1.901168 l 3.70498,-4.631203 c -2.43748,-1.99877 -5.84997,-3.363699 -9.7987,-3.363699 z"
       style="font-style:italic;font-variant:normal;font-weight:800;font-stretch:normal;font-size:5.53919125px;line-height:4.61601639px;font-family:'Fira Sans';-inkscape-font-specification:'Fira Sans, Ultra-Bold Italic';font-variant-ligatures:normal;font-variant-caps:normal;font-variant-numeric:normal;font-feature-settings:normal;text-align:start;letter-spacing:0.14284776px;word-spacing:0px;writing-mode:lr-tb;text-anchor:start;fill:#15355e;fill-opacity:1;stroke:none;stroke-width:0.26458329px;stroke-linecap:butt;stroke-linejoin:miter;stroke-opacity:1"
       id="path7606"
       inkscape:connector-curvature="0" />
    <g
       id="g7610"
       style="font-style:italic;font-variant:normal;font-weight:800;font-stretch:normal;font-size:5.53919125px;line-height:4.61601591px;font-family:'Fira Sans';-inkscape-font-specification:'Fira Sans, Ultra-Bold Italic';font-variant-ligatures:normal;font-variant-caps:normal;font-variant-numeric:normal;font-feature-settings:normal;text-align:start;letter-spacing:0.14284775px;word-spacing:0px;writing-mode:lr-tb;text-anchor:start;display:inline;fill:#4d00ff;fill-opacity:1;stroke:none;stroke-width:0.03006325px;stroke-linecap:butt;stroke-linejoin:miter;stroke-opacity:1"
       transform="matrix(8.632918,1.7112436,-1.7112436,8.632918,-26.577428,-2158.3885)"
       aria-label="*">
      <path
         inkscape:connector-curvature="0"
         id="path7608"
         style="font-style:italic;font-variant:normal;font-weight:800;font-stretch:normal;font-size:5.53919125px;font-family:'Fira Sans';-inkscape-font-specification:'Fira Sans, Ultra-Bold Italic';font-variant-ligatures:normal;font-variant-caps:normal;font-variant-numeric:normal;font-feature-settings:normal;text-align:start;letter-spacing:0.14284775px;writing-mode:lr-tb;text-anchor:start;fill:#4d00ff;fill-opacity:1;stroke-width:0.03006325px"
         d="m 71.885274,239.80755 -0.149558,-0.77549 -0.703477,0.35451 0.243724,-0.76995 h -0.864114 l 0.03323,0.77549 -0.637007,-0.34343 -0.348969,0.7644 0.742252,0.11079 -0.61485,0.54284 0.592693,0.49299 0.432057,-0.6924 0.249264,0.68686 0.725634,-0.49299 -0.476371,-0.5373 z" />
    </g>
  </g>
</svg>
