<?xml version="1.0" encoding="UTF-8"?>
<!-- Generator: Adobe Illustrator 27.8.1, SVG Export Plug-In . SVG Version: 6.00 Build 0)  -->
<svg version="1.1" id="Livello_1" xmlns="http://www.w3.org/2000/svg" xmlns:xlink="http://www.w3.org/1999/xlink" x="0px" y="0px" viewBox="0 0 117 32" style="enable-background:new 0 0 117 32;" xml:space="preserve">
<g>
	<g>
		<g>
			<path d="M13.9,13.6c-1.8-0.9-3.6-1.6-4.8-2.5c-1.3-0.9-2-1.7-2-2.9c0-1.1,0.4-1.7,1.1-2.2c0.7-0.5,1.9-0.9,3.4-0.9     c2.7,0,4.3,0.5,6.2,1.1l0.5,0.1l1.6-4.2l-0.5-0.2c-1.9-0.9-4.2-1.6-7.9-1.6C9,0.3,6.6,0.9,4.8,2.3c-1.8,1.3-3.1,3.4-3,6     c0,5.2,3.8,7.4,7.4,9c1.7,0.9,3.6,1.5,4.8,2.5c1.2,0.9,2,1.8,2,3.2c0,1.4-0.6,2.2-1.7,2.8c-1.1,0.6-2.6,0.9-4.2,0.9     c-2.8,0-4.7-0.5-7-1.5L2.6,25l-1.7,4.4l0.5,0.2c1.8,1,4.4,1.9,8.8,1.9l0,0c3,0,5.8-0.6,7.9-2.1c2.1-1.5,3.6-3.8,3.5-6.8     C21.4,17.6,17.6,15.3,13.9,13.6z"/>
			<path d="M46.1,18.6c0,3.1-0.7,5.2-2.1,6.4c-1.2,1.2-3.1,1.7-5.2,1.7c-2.1,0-3.8-0.5-5.2-1.5c-1.2-1.1-2.1-2.8-2.1-5.7V0.6H26     v19.1c0,4.6,1.7,7.5,4.2,9.2c2.5,1.7,5.7,2.3,8.7,2.3c2.9,0,6-0.7,8.5-2.6c2.5-2,4.2-5.2,4.2-10.1v-18h-5.4V18.6L46.1,18.6z"/>
			<path d="M96.5,13.6c-1.8-0.9-3.6-1.6-4.9-2.5c-1.3-0.9-2-1.7-2-2.9c0-1.1,0.4-1.7,1.1-2.2c0.7-0.5,1.9-0.9,3.4-0.7     c2.7,0,4.3,0.5,6.2,1.1l0.5,0.1l1.6-4.2l-0.5-0.2c-1.9-0.9-4.2-1.6-7.9-1.6c-2.5,0-4.9,0.6-6.7,1.9c-1.8,1.3-3,3.4-3,6     c0,5.2,3.8,7.4,7.4,9c1.7,0.9,3.6,1.5,4.8,2.3c1.2,0.9,2,1.8,2,3.3c0,1.4-0.6,2.2-1.7,2.8c-1.1,0.6-2.6,0.9-4.2,0.9     c-2.8,0-4.7-0.5-7-1.5l-0.5-0.2l-1.7,4.4l0.5,0.2c1.8,1,4.4,1.9,8.8,1.9l0,0c3,0,5.8-0.6,7.9-2.1c2.1-1.5,3.6-3.8,3.5-6.8     C103.9,17.6,100,15.3,96.5,13.6z"/>
			<polygon points="109.4,0.7 109.4,1.2 109.4,31.1 114.9,31.1 114.9,0.7    "/>
			<path d="M70.7,0.7H57.4V31h5.6V5.4h6.8c2.1,0,3.6,0.5,4.4,1.4c0.9,0.9,1.4,2.2,1.4,4.2c-0.1,3.8-2.3,5.4-6.8,5.5h-1.5v4.7h1.3     c4.2,0,7.4-1.1,9.5-3.1c2.1-1.9,3.1-4.6,3.1-7.4c0-3.1-1.1-5.8-2.9-7.4C76.5,1.6,73.9,0.7,70.7,0.7z"/>
		</g>
	</g>
</g>
</svg>