<?xml version="1.0" encoding="utf-8"?>
<!-- Generator: Adobe Illustrator 15.0.2, SVG Export Plug-In . SVG Version: 6.00 Build 0)  -->
<!DOCTYPE svg PUBLIC "-//W3C//DTD SVG 1.1//EN" "http://www.w3.org/Graphics/SVG/1.1/DTD/svg11.dtd">
<svg version="1.1" xmlns="http://www.w3.org/2000/svg" xmlns:xlink="http://www.w3.org/1999/xlink" x="0px" y="0px" width="150px"
	 height="100px" viewBox="0 0 150 100" enable-background="new 0 0 150 100" xml:space="preserve">
<g id="Ebene_1">
</g>
<g id="Hintergründe">
</g>
<g id="Logo">
	<g>
		<g>
			<g>
				<path fill="#DEDC00" d="M66.27,22.676c0,0-3.33,7.992-3.33,12.715c0,0.787,0.061,1.483,0.303,2.028c0,0,0.091,0.121,0.091,0.212
					c0,0.03-0.03,0.061-0.091,0.061c-0.03,0-0.061-0.03-0.151-0.061c-2.634-1.332-4.057-3.481-4.057-6.024
					c0-2.452,1.968-7.689,2.21-7.962c2.059-4.541,2.604-6.267,2.604-6.267s0.242-0.605,0.242-1.15c0-0.454-0.182-0.908-0.787-0.908
					c-3.027,0-5.691,8.749-5.691,8.386l-3.845,10.293h-4.602l6.418-17.135c0,0,0.212-0.515,0.212-1.029
					c0-0.484-0.182-0.938-0.878-0.938c-2.422,0-4.935,6.327-5.328,7.387l-4.42,11.746h-4.571l6.872-18.225
					c0,0,0.242-0.757,0.242-1.514c0-0.787-0.242-1.574-1.302-1.574c-2.422,0-4.087,2.694-4.087,3.451
					c0,0.303,0.151,0.394,0.333,0.394c0.424,0,0.363-0.091,0.575-0.091c1.393,0,1.574,1.453,1.574,2.21c0,0-0.061,3.996-3.36,3.996
					c-2.846,0-2.997-2.725-2.997-3.451c0-5.298,5.691-8.265,9.294-8.265c1.332,0,3.693,0.303,3.693,3.239
					c0,0.484-0.091,1.12-0.303,1.816c0,0,0.03,0.091,0.091,0.091c0.03,0,0.061,0,0.091-0.061c0-0.151,2.664-4.692,5.812-4.692
					c0.696,0,2.815,0.182,2.815,2.634c0,0.696-0.182,1.574-0.605,2.694c0,0,0,0.182,0.061,0.182c0.03,0,0.091-0.061,0.151-0.151
					c0,0,2.573-5.116,6.388-5.116c0.999,0,2.755,0.363,2.755,2.846v0.03C68.692,14.835,68.662,17.409,66.27,22.676z"/>
				<path fill="#DEDC00" d="M79.35,25.855c-0.242,0.817-0.514,1.393-1.18,2.482c-2.543,4.178-4.935,6.206-8.053,6.206
					c-2.543,0-3.542-1.816-3.542-3.905c0-6.297,4.995-12.927,9.173-12.927c0.333,0,3.36,0,3.36,3.088
					c0,3.784-3.451,7.054-7.326,7.054c-0.272,0-0.515-0.061-0.696-0.061c-0.061,0-0.091,0-0.091,0.061c0,0-0.696,1.514-0.696,2.815
					c0,0.999,0.394,1.877,1.847,1.877c0.636,0,2.028-0.242,3.663-2.149c0,0,2.241-2.422,3.391-5.419c0,0,0.211,0.091,0.211,0.454
					C79.41,25.552,79.41,25.704,79.35,25.855z M75.687,18.317c-0.878,0-1.635,1.181-1.756,1.665l-2.664,7.084
					c0,0,0,0.091,0.091,0.091c0.151,0.03,0.303,0.03,0.454,0.03c2.422,0,4.571-7.629,4.571-7.871
					C76.383,18.953,76.354,18.317,75.687,18.317z"/>
				<path fill="#DEDC00" d="M85.164,26.703c-2.846,5.661-6.115,7.811-7.963,7.841c-0.877,0-1.119-0.666-1.119-1.302
					c0-0.878,0.303-1.665,4.602-12.927c0.938-2.422,3.451-2.634,4.42-2.694c0.061,0,0.09,0,0.09,0.061l-4.42,11.776
					c0,0-0.15,0.363-0.15,0.666s0.182,0.515,0.514,0.515c0.273,0,0.848-0.182,1.756-1.453c0,0,1.271-1.574,2.332-3.966
					c0,0,0.211,0.091,0.211,0.484C85.436,25.916,85.375,26.249,85.164,26.703z M84.68,15.774c-0.908-0.03-1.574-0.787-1.574-1.786
					c0-1.241,0.998-2.422,2.18-2.422c0.969,0,1.635,0.787,1.635,1.786C86.92,15.259,85.314,15.774,84.68,15.774z"/>
				<path fill="#DEDC00" d="M97.455,26.4c-1.424,3.179-4.057,5.722-4.057,5.722c-1.998,2.028-3.451,2.18-3.846,2.18
					c-0.969-0.091-1.211-0.666-1.211-1.271c0-1.816,3.785-10.051,4.451-12.745c0-0.182-0.182-0.303-0.363-0.303
					c-1.271,0-2.938,2.482-3.543,4.087L85.92,31.94c-0.908,2.422-3.451,2.634-4.449,2.694c-0.061,0-0.092,0-0.092-0.061l5.48-14.44
					c0.908-2.392,3.359-2.604,4.299-2.664c0.061,0,0.15,0,0.15,0.061l-1.211,3.058c0,0-0.029,0.091-0.029,0.151
					c0,0.03,0.029,0.03,0.029,0.03c0.031,0,0.061-0.03,0.121-0.121c0.424-0.515,3.059-3.058,5.238-3.058
					c0.332,0,1.271,0.061,1.271,1.271c0,0.394-0.121,0.908-0.363,1.574l-3.33,8.779c0,0-0.121,0.272-0.121,0.545
					c0,0.242,0.09,0.484,0.424,0.545c0,0,0.061,0.03,0.15,0.03c0.242,0,0.787-0.182,1.605-1.302c0,0,1.514-1.907,2.451-4.117
					c0,0,0.182,0.091,0.182,0.454C97.727,25.583,97.666,25.916,97.455,26.4z"/>
			</g>
		</g>
		<g>
			<g>
				<path fill="#00ABAF" d="M28.28,42.862v12.751c-0.121,2.293-1.972,4.104-4.264,4.104h4.264v4.987H18.264
					c-2.293,0-4.185-1.811-4.264-4.103V42.862c0.08-2.293,1.971-4.103,4.264-4.103h5.751C26.308,38.759,28.159,40.569,28.28,42.862z
					 M23.252,59.717v-15.97h-4.265v15.97H23.252z"/>
				<path fill="#00ABAF" d="M45.415,60.439c0,0.082,0,0.121,0,0.162c-0.121,2.292-1.971,4.103-4.264,4.103h-5.753
					c-2.292,0-4.184-1.811-4.263-4.103c0-0.041,0-0.08,0-0.162v-21.68h4.988v20.958h4.303V38.759h4.989V60.439z"/>
				<path fill="#00ABAF" d="M48.27,41.977c0-1.77,1.448-3.218,3.178-3.218h7.884c1.77,0,3.218,1.448,3.218,3.218v22.727h-5.028
					v-6.999h-4.265v6.999H48.27V41.977z M57.522,52.797v-9.05h-4.265v9.05H57.522z"/>
				<path fill="#00ABAF" d="M79.684,53.562c0,1.811-1.125,3.339-2.654,3.942l2.896,7.2h-5.39l-2.775-6.878h-1.368v6.878h-4.988
					V38.759h4.988h5.027c2.333,0,4.263,1.93,4.263,4.263V53.562z M70.393,52.838h4.264v-9.091h-4.264V52.838z"/>
				<path fill="#00ABAF" d="M81.736,38.759h14.279v4.988H91.35v20.957h-4.988V43.747h-4.625V38.759z"/>
				<path fill="#00ABAF" d="M98.064,35.107v-4.988h4.99v4.988H98.064z M98.064,38.759h4.99v25.945h-4.99V38.759z"/>
				<path fill="#00ABAF" d="M105.908,38.759h14.281v4.988h-9.293v5.51h6.799v4.989h-6.799v5.471h9.293v4.987h-14.281V38.759z"/>
				<path fill="#00ABAF" d="M136.922,53.562c0,1.811-1.127,3.339-2.654,3.942l2.895,7.2h-5.389l-2.777-6.878h-1.367v6.878h-4.986
					V38.759h4.986h5.027c2.334,0,4.266,1.93,4.266,4.263V53.562z M127.629,52.838h4.264v-9.091h-4.264V52.838z"/>
			</g>
		</g>
		<g>
			<g>
				<path fill="#036566" d="M62.908,87.623v-3.809h3.809v3.809H62.908z"/>
				<path fill="#036566" d="M72.298,84.615h4.755v3.008H68.44v-2.158l4.731-10.481H68.44v-3.009h8.613v2.159L72.298,84.615z"/>
				<path fill="#036566" d="M87.389,85.053c0,0.047,0,0.072,0,0.096c-0.072,1.384-1.189,2.475-2.572,2.475h-3.469
					c-1.383,0-2.523-1.091-2.572-2.475c0-0.023,0-0.049,0-0.096V71.975h3.008v12.641h2.598V71.975h3.008V85.053z"/>
				<path fill="#036566" d="M89.113,71.975h8.613v3.009h-5.605v3.324h4.1v3.008h-4.1v3.3h5.605v3.008h-8.613V71.975z"/>
				<path fill="#036566" d="M107.818,80.903c0,1.091-0.678,2.015-1.6,2.377l1.746,4.343h-3.252l-1.672-4.148h-0.826v4.148h-3.008
					V71.975h3.008h3.033c1.406,0,2.57,1.164,2.57,2.571V80.903z M102.215,80.467h2.57v-5.483h-2.57V80.467z"/>
				<path fill="#036566" d="M109.543,70.159v-3.008h3.008v3.008H109.543z M109.543,71.975h3.008v15.648h-3.008V71.975z"/>
				<path fill="#036566" d="M114.273,73.916c0-1.068,0.873-1.941,1.916-1.941h4.756c1.068,0,1.941,0.873,1.941,1.941v3.129h-3.033
					v-2.062h-2.572v9.632h2.572v-2.062h3.033v3.154c0,1.043-0.873,1.916-1.941,1.916h-4.756c-1.043,0-1.916-0.873-1.916-1.916
					V73.916z"/>
				<path fill="#036566" d="M127.617,78.308h2.572v-6.333h3.033v15.648h-3.033v-6.308h-2.572v6.308h-3.008V71.975h3.008V78.308z"/>
			</g>
		</g>
	</g>
</g>
</svg>
