<svg xmlns="http://www.w3.org/2000/svg" viewBox="0 0 672 231"><defs><style>.cls-1{fill:#eb054b;}.cls-2{fill:#fff;}</style></defs><g id="Layer_2" data-name="Layer 2"><g id="Layer_1-2" data-name="Layer 1"><rect class="cls-1" width="672" height="231"/><path class="cls-2" d="M474.62,155.76V132.35H439.07v23.41H421.58v-48c0-22,13.21-35.2,35.32-35.2,22.27,0,35.56,13.16,35.56,35.2v48Zm0-39.82v-8.19c0-12.23-6-18.43-17.83-18.43s-17.72,6.2-17.72,18.43v8.19Z"/><path class="cls-2" d="M120.56,155.85,104.11,131h-12v24.82H74.13V75.22h28.65c10,0,17.83,2.48,23.39,7.37s8.44,11.74,8.44,20.21a32.31,32.31,0,0,1-3.15,14.08,23.67,23.67,0,0,1-8.65,9.78l18.7,29.19Zm-15.12-42.23c3.79,0,6.44-1,8.11-3.17a11.22,11.22,0,0,0,2.6-7.12,13.78,13.78,0,0,0-2.25-7.43c-1.37-2.18-4.18-3.28-8.36-3.28H92.07v21Z"/><rect class="cls-2" x="149.97" y="75.22" width="17.94" height="80.64"/><rect class="cls-2" x="182.11" y="75.22" width="17.94" height="80.64"/><polygon class="cls-2" points="264.55 155.85 264.55 124.13 232.19 124.13 232.19 155.85 214.26 155.85 214.26 75.22 232.19 75.22 232.19 106.72 264.55 106.72 264.55 75.22 282.48 75.22 282.48 155.85 264.55 155.85"/><rect class="cls-2" x="296.69" y="75.22" width="17.94" height="80.64"/><polygon class="cls-2" points="389.41 155.85 389.41 117.15 368.12 143.42 366.59 143.42 346.24 119.39 346.24 155.85 328.83 155.85 328.83 74.97 328.87 73.06 367.57 115.87 407.35 72.82 407.35 74.97 407.35 155.85 389.41 155.85"/><polygon class="cls-2" points="549.84 155.85 526.25 123.22 523.87 125.61 523.87 155.85 505.72 155.85 505.72 75.22 523.87 75.22 523.87 104.04 549.39 75.22 572.82 75.22 539.32 111.58 572.57 155.85 549.84 155.85"/><rect class="cls-2" x="579.85" y="75.22" width="17.94" height="80.64"/><circle class="cls-2" cx="438.45" cy="57.34" r="8.17"/><circle class="cls-2" cx="475.6" cy="57.34" r="8.17"/></g></g></svg>