<svg xmlns="http://www.w3.org/2000/svg" xmlns:xlink="http://www.w3.org/1999/xlink" width="372px" height="74px" viewBox="0 0 372 74"><title>Frame</title><defs><rect id="path-1" x="0" y="0" width="372" height="74"></rect></defs><g id="Page-1" stroke="none" stroke-width="1" fill="none" fill-rule="evenodd"><g id="Portada" transform="translate(-44.000000, -19.000000)"><g id="Frame-102" transform="translate(0.000000, 19.000000)"><g id="Frame" transform="translate(44.000000, 0.000000)"><mask id="mask-2" fill="white"><use xlink:href="#path-1"></use></mask><g id="Frame-(Background/Mask)"></g><path d="M17.5975072,68.5033986 C12.3147436,64.9159783 8.24882612,59.8252217 5.93424872,53.9003556 L2.29361459,44.4650855 C-0.769277409,36.6837285 -0.599903194,28.0139042 2.7646042,20.3563539 C6.1291116,12.6988037 12.4141954,6.67841081 20.2419402,3.6150607 L23.8825743,2.24134306 C27.7838052,0.740937419 31.9444707,0.0182852039 36.1269797,0.114652643 C40.3094886,0.211020082 44.4319198,1.12451957 48.2588668,2.80298696 C52.0858139,4.48145435 55.5423181,6.89201384 58.4310022,9.89701307 C61.3196864,12.9020123 63.5839675,16.4425922 65.0945498,20.3165741 L68.7351839,29.7518441 C70.2462096,33.6256558 70.9739794,37.7570803 70.8769299,41.9101931 C70.7798804,46.0633059 69.8599185,50.1567632 68.1695707,53.9568131 C66.479223,57.756863 64.0515965,61.1890771 61.0253276,64.0574586 C57.9990587,66.92584 54.4334191,69.1742069 50.5320168,70.6741724 L46.8913826,72.0478939 C43.255133,73.3752054 39.4065865,74.0366149 35.5326046,74.0000154 L35.5326046,74.0000154 C29.132608,74.0069867 22.8802708,72.090819 17.5975072,68.5033986 Z M24.8655455,4.98877834 L21.2249114,6.36249597 C14.1426856,9.14909012 8.46311473,14.6118711 5.4326241,21.5519874 C2.40213348,28.4921038 2.26830083,36.3425813 5.0604965,43.3805709 L8.70113149,52.8519922 C11.4795265,59.9018398 16.9631861,65.5678416 23.9469032,68.6047091 C30.9306202,71.6415767 38.8429194,71.8008106 45.9448169,69.0474056 L49.5854511,67.6736841 C56.6808808,64.9010815 62.3771234,59.4441438 65.4219297,52.5025113 C68.4667359,45.5608789 68.6108816,37.7027374 65.8226794,30.6556057 L62.1820453,21.1841861 C60.0573101,15.8223502 56.3527657,11.2218441 51.5527266,7.98411206 C46.7526875,4.74638006 41.080515,3.02208525 35.2777578,3.03665317 L35.2777578,3.03665317 C31.7143336,3.03204686 28.1819543,3.6943123 24.8655455,4.98877834 Z" id="Vector" fill="#E56C0C" mask="url(#mask-2)"></path><path d="M21.0357251,61.0507125 C16.5474007,57.876553 13.1653325,53.3938893 11.3588012,48.2247189 L9.39285889,43.0190498 C7.1072037,36.4322067 7.54893733,29.2137179 10.62097,22.9501447 C13.6930027,16.6865715 19.1439395,11.890483 25.7757121,9.61601978 L26.0669625,9.61601978 C32.7007705,7.35641481 39.9660812,7.79975211 46.2713406,10.848913 C52.5766,13.8980739 57.4077303,19.3044564 59.7064215,25.8837295 L61.4903314,31.0893986 C62.6270472,34.3506161 63.1048826,37.8024197 62.8964761,41.247233 C62.6880696,44.6920462 61.7975187,48.0622294 60.2757983,51.1648678 C58.754078,54.2675062 56.6310631,57.0416813 54.028284,59.3285995 C51.425505,61.6155176 48.3940654,63.3702755 45.1074811,64.4924288 L45.1074811,64.4924288 L44.8162306,64.4924288 C42.1109978,65.4261574 39.2702675,65.9145999 36.4063641,65.938446 C30.8960604,65.9331242 25.5240495,64.224872 21.0357251,61.0507125 Z M26.3946201,10.4474806 L26.1033697,10.4474806 C19.72569,12.6398054 14.4842282,17.2546732 11.5289265,23.2796107 C8.57362476,29.3045482 8.14583915,36.2475062 10.3394237,42.5852446 L12.1597411,47.7909137 C14.375241,54.1086186 19.0199668,59.2981621 25.0782261,62.2247091 C31.1364854,65.151256 38.1153045,65.5766694 44.488573,63.4079175 L44.7798234,63.4079175 C51.1575031,61.2155927 56.3989639,56.6007213 59.3542656,50.5757837 C62.3095673,44.5508462 62.7373503,37.6078865 60.5437657,31.2701482 L58.7234486,26.0644825 C56.9849273,21.1022231 53.7340316,16.8003288 49.4218424,13.7557228 C45.1096532,10.7111168 39.9500133,9.07477859 34.6588614,9.07376239 L34.6588614,9.07376239 C31.8462591,9.07105475 29.052996,9.53536329 26.3946201,10.4474806 Z" id="Vector" fill="#E56C0C" mask="url(#mask-2)"></path><path d="M25.4844442,61.1665776 C22.5892711,59.7705176 20.0014617,57.8185152 17.8705906,55.4233971 C15.7397195,53.0282789 14.108046,50.2375468 13.0698809,47.2124995 L11.4680024,42.6575401 C9.34860645,36.5549695 9.75741151,29.8663332 12.6044847,24.0630579 C15.4515578,18.2597826 20.5036824,13.8172404 26.6494478,11.7127403 C32.7952131,9.60824022 39.5311889,10.014172 45.3755404,12.8412349 C51.2198919,15.6682978 55.6938784,20.6849125 57.8132744,26.7874832 L59.4151519,31.3062913 C61.5285112,37.414029 61.1172943,44.1045843 58.2716138,49.9117971 C55.4259334,55.71901 50.3778914,60.1692272 44.2337071,62.2872401 L44.2337071,62.2872401 C41.7158657,63.1553644 39.0715969,63.6072299 36.4063467,63.6251068 L36.4063467,63.6251068 C32.6245475,63.6432753 28.8886142,62.8024143 25.4844442,61.1665776 Z M23.8914576,14.0169535 C20.5751304,15.7262005 17.7158771,18.1943185 15.5498333,21.2174744 C13.3837895,24.2406303 11.9731028,27.7320848 11.4342756,31.4034922 C10.8954485,35.0748997 11.2439418,38.8209205 12.4509737,42.3321854 L14.0164458,46.9955952 C16.0489416,52.8440919 20.3379427,57.65132 25.9399176,60.3597412 C31.5418924,63.0681624 37.9979563,63.4559196 43.8878493,61.4377089 C49.7777424,59.4194982 54.6189931,55.1606387 57.3465848,49.5980366 C60.0741765,44.0354345 60.4646748,37.6247444 58.432179,31.7762477 L56.8667087,27.1128379 C55.2633015,22.5220617 52.2598148,18.5411083 48.2734731,15.7229887 C44.2871313,12.904869 39.5158549,11.3895002 34.6224368,11.3873864 L34.6224368,11.3873864 C30.8860359,11.4063718 27.2077848,12.3077064 23.8914576,14.0169535 Z" id="Vector" fill="#E56C0C" mask="url(#mask-2)"></path><path d="M23.0156683,53.6596303 C19.8945335,50.9718888 17.8505438,47.2595149 17.2566184,43.1998129 L16.3100545,36.1504731 C15.9910573,33.9356949 16.1147653,31.6802043 16.6741088,29.5129265 C17.2334523,27.3456486 18.2174645,25.3090781 19.5698957,23.5196294 C20.9223268,21.7301808 22.6166611,20.2229394 24.5560471,19.0840614 C26.495433,17.9451835 28.6418431,17.197 30.8725893,16.8822767 L34.149162,16.4123202 C38.6548474,15.7917427 43.225064,16.9627807 46.8657579,19.6707253 C50.5064518,22.3786698 52.9231318,26.4044769 53.5901483,30.8725052 L54.5367105,37.741092 C54.8557077,39.9558701 54.7319997,42.2113616 54.1726561,44.3786395 C53.6133126,46.5459173 52.6293039,48.5824896 51.2768727,50.3719382 C49.9244416,52.1613869 48.2301077,53.6686266 46.2907218,54.8075045 C44.3513358,55.9463825 42.2049205,56.6945693 39.9741743,57.0092926 L36.6976051,57.4792456 C35.8934587,57.6530841 35.0786004,57.7738513 34.25838,57.8407516 C30.1270399,57.8313266 26.1368032,56.3473719 23.0156683,53.6596303 Z M34.4040052,18.0752418 L31.127436,18.509047 C27.0073624,19.0999135 23.291248,21.2886218 20.7935548,24.5954734 C18.2958616,27.902325 17.22034,32.0575589 17.8027138,36.1504731 L18.7856849,43.0190599 C19.4066217,47.0545099 21.6049032,50.6841155 24.9036321,53.1204707 C28.202361,55.5568259 32.3354803,56.6034288 36.4063547,56.0332284 L39.6829239,55.563272 C43.78983,54.9895368 47.4996289,52.821015 49.9978581,49.5337875 C52.4960873,46.2465599 53.5785682,42.1092948 53.0076474,38.0302989 L52.0246745,31.1617086 C51.4935099,27.4716545 49.647661,24.0929667 46.8221186,21.6388228 C43.9965761,19.184679 40.3785996,17.8177241 36.6247942,17.7860383 L36.6247942,18.0752418 C35.8854654,18.0230381 35.1433341,18.0230381 34.4040052,18.0752418 Z" id="Vector" fill="#E56C0C" mask="url(#mask-2)"></path><path d="M219.967102,34.0898905 L219.967102,22.1240845 L222.078676,22.1240845 L222.078676,34.0898905 L219.967102,34.0898905 Z" id="Vector" fill="#E56C0C" fill-rule="nonzero" mask="url(#mask-2)"></path><path d="M226.192593,26.2452466 C226.508454,25.88649 226.901443,25.6027761 227.34254,25.4150631 C227.783637,25.2273502 228.261576,25.1404334 228.741039,25.1607319 C229.241715,25.1072085 229.746914,25.2065694 230.189243,25.445557 C230.631573,25.6845445 230.989983,26.0517925 231.216658,26.4982988 C231.521989,26.0655402 231.932214,25.7161431 232.409435,25.4823685 C232.886657,25.2485938 233.415506,25.1379777 233.947147,25.1607319 C234.353292,25.1249484 234.762395,25.1775718 235.145952,25.3149317 C235.529509,25.4522916 235.878289,25.6710804 236.167936,25.9560414 C236.696255,26.6500969 236.954768,27.5100648 236.896052,28.378123 L236.896052,34.0898981 L234.893692,34.0898981 L234.893692,28.3058222 C234.934678,27.8650029 234.804443,27.4252971 234.529634,27.0767058 C234.360458,26.9317824 234.163785,26.8219405 233.951202,26.753647 C233.738619,26.6853535 233.514438,26.6599906 233.291832,26.6790518 C232.88337,26.6553843 232.480768,26.7843413 232.16323,27.0405562 C231.883456,27.2995848 231.671081,27.6220978 231.544315,27.9804674 L231.544315,34.0898981 L229.541969,34.0898981 L229.541969,28.2335213 C229.560066,28.0185215 229.529484,27.8022261 229.452462,27.6004875 C229.375439,27.398749 229.253937,27.2166804 229.096848,27.0676283 C228.939759,26.9185762 228.751064,26.8063179 228.544609,26.739081 C228.338153,26.6718441 228.119157,26.6513335 227.903681,26.6790518 C227.552638,26.6516197 227.201445,26.7301335 226.896113,26.9043044 C226.59078,27.0784753 226.345563,27.3401776 226.192593,27.6551144 L226.192593,34.0898981 L224.190247,34.0898981 L224.190247,25.3053336 L226.192593,25.3053336 L226.192593,26.2452466 Z" id="Vector" fill="#E56C0C" fill-rule="nonzero" mask="url(#mask-2)"></path><path d="M245.742796,33.0415211 C245.450518,33.3934594 245.087723,33.68119 244.677454,33.8864395 C244.267185,34.091689 243.818402,34.2099684 243.359629,34.2337656 C242.900857,34.2575629 242.44213,34.186359 242.012557,34.0246735 C241.582984,33.8629881 241.191976,33.6143566 240.864359,33.2945733 L240.864359,37.4880266 L238.862,37.4880266 L238.862,25.3053201 L240.718731,25.3053201 L240.718731,26.2090817 C241.012343,25.864116 241.381442,25.5903337 241.797877,25.4086405 C242.214313,25.2269474 242.667057,25.1421484 243.121535,25.1607184 C243.617137,25.1392798 244.110662,25.2364649 244.560517,25.4440833 C245.010373,25.6517017 245.403372,25.9636678 245.706382,26.3536835 C246.3663,27.3478543 246.685504,28.526948 246.61654,29.7156777 L246.689368,29.7518255 C246.759022,30.9232864 246.425201,32.083424 245.742796,33.0415211 Z M244.177322,27.4743476 C244.01631,27.2191095 243.789855,27.0109565 243.521173,26.8712079 C243.252492,26.7314592 242.951249,26.6651386 242.648262,26.6790382 C242.283592,26.6546806 241.919784,26.7377354 241.602447,26.9177967 C241.285109,27.097858 241.028366,27.366915 240.864359,27.6912501 L240.864359,31.6316513 C241.028366,31.9559865 241.285109,32.225044 241.602447,32.4051053 C241.919784,32.5851666 242.283592,32.6682214 242.648262,32.6438638 C242.941763,32.6551763 243.233251,32.5912781 243.494675,32.4583187 C243.7561,32.3253593 243.978645,32.1278152 244.140908,31.8847035 C244.556172,31.1867903 244.746719,30.3795288 244.687009,29.571076 C244.722798,28.8381246 244.545895,28.1103803 244.177322,27.4743476 Z" id="Vector" fill="#E56C0C" mask="url(#mask-2)"></path><path d="M252.504527,34.0160726 C252.069292,34.1914484 251.599579,34.266143 251.130956,34.2344938 C250.721853,34.2681669 250.310316,34.2110277 249.926207,34.0672174 C249.542097,33.9234071 249.195038,33.6965278 248.910167,33.4030314 C248.373334,32.6993819 248.114327,31.8250048 248.182023,30.9448022 L248.182023,25.3053284 L250.184383,25.3053284 L250.184383,30.9448022 C250.184383,32.0654666 250.657664,32.6077237 251.604228,32.6077237 C251.996933,32.6598313 252.396258,32.5906367 252.747982,32.4095432 C253.099706,32.2284496 253.38678,31.9442338 253.570174,31.5955082 L253.570174,25.3053284 L255.572506,25.3053284 L255.572506,34.0898921 L253.679389,34.0898921 L253.642975,33.2222784 C253.329079,33.5692396 252.939762,33.8406968 252.504527,34.0160726 Z" id="Vector" fill="#E56C0C" fill-rule="nonzero" mask="url(#mask-2)"></path><path d="M257.57486,34.0899019 L257.57486,21.4733887 L259.613606,21.4733887 L259.613606,34.0899019 L257.57486,34.0899019 Z" id="Vector" fill="#E56C0C" fill-rule="nonzero" mask="url(#mask-2)"></path><path d="M266.524875,31.1988789 C266.440632,31.0573168 266.316006,30.9437369 266.166761,30.8724968 C265.713036,30.624619 265.220868,30.4535718 264.710502,30.366389 C264.12123,30.2508153 263.547151,30.0688889 262.999399,29.8241335 C262.564237,29.6685887 262.187695,29.3840614 261.920725,29.0090504 C261.653754,28.6340395 261.509257,28.1866473 261.506754,27.7274068 C261.505222,27.3534165 261.593602,26.9844645 261.764569,26.6512215 C261.935536,26.3179786 262.184138,26.0300706 262.489713,25.8114314 C263.193249,25.2654921 264.074302,24.9953148 264.965345,25.0522715 C265.894589,25.005333 266.810483,25.2871386 267.550192,25.8475827 C267.864319,26.083122 268.117355,26.3896448 268.288307,26.7417204 C268.459259,27.0937961 268.543215,27.4812743 268.533179,27.8720085 L266.530819,27.8720085 C266.531226,27.6932175 266.492337,27.5164903 266.416882,27.3541549 C266.341428,27.1918195 266.231216,27.0477838 266.093933,26.9320956 C265.78175,26.6628722 265.378601,26.5208228 264.965345,26.5344418 C264.581107,26.5266976 264.202507,26.6269523 263.873172,26.8236452 C263.742615,26.9187608 263.637724,27.0444292 263.56786,27.1894831 C263.497995,27.334537 263.465318,27.4944834 263.4727,27.6551059 C263.466437,27.796419 263.496571,27.9369825 263.560277,28.063499 C263.623983,28.1900156 263.719149,28.2983014 263.836757,28.3781145 C264.335069,28.6198961 264.86059,28.801929 265.402231,28.9203718 C266.047592,29.0358464 266.672899,29.2428148 267.258962,29.53493 C267.673798,29.7237545 268.026966,30.0243451 268.278335,30.4025403 C268.505844,30.7584473 268.620016,31.1741853 268.605979,31.5955054 C268.612495,31.9793244 268.522729,32.3587237 268.344775,32.6995091 C268.166821,33.0402946 267.906275,33.331756 267.586606,33.5476303 C266.819476,34.0742211 265.896088,34.3289132 264.965345,34.2706389 C264.303337,34.2909993 263.644836,34.1676283 263.035813,33.9091363 C262.505382,33.6606487 262.043251,33.2885887 261.688769,32.8246217 C261.375443,32.3798926 261.209975,31.8490283 261.215496,31.3063019 L263.145028,31.3063019 C263.146251,31.5216922 263.195926,31.7340907 263.290407,31.9279793 C263.384888,32.121868 263.521794,32.2923502 263.691129,32.4269678 C264.075301,32.6390525 264.507598,32.750354 264.947152,32.750354 C265.386705,32.750354 265.819003,32.6390525 266.203175,32.4269678 C266.332492,32.3450477 266.439799,32.2331486 266.515903,32.1009029 C266.592007,31.9686572 266.63461,31.8200269 266.640033,31.6678079 L266.640033,31.6678079 C266.649182,31.5036292 266.609117,31.3404409 266.524875,31.1988789 Z" id="Vector" fill="#E56C0C" fill-rule="nonzero" mask="url(#mask-2)"></path><path d="M272.431906,33.9555484 C271.899741,33.7503951 271.415465,33.439345 271.008812,33.041513 C270.613203,32.6135652 270.306634,32.1122275 270.106708,31.5662944 C269.906782,31.0203614 269.817438,30.4405883 269.84381,29.8602713 L269.84381,29.643367 C269.832794,28.8203052 270.006921,28.0051795 270.353496,27.2574371 C270.675473,26.5901725 271.180151,26.0264068 271.809755,25.6306668 C272.426826,25.2343026 273.150257,25.0326601 273.884916,25.0522582 C274.414524,25.0281392 274.943038,25.1191686 275.43353,25.3189817 C275.924021,25.5187949 276.364651,25.8225705 276.724606,26.2090737 C277.437005,27.1402275 277.78613,28.2958387 277.707565,29.462614 L277.707565,30.2940765 L271.846142,30.2940765 C271.885802,30.9441822 272.156754,31.5591551 272.610672,32.0292971 C272.826275,32.2384202 273.083145,32.4009778 273.365091,32.5067421 C273.647037,32.6125065 273.947975,32.6591897 274.248974,32.6438557 C274.679485,32.6524707 275.105795,32.5584934 275.492192,32.3697975 C275.87859,32.1811016 276.213819,31.9031836 276.469763,31.5593407 L277.561936,32.5715566 C277.205438,33.0978497 276.715767,33.5217442 276.142091,33.8006729 C275.504226,34.0963219 274.807204,34.2446354 274.103345,34.2344781 L274.103345,34.2344781 C273.532878,34.2556236 272.964072,34.1607017 272.431906,33.9555484 Z M273.14419,26.7777619 C272.910797,26.8779792 272.703444,27.0296566 272.537871,27.2212876 C272.178228,27.6826855 271.951708,28.2325063 271.882556,28.8119063 L275.52319,28.8119063 C275.5181,28.2652067 275.339773,27.7339808 275.013503,27.2935884 C274.733577,26.942926 274.330381,26.710451 273.884916,26.6428789 L273.884916,26.6428789 C273.630897,26.6314175 273.377583,26.6775445 273.14419,26.7777619 Z" id="Vector" fill="#E56C0C" mask="url(#mask-2)"></path><path d="M280.984141,26.2452466 C281.298299,25.884422 281.690991,25.599275 282.132505,25.4113846 C282.574019,25.2234942 283.052777,25.137782 283.532574,25.1607319 C284.033249,25.1072085 284.538476,25.2065694 284.980806,25.445557 C285.423135,25.6845445 285.781531,26.0517925 286.008206,26.4982988 C286.313537,26.0655402 286.723762,25.7161431 287.200984,25.4823685 C287.678205,25.2485938 288.20704,25.1379777 288.738681,25.1607319 C289.144446,25.129737 289.552216,25.1846011 289.935042,25.3216993 C290.317869,25.4587975 290.667038,25.6750074 290.95947,25.9560414 C291.48779,26.6500969 291.74633,27.5100648 291.687614,28.378123 L291.687614,34.0898981 L289.685254,34.0898981 L289.685254,28.3058222 C289.709532,27.8667728 289.580993,27.4327909 289.321196,27.0767058 C288.975512,26.7909011 288.532136,26.6484698 288.083366,26.6790518 C287.674904,26.6553843 287.272317,26.7843413 286.954779,27.0405562 C286.663339,27.289636 286.448787,27.6154774 286.335877,27.9804674 L286.335877,34.0898981 L284.297103,34.0898981 L284.297103,28.2335213 C284.328983,28.0188632 284.309208,27.7997605 284.239385,27.5941561 C284.169562,27.3885516 284.051689,27.2022946 283.895409,27.0506404 C283.73913,26.8989861 283.548891,26.7862469 283.340282,26.7216587 C283.131672,26.6570704 282.910631,26.6424702 282.695243,26.6790518 C282.3442,26.6516197 281.993007,26.7301335 281.687675,26.9043044 C281.382343,27.0784753 281.137112,27.3401776 280.984141,27.6551144 L280.984141,34.0898981 L278.981781,34.0898981 L278.981781,25.3053336 L280.984141,25.3053336 L280.984141,26.2452466 Z" id="Vector" fill="#E56C0C" fill-rule="nonzero" mask="url(#mask-2)"></path><path d="M221.972723,51.5246888 C221.440558,51.3195355 220.956268,51.0084854 220.549615,50.6106534 C220.140567,50.190403 219.822848,49.6911677 219.61618,49.1439262 C219.409512,48.5966847 219.318297,48.0131112 219.348199,47.4294117 L219.348199,47.2125109 C219.337183,46.389449 219.51131,45.5743199 219.857885,44.8265775 C220.163477,44.1486479 220.671953,43.5806399 221.314145,43.1998073 C221.931215,42.8034431 222.654646,42.6018023 223.389305,42.6214004 C223.920659,42.5813748 224.45408,42.6651142 224.947085,42.8659508 C225.440089,43.0667875 225.879047,43.3791702 226.228995,43.7782142 C226.941394,44.709368 227.290533,45.8649825 227.211968,47.0317578 L227.211968,47.8270656 L221.386959,47.8270656 C221.408097,48.485077 221.666472,49.1136785 222.115075,49.598441 C222.559912,50.0070403 223.147564,50.2274815 223.753363,50.2129996 C224.189025,50.2214879 224.620547,50.1276807 225.012789,49.9392206 C225.40503,49.7507605 225.746909,49.4729751 226.010566,49.1284845 L227.066339,50.140697 C226.721213,50.6768363 226.228443,51.1034137 225.646494,51.3698133 C225.021792,51.6661737 224.336396,51.8146638 223.644148,51.8036185 L223.644148,51.8036185 C223.073681,51.824764 222.504889,51.7298422 221.972723,51.5246888 Z M222.665147,44.3474367 C222.437642,44.4478396 222.236843,44.599517 222.078674,44.7904297 C221.682653,45.2301109 221.451235,45.7918208 221.423359,46.3810484 L225.063993,46.3810484 C225.064899,45.8273537 224.871833,45.2905837 224.517893,44.8627288 C224.237966,44.5120663 223.83477,44.2795914 223.389305,44.2120193 L223.389305,44.2120193 C223.140604,44.2006664 222.892653,44.2470338 222.665147,44.3474367 Z" id="Vector" fill="#E56C0C" mask="url(#mask-2)"></path><path d="M228.741058,51.6590223 L228.741058,39.042511 L230.743404,39.042511 L230.743404,51.6590223 L228.741058,51.6590223 Z" id="Vector" fill="#E56C0C" fill-rule="nonzero" mask="url(#mask-2)"></path><path d="M241.738127,49.7792095 C241.895202,49.6521778 242.022251,49.4924401 242.110323,49.3112875 C242.198395,49.130135 242.245339,48.9319854 242.247813,48.7308431 L244.140961,48.7308431 C244.133411,49.2771371 243.955325,49.8076471 243.631244,50.2491625 C243.304256,50.7423637 242.852217,51.1413529 242.320614,51.4059798 C241.748994,51.6648797 241.128564,51.800414 240.500297,51.8036337 C239.94986,51.8396182 239.398379,51.7509271 238.88752,51.5442621 C238.376661,51.3375972 237.919791,51.0183628 237.551392,50.6106686 C236.749968,49.6922243 236.344587,48.4975875 236.422804,47.2848258 L236.422804,46.9956223 C236.368249,45.8141858 236.757454,44.6547276 237.514978,43.7420815 C237.896826,43.3416407 238.361222,43.0277573 238.876438,42.8218715 C239.391654,42.6159857 239.945549,42.5229489 240.500297,42.5491164 C241.447569,42.5045798 242.374954,42.8288297 243.085144,43.4528781 C243.41999,43.762348 243.686687,44.1373203 243.868394,44.5541755 C244.050101,44.9710308 244.142883,45.4207321 244.140961,45.8749561 L242.247813,45.8749561 C242.250667,45.4033234 242.067759,44.9492651 241.738127,44.6096919 C241.573637,44.4535668 241.379431,44.331587 241.166889,44.2508922 C240.954347,44.1701974 240.727725,44.1324081 240.500297,44.1397354 C240.208626,44.124004 239.917435,44.1782 239.6513,44.2977482 C239.385165,44.4172964 239.151909,44.5986843 238.971237,44.8265928 C238.596137,45.4745597 238.407244,46.2122932 238.425136,46.9594711 L238.425136,47.2848258 C238.371777,48.0469701 238.562961,48.8063085 238.971237,49.4538552 C239.139284,49.6998442 239.368166,49.8988434 239.635913,50.0317756 C239.903659,50.1647077 240.201284,50.2271154 240.500297,50.2130147 L240.500297,50.2130147 C240.952876,50.2263074 241.394214,50.0716413 241.738127,49.7792095 Z" id="Vector" fill="#E56C0C" fill-rule="nonzero" mask="url(#mask-2)"></path><path d="M245.633598,44.6458136 C245.958453,43.9690898 246.477826,43.4030347 247.126244,43.0190399 C247.78018,42.6499745 248.522185,42.46266 249.274232,42.4767843 C249.820239,42.4512285 250.365491,42.5411428 250.87387,42.7405722 C251.382249,42.9400016 251.842145,43.2443946 252.223137,43.6335981 C252.996627,44.45809 253.426036,45.5434319 253.424553,46.6702378 L253.424553,47.1401943 C253.454604,47.9533995 253.279396,48.7611572 252.914866,49.4899733 C252.606138,50.1547122 252.113788,50.7188199 251.495021,51.116747 C250.814502,51.4853172 250.049283,51.6721616 249.274232,51.6590027 C248.71099,51.6834587 248.149108,51.5862241 247.627403,51.3740156 C247.105698,51.1618071 246.636596,50.8396816 246.252499,50.4298862 C245.455631,49.4946239 245.051546,48.2908656 245.123911,47.0678951 L245.123911,46.9955926 C245.115871,46.1844575 245.289986,45.3817404 245.633598,44.6458136 Z M247.708758,49.164622 C247.88498,49.4110259 248.120617,49.6096202 248.394099,49.7422428 C248.667582,49.8748655 248.970182,49.9372829 249.274232,49.9237819 C249.58763,49.9395616 249.899802,49.8746249 250.180474,49.7352753 C250.461146,49.5959256 250.700794,49.3868949 250.87612,49.1284707 C251.288485,48.4426533 251.479066,47.6477463 251.422193,46.8509908 C251.472767,46.0954453 251.267768,45.344771 250.839706,44.7181127 C250.670174,44.46257 250.436854,44.2549967 250.162503,44.1156177 C249.888152,43.9762387 249.582127,43.9098072 249.274232,43.9228016 C248.971142,43.9156241 248.670746,43.980833 248.398321,44.1129424 C248.125897,44.2450518 247.889412,44.4401974 247.708758,44.6819614 C247.207066,45.4523584 247.000364,46.3759188 247.126244,47.284796 L247.126244,46.9955926 C247.083692,47.7616619 247.287712,48.52131 247.708758,49.164622 Z" id="Vector" fill="#E56C0C" mask="url(#mask-2)"></path><path d="M256.846751,43.7782042 C257.166715,43.4006181 257.568981,43.1002519 258.023113,42.899834 C258.477245,42.6994161 258.971321,42.604199 259.467984,42.6213904 C261.336843,42.6213904 262.283431,43.6697535 262.307702,45.7664804 L262.307702,51.6590071 L260.305342,51.6590071 L260.305342,45.9110821 C260.329268,45.4608378 260.201147,45.0155495 259.941284,44.6458179 C259.782631,44.4961344 259.592773,44.3829217 259.385157,44.3142025 C259.17754,44.2454832 258.957236,44.2229366 258.739868,44.2481607 C258.362898,44.2324103 257.989562,44.326752 257.666027,44.519509 C257.342491,44.712266 257.082953,44.99498 256.919551,45.3326752 L256.919551,51.6590071 L254.844391,51.6590071 L254.844391,42.7659921 L256.846751,42.7659921 L256.846751,43.7782042 Z" id="Vector" fill="#E56C0C" fill-rule="nonzero" mask="url(#mask-2)"></path><path d="M269.301325,48.7781635 C269.224232,48.6378206 269.109583,48.5213535 268.970042,48.4416214 C268.520748,48.1840222 268.026819,48.0123565 267.513811,47.935517 C266.923093,47.825579 266.348351,47.6434392 265.802708,47.393258 C265.363606,47.2392319 264.982114,46.9561299 264.708979,46.5815949 C264.435845,46.2070598 264.283988,45.7588383 264.273621,45.2965309 C264.272089,44.9225405 264.360497,44.5535885 264.531464,44.2203456 C264.702431,43.8871026 264.951033,43.5991964 265.256608,43.3805572 C265.971738,42.857034 266.844352,42.5894444 267.73224,42.6213972 C268.655963,42.57324 269.568363,42.8412091 270.317087,43.3805572 C270.629741,43.6256 270.881135,43.9390739 271.051647,44.2965129 C271.222158,44.6539519 271.307162,45.045684 271.300046,45.4411327 L269.297714,45.4411327 C269.29632,45.0766049 269.152789,44.7267833 268.897242,44.4650718 C268.566865,44.2064611 268.152125,44.0777638 267.73224,44.1035658 C267.358758,44.0900615 266.990138,44.1910339 266.676453,44.3927692 C266.539185,44.483792 266.427216,44.6076735 266.350864,44.7529859 C266.274513,44.8982983 266.236227,45.060364 266.239567,45.2242318 C266.240622,45.3682853 266.277783,45.5098092 266.347698,45.6360345 C266.417613,45.7622599 266.518085,45.8692132 266.640039,45.9472404 C267.137623,46.1824627 267.663841,46.3525864 268.205512,46.4533484 C268.850873,46.568823 269.47618,46.7757914 270.062244,47.0679066 C270.457266,47.2552755 270.796106,47.5418969 271.045203,47.8993657 C271.267876,48.270647 271.381396,48.6964322 271.372874,49.1284822 C271.380272,49.5085538 271.294683,49.8847329 271.123475,50.2247428 C270.952267,50.5647526 270.700535,50.858441 270.389887,51.0806072 C269.6159,51.5924916 268.697632,51.845779 267.768654,51.8036159 C267.091032,51.8256376 266.41766,51.6894351 265.802708,51.405962 C265.258778,51.1793282 264.791403,50.8030456 264.455664,50.3214473 C264.153595,49.8848183 263.988885,49.3689681 263.982391,48.8392787 L265.766294,48.8392787 C265.757667,49.047355 265.799457,49.2544483 265.888147,49.4431632 C265.976837,49.6318782 266.109836,49.7967042 266.275981,49.9237934 C266.663393,50.145894 267.102852,50.2628178 267.550197,50.2628178 C267.997543,50.2628178 268.437001,50.145894 268.824414,49.9237934 C268.968179,49.8615208 269.09555,49.7671437 269.196582,49.6480114 C269.297614,49.528879 269.369596,49.3882032 269.406928,49.2369326 L269.406928,49.2369326 C269.414966,49.0772691 269.378417,48.9185064 269.301325,48.7781635 Z" id="Vector" fill="#E56C0C" fill-rule="nonzero" mask="url(#mask-2)"></path><path d="M277.042402,51.5851866 C276.607167,51.7605623 276.137454,51.835257 275.668832,51.8036078 C275.265438,51.8343688 274.860191,51.7757323 274.482415,51.6319357 C274.104638,51.4881391 273.763779,51.2627782 273.484457,50.9721487 C272.934653,50.2735569 272.662567,49.3986962 272.719927,48.5139159 L272.719927,42.7659912 L274.758673,42.7659912 L274.758673,48.5139159 C274.758673,49.6345804 275.231946,50.1768375 276.142104,50.1768375 C276.539025,50.2214542 276.940404,50.1493045 277.296384,49.969352 C277.652365,49.7893994 277.947271,49.509574 278.144464,49.1646254 L278.144464,42.7659912 L280.328839,42.7659912 L280.328839,51.6590061 L278.435721,51.6590061 L278.180878,50.7913957 C277.866982,51.138357 277.477637,51.4098108 277.042402,51.5851866 Z" id="Vector" fill="#E56C0C" fill-rule="nonzero" mask="url(#mask-2)"></path><path d="M283.969455,43.7059121 C284.290892,43.3443182 284.690088,43.0591086 285.137512,42.8713848 C285.584937,42.683661 286.069137,42.5982259 286.554302,42.6213975 C287.049113,42.5754821 287.546387,42.6785054 287.981425,42.9170617 C288.416463,43.1556181 288.769118,43.5186631 288.99352,43.9589643 C289.298851,43.5262058 289.709076,43.1768105 290.186298,42.9430358 C290.66352,42.7092611 291.192355,42.5986433 291.723996,42.6213975 C292.130141,42.585614 292.539272,42.6382375 292.922829,42.7755973 C293.306386,42.9129572 293.655138,43.1317477 293.944785,43.4167087 C294.464732,44.1011275 294.722814,44.9467574 294.672929,45.8026389 L294.672929,51.6590137 L292.670569,51.6590137 L292.670569,45.8749381 C292.694748,45.656338 292.675009,45.4351485 292.612517,45.22417 C292.550026,45.0131915 292.446028,44.8166177 292.306511,44.6458252 C292.142329,44.4932396 291.946285,44.3784898 291.732329,44.3097552 C291.518373,44.2410207 291.291758,44.2199912 291.068681,44.2481677 C290.660219,44.2245003 290.257631,44.3534589 289.940093,44.6096739 C289.651994,44.8550172 289.448345,45.1836447 289.357606,45.5495868 L289.357606,51.6590137 L287.355246,51.6590137 L287.355246,45.8026389 C287.373343,45.5876392 287.342747,45.3713437 287.265725,45.1696052 C287.188702,44.9678666 287.0672,44.7857964 286.910111,44.6367442 C286.753022,44.4876921 286.564327,44.3754338 286.357872,44.3081969 C286.151416,44.2409601 285.932448,44.2204495 285.716972,44.2481677 C285.366688,44.225653 285.017494,44.3062547 284.713126,44.479876 C284.408757,44.6534974 284.162736,44.9124232 284.005869,45.224232 L284.005869,51.6590137 L282.00351,51.6590137 L282.00351,42.7659993 L283.969455,42.7659993 L283.969455,43.7059121 Z" id="Vector" fill="#E56C0C" fill-rule="nonzero" mask="url(#mask-2)"></path><path d="M305.522021,49.7791827 C305.682175,49.6523986 305.813589,49.49349 305.907689,49.3128423 C306.001788,49.1321947 306.056463,48.9338679 306.068122,48.7308155 L307.961239,48.7308155 C307.936631,49.2741003 307.760145,49.799847 307.451553,50.2491358 C307.120173,50.7521074 306.653551,51.1528539 306.104536,51.4059531 C305.54706,51.6685285 304.937618,51.8043748 304.320605,51.803607 C303.765858,51.8297745 303.211963,51.7367377 302.696746,51.5308519 C302.18153,51.3249661 301.717134,51.0110827 301.335286,50.6106418 C300.560361,49.6792831 300.170063,48.4907271 300.243113,47.2847982 L300.243113,46.9955947 C300.188557,45.8141582 300.577763,44.6547002 301.335286,43.7420541 C301.707552,43.3293418 302.170397,43.0071151 302.688025,42.8002656 C303.205652,42.5934162 303.764209,42.5074798 304.320605,42.549089 C305.267878,42.5045523 306.19529,42.8288023 306.90548,43.4528506 C307.235244,43.7662512 307.498524,44.1419912 307.679842,44.5579543 C307.86116,44.9739173 307.956827,45.4216939 307.961239,45.8749287 L306.068122,45.8749287 C306.05363,45.4067231 305.873127,44.9586342 305.558435,44.6096645 C305.162186,44.2749453 304.648487,44.1098258 304.129868,44.1504817 C303.61125,44.1911375 303.129991,44.4342516 302.791545,44.8265653 C302.357676,45.4655831 302.140832,46.2255612 302.172644,46.9955947 L302.172644,47.3209495 C302.119285,48.0830938 302.310469,48.8424287 302.718745,49.4899754 C302.891706,49.7374764 303.127834,49.9348675 303.402919,50.0619151 C303.678005,50.1889627 303.982158,50.2411012 304.284219,50.2129879 L304.284219,50.2129879 C304.737353,50.2298561 305.179937,50.0747436 305.522021,49.7791827 Z" id="Vector" fill="#E56C0C" fill-rule="nonzero" mask="url(#mask-2)"></path><path d="M309.453911,44.6458147 C309.777523,43.9796312 310.281839,43.4162667 310.91017,43.019041 C311.575459,42.6453278 312.330415,42.4579154 313.094544,42.4767853 C313.636152,42.4418398 314.17878,42.5275823 314.682711,42.7277379 C315.186642,42.9278935 315.639135,43.2373963 316.007063,43.6335991 C316.790715,44.4544917 317.232861,45.5392073 317.244865,46.6702387 L317.244865,47.1401951 C317.256651,47.9517033 317.082359,48.7552381 316.735179,49.489974 C316.413202,50.1572387 315.908523,50.7210078 315.278919,51.1167477 C314.61363,51.4904609 313.858674,51.6778733 313.094544,51.6590033 C312.53101,51.6859167 311.968379,51.5898078 311.446299,51.3774466 C310.924219,51.1650855 310.455381,50.841637 310.072812,50.429887 C309.275943,49.4946247 308.871859,48.2908664 308.944224,47.067896 L308.944224,46.9955934 C308.918712,46.1827909 309.093684,45.376119 309.453911,44.6458147 Z M311.529071,49.1646227 C311.702886,49.4134968 311.938064,49.6139593 312.212134,49.7468668 C312.486204,49.8797742 312.790012,49.9406873 313.094544,49.9237826 C313.407428,49.9360979 313.718354,49.8696388 313.998426,49.7305873 C314.278497,49.5915359 314.518624,49.3844082 314.696432,49.1284714 C315.108797,48.4426541 315.299378,47.6477471 315.242505,46.8509917 C315.293079,46.0954462 315.08808,45.3447721 314.660018,44.7181139 C314.476634,44.4784042 314.239916,44.2840567 313.968344,44.1502599 C313.696773,44.0164631 313.397706,43.9468425 313.094544,43.9468425 C312.791383,43.9468425 312.492316,44.0164631 312.220745,44.1502599 C311.949173,44.2840567 311.712455,44.4784042 311.529071,44.7181139 C311.035922,45.4785971 310.829599,46.387785 310.946584,47.2847969 L310.946584,46.9955934 C310.904032,47.7616627 311.108024,48.5213108 311.529071,49.1646227 Z" id="Vector" fill="#E56C0C" mask="url(#mask-2)"></path><path d="M320.630656,43.7782036 C320.946766,43.4054818 321.343153,43.1080291 321.790547,42.9078041 C322.23794,42.7075792 322.724909,42.6096972 323.215503,42.6213897 C325.108632,42.6213897 326.055193,43.6697529 326.055193,45.7664798 L326.055193,51.6590061 L324.016447,51.6590061 L324.016447,45.9110816 C324.059502,45.4588856 323.929532,45.0071708 323.652389,44.6458173 C323.493736,44.4961339 323.303878,44.382921 323.096261,44.3142018 C322.888644,44.2454826 322.668341,44.222936 322.450973,44.24816 C322.074848,44.2369887 321.703383,44.333239 321.380714,44.5254797 C321.058046,44.7177203 320.797729,44.997875 320.630656,45.3326747 L320.630656,51.6590061 L318.628296,51.6590061 L318.628296,42.7659915 L320.630656,42.7659915 L320.630656,43.7782036 Z" id="Vector" fill="#E56C0C" fill-rule="nonzero" mask="url(#mask-2)"></path><path d="M332.939614,48.7781618 C332.862521,48.6378189 332.747872,48.5213518 332.608332,48.4416197 C332.145822,48.1843899 331.640014,48.0128955 331.115658,47.9355154 C330.526387,47.8199416 329.952335,47.6380118 329.404584,47.3932563 C328.972288,47.2333569 328.598584,46.9477319 328.332297,46.5736811 C328.066011,46.1996303 327.919504,45.7545388 327.91191,45.2965294 C327.910378,44.9225391 327.998759,44.5535871 328.169725,44.2203442 C328.340692,43.8871012 328.589294,43.5991951 328.894869,43.3805558 C329.607312,42.8517667 330.481842,42.5835893 331.370501,42.6213959 C332.293528,42.5790215 333.204069,42.8464367 333.955376,43.3805558 C334.268031,43.6255986 334.519424,43.9390725 334.689936,44.2965115 C334.860448,44.6539505 334.945452,45.0456825 334.938336,45.4411312 L332.935975,45.4411312 C332.936835,45.2570082 332.898348,45.0748019 332.823039,44.9065464 C332.747729,44.738291 332.637329,44.5878184 332.499117,44.4650704 C332.181579,44.2088555 331.778963,44.0798969 331.370501,44.1035644 C330.986264,44.0958203 330.607663,44.196075 330.278328,44.3927678 C330.150067,44.4899932 330.046887,44.6160658 329.977266,44.7606139 C329.907645,44.9051621 329.873569,45.0640578 329.877856,45.2242303 C329.871594,45.3655434 329.901727,45.5061068 329.965433,45.6326234 C330.029139,45.7591399 330.124306,45.8674258 330.241914,45.9472389 C330.755086,46.175017 331.292429,46.3447868 331.843802,46.4533469 C332.476067,46.5744097 333.088572,46.781198 333.664119,47.067905 C334.075377,47.245196 334.428474,47.5332035 334.683492,47.8993641 C334.986663,48.4202286 335.083782,49.0344839 334.955918,49.6225355 C334.828053,50.210587 334.484349,50.7303444 333.991763,51.0806054 C333.217776,51.5924897 332.29948,51.8457771 331.370501,51.803614 C330.704254,51.8297087 330.041732,51.6931708 329.44097,51.4059601 C328.89704,51.1793263 328.429692,50.8030437 328.093953,50.3214455 C327.776433,49.8924648 327.61008,49.3715557 327.620653,48.839277 L329.550185,48.839277 C329.556722,49.0485251 329.608943,49.2538663 329.703229,49.4411136 C329.797516,49.6283609 329.931625,49.7930493 330.096285,49.9237916 C330.476925,50.1463202 330.910597,50.2636676 331.352308,50.2636676 C331.79402,50.2636676 332.227692,50.1463202 332.608332,49.9237916 C332.728251,49.849038 332.829758,49.7485202 332.905366,49.6296478 C332.980975,49.5107754 333.028769,49.376575 333.045218,49.2369309 L333.045218,49.2369309 C333.053255,49.0772673 333.016706,48.9185047 332.939614,48.7781618 Z" id="Vector" fill="#E56C0C" fill-rule="nonzero" mask="url(#mask-2)"></path><path d="M341.4915,49.7791827 C341.651654,49.6523986 341.783068,49.49349 341.877168,49.3128423 C341.971267,49.1321947 342.025915,48.9338679 342.037573,48.7308155 L343.930719,48.7308155 C343.906111,49.2741003 343.729624,49.799847 343.421032,50.2491358 C343.089652,50.7521074 342.623002,51.1528539 342.073987,51.4059531 C341.516511,51.6685285 340.907097,51.8043748 340.290084,51.803607 C339.735337,51.8297745 339.181442,51.7367377 338.666226,51.5308519 C338.15101,51.3249661 337.686613,51.0110827 337.304765,50.6106418 C336.529841,49.6792831 336.139514,48.4907271 336.212564,47.2847982 L336.212564,46.9955947 C336.158009,45.8141582 336.547242,44.6547002 337.304765,43.7420541 C337.677031,43.3293418 338.139849,43.0071151 338.657476,42.8002656 C339.175104,42.5934162 339.733688,42.5074798 340.290084,42.549089 C341.237357,42.5045523 342.164742,42.8288023 342.874931,43.4528506 C343.204695,43.7662512 343.467976,44.1419912 343.649294,44.5579543 C343.830612,44.9739173 343.926307,45.4216939 343.930719,45.8749287 L342.219616,45.8749287 C342.205124,45.4067231 342.024621,44.9586342 341.709929,44.6096645 C341.313681,44.2749453 340.799981,44.1098258 340.281363,44.1504817 C339.762744,44.1911375 339.281485,44.4342516 338.94304,44.8265653 C338.542199,45.4638915 338.351314,46.2094067 338.396939,46.9594434 L338.396939,47.2847982 C338.34358,48.0469425 338.534764,48.8062808 338.94304,49.4538276 C339.087998,49.6719232 339.281658,49.85388 339.508972,49.9855478 C339.736286,50.1172156 339.991129,50.1950465 340.25367,50.2129879 L340.25367,50.2129879 C340.706804,50.2298561 341.149416,50.0747436 341.4915,49.7791827 Z" id="Vector" fill="#E56C0C" fill-rule="nonzero" mask="url(#mask-2)"></path><path d="M345.523247,39.8698759 C345.656287,39.7011288 345.832645,39.5710823 346.033794,39.4934074 C346.234943,39.4157326 346.453461,39.3932982 346.666361,39.4284585 C346.879261,39.4636188 347.078682,39.5550744 347.243682,39.6932187 C347.34722,39.7911335 347.429647,39.9089135 347.48597,40.0394105 C347.542294,40.1699075 347.571353,40.3104021 347.571353,40.4523786 C347.578559,40.5953389 347.552782,40.7380455 347.495998,40.8696112 C347.439213,41.001177 347.352907,41.1181264 347.243682,41.2115385 C347.005508,41.399219 346.710409,41.5013661 346.406351,41.5013661 C346.102294,41.5013661 345.807167,41.399219 345.568993,41.2115385 C345.472023,41.110604 345.396326,40.9914706 345.346314,40.861113 C345.296303,40.7307553 345.272976,40.5917949 345.277736,40.4523786 L345.277736,40.4523786 C345.305394,40.2398384 345.390206,40.0386231 345.523247,39.8698759 Z M345.386978,51.6590242 L345.386978,42.7660098 L347.425725,42.7660098 L347.425725,51.6590242 L345.386978,51.6590242 Z" id="Vector" fill="#E56C0C" mask="url(#mask-2)"></path><path d="M351.688533,51.524688 C351.156368,51.3195347 350.672065,51.0084846 350.265411,50.6106526 C349.862889,50.1873904 349.551886,49.6867947 349.35153,49.1396888 C349.151175,48.5925829 349.065708,48.0105462 349.100409,47.4294114 L349.100409,47.2125105 C349.036258,46.3966853 349.173733,45.5776442 349.500881,44.8265772 C349.806473,44.1486476 350.314949,43.5806395 350.95714,43.199807 C351.574211,42.8034428 352.297642,42.601802 353.032301,42.6214001 C353.557695,42.5870901 354.083979,42.6736232 354.570193,42.8742661 C355.056407,43.0749089 355.489426,43.3842488 355.835577,43.7782138 C356.576498,44.6962279 356.940614,45.8583908 356.85495,47.0317575 L356.85495,47.8270652 L351.102769,47.8270652 C351.137071,48.4890812 351.408171,49.1172133 351.867299,49.5984406 C352.078642,49.8030262 352.329539,49.962961 352.604858,50.0685866 C352.880177,50.1742123 353.174189,50.2233381 353.469159,50.2129987 C353.905286,50.2244379 354.337849,50.1319373 354.730571,49.9432465 C355.123292,49.7545558 355.464746,49.475168 355.726362,49.1284841 L356.818563,50.1406962 C356.462065,50.6669893 355.972394,51.0908837 355.398718,51.3698125 C354.760853,51.6654615 354.063803,51.813775 353.359944,51.8036176 C352.789477,51.8247632 352.220699,51.7298413 351.688533,51.524688 Z M352.400789,44.3469054 C352.167396,44.4471228 351.960043,44.5987984 351.79447,44.7904294 C351.428121,45.2479542 351.200789,45.799743 351.139155,46.3810481 L354.779789,46.3810481 C354.774699,45.8343484 354.596372,45.3031209 354.270103,44.8627285 C353.990176,44.512066 353.58698,44.279591 353.141515,44.2120189 L353.141515,44.2120189 C352.887497,44.2005576 352.634182,44.246688 352.400789,44.3469054 Z" id="Vector" fill="#E56C0C" mask="url(#mask-2)"></path><path d="M360.204364,43.7782036 C360.520473,43.4054818 360.916861,43.1080291 361.364255,42.9078041 C361.811648,42.7075792 362.298617,42.6096972 362.78921,42.6213897 C364.658069,42.6213897 365.60463,43.6697529 365.628901,45.7664798 L365.628901,51.6590061 L363.699369,51.6590061 L363.699369,45.9110816 C363.742425,45.4588856 363.612455,45.0071708 363.335311,44.6458173 C363.176658,44.4961339 362.9868,44.382921 362.779183,44.3142018 C362.571566,44.2454826 362.351263,44.222936 362.133895,44.24816 C361.75777,44.2369887 361.386306,44.333239 361.063637,44.5254797 C360.740968,44.7177203 360.480651,44.997875 360.313578,45.3326747 L360.313578,51.6590061 L358.311218,51.6590061 L358.311218,42.7659915 L360.204364,42.7659915 L360.204364,43.7782036 Z" id="Vector" fill="#E56C0C" fill-rule="nonzero" mask="url(#mask-2)"></path><path d="M370.106888,42.7660141 L371.672334,42.7660141 L371.672334,44.2481825 L370.106888,44.2481825 L370.106888,49.2007957 C370.033889,49.4363484 370.033889,49.6882551 370.106888,49.9238077 C370.200655,50.0185105 370.315043,50.0905715 370.441281,50.1344443 C370.56752,50.1783172 370.702227,50.1928297 370.835004,50.1768599 C371.076425,50.2119732 371.321699,50.2119732 371.56312,50.1768599 L371.56312,51.7313309 C371.126107,51.8598527 370.671794,51.9208145 370.216103,51.9120805 C368.687037,51.9120805 367.922486,51.0806205 367.922486,49.3815487 L367.922486,44.2481825 L366.42984,44.2481825 L366.42984,42.7660141 L367.922486,42.7660141 L367.922486,40.5969849 L370.106888,40.5969849 L370.106888,42.7660141 Z" id="Vector" fill="#E56C0C" fill-rule="nonzero" mask="url(#mask-2)"></path><path d="M30.1080752,55.3825268 C28.19878,55.090139 26.3882623,54.3462271 24.8291548,53.2135009 C23.3178254,52.0940096 22.1872523,50.5425136 21.5889892,48.7669917 C20.992164,47.0303656 20.6608268,45.2147268 20.6060181,43.3805731 C20.6060181,41.6092002 20.6060181,39.4401706 20.6060181,36.9819389 C20.6060181,34.5237071 20.6060181,32.354681 20.6060181,30.5471577 C20.6781941,28.7620479 21.0092587,26.9966047 21.5889892,25.3053408 C22.1974851,23.5350589 23.3260379,21.9863369 24.8291548,20.8588329 C26.388217,19.7326828 28.2000935,19.0006179 30.1080752,18.7259549 C32.3876448,18.2905693 34.7039245,18.072675 37.0252785,18.0752471 C39.3189081,18.0397507 41.6107273,18.2213237 43.8696709,18.6175044 C45.7795728,18.9037336 47.5979446,19.6210231 49.1849968,20.7142312 C50.7323788,21.8681045 51.8779548,23.4732804 52.4615661,25.3053408 L52.4615661,25.3053408 C53.034681,27.0107457 53.365525,28.7871714 53.4445389,30.583309 C53.4445389,32.3908323 53.6265678,34.5598593 53.6265678,37.0542415 C53.6265678,39.5486236 53.6265678,41.6815002 53.4445389,43.4890235 C53.3439002,45.2944722 53.0136189,47.0800244 52.4615661,48.803143 C51.8537799,50.5934102 50.7107824,52.1571398 49.1849968,53.2858 C47.5975601,54.3851058 45.7805806,55.1142046 43.8696709,55.4186781 C41.6060668,55.7705195 39.3161086,55.9277551 37.0252785,55.8886346 L37.0252785,55.8886346 C34.7091422,55.9188911 32.3947307,55.7495528 30.1080752,55.3825268 Z M29.1251023,26.5344572 C28.7752153,26.8274988 28.5216323,27.2177908 28.3969762,27.6551214 C28.032817,28.740115 27.8364171,29.8736586 27.8144736,31.0171142 C27.8144736,32.6800356 27.8144736,34.6321593 27.8144736,37.0180902 C27.8144736,39.404021 27.8144736,41.3199977 27.8144736,42.9829192 C27.8412998,44.123064 28.0250343,45.2542071 28.360569,46.3449102 C28.5011191,46.7839188 28.7666509,47.1731408 29.1251023,47.4655762 C29.3178359,47.5977622 29.5255677,47.7069653 29.7440104,47.7909309 C29.148807,47.0432352 28.7150572,46.1818326 28.4697888,45.260399 C28.2190546,44.0702123 28.0728788,42.8606532 28.0329114,41.6453523 C28.0329114,40.4523869 28.0329114,38.8617631 28.0329114,36.9819389 C28.0329114,35.1021147 28.0329114,33.3668959 28.0329114,32.2823819 C28.0678955,31.0667091 28.2141241,29.8567108 28.4697888,28.6673335 C28.7532829,27.7686304 29.2108627,26.9335801 29.8168213,26.2091024 L29.7440104,26.2091024 L29.1251023,26.5344572 Z M45.5443627,28.7396344 C45.8401593,29.9220414 45.9869075,31.1363523 45.9812384,32.354681 C45.9812384,33.5837969 45.9812384,35.1382668 45.9812384,37.0542415 C45.9812384,38.9702161 45.9812384,40.669288 45.9812384,41.7176515 C45.9807756,42.9356226 45.8341162,44.1491979 45.5443627,45.3326981 C45.3192382,46.2545742 44.8970888,47.1175951 44.3065466,47.8632301 C44.5251706,47.7648528 44.7326399,47.643672 44.9254547,47.5017275 C45.2773535,47.2409938 45.5331905,46.8726366 45.6535808,46.4533641 C45.9987147,45.3375981 46.2065298,44.1844395 46.2724889,43.019067 C46.2724889,41.3561455 46.2724889,39.4040225 46.2724889,37.0903928 C46.2724889,34.776763 46.2724889,32.7884861 46.2724889,31.1255646 C46.2188081,29.8996366 46.0108909,28.6851935 45.6535808,27.5105197 C45.5357164,27.0900689 45.2793603,26.7209642 44.9254547,26.4621563 L44.3065466,26.2091024 C44.9106491,26.9462306 45.3343552,27.8124339 45.5443627,28.7396344 Z M38.6271559,42.7660149 C38.6535685,42.3084845 38.6535685,41.8498271 38.6271559,41.3922967 C38.6271559,40.2354818 38.6271559,38.7533118 38.6271559,36.9819389 C38.6271559,35.210566 38.6271559,33.6922481 38.6271559,32.5354332 C38.6535685,32.0779028 38.6535685,31.6192463 38.6271559,31.1617159 C37.7169974,31.1617159 36.4427784,31.1617159 35.5690263,31.1617159 C35.5690263,31.4870701 35.5690263,31.9208752 35.5690263,32.5354332 C35.5690263,33.6922481 35.5690263,35.1744156 35.5690263,36.9819389 C35.5690263,38.7894622 35.5690263,40.2354818 35.5690263,41.3922967 C35.4234009,42.0430052 35.4598056,42.476812 35.4962119,42.8021662 L35.5690263,42.7660149 C36.5871046,42.838285 37.6090776,42.838285 38.6271559,42.7660149 Z" id="Vector" fill="#FFFFFF" mask="url(#mask-2)"></path><path d="M30.9818115,55.5270996 L30.9818115,18.4728744 L68.6623752,18.4728744 C70.6794284,18.4118884 72.690675,18.7181942 74.5966056,19.376636 C76.3403117,19.9985094 77.8687189,21.1022617 79.0017764,22.5578754 L79.0017764,22.5578754 C80.0126788,23.9263083 80.6860427,25.5112216 80.9677152,27.1851362 C81.2424448,28.8217386 81.3764203,30.4785888 81.3681871,32.1377512 C81.3837187,33.711771 81.2619075,35.2841657 81.0041223,36.8373089 C80.7165638,38.4972565 80.0707471,40.0757844 79.110991,41.4645709 C78.0208081,42.9888129 76.5007283,44.1585958 74.7422343,44.8265618 C71.1467256,45.5386288 67.4864441,45.8778565 63.8203322,45.8387773 L63.8203322,45.8387773 L62.6553235,53.7557276 L30.9818115,55.5270996 Z M58.2501596,48.2970066 L58.2501596,25.7029676 L57.922502,25.7029676 L57.813284,48.2970066 L58.2501596,48.2970066 Z M73.5772256,29.4264663 C73.6419492,30.3290853 73.6419492,31.2351322 73.5772256,32.1377512 C73.5874257,33.0688463 73.5265771,33.9993691 73.3951967,34.9213352 L73.3951967,34.9213352 C73.25705,36.0892347 72.7614848,37.186961 71.9753516,38.0664253 C72.3761264,37.9240181 72.7290807,37.6736774 72.9947247,37.3434166 C73.3452665,36.8063465 73.5807275,36.2033787 73.6864471,35.5720447 C73.8714413,34.4367738 73.9567092,33.2876855 73.9412904,32.1377512 C73.9499026,30.9266314 73.8524524,29.7170594 73.6500399,28.522703 C73.5750807,27.9227032 73.3497679,27.3509534 72.9947247,26.8597814 L72.9947247,26.8597814 C72.784089,26.5823061 72.5094036,26.3591417 72.1937877,26.2090737 L72.1937877,26.2090737 C72.9846011,27.1101402 73.468752,28.2361113 73.5772256,29.4264663 Z M70.0094059,34.3790796 L66.3687719,33.8368206 L70.0094059,34.3790796 Z" id="Vector" fill="#FFFFFF" mask="url(#mask-2)"></path><path d="M73.322401,22.7386492 C71.8175669,22.260468 70.2416784,22.0404163 68.6623937,22.0879415 L54.0998535,22.0879415 L54.0998535,51.912075 L61.8908119,51.912075 L61.8908119,42.2237508 L68.6259865,42.2237508 C70.2743265,42.2851907 71.9189434,42.0273393 73.4680297,41.4645909 C74.5780541,41.0697101 75.5423369,40.3515793 76.2349125,39.404012 C76.8839389,38.4330553 77.3182333,37.3364751 77.5091359,36.1866236 C77.7371272,34.8490856 77.8467584,33.4942974 77.8367866,32.1377718 C77.8510917,30.6971562 77.7414808,29.2579569 77.5091359,27.8358644 C77.2679872,26.6921296 76.7702201,25.6171078 76.0528766,24.6907743 L76.0528766,24.6907743 C75.3471626,23.7965362 74.4003049,23.1195902 73.322401,22.7386492 Z M69.3700039,35.6962954 C69.0152591,36.0485469 68.5440137,36.2612641 68.0434856,36.295074 C67.2397914,36.4458258 66.4215864,36.5064574 65.6042604,36.475827 L61.8908119,36.475827 L61.8908119,27.7997149 L65.8226965,27.7997149 C66.6228464,27.7497698 67.4253647,27.7497698 68.2255145,27.7997149 C68.7150086,27.8679727 69.1720698,28.0822894 69.5361451,28.4142731 C69.8528771,28.7934551 70.0436379,29.2606927 70.0822388,29.7518382 C70.1269609,30.4982879 70.1269609,31.2467203 70.0822388,31.9931701 C70.0977023,32.7899871 70.0612172,33.5869621 69.9730173,34.3791003 L69.9730173,34.3791003 C69.9389681,34.8761105 69.7247487,35.3440438 69.3700039,35.6962954 Z" id="Vector" fill="#353535" mask="url(#mask-2)"></path><path d="M91.5619784,46.453336 C90.8417542,46.3914619 90.1448701,46.1690361 89.5232252,45.8026265 C88.9894314,45.4251324 88.6035579,44.8759293 88.4310377,44.2481553 C88.177036,43.3526059 88.0303927,42.4304112 87.9941585,41.5007191 C87.9941585,40.3439042 87.9941585,38.8978862 87.9941585,37.1626638 C87.9941585,35.4274415 87.9941585,33.9452713 87.9941585,32.7884564 C88.0303927,31.8587644 88.177036,30.936573 88.4310377,30.0410236 C88.6233456,29.4325206 89.0059101,28.9006892 89.5232252,28.5227025 C90.1337818,28.1270573 90.8350162,27.8908098 91.5619784,27.8358434 C92.6653308,27.7707357 93.7716026,27.7707357 94.874955,27.8358434 L96.2583999,27.8358434 L98.1879316,27.8358434 L100.663564,28.0888973 L100.663564,22.5217256 C99.8886623,22.3103767 99.0969727,22.165246 98.2971531,22.0879204 C97.4234009,22.0879204 96.5132432,21.871017 95.6030846,21.8348665 L92.872609,21.8348665 C91.0326237,21.7744193 89.191139,21.8955144 87.3752504,22.1963708 C86.0680355,22.4231661 84.8259273,22.9288523 83.734616,23.6785412 C82.768771,24.3868808 82.0241693,25.3518183 81.5866413,26.462127 C81.058336,27.8559928 80.7275179,29.3159549 80.6036684,30.8001836 C80.4130268,32.8672069 80.3279708,34.9424918 80.3488251,37.0180621 C80.2983888,39.1405888 80.3591523,41.2642849 80.530861,43.380545 C80.6547106,44.8647737 80.9855217,46.3247345 81.5138269,47.7186002 C81.951355,48.8289089 82.6959567,49.7938482 83.6618017,50.5021878 C84.7531129,51.2518766 85.9952211,51.757561 87.3024361,51.9843563 C89.1743674,52.3336876 91.0774893,52.4911665 92.9818305,52.4543128 L95.7123061,52.4543128 L98.479182,52.2012572 L100.809193,51.8759059 L100.809193,46.0556787 C99.8323369,46.2059455 98.8478597,46.3024937 97.8602739,46.3448821 L94.874955,46.453336 C93.7716026,46.5184437 92.6653308,46.5184437 91.5619784,46.453336 Z" id="Vector" fill="#353535" fill-rule="nonzero" mask="url(#mask-2)"></path><path d="M112.167947,22.0879211 L112.167947,51.9482059 L104.559021,51.9482059 L104.559021,22.0879211 L112.167947,22.0879211 Z" id="Vector" fill="#353535" mask="url(#mask-2)"></path><path d="M139.327083,23.6785702 C138.187471,22.8938258 136.878024,22.3861097 135.50442,22.1963999 C133.462677,21.8297651 131.389979,21.6602728 129.315339,21.6902939 C127.229844,21.6498217 125.145224,21.8071883 123.089858,22.1602504 C121.779649,22.3766685 120.535331,22.8832527 119.449224,23.6424189 C118.530524,24.3410321 117.845372,25.2985388 117.483278,26.3898552 C116.94407,27.8054861 116.613013,29.2908556 116.500305,30.8002124 C116.500305,32.5354347 116.500305,34.5960095 116.500305,37.0180907 C116.500305,39.4401719 116.500305,41.464598 116.500305,43.1998203 C116.557807,44.6881423 116.827474,46.1608587 117.301249,47.5740266 C117.672624,48.6706725 118.355332,49.6373376 119.267181,50.357614 C120.364248,51.0895424 121.605036,51.5823678 122.907815,51.8036312 C124.963181,52.1566933 127.047815,52.31406 129.13331,52.2735877 C131.206773,52.3155379 133.279448,52.158152 135.322377,51.8036312 C136.688718,51.6086679 137.994397,51.1147681 139.145054,50.357614 C140.088389,49.6596833 140.788469,48.6864542 141.1474,47.5740266 C141.617016,46.2204568 141.898721,44.8096655 141.984745,43.3805733 C141.984745,41.645351 142.166774,39.7655266 142.166774,37.1988437 C142.166774,34.6321608 142.239589,32.5354347 141.984745,30.8002124 C141.974414,29.318809 141.753804,27.8462479 141.329429,26.4260048 L141.329429,26.4260048 C140.979684,25.3188133 140.276917,24.3545394 139.327083,23.6785702 Z M134.375819,44.3204862 C134.296259,44.8857419 134.012229,45.4029199 133.576763,45.7754533 C133.141298,46.1479867 132.584164,46.3504041 132.009401,46.3449103 C131.148358,46.3890857 130.285596,46.3890857 129.424554,46.3449103 C128.587804,46.3892778 127.749271,46.3892778 126.912521,46.3449103 C126.339265,46.3099996 125.785992,46.1227136 125.310633,45.8026547 C124.887987,45.4085729 124.606723,44.888066 124.509703,44.3204862 C124.297612,43.4196787 124.187708,42.4981313 124.182046,41.5730501 C124.182046,40.3800847 124.182046,38.8617644 124.182046,37.0180907 C124.182046,35.174417 124.182046,33.6199453 124.182046,32.4631305 C124.185597,31.5259918 124.295511,30.592238 124.509703,29.6795465 C124.597982,29.1193021 124.881415,28.6075734 125.310633,28.233528 C125.774558,27.8864203 126.332421,27.6849905 126.912521,27.6551211 C127.749271,27.6107536 128.587804,27.6107536 129.424554,27.6551211 C130.285596,27.6109458 131.148358,27.6109458 132.009401,27.6551211 C132.578037,27.6712178 133.123744,27.8812812 133.554723,28.2499764 C133.985702,28.6186716 134.275661,29.1235014 134.375819,29.6795465 C134.595516,30.6157884 134.705466,31.5741132 134.703476,32.5354331 C134.703476,33.6922479 134.703476,35.2467196 134.703476,37.0903933 C134.703476,38.9340669 134.703476,40.3800847 134.703476,41.5730501 C134.697814,42.4981313 134.58791,43.4196787 134.375819,44.3204862 Z" id="Vector" fill="#353535" mask="url(#mask-2)"></path><path d="M164.119815,38.1025765 L154.326501,22.0879211 L146.499146,22.0879211 L146.499146,51.9482059 L153.780414,51.9482059 L153.780414,34.4513787 L153.998843,34.4513787 L164.483873,51.9482059 L171.619513,51.9482059 L171.619513,22.0879211 L164.301844,22.0879211 L164.301844,38.1025765 L164.119815,38.1025765 Z" id="Vector" fill="#353535" fill-rule="nonzero" mask="url(#mask-2)"></path><path d="M197.868457,38.5725472 C197.766529,38.1091073 197.607585,37.6598783 197.395184,37.2349804 C197.071264,36.5097541 196.585787,35.8669955 195.975339,35.3551536 C195.412066,34.9222537 194.768943,34.602956 194.082208,34.4152441 C193.348391,34.1877695 192.591304,34.0422653 191.825005,33.9814355 L185.854368,33.2584269 C185.213827,33.1935701 184.580315,33.0725995 183.961237,32.8969243 C183.773037,32.8344588 183.604028,32.725293 183.470229,32.5797817 C183.336431,32.4342703 183.242281,32.2572349 183.196707,32.0654618 C183.121723,31.513655 183.121723,30.954347 183.196707,30.4025402 C183.130937,29.934853 183.130937,29.4603614 183.196707,28.9926742 C183.317136,28.5917167 183.591815,28.2540231 183.961237,28.0527613 C184.504115,27.8228368 185.083089,27.6882851 185.672339,27.6551057 C186.569755,27.6087354 187.468999,27.6087354 188.366415,27.6551057 L191.315318,27.6551057 L194.373452,27.835857 L196.921898,28.0889108 L196.921898,22.5940402 C196.011407,22.3830661 195.086683,22.2380827 194.155022,22.160235 C193.062832,22.160235 191.897829,21.9071812 190.514388,21.8348803 L186.873755,21.8348803 C185.350624,21.8260324 183.829107,21.9348123 182.322963,22.160235 C181.035847,22.3110423 179.795272,22.7298722 178.682328,23.3893498 C177.620805,24.0220157 176.771967,24.9529425 176.243096,26.064485 C175.603553,27.5470054 175.30505,29.1525011 175.369338,30.7640462 C175.365387,31.9736206 175.450575,33.1818611 175.624195,34.3790928 C175.783836,35.3178639 176.103965,36.2226147 176.570754,37.0542274 C177.000047,37.7887518 177.614947,38.3993237 178.354671,38.8255994 C179.247588,39.3339869 180.241618,39.6424386 181.267175,39.729361 L187.419842,40.5246723 L189.130944,40.7777244 C189.494949,40.8445175 189.834336,41.0067776 190.113916,41.2476809 C190.344254,41.4721132 190.497172,41.7631567 190.550789,42.0791434 C190.596832,42.572142 190.596832,43.0683133 190.550789,43.561312 C190.570236,43.9225587 190.570236,44.2845799 190.550789,44.6458266 C190.57552,44.9103613 190.57552,45.1765997 190.550789,45.4411344 C190.434792,45.6948203 190.260169,45.9177608 190.041102,46.0918439 C189.528767,46.3472234 188.973372,46.5065429 188.402815,46.5618004 C187.34823,46.6324747 186.290051,46.6324747 185.235467,46.5618004 L182.723421,46.5618004 C181.740449,46.5618004 180.721077,46.5617997 179.628887,46.3810474 L176.352311,46.1279952 L176.352311,51.7313181 L179.992945,52.0566694 C181.267167,52.0566694 182.614202,52.2735719 183.961237,52.3458729 L187.601871,52.3458729 C188.80328,52.3458729 189.968282,52.3458729 191.242504,52.3458729 C192.265173,52.2573662 193.270168,52.0261394 194.227823,51.6590155 C195.112367,51.3045242 195.907767,50.7615393 196.55784,50.0683965 C197.250942,49.2714434 197.760368,48.3337771 198.0505,47.3209603 C198.411723,45.9034802 198.583095,44.4448855 198.560186,42.9829051 C198.486778,42.1213113 198.365229,41.2644306 198.196115,40.4162218 L198.196115,40.4162218 C198.196115,39.7173128 198.086895,39.102754 197.868457,38.5725472 Z" id="Vector" fill="#353535" fill-rule="nonzero" mask="url(#mask-2)"></path><path d="M47.0370178,23.678567 C45.890675,22.906451 44.5842868,22.3999219 43.2143514,22.1963968 C41.1724021,21.8313228 39.0998605,21.661843 37.0252741,21.6902907 C34.939697,21.6469106 32.8547935,21.8042984 30.7997897,22.1602472 C29.4878352,22.3705398 28.2421755,22.8776703 27.1591557,23.6424157 C26.2302386,24.3389917 25.5328025,25.2959481 25.1568062,26.3898519 C24.7143934,27.8094005 24.4574463,29.279499 24.3922729,30.7640588 C24.3922729,32.4992811 24.3922729,34.5598551 24.3922729,36.9819363 C24.3922729,39.4040176 24.3922729,41.4284438 24.3922729,43.1636661 C24.4574463,44.6482258 24.7143934,46.118324 25.1568062,47.5378725 C25.5418761,48.6370729 26.2368995,49.6032675 27.1591557,50.32146 C28.2530317,51.0593678 29.4951687,51.5527291 30.7997897,51.7674773 C32.8547935,52.1234261 34.939697,52.2808139 37.0252741,52.2374337 C39.0986922,52.2778118 41.1712251,52.1204374 43.2143514,51.7674773 C44.5771591,51.559102 45.8800116,51.0662672 47.0370178,50.32146 C47.9701977,49.6137055 48.667784,48.6439481 49.0393673,47.5378725 C49.4638375,46.1882104 49.7205856,44.7920926 49.8039006,43.3805704 C49.8039006,41.6453481 49.9859295,39.7655236 49.9859295,37.1988407 C49.9859295,34.6321577 49.9859295,32.7161819 49.8039006,30.9809596 C49.7545611,29.435599 49.4974404,27.9037186 49.0393673,26.4260014 L49.0393673,26.4260014 C48.6759189,25.325695 47.9759821,24.365309 47.0370178,23.678567 Z M41.9401315,44.3204833 C41.8431114,44.8880631 41.5618369,45.40857 41.1391911,45.8026518 C40.6743247,46.1166721 40.1344195,46.3036857 39.5737173,46.3449074 C38.7248451,46.3900818 37.8741463,46.3900818 37.0252741,46.3449074 C36.1763546,46.3882884 35.3257506,46.3882884 34.476831,46.3449074 C33.8646613,46.3382979 33.2685792,46.1493977 32.765732,45.8026518 C32.3451947,45.4016544 32.0538065,44.8858716 31.9283878,44.3204833 C31.7162963,43.4196758 31.6063928,42.4981283 31.6007302,41.5730471 C31.6007302,40.3800817 31.6007302,38.8617613 31.6007302,37.0180876 C31.6007302,35.1744139 31.6007302,33.619943 31.6007302,32.4631282 C31.6042821,31.5259895 31.7141955,30.5922356 31.9283878,29.6795441 C32.0427187,29.1203209 32.3365139,28.6129603 32.765732,28.2335247 C33.2150884,27.8851889 33.7618342,27.6831795 34.3312058,27.6551178 C35.1801254,27.6117369 36.0307293,27.6117369 36.8796489,27.6551178 C37.7285211,27.6099434 38.5792199,27.6099434 39.4280921,27.6551178 C39.9960503,27.6898989 40.5408557,27.8911914 40.9935658,28.2335247 C41.422784,28.6075701 41.7062245,29.1192997 41.7945028,29.6795441 C42.0086952,30.5922356 42.1186085,31.5259895 42.1221605,32.4631282 C42.1221605,33.619943 42.1221605,35.1744139 42.1221605,37.0180876 C42.1221605,38.8617613 42.3405984,40.3800817 42.2677857,41.5730471 C42.2621231,42.4981283 42.152223,43.4196758 41.9401315,44.3204833 Z" id="Vector" fill="#353535" mask="url(#mask-2)"></path><path d="M208,22 L210,22 L210,53 L208,53 L208,22 Z" id="Rectangle-70" fill="#E5E5E5" mask="url(#mask-2)"></path></g></g></g></g></svg>