<?xml version="1.0" encoding="UTF-8"?>
<svg id="Logo_IDHC_blau" data-name="Logo IDHC blau" xmlns="http://www.w3.org/2000/svg" viewBox="0 0 500 174.13">
  <defs>
    <style>
      .cls-1 {
        fill: #2400d8;
        stroke-width: 0px;
      }
    </style>
  </defs>
  <g id="Institut_de_Drets_Humans_de_Catalunya" data-name="Institut de Drets Humans de Catalunya">
    <g>
      <path class="cls-1" d="m314.19,48.3v16.96h-2.56v-16.96h2.56Z"/>
      <path class="cls-1" d="m320.78,57.71v7.55h-2.48v-12.72h2.38v2.07h.16c.29-.67.75-1.21,1.38-1.62.63-.41,1.42-.61,2.37-.61.87,0,1.63.18,2.28.54.65.36,1.16.9,1.52,1.61.36.71.54,1.59.54,2.64v8.09h-2.48v-7.79c0-.92-.24-1.64-.72-2.17-.48-.52-1.14-.78-1.98-.78-.57,0-1.08.12-1.53.37-.44.25-.8.61-1.05,1.09-.26.48-.38,1.05-.38,1.73Z"/>
      <path class="cls-1" d="m342.34,55.65l-2.24.4c-.09-.29-.24-.56-.44-.82-.2-.26-.47-.47-.82-.64-.34-.17-.77-.25-1.28-.25-.7,0-1.29.16-1.76.47-.47.31-.7.71-.7,1.2,0,.43.16.77.47,1.03.32.26.82.47,1.52.64l2.02.46c1.17.27,2.04.69,2.62,1.25.57.56.86,1.3.86,2.19,0,.76-.22,1.44-.66,2.03-.44.59-1.05,1.06-1.83,1.39-.78.34-1.69.51-2.71.51-1.42,0-2.59-.31-3.49-.92s-1.45-1.48-1.66-2.6l2.39-.36c.15.62.46,1.09.92,1.41.46.32,1.07.48,1.81.48.81,0,1.46-.17,1.95-.51.49-.34.73-.76.73-1.25,0-.4-.15-.73-.44-1s-.75-.47-1.35-.61l-2.15-.47c-1.19-.27-2.06-.7-2.63-1.29-.57-.59-.85-1.34-.85-2.24,0-.75.21-1.41.63-1.97.42-.56,1-1,1.74-1.32.74-.32,1.59-.48,2.54-.48,1.37,0,2.46.3,3.25.89.79.59,1.31,1.39,1.56,2.38Z"/>
      <path class="cls-1" d="m351.83,52.54v1.99h-6.95v-1.99h6.95Zm-5.08-3.05h2.48v12.03c0,.48.07.84.21,1.08.14.24.33.4.56.49.23.09.48.13.75.13.2,0,.37-.01.52-.04.15-.03.26-.05.35-.07l.45,2.04c-.14.06-.35.11-.61.17s-.6.09-.99.1c-.65.01-1.26-.11-1.82-.35-.56-.24-1.02-.62-1.37-1.13-.35-.51-.52-1.15-.52-1.91v-12.55Z"/>
      <path class="cls-1" d="m356.39,50.58c-.43,0-.8-.15-1.11-.44-.31-.29-.46-.64-.46-1.04s.15-.76.46-1.05c.31-.29.67-.43,1.11-.43s.8.15,1.11.43c.31.29.46.64.46,1.05s-.15.75-.46,1.04c-.31.29-.67.44-1.11.44Zm-1.25,14.68v-12.72h2.48v12.72h-2.48Z"/>
      <path class="cls-1" d="m367.47,52.54v1.99h-6.95v-1.99h6.95Zm-5.08-3.05h2.48v12.03c0,.48.07.84.21,1.08.14.24.33.4.56.49.23.09.48.13.75.13.2,0,.37-.01.52-.04.15-.03.26-.05.35-.07l.45,2.04c-.14.06-.35.11-.61.17s-.6.09-.99.1c-.65.01-1.26-.11-1.82-.35-.56-.24-1.02-.62-1.37-1.13-.35-.51-.52-1.15-.52-1.91v-12.55Z"/>
      <path class="cls-1" d="m378.84,59.99v-7.44h2.48v12.72h-2.43v-2.2h-.13c-.29.68-.76,1.24-1.4,1.69-.64.45-1.44.68-2.4.68-.82,0-1.54-.18-2.17-.54-.63-.36-1.12-.9-1.47-1.61-.36-.71-.53-1.59-.53-2.64v-8.09h2.48v7.79c0,.87.24,1.56.72,2.07s1.1.77,1.87.77c.46,0,.93-.12,1.39-.35.46-.23.84-.58,1.15-1.05.31-.47.46-1.07.45-1.79Z"/>
      <path class="cls-1" d="m391.16,52.54v1.99h-6.95v-1.99h6.95Zm-5.08-3.05h2.48v12.03c0,.48.07.84.21,1.08.14.24.33.4.56.49.23.09.48.13.75.13.2,0,.37-.01.52-.04.15-.03.26-.05.35-.07l.45,2.04c-.14.06-.35.11-.61.17s-.6.09-.99.1c-.65.01-1.26-.11-1.82-.35-.56-.24-1.02-.62-1.37-1.13-.35-.51-.52-1.15-.52-1.91v-12.55Z"/>
      <path class="cls-1" d="m406,65.51c-1.03,0-1.94-.26-2.74-.79-.8-.53-1.43-1.28-1.89-2.26s-.68-2.16-.68-3.53.23-2.55.69-3.53c.46-.98,1.09-1.72,1.9-2.24s1.72-.78,2.74-.78c.79,0,1.43.13,1.91.39s.86.57,1.13.91c.27.35.48.65.63.92h.15v-6.3h2.48v16.96h-2.42v-1.98h-.21c-.15.27-.36.58-.64.93-.28.35-.66.65-1.15.91-.49.26-1.11.39-1.89.39Zm.55-2.11c.71,0,1.32-.19,1.81-.57.49-.38.87-.9,1.13-1.58.26-.67.39-1.46.39-2.35s-.13-1.66-.38-2.32c-.25-.66-.63-1.18-1.12-1.55s-1.1-.56-1.82-.56-1.37.19-1.86.58c-.5.39-.87.91-1.12,1.58s-.38,1.42-.38,2.26.13,1.61.38,2.29c.25.68.63,1.22,1.13,1.61.5.39,1.12.59,1.85.59Z"/>
      <path class="cls-1" d="m421.89,65.52c-1.25,0-2.33-.27-3.23-.81-.9-.54-1.6-1.3-2.09-2.28-.49-.98-.73-2.13-.73-3.45s.24-2.45.73-3.45,1.17-1.77,2.05-2.33,1.91-.84,3.09-.84c.72,0,1.41.12,2.09.36.67.24,1.28.61,1.81,1.12.54.51.96,1.17,1.27,1.97.31.81.46,1.79.46,2.94v.88h-10.11v-1.85h7.68c0-.65-.13-1.23-.4-1.73-.26-.51-.64-.9-1.11-1.2-.48-.29-1.04-.44-1.68-.44-.7,0-1.3.17-1.82.51s-.91.78-1.19,1.32c-.28.54-.42,1.13-.42,1.77v1.45c0,.85.15,1.57.45,2.17.3.6.72,1.05,1.26,1.36s1.17.47,1.9.47c.47,0,.9-.07,1.28-.2.39-.13.72-.34,1-.61.28-.27.5-.6.65-1l2.34.42c-.19.69-.52,1.29-1.01,1.81s-1.09.92-1.81,1.2c-.73.28-1.55.43-2.48.43Z"/>
      <path class="cls-1" d="m317.12,92.46h-5.49v-16.96h5.66c1.66,0,3.09.34,4.28,1.01,1.19.68,2.11,1.65,2.74,2.91s.96,2.77.96,4.53-.32,3.28-.96,4.55c-.64,1.27-1.57,2.25-2.79,2.93-1.21.68-2.68,1.02-4.41,1.02Zm-2.93-2.24h2.79c1.29,0,2.37-.24,3.22-.73s1.5-1.2,1.92-2.13c.43-.93.64-2.07.64-3.41s-.21-2.46-.63-3.39c-.42-.93-1.05-1.63-1.88-2.11-.83-.48-1.87-.72-3.11-.72h-2.95v12.49Z"/>
      <path class="cls-1" d="m328.84,92.46v-12.72h2.39v2.02h.13c.23-.68.64-1.22,1.23-1.62s1.25-.59,2-.59c.15,0,.34,0,.55.02.21.01.38.02.5.04v2.37c-.1-.03-.28-.06-.53-.09-.25-.04-.51-.05-.76-.05-.59,0-1.11.12-1.56.37s-.82.58-1.08,1.02c-.27.43-.4.93-.4,1.48v7.77h-2.48Z"/>
      <path class="cls-1" d="m343.4,92.72c-1.25,0-2.33-.27-3.23-.81-.9-.54-1.6-1.3-2.09-2.28-.49-.98-.73-2.13-.73-3.45s.24-2.45.73-3.45,1.17-1.77,2.05-2.33,1.91-.84,3.09-.84c.72,0,1.41.12,2.09.36.67.24,1.28.61,1.81,1.12.54.51.96,1.17,1.27,1.97.31.81.46,1.79.46,2.94v.88h-10.11v-1.85h7.68c0-.65-.13-1.23-.4-1.73-.26-.51-.64-.9-1.11-1.2-.48-.29-1.04-.44-1.68-.44-.7,0-1.3.17-1.82.51s-.91.78-1.19,1.32c-.28.54-.42,1.13-.42,1.77v1.45c0,.85.15,1.57.45,2.17.3.6.72,1.05,1.26,1.36s1.17.47,1.9.47c.47,0,.9-.07,1.28-.2.39-.13.72-.34,1-.61.28-.27.5-.6.65-1l2.34.42c-.19.69-.52,1.29-1.01,1.81s-1.09.92-1.81,1.2c-.73.28-1.55.43-2.48.43Z"/>
      <path class="cls-1" d="m358.14,79.75v1.99h-6.95v-1.99h6.95Zm-5.08-3.05h2.48v12.03c0,.48.07.84.21,1.08.14.24.33.4.56.49.23.09.48.13.75.13.2,0,.37-.01.52-.04.15-.03.26-.05.35-.07l.45,2.04c-.14.06-.35.11-.61.17s-.6.09-.99.1c-.65.01-1.26-.11-1.82-.35-.56-.24-1.02-.62-1.37-1.13-.35-.51-.52-1.15-.52-1.91v-12.55Z"/>
      <path class="cls-1" d="m370.77,82.85l-2.24.4c-.09-.29-.24-.56-.44-.82-.2-.26-.47-.47-.82-.64-.34-.17-.77-.25-1.28-.25-.7,0-1.29.16-1.76.47-.47.31-.7.71-.7,1.2,0,.43.16.77.47,1.03.32.26.82.47,1.52.64l2.02.46c1.17.27,2.04.69,2.62,1.25.57.56.86,1.3.86,2.19,0,.76-.22,1.44-.66,2.03-.44.59-1.05,1.06-1.83,1.39-.78.34-1.69.51-2.71.51-1.42,0-2.59-.31-3.49-.92s-1.45-1.48-1.66-2.6l2.39-.36c.15.62.46,1.09.92,1.41.46.32,1.07.48,1.81.48.81,0,1.46-.17,1.95-.51.49-.34.73-.76.73-1.25,0-.4-.15-.73-.44-1s-.75-.47-1.35-.61l-2.15-.47c-1.19-.27-2.06-.7-2.63-1.29-.57-.59-.85-1.34-.85-2.24,0-.75.21-1.41.63-1.97.42-.56,1-1,1.74-1.32.74-.32,1.59-.48,2.54-.48,1.37,0,2.46.3,3.25.89.79.59,1.31,1.39,1.56,2.38Z"/>
      <path class="cls-1" d="m381.27,92.46v-16.96h2.56v7.37h8.45v-7.37h2.57v16.96h-2.57v-7.39h-8.45v7.39h-2.56Z"/>
      <path class="cls-1" d="m407.02,87.19v-7.44h2.48v12.72h-2.43v-2.2h-.13c-.29.68-.76,1.24-1.4,1.69-.64.45-1.44.68-2.4.68-.82,0-1.54-.18-2.17-.54-.63-.36-1.12-.9-1.47-1.61-.36-.71-.53-1.59-.53-2.64v-8.09h2.48v7.79c0,.87.24,1.56.72,2.07s1.1.77,1.87.77c.46,0,.93-.12,1.39-.35.46-.23.84-.58,1.15-1.05.31-.47.46-1.07.45-1.79Z"/>
      <path class="cls-1" d="m413.41,92.46v-12.72h2.38v2.07h.16c.26-.7.7-1.25,1.3-1.64s1.32-.59,2.16-.59,1.56.2,2.14.6,1,.94,1.28,1.64h.13c.3-.68.79-1.22,1.45-1.63.66-.41,1.45-.61,2.37-.61,1.15,0,2.1.36,2.83,1.09s1.1,1.81,1.1,3.27v8.53h-2.48v-8.3c0-.86-.23-1.48-.7-1.87-.47-.39-1.03-.58-1.68-.58-.81,0-1.43.25-1.88.74-.45.49-.67,1.13-.67,1.9v8.11h-2.47v-8.45c0-.69-.22-1.24-.65-1.66-.43-.42-.99-.63-1.68-.63-.47,0-.9.12-1.3.37-.39.25-.71.59-.95,1.02-.24.44-.36.94-.36,1.52v7.84h-2.48Z"/>
      <path class="cls-1" d="m438.29,92.75c-.81,0-1.53-.15-2.19-.45-.65-.3-1.17-.74-1.54-1.31-.38-.57-.57-1.28-.57-2.11,0-.72.14-1.31.41-1.77.28-.46.65-.83,1.12-1.1.47-.27.99-.47,1.57-.61.58-.14,1.17-.24,1.77-.31.76-.09,1.38-.16,1.85-.22s.82-.15,1.04-.29c.22-.13.32-.35.32-.65v-.06c0-.72-.2-1.28-.61-1.68s-1.01-.6-1.81-.6-1.49.18-1.97.55-.81.77-.99,1.22l-2.33-.53c.28-.77.68-1.4,1.21-1.87.53-.48,1.15-.83,1.84-1.04s1.43-.33,2.19-.33c.51,0,1.05.06,1.62.18s1.11.33,1.61.65c.5.32.91.76,1.23,1.35.32.58.48,1.34.48,2.26v8.45h-2.42v-1.74h-.1c-.16.32-.4.63-.72.94-.32.31-.73.57-1.23.77-.5.2-1.1.31-1.81.31Zm.54-1.99c.68,0,1.27-.13,1.76-.41s.86-.63,1.12-1.06c.26-.44.39-.91.39-1.41v-1.64c-.09.09-.26.17-.51.24-.25.07-.54.14-.86.19-.32.05-.63.1-.94.14-.3.04-.56.08-.76.1-.48.06-.92.16-1.31.31-.39.14-.71.35-.94.62-.24.27-.35.62-.35,1.06,0,.61.23,1.07.68,1.39.45.31,1.03.47,1.73.47Z"/>
      <path class="cls-1" d="m450.93,84.91v7.55h-2.48v-12.72h2.38v2.07h.16c.29-.67.75-1.21,1.38-1.62.63-.41,1.42-.61,2.37-.61.87,0,1.63.18,2.28.54.65.36,1.16.9,1.52,1.61.36.71.54,1.59.54,2.64v8.09h-2.48v-7.79c0-.92-.24-1.64-.72-2.17-.48-.52-1.14-.78-1.98-.78-.57,0-1.08.12-1.53.37-.44.25-.8.61-1.05,1.09-.26.48-.38,1.05-.38,1.73Z"/>
      <path class="cls-1" d="m472.49,82.85l-2.24.4c-.09-.29-.24-.56-.44-.82-.2-.26-.47-.47-.82-.64-.34-.17-.77-.25-1.28-.25-.7,0-1.29.16-1.76.47-.47.31-.7.71-.7,1.2,0,.43.16.77.47,1.03.32.26.82.47,1.52.64l2.02.46c1.17.27,2.04.69,2.62,1.25.57.56.86,1.3.86,2.19,0,.76-.22,1.44-.66,2.03-.44.59-1.05,1.06-1.83,1.39-.78.34-1.69.51-2.71.51-1.42,0-2.59-.31-3.49-.92s-1.45-1.48-1.66-2.6l2.39-.36c.15.62.46,1.09.92,1.41.46.32,1.07.48,1.81.48.81,0,1.46-.17,1.95-.51.49-.34.73-.76.73-1.25,0-.4-.15-.73-.44-1s-.75-.47-1.35-.61l-2.15-.47c-1.19-.27-2.06-.7-2.63-1.29-.57-.59-.85-1.34-.85-2.24,0-.75.21-1.41.63-1.97.42-.56,1-1,1.74-1.32.74-.32,1.59-.48,2.54-.48,1.37,0,2.46.3,3.25.89.79.59,1.31,1.39,1.56,2.38Z"/>
      <path class="cls-1" d="m316.2,119.92c-1.03,0-1.94-.26-2.74-.79-.8-.53-1.43-1.28-1.89-2.26s-.68-2.16-.68-3.53.23-2.55.69-3.53,1.09-1.72,1.9-2.24,1.72-.78,2.74-.78c.79,0,1.43.13,1.91.39s.86.57,1.13.91c.27.35.48.65.63.92h.15v-6.3h2.48v16.96h-2.42v-1.98h-.21c-.15.27-.36.58-.64.93-.28.35-.66.65-1.15.91-.49.26-1.11.39-1.89.39Zm.55-2.11c.71,0,1.32-.19,1.81-.57.49-.38.87-.9,1.13-1.58.26-.67.39-1.46.39-2.35s-.13-1.66-.38-2.32c-.25-.66-.63-1.18-1.12-1.55s-1.1-.56-1.82-.56-1.37.19-1.86.58c-.5.39-.87.91-1.12,1.58s-.38,1.42-.38,2.26.13,1.61.38,2.29c.25.68.63,1.22,1.13,1.61.5.39,1.12.59,1.85.59Z"/>
      <path class="cls-1" d="m332.09,119.92c-1.25,0-2.33-.27-3.23-.81-.9-.54-1.6-1.3-2.09-2.28-.49-.98-.73-2.13-.73-3.45s.24-2.45.73-3.45,1.17-1.77,2.05-2.33,1.91-.84,3.09-.84c.72,0,1.41.12,2.09.36.67.24,1.28.61,1.81,1.12.54.51.96,1.17,1.27,1.97.31.81.46,1.79.46,2.94v.88h-10.11v-1.85h7.68c0-.65-.13-1.23-.4-1.73-.26-.51-.64-.9-1.11-1.2-.48-.29-1.04-.44-1.68-.44-.7,0-1.3.17-1.82.51s-.91.78-1.19,1.32c-.28.54-.42,1.13-.42,1.77v1.45c0,.85.15,1.57.45,2.17.3.6.72,1.05,1.26,1.36s1.17.47,1.9.47c.47,0,.9-.07,1.28-.2.39-.13.72-.34,1-.61.28-.27.5-.6.65-1l2.34.42c-.19.69-.52,1.29-1.01,1.81s-1.09.92-1.81,1.2c-.73.28-1.55.43-2.48.43Z"/>
      <path class="cls-1" d="m361.93,108.22h-2.58c-.1-.55-.28-1.04-.56-1.46s-.6-.78-.99-1.07c-.39-.29-.83-.51-1.31-.66-.48-.15-1-.22-1.54-.22-.98,0-1.85.25-2.62.74-.77.49-1.38,1.21-1.82,2.16-.44.95-.67,2.11-.67,3.48s.22,2.55.67,3.49c.44.95,1.05,1.67,1.83,2.15.77.49,1.64.73,2.61.73.54,0,1.04-.07,1.53-.22s.92-.36,1.31-.65.72-.64,1-1.06c.27-.42.46-.9.57-1.44h2.58c-.14.84-.41,1.61-.8,2.31-.4.7-.9,1.3-1.52,1.8-.61.5-1.32.9-2.11,1.17s-1.65.41-2.58.41c-1.47,0-2.78-.35-3.92-1.05-1.15-.7-2.05-1.7-2.71-3-.66-1.3-.99-2.86-.99-4.66s.33-3.37.99-4.67c.66-1.3,1.57-2.3,2.72-3,1.15-.7,2.45-1.05,3.92-1.05.9,0,1.74.13,2.52.39s1.48.63,2.11,1.13c.62.49,1.14,1.1,1.55,1.8.41.71.68,1.52.83,2.43Z"/>
      <path class="cls-1" d="m369.08,119.95c-.81,0-1.53-.15-2.19-.45-.65-.3-1.17-.74-1.54-1.31-.38-.57-.57-1.28-.57-2.11,0-.72.14-1.31.41-1.77.28-.46.65-.83,1.12-1.1.47-.27.99-.47,1.57-.61.58-.14,1.17-.24,1.77-.31.76-.09,1.38-.16,1.85-.22s.82-.15,1.04-.29c.22-.13.32-.35.32-.65v-.06c0-.72-.2-1.28-.61-1.68s-1.01-.6-1.81-.6-1.49.18-1.97.55-.81.77-.99,1.22l-2.33-.53c.28-.77.68-1.4,1.21-1.87.53-.48,1.15-.83,1.84-1.04s1.43-.33,2.19-.33c.51,0,1.05.06,1.62.18s1.11.33,1.61.65c.5.32.91.76,1.23,1.35.32.58.48,1.34.48,2.26v8.45h-2.42v-1.74h-.1c-.16.32-.4.63-.72.94-.32.31-.73.57-1.23.77-.5.2-1.1.31-1.81.31Zm.54-1.99c.68,0,1.27-.13,1.76-.41s.86-.63,1.12-1.06c.26-.44.39-.91.39-1.41v-1.64c-.09.09-.26.17-.51.24-.25.07-.54.14-.86.19-.32.05-.63.1-.94.14-.3.04-.56.08-.76.1-.48.06-.92.16-1.31.31-.39.14-.71.35-.94.62-.24.27-.35.62-.35,1.06,0,.61.23,1.07.68,1.39.45.31,1.03.47,1.73.47Z"/>
      <path class="cls-1" d="m385.17,106.95v1.99h-6.95v-1.99h6.95Zm-5.08-3.05h2.48v12.03c0,.48.07.84.21,1.08.14.24.33.4.56.49.23.09.48.13.75.13.2,0,.37-.01.52-.04.15-.03.26-.05.35-.07l.45,2.04c-.14.06-.35.11-.61.17s-.6.09-.99.1c-.65.01-1.26-.11-1.82-.35-.56-.24-1.02-.62-1.37-1.13-.35-.51-.52-1.15-.52-1.91v-12.55Z"/>
      <path class="cls-1" d="m392.19,119.95c-.81,0-1.53-.15-2.19-.45-.65-.3-1.17-.74-1.54-1.31-.38-.57-.57-1.28-.57-2.11,0-.72.14-1.31.41-1.77.28-.46.65-.83,1.12-1.1.47-.27.99-.47,1.57-.61.58-.14,1.17-.24,1.77-.31.76-.09,1.38-.16,1.85-.22s.82-.15,1.04-.29c.22-.13.32-.35.32-.65v-.06c0-.72-.2-1.28-.61-1.68s-1.01-.6-1.81-.6-1.49.18-1.97.55-.81.77-.99,1.22l-2.33-.53c.28-.77.68-1.4,1.21-1.87.53-.48,1.15-.83,1.84-1.04s1.43-.33,2.19-.33c.51,0,1.05.06,1.62.18s1.11.33,1.61.65c.5.32.91.76,1.23,1.35.32.58.48,1.34.48,2.26v8.45h-2.42v-1.74h-.1c-.16.32-.4.63-.72.94-.32.31-.73.57-1.23.77-.5.2-1.1.31-1.81.31Zm.54-1.99c.68,0,1.27-.13,1.76-.41s.86-.63,1.12-1.06c.26-.44.39-.91.39-1.41v-1.64c-.09.09-.26.17-.51.24-.25.07-.54.14-.86.19-.32.05-.63.1-.94.14-.3.04-.56.08-.76.1-.48.06-.92.16-1.31.31-.39.14-.71.35-.94.62-.24.27-.35.62-.35,1.06,0,.61.23,1.07.68,1.39.45.31,1.03.47,1.73.47Z"/>
      <path class="cls-1" d="m404.82,102.71v16.96h-2.48v-16.96h2.48Z"/>
      <path class="cls-1" d="m416.79,114.39v-7.44h2.48v12.72h-2.43v-2.2h-.13c-.29.68-.76,1.24-1.4,1.69-.64.45-1.44.68-2.4.68-.82,0-1.54-.18-2.17-.54-.63-.36-1.12-.9-1.47-1.61-.36-.71-.53-1.59-.53-2.64v-8.09h2.48v7.79c0,.87.24,1.56.72,2.07s1.1.77,1.87.77c.46,0,.93-.12,1.39-.35.46-.23.84-.58,1.15-1.05.31-.47.46-1.07.45-1.79Z"/>
      <path class="cls-1" d="m425.65,112.12v7.55h-2.48v-12.72h2.38v2.07h.16c.29-.67.75-1.21,1.38-1.62.63-.41,1.42-.61,2.37-.61.87,0,1.63.18,2.28.54.65.36,1.16.9,1.52,1.61.36.71.54,1.59.54,2.64v8.09h-2.48v-7.79c0-.92-.24-1.64-.72-2.17-.48-.52-1.14-.78-1.98-.78-.57,0-1.08.12-1.53.37-.44.25-.8.61-1.05,1.09-.26.48-.38,1.05-.38,1.73Z"/>
      <path class="cls-1" d="m438.79,124.44c-.37,0-.71-.03-1.01-.09s-.53-.12-.68-.19l.6-2.03c.45.12.85.17,1.21.16.35-.02.67-.15.94-.4.27-.25.52-.65.72-1.22l.31-.84-4.65-12.88h2.65l3.22,9.87h.13l3.22-9.87h2.66l-5.24,14.42c-.24.66-.55,1.22-.93,1.69s-.82.81-1.34,1.04c-.52.23-1.12.35-1.8.35Z"/>
      <path class="cls-1" d="m454.33,119.95c-.81,0-1.53-.15-2.19-.45-.65-.3-1.17-.74-1.54-1.31-.38-.57-.57-1.28-.57-2.11,0-.72.14-1.31.41-1.77.28-.46.65-.83,1.12-1.1.47-.27.99-.47,1.57-.61.58-.14,1.17-.24,1.77-.31.76-.09,1.38-.16,1.85-.22s.82-.15,1.04-.29c.22-.13.32-.35.32-.65v-.06c0-.72-.2-1.28-.61-1.68s-1.01-.6-1.81-.6-1.49.18-1.97.55-.81.77-.99,1.22l-2.33-.53c.28-.77.68-1.4,1.21-1.87.53-.48,1.15-.83,1.84-1.04s1.43-.33,2.19-.33c.51,0,1.05.06,1.62.18s1.11.33,1.61.65c.5.32.91.76,1.23,1.35.32.58.48,1.34.48,2.26v8.45h-2.42v-1.74h-.1c-.16.32-.4.63-.72.94-.32.31-.73.57-1.23.77-.5.2-1.1.31-1.81.31Zm.54-1.99c.68,0,1.27-.13,1.76-.41s.86-.63,1.12-1.06c.26-.44.39-.91.39-1.41v-1.64c-.09.09-.26.17-.51.24-.25.07-.54.14-.86.19-.32.05-.63.1-.94.14-.3.04-.56.08-.76.1-.48.06-.92.16-1.31.31-.39.14-.71.35-.94.62-.24.27-.35.62-.35,1.06,0,.61.23,1.07.68,1.39.45.31,1.03.47,1.73.47Z"/>
    </g>
  </g>
  <g id="Logo">
    <path id="Frame" class="cls-1" d="m285.94,146.87H27.26V27.26h258.67v119.61Zm-252.12-6.56h245.56V33.82H33.82v106.49Z"/>
    <g id="IDHC">
      <path id="C" class="cls-1" d="m237.9,120.35c-2.27,0-4.56-.3-6.85-.9s-4.46-1.52-6.52-2.77c-2.05-1.25-3.88-2.85-5.47-4.81-1.6-1.96-2.85-4.29-3.77-6.99-.92-2.7-1.37-5.82-1.37-9.36s.46-6.71,1.37-9.43c.92-2.72,2.17-5.05,3.77-6.99,1.59-1.94,3.42-3.52,5.47-4.74,2.05-1.22,4.23-2.12,6.52-2.7s4.57-.88,6.85-.88c2.59,0,4.98.31,7.18.92s4.19,1.47,5.97,2.56,3.31,2.37,4.57,3.84c1.26,1.47,2.24,3.06,2.94,4.76l-10.09,4.69c-.35-1.23-.95-2.48-1.8-3.74-.85-1.26-1.97-2.32-3.36-3.17s-3.1-1.28-5.12-1.28c-1.48,0-2.95.3-4.41.9-1.45.6-2.78,1.54-3.98,2.82-1.2,1.28-2.17,2.95-2.89,5-.73,2.05-1.09,4.53-1.09,7.44s.36,5.33,1.09,7.37c.73,2.04,1.69,3.71,2.89,5.02,1.2,1.31,2.53,2.28,3.98,2.91,1.45.63,2.92.95,4.41.95,2.02,0,3.74-.4,5.14-1.21,1.41-.81,2.53-1.81,3.36-3.01.84-1.2,1.41-2.38,1.73-3.55l10.09,4.74c-.7,1.55-1.67,3.03-2.91,4.43-1.25,1.41-2.76,2.65-4.53,3.72s-3.75,1.92-5.95,2.54c-2.2.62-4.6.92-7.23.92Z"/>
      <path id="H" class="cls-1" d="m161.66,119.31V48.22h11.47v71.08h-11.47Zm31.04,0v-26.59c0-3.06-.31-5.54-.92-7.42-.62-1.88-1.58-3.25-2.89-4.1-1.31-.85-2.98-1.28-5-1.28-1.45,0-2.82.28-4.1.85-1.28.57-2.43,1.35-3.44,2.35-1.01,1-1.82,2.14-2.42,3.44-.6,1.3-.96,2.67-1.09,4.12l-2.8-1.14c0-2.28.37-4.52,1.11-6.73.74-2.21,1.86-4.22,3.36-6.04,1.5-1.82,3.36-3.26,5.57-4.34,2.21-1.07,4.79-1.61,7.72-1.61,2.5,0,4.74.39,6.73,1.16,1.99.77,3.7,1.97,5.14,3.58,1.44,1.61,2.54,3.68,3.32,6.21.77,2.53,1.16,5.58,1.16,9.15v28.39h-11.47Z"/>
      <path id="D" class="cls-1" d="m119.81,120.35c-2.56,0-5.05-.5-7.46-1.49-2.42-1-4.6-2.5-6.54-4.53-1.94-2.02-3.48-4.6-4.62-7.73-1.14-3.13-1.71-6.82-1.71-11.09,0-5.69.95-10.35,2.84-13.98,1.9-3.63,4.35-6.32,7.37-8.06,3.02-1.74,6.23-2.61,9.64-2.61,3,0,5.68.59,8.03,1.78,2.35,1.18,4.33,2.72,5.92,4.62,1.59,1.89,2.82,3.93,3.67,6.09s1.28,4.24,1.28,6.23l-4.12,1.47c-.28-1.36-.75-2.71-1.4-4.05-.65-1.34-1.46-2.54-2.44-3.6-.98-1.06-2.11-1.9-3.39-2.54-1.28-.63-2.71-.95-4.29-.95-2.18,0-4.15.57-5.9,1.71-1.75,1.14-3.15,2.86-4.19,5.17-1.04,2.31-1.56,5.21-1.56,8.72s.54,6.43,1.61,8.77c1.07,2.34,2.52,4.09,4.34,5.26,1.82,1.17,3.83,1.75,6.04,1.75,1.58,0,3.01-.34,4.29-1.02,1.28-.68,2.4-1.59,3.36-2.75.96-1.15,1.73-2.47,2.3-3.96.57-1.48.92-3,1.04-4.55l4.41,1.47c0,2.02-.4,4.18-1.19,6.47-.79,2.29-1.97,4.45-3.55,6.47s-3.52,3.68-5.83,4.98c-2.31,1.3-4.96,1.94-7.96,1.94Zm25.45-72.13v67.62l-5.17-5.17h12.32v8.62h-17.3l-1.37-9.86v-61.23h11.52Z"/>
      <path id="I" class="cls-1" d="m55.79,119.31v-8.62h14.88v-30.14h-12.8v-8.62h24.26v38.76h13.98v8.62h-40.33Zm14.64-67.43h11.8v11.9h-11.8v-11.9Z"/>
    </g>
  </g>
</svg>