<svg id="Lager_1" data-name="Lager 1" xmlns="http://www.w3.org/2000/svg" width="181.427mm" height="38.2767mm" viewBox="0 0 514.2813 108.501">
  <defs>
    <style>
      .cls-1, .cls-2 {
        fill: #1d1d1b;
      }

      .cls-2 {
        fill-rule: evenodd;
      }

      .cls-3 {
        fill: #e50043;
      }

      .cls-4 {
        fill: #fff;
      }
    </style>
  </defs>
  <title>bk_logo_liggande_cmyk</title>
  <g>
    <path class="cls-1" d="M333.6133,50.8452c2.668,4.2012,5.416,8.4414,8.081,12.6817,1.169-.0791,2.3418-.2017,3.5147-.2017,1.168,0,2.3408.1226,3.917.2017-2.1807-2.8662-7.5537-10.9834-11.0283-16.2349,2.1-2.6255,8.6035-9.8154,10.42-11.6318-.9278.0786-1.6944.2016-2.4238.2016a21.89,21.89,0,0,1-2.2588-.2016c-1.4141,2.0571-6.6651,8.603-10.3018,12.8833,0-5.2119,0-10.7432.3242-12.8833-.8886.0786-1.9785.2016-3.3125.2016-1.331,0-2.4248-.123-3.3125-.2016.2442,3.5532.3242,6.6606.3242,11.185v5.4966c0,4.5205-.08,7.6319-.3242,11.1851.8877-.0791,1.9815-.2017,3.3125-.2017,1.334,0,2.4239.1226,3.3125.2017a126.7532,126.7532,0,0,1-.3242-12.6817Z"/>
    <path class="cls-2" d="M349.87,49.5933c0,10.1,6.8692,14.459,15.39,14.459,9.0058,0,15.4306-6.5025,15.4306-14.4981,0-9.7363-6.748-14.4228-15.3076-14.4228-9.37,0-15.5127,6.5034-15.5127,14.4619Zm24.1944-.8882c0,8.8047-4.24,12.8437-9.0889,12.8437-4.5244,0-8.48-2.9882-8.48-11.5913,0-6.9492,3.2334-12.52,8.7647-12.52,5.2119,0,8.8047,4.28,8.8047,11.2681Z"/>
    <path class="cls-1" d="M389.2637,45.1909c3.0322,6.1,5.9385,12.24,8.8086,18.336a4.9575,4.9575,0,0,1,.7666-.0791,5.0075,5.0075,0,0,1,.7646.0791c2.9112-6.2583,5.9-12.48,8.9278-18.7388h.083c.6435,6.2588,1.331,13.1245,1.6152,18.7388a31.5086,31.5086,0,0,1,3.3506-.2017,29.4645,29.4645,0,0,1,3.2695.2017c-1.0058-5.6934-2.4238-18.58-3.47-27.8667a8.3247,8.3247,0,0,1-1.6983.2016,8.636,8.636,0,0,1-1.7363-.2016c-2.91,6.42-6.2187,13.2866-9.4092,19.3071-2.9492-5.6973-6.3847-12.8867-9.3339-19.3071a7.5117,7.5117,0,0,1-1.6143.2016A7.9539,7.9539,0,0,1,387.93,35.66c-1.1289,9.2866-2.4639,18.5766-4.1582,27.8667a10.0789,10.0789,0,0,1,1.8994-.2017,10.4643,10.4643,0,0,1,1.8984.2017c.4034-6.0957.7666-12.2359,1.6163-18.336Z"/>
    <path class="cls-1" d="M425.457,45.1909c3.0284,6.1,5.9385,12.24,8.8047,18.336a3.7538,3.7538,0,0,1,1.5332,0c2.9082-6.2583,5.8975-12.48,8.9258-18.7388h.083c.6475,6.2588,1.3311,13.1245,1.6152,18.7388a31.64,31.64,0,0,1,3.3526-.2017,29.4706,29.4706,0,0,1,3.2715.2017c-1.0108-5.6934-2.4239-18.58-3.4737-27.8667a8.2545,8.2545,0,0,1-1.6943.2016,8.7047,8.7047,0,0,1-1.74-.2016c-2.9073,6.42-6.2188,13.2866-9.41,19.3071-2.9492-5.6973-6.3828-12.8867-9.3291-19.3071a7.5159,7.5159,0,0,1-1.6182.2016,7.8431,7.8431,0,0,1-1.6513-.2016c-1.1319,9.2866-2.4629,18.5766-4.1612,27.8667a10.0554,10.0554,0,0,1,1.8995-.2017,10.4523,10.4523,0,0,1,1.8964.2017c.4014-6.0957.7686-12.2359,1.6133-18.336Z"/>
    <path class="cls-1" d="M470.6563,64.0523c7.833,0,11.916-3.877,11.916-13.2466,0-6.9883.28-12.7652.5254-15.1455a11.73,11.73,0,0,1-2.0225.2016,12.1082,12.1082,0,0,1-2.06-.2016c.2012,3.7153.3233,7.3911.3233,11.1064,0,7.5137-.4463,14.4986-6.9053,14.4986-5.252,0-8.0781-1.6153-8.0781-11.47A132.9875,132.9875,0,0,1,464.92,35.66a27.3163,27.3163,0,0,1-6.625,0c.083,1.331.1621,4.0385.1621,8.3188,0,2.91-.0791,5.0889-.0791,9.4522,0,7.5923,5.37,10.6211,12.2784,10.6211Z"/>
    <path class="cls-1" d="M489.9668,43.6948c0,8.24-.6045,18.6641-.8047,19.8321a9.5863,9.5863,0,0,1,1.8555-.2017,10.4643,10.4643,0,0,1,1.8984.2017c-.1211-1.4927-.2441-3.7544-.2441-10.2178,0-3.0288,0-6.3809.082-9.4092q9.3282,9.813,17.65,19.627a6.44,6.44,0,0,1,1.5752-.2017,7.7316,7.7316,0,0,1,1.6562.2017c0-10.7432,0-16.1128.6456-27.8667a8.2845,8.2845,0,0,1-3.6329,0c.28,1.8164.28,12.8.28,19.2241C504.99,48.46,499.2129,42.0806,493.3975,35.66a8.28,8.28,0,0,1-3.6319,0c.04,1.9345.2012,4.4023.2012,8.0346Z"/>
    <path class="cls-2" d="M107.9873,52.291c0,4.521-.08,7.6324-.32,11.1856.8882-.0825,2.626-.2007,4.0781-.2007,2.022,0,3.7949.2007,5.9385.2007,4.8057,0,9.4087-2.3023,9.4087-8.0777,0-4.8881-4.8047-6.6645-7.2686-6.7876v-.0786c2.5035-.4033,6.5821-2.2627,6.5821-6.6645s-3.3125-6.2622-8.1573-6.2622c-2.3017,0-4.9672.2016-7.269.2016a33.0863,33.0863,0,0,1-3.3125-.2016c.2407,3.5576.32,6.6645.32,11.1894V52.291Zm12.44-9.6567c0,3.4346-2.3017,5.1318-4.604,5.1318h-1.8154c0-1.3735-.04-2.6684-.04-4.1211,0-1.3745.08-3.6367.1621-5.6152a10.5452,10.5452,0,0,1,1.978-.1182c3.19,0,4.3193,2.14,4.3193,4.7227Zm.2847,13.0483c0,3.5137-2.061,5.4917-4.4419,5.4917-.8887,0-1.4966-.0385-2.2226-.0786,0-1.4175-.08-4.5249-.08-7.0713,0-1.6548.04-2.7866.04-3.9165.4854,0,1.0064-.04,1.7368-.04,3.2295,0,4.9673,1.8559,4.9673,5.6147Z"/>
    <path class="cls-2" d="M130.6748,49.5435c0,10.0957,6.8662,14.4585,15.3867,14.4585,9.0054,0,15.43-6.503,15.43-14.4986,0-9.7363-6.7436-14.4228-15.3076-14.4228-9.3691,0-15.5088,6.5029-15.5088,14.4629Zm24.1914-.8887c0,8.8047-4.2407,12.8438-9.0849,12.8438-4.5254,0-8.4849-2.9893-8.4849-11.5918,0-6.9493,3.23-12.5206,8.7651-12.5206,5.2115,0,8.8047,4.28,8.8047,11.2686Z"/>
    <path class="cls-1" d="M169.4863,52.291c0,4.521-.083,7.6324-.3237,11.1856.8887-.0825,1.9785-.2007,3.313-.2007,1.33,0,2.42.1182,3.312.2007-.2441-3.5532-.3237-6.6646-.3237-11.1856v-10.1c0-1.5351,0-2.9882.08-3.5527a71.0631,71.0631,0,0,1,7.1894.5254,7.9637,7.9637,0,0,1,0-3.5576c-3.4311.122-5.251.2016-10.2573.2016-5.0108,0-6.8267-.08-10.5025-.2016a7.9637,7.9637,0,0,1,0,3.5576c2.4239-.2847,5.8155-.5254,7.3912-.5254a26.0384,26.0384,0,0,1,.122,3.5527v10.1Z"/>
    <path class="cls-1" d="M193.8643,50.7949c2.6655,4.2007,5.413,8.441,8.0786,12.6817,1.1718-.0825,2.3447-.2007,3.5136-.2007,1.1729,0,2.3453.1182,3.92.2007-2.1836-2.8667-7.5533-10.9839-11.0274-16.2349,2.1006-2.626,8.603-9.8154,10.4194-11.6357-.9282.083-1.6977.2016-2.4238.2016a20.8779,20.8779,0,0,1-2.2622-.2016c-1.41,2.06-6.6616,8.603-10.2974,12.8867,0-5.2114,0-10.7432.3238-12.8867a33.0976,33.0976,0,0,1-3.313.2016,33.1425,33.1425,0,0,1-3.312-.2016c.2441,3.5576.3237,6.6645.3237,11.1894V52.291c0,4.521-.08,7.6324-.3237,11.1856.8882-.0825,1.9814-.2007,3.312-.2007,1.3345,0,2.4243.1182,3.313.2007-.3238-2.5425-.3238-6.8662-.3238-12.6817Z"/>
    <path class="cls-1" d="M223.6162,47.7237c-1.13-1.8565-4.1577-8.1187-6.0171-12.1177-1.2124.083-2.3813.2016-3.5932.2016s-2.4239-.1186-3.6363-.2016c1.2515,2.3056,5.8589,10.9482,8.6465,16.3178.0361,1.2525.08,2.5074.08,3.7588,0,2.5035-.3672,5.208-.4863,7.794,1.1328-.0825,2.3017-.2007,3.4311-.2007,1.1338,0,2.3057.1182,3.4351.2007a68.9743,68.9743,0,0,1-.4028-8.4409c0-1.335.0791-2.6661.0791-3.9571,2.5859-5.0893,6.6645-12.44,8.4448-15.4726a16.273,16.273,0,0,1-1.9419.2016,13.4,13.4,0,0,1-1.856-.2016c-1.7763,3.96-3.92,9.05-6.1,12.1177Z"/>
    <path class="cls-2" d="M251.4727,63.4766c1.2114-.0825,2.4638-.2007,3.6753-.2007s2.4243.1182,3.6362.2007c-2.9527-4.564-6.02-9.1675-8.6065-13.732,3.9995-1.01,6.2618-3.5136,6.2618-7.4345a6.2949,6.2949,0,0,0-2.626-5.33c-1.4131-1.0078-2.9058-1.3745-6.9883-1.3745-2.7441,0-4.481.2016-5.9341.2016a33.0863,33.0863,0,0,1-3.3125-.2016c.2412,3.5576.3237,6.6645.3237,11.1894V52.291c0,4.521-.0825,7.6324-.3237,11.1856.8887-.0825,1.978-.2007,3.3125-.2007,1.3311,0,2.4243.1182,3.3125.2007-.2446-3.5532-.3237-6.6646-.3237-11.1856V50.6328h.3594l7.2334,12.8438ZM250.26,43.2017c0,3.7949-1.9385,5.7768-5.4956,5.7768a7.5366,7.5366,0,0,1-.8848-.0825c0-3.6758.04-7.3125.1182-10.9844,4.4023,0,6.2622.5254,6.2622,5.29Z"/>
    <path class="cls-1" d="M269.6816,50.7949c2.6661,4.2007,5.4131,8.441,8.0791,12.6817,1.1719-.0825,2.3448-.2007,3.5137-.2007,1.1729,0,2.3447.1182,3.917.2007-2.1807-2.8667-7.55-10.9839-11.0244-16.2349,2.1006-2.626,8.6035-9.8154,10.42-11.6357-.9316.083-1.6982.2016-2.4238.2016A20.8222,20.8222,0,0,1,279.9,35.606c-1.4141,2.06-6.6641,8.6035-10.3008,12.8867,0-5.2114,0-10.7432.3233-12.8867a27.2826,27.2826,0,0,1-6.6211,0c.2412,3.5576.32,6.6645.32,11.1894V52.291c0,4.521-.0791,7.6324-.32,11.1856.8886-.0825,1.9775-.2007,3.3086-.2007,1.3349,0,2.4248.1182,3.3125.2007C269.6,60.9341,269.6,56.61,269.6,50.7949Z"/>
    <path class="cls-2" d="M300.4053,35.4053a5.9753,5.9753,0,0,1-3.0713,0c-3.4717,9.21-9.5322,23.59-11.51,28.0713a19.5663,19.5663,0,0,1,2.0176-.2007,14.78,14.78,0,0,1,1.8994.2007,78.62,78.62,0,0,1,2.7471-8.2793c1.414-.04,2.7881-.08,4.1973-.08,1.7373,0,3.4345.04,5.1728.08,1.0107,2.7475,1.9385,5.5312,2.7871,8.2793,1.13-.0825,2.3018-.2007,3.4317-.2007,1.1328,0,2.2617.1182,3.5527.2007-3.0674-6.5816-7.794-18.8609-11.2246-28.0713Zm-6.8662,17.4111c1.1679-3.2729,2.4209-6.4638,3.7949-9.6147,1.291,3.1509,2.4238,6.3418,3.5957,9.6147Z"/>
  </g>
  <g>
    <path class="cls-3" d="M0,0,.001,65.6338A55.8073,55.8073,0,0,0,6.7988,87.0625,41.36,41.36,0,0,0,20.625,101.8018c7.0313,4.4453,15.6113,6.6992,25.5,6.6992,9.7188,0,18.166-2.2539,25.1064-6.6992A41.51,41.51,0,0,0,84.9209,87.0625,56.8441,56.8441,0,0,0,91.75,65.626V0Z"/>
    <g>
      <path class="cls-4" d="M50.8428,8.8926l.0166-.1045c.01-.0576.2265-1.4248-.3936-1.8721a2.4959,2.4959,0,0,0-1.5244-.497,6.9293,6.9293,0,0,0-1.2392.1552,9.3659,9.3659,0,0,1-1.5928.1934h-.084a11.085,11.085,0,0,1-1.8877-.2236,9.6806,9.6806,0,0,0-1.6016-.1973,1.564,1.564,0,0,0-1.4345.6328,3.13,3.13,0,0,0-.2071,1.8076l.0176.1055Z"/>
      <path class="cls-4" d="M38.502,24.33l.8652-1.1231a10.6652,10.6652,0,1,1,12.5361.35l.8028,1.1679A12.0844,12.0844,0,1,0,38.502,24.33Z"/>
      <path class="cls-4" d="M25.8164,53.043l-1.5918-10.78c-.6592.0137-2.1426-.0039-2.7988-.6592a.8622.8622,0,0,1-.2647-.6738c.05-.91,1.583-1.5078,2.8448-1.8164l-.0157-.0059L21.499,19.5528l-.0166-.129-3.3086.5411L20.6777,39.94l-.01.0069.3613,2.5664a2.841,2.841,0,0,1,1.8672.8281,3.1715,3.1715,0,0,1,.6621,2.63,5.9,5.9,0,0,1-1.752,2.8311l.0079.0351L24.707,68.2246l.0176.1211,3.2471-.4394L25.82,53.042Z"/>
      <path class="cls-4" d="M21.6563,40.957a.3693.3693,0,0,0,.121.2959c.5176.5176,2.0059.54,2.6465.5059l.2266-.0127.5664,3.8379a5.1576,5.1576,0,0,0,1.416-4.4629l.0039-.001a4.5871,4.5871,0,0,0-.6113-.8271,5.2759,5.2759,0,0,0-1.2637-.8379C23.2852,39.76,21.6885,40.3789,21.6563,40.957Z"/>
      <path class="cls-4" d="M22.5342,43.68a2.4139,2.4139,0,0,0-1.711-.6758l-.2255.01-.3868-2.7588c-.59.4316-1.4433,1.1982-1.3984,2.0088a15.5709,15.5709,0,0,0,1.1318,5.2832c.21.61,1.1983.7373,1.6514.7637a5.1515,5.1515,0,0,0,1.4707-2.3946A2.7154,2.7154,0,0,0,22.5342,43.68Z"/>
      <path class="cls-4" d="M45.9375,33.9024,53.67,26.0518c-.999-.5342-1.8086-.8994-1.876-.9268l-2.2011-1.6387v1.7764L45.9356,31.3,42.19,25.0117V23.61l-2.0547,1.3427a14.454,14.454,0,0,0-2.166.8614Z"/>
      <path class="cls-4" d="M18.041,23.5586a18.3158,18.3158,0,0,1-3.873-1.1836,19.7231,19.7231,0,0,1-3.8741-3.039l-.1455-.1465-.0625.1963c-.0205.0634-2.0312,6.4638-1.3486,11.8974.5293,4.2227,3.3252,10.4434,3.3545,10.5049l.1523.3379.0821-.3613a13.7555,13.7555,0,0,1,1.1728-3.2119,13.5977,13.5977,0,0,1,2.04-2.2852l.03-.0273.0088-.0411a23.0531,23.0531,0,0,1,.9922-3.5078,5.8413,5.8413,0,0,1,2.3262-2.4062Z"/>
      <path class="cls-4" d="M78.1885,35.9434a4.37,4.37,0,0,1-2.626-.7989,4.85,4.85,0,0,0-.01,6.1485,9.8311,9.8311,0,0,0,1.7344.1914,1.5275,1.5275,0,0,0,1.167-.32.5046.5046,0,0,0,.1074-.4278A24.5494,24.5494,0,0,1,78.1885,35.9434Z"/>
      <path class="cls-4" d="M70.8027,43.5908a2.5775,2.5775,0,0,0-1.5107,1.5127,3.4593,3.4593,0,0,0-.1543,2.8985,3.16,3.16,0,0,0,1.59,1.4453,4.31,4.31,0,0,0,2.9414-1.4365,7.4157,7.4157,0,0,0,.6045-4.02A5.15,5.15,0,0,0,70.8027,43.5908Z"/>
      <path class="cls-4" d="M26.71,52.5254a13.0937,13.0937,0,0,0,3.4326-1.33c.3144-.8291,1.8047-5.1318.0215-7.9951l.4218-.2627c1.6582,2.6641.7334,6.3262.2217,7.87a17.8158,17.8158,0,0,0,3.3936-2.7334,12.153,12.153,0,0,0,2.5537-3.914l-.69-7.6944.4942-.0439.707,7.8848c.335.6093.8467,1.2695,1.5,1.2734.8877.0059,1.7.0117,2.4815.0176h1.7871V43.5664h.4961v2.0313H45.69v-11.24l-8.1817-8.3027A7.2269,7.2269,0,0,0,34.5322,28.74a22.7237,22.7237,0,0,0-1.5478,3.6582,30.5818,30.5818,0,0,1-2.1084,4.9043,8.6981,8.6981,0,0,1-3.73,3.8789,5.8082,5.8082,0,0,1-.2813,2.6914C29.7637,47.2041,27.52,51.2871,26.71,52.5254Z"/>
      <path class="cls-4" d="M25.3057,46.1856l.915,6.1894c.67-.9629,2.9981-4.791.4219-7.9931A5.6158,5.6158,0,0,1,25.3057,46.1856Z"/>
      <rect class="cls-4" x="49.9053" y="46.0938" width="3.2207" height="1.5683"/>
      <polygon class="cls-4" points="38.625 47.662 41.877 47.662 41.877 46.094 38.625 46.085 38.625 47.662"/>
      <rect class="cls-4" x="42.3731" y="46.0938" width="7.0361" height="1.5683"/>
      <path class="cls-4" d="M39.8965,99.6748c1.916.2119,3.82.3643,5.48.3906V48.1738H43.416Z"/>
      <path class="cls-4" d="M42.9189,48.1738H38.585l-.0381.045c-.1162.1367-2.8672,3.3906-3.2774,5.9355-2.6865,16.5938-6.1562,41.8789-6.4218,43.8184.7636.1484,5.62,1.0742,10.5546,1.6465Z"/>
      <path class="cls-4" d="M56.374,54.1543c-.41-2.543-2.9179-5.7949-3.0244-5.9316l-.0371-.0489H48.3818l3.5381,51.53c4.8994-.5029,9.7373-1.3662,10.8965-1.58l-.0039-.0293C62.7764,97.8291,59.1553,71.332,56.374,54.1543Z"/>
      <path class="cls-4" d="M45.8731,48.1738V100.07c1.6933-.0019,3.6181-.1289,5.5537-.3174l-3.542-51.5791Z"/>
      <path class="cls-4" d="M58.1768,99.4024c-1.8633.2832-4.0635.583-6.2754.8076a.296.296,0,0,0,.0351.2431c.128.1543.2354.295.333.4239.5694.7519.8555,1.1289,3.0733,1.1289.2119,0,.4424-.0039.6933-.01,1.419-.0371,3.3916.2061,3.4414-1.3555a1.1012,1.1012,0,0,0-.3037-.8222A1.5649,1.5649,0,0,0,58.1768,99.4024Z"/>
      <path class="cls-4" d="M34.002,99.3731a.4862.4862,0,0,1-.1954.0195A2.1439,2.1439,0,0,0,33.33,99.34a1.6355,1.6355,0,0,0-1.1768.43,1.11,1.11,0,0,0-.3037.8243c.043,1.35,1.5547,1.35,2.77,1.35h.1475c.18,0,.3565,0,.5244.0039.25.0078.4805.0107.6924.0107h.001c2.2168,0,2.5029-.3779,3.0722-1.1279.0987-.13.2051-.2715.334-.4238a.3346.3346,0,0,0,.0254-.2871C37.5293,99.9014,35.65,99.6319,34.002,99.3731Z"/>
      <path class="cls-4" d="M64.293,39.4854a.92.92,0,0,0,.1806.0166,5.5687,5.5687,0,0,0,1.7657-.5117c.2509-.504,1.1132-2.0352,1.9326-3.3809l-3.5488.8262a7.5534,7.5534,0,0,0-.4522,2.95A.1714.1714,0,0,0,64.293,39.4854Z"/>
      <path class="cls-4" d="M72.2773,29.5567l-4.207.789-.0244.0283A26.3708,26.3708,0,0,0,66.0947,32.98l4.5-1.0332C71.3369,30.877,72.0127,29.9278,72.2773,29.5567Z"/>
      <path class="cls-4" d="M68.5381,35.0156c.0674-.1074.1377-.22.2021-.32.4112-.6386.9307-1.4082,1.4473-2.16L65.7354,33.57c-.1241.2188-.2373.4356-.3311.6426a14.7557,14.7557,0,0,0-.6191,1.6738l3.7529-.872Z"/>
      <path class="cls-4" d="M46.19,24.0664h-.0176a9.364,9.364,0,0,1-1.5352-.1933l-.07-.0137-1.8808-1.833V24.875L45.94,30.3369l3.1572-5.2129V22.125l-1.33,1.7295-.0889.0186A9.2565,9.2565,0,0,1,46.19,24.0664Z"/>
      <path class="cls-4" d="M49.9981,15.8379l-.8057-2.6465h-6.586l-.9892,2.51.7949,4.998h0v.002l.07.4346,2.3262,2.2666a8.538,8.538,0,0,0,1.3633.1679h.0137a8.3712,8.3712,0,0,0,1.3007-.164l1.7784-2.3125Zm-7.2208.834a.1022.1022,0,0,1-.0771-.0713,1.47,1.47,0,0,1,.1318-1.1924,1.384,1.384,0,0,1,1.2227-.4463,1.3238,1.3238,0,0,1,1.1133.5108,1.9979,1.9979,0,0,1,.1093,1.5664.1057.1057,0,0,1-.0957.0722l-.0058.001a.1065.1065,0,0,1-.0967-.0635c-.1221-.2724-.5381-.996-.9814-1.0625-.5176-.0654-1.2129.6485-1.22.6563A.1062.1062,0,0,1,42.7773,16.6719Zm3.83,1.63L45.874,19.57l-.7314-1.2685Zm-.0908,3.748a1.6459,1.6459,0,0,0-1.2393-.01l-.2216-.4434a2.1407,2.1407,0,0,1,1.6386-.01Zm1.3916-1.09H43.8447l-.0468-.2754L45.78,19.98l.0459.0156,2.126.6875ZM49.05,16.6026a.1073.1073,0,0,1-.1787.0419c-.0059-.0078-.64-.6621-1.1436-.6621a.5012.5012,0,0,0-.0761.0059c-.4405.0664-.8575.79-.9815,1.0635a.1047.1047,0,0,1-.0957.0625l-.0058-.001a.1059.1059,0,0,1-.0957-.0723,2.0047,2.0047,0,0,1,.1093-1.5673,1.326,1.326,0,0,1,1.1123-.51,1.36,1.36,0,0,1,1.2237.4463A1.4747,1.4747,0,0,1,49.05,16.6026Z"/>
      <path class="cls-4" d="M38.7422,20.668a2.1664,2.1664,0,0,0,1.543.7207,2.4893,2.4893,0,0,0,1.622-.709l-.8017-5.0332,1.1631-2.9512H49.56l.9443,3.1035-.0068.0538-.6748,4.8339a2.4785,2.4785,0,0,0,1.6123.7022,2.1759,2.1759,0,0,0,1.5459-.7207c2.8476-2.8477-1.05-7.2451-1.543-7.7783l.9941-3.5108H39.54l.9932,3.5078c-.4.4043-2.7793,2.9043-2.7949,5.3662A3.2762,3.2762,0,0,0,38.7422,20.668Z"/>
      <path class="cls-4" d="M54.1231,26.2988l-7.9375,8.0586v11.24h2.0986V43.5684H48.78v2.0293h3.9931c.6387-.0049,1.1387-.6338,1.4747-1.2324l.7558-7.8829.4942.0469-.7413,7.7276a11.0658,11.0658,0,0,0,2.7793,4.1494,21.5682,21.5682,0,0,0,3.3662,2.5449c-1.9921-5.043.5528-7.9258.6661-8.05l.3662.3349c-.1084.1182-2.6084,2.9551-.3946,7.9825l.0616.1328a2.6238,2.6238,0,0,0,.9619.3545.3238.3238,0,0,0,.0586-.0108,27.5156,27.5156,0,0,1,.8906-5.332,37.3747,37.3747,0,0,1,1.5459-4.6016,11.2464,11.2464,0,0,1-3.9629-4.4043,22.12,22.12,0,0,1-1.8057-4.54,11.5745,11.5745,0,0,0-1.8593-4.0381A11.294,11.294,0,0,0,54.1231,26.2988Z"/>
      <path class="cls-4" d="M83.6943,24.5059l-.1552-.17-.0577.2236a16.0377,16.0377,0,0,1-.8271,2.415,6.9648,6.9648,0,0,1-1.5771,2.0137,9.3269,9.3269,0,0,0-1.4014,1.6211,8.3536,8.3536,0,0,0-.8311,2.1191h-.0175A3.8064,3.8064,0,0,1,79.4,30.6153a14.2664,14.2664,0,0,1,1.2031-1.5176A6.59,6.59,0,0,0,82.3613,26.09a12.31,12.31,0,0,0,.002-3.6055l-.0244-.168-.1533.0723a31.3074,31.3074,0,0,0-7.1973,4.86,33.6323,33.6323,0,0,0-2.5957,2.8995,48.4993,48.4993,0,0,0-5.2178,8.01c-.5791,1.1162-1.1309,2.2813-1.63,3.4971-.291.709-.5576,1.4375-.81,2.1748q-.085.2431-.1641.4863c-.21.6387-.4072,1.2852-.582,1.9434-.0147.0566-.0332.1094-.0479.166a30.0659,30.0659,0,0,0-.9873,7.7109c-.0361,1.2393-.0742,2.5215-.2226,4.1338a28.4,28.4,0,0,1-.7578,4.333l-.0313.1348c-.4844,2.1035-1.5908,5.3389-1.6016,5.3711l.2041.1309a22.9958,22.9958,0,0,1,3.5782-2.793,23.216,23.216,0,0,1,3.8427-1.461l.2217-.0625-.1738-.1513a8.6026,8.6026,0,0,1-2.5918-6.6455c.2314-3.16,4.0313-7.127,4.4717-7.5762a3.3643,3.3643,0,0,1-1.2022-1.335,3.9257,3.9257,0,0,1,.1446-3.3066,3.0564,3.0564,0,0,1,1.8027-1.7861,5.4423,5.4423,0,0,1,3.6582.3349l.9336-1.7783a5.421,5.421,0,0,1-.0059-6.9092c-.02-.03-.04-.06-.0595-.0927-.4952-.8145-.3272-1.9454.498-3.3594l.4277.25c-.7255,1.2451-.8945,2.2051-.5019,2.8525.5742.9453,2.1846,1.0244,2.6807,1.0264A11.3906,11.3906,0,0,0,81.28,31.3809a7.6725,7.6725,0,0,1,1.3486-2.2022,5.54,5.54,0,0,0,1.4688-3.0595A2.1084,2.1084,0,0,0,83.6943,24.5059Zm-5.6406,4.291a.6943.6943,0,1,1,.7578-.6914A.7254.7254,0,0,1,78.0537,28.7969Z"/>
    </g>
  </g>
</svg>
