<?xml version="1.0" encoding="UTF-8" standalone="no"?>
<!-- Created with Inkscape (http://www.inkscape.org/) -->

<svg
   xmlns:dc="http://purl.org/dc/elements/1.1/"
   xmlns:cc="http://creativecommons.org/ns#"
   xmlns:rdf="http://www.w3.org/1999/02/22-rdf-syntax-ns#"
   xmlns:svg="http://www.w3.org/2000/svg"
   xmlns="http://www.w3.org/2000/svg"
   xmlns:sodipodi="http://sodipodi.sourceforge.net/DTD/sodipodi-0.dtd"
   xmlns:inkscape="http://www.inkscape.org/namespaces/inkscape"
   id="svg2"
   version="1.1"
   inkscape:version="0.91 r13725"
   xml:space="preserve"
   width="800"
   height="552"
   viewBox="0 0 799.99996 552"
   sodipodi:docname="Logo Arcueil.svg"><metadata
     id="metadata8"><rdf:RDF><cc:Work
         rdf:about=""><dc:format>image/svg+xml</dc:format><dc:type
           rdf:resource="http://purl.org/dc/dcmitype/StillImage" /><dc:title></dc:title></cc:Work></rdf:RDF></metadata><defs
     id="defs6" /><sodipodi:namedview
     pagecolor="#ffffff"
     bordercolor="#666666"
     borderopacity="1"
     objecttolerance="10"
     gridtolerance="10"
     guidetolerance="10"
     inkscape:pageopacity="0"
     inkscape:pageshadow="2"
     inkscape:window-width="1440"
     inkscape:window-height="788"
     id="namedview4"
     showgrid="false"
     inkscape:zoom="0.53176208"
     inkscape:cx="487.35873"
     inkscape:cy="52.909218"
     inkscape:window-x="0"
     inkscape:window-y="1"
     inkscape:window-maximized="1"
     inkscape:current-layer="g10" /><g
     id="g10"
     inkscape:groupmode="layer"
     inkscape:label="Logo Arcueil"
     transform="matrix(1.25,0,0,-1.25,0,552.00003)"><g
       id="g5223"
       transform="matrix(20.377069,0,0,20.377069,-16137.451,-641.03813)"><g
         id="g5218"><path
           inkscape:connector-curvature="0"
           id="path68"
           style="fill:#000000;fill-opacity:1;fill-rule:nonzero;stroke:none"
           d="m 806.381,41.1101 0.52,-0.254 c 0.729,1.201 1.148,2.611 1.148,4.119 0,4.394 -3.562,7.955 -7.956,7.955 -4.393,0 -7.955,-3.561 -7.955,-7.955 0,-3.49 2.247,-6.455 5.373,-7.528 l 0.23,0.522 c -2.931,0.98 -5.044,3.748 -5.044,7.008 0,4.081 3.308,7.388 7.388,7.388 4.08,0 7.388,-3.307 7.388,-7.388 0,-1.418 -0.399,-2.742 -1.092,-3.867" /><path
           inkscape:connector-curvature="0"
           id="path72"
           style="fill:#000000;fill-opacity:1;fill-rule:nonzero;stroke:none"
           d="m 805.804,41.5331 c 0.601,0.989 0.955,2.174 0.955,3.441 0,3.682 -2.984,6.666 -6.665,6.666 -3.681,0 -6.665,-2.984 -6.665,-6.666 0,-2.952 1.92,-5.456 4.579,-6.332 l 0.14,0.564 c -2.407,0.811 -4.141,3.088 -4.141,5.768 0,3.362 2.725,6.087 6.087,6.087 3.361,0 6.086,-2.725 6.086,-6.087 0,-1.174 -0.332,-2.271 -0.896,-3.181 l 0.52,-0.26 z" /><path
           inkscape:connector-curvature="0"
           id="path76"
           style="fill:#000000;fill-opacity:1;fill-rule:nonzero;stroke:none"
           d="m 802.392,46.1322 c 0.39,-0.527 0.343,-1.697 0.025,-2.178 -0.161,-0.435 -0.481,-0.777 -0.894,-0.985 -0.141,0.322 -0.23,0.688 -0.437,0.962 -0.823,-0.044 -1.557,-0.044 -2.358,0 0.161,-0.365 0.503,-0.664 0.641,-1.097 -0.802,0.411 -1.374,1.167 -1.353,2.267 0.092,0.939 0.573,1.693 1.376,2.037 0.71,0.344 1.74,0.23 2.291,-0.228 0.274,-0.205 0.55,-0.459 0.709,-0.778" /></g><g
         id="g5208"><path
           inkscape:connector-curvature="0"
           id="path80"
           style="fill:#000000;fill-opacity:1;fill-rule:nonzero;stroke:none"
           d="m 797.275,37.6331 c -0.114,-0.205 -0.228,-0.502 -0.342,-0.685 -0.184,-0.344 -0.344,-0.756 -0.55,-1.101 -0.045,-0.044 -0.024,-0.16 -0.093,-0.183 -0.345,-0.686 -0.665,-1.421 -1.007,-2.039 -0.022,-0.136 -0.116,-0.252 -0.161,-0.388 -0.139,-0.297 -0.368,-0.687 -0.527,-1.031 0.228,-0.024 0.527,-0.024 0.71,-0.024 0.277,0.548 0.551,1.077 0.802,1.651 l 0.046,0 c 0.298,0.754 0.687,1.374 0.984,2.107 l 0.046,0 0,0.091 c 0.139,0.277 0.32,0.548 0.389,0.825 0.826,1.558 1.581,3.16 2.384,4.719 0.023,0.07 0.044,0.182 0.113,0.159 0.255,-0.803 0.502,-1.421 0.757,-2.222 l 0.022,0 c 0.16,-0.457 0.321,-0.893 0.459,-1.375 0,-0.114 0.09,-0.18 0.136,-0.25 -0.022,-0.229 0.206,-0.459 0.184,-0.734 l -2.243,0 0,0.022 c -0.413,0 -0.504,0 -0.85,-0.022 -0.022,-0.321 -0.274,-0.482 -0.321,-0.732 0.369,0.114 0.894,0.114 1.305,0.114 0.689,0.025 1.651,-0.069 2.361,-0.045 0.207,-0.528 0.389,-1.102 0.596,-1.649 0.437,-1.191 0.597,-2.659 1.809,-3.186 0.322,0.252 0.617,0.551 0.984,0.756 0.116,0.094 0.277,0.139 0.346,0.252 l -0.048,0 c -1.122,0.505 -1.328,1.857 -1.717,2.932 -0.916,2.589 -1.673,5.269 -2.658,7.811 -0.113,0.069 -0.136,0.207 -0.228,0.299 -0.068,-0.092 -0.137,0.069 -0.206,-0.023 l 0,0.023 c -0.688,-0.045 -1.009,-0.023 -1.625,0 0.273,-0.322 0.502,-0.688 0.616,-1.145 -0.504,-1.078 -1.118,-2.131 -1.649,-3.254 l -0.274,-0.596 c -0.081,-0.178 -0.164,-0.337 -0.275,-0.526 l -0.275,-0.551 z" /><path
           inkscape:connector-curvature="0"
           id="path92"
           style="fill:#000000;fill-opacity:1;fill-rule:nonzero;stroke:none"
           d="m 822.969,36.2071 c 0.022,-0.574 -0.114,-1.169 0.022,-1.788 l -0.022,0 c -0.023,-0.091 0.089,-0.227 0.047,-0.319 -0.415,-0.229 -0.848,-0.39 -1.263,-0.642 0.047,1.419 0.024,3.137 0.139,4.42 0,0.435 0.091,1.123 -0.253,1.352 0.044,0.114 -0.092,0.092 -0.07,0.161 0.092,0.092 0.277,0.114 0.393,0.205 0.458,0.161 0.799,0.482 1.19,0.733 0.02,-1.442 -0.206,-2.747 -0.183,-4.122" /><path
           inkscape:connector-curvature="0"
           id="path96"
           style="fill:#000000;fill-opacity:1;fill-rule:nonzero;stroke:none"
           d="m 820.815,39.9176 c 0.09,-0.161 0.114,-0.457 0.021,-0.618 -0.112,-0.229 -0.297,-0.389 -0.525,-0.412 l -0.32,0.023 c -0.048,0 -0.184,0.09 -0.276,0.137 -0.139,0.205 -0.344,0.413 -0.207,0.754 0.092,0.23 0.299,0.344 0.483,0.46 0.411,0.092 0.663,-0.116 0.824,-0.344" /><path
           inkscape:connector-curvature="0"
           id="path100"
           style="fill:#000000;fill-opacity:1;fill-rule:nonzero;stroke:none"
           d="m 807.873,38.6343 c -0.23,-0.343 -0.366,-0.709 -0.505,-1.099 -0.457,0.138 -0.778,-0.114 -1.122,-0.229 -0.069,-0.894 0,-2.083 -0.069,-3.092 -0.411,-0.161 -0.801,-0.366 -1.167,-0.596 0.046,0.321 0.046,0.504 0,0.87 0.069,0.779 0.022,1.741 0.046,2.611 -0.07,0.275 -0.23,0.482 -0.391,0.688 0.528,0.138 1.008,0.504 1.512,0.756 l 0,0.022 0.047,-0.092 c -0.025,-0.069 0.022,-0.274 -0.047,-0.365 0.092,-0.045 0.204,0.071 0.321,0.091 0.207,0.159 0.48,0.252 0.732,0.366 l 0,-0.022 c 0.069,-0.092 0.138,0.138 0.252,0.022 0.115,0.091 0.298,0.044 0.391,0.069" /><path
           inkscape:connector-curvature="0"
           id="path104"
           style="fill:#000000;fill-opacity:1;fill-rule:nonzero;stroke:none"
           d="m 820.953,38.6097 c 0,-0.524 -0.117,-1.58 -0.138,-2.356 l 0.044,-2.131 c -0.367,-0.183 -0.686,-0.343 -1.031,-0.526 -0.044,-0.047 -0.113,-0.114 -0.183,-0.114 -0.045,1.053 -0.069,2.336 0,3.572 0.045,0.274 -0.227,0.456 -0.296,0.71 0.274,0.091 0.479,0.274 0.778,0.343 0.092,0.136 0.274,0.161 0.365,0.297 0.115,0.091 0.323,0.091 0.392,0.23 l 0.069,-0.025 z" /><path
           inkscape:connector-curvature="0"
           id="path108"
           style="fill:#000000;fill-opacity:1;fill-rule:nonzero;stroke:none"
           d="m 812.501,37.2598 c 0.022,-0.778 -0.069,-1.945 0.274,-2.749 0.023,-0.045 0.091,-0.045 0.07,-0.114 0.067,0.069 0.113,-0.138 0.182,-0.044 l 0,-0.05 c 0.206,-0.044 0.573,-0.066 0.711,0.072 -0.138,0.893 0.022,2.655 -0.07,3.274 -0.046,0.093 -0.091,0.229 -0.046,0.299 0.185,0.024 0.345,0.091 0.504,0.16 0.025,0.045 -0.022,-0.044 0.025,-0.044 0.066,0.116 0.181,0.136 0.273,0.205 l 0.344,0.16 c 0.045,0.092 0.159,0.092 0.206,0.161 -0.114,-1.169 -0.161,-2.682 -0.092,-3.688 0.023,-0.367 0.228,-0.665 0.551,-0.801 -0.023,-0.094 -0.184,-0.047 -0.207,-0.139 -0.299,-0.113 -0.55,-0.321 -0.824,-0.479 -0.321,0.066 -0.435,0.319 -0.595,0.524 -0.185,-0.091 -0.39,-0.136 -0.552,-0.275 l 0,0.025 c -0.297,-0.091 -0.732,-0.299 -1.1,-0.091 -0.501,0.183 -0.709,0.753 -0.756,1.26 -0.16,0.799 -0.021,1.669 -0.09,2.542 l -0.14,0.274 c 0.346,0.067 0.691,0.344 0.986,0.527 0.025,0.069 0.138,0.044 0.138,0.136 l 0.253,0.185 c 0,-0.482 -0.045,-0.781 -0.045,-1.33" /><path
           inkscape:connector-curvature="0"
           id="path112"
           style="fill:#000000;fill-opacity:1;fill-rule:nonzero;stroke:none"
           d="m 809.841,38.5428 c 0,-0.022 0,-0.047 0.025,-0.069 0.16,0.136 0.457,0 0.595,0.022 0.161,-0.044 0.297,-0.158 0.503,-0.205 -0.229,-0.299 -0.411,-0.684 -0.527,-1.1 -0.342,0.299 -0.893,0.482 -1.397,0.391 l -0.067,-0.022 0,0.022 c -0.069,-0.071 -0.461,0.091 -0.481,-0.138 -0.321,-0.849 -0.162,-1.855 0.389,-2.426 0.159,-0.277 0.526,-0.39 0.778,-0.576 0.115,0.024 0.252,-0.089 0.413,-0.089 0.273,0.022 0.686,-0.025 0.938,0.044 -0.528,-0.321 -1.075,-0.64 -1.603,-0.939 -0.503,0.252 -1.097,0.39 -1.512,0.756 -0.527,0.414 -0.801,1.237 -0.687,1.969 0.138,0.664 0.502,1.215 1.076,1.535 0.459,0.207 0.893,0.526 1.329,0.778 0.092,0.025 0.186,-0.022 0.228,0.047" /><path
           inkscape:connector-curvature="0"
           id="path116"
           style="fill:#000000;fill-opacity:1;fill-rule:nonzero;stroke:none"
           d="m 818.249,38.4738 0,0 c 0.115,0 0.23,-0.091 0.344,-0.136 0.274,-0.205 0.458,-0.551 0.412,-1.031 -0.091,-0.208 -0.07,-0.344 -0.138,-0.571 -0.548,-0.141 -1.053,-0.368 -1.58,-0.553 0.275,0.323 0.595,0.803 0.458,1.328 -0.115,0.185 -0.206,0.367 -0.435,0.437 -0.413,-0.341 -0.847,-0.688 -0.893,-1.306 -0.138,-0.64 0.116,-1.397 0.572,-1.765 0.16,-0.203 0.437,-0.318 0.663,-0.457 0.162,-0.045 0.483,-0.161 0.667,-0.092 0.022,-0.044 0.136,-0.044 0.185,0 l 0.02,-0.025 0.596,0.05 -0.985,-0.573 c -0.069,-0.139 -0.299,-0.115 -0.365,-0.253 -0.049,0.069 -0.071,-0.044 -0.14,0 -0.938,0.045 -1.808,0.413 -2.174,1.239 -0.482,0.823 -0.07,1.899 0.388,2.563 0.183,0.092 0.298,0.253 0.504,0.298 l 0.205,0.138 0,-0.023 c 0.114,0.114 0.322,0.114 0.414,0.275 0.113,-0.025 0.138,0.069 0.207,0.116 0.161,0.091 0.343,0.136 0.456,0.272 l 0.046,-0.047 c 0.094,0.094 0.252,0.185 0.39,0.138 l 0.183,-0.022 z" /></g><g
         id="g5200"><path
           inkscape:connector-curvature="0"
           id="path120"
           style="fill:#000000;fill-opacity:1;fill-rule:nonzero;stroke:none"
           d="m 810.161,38.9109 0,0.679 c 0,0.036 0.004,0.181 0.004,0.288 l -0.004,0 -0.321,-0.967 -0.155,0 -0.326,0.967 -0.002,0 c 0,-0.107 0.002,-0.252 0.002,-0.288 l 0,-0.679 -0.15,0 0,1.152 0.224,0 0.328,-0.975 0.004,0 0.327,0.975 0.221,0 0,-1.152 -0.152,0 z" /><path
           inkscape:connector-curvature="0"
           id="path124"
           style="fill:#000000;fill-opacity:1;fill-rule:nonzero;stroke:none"
           d="m 811.994,39.246 0.116,-0.335 0.17,0 -0.419,1.152 -0.175,0 -0.435,-1.152 0.163,0 0.12,0.335 0.46,0 z m -0.415,0.138 0.187,0.507 0.002,0 0.17,-0.507 -0.359,0 z" /><path
           d="m 813.402,38.911 -0.155,0 0,1.152 0.155,0 0,-1.152 z"
           style="fill:#000000;fill-opacity:1;fill-rule:nonzero;stroke:none"
           id="path126"
           inkscape:connector-curvature="0" /><path
           inkscape:connector-curvature="0"
           id="path130"
           style="fill:#000000;fill-opacity:1;fill-rule:nonzero;stroke:none"
           d="m 814.645,39.4043 0.378,0 c 0.186,0 0.203,-0.109 0.203,-0.205 0,-0.043 0.006,-0.218 0.028,-0.288 l 0.192,0 0,0.027 c -0.048,0.024 -0.057,0.049 -0.059,0.113 l -0.009,0.209 c -0.005,0.16 -0.072,0.188 -0.137,0.218 0.071,0.042 0.161,0.105 0.161,0.272 0,0.248 -0.193,0.312 -0.379,0.312 l -0.534,0 0,-1.151 0.156,0 0,0.493 z m 0,0.525 0.388,0 c 0.076,0 0.208,-0.014 0.208,-0.192 0,-0.17 -0.121,-0.198 -0.234,-0.198 l -0.362,0 0,0.39 z" /><path
           d="m 816.609,40.063 -0.154,0 0,-1.152 0.154,0 0,1.152 z"
           style="fill:#000000;fill-opacity:1;fill-rule:nonzero;stroke:none"
           id="path132"
           inkscape:connector-curvature="0" /><path
           inkscape:connector-curvature="0"
           id="path136"
           style="fill:#000000;fill-opacity:1;fill-rule:nonzero;stroke:none"
           d="m 818.545,38.9109 -0.851,0 0,1.152 0.84,0 0,-0.138 -0.684,0 0,-0.353 0.629,0 0,-0.138 -0.629,0 0,-0.386 0.695,0 0,-0.137 z" /></g></g></g></svg>