<svg width="307" height="81" viewBox="0 0 307 81" fill="none" xmlns="http://www.w3.org/2000/svg">
<g clip-path="url(#clip0_140_3372)">
<path d="M94.3619 64.8594H86.0007V60.1384C83.1283 63.5512 77.4973 66.1107 72.7195 66.1107C62.9079 66.1107 54.2054 58.2899 54.2054 45.6344C54.2054 33.9742 62.7088 25.5562 73.2598 25.5562C80.9954 25.5562 85.6025 31.1018 85.8585 31.6422H86.0007V26.8359H94.3619L94.3619 64.8594ZM74.6249 33.8889C67.1454 33.8889 63.306 40.3162 63.306 46.0041C63.306 52.4314 68.1123 57.7211 74.6249 57.7211C80.9385 57.7211 85.7163 52.8011 85.7163 45.7197C85.7163 37.8704 80.0284 33.8889 74.6249 33.8889Z" fill="#222222"/>
<path d="M140.263 26.8359V57.8917C140.263 76.1783 126.697 80.3589 119.502 80.3589C111.681 80.3589 103.662 76.2351 100.391 67.7602H110.8C114.355 71.9977 118.763 71.9977 120.185 71.9977C125.332 71.9977 131.362 68.4427 131.845 60.1384L131.703 59.9963C130.48 61.7026 126.982 66.0823 119.218 66.0823C109.975 66.0823 99.7654 58.2046 99.7654 45.4637C99.7654 33.5476 109.492 25.5277 119.161 25.5277C126.982 25.5277 130.252 29.9927 131.276 31.5H131.418V26.8359L140.263 26.8359ZM119.986 33.8889C114.497 33.8889 108.894 38.3539 108.894 45.549C108.894 53.2846 114.724 57.7495 120.27 57.7495C125.759 57.7495 131.162 53.0855 131.162 45.4922C131.162 40.0602 126.783 33.8889 119.986 33.8889Z" fill="#222222"/>
<path d="M146.52 26.8359H154.938V30.1349C156.445 28.6845 159.602 25.5562 165.347 25.5562C168.646 25.5562 173.651 27.0066 176.779 30.8459C180.277 35.0265 180.277 41.3969 180.277 44.3546V64.9163H171.177V46.1463C171.177 42.9895 171.177 33.9458 163.498 33.9458C161.849 33.9458 158.919 34.7705 157.27 37.3016C155.62 39.6336 155.62 43.6152 155.62 46.8288V64.9163H146.52L146.52 26.8359Z" fill="#222222"/>
<path d="M195.635 49.9287C196.033 52.4029 199.616 57.7495 206.129 57.7495C210.167 57.7495 213.182 56.0432 214.888 52.8864H224.472C222.282 59.7403 215.002 66.1107 206.1 66.1107C194.781 66.1107 186.022 57.067 186.022 45.9756C186.022 35.2255 194.326 25.3571 206.043 25.3571C218.102 25.3571 225.723 35.7659 225.723 45.3784C225.723 47.1701 225.439 48.7342 225.183 49.9571H195.635V49.9287ZM216.395 42.5913C215.372 36.5053 210.651 33.6898 206.129 33.6898C202.773 33.6898 197.085 35.5384 195.379 42.5913H216.395Z" fill="#222222"/>
<path d="M265.055 26.8359V64.8594H256.694V61.0201H256.552C255.044 63.0677 252.57 66.0823 246.74 66.0823C239.829 66.0823 235.905 62.6696 233.999 60.0531C231.184 56.0147 231.184 49.8434 231.184 46.6866V26.8075H240.284V46.2032C240.284 49.2746 240.284 57.7211 248.247 57.7211C253.992 57.7211 255.926 52.3176 255.926 46.2885V26.8359L265.055 26.8359Z" fill="#222222"/>
<path d="M282.602 45.2647L270.828 26.8359H281.038L288.034 38.2686L294.945 26.8359H305.155L293.381 45.2647L307.003 64.8594H296.168L288.006 51.8342L279.929 64.8594H269.094L282.602 45.2647Z" fill="#222222"/>
<path d="M8.38962 56.811H0V65.1153H8.38962V56.811Z" fill="#222222"/>
<path d="M44.4223 27.1488C40.3839 23.5654 36.7721 21.5462 33.5869 21.1481C37.995 20.238 40.1849 17.8491 40.1849 13.9814C40.1849 10.2274 38.6776 7.0137 35.6346 4.36884C32.62 1.69554 28.9797 0.387326 24.7423 0.387326H11.1198V8.77695H19.3672V8.74851H24.7423C26.5055 8.74851 27.9844 9.23198 29.1219 10.2274C30.2595 11.2227 30.8283 12.4741 30.8283 13.9814C30.8283 15.4886 30.2879 16.6831 29.1788 17.5932C28.1834 18.4179 26.9605 18.9014 25.567 19.0151H19.3672H9.89691H8.38962V0.358887H0V53.9103H8.38962V27.6323H11.1198H19.8223H24.4579C28.9513 27.6323 32.7906 29.0542 35.9758 31.8697C39.161 34.6852 40.7536 38.098 40.7536 42.051C40.7536 46.0894 39.161 49.559 35.9474 52.4598C33.0466 55.1331 30.6292 56.5267 28.6669 56.6404H11.1198V65.1154H28.6669C33.4447 65.0585 38.1941 62.8687 42.915 58.5174C47.9488 53.9103 50.4799 48.4215 50.4799 42.0795C50.4799 35.709 48.4607 30.7322 44.4223 27.1488Z" fill="#00AB46"/>
</g>
<defs>
<clipPath id="clip0_140_3372">
<rect width="307.003" height="80" fill="white" transform="translate(0 0.358887)"/>
</clipPath>
</defs>
</svg>
