<svg width="324" height="72" viewBox="0 0 324 72" fill="none" xmlns="http://www.w3.org/2000/svg">
<g clip-path="url(#clip0_4524_14597)">
<path d="M95.5097 19.546C97.2842 19.546 98.4672 20.6636 98.921 22.3887C100.485 22.5345 102.032 22.6884 103.564 22.8504C102.924 18.9223 100.339 15.707 95.5097 15.707C91.6528 15.707 88.7196 18.1529 87.6338 21.5302C89.1814 21.6274 90.7128 21.7246 92.2362 21.838C92.8358 20.4207 93.9621 19.546 95.5178 19.546H95.5097Z" fill="#9EADE5"/>
<path d="M87.1634 24.548C87.1634 29.7071 90.915 33.2706 95.9792 33.2706C99.034 33.2706 101.303 32.072 102.875 30.1201L100.136 27.6985C98.8152 28.9296 97.6484 29.4317 96.044 29.4317C93.9049 29.4317 92.3897 28.2978 91.9197 26.1273H103.669C103.701 25.6899 103.734 25.2445 103.734 24.8719C103.734 24.1835 103.677 23.5113 103.563 22.8553C102.04 22.6933 100.492 22.5394 98.9205 22.3937C98.9854 22.6285 99.034 22.8796 99.0664 23.1388H91.8549C91.9359 22.669 92.0656 22.2317 92.2276 21.8429C90.7124 21.7295 89.1729 21.6323 87.6252 21.5352C87.3254 22.4584 87.1553 23.4546 87.1553 24.4913V24.5561L87.1634 24.548Z" fill="#001689"/>
<path d="M5.35846 10.8555H0.504883V25.7495C2.07683 25.4499 3.69739 25.1664 5.35846 24.891V10.8555Z" fill="#9EADE5"/>
<path d="M35.0065 20.1057H38.9769V16.0157H35.0065V11.707H30.2178V16.0157H28.2002V20.1057H30.2178V21.9604C31.7978 21.8389 33.3941 21.7255 35.0065 21.6202V20.1057Z" fill="#9EADE5"/>
<path d="M50.0287 19.546C51.2036 19.546 52.1192 20.04 52.735 20.8742C54.3313 20.8418 55.9275 20.8175 57.54 20.8013C56.4299 17.8614 53.9829 15.707 50.0287 15.707C46.2933 15.707 43.4168 18.0072 42.25 21.2306C43.8868 21.1577 45.5316 21.0929 47.1846 21.0362C47.8328 20.1048 48.7971 19.5541 50.0287 19.5541V19.546Z" fill="#9EADE5"/>
<path d="M70.3509 20.8501C70.7803 20.761 71.2422 20.7043 71.7365 20.7043H71.9877V15.6991C69.1517 15.5695 67.5797 17.084 66.5993 19.4166V16.015H61.8105V20.7691C61.8997 20.7691 61.9888 20.7691 62.0698 20.7691C64.8491 20.7691 67.6121 20.7934 70.3428 20.8501H70.3509Z" fill="#9EADE5"/>
<path d="M84.8947 20.7043H85.1459V15.6991C82.3099 15.5695 80.7379 17.084 79.7575 19.4166V16.015H74.9688V20.9635C77.4563 21.0364 79.9196 21.1336 82.3585 21.2469C83.0797 20.8906 83.9223 20.7124 84.8866 20.7124L84.8947 20.7043Z" fill="#9EADE5"/>
<path d="M110.695 23.636V23.5712C110.695 21.2711 112.462 19.6674 114.787 19.6674C117.113 19.6674 118.911 21.2711 118.911 23.5712V23.636C118.911 24.0814 118.847 24.4945 118.717 24.8832C120.394 25.1586 122.039 25.4501 123.635 25.7579V16.0229H118.847V18.2258C117.558 16.8085 116.011 15.707 113.401 15.707C109.65 15.707 106.141 18.3716 105.931 23.1095C107.543 23.2958 109.139 23.4902 110.703 23.6927C110.703 23.6765 110.703 23.6522 110.703 23.636H110.695Z" fill="#9EADE5"/>
<path d="M16.4113 20.1456C16.7274 19.9917 17.4323 19.8459 17.7726 19.8459C18.1129 19.8459 18.8179 19.9917 19.1339 20.1456C20.3493 20.7287 20.9003 21.5872 21.0624 22.7939C22.5776 22.632 24.1171 22.4862 25.6728 22.3404C25.1381 19.8864 23.6634 17.8131 21.3946 16.663C20.3493 16.1366 19.142 15.6992 17.7726 15.6992C16.4032 15.6992 15.1959 16.1366 14.1507 16.663C11.3228 18.1046 9.72654 20.9636 9.64551 24.2194C11.2093 23.9926 12.8056 23.7739 14.4262 23.5634C14.4343 21.9274 14.9447 20.834 16.4113 20.1375V20.1456Z" fill="#9EADE5"/>
<path d="M5.35846 32.8924V24.8906C3.70549 25.166 2.08493 25.4495 0.504883 25.7491V32.8924H5.35846Z" fill="#001689"/>
<path d="M35.1274 33.1778C36.7317 33.1778 37.8985 32.7971 38.9033 32.2059V28.367C38.2064 28.7476 37.4205 28.9663 36.5373 28.9663C35.4677 28.9663 34.9977 28.4318 34.9977 27.3303V21.6367C33.3853 21.742 31.789 21.8554 30.209 21.9769V28.1159C30.209 32.0196 32.1942 33.1859 35.1193 33.1859L35.1274 33.1778Z" fill="#001689"/>
<path d="M41.6836 24.5503C41.6836 29.7094 45.4352 33.273 50.4994 33.273C53.5542 33.273 55.823 32.0743 57.3949 30.1225L54.6562 27.7008C53.3354 28.9319 52.1686 29.434 50.5643 29.434C48.4251 29.434 46.9099 28.3002 46.4399 26.1296H58.189C58.2214 25.6923 58.2538 25.2469 58.2538 24.8743C58.2538 23.4489 58.0188 22.0558 57.5489 20.8086C55.9364 20.8248 54.3402 20.8491 52.7439 20.8815C53.1896 21.4808 53.4732 22.2502 53.5947 23.1411H46.3832C46.5291 22.315 46.8046 21.6023 47.1935 21.0354C45.5324 21.0921 43.8876 21.1569 42.2589 21.2297C41.8943 22.2421 41.6917 23.3436 41.6917 24.4936V24.5584L41.6836 24.5503Z" fill="#001689"/>
<path d="M66.6 32.8937V26.6575C66.6 23.2559 68.0018 21.3608 70.3516 20.8505C67.6128 20.8019 64.8579 20.7695 62.0786 20.7695C61.9895 20.7695 61.9004 20.7695 61.8193 20.7695V32.8856H66.6081L66.6 32.8937Z" fill="#001689"/>
<path d="M79.7663 32.8908V26.6545C79.7663 23.8442 80.7143 22.0624 82.3673 21.2444C79.9284 21.131 77.4651 21.0338 74.9775 20.9609V32.8908H79.7663Z" fill="#001689"/>
<path d="M105.907 23.6358C105.907 28.641 109.464 31.508 113.402 31.508C115.954 31.508 117.494 30.4714 118.912 28.7706V29.5886C118.912 32.6095 117.372 34.1807 114.091 34.1807C111.854 34.1807 110.12 33.6138 108.386 32.6419L106.75 36.2298C108.889 37.3636 111.473 37.9954 114.212 37.9954C117.486 37.9954 119.917 37.2988 121.489 35.7276C122.907 34.3103 123.628 32.1074 123.628 29.0864V25.7578C122.031 25.4581 120.387 25.1665 118.709 24.8831C118.191 26.4948 116.659 27.5395 114.779 27.5395C112.47 27.5395 110.72 25.9926 110.687 23.6925C109.124 23.49 107.535 23.2957 105.915 23.1094C105.915 23.2633 105.891 23.4171 105.891 23.571V23.6358H105.907Z" fill="#001689"/>
<path d="M21.1192 23.6036V32.8769H25.908V24.4702C25.908 23.7332 25.8269 23.0204 25.673 22.332C24.1173 22.4697 22.5777 22.6236 21.0625 22.7856C21.0949 23.0447 21.1192 23.312 21.1192 23.5955V23.6036Z" fill="#001689"/>
<path d="M9.63672 24.5422V32.8842H14.4255V23.6108C14.4255 23.6108 14.4255 23.5865 14.4255 23.5703C12.8049 23.7809 11.2087 23.9996 9.64482 24.2263C9.64482 24.3154 9.64482 24.3964 9.64482 24.4855V24.5503L9.63672 24.5422Z" fill="#001689"/>
<path d="M199.923 0.847656H141.947V39.8849H199.923V0.847656Z" fill="#001689"/>
<path d="M199.315 1.45313V39.2755H142.555V1.45313H199.315ZM200.531 0.238281H141.34V40.4903H200.531V0.238281Z" fill="white"/>
<path d="M181.197 13.5934L181.659 12.168L182.121 13.5934H183.62L182.405 14.4681L182.858 15.8773L181.659 15.0026L180.46 15.8773L180.914 14.4681L179.698 13.5934H181.197Z" fill="#FFDD00"/>
<path d="M170.47 7.40227L170.923 5.96875L171.385 7.40227H172.884L171.669 8.27697L172.123 9.6862L170.923 8.8115L169.724 9.6862L170.186 8.27697L168.971 7.40227H170.47Z" fill="#FFDD00"/>
<path d="M156.565 19.7965L158.073 19.8046L158.526 18.3711L158.988 19.7965H160.487L159.272 20.6712L159.726 22.0885L158.526 21.2138L157.327 22.0885L157.789 20.6712L156.565 19.7965Z" fill="#FFDD00"/>
<path d="M161.385 28.2917L160.194 27.417L158.995 28.2917L159.449 26.8743L158.233 25.9996L159.732 26.0077L160.194 24.5742L160.648 25.9996H162.147L160.932 26.8743L161.385 28.2917Z" fill="#FFDD00"/>
<path d="M160.932 14.4837L161.385 15.901L160.194 15.0263L158.995 15.901L159.449 14.4837L158.233 13.609L159.732 13.6171L160.194 12.1836L160.648 13.609H162.147L160.932 14.4837Z" fill="#FFDD00"/>
<path d="M164.263 9.07415L164.725 7.64062L165.187 9.06605H166.686L165.471 9.94074L165.924 11.3581L164.725 10.4834L163.534 11.3581L163.988 9.94074L162.772 9.06605L164.263 9.07415Z" fill="#FFDD00"/>
<path d="M165.931 32.8346L164.732 31.9599L163.541 32.8346L163.995 31.4173L162.779 30.5426H164.278L164.732 29.1172L165.194 30.5426H166.693L165.478 31.4173L165.931 32.8346Z" fill="#FFDD00"/>
<path d="M172.122 34.4792L170.923 33.6045L169.732 34.4792L170.185 33.0618L168.962 32.1871L170.469 32.1952L170.923 30.7617L171.385 32.1871H172.884L171.668 33.0618L172.122 34.4792Z" fill="#FFDD00"/>
<path d="M178.313 32.8346L177.114 31.9599L175.915 32.8346L176.377 31.4173L175.161 30.5426H176.66L177.114 29.1172L177.576 30.5426H179.075L177.859 31.4173L178.313 32.8346Z" fill="#FFDD00"/>
<path d="M177.876 9.94884L178.33 11.3581L177.139 10.4834L175.939 11.3581L176.393 9.94884L175.178 9.06605L176.677 9.07415L177.131 7.64062L177.592 9.06605H179.091L177.876 9.94884Z" fill="#FFDD00"/>
<path d="M182.858 28.2917L181.659 27.417L180.46 28.2917L180.914 26.8743L179.698 25.9996L181.197 26.0077L181.659 24.5742L182.121 25.9996H183.62L182.405 26.8743L182.858 28.2917Z" fill="#FFDD00"/>
<path d="M184.503 22.0651L183.304 21.1904L182.113 22.0651L182.558 20.6559L181.343 19.7812H182.842L183.304 18.3477L183.766 19.7812H185.265L184.041 20.6559L184.503 22.0651Z" fill="#FFDD00"/>
<path d="M265.565 11.3711H266.985L268.191 14.9492L269.368 11.3711H270.75L268.97 16.221L268.651 17.0989C268.534 17.3931 268.422 17.6178 268.314 17.7728C268.21 17.9278 268.088 18.0528 267.949 18.1477C267.813 18.2458 267.643 18.3217 267.441 18.3755C267.241 18.4293 267.015 18.4561 266.762 18.4561C266.505 18.4561 266.254 18.4293 266.007 18.3755L265.888 17.3315C266.097 17.3726 266.286 17.3931 266.453 17.3931C266.763 17.3931 266.993 17.3014 267.142 17.1179C267.29 16.9376 267.404 16.7066 267.484 16.4251L265.565 11.3711Z" fill="#001689"/>
<path d="M260.195 16.41V9.45312H261.529V11.9588C261.941 11.4905 262.428 11.2564 262.992 11.2564C263.606 11.2564 264.114 11.4795 264.516 11.9255C264.918 12.3685 265.119 13.0059 265.119 13.838C265.119 14.6985 264.913 15.3613 264.502 15.8263C264.093 16.2914 263.596 16.5239 263.011 16.5239C262.723 16.5239 262.438 16.4528 262.156 16.3104C261.878 16.1649 261.637 15.9513 261.434 15.6697V16.41H260.195ZM261.52 13.781C261.52 14.303 261.602 14.689 261.767 14.9389C261.998 15.2933 262.305 15.4704 262.688 15.4704C262.982 15.4704 263.232 15.3455 263.438 15.0955C263.647 14.8424 263.751 14.4454 263.751 13.9044C263.751 13.3286 263.647 12.9142 263.438 12.6611C263.229 12.4048 262.962 12.2767 262.636 12.2767C262.316 12.2767 262.05 12.4017 261.838 12.6516C261.626 12.8984 261.52 13.2748 261.52 13.781Z" fill="#001689"/>
<path d="M256.226 16.41H254.987V15.6697C254.781 15.9576 254.538 16.1728 254.256 16.3151C253.977 16.4543 253.696 16.5239 253.411 16.5239C252.832 16.5239 252.335 16.2914 251.92 15.8263C251.508 15.3581 251.303 14.7064 251.303 13.8712C251.303 13.017 251.504 12.3685 251.906 11.9255C252.308 11.4795 252.816 11.2564 253.43 11.2564C253.993 11.2564 254.481 11.4905 254.892 11.9588V9.45312H256.226V16.41ZM252.665 13.781C252.665 14.3189 252.74 14.708 252.888 14.9484C253.104 15.2964 253.404 15.4704 253.791 15.4704C254.098 15.4704 254.359 15.3407 254.574 15.0813C254.789 14.8187 254.897 14.428 254.897 13.9092C254.897 13.3302 254.792 12.9142 254.583 12.6611C254.375 12.4048 254.107 12.2767 253.781 12.2767C253.465 12.2767 253.199 12.4033 252.983 12.6563C252.771 12.9063 252.665 13.2812 252.665 13.781Z" fill="#001689"/>
<path d="M249.109 14.8075L250.438 15.0305C250.267 15.5177 249.997 15.8894 249.626 16.1457C249.259 16.3988 248.799 16.5253 248.245 16.5253C247.368 16.5253 246.719 16.239 246.298 15.6664C245.966 15.2077 245.8 14.6287 245.8 13.9295C245.8 13.0943 246.018 12.441 246.455 11.9696C246.892 11.4951 247.444 11.2578 248.112 11.2578C248.862 11.2578 249.454 11.5062 249.888 12.0029C250.321 12.4964 250.529 13.2541 250.51 14.276H247.167C247.177 14.6714 247.284 14.9799 247.49 15.2013C247.696 15.4196 247.952 15.5288 248.259 15.5288C248.468 15.5288 248.644 15.4718 248.786 15.3579C248.929 15.244 249.036 15.0605 249.109 14.8075ZM249.185 13.4597C249.175 13.0738 249.076 12.7811 248.886 12.5818C248.696 12.3793 248.465 12.2781 248.193 12.2781C247.901 12.2781 247.661 12.3841 247.471 12.596C247.281 12.808 247.188 13.0959 247.191 13.4597H249.185Z" fill="#001689"/>
<path d="M244.87 16.41H243.631V15.6697C243.425 15.9576 243.181 16.1728 242.899 16.3151C242.621 16.4543 242.339 16.5239 242.054 16.5239C241.475 16.5239 240.978 16.2914 240.563 15.8263C240.152 15.3581 239.946 14.7064 239.946 13.8712C239.946 13.017 240.147 12.3685 240.549 11.9255C240.951 11.4795 241.459 11.2564 242.073 11.2564C242.637 11.2564 243.124 11.4905 243.536 11.9588V9.45312H244.87V16.41ZM241.309 13.781C241.309 14.3189 241.383 14.708 241.532 14.9484C241.747 15.2964 242.048 15.4704 242.434 15.4704C242.741 15.4704 243.002 15.3407 243.217 15.0813C243.433 14.8187 243.54 14.428 243.54 13.9092C243.54 13.3302 243.436 12.9142 243.227 12.6611C243.018 12.4048 242.751 12.2767 242.425 12.2767C242.108 12.2767 241.842 12.4033 241.627 12.6563C241.415 12.9063 241.309 13.2812 241.309 13.781Z" fill="#001689"/>
<path d="M238.888 16.4114H237.554V13.8394C237.554 13.2952 237.525 12.9441 237.468 12.7859C237.411 12.6245 237.318 12.4996 237.188 12.411C237.062 12.3224 236.908 12.2781 236.728 12.2781C236.497 12.2781 236.289 12.3414 236.106 12.4679C235.922 12.5945 235.795 12.7621 235.726 12.9709C235.659 13.1797 235.626 13.5657 235.626 14.1288V16.4114H234.292V11.3717H235.531V12.112C235.971 11.5425 236.525 11.2578 237.193 11.2578C237.487 11.2578 237.756 11.3116 238 11.4192C238.244 11.5236 238.427 11.658 238.551 11.8225C238.677 11.987 238.764 12.1737 238.812 12.3825C238.862 12.5913 238.888 12.8903 238.888 13.2794V16.4114Z" fill="#001689"/>
<path d="M231.675 16.4108V15.6563C231.492 15.9252 231.25 16.1372 230.949 16.2922C230.651 16.4472 230.336 16.5247 230.004 16.5247C229.665 16.5247 229.362 16.4504 229.093 16.3017C228.823 16.153 228.629 15.9442 228.509 15.6753C228.388 15.4064 228.328 15.0346 228.328 14.5601V11.3711H229.662V13.6869C229.662 14.3956 229.686 14.8306 229.733 14.9919C229.784 15.1501 229.874 15.2766 230.004 15.3716C230.134 15.4633 230.298 15.5092 230.498 15.5092C230.726 15.5092 230.93 15.4475 231.11 15.3241C231.291 15.1976 231.414 15.0425 231.481 14.859C231.547 14.6724 231.58 14.2184 231.58 13.4971V11.3711H232.914V16.4108H231.675Z" fill="#001689"/>
<path d="M224.535 11.3718H225.276V10.9921C225.276 10.5682 225.32 10.2518 225.409 10.043C225.501 9.83422 225.667 9.66496 225.907 9.53525C226.151 9.40237 226.458 9.33594 226.828 9.33594C227.208 9.33594 227.58 9.39288 227.944 9.50678L227.764 10.4369C227.552 10.3863 227.347 10.361 227.151 10.361C226.958 10.361 226.819 10.4068 226.733 10.4986C226.651 10.5872 226.61 10.7596 226.61 11.0158V11.3718H227.607V12.4205H226.61V16.4115H225.276V12.4205H224.535V11.3718Z" fill="#001689"/>
<path d="M221.729 14.5561V13.2227H224.35V14.5561H221.729Z" fill="#001689"/>
<path d="M215.628 13.8204C215.628 13.3775 215.737 12.9488 215.956 12.5344C216.174 12.1199 216.483 11.8035 216.881 11.5853C217.283 11.367 217.731 11.2578 218.225 11.2578C218.988 11.2578 219.613 11.5062 220.1 12.0029C220.588 12.4964 220.831 13.1212 220.831 13.8773C220.831 14.6398 220.585 15.2725 220.091 15.7755C219.6 16.2754 218.981 16.5253 218.234 16.5253C217.772 16.5253 217.331 16.4209 216.91 16.2121C216.492 16.0033 216.174 15.698 215.956 15.2962C215.737 14.8913 215.628 14.3993 215.628 13.8204ZM216.995 13.8916C216.995 14.3914 217.114 14.7742 217.351 15.04C217.589 15.3057 217.882 15.4386 218.23 15.4386C218.578 15.4386 218.869 15.3057 219.103 15.04C219.341 14.7742 219.459 14.3883 219.459 13.8821C219.459 13.3885 219.341 13.0089 219.103 12.7432C218.869 12.4774 218.578 12.3445 218.23 12.3445C217.882 12.3445 217.589 12.4774 217.351 12.7432C217.114 13.0089 216.995 13.3917 216.995 13.8916Z" fill="#001689"/>
<path d="M213.373 13.8537L214.736 14.2855C214.527 15.0448 214.179 15.6095 213.691 15.9797C213.207 16.3466 212.591 16.5301 211.844 16.5301C210.92 16.5301 210.16 16.2153 209.565 15.5858C208.97 14.953 208.673 14.0894 208.673 12.9947C208.673 11.8368 208.972 10.9383 209.57 10.2993C210.168 9.65705 210.955 9.33594 211.93 9.33594C212.781 9.33594 213.473 9.58745 214.005 10.0905C214.321 10.3879 214.558 10.815 214.717 11.3718L213.326 11.7039C213.243 11.3433 213.071 11.0586 212.808 10.8498C212.549 10.641 212.232 10.5366 211.859 10.5366C211.343 10.5366 210.923 10.7216 210.6 11.0918C210.281 11.4619 210.121 12.0614 210.121 12.8903C210.121 13.7698 210.279 14.3962 210.596 14.7695C210.912 15.1429 211.324 15.3295 211.83 15.3295C212.204 15.3295 212.525 15.2109 212.794 14.9736C213.063 14.7363 213.256 14.363 213.373 13.8537Z" fill="#001689"/>
<path d="M300 32.095H298.666V29.523C298.666 28.9788 298.638 28.6276 298.581 28.4695C298.524 28.3081 298.43 28.1831 298.3 28.0946C298.174 28.006 298.02 27.9617 297.84 27.9617C297.609 27.9617 297.402 28.025 297.218 28.1515C297.034 28.2781 296.908 28.4457 296.838 28.6545C296.772 28.8633 296.738 29.2493 296.738 29.8124V32.095H295.404V27.0553H296.643V27.7956C297.083 27.2261 297.637 26.9414 298.305 26.9414C298.6 26.9414 298.869 26.9952 299.112 27.1028C299.356 27.2072 299.54 27.3416 299.663 27.5061C299.79 27.6706 299.877 27.8573 299.924 28.0661C299.975 28.2749 300 28.5739 300 28.963V32.095Z" fill="#001689"/>
<path d="M289.161 29.504C289.161 29.0611 289.27 28.6324 289.489 28.2179C289.707 27.8035 290.016 27.4871 290.415 27.2688C290.817 27.0506 291.264 26.9414 291.758 26.9414C292.521 26.9414 293.146 27.1898 293.633 27.6865C294.121 28.18 294.365 28.8048 294.365 29.5609C294.365 30.3234 294.118 30.9561 293.624 31.4591C293.133 31.959 292.515 32.2089 291.768 32.2089C291.306 32.2089 290.864 32.1045 290.443 31.8957C290.025 31.6869 289.707 31.3816 289.489 30.9798C289.27 30.5749 289.161 30.0829 289.161 29.504ZM290.528 29.5752C290.528 30.075 290.647 30.4578 290.885 30.7236C291.122 30.9893 291.415 31.1222 291.763 31.1222C292.111 31.1222 292.402 30.9893 292.636 30.7236C292.874 30.4578 292.993 30.0719 292.993 29.5657C292.993 29.0721 292.874 28.6925 292.636 28.4268C292.402 28.161 292.111 28.0281 291.763 28.0281C291.415 28.0281 291.122 28.161 290.885 28.4268C290.647 28.6925 290.528 29.0753 290.528 29.5752Z" fill="#001689"/>
<path d="M286.764 26.3706V25.1367H288.098V26.3706H286.764ZM286.764 32.0936V27.0539H288.098V32.0936H286.764Z" fill="#001689"/>
<path d="M285.405 32.095H284.071V29.523C284.071 28.9788 284.043 28.6276 283.986 28.4695C283.929 28.3081 283.835 28.1831 283.706 28.0946C283.579 28.006 283.426 27.9617 283.245 27.9617C283.014 27.9617 282.807 28.025 282.623 28.1515C282.44 28.2781 282.313 28.4457 282.243 28.6545C282.177 28.8633 282.144 29.2493 282.144 29.8124V32.095H280.81V27.0553H282.049V27.7956C282.489 27.2261 283.043 26.9414 283.71 26.9414C284.005 26.9414 284.274 26.9952 284.518 27.1028C284.761 27.2072 284.945 27.3416 285.068 27.5061C285.195 27.6706 285.282 27.8573 285.329 28.0661C285.38 28.2749 285.405 28.5739 285.405 28.963V32.095Z" fill="#001689"/>
<path d="M273.793 25.1367H275.198V28.9047C275.198 29.5026 275.216 29.8901 275.251 30.0673C275.311 30.352 275.453 30.5814 275.678 30.7554C275.906 30.9262 276.216 31.0117 276.608 31.0117C277.007 31.0117 277.308 30.931 277.51 30.7696C277.713 30.6051 277.835 30.4042 277.876 30.167C277.917 29.9297 277.938 29.5358 277.938 28.9853V25.1367H279.343V28.7908C279.343 29.626 279.305 30.216 279.229 30.5608C279.153 30.9057 279.012 31.1967 278.807 31.434C278.604 31.6713 278.332 31.8611 277.99 32.0035C277.648 32.1427 277.202 32.2123 276.651 32.2123C275.986 32.2123 275.482 32.1363 275.137 31.9845C274.795 31.8295 274.524 31.6302 274.325 31.3866C274.125 31.1398 273.994 30.882 273.931 30.613C273.839 30.2144 273.793 29.626 273.793 28.8477V25.1367Z" fill="#001689"/>
<path d="M269.729 32.095H268.395V29.523C268.395 28.9788 268.366 28.6276 268.309 28.4695C268.252 28.3081 268.159 28.1831 268.029 28.0946C267.902 28.006 267.749 27.9617 267.568 27.9617C267.337 27.9617 267.13 28.025 266.946 28.1515C266.763 28.2781 266.636 28.4457 266.567 28.6545C266.5 28.8633 266.467 29.2493 266.467 29.8124V32.095H265.133V27.0553H266.372V27.7956C266.812 27.2261 267.366 26.9414 268.034 26.9414C268.328 26.9414 268.597 26.9952 268.841 27.1028C269.085 27.2072 269.268 27.3416 269.392 27.5061C269.518 27.6706 269.605 27.8573 269.653 28.0661C269.703 28.2749 269.729 28.5739 269.729 28.963V32.095Z" fill="#001689"/>
<path d="M260.727 28.5928L259.517 28.3746C259.653 27.8873 259.887 27.5267 260.219 27.2926C260.552 27.0585 261.045 26.9414 261.701 26.9414C262.296 26.9414 262.739 27.0126 263.03 27.155C263.321 27.2942 263.525 27.4729 263.642 27.6912C263.763 27.9063 263.823 28.3034 263.823 28.8823L263.809 30.4388C263.809 30.8818 263.829 31.2092 263.87 31.4212C263.915 31.63 263.995 31.8546 264.112 32.095H262.793C262.758 32.0065 262.715 31.8752 262.664 31.7012C262.642 31.6221 262.626 31.5699 262.617 31.5446C262.389 31.766 262.145 31.9321 261.886 32.0428C261.626 32.1536 261.349 32.2089 261.055 32.2089C260.536 32.2089 260.126 32.0681 259.825 31.7866C259.528 31.505 259.379 31.1491 259.379 30.7188C259.379 30.4341 259.447 30.181 259.583 29.9596C259.719 29.7349 259.909 29.5641 260.153 29.447C260.4 29.3268 260.754 29.2224 261.216 29.1338C261.84 29.0168 262.272 28.9076 262.512 28.8064V28.6735C262.512 28.4173 262.449 28.2353 262.323 28.1278C262.196 28.0171 261.957 27.9617 261.606 27.9617C261.368 27.9617 261.183 28.0091 261.05 28.1041C260.917 28.1958 260.81 28.3587 260.727 28.5928ZM262.512 29.6748C262.341 29.7318 262.071 29.7998 261.701 29.8789C261.33 29.958 261.088 30.0355 260.974 30.1114C260.8 30.2348 260.713 30.3914 260.713 30.5812C260.713 30.7679 260.783 30.9292 260.922 31.0653C261.061 31.2013 261.238 31.2693 261.454 31.2693C261.694 31.2693 261.924 31.1902 262.142 31.032C262.304 30.9118 262.41 30.7647 262.46 30.5907C262.495 30.4768 262.512 30.2601 262.512 29.9406V29.6748Z" fill="#001689"/>
<path d="M257.237 30.491L258.566 30.7141C258.395 31.2013 258.125 31.573 257.754 31.8293C257.387 32.0824 256.927 32.2089 256.373 32.2089C255.496 32.2089 254.847 31.9226 254.426 31.35C254.094 30.8913 253.928 30.3123 253.928 29.6131C253.928 28.7779 254.146 28.1246 254.583 27.6532C255.02 27.1787 255.572 26.9414 256.24 26.9414C256.99 26.9414 257.582 27.1898 258.016 27.6865C258.449 28.18 258.656 28.9377 258.637 29.9596H255.295C255.305 30.355 255.412 30.6635 255.618 30.8849C255.824 31.1032 256.08 31.2124 256.387 31.2124C256.596 31.2124 256.772 31.1554 256.914 31.0415C257.056 30.9276 257.164 30.7441 257.237 30.491ZM257.313 29.1433C257.303 28.7574 257.204 28.4647 257.014 28.2654C256.824 28.0629 256.593 27.9617 256.321 27.9617C256.029 27.9617 255.789 28.0677 255.599 28.2796C255.409 28.4916 255.316 28.7795 255.319 29.1433H257.313Z" fill="#001689"/>
<path d="M248.335 27.0553H249.579V27.7956C249.74 27.5425 249.959 27.3369 250.234 27.1787C250.509 27.0205 250.815 26.9414 251.15 26.9414C251.736 26.9414 252.233 27.1708 252.641 27.6295C253.049 28.0882 253.254 28.7273 253.254 29.5467C253.254 30.3882 253.048 31.0431 252.636 31.5113C252.225 31.9764 251.726 32.2089 251.141 32.2089C250.862 32.2089 250.609 32.1536 250.381 32.0428C250.157 31.9321 249.919 31.7423 249.669 31.4734V34.0122H248.335V27.0553ZM249.655 29.4897C249.655 30.056 249.767 30.4752 249.992 30.7473C250.217 31.0162 250.49 31.1507 250.813 31.1507C251.123 31.1507 251.381 31.0273 251.587 30.7805C251.793 30.5306 251.896 30.1225 251.896 29.5562C251.896 29.0278 251.79 28.6356 251.578 28.3793C251.366 28.123 251.103 27.9949 250.79 27.9949C250.464 27.9949 250.193 28.1215 249.978 28.3746C249.762 28.6245 249.655 28.9962 249.655 29.4897Z" fill="#001689"/>
<path d="M242.12 29.504C242.12 29.0611 242.229 28.6324 242.448 28.2179C242.666 27.8035 242.975 27.4871 243.374 27.2688C243.775 27.0506 244.223 26.9414 244.717 26.9414C245.48 26.9414 246.105 27.1898 246.592 27.6865C247.08 28.18 247.324 28.8048 247.324 29.5609C247.324 30.3234 247.077 30.9561 246.583 31.4591C246.092 31.959 245.474 32.2089 244.727 32.2089C244.265 32.2089 243.823 32.1045 243.402 31.8957C242.984 31.6869 242.666 31.3816 242.448 30.9798C242.229 30.5749 242.12 30.0829 242.12 29.504ZM243.487 29.5752C243.487 30.075 243.606 30.4578 243.844 30.7236C244.081 30.9893 244.374 31.1222 244.722 31.1222C245.07 31.1222 245.361 30.9893 245.595 30.7236C245.833 30.4578 245.952 30.0719 245.952 29.5657C245.952 29.0721 245.833 28.6925 245.595 28.4268C245.361 28.161 245.07 28.0281 244.722 28.0281C244.374 28.0281 244.081 28.161 243.844 28.4268C243.606 28.6925 243.487 29.0753 243.487 29.5752Z" fill="#001689"/>
<path d="M239.917 32.095H238.583V27.0553H239.822V27.7719C240.034 27.4334 240.224 27.2103 240.392 27.1028C240.563 26.9952 240.756 26.9414 240.971 26.9414C241.275 26.9414 241.568 27.0252 241.849 27.1929L241.436 28.3556C241.212 28.21 241.003 28.1373 240.81 28.1373C240.623 28.1373 240.465 28.1895 240.335 28.2939C240.205 28.3951 240.102 28.5802 240.026 28.8491C239.954 29.118 239.917 29.6811 239.917 30.5385V32.095Z" fill="#001689"/>
<path d="M236.015 32.0944V31.3399C235.832 31.6088 235.589 31.8208 235.289 31.9758C234.991 32.1308 234.676 32.2083 234.344 32.2083C234.005 32.2083 233.701 32.134 233.432 31.9853C233.163 31.8366 232.969 31.6278 232.848 31.3589C232.728 31.09 232.668 30.7182 232.668 30.2437V27.0547H234.002V29.3705C234.002 30.0792 234.026 30.5142 234.073 30.6755C234.124 30.8337 234.214 30.9602 234.344 31.0552C234.474 31.1469 234.638 31.1928 234.838 31.1928C235.066 31.1928 235.27 31.1311 235.45 31.0077C235.631 30.8812 235.754 30.7261 235.82 30.5426C235.887 30.356 235.92 29.902 235.92 29.1807V27.0547H237.254V32.0944H236.015Z" fill="#001689"/>
<path d="M226.221 32.0936V25.1367H231.381V26.3136H227.626V27.8559H231.12V29.028H227.626V30.9215H231.514V32.0936H226.221Z" fill="#001689"/>
<path d="M221.012 30.491L222.342 30.7141C222.171 31.2013 221.9 31.573 221.53 31.8293C221.163 32.0824 220.702 32.2089 220.148 32.2089C219.271 32.2089 218.623 31.9226 218.202 31.35C217.869 30.8913 217.703 30.3123 217.703 29.6131C217.703 28.7779 217.922 28.1246 218.358 27.6532C218.795 27.1787 219.347 26.9414 220.015 26.9414C220.765 26.9414 221.357 27.1898 221.791 27.6865C222.225 28.18 222.432 28.9377 222.413 29.9596H219.07C219.08 30.355 219.188 30.6635 219.393 30.8849C219.599 31.1032 219.855 31.2124 220.162 31.2124C220.371 31.2124 220.547 31.1554 220.689 31.0415C220.832 30.9276 220.939 30.7441 221.012 30.491ZM221.088 29.1433C221.079 28.7574 220.979 28.4647 220.789 28.2654C220.599 28.0629 220.368 27.9617 220.096 27.9617C219.805 27.9617 219.564 28.0677 219.374 28.2796C219.184 28.4916 219.091 28.7795 219.094 29.1433H221.088Z" fill="#001689"/>
<path d="M213.478 25.1367V27.6945C213.908 27.1915 214.422 26.94 215.021 26.94C215.328 26.94 215.605 26.997 215.852 27.1109C216.098 27.2247 216.284 27.3703 216.407 27.5474C216.534 27.7246 216.619 27.9208 216.663 28.1359C216.711 28.351 216.735 28.6848 216.735 29.1372V32.0936H215.4V29.4314C215.4 28.9031 215.375 28.5677 215.325 28.4254C215.274 28.283 215.184 28.1707 215.054 28.0884C214.927 28.003 214.767 27.9603 214.574 27.9603C214.353 27.9603 214.155 28.0141 213.981 28.1216C213.807 28.2292 213.679 28.3921 213.596 28.6104C213.517 28.8256 213.478 29.1451 213.478 29.569V32.0936H212.144V25.1367H213.478Z" fill="#001689"/>
<path d="M211.222 27.053V28.116H210.311V30.1471C210.311 30.5584 210.319 30.7988 210.334 30.8684C210.353 30.9348 210.393 30.9902 210.453 31.0345C210.516 31.0788 210.592 31.1009 210.681 31.1009C210.804 31.1009 210.983 31.0582 211.218 30.9728L211.331 32.0073C211.021 32.1402 210.67 32.2066 210.277 32.2066C210.037 32.2066 209.82 32.1671 209.627 32.088C209.434 32.0057 209.292 31.9013 209.2 31.7748C209.111 31.6451 209.049 31.4711 209.015 31.2528C208.986 31.0978 208.972 30.7846 208.972 30.3132V28.116H208.359V27.053H208.972V26.0517L210.311 25.2734V27.053H211.222Z" fill="#001689"/>
<path d="M151.272 69.8764C149.571 69.8764 148.355 68.7587 148.355 67.1843C148.355 65.6098 149.571 64.4922 151.272 64.4922C152.371 64.4922 153.237 64.9684 153.616 65.8237L152.439 66.4554C152.157 65.9597 151.739 65.7362 151.263 65.7362C150.495 65.7362 149.892 66.2707 149.892 67.1843C149.892 68.0979 150.495 68.6324 151.263 68.6324C151.739 68.6324 152.157 68.4186 152.439 67.9132L153.616 68.5546C153.237 69.3905 152.371 69.8764 151.272 69.8764Z" fill="#001689"/>
<path d="M146.578 63.8395C146.014 63.8395 145.635 63.4702 145.635 62.994C145.635 62.5178 146.014 62.1484 146.578 62.1484C147.142 62.1484 147.521 62.4983 147.521 62.9648C147.521 63.4702 147.142 63.8395 146.578 63.8395ZM145.82 69.7971V64.5684H147.336V69.7971H145.82Z" fill="#001689"/>
<path d="M144.56 68.4737L144.968 69.5427C144.657 69.7663 144.2 69.8732 143.733 69.8732C142.498 69.8732 141.779 69.2414 141.779 67.9974V65.8496H140.972V64.6833H141.779V63.4102H143.296V64.6833H144.599V65.8496H143.296V67.978C143.296 68.4251 143.539 68.668 143.947 68.668C144.171 68.668 144.394 68.6 144.56 68.4737Z" fill="#001689"/>
<path d="M138.301 69.8764C136.599 69.8764 135.384 68.7587 135.384 67.1843C135.384 65.6098 136.599 64.4922 138.301 64.4922C139.4 64.4922 140.265 64.9684 140.644 65.8237L139.468 66.4554C139.186 65.9597 138.768 65.7362 138.291 65.7362C137.523 65.7362 136.92 66.2707 136.92 67.1843C136.92 68.0979 137.523 68.6324 138.291 68.6324C138.768 68.6324 139.186 68.4186 139.468 67.9132L140.644 68.5546C140.265 69.3905 139.4 69.8764 138.301 69.8764Z" fill="#001689"/>
<path d="M133.12 65.26C133.489 64.7546 134.111 64.4922 134.918 64.4922V65.8917C134.792 65.882 134.695 65.8723 134.578 65.8723C133.742 65.8723 133.188 66.329 133.188 67.3301V69.7987H131.671V64.5699H133.12V65.26Z" fill="#001689"/>
<path d="M129.419 69.7954L128.816 68.3375H125.656L125.054 69.7954H123.439L126.473 62.9922H128.029L131.072 69.7954H129.419ZM126.162 67.1421H128.321L127.241 64.5375L126.162 67.1421Z" fill="#001689"/>
<path d="M118.552 62.5859H120.069V69.7973H118.62V69.1947C118.241 69.6515 117.687 69.875 116.987 69.875C115.509 69.875 114.371 68.8254 114.371 67.1829C114.371 65.5405 115.509 64.4908 116.987 64.4908C117.628 64.4908 118.173 64.6949 118.552 65.1225V62.5859ZM117.249 68.631C117.998 68.631 118.581 68.0868 118.581 67.1829C118.581 66.2791 117.998 65.7348 117.249 65.7348C116.491 65.7348 115.907 66.2791 115.907 67.1829C115.907 68.0868 116.491 68.631 117.249 68.631Z" fill="#001689"/>
<path d="M111.14 64.4922C112.375 64.4922 113.309 65.2114 113.309 66.8053V69.7987H111.792V67.0385C111.792 66.193 111.403 65.8042 110.732 65.8042C110.003 65.8042 109.478 66.2513 109.478 67.2135V69.7987H107.961V64.5699H109.41V65.1822C109.818 64.7352 110.431 64.4922 111.14 64.4922Z" fill="#001689"/>
<path d="M104.069 64.4922C105.664 64.4922 106.588 65.2308 106.588 66.815V69.7987H105.168V69.1475C104.886 69.6237 104.342 69.8764 103.574 69.8764C102.348 69.8764 101.619 69.1961 101.619 68.2922C101.619 67.369 102.271 66.7275 103.865 66.7275H105.071C105.071 66.0764 104.682 65.6973 103.865 65.6973C103.311 65.6973 102.737 65.882 102.358 66.1833L101.814 65.1239C102.387 64.7157 103.233 64.4922 104.069 64.4922ZM103.953 68.8559C104.458 68.8559 104.896 68.6227 105.071 68.1465V67.6119H104.031C103.321 67.6119 103.097 67.8743 103.097 68.2242C103.097 68.6032 103.418 68.8559 103.953 68.8559Z" fill="#001689"/>
<path d="M97.1287 64.5703H98.5872L96.2245 70.1198C95.7189 71.3832 94.9993 71.7622 94.0562 71.7622C93.5214 71.7622 92.938 71.5873 92.5977 71.286L93.1519 70.2072C93.3853 70.4113 93.7061 70.5377 94.0075 70.5377C94.4257 70.5377 94.659 70.353 94.8632 69.8865L94.8826 69.8379L92.6171 64.5703H94.1826L95.6508 68.1177L97.1287 64.5703Z" fill="#001689"/>
<path d="M90.5142 65.26C90.8837 64.7546 91.506 64.4922 92.313 64.4922V65.8917C92.1866 65.882 92.0894 65.8723 91.9727 65.8723C91.1365 65.8723 90.5823 66.329 90.5823 67.3301V69.7987H89.0654V64.5699H90.5142V65.26Z" fill="#001689"/>
<path d="M88.0551 67.2037C88.0551 67.3204 88.0357 67.4856 88.026 67.6119H84.0686C84.2144 68.2631 84.7686 68.6616 85.566 68.6616C86.1202 68.6616 86.5188 68.4963 86.8786 68.1562L87.6856 69.0309C87.1995 69.5848 86.4702 69.8764 85.5271 69.8764C83.7185 69.8764 82.542 68.7393 82.542 67.1843C82.542 65.6196 83.738 64.4922 85.3326 64.4922C86.8689 64.4922 88.0551 65.5224 88.0551 67.2037ZM85.3423 65.639C84.652 65.639 84.1561 66.0569 84.0491 66.7275H86.6258C86.5188 66.0666 86.023 65.639 85.3423 65.639Z" fill="#001689"/>
<path d="M79.3309 64.4908C80.5658 64.4908 81.4992 65.21 81.4992 66.8039V69.7973H79.9824V67.0372C79.9824 66.1916 79.5934 65.8029 78.9225 65.8029C78.1933 65.8029 77.6682 66.2499 77.6682 67.2121V69.7973H76.1514V62.5859H77.6682V65.1128C78.0766 64.7046 78.66 64.4908 79.3309 64.4908Z" fill="#001689"/>
<path d="M72.5295 64.4922C73.9978 64.4922 75.1354 65.5418 75.1354 67.1843C75.1354 68.8268 73.9978 69.8764 72.5295 69.8764C71.8781 69.8764 71.3433 69.6723 70.9543 69.2447V71.6841H69.4375V64.5699H70.8863V65.1725C71.2655 64.7157 71.8294 64.4922 72.5295 64.4922ZM72.267 68.6324C73.0254 68.6324 73.5991 68.0881 73.5991 67.1843C73.5991 66.2804 73.0254 65.7362 72.267 65.7362C71.5086 65.7362 70.9349 66.2804 70.9349 67.1843C70.9349 68.0881 71.5086 68.6324 72.267 68.6324Z" fill="#001689"/>
<path d="M67.2713 63.8395C66.7073 63.8395 66.3281 63.4702 66.3281 62.994C66.3281 62.5178 66.7073 62.1484 67.2713 62.1484C67.8352 62.1484 68.2145 62.4983 68.2145 62.9648C68.2145 63.4702 67.8352 63.8395 67.2713 63.8395ZM66.5129 69.7971V64.5684H68.0297V69.7971H66.5129Z" fill="#001689"/>
<path d="M63.8121 65.26C64.1816 64.7546 64.8038 64.4922 65.6109 64.4922V65.8917C65.4845 65.882 65.3873 65.8723 65.2706 65.8723C64.4344 65.8723 63.8801 66.329 63.8801 67.3301V69.7987H62.3633V64.5699H63.8121V65.26Z" fill="#001689"/>
<path d="M61.354 67.2037C61.354 67.3204 61.3345 67.4856 61.3248 67.6119H57.3674C57.5132 68.2631 58.0675 68.6616 58.8648 68.6616C59.419 68.6616 59.8177 68.4963 60.1774 68.1562L60.9845 69.0309C60.4983 69.5848 59.7691 69.8764 58.8259 69.8764C57.0173 69.8764 55.8408 68.7393 55.8408 67.1843C55.8408 65.6196 57.0368 64.4922 58.6314 64.4922C60.1677 64.4922 61.354 65.5224 61.354 67.2037ZM58.6411 65.639C57.9508 65.639 57.4549 66.0569 57.3479 66.7275H59.9246C59.8177 66.0666 59.3218 65.639 58.6411 65.639Z" fill="#001689"/>
<path d="M52.2655 62.9922C54.0838 62.9922 55.2214 63.9349 55.2214 65.4608C55.2214 66.9769 54.0838 67.9196 52.2655 67.9196H50.8945V69.7954H49.3193V62.9922H52.2655ZM52.178 66.6367C53.1406 66.6367 53.6268 66.1994 53.6268 65.4608C53.6268 64.7124 53.1406 64.2751 52.178 64.2751H50.8945V66.6367H52.178Z" fill="#001689"/>
<path d="M42.9159 64.4922C44.1507 64.4922 45.0842 65.2114 45.0842 66.8053V69.7987H43.5673V67.0385C43.5673 66.193 43.1784 65.8042 42.5075 65.8042C41.7782 65.8042 41.2532 66.2513 41.2532 67.2135V69.7987H39.7363V64.5699H41.1851V65.1822C41.5935 64.7352 42.2061 64.4922 42.9159 64.4922Z" fill="#001689"/>
<path d="M37.0357 65.26C37.4052 64.7546 38.0275 64.4922 38.8345 64.4922V65.8917C38.7081 65.882 38.6109 65.8723 38.4942 65.8723C37.658 65.8723 37.1038 66.329 37.1038 67.3301V69.7987H35.5869V64.5699H37.0357V65.26Z" fill="#001689"/>
<path d="M34.5766 67.2037C34.5766 67.3204 34.5572 67.4856 34.5475 67.6119H30.59C30.7359 68.2631 31.2901 68.6616 32.0874 68.6616C32.6417 68.6616 33.0403 68.4963 33.4001 68.1562L34.2071 69.0309C33.721 69.5848 32.9917 69.8764 32.0485 69.8764C30.24 69.8764 29.0635 68.7393 29.0635 67.1843C29.0635 65.6196 30.2594 64.4922 31.8541 64.4922C33.3904 64.4922 34.5766 65.5224 34.5766 67.2037ZM31.8638 65.639C31.1734 65.639 30.6776 66.0569 30.5706 66.7275H33.1473C33.0403 66.0666 32.5444 65.639 31.8638 65.639Z" fill="#001689"/>
<path d="M25.8524 64.4908C27.0873 64.4908 28.0207 65.21 28.0207 66.8039V69.7973H26.5039V67.0372C26.5039 66.1916 26.1149 65.8029 25.444 65.8029C24.7148 65.8029 24.1897 66.2499 24.1897 67.2121V69.7973H22.6729V62.5859H24.1897V65.1128C24.5981 64.7046 25.1815 64.4908 25.8524 64.4908Z" fill="#001689"/>
<path d="M21.4131 68.4737L21.8215 69.5427C21.5103 69.7663 21.0533 69.8732 20.5866 69.8732C19.3518 69.8732 18.6322 69.2414 18.6322 67.9974V65.8496H17.8252V64.6833H18.6322V63.4102H20.1491V64.6833H21.452V65.8496H20.1491V67.978C20.1491 68.4251 20.3922 68.668 20.8005 68.668C21.0242 68.668 21.2478 68.6 21.4131 68.4737Z" fill="#001689"/>
<path d="M15.566 65.26C15.9355 64.7546 16.5577 64.4922 17.3648 64.4922V65.8917C17.2384 65.882 17.1412 65.8723 17.0245 65.8723C16.1883 65.8723 15.634 66.329 15.634 67.3301V69.7987H14.1172V64.5699H15.566V65.26Z" fill="#001689"/>
<path d="M10.2346 69.8764C8.57187 69.8764 7.35645 68.7587 7.35645 67.1843C7.35645 65.6098 8.57187 64.4922 10.2346 64.4922C11.8973 64.4922 13.103 65.6098 13.103 67.1843C13.103 68.7587 11.8973 69.8764 10.2346 69.8764ZM10.2346 68.6324C10.993 68.6324 11.5667 68.0881 11.5667 67.1843C11.5667 66.2804 10.993 65.7362 10.2346 65.7362C9.47614 65.7362 8.89274 66.2804 8.89274 67.1843C8.89274 68.0881 9.47614 68.6324 10.2346 68.6324Z" fill="#001689"/>
<path d="M4.68666 62.9922H6.2424V69.7954H4.94919L1.55574 65.6649V69.7954H0V62.9922H1.30293L4.68666 67.1227V62.9922Z" fill="#001689"/>
</g>
<defs>
<clipPath id="clip0_4524_14597">
<rect width="324" height="71.5232" fill="white" transform="translate(0 0.238281)"/>
</clipPath>
</defs>
</svg>
