<svg xmlns="http://www.w3.org/2000/svg" width="1035" height="340" viewBox="0 0 1035 340" fill="none"><path d="M356.609 340V0H524.362C562.289 0 595.678 6.96191 624.528 20.8857C653.379 34.4857 675.908 53.9143 692.116 79.1714C708.324 104.429 716.428 134.543 716.428 169.514C716.428 204.81 708.324 235.248 692.116 260.829C675.908 286.086 653.379 305.676 624.528 319.6C595.678 333.2 562.289 340 524.362 340H356.609ZM471.362 250.629H519.5C535.708 250.629 549.809 247.552 561.803 241.4C574.121 235.248 583.684 226.181 590.491 214.2C597.299 201.895 600.702 187 600.702 169.514C600.702 152.352 597.299 137.781 590.491 125.8C583.684 113.819 574.121 104.752 561.803 98.6C549.809 92.4476 535.708 89.3714 519.5 89.3714H471.362V250.629Z" fill="#FFA600"></path><path fill-rule="evenodd" clip-rule="evenodd" d="M0 340V0H163.864C195.631 0 223.023 5.18095 246.038 15.5429C269.378 25.9048 287.369 40.8 300.011 60.2286C312.654 79.3333 318.975 102 318.975 128.229C318.975 154.457 312.654 177.124 300.011 196.229C287.369 215.333 269.378 230.229 246.038 240.914C223.023 251.276 195.631 256.457 163.864 256.457H114.753V340H0ZM191.579 157.371C184.124 164.495 172.454 168.057 156.57 168.057H114.753V88.4H156.57C172.454 88.4 184.124 91.9619 191.579 99.0857C199.359 106.21 203.249 115.924 203.249 128.229C203.249 140.533 199.359 150.248 191.579 157.371Z" fill="#FFA600"></path><path d="M1015.06 144.743V231.2H873.081V340H758.328V0H1035V86.4572H873.081V144.743H1015.06Z" fill="#FFA600"></path></svg>