<svg width="129" height="81" viewBox="0 0 129 81" fill="none" xmlns="http://www.w3.org/2000/svg">
<path fill-rule="evenodd" clip-rule="evenodd" d="M11.5653 13.5838C8.73147 13.5884 4.21658 12.3666 2.37939 10.7269C1.16674 9.63428 0.437817 8.10465 0.352974 6.47454C0.268131 4.84444 0.83432 3.2474 1.92698 2.03474C3.01965 0.822094 4.54928 0.0931703 6.17939 0.00832737C7.80949 -0.0765156 9.40653 0.489674 10.6192 1.58234C12.5804 3.34145 14.5002 8.51313 14.56 11.2689C14.5921 12.0727 14.4405 12.6101 14.1328 12.9178C13.6873 13.3587 12.8192 13.5838 11.5653 13.5838ZM53.7288 20.8131C55.8783 20.8131 60.3565 19.031 61.8171 17.2857C62.2444 16.773 62.5666 16.1812 62.7652 15.544C62.9638 14.9068 63.0349 14.2367 62.9746 13.572C62.9142 12.9073 62.7236 12.261 62.4134 11.67C62.1033 11.079 61.6798 10.5549 61.1671 10.1276C60.6545 9.70023 60.0626 9.37806 59.4254 9.17944C58.7882 8.98083 58.1182 8.90967 57.4535 8.97002C56.7888 9.03037 56.1425 9.22105 55.5515 9.53117C54.9605 9.84129 54.4363 10.2648 54.009 10.7775C52.3188 12.7984 51.1476 19.1367 52.576 20.4962C52.9032 20.7501 53.3178 20.8641 53.7288 20.8131ZM100.132 25.3693C99.4079 24.5648 98.5501 23.8919 97.5963 23.3806C96.1051 22.6248 94.4496 22.2507 92.7783 22.2921C90.8017 22.2404 88.8514 22.7547 87.1573 23.7743C85.4631 24.7939 84.0956 26.2763 83.2157 28.047C82.3291 29.8654 81.8683 31.8618 81.8683 33.8847C81.8683 35.9077 82.3291 37.9041 83.2157 39.7224C84.0892 41.4999 85.4546 42.9893 87.1498 44.0136C88.8449 45.0378 90.7985 45.5538 92.7783 45.5003C94.4496 45.5417 96.1051 45.1677 97.5963 44.4118C98.545 43.9023 99.4019 43.2379 100.132 42.446V45.1513H104.192V22.6457H100.113L100.132 25.3693ZM99.4749 37.8209C98.9532 39.0324 98.0744 40.056 96.9559 40.7552C95.8374 41.4544 94.5322 41.7959 93.2146 41.7341C91.8822 41.7829 90.5649 41.4383 89.4271 40.7432C88.2893 40.0481 87.3813 39.0333 86.8166 37.8255C86.2449 36.5945 85.9487 35.2535 85.9487 33.8962C85.9487 32.5389 86.2449 31.1979 86.8166 29.9669C87.3869 28.7648 88.2966 27.7558 89.4336 27.0645C90.5705 26.3732 91.8849 26.0298 93.2146 26.0767C94.5807 26.0309 95.9288 26.3991 97.0819 27.133C98.1234 27.8374 98.9513 28.8146 99.4749 29.9577C100.023 31.1976 100.306 32.5383 100.306 33.8939C100.306 35.2495 100.023 36.5903 99.4749 37.8301V37.8209ZM117.893 45.5003C119.492 45.5627 121.075 45.1642 122.453 44.3521C123.27 43.8359 124.019 43.2186 124.681 42.5149V45.1742H128.764V22.6687H124.681V35.5795C124.697 36.3906 124.55 37.1967 124.247 37.9495C123.945 38.7023 123.494 39.3864 122.921 39.9609C122.348 40.5354 121.665 40.9886 120.914 41.2932C120.162 41.5979 119.356 41.7478 118.545 41.7341C117.788 41.7611 117.034 41.6259 116.334 41.3376C115.634 41.0492 115.003 40.6144 114.485 40.0623C113.385 38.8429 112.81 37.2385 112.886 35.5979V22.6457H108.808V35.6852C108.748 37.5656 109.194 39.4277 110.098 41.0773C110.898 42.4789 112.074 43.6291 113.493 44.398C114.845 45.1251 116.357 45.504 117.893 45.5003ZM13.3888 61.957C14.2008 62.3911 14.9312 62.963 15.5474 63.6472V53.9376H19.006V80.4804H15.5337V78.184C14.914 78.8595 14.184 79.4248 13.375 79.8558C12.1067 80.4971 10.6987 80.8128 9.27804 80.7744C7.59655 80.8216 5.93682 80.3854 4.49583 79.5176C3.05484 78.6497 1.89309 77.3866 1.14848 75.8783C0.392785 74.3306 0 72.631 0 70.9087C0 69.1864 0.392785 67.4867 1.14848 65.9391C1.89791 64.4313 3.06252 63.169 4.50521 62.3007C5.94789 61.4325 7.6086 60.9945 9.29182 61.0384C10.7125 61 12.1205 61.3156 13.3888 61.957ZM12.8346 76.7395C13.7892 76.1477 14.5403 75.2783 14.9871 74.2478H14.9733C15.4411 73.1927 15.6827 72.0513 15.6827 70.8972C15.6827 69.7431 15.4411 68.6017 14.9733 67.5466C14.5239 66.5212 13.7741 65.6562 12.8229 65.0658C11.8717 64.4754 10.7638 64.1873 9.64548 64.2397C8.51753 64.2003 7.40248 64.4898 6.43613 65.0729C5.46978 65.6559 4.69383 66.5074 4.2028 67.5237C3.71428 68.5715 3.46112 69.7135 3.46112 70.8696C3.46112 72.0257 3.71428 73.1678 4.2028 74.2156C4.67314 75.2055 5.4094 76.0451 6.32935 76.6407C7.32129 77.2642 8.47411 77.5835 9.64548 77.5593C10.7672 77.6174 11.8799 77.3314 12.8346 76.7395ZM35.807 62.352C34.2596 61.4816 32.5141 61.0244 30.7387 61.0244C28.9633 61.0244 27.2178 61.4816 25.6704 62.352C24.2591 63.2133 23.1156 64.4506 22.368 65.9253C21.592 67.4689 21.1982 69.1765 21.2198 70.9041C21.2066 72.636 21.6249 74.3439 22.4369 75.8737C23.2221 77.3566 24.3973 78.5969 25.8357 79.4608C27.3761 80.3572 29.1337 80.8117 30.9155 80.7744C33.1753 80.7744 35.0492 80.2232 36.5006 79.1347C37.9291 78.0618 39.0247 76.6063 39.6606 74.9367L39.8489 74.4774H36.0964L35.9954 74.6611C35.5331 75.5174 34.8615 76.2426 34.0434 76.7693C33.1146 77.3366 32.0399 77.6193 30.9523 77.5823C29.8782 77.6055 28.8169 77.3457 27.875 76.829C27.0121 76.3473 26.2865 75.6533 25.7668 74.8127C25.3132 74.0631 25.0018 73.2364 24.8482 72.3738H40.2576V70.9133C40.2792 69.1857 39.8854 67.4781 39.1094 65.9345C38.3596 64.4589 37.2168 63.2191 35.807 62.352ZM24.8804 69.0761C25.156 67.8058 25.7942 66.6427 26.7176 65.7278C27.2541 65.224 27.8862 64.8327 28.5764 64.5771C29.2667 64.3216 30.0011 64.2068 30.7364 64.2397C31.4745 64.2072 32.2116 64.322 32.9047 64.5775C33.5979 64.833 34.2332 65.2241 34.7736 65.7278C35.7078 66.6345 36.3479 67.8011 36.6108 69.0761H24.8804ZM84.0149 61.957C84.8285 62.3886 85.5594 62.9609 86.1736 63.6472V61.3231H89.6459V80.4804H86.1736V78.1839C85.5549 78.8605 84.8247 79.426 84.0149 79.8558C82.7468 80.4977 81.3387 80.8134 79.918 80.7744C78.2344 80.8231 76.5722 80.3877 75.1287 79.5199C73.6852 78.652 72.5211 77.3881 71.7746 75.8783C71.0189 74.3306 70.6262 72.631 70.6262 70.9087C70.6262 69.1864 71.0189 67.4867 71.7746 65.9391C72.5254 64.4323 73.6903 63.171 75.1327 62.3029C76.5751 61.4349 78.2351 60.9962 79.918 61.0384C81.3387 60.9994 82.7468 61.3151 84.0149 61.957ZM83.4786 76.7301C84.4269 76.1387 85.1729 75.2729 85.6178 74.2478H85.6408C86.1041 73.1915 86.3434 72.0506 86.3434 70.8972C86.3434 69.7438 86.1041 68.6029 85.6408 67.5466C85.1896 66.5216 84.4387 65.6572 83.487 65.0669C82.5352 64.4767 81.4271 64.1883 80.3084 64.2397C79.1781 64.2002 78.0609 64.4916 77.094 65.0783C76.1271 65.665 75.3526 66.5213 74.8657 67.542C74.3787 68.5903 74.1264 69.7322 74.1264 70.888C74.1264 72.0438 74.3787 73.1857 74.8657 74.234C75.3454 75.262 76.1176 76.1258 77.0857 76.7172C78.0537 77.3087 79.1747 77.6016 80.3084 77.5593C81.4248 77.6107 82.5304 77.3215 83.4786 76.7301ZM100.577 61.6309C99.7804 61.9857 99.0527 62.4786 98.4277 63.0868C97.9598 63.5428 97.5523 64.0568 97.2151 64.6163V61.3231H93.7428V80.4896H97.2151V72.0156C97.2093 70.7505 97.4707 69.4984 97.9821 68.3412C98.4624 67.2528 99.2115 66.3045 100.159 65.5854C101.13 64.8737 102.309 64.5023 103.512 64.529H104.192V61.0246H103.654C102.597 61.0029 101.547 61.2097 100.577 61.6309ZM106.484 61.3231H109.956V80.4896H106.484V61.3231ZM110.066 54.6036H106.373V58.9256H110.066V54.6036ZM125.613 70.2473C126.544 70.5971 127.377 71.1677 128.039 71.9099C128.711 72.7551 129.051 73.817 128.994 74.8954C129.036 75.7585 128.855 76.618 128.47 77.3915C128.085 78.1651 127.508 78.827 126.794 79.3138C125.37 80.2967 123.459 80.7973 121.108 80.7973C119.575 80.84 118.053 80.5387 116.653 79.9155C115.52 79.3967 114.547 78.5829 113.837 77.5593C113.198 76.603 112.827 75.4928 112.762 74.3442L112.735 73.9722H116.303L116.34 74.2799C116.419 74.8659 116.623 75.4282 116.937 75.9288C117.304 76.4878 117.824 76.9295 118.435 77.201C119.296 77.5661 120.228 77.7371 121.163 77.7017C121.604 77.6945 122.045 77.6577 122.481 77.5915C122.991 77.5243 123.491 77.3947 123.969 77.2056C124.407 77.0385 124.798 76.7674 125.108 76.4156C125.41 76.0589 125.564 75.6007 125.54 75.1342C125.554 74.8437 125.493 74.5546 125.363 74.2942C125.234 74.0338 125.04 73.8107 124.8 73.6461C124.138 73.2105 123.402 72.8992 122.628 72.7275C122.505 72.6987 122.381 72.6694 122.256 72.6399L121.95 72.5674L121.947 72.5669C121.212 72.3927 120.451 72.2122 119.67 72.0477C118.637 71.8426 117.622 71.557 116.634 71.1934C115.71 70.858 114.878 70.3069 114.209 69.5859C113.527 68.7737 113.177 67.7333 113.231 66.674C113.195 65.8708 113.356 65.071 113.698 64.3437C114.041 63.6163 114.555 62.9832 115.197 62.4989C116.473 61.5298 118.366 61.043 120.823 61.043C122.243 60.991 123.656 61.2611 124.957 61.833C125.943 62.2919 126.792 63.0013 127.419 63.8906C127.969 64.6981 128.311 65.6289 128.415 66.6005L128.461 66.9863H124.952L124.915 66.6785C124.818 65.9636 124.443 65.3155 123.873 64.8735C123.262 64.3637 122.215 64.1065 120.759 64.1065C116.712 64.1065 116.712 65.8288 116.712 66.403C116.699 66.6809 116.76 66.9573 116.888 67.2041C117.016 67.451 117.208 67.6595 117.443 67.8084C118.115 68.2258 118.852 68.527 119.624 68.6995C120.557 68.9337 121.549 69.1542 122.577 69.3608C123.614 69.5641 124.63 69.8608 125.613 70.2473ZM0.918828 42.1061C0.633303 42.6072 0.4505 43.1602 0.381103 43.7327C0.311705 44.3052 0.357104 44.8859 0.514646 45.4406C0.771531 46.3678 1.32612 47.1848 2.09299 47.7657C2.85986 48.3467 3.79647 48.6594 4.75855 48.6557C5.15153 48.6571 5.54273 48.603 5.92058 48.495C8.10683 47.8933 12.0614 43.9525 11.7123 42.2761C11.4138 40.9992 7.28009 39.8969 4.91012 39.8969C4.46132 39.8871 4.01326 39.938 3.57816 40.0485C3.02073 40.1983 2.4986 40.4573 2.04209 40.8106C1.58558 41.1638 1.20377 41.6042 0.918828 42.1061ZM52.8194 44.8849C64.582 52.1142 68.633 58.6638 68.633 58.6638L68.6284 58.696C69.5978 60.1392 70.0909 61.8497 70.0385 63.5875C70.0385 66.0907 69.2393 68.1207 67.6777 69.5905C66.1161 71.0602 63.9574 71.8043 61.2705 71.8043H53.3844V80.531H49.9121V55.3798H55.9656C61.0179 55.3798 59.4012 49.8315 52.2912 46.4281C45.1813 43.0247 36.5741 44.3154 34.0801 46.3041C31.8915 48.0537 31.3967 49.1454 30.8218 50.4137C30.5607 50.99 30.283 51.6027 29.8224 52.3301C29.8077 52.3676 29.7859 52.4019 29.7581 52.4311V52.4587C29.3963 52.9931 28.9277 53.4467 28.3818 53.791C27.836 54.1352 27.2247 54.3626 26.5866 54.4589C25.9484 54.5551 25.2973 54.518 24.6742 54.35C24.0511 54.182 23.4695 53.8867 22.9663 53.4828C22.463 53.0788 22.0489 52.5749 21.75 52.0029C21.4512 51.4309 21.2741 50.8032 21.23 50.1594C21.1859 49.5156 21.2757 48.8696 21.4937 48.2621C21.7117 47.6547 22.0532 47.0991 22.4966 46.6302C24.0812 44.9033 26.2629 45.0916 28.5134 45.3029C29.7496 45.3388 30.9596 44.9418 31.9341 44.1803C32.9087 43.4188 33.5865 42.3407 33.8504 41.1324C34.296 37.5178 32.8032 36.42 23.8791 33.7837C23.6143 33.7054 23.3406 33.6253 23.0596 33.5431C18.7602 32.2851 12.7632 30.5305 10.9223 26.9953C8.4559 22.4344 14.8815 19.4812 16.3007 24.3405C17.945 32.4609 32.5001 34.5645 34.7644 28.9335C35.9129 26.1978 33.0397 24.07 30.6651 22.3116C30.3806 22.1009 30.1032 21.8955 29.8408 21.695C24.1179 16.4268 28.0817 6.48304 35.8622 6.58868C43.3349 6.40955 47.4732 15.894 42.2923 21.2862C40.4643 23.748 39.8535 25.2316 40.152 26.3936C41.3737 29.5949 48.8327 31.6388 52.1213 30.8901C52.9802 30.7477 57.1093 29.9485 58.4458 27.4637L58.4826 27.404C58.5916 27.1955 58.7192 26.9972 58.8638 26.8115C59.6922 25.618 60.7607 24.6106 62.0008 23.8537C63.8195 22.8329 65.87 22.2968 67.9556 22.2968C70.0411 22.2968 72.0917 22.8329 73.9104 23.8537C75.5569 24.8729 76.8915 26.3252 77.7685 28.0516C78.6776 29.8668 79.1391 31.8732 79.1142 33.9031V35.6163H60.9949C61.1831 36.6298 61.5568 37.5999 62.0972 38.4777C62.7068 39.4671 63.5589 40.2844 64.5728 40.8523C65.6793 41.454 66.9237 41.7564 68.1829 41.7295C69.4622 41.7736 70.7265 41.4431 71.8206 40.7788C72.781 40.1585 73.5705 39.3073 74.1171 38.3032L74.2319 38.0873H78.6411L78.4207 38.6476C77.674 40.6105 76.3855 42.3211 74.7049 43.5805C73.0055 44.8573 70.8009 45.5049 68.1462 45.5049C66.0505 45.5457 63.9843 45.0069 62.1753 43.9479C60.4868 42.9344 59.108 41.4778 58.1886 39.7362C58.1105 39.5938 58.0416 39.4468 57.9727 39.2998C57.9727 39.2998 54.3397 33.6229 50.206 33.6229C46.5914 33.6045 46.5408 38.5007 48.254 41.1003C49.1451 42.2761 50.6194 43.507 52.8194 44.8849ZM67.9441 26.0675C65.9783 26.0675 64.3937 26.6554 63.2225 27.8128C62.1384 28.8879 61.3914 30.2558 61.073 31.749H74.8198C74.5203 30.2529 73.7777 28.8814 72.6886 27.8128C72.0533 27.2214 71.3065 26.7625 70.4919 26.4628C69.6773 26.1632 68.8112 26.0288 67.9441 26.0675ZM61.0638 68.4882C62.901 68.4882 64.2789 68.0472 65.1975 67.1792C65.6712 66.7068 66.0404 66.14 66.2809 65.5157C66.5215 64.8914 66.6281 64.2235 66.5938 63.5553C66.6277 62.895 66.5226 62.2349 66.2853 61.6177C66.0479 61.0006 65.6836 60.4402 65.2159 59.9728C64.2973 59.1231 62.9194 58.6638 61.0822 58.6638H53.3844V68.4882H61.0638Z" fill="#002DDC"/>
</svg>
