<?xml version="1.0" encoding="utf-8"?>
<!-- Generator: Adobe Illustrator 21.0.2, SVG Export Plug-In . SVG Version: 6.00 Build 0)  -->
<!DOCTYPE svg PUBLIC "-//W3C//DTD SVG 1.1//EN" "http://www.w3.org/Graphics/SVG/1.1/DTD/svg11.dtd">
<svg version="1.1" id="Layer_1" xmlns="http://www.w3.org/2000/svg" xmlns:xlink="http://www.w3.org/1999/xlink" x="0px" y="0px"
	 viewBox="0 0 200 78" style="enable-background:new 0 0 200 78;" xml:space="preserve">
<style type="text/css">
	.st0{fill:#008ACB;}
	.st1{fill:#FFFFFF;}
	.st2{fill:#1D1D1B;}
</style>
<path class="st0" d="M63.5,2.1c0,12.9-1.2,22-2.5,28.8C57.1,51.6,48.8,63.1,32.8,77C16.8,63.1,8.5,51.6,4.6,30.9
	C3.3,24,2.1,14.9,2.1,2.1H63.5z"/>
<path class="st1" d="M34.5,64.1v-3.7c1.8-0.5,3.1-1.7,3.1-3.1c0-0.3-0.1-0.6-0.2-0.9h-0.8c2-9.3,5.6-18.9,10-18.9
	c1.4,0,2.3,0.5,2.7,1.4c0.5,1.1-0.1,2.7-1.4,4.3l-0.1-0.1c-1.9-1.3-4.1-1.5-5.2-0.3c-0.2,0.2-0.4,0.5-0.5,0.8l1.4,1.3
	c-1.1,1-4.8,4.4-2.4,6.6c2.5,2.3,5.5-1.8,6.4-2.9l1.4,1.3c0.3-0.1,0.6-0.3,0.8-0.6c1.1-1.2,0.8-3.4-0.7-5.1l-0.2-0.2
	c1.7-1.9,2.4-4,1.7-5.6c-0.6-1.4-2-2.1-3.9-2.1c-6.3,0-10,13.6-11.4,20.2h-0.1c0.2-3,1.4-13.5,7.1-20.9h0c2.1-2.2,2.7-1.4,3.4-1.7
	c0.8-0.4,0.3-1.2,1.5-1.6c1.2-0.4,2.3,0.5,3.1-0.6c0.9-1.1-0.1-2,0.6-2.4c1.8-1,2.8,0.6,4.4-1.3c1.6-1.9-1.2-1.8-0.1-3.1
	c0.5-0.5,1.7-0.2,2.9-1.6c1.3-1.6,0.2-2.5,0.6-2.9c0.2-0.3,0.5-0.4,0.7-0.6c0.2-0.2,1.7-2.6-0.3-4.3c-2-1.7-4.1,0-4.3,0.2
	c-0.2,0.2-0.3,0.5-0.5,0.8c-0.4,0.4-1.4-0.5-2.8,1c-1.3,1.3-0.7,2.6-1.2,3.1c-1.2,1.2-1.4-1.5-3.1,0.2c-1.7,1.8,0,2.6-0.8,4.5
	C46.1,25.8,45,25,44.1,26c-1,1,0.1,2-0.2,3.2c-0.3,1.2-1.1,0.9-1.4,1.7c-0.3,0.7,0.7,1.3-1.3,3.7l0,0c-6.1,7.8-7.2,18.6-7.4,21.6
	h-0.2V44c0.2-1.4,0.9-1.4,1.1-1.8c0.1-0.2-0.3-0.6,0-1.2c0.2-0.4,0.4-0.4,0.6-1c0.3-0.7-0.1-1,0.3-1.8c0.4-0.8,1.4-0.6,1.4-1.8
	c0-1.2-1-0.6-1-1.1c0-0.3,0.5-0.3,0.9-0.7c0.4-0.4,3.7-4.3,3.7-6.8c0-2.1-0.7-2-1.1-2c-0.6,0-0.4,0.8-1.1,0.8
	c-0.4,0-0.6-0.3-0.6-0.8c0-1.6,4.7-2.4,4.7-9.1c0-1.6-0.6-2.4-1.3-2.4c-1.5,0-0.8,1.8-1.8,1.8c-0.5,0-0.7-0.6-0.7-0.8
	c0-1.2,1.3-1.6,1.3-3.6c0-2-1.2-2.9-2.2-2.9c-1.1,0-0.9,0.9-1.8,0.9c-0.8,0,0.1-1,0.1-2.3c0-0.8-0.7-2.6-3.6-2.6s-3.6,1.7-3.6,2.6
	c0,1.2,0.9,2.3,0.1,2.3c-0.8,0-0.7-0.9-1.8-0.9c-1.1,0-2.2,0.9-2.2,2.9c0,2,1.3,2.4,1.3,3.6c0,0.2-0.2,0.8-0.7,0.8
	c-0.9,0-0.2-1.8-1.8-1.8c-0.8,0-1.3,0.8-1.3,2.4c0,6.7,4.7,7.4,4.7,9.1c0,0.5-0.2,0.8-0.6,0.8c-0.6,0-0.5-0.8-1.1-0.8
	c-0.4,0-1.1-0.1-1.1,2c0,2.6,3.4,6.5,3.7,6.8c0.4,0.4,0.9,0.4,0.9,0.7c0,0.5-1,0-1,1.1c0,1.2,1.1,1,1.4,1.8c0.4,0.8,0,1.2,0.3,1.8
	c0.3,0.7,0.5,0.6,0.6,1c0.3,0.6-0.1,0.9,0,1.2c0.2,0.4,0.9,0.4,1.1,1.8v12.3h-0.2c-0.2-3.1-1.3-13.8-7.4-21.6l0,0
	c-2-2.5-1-3-1.3-3.7c-0.3-0.8-1.1-0.5-1.4-1.7C21.3,28,22.3,27,21.4,26c-1-1-2-0.2-2.3-0.8c-0.8-1.9,1-2.7-0.8-4.5
	c-1.7-1.8-1.9,1-3.1-0.2c-0.5-0.5,0-1.7-1.2-3.1c-1.4-1.5-2.4-0.5-2.8-1c-0.2-0.2-0.3-0.6-0.5-0.8c-0.2-0.2-2.3-2-4.3-0.2
	c-2,1.7-0.5,4.1-0.3,4.3c0.2,0.2,0.5,0.3,0.7,0.6c0.4,0.4-0.7,1.4,0.6,2.9c1.2,1.4,2.4,1,2.9,1.6c1.1,1.3-1.7,1.2-0.1,3.1
	c1.6,1.9,2.6,0.3,4.4,1.3c0.6,0.4-0.3,1.3,0.6,2.4c0.9,1.1,2,0.2,3.1,0.6c1.2,0.4,0.7,1.2,1.5,1.6c0.7,0.3,1.2-0.5,3.4,1.7l0,0
	c5.7,7.4,6.9,17.9,7.1,20.9h-0.1c-1.4-6.6-5-20.2-11.4-20.2c-1.9,0-3.3,0.8-3.9,2.1c-0.7,1.6,0,3.7,1.7,5.6L16.4,44
	c-1.5,1.7-1.8,3.9-0.7,5.1c0.2,0.2,0.5,0.4,0.8,0.6l1.4-1.3c0.9,1.1,3.9,5.2,6.4,2.9c2.5-2.3-1.3-5.6-2.4-6.6l1.4-1.3
	c-0.1-0.3-0.3-0.6-0.5-0.8c-1.1-1.2-3.3-1.1-5.2,0.3L17.5,43c-1.4-1.5-1.9-3.1-1.4-4.3c0.4-0.9,1.3-1.4,2.7-1.4
	c4.4,0,8.1,9.6,10,18.9h-0.8c-0.1,0.3-0.2,0.6-0.2,0.9c0,1.4,1.3,2.6,3.1,3.1v3.7H34.5z"/>
<g>
	<path class="st2" d="M78.6,30.5l1.6-2.3c-1.3-1.4-2-3.5-2-5.9c0-4.2,2.2-7.9,7-7.9c1.5,0,2.7,0.3,3.7,0.9l1.4-2.1l1.2,0.8L90,16.1
		c1.5,1.4,2.2,3.6,2.2,6.1c0,4.2-2.2,7.9-7,7.9c-1.6,0-2.9-0.4-3.9-1.1l-1.5,2.2L78.6,30.5z M87.6,17.2c-0.6-0.5-1.4-0.7-2.4-0.7
		c-2.9,0-4.3,2.3-4.3,5.8c0,1.5,0.2,2.7,0.8,3.7L87.6,17.2z M89.5,22.2c0-1.6-0.3-3-1-3.9l-5.9,8.8c0.7,0.6,1.5,0.9,2.6,0.9
		C88.1,28,89.5,25.7,89.5,22.2z"/>
	<path class="st2" d="M93.4,14.6h2.8l3.1,9.5c0.4,1.1,0.8,2.6,1,3.3h0c0.2-0.7,0.6-2.2,1-3.3l3.1-9.5h2.6l-5.4,15.4h-2.8L93.4,14.6z
		"/>
	<path class="st2" d="M116.9,28.3l-3.2-5h-1.8v6.6h-2.6V14.6h5.4c2.9,0,4.8,1.7,4.8,4.4c0,1.7-1,3.4-3.2,4l2.9,4.2
		c0.4,0.6,0.8,0.8,1.3,0.8c0.2,0,0.3,0,0.5,0v2c-0.3,0.1-0.6,0.1-0.9,0.1C118.7,30.1,117.8,29.7,116.9,28.3z M114.2,21.5
		c1.8,0,2.7-1,2.7-2.5c0-1.6-0.9-2.5-2.7-2.5h-2.3v4.9H114.2z"/>
	<path class="st2" d="M123.6,14.6h8.7v2.1h-6.2v4.1h5.3v2h-5.3v5h6.2v2.1h-8.7V14.6z"/>
	<path class="st2" d="M141.8,14.6h8.7v2.1h-6.2v4.1h5.3v2h-5.3v5h6.2v2.1h-8.7V14.6z"/>
	<path class="st2" d="M154.1,14.6h2.6v15.4h-2.6V14.6z"/>
	<path class="st2" d="M168.3,28.4l-4.8-6v7.5h-2.6V14.6h2.6v7.1l5.7-7.1h2.8l-5.9,7.2l4.4,5.4c0.5,0.6,0.9,0.8,1.4,0.8
		c0.1,0,0.2,0,0.4,0v2c-0.3,0.1-0.6,0.1-1,0.1C170.1,30.1,169.3,29.7,168.3,28.4z"/>
	<path class="st2" d="M174.9,14.6h8.7v2.1h-6.2v4.1h5.3v2h-5.3v5h6.2v2.1h-8.7V14.6z"/>
	<path class="st2" d="M194.7,28.3l-3.2-5h-1.8v6.6h-2.6V14.6h5.4c2.9,0,4.8,1.7,4.8,4.4c0,1.7-1,3.4-3.2,4l2.9,4.2
		c0.4,0.6,0.8,0.8,1.3,0.8c0.2,0,0.3,0,0.5,0v2c-0.3,0.1-0.6,0.1-0.9,0.1C196.5,30.1,195.6,29.7,194.7,28.3z M192,21.5
		c1.8,0,2.7-1,2.7-2.5c0-1.6-0.9-2.5-2.7-2.5h-2.3v4.9H192z"/>
</g>
<g>
	<path class="st2" d="M85.6,51.4L80.1,45v7.7h-1.3V37.5h1.3v7.3l6.6-7.3h1.5l-6.7,7.3l5.2,6c0.5,0.5,0.9,0.8,1.5,0.8
		c0.1,0,0.2,0,0.3,0v1.1c-0.2,0-0.4,0-0.6,0C87.1,52.8,86.4,52.4,85.6,51.4z"/>
	<path class="st2" d="M90.1,45.1c0-4,1.9-7.8,6.5-7.8c4.6,0,6.5,3.4,6.5,7.7c0,4-1.9,7.8-6.5,7.8C91.9,52.8,90.1,49.4,90.1,45.1z
		 M101.7,45.1c0-3.8-1.5-6.6-5.1-6.6c-3.6,0-5.1,2.9-5.1,6.7c0,3.8,1.5,6.6,5.1,6.6C100.1,51.7,101.7,48.8,101.7,45.1z"/>
	<path class="st2" d="M107.9,37.5h1.8l4.1,13.7l4-13.7h1.8l2,15.1h-1.2l-1.8-13.6l-4,13.6h-1.6l-4-13.6l-1.7,13.6h-1.2L107.9,37.5z"
		/>
	<path class="st2" d="M126.5,37.5h1.8l4.1,13.7l4-13.7h1.8l2,15.1h-1.2l-1.8-13.6l-4,13.6h-1.6l-4-13.6l-1.7,13.6h-1.2L126.5,37.5z"
		/>
	<path class="st2" d="M143.6,47.5v-10h1.3v9.8c0,2.8,1.4,4.4,4,4.4c2.6,0,4.1-1.6,4.1-4.4v-9.8h1.3v10c0,3.5-2.3,5.3-5.3,5.3
		C145.9,52.8,143.6,51.1,143.6,47.5z"/>
	<path class="st2" d="M158.7,37.5h1.5l8.1,13.3V37.6h1.2v15.1h-1.5l-8-13.1v13.1h-1.2V37.5z"/>
	<path class="st2" d="M174,37.5h7.6v1.1h-6.3v5.3h5.4V45h-5.4v6.5h6.3v1.1H174V37.5z"/>
</g>
</svg>
