<svg xmlns="http://www.w3.org/2000/svg" xmlns:xlink="http://www.w3.org/1999/xlink" id="Capa_1" x="0px" y="0px" width="167.8px" height="79.7px" viewBox="0 0 167.8 79.7" style="enable-background:new 0 0 167.8 79.7;" xml:space="preserve"><style type="text/css">	.st0{fill:#F8F5E7;}</style><g>	<path class="st0" d="M53.6,53.7c0,0-10.1-4.3-13.5-5.5c-0.8,1-4.6,6-4.6,6L53.6,53.7z"></path>	<path class="st0" d="M66.2,72.6c0.1-0.1,0.2-0.3,0.2-0.5s-0.1-0.3-0.2-0.5c-0.1-0.1-0.3-0.2-0.6-0.2h-1.3v1.4h1.3  C65.9,72.8,66.1,72.7,66.2,72.6z"></path>	<path class="st0" d="M47.2,71.9c-0.1-0.2-0.2-0.4-0.3-0.6c-0.3-0.4-0.8-0.6-1.4-0.6H44v6h1.5c0.6,0,1.1-0.2,1.4-0.6  c0.2-0.2,0.3-0.5,0.4-0.9s0.1-0.9,0.1-1.6c0-0.5,0-0.8,0-1.1C47.3,72.3,47.2,72.1,47.2,71.9z"></path>	<path class="st0" d="M16.9,61.6c-0.1-0.3-0.2-0.6-0.4-0.8c-0.1-0.2-0.3-0.3-0.6-0.4c-0.2-0.1-0.5-0.1-0.7-0.1s-0.5,0.1-0.7,0.2  c-0.2,0.1-0.4,0.2-0.5,0.4c-0.2,0.2-0.3,0.5-0.4,0.8c-0.1,0.3-0.1,0.9,0,1.7c0,0.4,0,0.8,0,1.1c0,0.3,0.1,0.5,0.1,0.7  s0.1,0.3,0.1,0.5c0.1,0.1,0.1,0.2,0.3,0.4c0.2,0.2,0.3,0.3,0.6,0.4c0.2,0.1,0.5,0.1,0.7,0.1c0.5,0,0.9-0.2,1.2-0.5  c0.1-0.2,0.2-0.3,0.3-0.5s0.1-0.5,0.1-0.8s0-0.8,0-1.3C17,62.5,16.9,61.9,16.9,61.6z"></path>	<polygon class="st0" points="92.8,62.7 95.3,62.7 94,59  "></polygon>	<path class="st0" d="M165.5,53.1l-164,4.7L1.8,70l38-1.1v10.8h97.6L137,67.5H87.6l78.3-2.3L165.5,53.1z M9.8,66.3  c-0.2,0.3-0.4,0.6-0.6,0.8c-0.2,0.2-0.5,0.4-0.9,0.5c-0.3,0.1-0.7,0.2-1.1,0.2c-0.3,0-0.6,0-0.8-0.1c-0.3-0.1-0.5-0.2-0.7-0.3  c-0.2-0.1-0.5-0.3-0.6-0.5c-0.3-0.3-0.5-0.5-0.6-0.8s-0.2-0.6-0.2-1s-0.1-0.9-0.1-1.5c0-0.5,0-0.9,0-1.2s0-0.6,0.1-0.8  c0-0.2,0.1-0.5,0.2-0.7s0.3-0.4,0.4-0.6c0.3-0.3,0.6-0.5,1-0.7s0.8-0.2,1.2-0.3c0.8,0,1.4,0.2,2,0.6c0.5,0.4,0.9,1.1,1.1,1.9H8.9  c-0.1-0.4-0.3-0.8-0.6-1s-0.7-0.4-1.1-0.4c-0.2,0-0.5,0.1-0.7,0.1C6.2,60.7,6,60.9,5.9,61s-0.2,0.2-0.2,0.4  c-0.1,0.1-0.1,0.3-0.1,0.5s-0.1,0.4-0.1,0.7s0,0.6,0,1c0,0.4,0,0.8,0,1c0,0.3,0.1,0.5,0.1,0.7s0.1,0.4,0.2,0.5S6,66,6.1,66.2  c0.2,0.2,0.3,0.3,0.6,0.4c0.2,0.1,0.4,0.1,0.7,0.1c0.3,0,0.6-0.1,0.8-0.2s0.4-0.3,0.6-0.5c0.1-0.2,0.2-0.5,0.3-0.8h1.3  C10.1,65.6,10,65.9,9.8,66.3z M18.3,64.8c0,0.3-0.1,0.7-0.2,1s-0.3,0.6-0.5,0.9c-0.6,0.6-1.3,0.9-2.2,0.9c-0.9,0-1.6-0.3-2.2-0.8  c-0.3-0.3-0.5-0.5-0.6-0.8s-0.2-0.6-0.2-1s-0.1-0.9-0.1-1.5c0-0.5,0-0.9,0-1.2s0-0.6,0.1-0.8c0-0.2,0.1-0.5,0.2-0.7  c0.1-0.2,0.3-0.4,0.4-0.6c0.6-0.6,1.3-0.9,2.2-0.9c0.9,0,1.6,0.3,2.2,0.8c0.3,0.3,0.5,0.5,0.6,0.8s0.2,0.6,0.2,1  c0,0.3,0.1,0.9,0.1,1.5C18.3,63.9,18.3,64.4,18.3,64.8z M26.1,67.2l-4-5.7l0.2,5.8H21L20.8,59H22l4,5.7l-0.2-5.8h1.3l0.2,8.3H26.1z   M35.1,65.6c-0.1,0.3-0.3,0.6-0.6,0.8c-0.3,0.2-0.6,0.4-0.9,0.5c-0.4,0.1-0.8,0.2-1.2,0.2c-0.6,0-1.2-0.1-1.7-0.2  c-0.5-0.2-0.9-0.4-1.3-0.8l0.8-0.9c0.2,0.2,0.4,0.3,0.6,0.5c0.2,0.1,0.5,0.2,0.7,0.2c0.3,0,0.5,0.1,0.8,0.1c0.5,0,1-0.1,1.3-0.4  c0.3-0.2,0.4-0.5,0.4-1c0-0.4-0.1-0.7-0.4-0.9c-0.1-0.1-0.2-0.2-0.4-0.2c-0.1,0-0.3-0.1-0.6-0.1l-1-0.1c-0.7-0.1-1.2-0.3-1.6-0.6  c-0.4-0.4-0.6-0.9-0.6-1.6c0-0.5,0.1-0.9,0.3-1.3c0.2-0.4,0.5-0.7,0.9-0.9s0.9-0.3,1.5-0.3c0.6,0,1,0,1.5,0.2  c0.4,0.1,0.8,0.4,1.2,0.7L34,60.3c-0.2-0.2-0.4-0.3-0.5-0.4c-0.2-0.1-0.4-0.2-0.6-0.2c-0.2,0-0.4,0-0.7,0s-0.6,0.1-0.8,0.2  c-0.2,0.1-0.4,0.3-0.5,0.5s-0.2,0.4-0.2,0.7s0.1,0.6,0.3,0.8c0.1,0.1,0.2,0.2,0.4,0.2c0.2,0.1,0.3,0.1,0.5,0.1l1,0.1  c0.4,0,0.7,0.1,0.9,0.2c0.2,0.1,0.5,0.2,0.6,0.4c0.5,0.4,0.7,0.9,0.7,1.7C35.3,65,35.3,65.3,35.1,65.6z M37.9,66.9l-0.2-8.3  l5.3-0.1v1.1l-4,0.1l0.1,2.4l3.5-0.1v1.1L39,63.3l0.1,2.5l4-0.1v1.1L37.9,66.9z M48.6,73.7v0.4c0,0.4,0,0.8-0.1,1.2  c0,0.3-0.1,0.7-0.2,1c-0.1,0.3-0.3,0.6-0.6,0.9c-0.5,0.5-1.2,0.8-2.2,0.8h-2.9v-8.3h2.9c0.9,0,1.6,0.3,2.2,0.8  c0.2,0.2,0.4,0.5,0.6,0.8c0.1,0.3,0.2,0.6,0.2,0.9s0.1,0.7,0.1,1.1V73.7z M45.7,66.7l-0.2-8.3h1.3l0.2,7.2l4-0.1v1.1L45.7,66.7z   M56.6,70.7h-4.1v2.4H56v1.1h-3.5v2.5h4.1v1.1h-5.3v-8.3h5.3V70.7z M53.1,66.5l-0.2-8.3h1.3l0.2,7.2l4-0.1v1.1L53.1,66.5z   M67.8,77.3c-0.5,0.4-1.1,0.6-1.9,0.6h-3.6v-8.3h3.4c0.8,0,1.5,0.2,2,0.7c0.5,0.4,0.7,1,0.7,1.8c0,0.4-0.1,0.8-0.3,1  c-0.2,0.3-0.4,0.5-0.6,0.6c0.3,0.2,0.5,0.4,0.7,0.7c0.2,0.3,0.3,0.6,0.3,1.2C68.5,76.2,68.3,76.8,67.8,77.3z M69.2,65.3  c-0.5,0.5-1.2,0.8-2.1,0.8l-2.9,0.1L64,57.9l2.9-0.1c0.9,0,1.6,0.2,2.2,0.7c0.3,0.2,0.4,0.5,0.6,0.8c0.1,0.3,0.2,0.6,0.3,0.9  c0,0.3,0.1,0.7,0.1,1.1v0.4v0.4c0,0.4,0,0.8,0,1.2c0,0.3-0.1,0.7-0.2,1C69.7,64.8,69.5,65.1,69.2,65.3z M75.4,77.9L75,76.7h-2.6  L72,77.9h-2.1l3-8.3h1.6l3,8.3H75.4z M72.7,66l-0.2-8.3l5.3-0.1v1.1l-4,0.1l0.1,2.4l3.5-0.1v1.1l-3.5,0.1l0.1,2.5l4-0.1v1.1  L72.7,66z M83.4,77.9l-1.5-3.1h-0.7v3.1h-2v-8.3h3.3c0.9,0,1.6,0.3,2.1,0.8s0.8,1.2,0.8,1.9c0,0.5-0.1,1-0.4,1.3  c-0.3,0.4-0.6,0.6-1,0.8l1.8,3.5C85.8,77.9,83.4,77.9,83.4,77.9z M130.1,69.6h1.6l3,8.3h-2.1l-0.4-1.3h-2.6l-0.4,1.3h-2.1  L130.1,69.6z M119,69.6h1.8l2.7,4.2v-4.2h2v8.3h-1.8l-2.7-4.2v4.2h-2V69.6z M110.6,71.7c0.1-0.5,0.3-0.9,0.7-1.2  c0.4-0.4,0.7-0.6,1.1-0.8c0.4-0.2,0.8-0.2,1.3-0.2c0.9,0,1.6,0.3,2.2,0.8c0.5,0.5,0.8,1,0.9,1.5s0.1,1.1,0.1,2s0,1.6-0.1,2  c-0.1,0.5-0.3,0.9-0.7,1.3c-0.3,0.3-0.7,0.5-1,0.7c-0.4,0.2-0.8,0.2-1.3,0.2c-0.9,0-1.6-0.3-2.1-0.8s-0.8-1-0.9-1.5s-0.1-1.1-0.1-2  C110.5,72.9,110.5,72.2,110.6,71.7z M103.3,69.6h2v6.5h3.5v1.8h-5.5V69.6z M95.4,69.6h5.7v1.8h-3.6v1.4h3.1v1.8h-3.1v1.5h3.6v1.8  h-5.7V69.6z M88,70.5c0.3-0.3,0.7-0.5,1-0.7c0.4-0.2,0.8-0.2,1.3-0.2c0.4,0,0.8,0.1,1.1,0.2s0.7,0.3,0.9,0.5  c0.3,0.2,0.5,0.5,0.7,0.8s0.3,0.7,0.4,1.2h-2.1c-0.1-0.3-0.2-0.5-0.3-0.6s-0.4-0.2-0.7-0.2c-0.2,0-0.3,0-0.5,0.1  c-0.1,0.1-0.2,0.1-0.3,0.3c-0.1,0.1-0.1,0.2-0.2,0.3c0,0.1-0.1,0.3-0.1,0.6c0,0.3,0,0.6,0,1.1c0,0.7,0,1.1,0.1,1.4  c0,0.3,0.1,0.5,0.2,0.6c0.2,0.2,0.4,0.4,0.8,0.4c0.3,0,0.5-0.1,0.7-0.2c0.2-0.2,0.3-0.4,0.4-0.6h2.1c-0.1,0.4-0.2,0.8-0.4,1.2  c-0.2,0.3-0.4,0.6-0.7,0.9c-0.3,0.2-0.6,0.4-0.9,0.5s-0.7,0.2-1.1,0.2c-0.9,0-1.7-0.3-2.3-0.9c-0.4-0.4-0.6-0.8-0.7-1.2  c-0.1-0.5-0.1-1.1-0.1-1.8v-0.3v-0.3c0-0.7,0-1.3,0.1-1.8S87.6,70.8,88,70.5z M84.1,65.7l-0.2-8.3h1.3l0.2,7.2l4-0.1v1.1L84.1,65.7  z M96.3,65.4l-0.6-1.7l-3.3,0.1l-0.5,1.7h-1.3l2.8-8.4h1l3.3,8.2L96.3,65.4z M106.6,63.9c-0.2,0.4-0.6,0.7-1,1  c-0.4,0.2-0.9,0.3-1.4,0.4c-0.3,0-0.5,0-0.8-0.1c-0.2,0-0.5-0.1-0.7-0.2s-0.4-0.3-0.6-0.4l0.8-0.8c0.2,0.2,0.4,0.3,0.5,0.4  c0.2,0.1,0.4,0.1,0.7,0.1c0.3,0,0.6-0.1,0.8-0.2c0.2-0.1,0.4-0.3,0.5-0.6s0.2-0.6,0.2-0.9l-0.1-5.6h1.3l0.1,5.7  C107,63,106.9,63.5,106.6,63.9z M115.4,62.2c0,0.3-0.1,0.7-0.2,1s-0.3,0.6-0.5,0.9c-0.6,0.6-1.3,0.9-2.2,0.9  c-0.9,0-1.6-0.3-2.2-0.8c-0.3-0.3-0.5-0.5-0.6-0.8s-0.2-0.6-0.2-1s-0.1-0.9-0.1-1.5c0-0.5,0-0.9,0-1.2s0-0.6,0.1-0.8  c0-0.2,0.1-0.5,0.2-0.7s0.3-0.4,0.4-0.6c0.6-0.6,1.3-0.9,2.2-0.9c0.9,0,1.6,0.3,2.2,0.8c0.3,0.3,0.5,0.5,0.6,0.8s0.2,0.6,0.2,1  c0,0.3,0.1,0.9,0.1,1.5C115.4,61.4,115.4,61.9,115.4,62.2z M120.8,64.8h-1l-2.9-8.2h1.3l2.1,6l1.8-6.1h1.3L120.8,64.8z M125.3,64.6  l-0.2-8.3l5.3-0.1v1.1l-4,0.1l0.1,2.4l3.5-0.1v1.1l-3.5,0.1l0.1,2.5l4-0.1v1.1L125.3,64.6z M138.2,64.3l-4-5.7l0.2,5.9h-1.3  l-0.2-8.3h1.2l4,5.7l-0.2-5.8h1.3l0.2,8.3L138.2,64.3z M145.1,64.1h-1.3l-0.2-7.2l-2.3,0.1v-1.1l5.8-0.2v1.1l-2.3,0.1L145.1,64.1z   M155,62.6c-0.2,0.4-0.6,0.8-1,1c-0.4,0.3-1,0.4-1.5,0.4c-0.6,0-1.1-0.1-1.5-0.3c-0.5-0.2-0.8-0.6-1.1-1s-0.4-0.9-0.4-1.5l-0.1-5.5  h1.3l0.1,5.4c0,0.4,0.1,0.7,0.2,0.9c0.1,0.3,0.4,0.5,0.6,0.6c0.3,0.1,0.6,0.2,0.9,0.2c0.3,0,0.6-0.1,0.9-0.2s0.5-0.4,0.6-0.6  c0.1-0.3,0.2-0.6,0.2-1l-0.1-5.4h1.3l0.1,5.5C155.4,61.6,155.3,62.1,155,62.6z M161.2,63.7h-1.3l-0.2-7.2l-2.3,0.1v-1.1l5.8-0.2  v1.1l-2.3,0.1L161.2,63.7z"></path>	<path class="st0" d="M68.7,60.8c0-0.3-0.1-0.5-0.1-0.7c-0.1-0.2-0.2-0.4-0.3-0.6c-0.4-0.4-0.8-0.5-1.4-0.5h-1.5l0.2,6h1.5  c0.6,0,1.1-0.2,1.4-0.6c0.2-0.2,0.3-0.5,0.3-0.9s0-0.9,0-1.6C68.7,61.4,68.7,61.1,68.7,60.8z"></path>	<path class="st0" d="M114,59c-0.1-0.3-0.2-0.6-0.4-0.8c-0.1-0.2-0.3-0.3-0.6-0.4c-0.2-0.1-0.5-0.1-0.7-0.1s-0.5,0.1-0.7,0.2  c-0.2,0.1-0.4,0.2-0.5,0.4c-0.2,0.2-0.3,0.5-0.4,0.8s-0.1,0.9,0,1.7c0,0.4,0,0.8,0,1.1s0.1,0.5,0.1,0.7s0.1,0.3,0.1,0.5  c0.1,0.1,0.1,0.2,0.3,0.4c0.2,0.2,0.3,0.3,0.6,0.4c0.2,0.1,0.5,0.1,0.7,0.1c0.5,0,0.9-0.2,1.2-0.5c0.1-0.2,0.2-0.3,0.3-0.5  c0.1-0.2,0.1-0.5,0.1-0.8s0-0.8,0-1.3C114.1,59.9,114,59.4,114,59z"></path>	<path class="st0" d="M65.7,74.6h-1.4v1.5h1.4c0.3,0,0.4-0.1,0.6-0.2c0.1-0.1,0.2-0.3,0.2-0.5s-0.1-0.4-0.2-0.5  C66.2,74.7,66,74.6,65.7,74.6z"></path>	<polygon class="st0" points="73,75 74.5,75 73.8,72.7  "></polygon>	<path class="st0" d="M82.4,71.4h-1.2v1.7h1.2c0.3,0,0.5-0.1,0.6-0.3c0.2-0.2,0.2-0.4,0.2-0.6s-0.1-0.4-0.2-0.6  C82.9,71.5,82.7,71.4,82.4,71.4z"></path>	<path class="st0" d="M112.8,75.8c0.1,0.1,0.2,0.2,0.4,0.3c0.1,0.1,0.3,0.1,0.5,0.1c0.4,0,0.6-0.1,0.8-0.3c0.1-0.2,0.2-0.4,0.3-0.7  c0-0.3,0.1-0.7,0.1-1.4c0-0.7,0-1.2-0.1-1.4c0-0.3-0.1-0.5-0.2-0.6s-0.2-0.2-0.3-0.3c-0.1-0.1-0.3-0.1-0.5-0.1s-0.3,0-0.5,0.1  c-0.1,0.1-0.3,0.2-0.4,0.3c-0.1,0.1-0.2,0.3-0.2,0.6c0,0.3-0.1,0.7-0.1,1.4c0,0.7,0,1.2,0.1,1.4C112.7,75.4,112.7,75.6,112.8,75.8z  "></path>	<polygon class="st0" points="131,72.7 130.2,75 131.7,75  "></polygon>	<path class="st0" d="M13.7,43.4C12.9,30,20.2,26,24.6,26s8.1,0.6,12.3,9.3l19.8-10.8c-5-11.3-14-17.2-27.5-18.2  C16.6,5.4,8.7,7.8,0,13.5l1.4,41.7L18,54.8C18,54.8,14.2,51.5,13.7,43.4z"></path>	<path class="st0" d="M97.5,52.4c3.2-5.9,2.7-9.7,2.6-14.4L98.7,0.9L73.1,1.7c0.4,13.1,1.1,34,1.2,35.9c0.1,1.8-1.1,2.8-2.6,2.8  c-1.7,0-6,0.2-6,0.2l0.5,12.8L97.5,52.4z"></path>	<path class="st0" d="M166.9,21.2c-1.5-15-16.3-16.3-20.2-16.3c-3.7,0-9.9,0-15.8,4.7L130.5,0L111,0.6l2.1,51.4l52.4-1.5  c1.6-2.7,2-4.6,2.2-7.7C167.9,39.3,168.1,33,166.9,21.2z M141,44.8c-4.5,0.2-8.7-0.2-9.2-11.8c-0.5-11.5,2.2-12.8,7.4-13.2  c2.2-0.2,4.8,0.1,6.5,2.2c1.5,1.8,2.2,4.8,2.4,9.9C148.5,43.2,145.8,44.6,141,44.8z"></path></g></svg>