<?xml version="1.0" encoding="UTF-8"?>
<svg version="1.1" xmlns="http://www.w3.org/2000/svg" xmlns:xlink="http://www.w3.org/1999/xlink" x="0px" y="0px" width="299px" height="300px" viewBox="0 0 299 300" style="enable-background:new 0 0 299 300;" xml:space="preserve">
<style type="text/css">
	.st0{fill:#C33C37;}
	.st1{fill:#146492;}
	.st2{fill:#E3E4E4;}
	.st3{fill:#D0D1D2;}
	.st4{fill:#1A171C;}
</style>
<g id="border">
	<rect x="34.5053" class="st0" width="232.1677" height="3.3664"/>
	<rect x="34.5054" y="296.6232" class="st0" width="232.1677" height="3.3768"/>
	<rect x="295.6428" y="33.5321" class="st1" width="3.3572" height="232.9359"/>
	<rect y="33.5321" class="st1" width="3.3624" height="232.9359"/>
</g>
<g id="symbol">
	<path class="st0" d="M101.5226,186.8685c0,10.6172,5.7048,19.8405,16.0686,25.9742c8.5494,5.0268,19.9077,7.8653,31.9733,7.8653   c22.9318,0.0257,47.596-10.535,47.6883-33.8239l-11.6145-0.0566c-0.041,15.3366-18.7134,22.3053-36.0584,22.2643   c-18.1189-0.0257-36.5043-7.6811-36.5043-22.2234H101.5226"/>
	<path class="st2" d="M197.2569,94.3997c0-10.6169-5.6894-19.8402-16.0533-25.9789c-8.5597-5.0218-19.9128-7.84-31.9733-7.8657   c-22.901-0.041-47.6011,10.5096-47.6421,33.8088l11.553,0.041c0.0769-15.316,18.7288-22.2387,36.0891-22.2334   c18.1035,0.041,36.494,7.6861,36.494,22.2281H197.2569"/>
	<path class="st3" d="M233.1708,94.4648c-0.0154-17.6166-2.9011-32.1022-17.0425-45.471   c-16.1404-15.3619-39.8923-23.7655-66.8989-23.7092c-30.6406,0.0616-55.0127,9.208-70.5842,26.4658   C67.3792,64.2738,63.2172,78.5599,65.862,95.454l11.3429-2.3265l-0.1333-0.5739L65.821,95.454l0.1691,0.5482l-0.0974-0.3537   c3.9467,20.9064,19.6565,36.1864,44.1926,43.0628c2.1271,0.5945,4.1261,1.235,6.0328,1.8139   c8.0061,2.5007,15.5869,4.8526,31.4761,5.1497c6.653,0.1385,13.7109,0.0206,21.184-0.0869   c19.4771-0.2768,39.6206-0.5432,55.884,3.0487c34.0799,7.5273,34.0389,36.7859,34.0389,38.0157v0.2971l0.041,0.2921   c0,0.2921,2.0092,29.684-19.6617,53.2497c-18.816,20.3888-49.5694,30.7495-91.4043,30.7495   c-29.8154,0-107.2422-15.1724-107.2422-84.4759H28.84c0,70.4975,71.1019,96.123,118.8363,96.123   c45.2998,0,78.9542-11.6831,100.0562-34.6749c25.1255-27.3984,22.6396-60.5308,22.5423-61.9397l0.0256,0.6302   c0-0.3997,0.4254-39.9731-43.1317-49.6165c-17.5858-3.8944-39.3541-3.5869-58.5442-3.3258   c-7.3911,0.1179-14.3362,0.2152-20.8149,0.0873c-14.244-0.2561-20.4613-2.193-28.2675-4.6321   c-1.9836-0.6049-4.0697-1.2607-6.3249-1.9012c-14.2029-3.971-31.963-13.1177-35.9405-34.0237l-0.0359-0.1998l-0.1691-0.7381   L65.821,95.454l0.1691,0.5482l11.3121-2.3419c-2.081-13.3994,1.0815-24.2368,9.9641-34.111   c13.2906-14.7727,34.6898-22.5664,61.963-22.6384c24.0645-0.046,44.982,7.2301,58.9184,20.5017   c9.877,9.3872,13.3982,19.0768,13.4751,37.0777L233.1708,94.4648"/>
	<path class="st1" d="M221.443,186.9135c-0.0718,36.248-37.2988,52.7014-71.8348,52.6501   c-36.1199-0.041-72.7164-18.1445-72.7164-52.6142h-11.594c0,42.0892,42.4243,64.1537,84.2797,64.2406   c40.1434,0.0976,83.3571-20.0147,83.4545-64.2406L221.443,186.9135"/>
</g>
<g id="text">
	<path class="st4" d="M283.35,136.0329h-1.1225v-2.1211c0-4.7247-0.3383-7.886-1.7683-9.8332   c-2.2245-2.8798-6.1661-3.1975-12.7217-3.1975h-3.3572v53.6544h5.8431v1.1938h-19.759v-1.1938h5.8329v-53.6544h-3.2701   c-6.5761,0-10.5689,0.3177-12.7986,3.1975c-1.4557,1.9472-1.7734,5.1085-1.7734,9.8332v2.1211h-1.1328v-16.3509H283.35V136.0329"/>
	<path class="st4" d="M216.1272,156.3279l-8.083-23.9397l-7.468,23.9397H216.1272 M188.5722,174.5336h1.0507   c4.2337,0,4.6335-1.4193,5.7611-5.1494l15.4536-50.2879h0.9072l18.7955,55.4374h5.2537v1.1941h-20.3075v-1.1941h6.8734   l-5.838-17.0017h-16.33l-3.9211,13.4817c-0.2255,0.7428-0.3229,1.3476-0.3229,1.5165c0,1.6807,2.0759,1.8293,6.4633,2.0035v1.1941   h-13.839V174.5336z"/>
	<path class="st4" d="M23.6283,149.4686c1.0712,16.5714,10,26.0714,22.0297,26.0714c9.9743,0,17.2629-7.2811,17.2629-16.6789   c0-3.8584-1.4915-7.4043-4.4849-10.0686c-3.7468-3.4177-9.7898-4.4016-17.7345-5.9594   c-12.5474-2.5414-18.4623-7.7424-18.4623-20.2196c0-13.3791,7.6576-21.6801,19.554-21.6801c9.431,0,15.1102,6.2975,17.2732,6.2975   c1.594,0,2.6807-1.3067,2.6807-3.6226v-0.5639h1.5274v21.5522h-1.5274c-1.6914-14.2604-9.1081-22.1054-19.9538-22.1054   c-9.472,0-14.941,5.3189-14.941,14.6958c0,5.4265,1.7017,8.9571,5.7099,11.5089c3.1061,1.9881,9.3285,1.9881,17.3962,3.966   c12.3321,2.9874,17.8113,8.5058,17.8113,20.568c0,14.363-8.5853,23.8784-21.799,23.8784c-9.8975,0-16.6427-5.7543-19.7642-5.7543   c-1.3685,0-2.4756,1.5525-2.5782,4.2837h-1.4915v-26.169H23.6283"/>
	<path class="st4" d="M84.3217,120.8783h-5.5869v-1.1991h39.185l0.9533,13.6506h-1.1891   c-0.897-10.3404-4.7975-12.4515-15.3767-12.4515h-9.9846v25.7333h2.4552c8.5033,0,11.5428-1.6041,11.5428-9.582v-0.3231h1.1225   v21.009h-1.1225v-0.6815c0-8.1268-2.8806-9.1723-11.5428-9.1723h-2.4552v26.671h10.2306c12.9626,0,18.1599-3.2845,18.1599-14.8853   v-0.2565h1.143v16.3409H78.7349v-1.1991h5.5869V120.8783 M93.1787,113.93l11.2557-12.3746   c1.4967-1.5218,2.5218-2.4545,3.798-2.4545c1.753,0,2.8908,1.2707,2.8908,2.967c0,1.1888-0.8201,2.2799-2.409,3.3868   L95.8491,113.93H93.1787z"/>
	<path class="st4" d="M147.6778,174.5336v1.1941h-14.6335v-1.1941c5.3511-0.3841,5.92-1.5165,5.92-6.5843v-47.0697h-5.92v-1.1991   h15.1409l28.3136,41.0643V127.382c0-5.3289-0.8867-6.1796-7.0015-6.5024v-1.1991h14.5412v1.1991   c-5.3511,0.42-5.9303,1.5115-5.9303,6.605v48.6632h-0.8611l-36.6068-52.8343v44.7232   C140.6404,173.3758,141.5272,174.2109,147.6778,174.5336"/>
</g>
</svg>