<svg xmlns="http://www.w3.org/2000/svg" xmlns:xlink="http://www.w3.org/1999/xlink" id="Calque_1" x="0px" y="0px" viewBox="0 0 300 100" style="enable-background:new 0 0 300 100;" xml:space="preserve"><style type="text/css">	.st0{clip-path:url(#SVGID_00000080165159991669152330000017177539255573096632_);fill:#585856;}	.st1{fill:#585856;}	.st2{clip-path:url(#SVGID_00000087410363989491268420000012794981252436700561_);fill:#585856;}	.st3{clip-path:url(#SVGID_00000136409591742293006620000017728079724037524410_);fill:#585856;}	.st4{clip-path:url(#SVGID_00000005970377956595177570000011550856943927162024_);fill:#585856;}	.st5{fill:#E7A700;}	.st6{fill:#BCCF0F;}	.st7{fill:#D60B52;}	.st8{fill:#92D2E5;}	.st9{clip-path:url(#SVGID_00000130617052451503195180000003411361406700273026_);fill:#D60B52;}</style><g>	<defs>		<rect id="SVGID_1_" x="10.1" y="3.3" width="280.4" height="93.2"></rect>	</defs>	<clipPath id="SVGID_00000106142475321178062310000009803209394051831723_">		<use xlink:href="#SVGID_1_" style="overflow:visible;"></use>	</clipPath>	<path style="clip-path:url(#SVGID_00000106142475321178062310000009803209394051831723_);fill:#585856;" d="M79.7,81.4  c0.2-0.4,0.4-0.7,0.6-1.2l2.7-5.1h0.6l-3.8,7h-0.4l-0.9-7h0.5l0.6,4.5C79.5,80.4,79.6,80.9,79.7,81.4L79.7,81.4z"></path>	<path style="clip-path:url(#SVGID_00000106142475321178062310000009803209394051831723_);fill:#585856;" d="M84.6,82.1h-0.5  l1.1-5.2h0.5L84.6,82.1z M85.4,75.6c0-0.2,0-0.3,0.1-0.4c0.1-0.1,0.2-0.2,0.3-0.2c0.2,0,0.3,0.1,0.3,0.3c0,0.2,0,0.3-0.1,0.4  c-0.1,0.1-0.2,0.2-0.3,0.2c-0.1,0-0.2,0-0.2-0.1C85.4,75.8,85.4,75.7,85.4,75.6"></path></g><polygon class="st1" points="87.9,82.1 87.5,82.1 89.1,74.7 89.5,74.7 "></polygon><polygon class="st1" points="91.3,82.1 90.9,82.1 92.5,74.7 92.9,74.7 "></polygon><g>	<defs>		<rect id="SVGID_00000039850290455695242160000013673087628494959541_" x="10.1" y="3.3" width="280.4" height="93.2"></rect>	</defs>	<clipPath id="SVGID_00000018197427762686191750000003497040008059037835_">		<use xlink:href="#SVGID_00000039850290455695242160000013673087628494959541_" style="overflow:visible;"></use>	</clipPath>	<path style="clip-path:url(#SVGID_00000018197427762686191750000003497040008059037835_);fill:#585856;" d="M96.2,82.2  c-0.6,0-1-0.2-1.3-0.5c-0.3-0.3-0.5-0.8-0.5-1.5c0-0.6,0.1-1.1,0.3-1.7c0.2-0.5,0.5-1,0.9-1.3c0.4-0.3,0.8-0.5,1.3-0.5  c0.4,0,0.7,0.1,0.9,0.3c0.2,0.2,0.3,0.5,0.3,0.8c0,0.6-0.3,1-0.8,1.3c-0.5,0.3-1.3,0.5-2.3,0.5h-0.2c0,0.1,0,0.3,0,0.5  c0,0.5,0.1,0.9,0.4,1.2c0.2,0.3,0.6,0.4,1,0.4c0.4,0,0.9-0.1,1.3-0.3v0.5C97.1,82.1,96.7,82.2,96.2,82.2 M96.9,77.2  c-0.4,0-0.8,0.2-1.2,0.6c-0.4,0.4-0.6,0.9-0.8,1.5h0.2c1.6,0,2.5-0.4,2.5-1.3c0-0.2-0.1-0.4-0.2-0.5S97.2,77.2,96.9,77.2"></path>	<path style="clip-path:url(#SVGID_00000018197427762686191750000003497040008059037835_);fill:#585856;" d="M106.3,76.8  c0.7,0,1.2,0.3,1.3,1h0c0-0.2,0.3-1.3,0.7-3.2h0.5l-1.6,7.4h-0.4l0.2-1.3h0c-0.6,0.9-1.2,1.4-2,1.4c-0.9,0-1.3-0.6-1.3-1.8  c0-0.6,0.1-1.2,0.3-1.8c0.2-0.6,0.5-1,0.9-1.3S105.8,76.8,106.3,76.8 M105.1,81.8c0.3,0,0.6-0.1,0.9-0.3c0.3-0.2,0.5-0.5,0.8-0.8  c0.2-0.3,0.4-0.7,0.5-1.1c0.1-0.4,0.2-0.7,0.2-1c0-0.4-0.1-0.7-0.3-1c-0.2-0.2-0.5-0.4-0.8-0.4c-0.4,0-0.8,0.1-1.1,0.4  c-0.3,0.3-0.6,0.7-0.8,1.2c-0.2,0.5-0.3,1-0.3,1.6C104.1,81.3,104.4,81.8,105.1,81.8"></path></g><polygon class="st1" points="111.3,75.1 110.9,77.6 111.2,77.6 111.9,75.1 "></polygon><g>	<defs>		<rect id="SVGID_00000094612467561368217970000005077608026393341355_" x="10.1" y="3.3" width="280.4" height="93.2"></rect>	</defs>	<clipPath id="SVGID_00000150087801258828664000000014301556638888930462_">		<use xlink:href="#SVGID_00000094612467561368217970000005077608026393341355_" style="overflow:visible;"></use>	</clipPath>	<path style="clip-path:url(#SVGID_00000150087801258828664000000014301556638888930462_);fill:#585856;" d="M115,82.2  c-0.6,0-1-0.2-1.3-0.5c-0.3-0.3-0.5-0.8-0.5-1.5c0-0.6,0.1-1.1,0.3-1.7c0.2-0.5,0.5-1,0.9-1.3c0.4-0.3,0.8-0.5,1.3-0.5  c0.4,0,0.7,0.1,0.9,0.3c0.2,0.2,0.3,0.5,0.3,0.8c0,0.6-0.3,1-0.8,1.3c-0.5,0.3-1.3,0.5-2.3,0.5h-0.2c0,0.1,0,0.3,0,0.5  c0,0.5,0.1,0.9,0.4,1.2c0.2,0.3,0.6,0.4,1,0.4c0.4,0,0.9-0.1,1.3-0.3v0.5C115.9,82.1,115.5,82.2,115,82.2 M115.7,77.2  c-0.4,0-0.8,0.2-1.2,0.6c-0.4,0.4-0.6,0.9-0.8,1.5h0.2c1.6,0,2.5-0.4,2.5-1.3c0-0.2-0.1-0.4-0.2-0.5S116,77.2,115.7,77.2"></path>	<path style="clip-path:url(#SVGID_00000150087801258828664000000014301556638888930462_);fill:#585856;" d="M121.7,80.7  c0,0.5-0.2,0.8-0.5,1.1c-0.3,0.3-0.8,0.4-1.3,0.4c-0.6,0-1-0.1-1.5-0.4v-0.5c0.2,0.1,0.5,0.3,0.7,0.3c0.3,0.1,0.5,0.1,0.7,0.1  c0.4,0,0.8-0.1,1-0.3c0.2-0.2,0.3-0.4,0.3-0.8c0-0.1,0-0.3-0.1-0.4c-0.1-0.1-0.1-0.2-0.2-0.3c-0.1-0.1-0.3-0.2-0.6-0.4  c-0.5-0.3-0.8-0.5-1-0.7c-0.2-0.2-0.2-0.5-0.2-0.8c0-0.4,0.2-0.7,0.5-1c0.3-0.3,0.7-0.4,1.2-0.4c0.2,0,0.5,0,0.8,0.1  c0.3,0.1,0.5,0.1,0.7,0.2l-0.2,0.4c-0.4-0.2-0.9-0.3-1.3-0.3c-0.4,0-0.7,0.1-0.9,0.3c-0.2,0.2-0.3,0.4-0.3,0.7c0,0.2,0,0.3,0.1,0.4  c0.1,0.1,0.2,0.2,0.3,0.3s0.3,0.2,0.6,0.4c0.4,0.2,0.6,0.4,0.8,0.5c0.2,0.1,0.3,0.3,0.3,0.4C121.7,80.3,121.7,80.5,121.7,80.7"></path>	<path style="clip-path:url(#SVGID_00000150087801258828664000000014301556638888930462_);fill:#585856;" d="M125.7,82.2  c-0.7,0-1.2-0.3-1.3-1h0c0,0.2-0.3,1.3-0.7,3.3h-0.5l1.6-7.6h0.4l-0.2,1.3h0c0.3-0.5,0.6-0.8,0.9-1.1c0.3-0.2,0.7-0.3,1.1-0.3  c0.4,0,0.8,0.1,1,0.4c0.2,0.3,0.3,0.7,0.3,1.4c0,0.6-0.1,1.2-0.3,1.8c-0.2,0.6-0.5,1-0.9,1.3C126.7,82,126.2,82.2,125.7,82.2   M126.9,77.2c-0.3,0-0.6,0.1-0.8,0.3c-0.3,0.2-0.5,0.5-0.8,0.8c-0.2,0.3-0.4,0.7-0.5,1.1c-0.1,0.4-0.2,0.7-0.2,1  c0,0.4,0.1,0.7,0.3,1c0.2,0.2,0.5,0.4,0.8,0.4c0.4,0,0.8-0.1,1.1-0.4c0.3-0.3,0.6-0.7,0.8-1.2c0.2-0.5,0.3-1,0.3-1.6  C127.9,77.7,127.6,77.2,126.9,77.2"></path>	<path style="clip-path:url(#SVGID_00000150087801258828664000000014301556638888930462_);fill:#585856;" d="M133.1,76.8  c0.7,0,1.2,0.3,1.3,1h0l0.3-1h0.4l-1.1,5.2h-0.4l0.2-1.3h0c-0.3,0.5-0.6,0.8-0.9,1c-0.3,0.2-0.7,0.4-1.1,0.4  c-0.9,0-1.3-0.6-1.3-1.8c0-0.6,0.1-1.2,0.4-1.8c0.2-0.6,0.6-1,1-1.3C132.2,77,132.6,76.8,133.1,76.8 M131.9,81.8  c0.3,0,0.6-0.1,0.8-0.3c0.3-0.2,0.5-0.5,0.8-0.8c0.2-0.3,0.4-0.7,0.5-1.1c0.1-0.4,0.2-0.7,0.2-1c0-0.3,0-0.5-0.1-0.7  c-0.1-0.2-0.2-0.4-0.4-0.5c-0.2-0.1-0.4-0.2-0.6-0.2c-0.4,0-0.8,0.1-1.1,0.4c-0.3,0.3-0.6,0.7-0.8,1.2c-0.2,0.5-0.3,1-0.3,1.6  c0,0.5,0.1,0.8,0.2,1.1C131.4,81.7,131.6,81.8,131.9,81.8"></path>	<path style="clip-path:url(#SVGID_00000150087801258828664000000014301556638888930462_);fill:#585856;" d="M138.8,82.2  c-0.6,0-1-0.2-1.3-0.5c-0.3-0.4-0.5-0.8-0.5-1.5c0-0.6,0.1-1.2,0.4-1.7c0.2-0.5,0.6-0.9,0.9-1.2c0.4-0.3,0.9-0.4,1.4-0.4  c0.4,0,0.8,0.1,1.2,0.2l-0.1,0.4c-0.3-0.2-0.7-0.2-1-0.2c-0.4,0-0.8,0.1-1.1,0.4c-0.3,0.2-0.6,0.6-0.8,1.1c-0.2,0.5-0.3,1-0.3,1.5  c0,0.5,0.1,0.9,0.4,1.2c0.2,0.3,0.6,0.4,1,0.4c0.2,0,0.4,0,0.6-0.1c0.2,0,0.4-0.1,0.6-0.2v0.4C139.7,82.1,139.3,82.2,138.8,82.2"></path>	<path style="clip-path:url(#SVGID_00000150087801258828664000000014301556638888930462_);fill:#585856;" d="M144.1,82.2  c-0.6,0-1-0.2-1.3-0.5c-0.3-0.3-0.5-0.8-0.5-1.5c0-0.6,0.1-1.1,0.3-1.7c0.2-0.5,0.5-1,0.9-1.3c0.4-0.3,0.8-0.5,1.3-0.5  c0.4,0,0.7,0.1,0.9,0.3c0.2,0.2,0.3,0.5,0.3,0.8c0,0.6-0.3,1-0.8,1.3c-0.5,0.3-1.3,0.5-2.3,0.5h-0.2c0,0.1,0,0.3,0,0.5  c0,0.5,0.1,0.9,0.4,1.2c0.2,0.3,0.6,0.4,1,0.4c0.4,0,0.9-0.1,1.3-0.3v0.5C145.1,82.1,144.6,82.2,144.1,82.2 M144.9,77.2  c-0.4,0-0.8,0.2-1.2,0.6c-0.4,0.4-0.6,0.9-0.8,1.5h0.2c1.6,0,2.5-0.4,2.5-1.3c0-0.2-0.1-0.4-0.2-0.5  C145.3,77.3,145.1,77.2,144.9,77.2"></path>	<path style="clip-path:url(#SVGID_00000150087801258828664000000014301556638888930462_);fill:#585856;" d="M150.8,80.7  c0,0.5-0.2,0.8-0.5,1.1c-0.3,0.3-0.8,0.4-1.3,0.4c-0.6,0-1-0.1-1.5-0.4v-0.5c0.2,0.1,0.5,0.3,0.7,0.3c0.3,0.1,0.5,0.1,0.7,0.1  c0.4,0,0.8-0.1,1-0.3c0.2-0.2,0.3-0.4,0.3-0.8c0-0.1,0-0.3-0.1-0.4c-0.1-0.1-0.1-0.2-0.2-0.3c-0.1-0.1-0.3-0.2-0.6-0.4  c-0.5-0.3-0.8-0.5-1-0.7c-0.2-0.2-0.2-0.5-0.2-0.8c0-0.4,0.2-0.7,0.5-1c0.3-0.3,0.7-0.4,1.2-0.4c0.2,0,0.5,0,0.8,0.1  c0.3,0.1,0.5,0.1,0.7,0.2l-0.2,0.4c-0.4-0.2-0.9-0.3-1.3-0.3c-0.4,0-0.7,0.1-0.9,0.3c-0.2,0.2-0.3,0.4-0.3,0.7c0,0.2,0,0.3,0.1,0.4  c0.1,0.1,0.2,0.2,0.3,0.3c0.1,0.1,0.3,0.2,0.6,0.4c0.4,0.2,0.6,0.4,0.8,0.5c0.2,0.1,0.3,0.3,0.3,0.4  C150.8,80.3,150.8,80.5,150.8,80.7"></path>	<path style="clip-path:url(#SVGID_00000150087801258828664000000014301556638888930462_);fill:#585856;" d="M158.4,82.2  c-0.6,0-1-0.2-1.3-0.5c-0.3-0.3-0.5-0.8-0.5-1.5c0-0.6,0.1-1.1,0.3-1.7c0.2-0.5,0.5-1,0.9-1.3c0.4-0.3,0.8-0.5,1.3-0.5  c0.4,0,0.7,0.1,0.9,0.3c0.2,0.2,0.3,0.5,0.3,0.8c0,0.6-0.3,1-0.8,1.3c-0.5,0.3-1.3,0.5-2.3,0.5h-0.2c0,0.1,0,0.3,0,0.5  c0,0.5,0.1,0.9,0.4,1.2c0.2,0.3,0.6,0.4,1,0.4c0.4,0,0.9-0.1,1.3-0.3v0.5C159.4,82.1,158.9,82.2,158.4,82.2 M159.2,77.2  c-0.4,0-0.8,0.2-1.2,0.6c-0.4,0.4-0.6,0.9-0.8,1.5h0.2c1.6,0,2.5-0.4,2.5-1.3c0-0.2-0.1-0.4-0.2-0.5  C159.6,77.3,159.4,77.2,159.2,77.2"></path>	<path style="clip-path:url(#SVGID_00000150087801258828664000000014301556638888930462_);fill:#585856;" d="M165,76.9l-0.1,0.4  h-1.4l-0.6,3c-0.1,0.3-0.1,0.6-0.1,0.8c0,0.4,0.2,0.7,0.6,0.7c0.2,0,0.5,0,0.7-0.1v0.4c-0.3,0.1-0.6,0.1-0.8,0.1  c-0.3,0-0.6-0.1-0.7-0.3c-0.2-0.2-0.3-0.4-0.3-0.8c0-0.2,0-0.6,0.1-1l0.6-2.9h-0.9l0.1-0.3l0.9-0.1l0.5-1.2h0.3l-0.3,1.2H165z"></path>	<path style="clip-path:url(#SVGID_00000150087801258828664000000014301556638888930462_);fill:#585856;" d="M172.6,76.8  c0.7,0,1.2,0.3,1.3,1h0c0-0.2,0.3-1.3,0.7-3.2h0.5l-1.6,7.4h-0.4l0.2-1.3h0c-0.6,0.9-1.2,1.4-2,1.4c-0.9,0-1.3-0.6-1.3-1.8  c0-0.6,0.1-1.2,0.3-1.8c0.2-0.6,0.5-1,0.9-1.3C171.6,77,172.1,76.8,172.6,76.8 M171.4,81.8c0.3,0,0.6-0.1,0.9-0.3  c0.3-0.2,0.5-0.5,0.8-0.8c0.2-0.3,0.4-0.7,0.5-1.1c0.1-0.4,0.2-0.7,0.2-1c0-0.4-0.1-0.7-0.3-1c-0.2-0.2-0.5-0.4-0.8-0.4  c-0.4,0-0.8,0.1-1.1,0.4s-0.6,0.7-0.8,1.2c-0.2,0.5-0.3,1-0.3,1.6C170.4,81.3,170.8,81.8,171.4,81.8"></path>	<path style="clip-path:url(#SVGID_00000150087801258828664000000014301556638888930462_);fill:#585856;" d="M178.2,82.2  c-0.6,0-1-0.2-1.3-0.5c-0.3-0.3-0.5-0.8-0.5-1.5c0-0.6,0.1-1.1,0.3-1.7c0.2-0.5,0.5-1,0.9-1.3c0.4-0.3,0.8-0.5,1.3-0.5  c0.4,0,0.7,0.1,0.9,0.3c0.2,0.2,0.3,0.5,0.3,0.8c0,0.6-0.3,1-0.8,1.3c-0.5,0.3-1.3,0.5-2.3,0.5H177c0,0.1,0,0.3,0,0.5  c0,0.5,0.1,0.9,0.4,1.2c0.2,0.3,0.6,0.4,1,0.4c0.4,0,0.9-0.1,1.3-0.3v0.5C179.2,82.1,178.7,82.2,178.2,82.2 M179,77.2  c-0.4,0-0.8,0.2-1.2,0.6c-0.4,0.4-0.6,0.9-0.8,1.5h0.2c1.6,0,2.5-0.4,2.5-1.3c0-0.2-0.1-0.4-0.2-0.5  C179.4,77.3,179.2,77.2,179,77.2"></path>	<path style="clip-path:url(#SVGID_00000150087801258828664000000014301556638888930462_);fill:#585856;" d="M187.5,82.2  c-0.6,0-1-0.2-1.3-0.5c-0.3-0.4-0.5-0.8-0.5-1.5c0-0.6,0.1-1.2,0.4-1.7c0.2-0.5,0.6-0.9,0.9-1.2c0.4-0.3,0.9-0.4,1.4-0.4  c0.4,0,0.8,0.1,1.2,0.2l-0.1,0.4c-0.3-0.2-0.7-0.2-1-0.2c-0.4,0-0.8,0.1-1.1,0.4c-0.3,0.2-0.6,0.6-0.8,1.1c-0.2,0.5-0.3,1-0.3,1.5  c0,0.5,0.1,0.9,0.4,1.2c0.2,0.3,0.6,0.4,1,0.4c0.2,0,0.4,0,0.6-0.1c0.2,0,0.4-0.1,0.6-0.2v0.4C188.4,82.1,188,82.2,187.5,82.2"></path>	<path style="clip-path:url(#SVGID_00000150087801258828664000000014301556638888930462_);fill:#585856;" d="M193.7,76.8  c0.6,0,1,0.2,1.3,0.5c0.3,0.3,0.5,0.8,0.5,1.4c0,0.6-0.1,1.2-0.3,1.8c-0.2,0.5-0.5,1-0.9,1.3c-0.4,0.3-0.9,0.4-1.4,0.4  c-0.6,0-1-0.2-1.3-0.5c-0.3-0.3-0.5-0.8-0.5-1.5c0-0.6,0.1-1.2,0.3-1.7c0.2-0.5,0.5-0.9,0.9-1.2C192.7,77,193.2,76.8,193.7,76.8   M193.6,77.2c-0.4,0-0.8,0.1-1.1,0.4c-0.3,0.2-0.6,0.6-0.8,1.1c-0.2,0.5-0.3,1-0.3,1.5c0,1.1,0.5,1.6,1.4,1.6  c0.4,0,0.8-0.1,1.1-0.4c0.3-0.2,0.6-0.6,0.8-1.1c0.2-0.5,0.3-1,0.3-1.6c0-0.5-0.1-0.9-0.4-1.1C194.4,77.4,194.1,77.2,193.6,77.2"></path>	<path style="clip-path:url(#SVGID_00000150087801258828664000000014301556638888930462_);fill:#585856;" d="M200.7,82.1l0.7-3.3  c0.1-0.3,0.1-0.5,0.1-0.7c0-0.3-0.1-0.5-0.2-0.6c-0.1-0.1-0.4-0.2-0.6-0.2c-0.4,0-0.7,0.1-1,0.3c-0.3,0.2-0.6,0.5-0.8,0.9  c-0.2,0.4-0.4,0.8-0.5,1.4l-0.5,2.3h-0.5l1.1-5.2h0.4l-0.2,1.1h0c0.5-0.8,1.2-1.1,2-1.1c0.4,0,0.7,0.1,0.9,0.3  c0.2,0.2,0.3,0.5,0.3,0.9c0,0.2,0,0.5-0.1,0.9l-0.7,3.2H200.7z"></path>	<path style="clip-path:url(#SVGID_00000150087801258828664000000014301556638888930462_);fill:#585856;" d="M207,76.9l-0.1,0.4  h-1.4l-0.6,3c-0.1,0.3-0.1,0.6-0.1,0.8c0,0.4,0.2,0.7,0.6,0.7c0.2,0,0.5,0,0.7-0.1v0.4c-0.3,0.1-0.6,0.1-0.8,0.1  c-0.3,0-0.6-0.1-0.7-0.3c-0.2-0.2-0.3-0.4-0.3-0.8c0-0.2,0-0.6,0.1-1l0.6-2.9h-0.9l0.1-0.3l0.9-0.1l0.5-1.2h0.3l-0.3,1.2H207z"></path>	<path style="clip-path:url(#SVGID_00000150087801258828664000000014301556638888930462_);fill:#585856;" d="M211.1,76.8  c0.2,0,0.4,0,0.6,0.1l-0.1,0.4c-0.2,0-0.3-0.1-0.5-0.1c-0.3,0-0.6,0.1-0.9,0.3c-0.3,0.2-0.5,0.5-0.7,0.9c-0.2,0.4-0.4,0.8-0.5,1.3  l-0.5,2.3h-0.5l1.1-5.2h0.4l-0.1,1h0c0.2-0.3,0.4-0.5,0.6-0.6c0.2-0.1,0.3-0.2,0.5-0.3C210.7,76.9,210.9,76.8,211.1,76.8"></path>	<path style="clip-path:url(#SVGID_00000150087801258828664000000014301556638888930462_);fill:#585856;" d="M215.6,76.8  c0.7,0,1.2,0.3,1.3,1h0l0.3-1h0.4l-1.1,5.2h-0.4l0.2-1.3h0c-0.3,0.5-0.6,0.8-0.9,1c-0.3,0.2-0.7,0.4-1.1,0.4  c-0.9,0-1.3-0.6-1.3-1.8c0-0.6,0.1-1.2,0.4-1.8c0.2-0.6,0.6-1,1-1.3C214.6,77,215.1,76.8,215.6,76.8 M214.4,81.8  c0.3,0,0.6-0.1,0.8-0.3c0.3-0.2,0.5-0.5,0.8-0.8c0.2-0.3,0.4-0.7,0.5-1.1c0.1-0.4,0.2-0.7,0.2-1c0-0.3,0-0.5-0.1-0.7  c-0.1-0.2-0.2-0.4-0.4-0.5c-0.2-0.1-0.4-0.2-0.6-0.2c-0.4,0-0.8,0.1-1.1,0.4c-0.3,0.3-0.6,0.7-0.8,1.2c-0.2,0.5-0.3,1-0.3,1.6  c0,0.5,0.1,0.8,0.2,1.1C213.8,81.7,214.1,81.8,214.4,81.8"></path>	<path style="clip-path:url(#SVGID_00000150087801258828664000000014301556638888930462_);fill:#585856;" d="M222.4,80.7  c0,0.5-0.2,0.8-0.5,1.1c-0.3,0.3-0.8,0.4-1.3,0.4c-0.6,0-1-0.1-1.5-0.4v-0.5c0.2,0.1,0.5,0.3,0.7,0.3c0.3,0.1,0.5,0.1,0.7,0.1  c0.4,0,0.8-0.1,1-0.3c0.2-0.2,0.3-0.4,0.3-0.8c0-0.1,0-0.3-0.1-0.4c0-0.1-0.1-0.2-0.2-0.3c-0.1-0.1-0.3-0.2-0.6-0.4  c-0.5-0.3-0.8-0.5-1-0.7c-0.2-0.2-0.2-0.5-0.2-0.8c0-0.4,0.2-0.7,0.5-1c0.3-0.3,0.7-0.4,1.2-0.4c0.2,0,0.5,0,0.8,0.1  c0.3,0.1,0.5,0.1,0.7,0.2l-0.2,0.4c-0.4-0.2-0.9-0.3-1.3-0.3c-0.4,0-0.7,0.1-0.9,0.3c-0.2,0.2-0.3,0.4-0.3,0.7c0,0.2,0,0.3,0.1,0.4  c0.1,0.1,0.2,0.2,0.3,0.3c0.1,0.1,0.3,0.2,0.6,0.4c0.4,0.2,0.6,0.4,0.8,0.5c0.2,0.1,0.3,0.3,0.3,0.4  C222.4,80.3,222.4,80.5,222.4,80.7"></path>	<path style="clip-path:url(#SVGID_00000150087801258828664000000014301556638888930462_);fill:#585856;" d="M227.4,76.9l-0.1,0.4  h-1.4l-0.6,3c-0.1,0.3-0.1,0.6-0.1,0.8c0,0.4,0.2,0.7,0.6,0.7c0.2,0,0.5,0,0.7-0.1v0.4c-0.3,0.1-0.6,0.1-0.8,0.1  c-0.3,0-0.6-0.1-0.7-0.3c-0.2-0.2-0.3-0.4-0.3-0.8c0-0.2,0-0.6,0.1-1l0.6-2.9h-0.9l0.1-0.3l0.9-0.1l0.5-1.2h0.3l-0.3,1.2H227.4z"></path>	<path style="clip-path:url(#SVGID_00000150087801258828664000000014301556638888930462_);fill:#585856;" d="M230.4,82.2  c-0.6,0-1-0.2-1.3-0.5c-0.3-0.3-0.5-0.8-0.5-1.5c0-0.6,0.1-1.1,0.3-1.7c0.2-0.5,0.5-1,0.9-1.3c0.4-0.3,0.8-0.5,1.3-0.5  c0.4,0,0.7,0.1,0.9,0.3c0.2,0.2,0.3,0.5,0.3,0.8c0,0.6-0.3,1-0.8,1.3c-0.5,0.3-1.3,0.5-2.3,0.5h-0.2c0,0.1,0,0.3,0,0.5  c0,0.5,0.1,0.9,0.4,1.2c0.2,0.3,0.6,0.4,1,0.4c0.4,0,0.9-0.1,1.3-0.3v0.5C231.3,82.1,230.9,82.2,230.4,82.2 M231.1,77.2  c-0.4,0-0.8,0.2-1.2,0.6c-0.4,0.4-0.6,0.9-0.8,1.5h0.2c1.6,0,2.5-0.4,2.5-1.3c0-0.2-0.1-0.4-0.2-0.5  C231.6,77.3,231.4,77.2,231.1,77.2"></path>	<path style="clip-path:url(#SVGID_00000150087801258828664000000014301556638888930462_);fill:#585856;" d="M237.1,80.7  c0,0.5-0.2,0.8-0.5,1.1c-0.3,0.3-0.8,0.4-1.3,0.4c-0.6,0-1-0.1-1.5-0.4v-0.5c0.2,0.1,0.5,0.3,0.7,0.3c0.3,0.1,0.5,0.1,0.7,0.1  c0.4,0,0.8-0.1,1-0.3c0.2-0.2,0.3-0.4,0.3-0.8c0-0.1,0-0.3-0.1-0.4c0-0.1-0.1-0.2-0.2-0.3c-0.1-0.1-0.3-0.2-0.6-0.4  c-0.5-0.3-0.8-0.5-1-0.7c-0.2-0.2-0.2-0.5-0.2-0.8c0-0.4,0.2-0.7,0.5-1c0.3-0.3,0.7-0.4,1.2-0.4c0.2,0,0.5,0,0.8,0.1  c0.3,0.1,0.5,0.1,0.7,0.2l-0.2,0.4c-0.4-0.2-0.9-0.3-1.3-0.3c-0.4,0-0.7,0.1-0.9,0.3c-0.2,0.2-0.3,0.4-0.3,0.7c0,0.2,0,0.3,0.1,0.4  c0.1,0.1,0.2,0.2,0.3,0.3c0.1,0.1,0.3,0.2,0.6,0.4c0.4,0.2,0.6,0.4,0.8,0.5c0.2,0.1,0.3,0.3,0.3,0.4  C237.1,80.3,237.1,80.5,237.1,80.7"></path>	<path style="clip-path:url(#SVGID_00000150087801258828664000000014301556638888930462_);fill:#585856;" d="M86.7,41.2l8.9,2.5  c2.8,0.8,4.9,2.4,6.3,4.9c0.8,1.4,1.3,3,1.3,4.6c0,1.7-0.4,3.2-1.3,4.6c-0.8,1.5-1.9,2.8-3.4,3.7c-1.4,0.9-3,1.5-4.7,1.6  c-0.9,0.2-1.8,0.3-2.7,0.3c-5,0-9.2-1.8-12.6-5.5l4.5-4.1c2.2,2.4,4.9,3.6,8.1,3.6c0.7,0,1.4-0.1,2-0.3c1.6,0,2.8-0.8,3.4-2.2  c0.3-0.5,0.5-1,0.5-1.6c0-0.6-0.1-1.1-0.4-1.5c-0.6-1.1-1.5-1.8-2.7-2.2l0,0l-8.8-2.6c-1.8-0.5-3.3-1.5-4.4-3  c-1.1-1.5-1.7-3.2-1.7-5c0-1.9,0.6-3.6,1.8-5.1c1.8-2.3,4.2-3.7,7.1-4.2c1-0.2,2-0.3,3.1-0.3c4.3,0,8.1,1.4,11.4,4.3l-4,4.6  c-2.1-1.8-4.6-2.8-7.4-2.8c-0.7,0-1.4,0.1-2,0.2c-1.4,0.2-2.5,0.9-3.3,2c-0.3,0.4-0.5,0.9-0.5,1.4C85.1,40.2,85.6,40.9,86.7,41.2"></path>	<path style="clip-path:url(#SVGID_00000150087801258828664000000014301556638888930462_);fill:#585856;" d="M131,50.6  c0,1.6-0.2,3.1-0.6,4.4c-0.9,3.1-2.7,5.4-5.5,7.1c-1.8,1-3.6,1.5-5.7,1.5h-0.5c-2.6,0-4.9-0.8-6.9-2.4c-2.1-1.6-3.5-3.7-4.2-6.2  c-0.4-1.3-0.6-2.8-0.6-4.4c0-1.2,0.1-2.4,0.4-3.6c1-3.1,2.9-5.4,5.7-7c1.8-1.1,3.7-1.6,5.6-1.6h0.5c2,0,3.9,0.5,5.7,1.6  c2.8,1.6,4.7,4,5.7,7C130.8,48.2,131,49.4,131,50.6 M124.9,51c0-0.9-0.1-1.7-0.4-2.5c-0.5-1.4-1.4-2.5-2.8-3.3  c-0.8-0.5-1.7-0.8-2.6-0.8H119h-0.1c-0.9,0-1.8,0.3-2.6,0.8c-1.3,0.8-2.3,1.9-2.8,3.3c-0.2,0.7-0.4,1.5-0.4,2.5  c0,0.9,0.1,1.7,0.4,2.5c0.5,1.4,1.4,2.5,2.8,3.3c0.8,0.5,1.7,0.8,2.6,0.8h0.3c0.9,0,1.8-0.3,2.6-0.8c1.4-0.9,2.3-2,2.8-3.3  C124.8,52.7,124.9,51.9,124.9,51"></path></g><polygon class="st1" points="145.4,72.2 138.9,72.2 142.2,63.2 133.3,38.9 139.8,38.9 145.5,54.4 151.2,38.9 157.7,38.9 "></polygon><g>	<defs>		<rect id="SVGID_00000098207112774014316090000015571675270947295657_" x="10.1" y="3.3" width="280.4" height="93.2"></rect>	</defs>	<clipPath id="SVGID_00000080907038175334559100000012274427267269776806_">		<use xlink:href="#SVGID_00000098207112774014316090000015571675270947295657_" style="overflow:visible;"></use>	</clipPath>	<path style="clip-path:url(#SVGID_00000080907038175334559100000012274427267269776806_);fill:#585856;" d="M183.3,63.2h-6.1v-1.6  c-1.2,0.9-2.5,1.5-3.9,1.8c-0.8,0.2-1.6,0.3-2.4,0.3c-0.8,0-1.6-0.1-2.3-0.3c-3.2-1-5.5-3-6.8-6c-0.7-2-1.1-4-1.1-6.1  c0-2.1,0.4-4.2,1.1-6.2c1.3-2.6,3.2-4.5,5.9-5.7c1.1-0.4,2.3-0.6,3.5-0.6c0.7,0,1.4,0.1,2.2,0.2c1.4,0.2,2.7,0.8,3.9,1.8V39h6.1  V63.2z M177.2,48.3c-0.6-2.1-1.9-3.4-4.1-3.9c-0.3-0.1-0.6-0.1-0.9-0.1c-1,0-1.8,0.3-2.6,0.9c-1.4,1.2-2.3,2.7-2.5,4.5  c-0.1,0.4-0.1,0.9-0.1,1.4c0,0.5,0,0.9,0.1,1.4c0.3,1.8,1.1,3.3,2.5,4.5c0.8,0.6,1.6,0.9,2.6,0.9h0.9c2.1-0.5,3.5-1.8,4.1-4V48.3z"></path>	<path style="clip-path:url(#SVGID_00000080907038175334559100000012274427267269776806_);fill:#585856;" d="M195,53.7  c0,1.1,0.4,2,1.1,2.7c0.8,0.7,1.7,1.1,2.7,1.1c1.1,0,2-0.4,2.7-1.1c0.8-0.7,1.1-1.6,1.1-2.7V39h6.1v24.3h-6.1v-1.2  c-1.5,1-3.1,1.5-4.9,1.5c-2.4,0-4.5-0.8-6.2-2.5c-1.7-1.7-2.6-3.7-2.6-6.1V39h6.1V53.7z"></path></g><polygon class="st1" points="237.5,63.2 230.1,63.2 225.3,56.4 220.6,63.2 213.1,63.2 221.6,51 213.1,38.9 220.6,38.9 225.3,45.7  230.1,38.9 237.5,38.9 229,51 "></polygon><polygon class="st1" points="68.5,82.1 67.7,82.1 67.7,45.9 33.1,45.9 33.1,45.1 67.7,45.1 67.7,27.9 68.5,27.9 68.5,68.1  135.4,68.1 135.4,68.9 68.5,68.9 "></polygon><rect x="21.7" y="3.3" class="st5" width="43.3" height="39.2"></rect><rect x="49.9" y="48.7" class="st6" width="15.1" height="47.8"></rect><rect x="10.1" y="48.7" class="st7" width="37.1" height="10.5"></rect><rect x="39.1" y="61.9" class="st8" width="8" height="8"></rect><g>	<defs>		<rect id="SVGID_00000022518806167455247550000011700886404848492962_" x="10.1" y="3.3" width="280.4" height="93.2"></rect>	</defs>	<clipPath id="SVGID_00000058565468020387643050000008108000731710236588_">		<use xlink:href="#SVGID_00000022518806167455247550000011700886404848492962_" style="overflow:visible;"></use>	</clipPath>	<path style="clip-path:url(#SVGID_00000058565468020387643050000008108000731710236588_);fill:#D60B52;" d="M266.9,34.6  c0.4-2.2,0.9-3.1,1.6-3.6c0.7-0.6,1.7-0.9,2.8-0.9c1.1,0,2.1,0.2,3.1,0.6l0.7-3.9c-1.2-0.4-2.4-0.6-3.7-0.6c-2.2,0-4.2,0.5-5.8,1.8  c-1.3,1.1-2.4,3-3,6l-1,5.8h-3.7l-0.7,3.9h3.7l-6.8,38.7h4.3l6.8-38.7h5.9l0.7-3.9H266L266.9,34.6z"></path>	<path style="clip-path:url(#SVGID_00000058565468020387643050000008108000731710236588_);fill:#D60B52;" d="M246.6,57.4  c-1.8,0-3.4,1.5-3.4,3.3c0,1.6,1.2,3,3,3c1.8,0,3.4-1.5,3.4-3.3C249.6,58.8,248.4,57.4,246.6,57.4"></path>	<path style="clip-path:url(#SVGID_00000058565468020387643050000008108000731710236588_);fill:#D60B52;" d="M289,39.4  c-3,0-6.7,1.7-8.7,4.3l-0.1,0l0.7-4h-4.3l-4.2,23.6h4.3l2.6-14.7c2.4-3,5.6-4.9,9-4.9c0.5,0,1.1,0,1.4,0.1l0.7-4.2  C290,39.5,289.5,39.4,289,39.4"></path></g></svg>