<svg xmlns="http://www.w3.org/2000/svg" x="0px" y="0px" width="268.74px" height="99.076px" viewBox="0 0 268.74 99.076">
<desc>Ajuntament de Salou</desc>
<path fill="#4C9FD7" d="M75.68 93.428l-5.1 5.11c-1.966.367-3.797.538-5.612.538h-.017c-2.917 0-5.775-.418-8.978-1.33-3.312-.94-4.36-1.875-7.895-2.487-2.72-.47-6.485.018-10.45 1.75l-2.757-2.747c1.538-.78 2.347-1.063 3.667-1.526 2.916-1.025 6.026-1.387 7.61-1.35 3.36.078 6.036 1.136 7.39 1.574 1.308.445 7.855 3.4 15.455 2.11 3.13-.53 4.193-.852 6.69-1.642"/><path fill="#FDBC11" d="M73.58 24.96L68.695 35.5c-2.823-1.51-8.91-5.235-12.996-5.235-5.766 0-8.936 3.397-9.106 7.818L38.04 26.25c3.925-4.483 9.545-6.743 14.793-7.147 7.752-.6 15.284 2.373 20.748 5.858"/><path fill="#EC1C24" d="M38.04 26.25l8.552 11.833c-.006.05-.006.09-.006.14 0 2.07.752 3.69 2.254 4.846.97.75 2.096 1.428 3.38 2.045l-1.37.892-17.294-4.147c-.21-2.09-1.453-8.77 4.484-15.61"/><path fill="#F6921E" d="M50.85 46.007l-10 6.518c-2.096-1.307-3.854-3.005-5.27-5.082-1.022-1.485-1.694-3.348-2.023-5.584l17.293 4.147z"/><path fill="#009345" d="M68.376 51.297l-5.822 11.59c-.67-.875-1.587-1.753-3.078-2.695l-5.247-14.21c5.745 2.086 11.04 3.257 14.146 5.315"/><path fill="#29B473" d="M77.118 68.084l-14.015-4.252c-.158-.336-.342-.647-.55-.947l5.822-11.588c3.332 1.99 5.02 3.78 6.523 6.072 1.505 2.29 2.435 5.386 2.22 10.714"/><path fill="#0062A2" d="M68.21 83.882c-1.306.843-2.728 1.546-4.263 2.1l-13.525-10.2c1.01.3 2.152.45 3.1.45 1.882 0 7.73-.36 9.81-5.455 0-.006.005-.018.005-.023l4.874 13.128z"/><path fill="#224099" d="M63.947 85.983c-.11.05-.226.092-.336.128-2.693.94-9.88 2.933-19.236-.567-3.484-1.304-7.135-3.195-10.96-5.644l4.705-11.102c2.344 1.592 5.872 3.936 7.16 4.656 1.283.72 3.43 1.786 5.142 2.326l13.525 10.203z"/><path fill="#8BC53F" d="M59.476 60.19c-1.04-.677-2.2-1.27-3.482-1.783-2.26-.91-4.717-1.76-7.386-2.498-2.755-.762-5.716-2.08-7.758-3.386l11.37-7.41c.628.306 1.3.593 2.008.868l5.248 14.21z"/><path fill="#26A9E0" d="M77.118 68.084c-.522 8.443-4.8 13.024-8.907 15.798l-4.873-13.128c.57-1.507 1.028-3.913-.233-6.922l14.014 4.252z"/><path fill="#FFCE01" d="M107.267 56.794l2.55 2.554-30.037 30.04-6.868 1.797"/><path fill="#EC1C24" d="M98.273 63.113l1.06-1.075 3.917 3.866-1.062 1.075zM93.02 68.438l1.06-1.076 3.915 3.866-1.06 1.075zM95.646 65.776l1.06-1.076 3.917 3.866-1.062 1.075zM100.89 60.45l1.062-1.074 3.917 3.864-1.062 1.075z"/><g><path fill="#EC1C24" d="M35.874 90.08c-2.13.78-3.155 1.274-3.587 1.51L.063 59.364l2.545-2.553L35.874 90.08z"/></g><path fill="#224099" d="M50.143 0l2.526 2.526L2.526 52.668 0 50.14z"/><path fill="#00A69C" d="M59.492 0l50.142 50.14-2.526 2.526-50.14-50.14z"/><g fill="#224099"><path d="M231.457 75.21c-.193 0-.386-.027-.58-.08s-.358-.145-.5-.276c-.14-.13-.253-.314-.34-.552s-.132-.548-.132-.935V63.24h-2.368v10.285c-.526.49-1.122.88-1.788 1.17-.668.29-1.37.435-2.105.435-.895 0-1.565-.284-2.013-.855-.447-.568-.67-1.39-.67-2.46V63.24h-2.368v8.892c0 .93.127 1.72.382 2.367.254.647.596 1.174 1.025 1.576.43.404.922.697 1.474.883.553.183 1.127.274 1.724.274.947 0 1.818-.197 2.617-.592.798-.395 1.504-.908 2.117-1.54.193.632.535 1.115 1.026 1.448.49.333 1.157.5 2 .5l.5-1.84zm-29-2.237c.34.878.814 1.63 1.42 2.263.604.63 1.323 1.122 2.156 1.474.833.35 1.74.525 2.723.525.964 0 1.863-.17 2.696-.513s1.556-.83 2.17-1.46 1.092-1.39 1.434-2.275c.343-.886.514-1.872.514-2.96 0-1.087-.176-2.068-.526-2.945s-.833-1.622-1.447-2.236c-.613-.613-1.337-1.087-2.17-1.42s-1.723-.5-2.67-.5c-.965 0-1.864.167-2.696.5s-1.55.807-2.155 1.42c-.605.614-1.083 1.364-1.435 2.25-.35.885-.525 1.88-.525 2.985-.002 1.052.17 2.017.51 2.893m10.39-.84c-.2.613-.49 1.143-.866 1.59-.38.447-.84.794-1.383 1.04-.543.245-1.156.367-1.84.367-.632 0-1.216-.135-1.75-.407-.535-.272-1-.64-1.394-1.105-.396-.465-.702-1.008-.92-1.63-.222-.623-.33-1.276-.33-1.96 0-1.51.386-2.72 1.157-3.63.77-.912 1.85-1.37 3.235-1.37.63 0 1.214.138 1.75.41.534.27 1 .635 1.394 1.09s.7.992.92 1.605c.22.614.33 1.263.33 1.947 0 .754-.102 1.438-.304 2.052m-16.322-14.678h-2.367V72.63c0 .826.108 1.526.33 2.105.218.58.52 1.053.906 1.42.386.37.838.642 1.354.816s1.083.264 1.697.264c.56 0 1.074-.053 1.54-.158.463-.104.853-.228 1.17-.367l-.58-1.922c-.245.105-.526.197-.84.276-.317.08-.643.118-.976.118-.7 0-1.25-.228-1.644-.684s-.592-1.157-.592-2.104v-14.94zm-14.4 17.308c-.52-.245-.97-.592-1.355-1.04-.388-.446-.686-.98-.896-1.603-.21-.623-.316-1.304-.316-2.04 0-.754.105-1.446.316-2.077.21-.63.504-1.17.88-1.618s.83-.793 1.356-1.04c.525-.244 1.104-.367 1.735-.367.632 0 1.232.1 1.803.302.568.202 1.09.47 1.564.804v7.34c-.403.507-.903.92-1.5 1.234-.596.316-1.227.474-1.893.474-.614-.002-1.18-.124-1.697-.37m-4.498-1.67c.324.868.763 1.608 1.315 2.223.552.614 1.2 1.087 1.946 1.42.745.333 1.548.5 2.406.5.527 0 1.01-.062 1.447-.184.437-.122.832-.29 1.183-.5.352-.21.662-.45.935-.724.27-.27.513-.547.723-.827.352 1.366 1.37 2.05 3.053 2.05l.5-1.84c-.387 0-.742-.102-1.065-.304-.325-.2-.487-.636-.487-1.302V63.24h-2.156v1.104c-.473-.403-1.03-.74-1.67-1.012-.64-.272-1.354-.408-2.144-.408-.947 0-1.82.184-2.617.552-.798.37-1.482.878-2.052 1.526-.57.648-1.013 1.416-1.327 2.302-.316.885-.475 1.837-.475 2.854 0 1.088.162 2.066.487 2.934m-15.822 2.274c.72.563 1.604 1.014 2.657 1.355 1.052.343 2.218.514 3.498.514.964 0 1.86-.12 2.683-.354.825-.237 1.53-.588 2.12-1.054.586-.464 1.046-1.03 1.38-1.695.333-.665.5-1.43.5-2.288 0-.63-.093-1.21-.276-1.736-.185-.525-.486-1.017-.907-1.473s-.983-.885-1.684-1.29c-.7-.402-1.562-.797-2.578-1.183-.86-.315-1.547-.604-2.065-.868-.517-.264-.92-.52-1.21-.776-.29-.254-.48-.517-.578-.79-.097-.27-.145-.58-.145-.932 0-.737.333-1.33 1-1.776.666-.447 1.578-.67 2.734-.67.878 0 1.716.118 2.514.353.798.238 1.495.532 2.092.884l.92-2.132c-.84-.402-1.692-.715-2.55-.934-.86-.22-1.834-.33-2.92-.33-1 0-1.892.124-2.67.37-.78.245-1.44.583-1.975 1.012-.534.43-.937.935-1.21 1.514-.27.578-.407 1.19-.407 1.84 0 .668.09 1.26.264 1.776.176.518.465.99.87 1.42.4.43.932.825 1.59 1.185s1.46.723 2.407 1.09c.877.335 1.59.647 2.144.936.552.29.982.58 1.29.868.305.29.512.593.617.908.104.315.158.657.158 1.026 0 .894-.37 1.604-1.105 2.13-.737.526-1.736.79-3 .79-1.05 0-1.972-.167-2.76-.5s-1.5-.763-2.132-1.29l-1.263 2.104zm-12.915-9.31c.666.72 1 1.744 1 3.077h-7.497c.142-1.368.54-2.402 1.197-3.104.658-.702 1.504-1.053 2.54-1.053 1.173 0 2.094.36 2.76 1.078m3.105 4.998c.052-.58.08-1.174.08-1.79 0-.858-.124-1.673-.37-2.445-.245-.77-.614-1.446-1.104-2.024-.49-.58-1.104-1.035-1.842-1.368-.735-.333-1.596-.5-2.578-.5-.93 0-1.77.18-2.524.54s-1.403.858-1.946 1.5c-.544.64-.965 1.396-1.263 2.273s-.447 1.823-.447 2.84c0 1.14.15 2.153.447 3.038.298.887.723 1.632 1.275 2.236.553.605 1.224 1.07 2.013 1.395.79.322 1.675.485 2.656.485.98 0 1.866-.088 2.656-.263.79-.175 1.5-.412 2.13-.71l-.552-2.026c-.58.264-1.184.48-1.814.645-.632.168-1.343.25-2.132.25-1.21 0-2.183-.358-2.92-1.077-.735-.72-1.183-1.72-1.34-3h9.574zm-22.898 3.696c-.518-.255-.965-.606-1.342-1.054-.377-.446-.67-.978-.88-1.592-.212-.613-.317-1.29-.317-2.024 0-.72.097-1.39.29-2.013.192-.623.474-1.162.842-1.618s.81-.816 1.328-1.08c.518-.263 1.092-.394 1.724-.394.734 0 1.396.18 1.984.54.588.36 1.048.75 1.382 1.17v6.786c-.404.49-.9.89-1.487 1.197-.588.306-1.207.46-1.855.46-.597 0-1.154-.127-1.67-.38m3.747 1.813c.685-.447 1.228-.95 1.63-1.513.37 1.333 1.387 2 3.053 2l.5-1.842c-.387 0-.74-.1-1.065-.303-.325-.2-.487-.636-.487-1.302v-16.15h-2.366v7.154c-.37-.386-.883-.763-1.54-1.132-.657-.368-1.442-.552-2.353-.552-.825 0-1.604.184-2.342.552-.736.37-1.38.873-1.933 1.513-.554.64-.992 1.403-1.316 2.288-.325.887-.487 1.847-.487 2.88 0 1.09.158 2.066.475 2.935.314.87.75 1.61 1.302 2.224.552.614 1.2 1.087 1.946 1.42s1.54.5 2.38.5c1.05 0 1.918-.223 2.602-.67M261.243 34.005h-2.42v2.052h2.368v6.418c0 1.63.382 2.876 1.145 3.735.764.86 1.802 1.29 3.117 1.29.65 0 1.27-.103 1.868-.304.596-.202 1.07-.408 1.42-.618l-.657-1.894c-.35.193-.72.36-1.104.5-.388.14-.8.21-1.237.21-.3 0-.584-.048-.855-.145s-.505-.25-.696-.462c-.194-.21-.348-.49-.46-.842-.115-.35-.173-.78-.173-1.29v-6.6h3.787v-2.053h-3.788V29.69h-1.815l-.502 4.315zm-13.825-.5h-2.29v13.68h2.37v-9.05c.244-.386.52-.754.827-1.105.307-.35.64-.658 1-.92.36-.264.732-.47 1.118-.62.385-.147.78-.222 1.184-.222.84 0 1.49.293 1.946.88.456.588.684 1.382.684 2.38v8.656h2.368v-8.918c0-1.525-.382-2.753-1.145-3.682-.764-.93-1.916-1.396-3.46-1.396-1.052 0-1.96.25-2.722.75s-1.39 1.118-1.88 1.855v-2.288zm-8.59 2.814c.665.718 1 1.744 1 3.076h-7.498c.14-1.367.54-2.402 1.197-3.104.657-.7 1.503-1.053 2.538-1.053 1.175 0 2.095.36 2.762 1.08m3.104 4.997c.055-.58.08-1.175.08-1.79 0-.857-.123-1.674-.367-2.444-.246-.772-.614-1.447-1.105-2.026s-1.104-1.034-1.84-1.368c-.738-.334-1.597-.5-2.58-.5-.93 0-1.77.18-2.525.54s-1.402.858-1.945 1.498c-.544.64-.966 1.4-1.264 2.275-.298.878-.446 1.824-.446 2.84 0 1.14.148 2.153.446 3.04.298.885.725 1.63 1.276 2.234.552.605 1.223 1.07 2.012 1.396.79.324 1.675.486 2.657.486s1.867-.09 2.656-.265 1.5-.412 2.13-.71l-.552-2.025c-.58.264-1.185.478-1.815.645s-1.342.25-2.132.25c-1.21 0-2.183-.36-2.92-1.08-.736-.717-1.184-1.717-1.34-2.997h9.573zm-32.816-7.812h-2.29v13.68h2.368v-9.05c.246-.386.518-.754.815-1.105.298-.35.618-.658.96-.92.343-.264.697-.47 1.065-.62.37-.147.745-.222 1.13-.222.773 0 1.378.293 1.816.88.438.588.657 1.355.657 2.302v8.734h2.367v-8.97c.246-.387.52-.76.816-1.118.298-.36.614-.675.947-.947.333-.272.684-.488 1.052-.646.368-.158.754-.236 1.157-.236.77 0 1.377.293 1.815.88.437.588.656 1.355.656 2.302v8.734h2.368v-8.918c0-.754-.092-1.442-.277-2.065-.184-.62-.46-1.155-.828-1.603-.37-.447-.83-.793-1.382-1.04-.553-.245-1.197-.368-1.934-.368-1.104 0-2.03.28-2.775.84-.746.564-1.39 1.247-1.934 2.054-.3-.895-.79-1.6-1.474-2.118-.684-.518-1.57-.776-2.656-.776-.982 0-1.847.25-2.592.75-.746.5-1.363 1.118-1.854 1.855v-2.29zm-14.418 11.52c-.518-.245-.97-.59-1.354-1.038-.386-.448-.684-.98-.895-1.604-.21-.622-.315-1.303-.315-2.04 0-.752.105-1.445.315-2.077.21-.63.504-1.17.88-1.617.378-.45.83-.795 1.355-1.04.526-.246 1.105-.37 1.736-.37.632 0 1.232.103 1.802.305.57.2 1.093.47 1.565.802v7.34c-.403.508-.903.92-1.5 1.235-.596.315-1.227.474-1.893.474-.613 0-1.18-.125-1.696-.37m-4.498-1.67c.324.867.763 1.608 1.314 2.222.554.614 1.2 1.09 1.947 1.42.744.333 1.546.5 2.406.5.526 0 1.008-.06 1.447-.184.438-.123.832-.29 1.183-.5.352-.21.662-.45.934-.723.272-.27.514-.547.724-.828.35 1.368 1.368 2.052 3.052 2.052l.5-1.84c-.386 0-.74-.103-1.066-.304-.323-.2-.485-.636-.485-1.303V33.505h-2.157v1.104c-.474-.404-1.03-.742-1.67-1.014s-1.355-.408-2.145-.408c-.946 0-1.82.186-2.617.553-.798.37-1.482.878-2.053 1.527-.57.65-1.012 1.416-1.327 2.3-.316.887-.474 1.838-.474 2.855 0 1.09.16 2.065.486 2.933m-8.867-9.35h-2.42v2.052h2.368v6.418c0 1.63.382 2.876 1.145 3.735s1.8 1.29 3.117 1.29c.648 0 1.27-.103 1.867-.304.596-.202 1.07-.408 1.42-.618l-.657-1.894c-.35.193-.72.36-1.104.5-.387.14-.798.21-1.236.21-.298 0-.583-.048-.855-.145-.27-.098-.504-.25-.696-.462-.194-.21-.348-.49-.46-.842-.116-.35-.172-.78-.172-1.29v-6.6h3.788v-2.053h-3.788V29.69h-1.815l-.502 4.315zm-13.825-.5h-2.288v13.68h2.367v-9.05c.246-.386.522-.754.83-1.105.305-.35.64-.658.998-.92.36-.264.732-.47 1.118-.62.386-.147.78-.222 1.184-.222.842 0 1.49.293 1.947.88.456.588.685 1.382.685 2.38v8.656h2.367v-8.918c0-1.525-.38-2.753-1.144-3.682-.764-.93-1.916-1.396-3.46-1.396-1.053 0-1.96.25-2.723.75-.763.5-1.39 1.118-1.88 1.855v-2.288zm-5.408 11.97c-.192 0-.385-.028-.577-.08-.193-.053-.36-.145-.5-.276-.142-.133-.255-.316-.343-.554-.088-.236-.132-.548-.132-.934V33.505h-2.367V43.79c-.525.49-1.122.88-1.79 1.17-.664.29-1.365.435-2.103.435-.894 0-1.565-.285-2.012-.855-.448-.57-.67-1.39-.67-2.46v-8.574h-2.37v8.89c0 .93.128 1.72.383 2.37.254.647.596 1.174 1.026 1.577.43.402.92.696 1.473.88.552.185 1.126.277 1.723.277.947 0 1.82-.197 2.617-.593.798-.394 1.504-.906 2.118-1.538.19.63.534 1.112 1.025 1.445.49.334 1.157.5 2 .5l.5-1.84zm-16.824-14.758c.298-.298.447-.7.447-1.21 0-.456-.163-.847-.486-1.17-.325-.325-.715-.487-1.17-.487-.51 0-.913.15-1.21.447-.3.298-.448.7-.448 1.21 0 .456.162.846.487 1.17.323.325.714.486 1.17.486.51 0 .913-.148 1.21-.446m-2.393 17.728c0 1.86-.746 2.788-2.235 2.788-.333 0-.662-.052-.987-.157-.324-.105-.6-.228-.828-.368l-.58 1.973c.72.404 1.615.605 2.684.605.597 0 1.157-.088 1.685-.263.525-.175.98-.45 1.366-.828.386-.378.692-.854.92-1.434.23-.58.343-1.272.343-2.078V33.505h-2.368v14.94zm-11.222-17.203l3.446 8.838h-6.918l3.472-8.838zm-6.313 16.152l2.053-5.208h8.52l2.053 5.26 2.29-.92-7.103-17.756h-2.735l-7.208 17.756 2.13.868z"/></g></svg>