<svg xmlns="http://www.w3.org/2000/svg" viewBox="0 0 302.81 160.96"><defs><style>.cls-1{fill:#3db8e3;}.cls-2{fill:#00693d;}.cls-3{fill:#9cc23d;}.cls-4{fill:#1f1f1f;}</style></defs><title>11Fichier 1</title><g id="Calque_2" data-name="Calque 2"><g id="Layer_1" data-name="Layer 1"><path class="cls-1" d="M69.21,50.73A27.36,27.36,0,0,0,83.66,55l.88-6.2.15-1.09-.75,0a20.18,20.18,0,1,1,17.43-30.34l6.24-3.81a27.49,27.49,0,1,0-38.4,37.19"/><path class="cls-2" d="M138.83,82.38a45.44,45.44,0,0,0-22,5.66,34.07,34.07,0,0,0-25.7-39.43l-1,7.29a26.81,26.81,0,0,1,16.76,38.66l6.86,4.52a38.34,38.34,0,0,1,53.61,3.32l6.36-3.86a45.67,45.67,0,0,0-34.86-16.16"/><path class="cls-3" d="M102.13,100.87a26.77,26.77,0,0,1-38.67-1l-6.33,3.86A34.3,34.3,0,0,0,65,110.61a34,34,0,0,0,30.45,3.11l.25-.09a34.25,34.25,0,0,0,12.06-8c.53-.54,1-1.1,1.52-1.68l-6.16-4.07-1,1"/><path class="cls-3" d="M49.23,84.19A34.09,34.09,0,0,0,0,98.52l6.3,3.83a26.8,26.8,0,0,1,47.1-4l6.24-3.81A34.39,34.39,0,0,0,49.23,84.19"/><path class="cls-4" d="M124.09,161a24.8,24.8,0,0,1-12.7-3.47l2.46-4.92c3.47,2,6.55,3.19,10.46,3.19,4.76,0,7.61-2.3,7.61-6.16,0-2.85-1.79-4.64-5.76-5.76L122,142.67c-3.53-1-6-2.46-7.5-4.65a9.74,9.74,0,0,1-1.62-5.64c0-6.83,5.37-11.47,13.15-11.47a21.57,21.57,0,0,1,12.25,3.69l-2.91,4.53c-3.58-2.12-6-3-9.12-3-3.8,0-6.32,2.07-6.32,5.25,0,2.41,1.34,3.64,5.14,4.76l4.59,1.34c5.6,1.62,9.51,5.2,9.51,11,0,6.43-5.2,12.42-15.1,12.42"/><path class="cls-4" d="M155,161c-7.72,0-12-5.43-12-14.54,0-10.3,6.15-15.22,12.47-15.22a10.31,10.31,0,0,1,7.83,3.08l-3.08,4.08a6.93,6.93,0,0,0-4.75-2.18A4.83,4.83,0,0,0,151,139c-.84,1.74-1.17,4.36-1.17,7.89,0,3.86.61,6.32,1.9,7.72a5,5,0,0,0,3.75,1.62,8.16,8.16,0,0,0,5.71-2.8l2.9,3.75A11.8,11.8,0,0,1,155,161"/><path class="cls-4" d="M184.46,160.23V141c0-3.52-1.23-4.53-3.58-4.53-2.18,0-4.81,1.4-6.82,3.47v20.3h-6.21V126.56a29.65,29.65,0,0,0-.56-6.16l6.21-1.34a30.56,30.56,0,0,1,.56,6.66v6c0,1.79-.12,3.19-.12,3.19a12.72,12.72,0,0,1,8.68-3.69c3.35,0,5.92,1.62,6.87,3.47.73,1.39,1,2.68,1,5.53v20Z"/><path class="cls-4" d="M207.81,135.9c-3.47,0-5.37,2.74-5.37,7.33H212.9c0-4.59-2-7.33-5.09-7.33m-5.43,11.86v.44c0,3.92,1.45,8.06,7,8.06a10.43,10.43,0,0,0,7-2.8l2.41,3.75A15.3,15.3,0,0,1,208.64,161c-8,0-13-5.76-13-14.82,0-5,1.06-8.28,3.53-11.08a10.75,10.75,0,0,1,8.67-3.8,10.89,10.89,0,0,1,7.77,2.91c2.46,2.23,3.69,5.7,3.69,12.3v1.29Z"/><path class="cls-4" d="M232.62,161c-5.48,0-7.39-3.25-7.39-7.27V136.18H222.1v-4.25h3.13a56,56,0,0,1,.28-7l6.33-1.51a77.87,77.87,0,0,0-.51,8.5h6.77l-1.62,4.25h-5.2v15.89c0,3.52.78,4.53,3.46,4.53a7.2,7.2,0,0,0,2.63-.56l.79,3.69a13.07,13.07,0,0,1-5.54,1.23"/><path class="cls-4" d="M251.18,161c-5.48,0-7.38-3.25-7.38-7.27V136.18h-3.13v-4.25h3.13a56,56,0,0,1,.28-7l6.32-1.51a77.87,77.87,0,0,0-.51,8.5h6.77L255,136.18h-5.2v15.89c0,3.52.78,4.53,3.47,4.53a7.24,7.24,0,0,0,2.63-.56l.78,3.69a13.07,13.07,0,0,1-5.54,1.23"/><path class="cls-4" d="M271,135.9c-3.47,0-5.37,2.74-5.37,7.33h10.46c0-4.59-2-7.33-5.09-7.33m-5.43,11.86v.44c0,3.92,1.46,8.06,7,8.06a10.4,10.4,0,0,0,7-2.8l2.41,3.75A15.29,15.29,0,0,1,271.88,161c-8,0-13-5.76-13-14.82,0-5,1.06-8.28,3.52-11.08a10.75,10.75,0,0,1,8.67-3.8,10.87,10.87,0,0,1,7.77,2.91c2.47,2.23,3.7,5.7,3.7,12.3v1.29Z"/><path class="cls-4" d="M300.91,137.3a4.5,4.5,0,0,0-1.73-.39,5.58,5.58,0,0,0-5.32,4.19v19.13h-6.15v-20a22.33,22.33,0,0,0-1-7.6l5.65-1.46a10,10,0,0,1,1.06,4.48c2.24-3.08,4.48-4.53,7.22-4.53a4.7,4.7,0,0,1,2.18.44Z"/><path class="cls-4" d="M201.88,128.69a3.7,3.7,0,1,1,3.53-3.7,3.64,3.64,0,0,1-3.53,3.7"/><path class="cls-4" d="M213.57,128.69a3.7,3.7,0,0,1,0-7.39,3.7,3.7,0,0,1,0,7.39"/></g></g></svg>