<svg xmlns="http://www.w3.org/2000/svg" width="208.504" height="55.126" viewBox="0 0 208.504 55.126">
  <g id="Groupe_21" data-name="Groupe 21" transform="translate(-40.485 -38.74)">
    <path id="Tracé_200" data-name="Tracé 200" d="M113.908,55.937a12.984,12.984,0,0,0,2.713-.316c.34-.069.43-.113.52-.113.113,0,.181.044.181.135,0,.723-.045.9-.317,1.04a11.459,11.459,0,0,1-3.391.453c-5.313,0-6.964-4.387-6.964-8.367,0-4.183,1.763-8.366,6.964-8.366a13.361,13.361,0,0,1,3.437.384c.271.068.294.25.09.973a.2.2,0,0,1-.226.181c-.136,0-.248-.045-.678-.113a15.779,15.779,0,0,0-2.42-.227c-5,0-5.765,4.252-5.765,7.214,0,2.781.678,7.122,5.856,7.122" fill="#161615"/>
    <path id="Tracé_201" data-name="Tracé 201" d="M121.485,50.148c0,2.962.973,5.812,4.025,5.812s4.025-2.85,4.025-5.812c0-2.939-.973-5.856-4.025-5.856s-4.025,2.917-4.025,5.856m4.025-7.031c4.115,0,5.382,3.482,5.382,7.009,0,3.55-1.267,7.01-5.382,7.01-4.138,0-5.382-3.46-5.382-7.01,0-3.527,1.244-7.009,5.382-7.009" fill="#161615"/>
    <path id="Tracé_202" data-name="Tracé 202" d="M140.458,44.315c-2.35,0-3.934,3.753-4.273,6.6v4.952c0,.9-.022,1.176-.543,1.176-.293,0-.791-.068-.791-.362v-13c0-.339.407-.407.7-.407.542,0,.588.272.588,1.651v2.69h.045v.159c.746-2.42,2.216-4.659,4.681-4.659,1.741,0,3.052,1.041,3.052,4.251v.295c.769-2.352,2.284-4.546,4.839-4.546,1.673,0,2.94.995,2.94,4.116v8.637c0,.9-.023,1.176-.543,1.176-.317,0-.792-.068-.792-.362V47.435c0-2.238-.769-3.12-2.1-3.12-2.487,0-4.137,4.183-4.341,7.077v4.477c0,.9-.022,1.176-.543,1.176-.316,0-.814-.068-.814-.362V47.435c0-2.238-.723-3.12-2.1-3.12" fill="#161615"/>
    <path id="Tracé_203" data-name="Tracé 203" d="M162.146,44.315c-2.35,0-3.934,3.753-4.273,6.6v4.952c0,.9-.022,1.176-.543,1.176-.293,0-.791-.068-.791-.362v-13c0-.339.407-.407.7-.407.542,0,.588.272.588,1.651v2.69h.045v.159c.746-2.42,2.216-4.659,4.681-4.659,1.741,0,3.052,1.041,3.052,4.251v.295c.769-2.352,2.284-4.546,4.839-4.546,1.673,0,2.94.995,2.94,4.116v8.637c0,.9-.023,1.176-.543,1.176-.317,0-.792-.068-.792-.362V47.435c0-2.238-.769-3.12-2.1-3.12-2.487,0-4.137,4.183-4.341,7.077v4.477c0,.9-.022,1.176-.543,1.176-.316,0-.813-.068-.813-.362V47.435c0-2.238-.724-3.12-2.1-3.12" fill="#161615"/>
    <path id="Tracé_204" data-name="Tracé 204" d="M181.506,55.892c2.238,0,4.658-2.714,4.658-7.96v-4.2c0-.316.406-.384.678-.384.611,0,.656.226.656,1.537v9.339a11.34,11.34,0,0,0,.135,2.441c.25.43-.339.475-.7.475a.716.716,0,0,1-.768-.814v-3.8c-.475,2.17-2.4,4.612-4.93,4.612s-3.188-1.922-3.188-4.2v-9.2c0-.316.408-.384.7-.384.543,0,.633.226.633,1.537v7.868c0,1.606.34,3.144,2.126,3.144" fill="#161615"/>
    <path id="Tracé_205" data-name="Tracé 205" d="M193.786,51.935v3.934c0,.9-.022,1.176-.542,1.176-.294,0-.791-.068-.791-.362V43.727c0-.316.406-.384.7-.384.543,0,.588.248.588,1.605l.023,2.894c.429-2.215,2.4-4.726,4.974-4.726,2.555,0,3.211,1.922,3.211,4.206v8.547c0,.9-.023,1.176-.543,1.176-.317,0-.791-.068-.791-.362V47.5c0-1.606-.339-3.143-2.126-3.143-2.238,0-4.59,2.6-4.7,7.575" fill="#161615"/>
    <path id="Tracé_206" data-name="Tracé 206" d="M207.062,49.877a8.327,8.327,0,0,0,3.505.837c2.351,0,3.617-1.266,3.617-3.459a2.669,2.669,0,0,0-2.939-3.008c-3.052,0-4.093,2.51-4.183,5.63m-1.334.385c0-3.821,1.311-7.146,5.539-7.146,2.872,0,4.274,1.584,4.274,4.183,0,2.94-1.741,4.5-4.816,4.5a7.538,7.538,0,0,1-2.058-.272,6.815,6.815,0,0,1-1.605-.633c.136,3.052,1.334,5.088,4.838,5.088a9.757,9.757,0,0,0,2.827-.453c.361-.09.61-.18.678-.18.226,0,.272.564.272.836,0,.158-.068.226-.317.317a10.425,10.425,0,0,1-3.754.633c-4.408,0-5.878-2.9-5.878-6.874" fill="#161615"/>
    <path id="Tracé_207" data-name="Tracé 207" d="M233.769,47.707V44.654a6.768,6.768,0,0,0-2.148-.316c-3.663,0-5.336,3.527-5.336,7.167,0,2.216.587,4.432,2.736,4.432,2.442,0,4.748-2.985,4.748-8.23m-2.284-4.591a8.169,8.169,0,0,1,2.284.363V39.205c0-.317.543-.384.723-.384.544,0,.611.225.611,1.311V54.219a11.258,11.258,0,0,0,.136,2.441c.248.43-.34.476-.7.476a.717.717,0,0,1-.769-.815V52.862a8.229,8.229,0,0,1-1.831,3.007,4.422,4.422,0,0,1-3.143,1.267c-3.076,0-3.912-2.691-3.912-5.473,0-4.7,2.215-8.547,6.6-8.547" fill="#161615"/>
    <path id="Tracé_208" data-name="Tracé 208" d="M240.374,49.877a8.331,8.331,0,0,0,3.505.837c2.351,0,3.617-1.266,3.617-3.459a2.669,2.669,0,0,0-2.939-3.008c-3.052,0-4.093,2.51-4.183,5.63m-1.334.385c0-3.821,1.311-7.146,5.54-7.146,2.872,0,4.273,1.583,4.273,4.183,0,2.94-1.741,4.5-4.816,4.5a7.538,7.538,0,0,1-2.058-.272,6.815,6.815,0,0,1-1.605-.633c.136,3.052,1.334,5.087,4.839,5.087a9.761,9.761,0,0,0,2.826-.452c.362-.09.61-.18.678-.18.226,0,.272.564.272.836,0,.158-.068.226-.316.317a10.432,10.432,0,0,1-3.755.633c-4.408,0-5.878-2.9-5.878-6.874" fill="#161615"/>
    <path id="Tracé_209" data-name="Tracé 209" d="M119.681,73.276a25.551,25.551,0,0,0-4.134-.5c-2.017,0-4.662.43-4.662,2.579,0,4.6,11.044,3.34,11.044,11.738,0,5.853-4.861,6.58-8.432,6.58-3.8,0-6.282-.429-7.175-1.223a.864.864,0,0,1-.331-.661c0-.628.232-2.414.794-2.414a7.744,7.744,0,0,1,1.422.264,22.616,22.616,0,0,0,4.5.464c2.314,0,4.926-.4,4.926-3.01,0-4.993-11.044-3.24-11.044-11.9,0-4.3,2.91-5.984,7.97-5.984,3.372,0,5.62.331,6.48.794.3.165.5.331.5.6,0,.464-.265,2.81-1.158,2.81-.1,0-.331-.065-.694-.131" fill="#161615"/>
    <path id="Tracé_210" data-name="Tracé 210" d="M126.36,73.506V71.524c0-1.06.563-1.886,2.018-2.547a4.016,4.016,0,0,1,1.422-.5c.6,0,.827.6.827,2.117v2.909h3.5c.629,0,1.257.134,1.257.96,0,2.016-.364,2.514-1.62,2.514h-3.141V88.155c0,1.455.694,2.116,1.851,2.116a6.108,6.108,0,0,0,2.216-.429,1.77,1.77,0,0,1,.628-.165c.5,0,.529,1.785.529,2.612,0,.66-1.488,1.389-4.332,1.389-3.836,0-5.159-1.72-5.159-5.391V76.98h-1.52c-.992,0-1.29-.2-1.29-.961,0-1.256.165-2.513,1.654-2.513Z" fill="#161615"/>
    <path id="Tracé_211" data-name="Tracé 211" d="M142.233,82.336a8.51,8.51,0,0,0,3.7.859c2.645,0,4.034-1.289,4.034-3.472,0-2.017-1.256-3.009-3.24-3.009-3.109,0-4.233,2.314-4.5,5.622m-4.331,1.19c0-5.324,1.818-10.349,8.993-10.349,5.126,0,7.375,2.546,7.375,6.678,0,4.829-2.976,6.614-7.639,6.614a9.408,9.408,0,0,1-2.612-.331,5.746,5.746,0,0,1-1.752-.827c.264,2.68,1.554,4.763,5.952,4.763a15.424,15.424,0,0,0,4.43-.695,9.882,9.882,0,0,1,1.025-.331c.629,0,.827,2.05.827,2.612,0,.43-.165.662-.628.926a16.463,16.463,0,0,1-6.448,1.091c-7.9,0-9.523-5.257-9.523-10.151" fill="#161615"/>
    <path id="Tracé_212" data-name="Tracé 212" d="M162.9,88.684c0,1.125.464,1.587,1.257,1.587a4,4,0,0,0,.927-.1,4.159,4.159,0,0,1,.594-.133c.7,0,.728,1.819.728,2.613,0,.5-1.191,1.025-3.637,1.025-3.076,0-4.167-1.555-4.167-4.861V74.433c0-.859,1.389-.927,2.249-.927,1.951,0,2.049,1.059,2.049,4.7Zm-2.116-21.923a2.011,2.011,0,0,1,2.15,2.15,2.336,2.336,0,0,1-2.546,2.413,1.875,1.875,0,0,1-2.05-2.05,2.358,2.358,0,0,1,2.446-2.513" fill="#161615"/>
    <path id="Tracé_213" data-name="Tracé 213" d="M173.317,85.576v4.63c0,2.48-.033,3.373-1.785,3.373-.761,0-2.513-.134-2.513-.993V74.433c0-.859,1.389-.927,2.248-.927,1.72,0,1.851,1.026,1.851,4.4a7.154,7.154,0,0,1,6.548-4.728c3.9,0,5.489,2.645,5.489,6.778V90.206c0,2.48,0,3.373-1.786,3.373-.76,0-2.512-.134-2.512-.993V80.715c0-1.983-.43-3.571-2.315-3.571-2.811,0-5.125,3.571-5.225,8.432" fill="#161615"/>
    <path id="Tracé_214" data-name="Tracé 214" d="M189.257,76.98c-.992,0-1.29-.2-1.29-.961,0-1.256.166-2.513,1.554-2.513h.959v-.66c0-3.176.529-6.647,6.448-6.647,2.811,0,3.869.3,4.3.662a.519.519,0,0,1,.2.5c0,1.123-.132,2.414-.793,2.414a14.47,14.47,0,0,0-2.711-.331c-2.282,0-3.142,1.157-3.142,3.406v.66h4.034c.628,0,1.257.134,1.257.96,0,2.016-.331,2.514-1.521,2.514h-3.77V90.206c0,2.48-.033,3.373-1.785,3.373-.728,0-2.513-.134-2.514-.993V76.98Z" fill="#161615"/>
    <path id="Tracé_215" data-name="Tracé 215" d="M206.088,83.46c0,3.307,1.191,6.547,4.564,6.547,3.405,0,4.563-3.24,4.563-6.547,0-3.34-1.158-6.614-4.563-6.614-3.373,0-4.564,3.274-4.564,6.614m4.564-10.283c6.745,0,8.861,5.092,8.861,10.25s-2.116,10.25-8.861,10.25c-6.779,0-8.829-5.091-8.829-10.25s2.05-10.25,8.829-10.25" fill="#161615"/>
    <path id="Tracé_216" data-name="Tracé 216" d="M225.566,73.441c1.752,0,1.851,1.091,1.851,4.728v.265c.76-2.051,2.546-5.257,6.581-5.257,1.222,0,1.29.594,1.29,1.123,0,2.182-.729,2.811-1.786,2.811-3.8,0-5.886,5.225-5.886,8.928v4.167c0,2.48-.034,3.373-1.786,3.373-.761,0-2.513-.134-2.513-.993V74.366c0-.827,1.389-.925,2.249-.925" fill="#161615"/>
    <path id="Tracé_217" data-name="Tracé 217" d="M239.223,73.506V71.524c0-1.06.562-1.886,2.017-2.547a4.016,4.016,0,0,1,1.422-.5c.594,0,.827.6.827,2.117v2.909h3.5c.629,0,1.257.134,1.257.96,0,2.016-.364,2.514-1.621,2.514h-3.14V88.155c0,1.455.694,2.116,1.851,2.116a6.107,6.107,0,0,0,2.216-.429,1.776,1.776,0,0,1,.628-.165c.5,0,.529,1.785.529,2.612,0,.66-1.488,1.389-4.332,1.389-3.835,0-5.158-1.72-5.158-5.391V76.98H237.7c-.991,0-1.289-.2-1.289-.961,0-1.256.165-2.513,1.653-2.513Z" fill="#161615"/>
    <path id="Tracé_218" data-name="Tracé 218" d="M46.254,77.937a4.618,4.618,0,0,1,4.837,4.893A5.794,5.794,0,0,1,45.18,89c-2.687,0-4.695-1.612-4.695-4.893a5.782,5.782,0,0,1,5.769-6.165" fill="#de2030"/>
    <path id="Tracé_219" data-name="Tracé 219" d="M87.672,72.406c-.185-.151-4.289-2.6-4.289-2.6l-8.165-4.618s-.857-.462-1.13-.638a4.517,4.517,0,0,1-1.528-2.011c-.016-.035-7.581-18.249-7.581-18.249-.784-2.071-1.3-3.289-1.949-3.82a1.8,1.8,0,0,0-.993-.456l-10.992-1.27a1.737,1.737,0,0,0-1.509.541,1.811,1.811,0,0,0-.529,1.3l.029,2.611-.03,28.153a2.316,2.316,0,0,0,.079.485c.173.76,1.005,1.447,2.5,2.566-.283-.2,21.113,16.317,25.1,19.092,1.5,1.045,2.21-.181,3.5-2.69l2.515-4.9,3.959-8.22C88.249,74.577,88.77,73.3,87.672,72.406Z" fill="#de2030"/>
  </g>
</svg>
