<svg width="182" height="52" viewBox="0 0 182 52" fill="none" xmlns="http://www.w3.org/2000/svg">
<g clip-path="url(#clip0_446_198)">
<path d="M32.2746 19.7262C33.587 21.0386 34.462 22.7488 34.7602 24.5981L38.5583 20.8L48.0635 11.2948L40.7059 3.93728L31.2008 13.4424V0H20.8008V18.8115C24.3205 16.2662 29.1924 16.644 32.2746 19.7262Z" fill="#00CFA3"/>
<path d="M34.7599 27.4023C34.0043 32.2345 29.4704 35.5354 24.6383 34.7599C23.2463 34.5412 21.9339 34.0043 20.8203 33.1691V51.9805H31.2203V38.5381L40.7255 48.0433L48.083 40.6857L38.5779 31.1805L34.7599 27.4023Z" fill="#00CFA3"/>
<path d="M40.7052 45.2589L32.6119 37.1457L31.0807 35.6145C33.0096 34.5805 34.6004 33.0096 35.6344 31.0608L37.1855 32.6119L45.2987 40.725L40.7052 45.2589ZM29.2115 38.5576V50.0115H22.7686V36.3702C24.8566 37.0065 27.1036 37.0065 29.1916 36.3702L29.2115 38.5576ZM18.8314 37.7224L11.2948 45.239L6.74111 40.6853L14.8543 32.6119L16.3855 31.0807C16.9025 32.0352 17.5388 32.93 18.3143 33.6857C18.4734 33.8447 18.6325 34.0038 18.8115 34.143L18.8314 37.7224ZM1.98853 29.2115V22.7885H15.6298C14.9935 24.8765 14.9935 27.1235 15.6298 29.2115H1.98853ZM6.76099 11.2948L11.2948 6.74111L18.8115 14.2577V17.857C18.6325 18.0161 18.4734 18.1553 18.3143 18.3143C17.5388 19.0899 16.8826 19.9648 16.3855 20.9392L14.8543 19.408L6.76099 11.2948ZM29.2314 1.98853V15.6298C27.1434 14.9935 24.8964 14.9935 22.8084 15.6298V1.98853H29.2314ZM32.6119 14.8543L40.725 6.74111L45.2788 11.2948L37.1656 19.408L35.6145 20.9591C35.0975 19.9847 34.4612 19.1098 33.6857 18.3342C32.9101 17.5587 32.0352 16.9025 31.0807 16.4054L32.6119 14.8543ZM34.7595 27.4019C33.9839 32.234 29.4302 35.535 24.5981 34.7595C19.766 33.9839 16.465 29.4302 17.2405 24.5981C17.5388 22.7488 18.4138 21.0386 19.7262 19.7262C20.0642 19.3881 20.4222 19.0899 20.8 18.8115C24.7572 15.9281 30.2853 16.8031 33.1686 20.7602C33.9839 21.8937 34.5407 23.2061 34.7595 24.5981L38.5576 20.8L48.0627 11.2948L40.7052 3.93728L31.2 13.4424V0H20.8V13.4424L11.2948 3.93728L3.93728 11.2948L13.4424 20.8H0V31.2H13.4424L3.93728 40.7052L11.2948 48.0627L20.8 38.5576V52H31.2V38.5576L40.7052 48.0627L48.0627 40.7052L38.5576 31.2L34.7595 27.4019Z" fill="black"/>
<path d="M51.9844 16.4268C51.9844 12.6307 54.3249 10.1172 57.7551 10.1172C61.1853 10.1172 63.5258 12.6307 63.5258 16.4268C63.5258 20.2229 61.1853 22.7185 57.7551 22.7185C54.3249 22.7185 51.9844 20.205 51.9844 16.4268ZM61.3603 16.4268C61.3603 13.8099 59.9564 12.1813 57.7551 12.1813C55.5538 12.1813 54.1499 13.794 54.1499 16.4268C54.1499 19.0596 55.5538 20.6564 57.7551 20.6564C59.9564 20.6564 61.3603 19.0278 61.3603 16.4268Z" fill="black"/>
<path d="M73.5806 18.1945C73.5806 20.9844 72.0733 22.6309 69.9754 22.6309C69.005 22.6309 68.0525 22.2332 67.5136 21.5909V25.9935H65.4336V13.9132H67.5136V14.7623C68.1022 14.0345 69.0567 13.7402 69.9754 13.7402C72.298 13.7402 73.5806 15.6293 73.5806 18.1945ZM71.5006 18.1766C71.5006 16.4963 70.8603 15.5597 69.4723 15.5597C67.965 15.5597 67.3227 16.6514 67.3227 18.1766C67.3227 19.7018 67.963 20.8114 69.4544 20.8114C70.8404 20.8114 71.4986 19.841 71.4986 18.1766H71.5006Z" fill="black"/>
<path d="M82.5749 18.8706H76.7167C76.8042 19.9981 77.4962 20.7418 78.8484 20.7418C79.61 20.7418 80.304 20.4992 80.8946 19.8231L82.3323 21.0878C81.3957 22.1278 80.2702 22.6309 78.8305 22.6309C75.8835 22.6309 74.6367 20.5171 74.6367 18.2283C74.6367 15.9395 75.8497 13.7402 78.6933 13.7402C81.344 13.7402 82.6266 15.6989 82.6266 18.0732C82.6266 18.3337 82.6087 18.5942 82.5749 18.8706ZM80.6341 17.2241C80.6003 16.1324 79.7671 15.4742 78.6754 15.4742C77.4107 15.4742 76.8201 16.375 76.6988 17.2241H80.6341Z" fill="black"/>
<path d="M92.0215 16.9477V22.4599H89.9415V17.4687C89.9415 16.8801 89.9415 15.5617 88.3646 15.5617C86.4238 15.5617 86.4237 17.5204 86.4237 19.0456V22.4599H84.3438V13.9152H86.4237V14.9035C87.0302 14.0882 87.9669 13.7422 89.0069 13.7422C90.9298 13.7422 92.0234 14.9214 92.0234 16.9477H92.0215Z" fill="black"/>
<path d="M106.825 22.4592L103.255 16.4459L100.951 18.7864V22.4612H98.7852V10.3809H100.951V16.0661L106.375 10.3809H109.217L104.729 14.9565L109.338 22.4612H106.825V22.4592Z" fill="black"/>
<path d="M118.141 16.9477V22.4599H116.061V17.4687C116.061 16.8801 116.061 15.5617 114.484 15.5617C112.543 15.5617 112.543 17.5204 112.543 19.0456V22.4599H110.463V13.9152H112.543V14.9035C113.149 14.0882 114.086 13.7422 115.126 13.7422C117.049 13.7422 118.143 14.9214 118.143 16.9477H118.141Z" fill="black"/>
<path d="M119.613 18.1786C119.613 15.7526 121.242 13.7422 123.895 13.7422C126.547 13.7422 128.176 15.7526 128.176 18.1786C128.176 20.6046 126.529 22.6329 123.895 22.6329C121.26 22.6329 119.613 20.5887 119.613 18.1786ZM126.096 18.1786C126.096 16.7747 125.471 15.5617 123.895 15.5617C122.318 15.5617 121.693 16.7747 121.693 18.1786C121.693 19.5825 122.318 20.8134 123.895 20.8134C125.471 20.8134 126.096 19.5646 126.096 18.1786Z" fill="black"/>
<path d="M128.471 13.9141H130.69L132.145 19.2692L133.758 13.9141H135.544L137.157 19.2513L138.63 13.9141H140.849L138.214 22.4588H136.343L134.663 16.8611L132.983 22.4588H131.111L128.477 13.9141H128.471Z" fill="black"/>
<path d="M142.043 20.413V10.3789H144.123V20.2758C144.123 20.6576 144.348 20.8127 144.729 20.8127C144.92 20.8127 145.145 20.7789 145.388 20.7093V22.3737C144.92 22.5467 144.451 22.6342 144.053 22.6342C142.892 22.6342 142.043 21.9402 142.043 20.415V20.413Z" fill="black"/>
<path d="M154.175 18.8706H148.316C148.404 19.9981 149.096 20.7418 150.448 20.7418C151.21 20.7418 151.904 20.4992 152.492 19.8231L153.93 21.0878C152.993 22.1278 151.868 22.6309 150.428 22.6309C147.481 22.6309 146.234 20.5171 146.234 18.2283C146.234 15.9395 147.447 13.7402 150.291 13.7402C152.942 13.7402 154.226 15.6989 154.226 18.0732C154.226 18.3337 154.208 18.5942 154.175 18.8706ZM152.234 17.2241C152.2 16.1324 151.367 15.4742 150.275 15.4742C149.01 15.4742 148.42 16.375 148.298 17.2241H152.234Z" fill="black"/>
<path d="M163.432 10.3789V22.4592H161.352V21.6101C160.764 22.3379 159.809 22.6322 158.89 22.6322C156.568 22.6322 155.285 20.7431 155.285 18.1779C155.285 15.388 156.792 13.7415 158.89 13.7415C159.861 13.7415 160.813 14.1392 161.352 14.7815V10.3789H163.432ZM161.543 18.1958C161.543 16.774 160.903 15.6306 159.411 15.6306C158.025 15.6306 157.365 16.601 157.365 18.1958C157.365 19.7906 158.005 20.7093 159.393 20.7093C160.901 20.7093 161.543 19.6176 161.543 18.1958Z" fill="black"/>
<path d="M173.12 23.6197C173.12 25.4054 171.491 26.167 169.185 26.167C166.637 26.167 165.182 25.2304 165.182 23.4626C165.182 23.2538 165.2 23.1683 165.215 23.0808L166.446 22.3013C165.84 21.9712 165.424 21.4343 165.424 20.5514C165.424 19.8057 165.719 19.2688 166.222 18.8353C165.788 18.2984 165.528 17.6223 165.528 16.8766C165.528 15.0213 167.122 13.7387 169.029 13.7387C169.775 13.7387 170.467 13.9296 171.04 14.2756L172.34 13.166L173.432 14.4824L172.201 15.4886C172.426 15.9221 172.565 16.4252 172.565 16.98C172.565 18.887 170.97 20.1 169.099 20.1C168.51 20.1 167.956 19.9787 167.453 19.7699C167.297 19.8733 167.21 20.0125 167.21 20.2213C167.21 20.8457 168.077 21.0187 169.151 21.1579C170.885 21.3826 173.12 21.5735 173.12 23.6197ZM171.04 23.8106C171.04 23.1524 169.948 23.0828 168.717 22.9098L168.007 22.8064L167.262 23.5163C167.244 23.568 167.244 23.6197 167.244 23.6555C167.244 24.3833 168.302 24.608 169.272 24.608C170.157 24.608 171.04 24.3992 171.04 23.8106ZM167.608 16.9303C167.608 17.7456 168.093 18.4038 169.063 18.4038C170.034 18.4038 170.485 17.7635 170.485 16.9303C170.485 16.0454 169.948 15.4747 169.063 15.4747C168.178 15.4747 167.608 16.0633 167.608 16.9303Z" fill="black"/>
<path d="M181.491 18.8706H175.633C175.72 19.9981 176.412 20.7418 177.764 20.7418C178.526 20.7418 179.22 20.4992 179.811 19.8231L181.248 21.0878C180.312 22.1278 179.186 22.6309 177.747 22.6309C174.8 22.6309 173.553 20.5171 173.553 18.2283C173.553 15.9395 174.766 13.7402 177.609 13.7402C180.26 13.7402 181.543 15.6989 181.543 18.0732C181.543 18.3337 181.525 18.5942 181.491 18.8706ZM179.55 17.2241C179.516 16.1324 178.683 15.4742 177.591 15.4742C176.327 15.4742 175.736 16.375 175.615 17.2241H179.55Z" fill="black"/>
<path d="M52.832 28.0781H57.0437C59.4538 28.0781 60.8736 29.2215 60.8736 31.1285C60.8736 32.256 60.3884 33.1568 59.5393 33.642C60.8398 34.1093 61.5159 35.1155 61.5159 36.6228C61.5159 38.842 60.0424 40.1584 57.5806 40.1584H52.832V28.0781ZM57.0437 32.8784C58.1354 32.8784 58.7081 32.4111 58.7081 31.5083C58.7081 30.6055 58.1016 30.0706 57.0437 30.0706H54.9975V32.8784H57.0437ZM57.4076 38.1639C58.6206 38.1639 59.3484 37.5057 59.3484 36.4478C59.3484 35.3899 58.6723 34.8709 57.4076 34.8709H54.9975V38.1639H57.4076Z" fill="black"/>
<path d="M69.4039 31.9246L68.3997 33.762C68.1054 33.5711 67.7753 33.4677 67.3597 33.4677C66.095 33.4677 65.4706 34.2472 65.4706 35.8599V40.1591H63.3906V31.6144H65.4885V33.07C65.8524 32.0121 66.8049 31.4414 67.7753 31.4414C68.348 31.4414 68.8491 31.5806 69.4039 31.9266V31.9246Z" fill="black"/>
<path d="M77.482 34.7682V40.1591H75.575L75.402 39.0495C74.8989 39.8469 73.9285 40.3321 72.803 40.3321C71.0013 40.3321 69.7188 39.1708 69.7188 37.5422C69.7188 36.536 70.1701 35.7744 71.0013 35.3926C71.574 35.1321 72.3018 35.0108 73.2722 35.0108H75.404V34.7682C75.404 33.8316 74.7795 33.2609 73.7913 33.2609C72.9243 33.2609 72.109 33.7123 71.4865 34.5435L69.9792 33.2788C71.0013 32.0479 72.2661 31.4414 73.827 31.4414C76.0801 31.4414 77.4839 32.7061 77.4839 34.7682H77.482ZM75.402 36.5698H73.5467C72.8368 36.5698 72.4192 36.6573 72.1428 36.8641C71.9181 37.0192 71.7968 37.2618 71.7968 37.574C71.7968 38.1805 72.2999 38.5623 73.1311 38.5623C74.3799 38.5623 75.402 37.6794 75.402 36.5698Z" fill="black"/>
<path d="M78.7637 37.938L80.4281 37.1923C80.6528 37.8167 81.1042 38.5962 82.2476 38.5962C83.218 38.5962 83.6336 38.0414 83.6336 37.59C83.6336 36.1523 79.231 37.1048 79.231 33.9331C79.231 32.2866 80.7224 31.4375 82.3689 31.4375C83.8424 31.4375 84.9679 32.1315 85.6102 33.2928L83.9975 34.1757C83.7032 33.6388 83.2359 33.084 82.2993 33.084C81.6232 33.084 81.2076 33.4141 81.2076 33.8118C81.2076 35.1123 85.6798 34.3487 85.6798 37.4687C85.6798 39.4612 83.9637 40.3282 82.353 40.3282C80.5514 40.3282 79.1813 39.2365 78.7657 37.936L78.7637 37.938Z" fill="black"/>
<path d="M87.3789 28.0781H89.5623V30.001H87.3789V28.0781ZM87.4306 31.6137H89.5106V40.1584H87.4306V31.6137Z" fill="black"/>
<path d="M91.8477 38.1122V28.0781H93.9277V37.975C93.9277 38.3568 94.1524 38.5119 94.5342 38.5119C94.7251 38.5119 94.9498 38.4781 95.1924 38.4085V40.0729C94.7251 40.2459 94.2558 40.3334 93.8581 40.3334C92.6968 40.3334 91.8477 39.6394 91.8477 38.1142V38.1122Z" fill="black"/>
</g>
<defs>
<clipPath id="clip0_446_198">
<rect width="181.543" height="52" fill="white"/>
</clipPath>
</defs>
</svg>
