<svg id="a8d23b65-1ed0-4754-9d0e-76e01b63442a" data-name="Capa 3" xmlns="http://www.w3.org/2000/svg" viewBox="0 0 356.23 132.98"><defs><style>.ad040e86-c539-4aa6-99b4-f60e022abdfc{fill:none;}.a6126873-0ad0-4b02-aa21-b479e4241e3e{fill:#a1c639;}.e0bbbe65-43ee-40f0-afcc-047b83338ac9{fill:#3f3f3f;}.f9f31445-eb38-43e0-bca0-113a54a6e00b{fill:#ffd500;}.bc404fbc-d361-4dcd-a705-e88c0d02a7f1{fill:#fff;}</style></defs><title>Logo CoActuem_svg_en</title><polygon class="ad040e86-c539-4aa6-99b4-f60e022abdfc" points="130.52 15.97 124.22 33.03 136.86 33.03 130.52 15.97"/><path class="ad040e86-c539-4aa6-99b4-f60e022abdfc" d="M162.41,174.18c0-.92,0-3-.9-4.11s-3.78-1.86-4.82-2l-.42-.07,0-2.15.32-.11A4,4,0,0,0,155.3,158a4,4,0,0,0-1.25,7.8l.48.09V168l-.42.07c-1,.15-3.91.8-4.81,2s-.82,3.21-.76,4.11Z" transform="translate(-73.53 -140.48)"/><path class="a6126873-0ad0-4b02-aa21-b479e4241e3e" d="M73.53,201.92v35.7c0,10.27,6.27,18.6,14,18.6h294l.16,17.24L409,256.22h6.75c7.74,0,14-8.33,14-18.6v-35.7Z" transform="translate(-73.53 -140.48)"/><path class="e0bbbe65-43ee-40f0-afcc-047b83338ac9" d="M99.54,193.23a26.08,26.08,0,0,0,24.74-17.91H111.87a13.8,13.8,0,0,1-12.33,7.5c-8.17,0-14.71-7-14.71-15.6s6.54-15.6,14.71-15.6c5.12,0,10.17,2.83,12.26,7.36h12.4a26,26,0,1,0-24.66,34.25Z" transform="translate(-73.53 -140.48)"/><path class="e0bbbe65-43ee-40f0-afcc-047b83338ac9" d="M190.4,193.45l3.9-10.53h19.61l3.9,10.53h12.33L209,141.23h-9.75L178,193.45Zm13.65-37,6.33,17.06H197.75Z" transform="translate(-73.53 -140.48)"/><path class="e0bbbe65-43ee-40f0-afcc-047b83338ac9" d="M240.8,192a22.77,22.77,0,0,0,10.14,2.16,20.65,20.65,0,0,0,9-1.93,17.34,17.34,0,0,0,6.58-5.23,13.21,13.21,0,0,0,2.76-7.16H257.77a5.81,5.81,0,0,1-2,4,7.42,7.42,0,0,1-4.82,1.4q-4.23,0-6.07-2.45a11.36,11.36,0,0,1,0-12.43c1.24-1.7,3.25-2.55,6.05-2.55a7.37,7.37,0,0,1,4.82,1.41,5.77,5.77,0,0,1,2,3.95h11.47a13.19,13.19,0,0,0-2.76-7.18,17.63,17.63,0,0,0-6.58-5.23,20.52,20.52,0,0,0-9-1.95,22.07,22.07,0,0,0-10.66,2.37,15.74,15.74,0,0,0-6.56,6.39,18.47,18.47,0,0,0-2.19,9,17.69,17.69,0,0,0,2.43,9.34A16.1,16.1,0,0,0,240.8,192Z" transform="translate(-73.53 -140.48)"/><polygon class="e0bbbe65-43ee-40f0-afcc-047b83338ac9" points="203.96 52.97 215.39 52.97 215.39 28 221.54 28 221.54 19.12 215.39 19.12 215.39 6.23 203.96 6.23 203.96 19.12 197.81 19.12 197.81 28 203.96 28 203.96 52.97"/><path class="f9f31445-eb38-43e0-bca0-113a54a6e00b" d="M147.66,175.16h15.68l0-.45c0-.14.24-3.47-1.07-5.23-1.1-1.46-4-2.12-5.05-2.32v-.62a5,5,0,1,0-3.69.1v.52c-1.08.2-3.95.86-5,2.32-1.33,1.77-.93,5.11-.91,5.25Zm1.65-5.09c.9-1.21,3.78-1.86,4.81-2l.42-.07v-2.13l-.48-.09a4,4,0,1,1,2.57,0l-.32.11,0,2.15.42.07c1,.15,3.92.8,4.82,2s.91,3.19.9,4.11H148.55C148.49,173.28,148.46,171.19,149.31,170.07Z" transform="translate(-73.53 -140.48)"/><path class="f9f31445-eb38-43e0-bca0-113a54a6e00b" d="M155.91,184.92v-7.28a.76.76,0,0,0-1.51,0v7.28a3.43,3.43,0,1,0,1.51,0Z" transform="translate(-73.53 -140.48)"/><path class="f9f31445-eb38-43e0-bca0-113a54a6e00b" d="M146.35,175.31l-4.2,4.1a3.26,3.26,0,0,0-1.06-.56,3.44,3.44,0,1,0,2,1.71l4.29-4.17a.76.76,0,0,0-1.06-1.08Z" transform="translate(-73.53 -140.48)"/><path class="f9f31445-eb38-43e0-bca0-113a54a6e00b" d="M169.9,179.15a3.34,3.34,0,0,0-1.32.53l-4.39-4.25a.75.75,0,1,0-1,1.08l4.4,4.26a3.42,3.42,0,1,0,6.3,1.2A3.44,3.44,0,0,0,169.9,179.15Z" transform="translate(-73.53 -140.48)"/><path class="f9f31445-eb38-43e0-bca0-113a54a6e00b" d="M164.71,158.63a.77.77,0,0,0,.53-.21l4.55-4.44a3.66,3.66,0,0,0,2.22.74,3.79,3.79,0,0,0,.94-.12,3.68,3.68,0,0,0-.94-7.24,3.28,3.28,0,0,0-.94.13,3.67,3.67,0,0,0-2.62,4.49,3.4,3.4,0,0,0,.36.85l-4.63,4.51a.75.75,0,0,0,.53,1.29Z" transform="translate(-73.53 -140.48)"/><path class="f9f31445-eb38-43e0-bca0-113a54a6e00b" d="M145.48,168.08a.75.75,0,0,0,0-1.5h-8.8l-.1,0a3.42,3.42,0,1,0,0,1.47h8.87Z" transform="translate(-73.53 -140.48)"/><path class="f9f31445-eb38-43e0-bca0-113a54a6e00b" d="M155.16,140.48a3.42,3.42,0,0,0-.76,6.76v7.39a.76.76,0,0,0,1.51,0v-7.39a3.42,3.42,0,0,0-.75-6.76Z" transform="translate(-73.53 -140.48)"/><path class="f9f31445-eb38-43e0-bca0-113a54a6e00b" d="M138.06,154.49a3.39,3.39,0,0,0,2.69-.43l4.5,4.36a.74.74,0,0,0,.53.22.78.78,0,0,0,.54-.23.76.76,0,0,0,0-1.07L141.81,153a3.32,3.32,0,0,0,.43-1,3.43,3.43,0,1,0-4.18,2.45Z" transform="translate(-73.53 -140.48)"/><path class="f9f31445-eb38-43e0-bca0-113a54a6e00b" d="M177.52,164a3.43,3.43,0,0,0-3.32,2.62h-8.51a.75.75,0,0,0,0,1.5h8.47a3.43,3.43,0,1,0,3.36-4.12Z" transform="translate(-73.53 -140.48)"/><path class="bc404fbc-d361-4dcd-a705-e88c0d02a7f1" d="M107.75,242.33h2.81v-15.1h4.72v-2.62h-4.72v-6.84c0-2.46.81-3,3.11-3h1.61v-2.61h-2c-3.58,0-5.51,1.65-5.51,5.64v6.84h-3.6v2.62h3.6Z" transform="translate(-73.53 -140.48)"/><path class="bc404fbc-d361-4dcd-a705-e88c0d02a7f1" d="M126.28,242.73a9.27,9.27,0,1,0-9.26-9.27A9,9,0,0,0,126.28,242.73Zm0-15.85a6.6,6.6,0,1,1-6.45,6.58A6.22,6.22,0,0,1,126.28,226.88Z" transform="translate(-73.53 -140.48)"/><path class="bc404fbc-d361-4dcd-a705-e88c0d02a7f1" d="M142.78,233c0-4.42,1.65-6,3.78-6a4.77,4.77,0,0,1,2.3.69h.2v-3.07a7.27,7.27,0,0,0-2.25-.41,4.07,4.07,0,0,0-4,2.87v-2.46H140v17.72h2.81Z" transform="translate(-73.53 -140.48)"/><polygon class="bc404fbc-d361-4dcd-a705-e88c0d02a7f1" points="93.02 81.87 101.24 103.05 109.44 81.87 113.73 101.85 116.62 101.85 110.21 73.26 101.24 96.01 92.25 73.26 85.84 101.85 88.75 101.85 93.02 81.87"/><path class="bc404fbc-d361-4dcd-a705-e88c0d02a7f1" d="M202.22,242.73c4.43,0,7.5-2.36,8.74-5.88h-3.15a5.89,5.89,0,0,1-5.63,3.22,6.12,6.12,0,0,1-6.45-5.43h15.6v-1.18a9.27,9.27,0,1,0-9.11,9.27Zm-.15-15.85a6,6,0,0,1,6.31,5.38H195.73A6.06,6.06,0,0,1,202.07,226.88Z" transform="translate(-73.53 -140.48)"/><path class="bc404fbc-d361-4dcd-a705-e88c0d02a7f1" d="M218.65,233.72c0-3.54,1.65-6.84,5.64-6.84,2.36,0,3.78,1.19,3.78,4v11.48h2.81V230.45c0-3.75-2.2-6.25-6.23-6.25a6.6,6.6,0,0,0-6,3.48v-3.07h-2.81v17.72h2.81Z" transform="translate(-73.53 -140.48)"/><polygon class="bc404fbc-d361-4dcd-a705-e88c0d02a7f1" points="164.83 101.85 167.64 101.85 167.64 86.75 172.03 86.75 172.03 84.13 167.64 84.13 167.64 77.25 164.83 77.25 164.83 84.13 160.39 84.13 160.39 86.75 164.83 86.75 164.83 101.85"/><path class="bc404fbc-d361-4dcd-a705-e88c0d02a7f1" d="M256.06,242.73a8.19,8.19,0,0,0,6.69-3.43v3h2.81V224.61h-2.81v3a8.21,8.21,0,0,0-6.69-3.42c-5,0-8.61,4-8.61,9.26S251.1,242.73,256.06,242.73Zm.45-15.85c3.62,0,6.24,2.65,6.24,6.58s-2.7,6.61-6.24,6.61-6.25-2.65-6.25-6.61S253,226.88,256.51,226.88Z" transform="translate(-73.53 -140.48)"/><rect class="bc404fbc-d361-4dcd-a705-e88c0d02a7f1" x="198.13" y="71.65" width="2.81" height="30.2"/><polygon class="bc404fbc-d361-4dcd-a705-e88c0d02a7f1" points="219.22 89.09 231.67 89.09 231.67 101.85 234.48 101.85 234.48 74.46 231.67 74.46 231.67 86.44 219.22 86.44 219.22 74.46 216.39 74.46 216.39 101.85 219.22 101.85 219.22 89.09"/><path class="bc404fbc-d361-4dcd-a705-e88c0d02a7f1" d="M322.62,242.73c4.43,0,7.5-2.36,8.73-5.88h-3.14a5.89,5.89,0,0,1-5.63,3.22,6.12,6.12,0,0,1-6.45-5.43h15.6v-1.18a9.27,9.27,0,1,0-9.11,9.27Zm-.15-15.85a6,6,0,0,1,6.31,5.38H316.13A6.06,6.06,0,0,1,322.47,226.88Z" transform="translate(-73.53 -140.48)"/><path class="bc404fbc-d361-4dcd-a705-e88c0d02a7f1" d="M343.75,242.73a8.16,8.16,0,0,0,6.68-3.43v3h2.82V224.61h-2.82v3a8.17,8.17,0,0,0-6.68-3.42c-5,0-8.61,4-8.61,9.26S338.79,242.73,343.75,242.73Zm.45-15.85c3.62,0,6.23,2.65,6.23,6.58s-2.69,6.61-6.23,6.61-6.25-2.65-6.25-6.61S340.64,226.88,344.2,226.88Z" transform="translate(-73.53 -140.48)"/><rect class="bc404fbc-d361-4dcd-a705-e88c0d02a7f1" x="285.82" y="71.65" width="2.81" height="30.2"/><polygon class="bc404fbc-d361-4dcd-a705-e88c0d02a7f1" points="296.44 101.85 299.26 101.85 299.26 86.75 303.64 86.75 303.64 84.13 299.26 84.13 299.26 77.25 296.44 77.25 296.44 84.13 292 84.13 292 86.75 296.44 86.75 296.44 101.85"/><path class="bc404fbc-d361-4dcd-a705-e88c0d02a7f1" d="M383.37,234.92c0-4.84,1.57-7.89,5.6-7.89,2.81,0,3.82,1.85,3.82,4.23v11.07h2.81V231.26c0-4.19-2.2-7.06-6.63-7.06a6.44,6.44,0,0,0-5.6,3.48V212.13h-2.81v30.2h2.81Z" transform="translate(-73.53 -140.48)"/></svg>