<?xml version="1.0" encoding="UTF-8"?>
<svg xmlns="http://www.w3.org/2000/svg" viewBox="0 0 499.5 69" style="enable-background:new 0 0 499.5 69" xml:space="preserve">
  <style>.st0{fill:#fff}.st4{fill:#040405}.st6{fill:#d9000d}</style>
  <path class="st0" d="M78.2 1.7h1.1v57.1h-1.1zm251.9 40.5h8.6v5.1h-16.1V10.4h7.5v31.8zm160.8 0V30.6h6.7v-5.2h-6.7v-9.8h8.6v-5.2h-16.1v36.9h16.2v-5.1h-8.7zm-52.3-31.8 7.2 36.9h-7l-1.4-8.2h-5.9l-1.4 8.2H423l7.2-36.9h8.4zm-1.9 24.1-2.2-14.7-2.2 14.7h4.4zm-76.2-24.1 7.2 36.9h-7l-1.4-8.2h-5.9l-1.4 8.2h-7.1l7.2-36.9h8.4zm-1.9 24.1-2.2-14.7-2.2 14.7h4.4zM475.1 21c0 1.7-.2 3.3-.8 4.9-.4 1.2-1.2 2.3-2.2 3.2-1 .8-2 1.3-3.2 1.6-1.4.4-2.7.5-4.1.5h-3.3v16.1H454V10.4h11.5c6.4 0 9.6 3.5 9.6 10.6zm-7.1-.1c0-.8 0-1.5-.1-2.3-.1-.5-.3-1.1-.5-1.6-.3-.5-.7-.9-1.3-1.1-.7-.2-1.5-.3-2.3-.3h-2.4V26h2.4c1.7 0 2.8-.4 3.3-1.1.8-1.2 1.1-2.6.9-4zm-49.5.1c0 1.7-.2 3.3-.8 4.9-.4 1.2-1.2 2.3-2.2 3.2-1 .8-2 1.3-3.2 1.6-1.4.4-2.7.5-4.1.5h-3.3v16.1h-7.5V10.4h11.5c6.4 0 9.6 3.5 9.6 10.6zm-7-.1c0-.8 0-1.5-.1-2.3-.1-.5-.3-1.1-.5-1.6-.3-.5-.7-.9-1.3-1.1-.7-.2-1.5-.3-2.3-.3h-2.4V26h2.4c1.7 0 2.8-.4 3.3-1.1.7-1.2 1-2.6.9-4zm-35.6 13.4h11.4v-4.6h-11.4v4.6zm-77.3 0H310v-4.6h-11.4v4.6zM166.9 10.4h-7.5v36.9h16.1v-5.1h-8.6V10.4zm22.5 0h-7.5v36.9H198v-5.1h-8.6V10.4zm-58.1 18.9 5.1 18h-7.7l-4.2-16.6h-2.6v16.6h-7.5V10.4h9.3c1.7 0 3.4.1 5 .5 1.3.3 2.6.8 3.8 1.6 1.1.7 1.9 1.8 2.4 3 .6 1.5.9 3.1.8 4.8.1 2-.3 3.9-1 5.8-.6 1.4-1.9 2.6-3.4 3.2zm-2.5-8.5c.1-1.4-.2-2.8-1-4-.7-.8-1.8-1.3-3.6-1.3h-2.3v10.6h1.9c1.4.1 2.8-.3 3.8-1.3.9-1.1 1.3-2.6 1.2-4zm14.9 26.5h7.5V10.4h-7.5v36.9zm147.6-36.9h-6.4L281.2 21l-4.4-10.6h-7.1l7 17.2-7.3 19.8h6.4l4.2-11.6 4.8 11.6h7l-7.4-18.1 6.9-18.9zm-34.7 25.9v1.8c0 .5-.1 1.1-.2 1.6s-.3.9-.5 1.4c-.2.4-.6.7-1 .9-.5.2-1 .4-1.5.3-.5 0-1-.1-1.5-.3-.4-.2-.7-.5-1-.9-.3-.4-.4-.9-.5-1.4-.1-.5-.2-1.1-.2-1.6s-.1-1.1-.1-1.8V10.4h-7.4v25c0 1.8.1 3.6.5 5.3.3 1.4.9 2.7 1.7 3.8.8 1.1 2 2 3.3 2.5 3.4 1.1 7 1.1 10.4 0 1.3-.5 2.5-1.3 3.3-2.5.8-1.2 1.4-2.5 1.7-3.8.4-1.8.5-3.5.5-5.3v-25h-7.4l-.1 25.9zm-52.2-25.9v36.9h7.5V10.4h-7.5zm23.3 20.2h6.7v-5.2h-6.7v-9.8h8.6v-5.2h-16.1v36.9h16.2v-5.1h-8.7V30.6z"></path>
  <path d="M28 68.5C25.6 67.2 5.4 56.3 1.8 47.2 0 42.8.5 26.6.7 23.4h54.9c.1 3.2.6 19.5-1.2 23.8-3.7 9.1-23.9 20-26.4 21.3" style="fill:#faf4c6"></path>
  <path class="st0" d="m28 69-.2-.1C25.5 67.7 5.1 56.7 1.3 47.4-.5 42.9 0 26.6.2 23.4v-.5h55.9v.5c.1 3.2.5 19.6-1.2 24-3.7 9.1-22.8 19.5-26.6 21.5 0 0-.2.1-.3.1zM1.1 23.9C.8 32.6.9 43.8 2.2 47 5.8 55.8 24.9 66.2 28 67.9c3.2-1.7 22.3-12.2 25.9-20.9 1.6-4 1.3-19.1 1.2-23.1h-54z"></path>
  <path style="fill:#005fab" d="M.7.5h54.9v21.8H.7z"></path>
  <path class="st0" d="M56.1 22.8H.2V0h55.9v22.8zm-54.9-1h53.9V1H1.2v20.8z"></path>
  <path d="M15.7 42.4c0-.3 0-.5-.2-.8l10.6-9.1c.5.3 1 .5 1.5.7.2.1.4.1.5.1h2.8c.9 0 1.8-.1 2.7-.3 1.3-.2 2.7-.5 4-.7.9-.2 1.8-.2 2.6 0 .6.2 1.2.4 1.7.7.6.3 1.3.6 2 .8.8.2 1.6.1 2.2-.3.2-.1.3-.3.3-.4.3-.9 0-1.9-.8-2.5-1.1-.8-2.5-1.4-3.8-1.6-1.1-.2-2.1-.2-3.2 0-1.1.1-2.1.3-3.2.6-.8.3-1.7.7-2.5 1.1-.7.3-1.5.5-2.2.6-.8.1-1.7-.1-2.4-.6-.3-.2-.3-.3 0-.4.3-.2.7-.4 1.1-.6-.3-.1-.5-.2-.7-.3-.1 0-.1-.1-.2-.2l.2-.2c.7-.5 1.6-.7 2.4-.5.5.1 1 .4 1.4.8.2.2.5.2.7.1 1.7-.6 3.5-1 5.3-1.2.6-.1 1.3-.1 1.9-.2.9-.1 1.7 0 2.6.3.7.2 1.5.4 2.2.8 1 .5 1.7 1.3 2.1 2.4.2.6.2 1.3-.1 1.9-.4.9-1.2 1.5-2.2 1.7h-1c.2.3.4.7.6 1.1.3.7.6 1.5.7 2.2 0 .7-.1 1.3-.5 1.9-.2.3-.4.7-.6 1-.2.4-.3.8-.2 1.2.1.6.3 1.3.5 1.9.1.3.2.6.2 1 0 .3-.1.6-.3.8-.3.3-.4.8-.3 1.3l.6 2.7c0 .2.1.5.1.8 0 .1-.1.2-.1.2-.4.2-.6.6-.6 1 0 .6-.3 1.1-.9 1.2-.4.1-.9.2-1.3.2 0 0-.1-.1-.1-.2 0-.2-.1-.2-.2-.2h-.3c-.3 0-.3-.2-.1-.4.1-.1.2-.2.4-.3.3-.4.7-.7 1-1 .3-.2.4-.5.3-.9 0-.5-.1-.9-.2-1.4-.1-.7-.2-1.4-.3-2-.1-.6-.5-1.2-.9-1.6l-.4-.4-.9 1.2c-.3.4-.5.8-.6 1.3-.2 1-.3 1.9-.5 2.9-.2.5-.4 1.1-.7 1.5 0 .1-.1.1-.2.2-.3 0-.3.2-.3.4 0 .5-.4.9-.8 1.1-.3 0-.7.1-1 0h-.9c-.1 0-.2-.1-.2-.1 0-.2 0-.2-.2-.3-.2-.1-.1-.3 0-.4s.2-.4.3-.5c.1-.2.2-.3.4-.4.1-.2.3-.3.5-.4.1-.1.2-.3.1-.5s0-.3.1-.4c.3-.2.5-.5.8-.8.1-.2.2-.3.3-.5.3-.9.4-1.8.4-2.7 0-.1.1-.2.1-.3v-.1c-.3-.3-.4-.8-.7-1.1-.3-.2-.6-.5-.9-.8-.2-.2-.3-.3-.4-.5v-.2c0-.2-.1-.3-.2-.3h-.1c-.6.1-1.2.2-1.8.4-.2 0-.3.2-.4.3-.8.4-1.5.8-2.1 1.3-.4.3-.7.7-1 1l-.2.2c0-.1-.1-.2-.1-.3 0-.7-.4-1.2-1-1.5-.2-.1-.4-.2-.7-.1-.8.2-1.6.3-2.5.5-.1 0-.3.1-.4.1-.3 0-.5.1-.6.4-.1.3-.2.6-.3 1 0 1.2 0 2.3.2 3.5 0 .4 0 .8-.1 1.3 0 .2 0 .3.1.4.1 0 .1.1.1.2.2.3.2.3-.1.3-.2 0-.3.2-.3.3v1c0 .3-.2.7-.5.8-.4.2-.7.4-1.1.5-.2 0-.4 0-.6-.1-.2-.1-.4-.1-.5-.2-.2-.1-.2-.2-.1-.4.2-.3.3-.7.5-1l.3-.6c.3-1 .4-2 .1-3-.1-.6-.2-1.3-.4-1.9 0 0 0-.1-.1-.1-.1.2-.2.5-.3.7-.5 1.1-.6 2.2-.6 3.4 0 .2 0 .4.1.5 0 .2 0 .4-.3.4-.2 0-.3.1-.5.1s-.3.1-.2.3c0 .2.1.3-.1.4-.1 0 0 .2 0 .4.1.6-.1 1.2-.6 1.5-.4.2-.9.3-1.3.4h-.3s0-.1-.1-.2h-.4c-.2 0-.3-.1-.2-.3.2-.5.3-1 .5-1.5-.1-.5.3-.7.5-1 .3-.3.6-.7.9-1.1.1-.3.2-.7.2-1.1v-2.2c-.2-.4-.2-.9-.1-1.4-.3.1-.6.2-.9.2-1.1.3-2.3-2.9-2.1-3.9" style="fill:#ffe400"></path>
  <path class="st4" d="M17.6 55.1c0-.1-.1-.1-.1-.2h-.3c-.1 0-.2 0-.3-.1-.1-.1 0-.2 0-.3.1-.3.2-.5.3-.8l.2-.7c-.1-.4.2-.7.4-.9l.2-.2c.3-.3.6-.7.8-1.1.1-.3.2-.7.2-1v-2.2c-.2-.4-.2-.9-.1-1.3h-.1c-.2 0-.4.1-.6.2-.2.1-.5 0-.8-.3-.9-.8-1.6-2.9-1.4-3.7h.1c-.2.8.5 2.8 1.4 3.6.2.2.5.3.7.3.2 0 .4-.1.6-.2l.3-.1v.1c-.1.5-.1.9.1 1.3v2.2c0 .4-.1.7-.2 1.1-.2.4-.5.8-.9 1.1l-.2.2c-.2.2-.5.4-.4.8l-.2.7c-.1.3-.2.6-.3.8v.2h.6s0 .1.1.1h.3c.4-.1.9-.2 1.3-.4.5-.3.7-.9.6-1.4v-.5c.1-.1.1-.2.1-.3v-.2c0-.1.1-.1.2-.1h.5c.1 0 .1 0 .2-.1v-.2c0-.2-.1-.4-.1-.5-.1-1.2.1-2.3.6-3.4.1-.2.2-.4.3-.7v-.1l.1.1.1.1c0 .2.1.4.1.6.1.4.1.9.2 1.3.2 1 .2 2-.1 3-.1.2-.2.4-.3.7 0 .1-.1.2-.1.3-.1.2-.2.5-.3.7 0 .1-.1.2 0 .2 0 0 .1.1.2.1.2.1.4.2.5.2.2.1.4.1.5.1.4-.1.7-.3 1.1-.5.3-.2.5-.4.5-.8v-1c0-.2.2-.4.4-.4h.2s-.1-.1-.1-.2-.1-.1-.1-.2c-.1-.1-.2-.3-.1-.5.1-.4.1-.8.1-1.2-.2-1.2-.2-2.3-.2-3.5 0-.3.1-.7.3-1 .1-.3.4-.5.6-.4.1 0 .3 0 .4-.1.2 0 .4-.1.6-.1.6-.1 1.2-.2 1.9-.3.2-.1.5 0 .7.1.6.3 1 .9 1 1.5 0 .1 0 .1.1.2 0 0 .1 0 .1-.1l.3-.3.7-.7c.7-.5 1.4-1 2.1-1.3.1 0 .1-.1.2-.1.1-.1.2-.1.3-.2.6-.1 1.1-.3 1.7-.4h.2c.2 0 .3.2.3.4v.2c.1.2.2.3.4.5.3.3.6.5.9.8.2.2.3.4.5.6.1.2.2.3.3.5v.2s0 .1-.1.1c0 .1-.1.1-.1.2 0 .9-.1 1.8-.4 2.7 0 .2-.2.4-.3.6-.2.3-.5.5-.8.8-.1.1-.2.2-.1.4s0 .4-.1.5l-.2.2-.2.2c-.1.1-.2.3-.4.4-.1.1-.1.2-.2.2-.1.1-.1.2-.2.3-.1.2-.1.3 0 .3.1.1.2.2.2.4l.1.1h1.9c.4-.2.8-.5.8-1v-.1c0-.2.1-.4.3-.4.1 0 .1-.1.2-.1.3-.5.5-1 .7-1.5l.1-.5c.2-.8.3-1.6.4-2.4.1-.5.3-.9.6-1.3.2-.2.4-.5.6-.7l.4-.5c.1.1.3.2.4.4.5.4.8 1 .9 1.6 0 .4.1.9.2 1.3 0 .2.1.5.1.8v.1c.1.4.1.8.2 1.3.1.3-.1.7-.3.9-.4.3-.7.7-1 1l-.2.2-.2.2c-.3.1-.3.2-.3.3 0 0 .1.1.2.1h.3c.1 0 .2 0 .2.1v.2s0 .1.1.1c.4 0 .9-.1 1.3-.2.5-.2.8-.6.8-1.2 0-.5.2-.9.6-1.1.1 0 .1-.1.1-.2 0-.2 0-.5-.1-.7-.1-.3-.1-.7-.2-1-.1-.5-.2-1.1-.4-1.7-.1-.5 0-1 .3-1.3.2-.2.3-.5.3-.7 0-.1 0-.2-.1-.3 0-.2-.1-.4-.2-.6 0-.2-.1-.4-.2-.7l-.3-1.2c-.1-.4 0-.9.2-1.3.3-.4.5-.7.6-1 .3-.6.5-1.2.5-1.8-.1-.8-.3-1.5-.7-2.2-.2-.4-.4-.7-.6-1.1l.1-.1h.2c.3.1.6.1.9 0 1-.2 1.8-.8 2.2-1.7.3-.6.3-1.2.1-1.8-.4-1-1.1-1.8-2.1-2.3-.7-.3-1.4-.6-2.1-.8-.8-.2-1.7-.3-2.6-.3h-.2c-.6.1-1.2.1-1.8.2-1.8.2-3.5.6-5.3 1.2-.2.1-.5.1-.7-.1-.4-.4-.9-.6-1.4-.7-.8-.2-1.7-.1-2.4.4l-.1.1c0 .1.1.1.1.1.1.1.3.1.5.2.1 0 .1.1.2.1h.1l-.1.1c-.1.1-.2.1-.4.2-.3.1-.5.2-.7.4-.1.1-.2.1-.2.1l.2.2c.7.5 1.5.7 2.3.5.8-.1 1.5-.3 2.2-.6.3-.1.7-.3 1-.5l1.5-.6c1-.3 2.1-.5 3.2-.6 1.1-.1 2.1-.1 3.2 0 1.4.2 2.7.8 3.9 1.6.8.6 1.1 1.6.8 2.6-.1.2-.2.3-.3.5-.7.5-1.5.6-2.3.3-.7-.2-1.3-.5-2-.8-.5-.2-1.1-.5-1.7-.7-.8-.2-1.7-.2-2.6 0-.9.1-1.9.3-2.8.5-.2.2-.6.2-1 .3-.9.2-1.8.3-2.7.3h-2.8c-.2 0-.4 0-.6-.1-.5-.2-1-.4-1.4-.7l-10.5 9c.1.2.2.5.2.8h-.1c0-.3 0-.5-.2-.7L26 32.4c.5.2 1 .5 1.5.7.2.1.3.1.5.1h2.8c.9 0 1.8-.1 2.7-.3.4-.1.8-.1 1.2-.2.9-.2 1.8-.3 2.8-.5.9-.2 1.8-.2 2.6 0 .6.2 1.2.4 1.7.7.6.3 1.3.6 1.9.8.7.2 1.5.1 2.2-.3.1-.1.2-.2.3-.4.3-.9 0-1.9-.8-2.5-1.1-.8-2.5-1.4-3.8-1.6-1-.2-2.1-.2-3.2 0-1.1.1-2.1.3-3.1.6l-1.5.6c-.3.2-.7.3-1 .5-.7.3-1.5.5-2.2.6-.9.1-1.7-.1-2.4-.6-.1-.1-.2-.2-.2-.3 0-.1.1-.2.2-.2.2-.1.5-.2.8-.4.1 0 .1-.1.2-.1h-.1c-.2-.1-.3-.1-.5-.2-.1 0-.2-.1-.2-.2 0 0 0-.1.2-.2.7-.5 1.6-.7 2.5-.5.5.1 1 .4 1.5.8.2.2.4.2.6.1 1.7-.6 3.5-1 5.3-1.2.6-.1 1.2-.1 1.8-.2h.2c.9-.1 1.8 0 2.6.2.7.2 1.5.5 2.2.8 1 .5 1.8 1.4 2.1 2.4.2.6.2 1.3-.1 1.9-.4.9-1.3 1.6-2.3 1.7h-.9c.2.3.4.6.5 1 .3.7.6 1.5.7 2.3 0 .7-.1 1.3-.5 1.9-.2.3-.4.7-.6 1-.2.3-.3.8-.2 1.2l.3 1.2c.1.2.1.4.2.7 0 .2.1.4.2.6 0 .1 0 .2.1.3 0 .3-.1.6-.3.8-.3.3-.4.8-.3 1.2.1.6.2 1.1.4 1.7.1.3.2.7.2 1 0 .2.1.5.1.8 0 .1-.1.2-.2.2-.4.2-.6.6-.6 1 0 .6-.3 1.1-.9 1.3-.4.1-.9.2-1.3.2 0 0-.1 0-.1-.1 0 0-.1-.1-.1-.2V53h-.5c-.2 0-.2-.1-.3-.2 0-.1 0-.2.1-.3l.2-.2.2-.2c.3-.4.7-.7 1-1 .2-.2.4-.5.3-.8 0-.4-.1-.9-.2-1.3v-.1c0-.2-.1-.5-.1-.8-.1-.4-.1-.9-.2-1.3-.1-.6-.4-1.1-.9-1.5L41 45l-.3.4c-.2.2-.4.5-.6.7-.3.4-.5.8-.6 1.2-.1.8-.3 1.6-.4 2.4l-.1.5c-.2.6-.4 1.1-.7 1.6 0 .1-.1.2-.2.2-.2 0-.2.2-.3.3v.1c0 .5-.4 1-.9 1.1-.3.1-.7.1-1 .1H35c-.1 0-.2-.1-.2-.1v-.1c0-.1 0-.2-.1-.3-.1-.1-.2-.2 0-.5.1-.1.1-.2.2-.3 0-.1.1-.2.2-.3.1-.2.2-.3.4-.4l.2-.2.2-.2c.1-.1.2-.2.1-.4s0-.4.2-.5c.3-.2.5-.5.8-.8.1-.2.2-.3.3-.5.3-.9.4-1.8.4-2.7 0-.1 0-.2.1-.2v-.2c-.1-.1-.2-.3-.3-.5-.1-.2-.2-.4-.4-.6-.3-.3-.7-.5-1-.8-.2-.2-.3-.3-.4-.5v-.2c0-.1-.1-.2-.2-.3h-.2c-.6.1-1.1.2-1.7.4-.1 0-.2.1-.2.1-.1 0-.1.1-.2.1-.8.3-1.5.8-2.1 1.3-.2.2-.5.4-.7.7l-.3.3-.1.1-.1.1V46c0-.1-.1-.2-.1-.3 0-.6-.4-1.2-1-1.5-.2-.1-.4-.2-.6-.1-.6.1-1.2.2-1.9.3l-.6.1c-.1 0-.3.1-.4.1-.2 0-.5.1-.5.3l-.3.9c0 1.2 0 2.3.2 3.5 0 .4 0 .9-.1 1.3 0 .1 0 .3.1.3s.1.1.2.2c.1.2.2.2.1.3s-.1.1-.3.1c-.1 0-.3.1-.3.3v1c0 .4-.2.7-.6.9-.4.2-.7.4-1.1.5-.2 0-.4 0-.6-.1-.2-.1-.4-.1-.5-.2-.1 0-.2-.1-.2-.2s0-.2.1-.3c.1-.2.2-.5.3-.7 0-.1.1-.2.1-.3l.3-.6c.3-1 .4-2 .1-3-.1-.4-.2-.9-.2-1.3 0-.2-.1-.4-.1-.6-.1.2-.1.4-.2.5-.4 1-.6 2.2-.6 3.3 0 .2 0 .4.1.5 0 .2 0 .3-.1.3-.3.5-.4.5-.5.5h-.6v.2c0 .1.1.3-.1.4v.4c.2.6-.1 1.2-.6 1.5-.4.2-.9.3-1.3.4-.2.1-.3.1-.5.2zM19 28.5l-.1-.2.1-.1c.2-.2.3-.5.2-.8 0-.1-.1-.3-.2-.4-.2-.1-.4-.2-.6-.1-.4 0-.7.2-1 .5-.1.1-.1.4-.1.6v.3h-.6V28h.5v-.1c0-.2 0-.5.2-.7.3-.3.7-.5 1.1-.5.3 0 .5 0 .8.2.1.1.3.3.3.5.2.4 0 .8-.3 1.1-.2-.1-.2-.1-.3 0zm-1.2-.1c-.1-.2 0-.7.1-1 .1-.1.2-.2.3-.2v.2s-.1 0-.1.1c-.1.2-.1.6-.1.8l-.2.1z"></path>
  <path d="m13 29.4-.4-.2h-.1l-.1-.2.6.4zm-.4-.3z" style="fill:#040505"></path>
  <path class="st6" d="M13.5 29.6c-.4 0-.4-.3-.6-.4-.3-.2-.4.1-.6 0h.8c.1 0 1.4-.1 1.4-.1-.2.2-.5.4-.8.6-.1-.1-.1-.1-.2-.1m14.3 4.2c-.5-.5-1-.9-1.6-1.2l-1-1.1c-.1-.3-.3-.5-.5-.7l-1.2-.9-.2-.2c.1-.1.2-.1.2-.2.2-.1.2-.2.1-.3l-.6-.6c-.5-.3-1.1-.6-1.7-.9-.3-.1-.3-.2-.1-.5.1-.2.3-.3.5-.5 0 0 .1-.1.1-.2s-.1-.1-.2-.1c-.2 0-.5-.1-.8-.1s-.5-.1-.8-.1v-.1c.2-.1.4-.1.6-.2.1 0 .2-.1.2-.1 0-.1-.1-.1-.2-.2-.3-.3-.8-.4-1.2-.3h-.7c.1-.2.2-.3.4-.4s.4-.2.5-.2c0 0 .1-.1.1-.2s-.1-.1-.2-.1h-.2c-1-.1-2 .2-2.9.7-.3.2-.6.4-1 .3h-.1c-.3.2-.6.4-.9.5-.3.2-.4.5-.3.9.1.1 0 .3-.1.3-.2.1-.4.2-.5.3-.6.3-1.1.7-1.6 1.2-.1.1-.2.2-.2.3 0 .2-.1.4-.3.5l-1.2 1.2c-.2.2-.3.5-.2.7.1.1.1.3.2.4.1.2.3.5.4.7 0 0 .2.5.4.5.4.2.9.2 1.3 0 .7-.3 1.4-.6 2.1-.8.4-.1 2.1-.1 1.5.5-.4.3-1 .5-1.5.4-.3 0-.6.1-.9.2l-1.1.3s-1.1.1-.9.3l.3.4c.4.5.1.5.9.7.5.1.6-.1 1-.2h.3l2.6-1.2-.3 1.3c-.7 1.1-1.2 2.2-1.5 3.5-.3 1.5.1 3 1.2 4 .1.2.3.3.5.5.2.1.3.3.5.5.4.3.8.6 1.2 1 .3.2.5.4.8.6.4.3.8.6 1.2.8-.4-.6-.7-1.4-.8-2.1l1.2.9-.6-1.2c-.3-.6-.5-1.2-.5-1.9 0-.1 0-.2.1-.2.1.1.2.1.2.2 0 .7.2 1.4.6 2 .4.8.9 1.4 1.6 1.9.4.2.8.3 1.2.4-.1-.2-.2-.4-.2-.6l-.6-1.2-.1-.1c-.1-.1-.2-.3-.3-.4-.1-.2-.2-.4-.3-.5-.3-.4-.5-.8-.8-1.2-.2-.4-.3-.8-.3-1.2 0-.1.1-.1.1-.2 0 .1.1.1.1.2 0 .3.1.6.2.9.3.5.6.9 1 1.4 0-.4 0-.8-.1-1.2v-.4c.1 0 .1 0 .2.1.2.2.4.3.6.5-.1-.4-.2-.7-.3-1-.1-.4-.3-.8-.6-1-.1 0-.1-.1-.2-.2v-.1h.1c.4.3.8.5 1 1.1.1.5.2.9.5 1.3.1.1.2.3.4.3h.2V42c-.1-.2-.1-.5-.2-.8-.1-.7-.3-1.3-.6-1.9l-.3-.6v-.3c.1 0 .2 0 .2.1.2.2.4.5.6.7.2.2.4.4.7.4-.6-.4-.7-1.1-.9-1.7-.1-.2-.3-.5-.5-.7 0-.1-.1-.2-.1-.2h.3c.1 0 .1.1.1.1.2.3.4.7.6 1 .2.6.6 1.2 1.2 1.4.1 0 .2.1.2.2.1.1.2.2.3.2.4.2.7.4 1.1.6.1 0 .1.1.2.2 0-.4 0-.8-.2-1.2-.3-.8-.8-1.5-1.5-2-.3-.2-.5-.4-.8-.7l-.2-.2.1-.1c.9.5 1.6 1.3 2.2 2.2v-.2c-.3-1-1-1.8-1.8-2.3-.2-.1-.3-.2-.2-.4 0-.1.2-.1.3-.1-.1-.2-.3-.5-.5-.8l.1-.1c.1 0 .1.1.2.1.1.1.2.2.2.4.2.3.4.6.7.7.6.1 1.1.2 1.7.2.2 0 .5 0 .7-.1-.3-.5-.6-1-.9-1.4-.1-.2-.2-.4-.4-.6-.4-.5-.9-.9-1.5-1.2-.2.4 3.5 1.4 2.9.9"></path>
  <path class="st4" d="m20.4 46.1-.3-.1c-.4-.2-.8-.5-1.2-.8-.3-.2-.5-.4-.8-.6-.1-.1-.3-.2-.4-.3-.3-.2-.5-.4-.8-.6l-.2-.2-.3-.3c-.2-.1-.4-.3-.5-.5a4.34 4.34 0 0 1-1.2-4c.3-1.2.8-2.4 1.5-3.5l.3-1.2-2.5 1.1h-.1c-.2 0-.3.1-.4.1-.2.1-.3.1-.7.1-.5-.2-.6-.2-.7-.4-.1-.1-.1-.2-.2-.3l-.3-.6v-.1c.1-.2.8-.3 1-.3l1.1-.3c.3-.1.6-.2.9-.2.5.1 1.1 0 1.5-.4.1-.1.1-.2.1-.2-.1-.2-1.2-.3-1.6-.2-.7.2-1.4.5-2.1.8-.4.2-.9.2-1.4 0-.2-.1-.4-.5-.4-.6-.1-.2-.2-.5-.4-.7-.1-.1-.1-.3-.2-.4-.1-.3 0-.6.2-.8l.6-.6.5-.5c.2-.1.2-.3.2-.5s.1-.3.2-.4c.5-.5 1-.9 1.6-1.2.1 0 .2-.1.3-.2.1 0 .1-.1.2-.1s.1-.1.1-.1v-.1c-.1-.4 0-.8.3-1 .2-.2.5-.3.7-.4l.2-.1s.1-.1.2 0c.3.1.6-.1.8-.2l.1-.1c.9-.5 1.9-.8 3-.7h.2c.1 0 .1.1.2.1 0 .1 0 .2-.1.2-.2.1-.4.2-.5.3H19c-.1 0-.2.1-.3.2h.6c.4-.1.9.1 1.2.3l.2.2v.1h-.2s-.1 0-.2.1c-.1 0-.3.1-.4.1h-.1.2c.2 0 .4.1.5.1h.4c.1 0 .3 0 .4.1.1 0 .2.1.2.1 0 .1 0 .2-.1.3l-.2.2-.3.3c-.1.1-.1.2-.1.2l.2.2c.1.1.3.1.5.2.4.2.8.4 1.2.7.2.2.5.4.7.6.1.1.1.2.1.2 0 .1-.1.1-.2.2-.1 0-.1.1-.2.1 0 .1.1.1.2.2l.1.1c.4.3.8.6 1.1.8.2.2.4.5.5.7l1 1c.6.3 1.1.7 1.6 1.2 0 0 .1.1.1.2-.1.2-1.7-.2-2.9-.5.4.3.8.6 1.1 1 .1.2.3.4.4.6.2.3.4.7.6 1l.3.5h-.1c-.2 0-.5.1-.7.1-.6 0-1.2-.1-1.7-.2-.3-.1-.5-.4-.7-.7-.1-.1-.1-.2-.2-.4l-.1-.1.3.6.1.3h-.3c0 .1-.1.2.2.3 1 1 1.7 1.8 2 2.8v.4l-.1-.1c-.5-.9-1.3-1.6-2.1-2.1 0 .1.1.1.1.2.2.2.5.4.8.7.7.5 1.2 1.3 1.5 2.1.2.4.3.8.2 1.2v.1l-.1-.1-.2-.2c-.1-.1-.2-.1-.4-.2s-.5-.3-.7-.4c-.1-.1-.2-.2-.3-.2-.1 0-.1-.1-.2-.1-.6-.2-1.1-.8-1.2-1.4-.1-.3-.3-.7-.5-1l-.1-.1h-.1s0 .1.1.1c.2.2.3.4.5.7.1.2.1.3.2.5.2.5.3.9.7 1.2l.2.2H24c-.3 0-.5-.2-.7-.4-.1-.1-.2-.2-.3-.4-.1-.1-.2-.2-.3-.4 0 0-.1 0-.1-.1v.2c.1.2.2.3.3.5l.1.1c.3.6.6 1.3.6 2 0 .2.1.5.2.8v.2h-.2c-.2-.1-.3-.2-.4-.4-.3-.4-.5-.8-.5-1.3-.1-.4-.4-.7-.8-.9 0 0-.1-.1-.2-.1l.2.2c.4.2.6.6.7 1 0 .2.1.3.1.5 0 .1.1.3.1.5v.2l-.1-.1c-.2-.2-.4-.3-.6-.5H22v.3c0 .3 0 .6.1.9v.5l-.3-.8c-.1-.2-.2-.3-.3-.4-.2-.3-.5-.7-.7-1-.1-.3-.2-.6-.2-.9l-.1-.1v.1c0 .4.1.8.3 1.2.1.2.3.4.4.6.1.2.2.4.4.5 0 .1.1.2.1.2 0 .1.1.2.2.3.1.1.2.3.3.4 0 0 .1.1.1.2l.1.3c.1.3.3.6.4.9.1.1.1.2.2.4 0 .1.1.2.1.2v.1H23c-.4-.1-.8-.2-1.2-.4-.7-.5-1.3-1.2-1.6-2-.4-.6-.5-1.3-.6-2 0 0 0-.1-.1-.1v.1c0 .6.1 1.3.5 1.8.1.3.3.5.4.8.1.1.1.2.2.4l.1.2-1.3-1c.1.7.3 1.4.7 2l.3.3zm-.8-4.8c0 .1.1.1.1.1.1 0 .1.1.1.2 0 .7.2 1.3.5 1.9.4.8.9 1.4 1.6 1.9.3.2.7.3 1 .4v-.1c0-.1-.1-.3-.2-.4-.1-.3-.3-.6-.4-.9l-.1-.3s0-.1-.1-.1c-.1-.1-.2-.3-.4-.4-.1-.1-.1-.2-.2-.3 0-.1-.1-.2-.1-.2-.1-.2-.2-.4-.4-.5-.1-.2-.3-.4-.4-.6-.2-.4-.4-.8-.3-1.2 0-.1 0-.1.1-.2v-.1l.1.1s.1.1.1.2c0 .3.1.6.2.9.2.3.4.7.7 1 .1.1.1.2.2.3 0-.3 0-.6-.1-.9v-.5h.1c.1 0 .1 0 .2.1s.3.2.5.4c0-.1 0-.2-.1-.3 0-.2-.1-.4-.1-.5-.1-.4-.3-.7-.6-.9-.1 0-.2-.1-.2-.2V40h.1c.1 0 .1.1.2.1.3.2.7.5.8 1 .1.5.2.9.5 1.3.1.1.2.2.4.3h.1v-.1c-.1-.2-.1-.5-.2-.8-.1-.7-.3-1.3-.6-1.9l-.1-.1c-.1-.2-.2-.3-.3-.5v-.4h.2c.1 0 .1 0 .2.1s.2.2.3.4c.1.1.2.2.3.4.1.1.2.2.4.3-.3-.3-.4-.7-.5-1 0-.2-.1-.3-.2-.5s-.3-.5-.5-.7l-.1-.1-.1-.2h.1c.1 0 .2 0 .3.1.1 0 .1.1.2.2.2.3.4.7.6 1 .2.6.6 1.1 1.2 1.4.1 0 .2.1.2.2.1.1.2.2.3.2.2.1.5.3.7.4.1.1.2.1.4.2l.1.1c0-.4-.1-.7-.2-1-.3-.8-.8-1.5-1.4-2-.3-.2-.5-.4-.8-.7-.1-.1-.1-.2-.2-.2l.2-.1c.8.5 1.6 1.2 2.1 2-.3-1-1-1.8-1.8-2.3-.3-.2-.3-.3-.2-.5 0-.1.1-.1.2-.1l-.2-.5-.3-.6c.1 0 .1.1.2.1.1.1.2.3.2.4.2.2.4.6.6.6.6.1 1.1.2 1.7.2.2 0 .4 0 .6-.1l-.2-.4c-.2-.3-.4-.7-.6-1-.1-.2-.2-.4-.4-.6-.4-.5-.9-.9-1.5-1.2l-.4-.2.5.1c1.4.4 2.9.7 3.1.6-.5-.5-1-.9-1.6-1.2l-1-1.1c-.1-.3-.3-.5-.5-.7-.4-.3-.8-.5-1.1-.8l.1-.1-.2-.2c.1-.1.2-.1.3-.2.1 0 .1-.1.1-.1s0-.1-.1-.1l-.6-.6c-.4-.2-.8-.5-1.2-.7-.1-.1-.3-.1-.5-.2-.1-.1-.2-.1-.3-.2 0-.1 0-.2.1-.3l.3-.3.2-.2.1-.1-.1-.1h-.8c-.2 0-.3-.1-.5-.1H20v-.2l.2-.1c.1 0 .3-.1.4-.1 0 0 .1 0 .1-.1s-.1-.1-.1-.1c-.3-.2-.7-.4-1.1-.3h-.8v-.1c0-.2.2-.3.4-.4h.1c.2-.1.4-.1.5-.2 0 0 0-.1.1-.1l-.1-.1h-.2c-1 0-2 .2-2.9.7l-.1.1c-.3.2-.6.4-.9.2h-.1l-.2.1c-.2.1-.5.3-.7.4-.3.2-.4.5-.3.8v.2l-.2.2c-.1.1-.1.1-.2.1-.1.1-.2.1-.3.2-.6.3-1.1.7-1.6 1.2-.1.1-.1.2-.2.3 0 .2-.1.5-.3.6l-.5.5-.6.6c-.2.2-.2.4-.2.6.1.1.1.3.2.4.1.2.3.5.4.7.1.2.2.5.3.5.4.2.9.2 1.3 0 .7-.3 1.4-.6 2.1-.8.3-.1 1.5-.1 1.7.3.1.1 0 .2-.1.4-.4.3-1 .5-1.6.4-.3 0-.6.1-.8.2l-1.1.3c-.4 0-.9.2-.9.2l.3.5c.1.2.2.3.2.3.1.2.1.2.6.4h.6c.1 0 .2-.1.4-.1h.1l2.7-1.3-.4 1.5c-.7 1.1-1.2 2.2-1.4 3.5-.3 1.4.1 2.9 1.2 4 .1.2.3.3.5.5l.3.3.2.2c.2.2.5.4.8.6.1.1.3.2.4.3.2.2.5.4.8.6.3.2.6.5 1 .7-.4-.6-.6-1.3-.6-2v-.1l1 .8-.1-.1c-.1-.3-.3-.5-.4-.8-.3-.6-.5-1.2-.5-1.9 0-.1 0-.2.1-.2l.1-.6zm-6.1-11.7c-.3 0-.4-.2-.5-.3 0-.1-.1-.1-.1-.1h-.6l-.2-.2h.4c.1 0 .2-.1.3 0h.1c.1 0 1.4-.1 1.4-.1h.2v.1c-.2.2-.5.4-.8.6h-.2zm-.5-.4s.1 0 0 0c.1.2.2.3.5.3h.1c.2-.1.4-.3.6-.4-.3 0-1.1.1-1.2.1z"></path>
  <path class="st4" d="M10.2 31.1c-.1.2.3.9.3.9l.2-.2.2-.4c.1-.1.7-.8.7-.8s-1.3.1-1.4.5"></path>
  <path class="st6" d="M7.4 33.6c.2.4.9.8 2.3.1 1.2-.5 5.7-.7 5.7-.7l-2.3.6c-1.4.7-2.8 1.2-4.3 1.5-1.6.2-2.6-.2-2.6-1.1 0-1.6.9-1.8.9-1.8.1.5.2 1 .3 1.4"></path>
  <path class="st4" d="M8.1 35.2c-.7 0-1.2-.2-1.6-.5-.2-.2-.3-.5-.3-.7 0-1.6.9-1.8.9-1.8h.1c.1.5.2.9.3 1.3.1.2.2.3.4.4.3.1.8.2 1.9-.3 1.1-.5 5.5-.7 5.7-.7h.5l-2.8.7c-1.4.7-2.8 1.2-4.3 1.5-.3.1-.6.1-.8.1zm-1-2.8c-.2.1-.8.4-.8 1.7 0 .3.1.5.3.7.4.4 1.2.5 2.2.4 1.5-.3 2.9-.8 4.3-1.5l1.8-.5c-1.2.1-4.2.3-5.1.7-1 .5-1.7.4-1.9.3-.2-.1-.4-.2-.5-.4-.2-.6-.3-1-.3-1.4zM18 44.3c-.2-.3-.4-.7-.7-1-.2-.3-.4-.5-.6-.8-.4-.8-.4-1.7-.1-2.5h.1c-.3.8-.2 1.7.1 2.5.1.3.4.5.6.8.3.3.5.7.7 1H18zm1.5-.6h-.1c.1-.8-.2-1.5-.7-2.1-.7-.5-1.1-1.3-1.1-2.2h.1c0 .8.4 1.6 1.1 2.1.5.6.8 1.4.7 2.2zm-3.6-4.6c0-.6.1-1.2.4-1.7.1-.1.1-.2.2-.4.2-.2.3-.5.3-.8h.2c0 .3-.2.6-.4.8-.1.1-.1.2-.2.3-.2.5-.4 1.1-.3 1.6h-.2v.2zm4.9-.6c-.8 0-1.6-.3-2.1-.9-.4-.7-.5-1.4-.5-2.1 0-.4 0-.8.1-1.1.2-.3.3-.7.4-1 .1-.3.1-.7 0-1.1-.1-.2-.4-.5-.7-.6-.1 0-.1-.1-.2-.1l.1-.1s.1.1.2.1c.3.2.6.4.7.7.1.4.1.8 0 1.2-.1.3-.2.7-.4 1-.1.3-.1.7-.1 1.1 0 .7.1 1.4.5 2.1.5.6 1.2.9 2 .9-.2-.3-.4-.5-.5-.8-.4-.9-.3-1.8.1-2.7.5-.6.8-1.2 1-2 .1-.8 0-1.7-.4-2.5-.3-.6-1-1-1.8-.9v-.1c.7-.1 1.5.3 1.9 1 .4.8.5 1.7.4 2.6-.1.8-.5 1.4-1 2-.4.8-.5 1.7-.1 2.6.1.3.3.6.5.9l.1.1h-.1c0-.3-.1-.3-.1-.3zm2.3-2c-.4 0-.7-.4-1-.7-.1-.2-.3-.4-.4-.4v-.1c.1-.1.3.1.5.4.3.3.6.7 1 .7 0-.9 0-1.8.1-2.7-.1-.8-.5-1.5-1.1-1.9l.1-.1c.6.5 1.1 1.2 1.1 2-.1.9-.1 1.8-.1 2.8h-.2zm-4-.2c-.2-.8 0-1.7.5-2.3.3-.7.4-1.5.1-2.2h.1c.3.8.3 1.6-.1 2.3-.5.6-.7 1.5-.5 2.2h-.1zm3.3-1.1c-.3-.2-.3-.7-.2-1V34h.1v.2c0 .3 0 .8.2.9l-.1.1zm-5.9-1.3-.1-.1c.1 0 .2 0 .3-.1.1-.1.3-.4.3-1.2-.1-.5-.2-1-.5-1.5l.1-.1c.3.5.4 1 .5 1.6 0 .7-.1 1.1-.3 1.3-.1.1-.2.1-.3.1zm-3.7-1.5-.1-.1c.1-.3.1-.6 0-.8l.1-.1c.2.3.2.7 0 1zm2.1-1.2c-.2 0-.5-.1-.7-.2-.1-.1-.5-.5-.4-.7h.1c-.1.1.2.4.4.6.2.2.5.2.8.2v.1h-.2zm8.3-1.4c-.8-.4-1.7-.6-2.6-.5v-.1c.9-.1 1.9.1 2.7.5l-.1.1zM18.4 28l-.1-.1c.3-.1.4-.4.3-.7-.1-.4-.4-.9-.8-1-.4-.1-.8 0-1 .3-.3.3-.1.6 0 1 0 .1.1.2.1.3v.1H16v-.1h.7c0-.1 0-.1-.1-.2-.1-.4-.3-.8 0-1.1.3-.3.7-.4 1.1-.3.4.1.9.6.9 1 .2.3.1.6-.2.8zm-.9-.2v-1.1h.1c-.1.3-.1.7 0 1l-.1.1zm-2.1-1h-.1c0-.1 0-.3.1-.5.1-.3.1-.8 0-.9l.1-.1c.1.2.1.6 0 1 0 .2 0 .4-.1.5zm.5-.3h-.1c0-.4.1-.9.3-1.2l.1.1c-.2.3-.3.7-.3 1.1zm2.7-.7s-.1 0 0 0l-.1-.1h.4c.1 0 .3-.1.5 0v.1H19c-.2 0-.3.1-.4 0zm-1.9-.1v-.1c.2 0 .4-.1.6-.2.2-.1.4-.2.7-.2v.1c-.2 0-.4.1-.6.2-.2.1-.4.3-.7.2zm-3 3.8h-.2v-.2h-.1l-.2-.3c.2 0 .3 0 .4.1.1.1.1.2.1.4zm4 25.4h-.1c.1-.4.2-.7.3-1.1.1-.2.1-.4.2-.6.1-.2.2-.4.2-.6-.3 0-.6.1-.8.2v-.1c.8-.3 1.7-.3 2.5.1v.1c-.5-.2-.9-.3-1.4-.3-.1.2-.2.4-.2.7-.1.2-.2.4-.2.6-.2.2-.3.6-.5 1zm4.2-.6c-.1-.5.2-.9.4-1.2.1-.2.3-.4.3-.6h.1c-.1.2-.2.5-.4.7-.2.3-.4.7-.4 1.1zm13.2-.8H35c.1-.2.6-1.6 1.1-1.6h.1v.1c-.4 0-.9 1-1.1 1.5zm6.5-.4h-.1c.2-.4.9-1 1.3-1.3l.1-.1.1.1-.1.1c-.4.2-1.1.8-1.3 1.2zm-17.5-.3c-.2 0-.4-.1-.6-.2-.2-.1-.4-.2-.5-.2-.2 0-.4 0-.7.1-.2.1-.3.1-.5.1v-.1c.2 0 .3-.1.5-.1.2-.1.5-.2.7-.1.2 0 .4.1.6.2s.4.2.6.2l-.1.1zm13.7-.7c-.8-.3-1.6-.3-2.4-.1v-.1c.8-.2 1.7-.2 2.4.1v.1zm4.1-.1c.6-.4 1.3-.6 2.1-.5v.1c-.8-.1-1.5 0-2.1.4zm-20.2-4.6c-.1-.2 0-.5.1-.9.1-.3.2-.6.1-.8h.1c0 .2-.1.5-.2.8-.1.3-.2.6-.1.8v.1zm-2.8-1c-.1-.6-.3-1.2-.8-1.7l.1-.1c.5.5.7 1.1.8 1.8h-.1zm20.1-.6c-.1 0-.2 0-.4-.1-.3-.1-.6-.3-.7-.7-.2-.5-.3-1.2-.1-1.6-.2-.1-.3-.2-.5-.3-.2.5-.3 1-.2 1.4 0 .2.3.9.6 1 .1 0 .2 0 .2-.1l.1.1c-.1.2-.2.2-.3.1-.3-.1-.7-.8-.7-1-.1-.5 0-1.1.3-1.5-.5-.6-.9-1.2-1.3-1.9-.1-.1-.2-.3-.2-.4-.3-.5-.6-1.1-1.1-1.2v-.1c.6.2.9.8 1.2 1.3.1.2.2.3.2.4.3.7.8 1.3 1.2 1.8h.1c.6.5 1.2.9 1.9 1.2.1.1.4.2.6.2.5.2 1.1.4 1.2.7H41c-.1-.2-.7-.4-1.1-.6-.2-.1-.4-.1-.5-.2.2.3.1.7.1.8 0 .3-.1.4-.3.5-.1.2-.1.2-.2.2zm-1.1-2.3c-.2.5-.1 1.1.1 1.5.1.2.3.5.7.6.3.1.4.1.5 0 .1-.1.2-.2.2-.4 0-.3 0-.7-.2-.9-.5-.3-.9-.5-1.3-.8zm-14.8 1.7h-.4v-.1c.7 0 1.4 0 2-.3v.1c-.5.2-1.1.3-1.6.3zm5-.9v-.1c.2 0 .5 0 .7-.1.3 0 .5-.1.8-.1h1.2l1.2-.3h1.2v.1c-.4.1-.8.1-1.2 0l-1.2.3h-1.2c-.3 0-.5 0-.8.1-.2 0-.4.1-.7.1zM13.3 29v-.1c.2 0 .3-.2.4-.3.1-.1.2-.3.4-.3v.1c-.1 0-.2.2-.3.3-.2.1-.3.2-.5.3z"></path>
  <path class="st0" d="M28.2 3.7s-1.1 0-1.4.4.3.3.3.3l1.1-.7z"></path>
  <path class="st4" d="M26.9 4.4c-.1 0-.2 0-.2-.1-.1-.1 0-.3.1-.3.3-.4 1.4-.4 1.4-.4h.2l-1.3.8h-.2zm1.1-.7c-.3 0-.9.1-1.1.4-.1.1-.1.2-.1.2 0 .1.2.1.3 0l.9-.6z"></path>
  <path class="st0" d="M26.1 3.1c.3-.7.7-.9 1.5-.3-.3 0-.6.1-.9.1-.4.1-.4.2-.6.2"></path>
  <path class="st4" d="M26 3.2c.2-.5.4-.7.7-.8.3-.1.6.1.9.4l.1.1h-.1c-.3 0-.6.1-.9.1-.2 0-.3.1-.3.1-.1 0-.2.1-.3.1H26zm.8-.7h-.1c-.2 0-.4.2-.5.5h.1c.1 0 .2-.1.4-.1s.5-.1.7-.1c-.2-.2-.4-.3-.6-.3z"></path>
  <path class="st0" d="M30.7 14.3c.6.4 1.2.9 1.7 1.4.6.7 1.3.1 1.9.2v.2l-1 .2 1 .4-.1.2-.9-.2c.2.3.4.5.6.8l-.5.5c.2-1.2-.9-1-1.3-1.5-.1-.1-.4.1-.5.1h-.4v-.4c.1-.1.2-.2.3-.2.2.1.3.1.5.1-.5-.5-1-1.1-1.5-1.6 0 0 .1-.2.2-.3v.1"></path>
  <path class="st4" d="M33.4 18.1v-.2c.1-.8-.3-1-.7-1.1-.2-.1-.4-.2-.6-.4h-1v-.5c.1-.1.2-.2.4-.2.1 0 .2.1.3.1l-.2-.2c-.4-.4-.8-.9-1.2-1.3 0-.1 0-.1.1-.2l.1-.1.1.1-.1.1c.6.4 1.1.9 1.7 1.4.4.4.8.3 1.2.2.2-.1.5-.1.7-.1h.1v.4l-.8.2.8.3-.1.3-.8-.2c.2.2.3.5.5.7 0 .1 0 .1-.2.3l-.3.3v.1zm-1.3-1.8h.1c.1.1.3.2.5.3.4.2.8.4.8 1.1.1-.1.1-.1.2-.1l.2-.2c-.2-.3-.4-.5-.6-.8l-.1-.1 1 .2v-.1l-1.1-.4 1.1-.2c-.2 0-.4 0-.6.1-.4.1-.9.2-1.3-.3-.5-.5-1.1-1-1.6-1.4.4.4.8.9 1.2 1.3l.4.4h-.1c-.2 0-.3 0-.5-.1-.1 0-.2.1-.2.1v.2h.6z"></path>
  <path class="st0" d="M25.4 14.3c-.6.4-1.2.9-1.7 1.4-.6.7-1.3.1-1.9.2v.2l1 .2-1 .4.1.2.9-.2c-.2.3-.4.5-.6.8l.5.5c-.2-1.2.9-1 1.3-1.5.1-.1.4.1.5.1h.4v-.4c-.1-.1-.2-.2-.3-.2H24c.5-.5 1-1.1 1.5-1.6 0 0-.1-.2-.2-.3l.1.2"></path>
  <path class="st4" d="m22.7 18.1-.1-.1-.3-.3c-.2-.2-.2-.2-.2-.3.2-.2.3-.5.5-.7l-.8.2-.1-.3.9-.3-.8-.2v-.3c.2 0 .5 0 .7.1.4.1.8.2 1.2-.2.5-.5 1.1-1 1.6-1.4l-.1-.1.1-.1.1.1c.1.1.1.2.1.2-.4.4-.8.9-1.2 1.3l-.1.3c.1 0 .2 0 .4-.1.1 0 .3.1.4.2v.5h-.7c-.1 0-.2-.1-.3 0-.1.2-.4.3-.6.4-.4 0-.8.2-.7 1v.1zm-.4-.6.2.2.1.1c0-.7.4-.9.8-1.1.2-.1.4-.2.5-.3.1-.1.2 0 .4 0h.5v-.2c-.1-.1-.1-.1-.2-.1-.2 0-.3.1-.5.1H24l.4-.4c.4-.4.8-.9 1.2-1.3v-.1c-.6.4-1.1.9-1.6 1.4-.4.5-.9.4-1.3.3-.2 0-.4-.1-.6-.1l1.1.2-1.1.4v.1l1-.2-.1.1c-.4.3-.6.6-.7.9z"></path>
  <path class="st0" d="M17.5 10.4c-1.4 1.1-2.7 2-4 2.9-.3.2-.5.6-.3.9.4 1.2.8 2.5 1.2 3.8.1.2.1.5.3.8-1.4-1-2.7-1.9-4-2.9-.3-.3-.7-.3-1 0-1.2 1-2.5 1.9-3.9 2.9.5-1.6.9-3.1 1.5-4.5.2-.4.1-1-.3-1.2h-.1c-1.2-.8-2.4-1.8-3.6-2.7H8c.5 0 .7-.2.8-.6.4-1.2.8-2.5 1.2-3.7.1-.2.1-.4.3-.8.6 1.7 1.1 3.1 1.5 4.6.1.4.4.6.8.6 1.6-.1 3.1-.1 4.9-.1"></path>
  <path class="st4" d="m5.7 19 .1-.2c.2-.5.3-.9.4-1.4.3-1.1.7-2.1 1-3.1.2-.4.1-.9-.3-1.1h-.1c-1.2-.8-2.5-1.8-3.6-2.7l-.1-.1H8c.4 0 .6-.2.7-.6.3-.8.6-1.7.8-2.5.1-.4.3-.8.4-1.2.1-.2.1-.3.2-.5 0-.1.1-.2.1-.3l.1-.2.1.2c.2.5.3 1 .5 1.4.4 1.1.7 2.2 1.1 3.2.1.3.4.6.7.5h5.1l-.1.1-1.2.9c-1 .7-1.9 1.4-2.8 2-.1.1-.3.2-.3.4-.1.1 0 .3 0 .5l.9 2.7c.1.4.2.7.4 1.1 0 .1.1.3.1.5 0 .1.1.2.1.4l.1.2-.1-.1-1.2-.9c-1-.7-1.9-1.3-2.8-2-.1-.1-.3-.2-.4-.2-.2 0-.3.1-.4.2-.9.7-1.8 1.4-2.8 2-.4.3-.8.5-1.2.8h-.4zm-2.2-8.5c1.1.9 2.3 1.8 3.5 2.6h.1c.5.2.6.8.4 1.3-.4 1-.7 2-1 3.1-.1.4-.2.8-.4 1.2.3-.2.7-.5 1-.7 1-.7 1.9-1.4 2.8-2.1.1-.1.3-.2.5-.2s.4.1.5.2c.9.7 1.8 1.3 2.8 2 .4.2.7.5 1.1.8 0-.1 0-.1-.1-.2-.1-.2-.1-.3-.1-.5-.1-.4-.2-.7-.4-1.1l-.9-2.7c-.1-.2-.1-.4-.1-.6.1-.2.2-.3.4-.4.9-.6 1.8-1.3 2.8-2 .3-.2.7-.5 1-.8h-4.7c-.4.1-.8-.2-.8-.6-.3-1-.7-2.1-1.1-3.2-.1-.4-.3-.8-.4-1.2 0 .1 0 .1-.1.2-.1.2-.1.3-.2.5-.2.4-.3.8-.4 1.2-.3.8-.6 1.7-.8 2.5-.1.4-.3.7-.9.7H3.5z"></path>
  <path class="st0" d="M52.5 10.3c-1.4 1.1-2.7 2-4 2.9-.3.2-.5.6-.3.9.4 1.2.8 2.5 1.2 3.8.1.2.1.5.3.8-1.4-1-2.7-1.9-4-2.9-.3-.3-.7-.3-1 0-1.2 1-2.5 1.9-4 2.9.5-1.6 1-3.1 1.5-4.5.2-.4.1-1-.3-1.2h-.1c-1.2-.8-2.4-1.8-3.6-2.7h4.7c.5 0 .7-.2.8-.6.4-1.2.8-2.5 1.2-3.7.1-.2.2-.4.3-.8.5 1.7 1.1 3.1 1.5 4.6 0 .4.4.6.8.6 1.7-.2 3.3-.1 5-.1"></path>
  <path class="st4" d="m40.8 18.9.1-.2c.2-.5.3-.9.4-1.4.3-1.1.7-2.1 1-3.1.1-.2.1-.4.1-.6-.1-.2-.2-.4-.4-.5h-.1c-1.2-.8-2.5-1.8-3.6-2.7l-.1-.1H43c.5 0 .6-.2.8-.6.2-.8.5-1.7.8-2.5.1-.4.3-.8.4-1.2 0-.1.1-.3.2-.5 0-.1.1-.2.1-.4l.1-.2v.2c.2.5.3.9.5 1.4.4 1.1.7 2.2 1.1 3.2 0 .3.4.6.7.5h5l-.2.1-1.2.9c-1 .7-1.9 1.4-2.8 2-.2.1-.3.2-.3.4v.5l.9 2.7c.1.4.2.7.3 1 0 .1.1.3.2.5l.2.5-.1-.1-1.2-.9c-1-.7-1.9-1.3-2.8-2-.1-.1-.3-.2-.4-.2-.2 0-.3.1-.4.2-.9.7-1.8 1.3-2.8 2.1-.4.3-.8.5-1.2.8l-.1.2zm-2.3-8.6c1.1.9 2.3 1.8 3.5 2.6h.1c.2.1.4.3.5.6s0 .5-.1.7c-.4 1-.7 2-1 3.1-.1.4-.2.8-.4 1.2.3-.2.7-.5 1-.7 1-.7 1.9-1.4 2.8-2.1.1-.1.3-.2.5-.2s.4.1.5.2c.9.7 1.8 1.3 2.8 2 .3.2.7.5 1.1.8l-.1-.2c-.1-.2-.1-.3-.2-.5-.1-.4-.2-.7-.3-1l-.9-2.7c-.1-.2-.1-.4 0-.6.1-.2.2-.3.4-.4.9-.6 1.8-1.3 2.8-2 .3-.2.7-.5 1-.8h-4.6c-.4.1-.8-.2-.8-.6-.3-1.1-.7-2.1-1.1-3.2-.1-.4-.3-.8-.4-1.2 0 .1 0 .2-.1.2-.1.2-.1.3-.2.5-.1.4-.3.8-.4 1.2-.3.8-.5 1.7-.8 2.5-.1.4-.3.7-.8.7h-3l-1.8-.1z"></path>
  <path class="st0" d="M28 3.7s-.1-.6-1-.4c-.8.2-.8.4-1.1.5-.3 0-.6-.1-.8-.2.1.1.2.2.4.3.2.1.5.1.8.1l.9-.3c.2-.1.5-.1.8 0"></path>
  <path class="st4" d="M26 4.1c-.2 0-.4 0-.5-.1-.1-.1-.3-.2-.4-.3l-.3-.2.4.2c.2.1.5.2.8.2.1 0 .2-.1.3-.1.1-.1.3-.2.9-.3.9-.2 1 .5 1 .5v.1h-.1c-.2-.1-.5-.1-.8-.1-.4-.2-.7 0-1 0-.1 0-.2.1-.3.1zm-.6-.3s.1 0 .1.1c.3.1.5.1.8 0l.9-.3h.7c-.1-.2-.3-.4-.9-.3-.5.1-.7.2-.8.3-.1.1-.2.1-.3.2-.1.1-.3 0-.5 0z"></path>
  <path class="st0" d="M28.5 9.7c-.2.1-.3.3-.2.5.2.4.5.9.9 1.2.5.7 1.1 1.4 1.7 2.1.3.2.6.4.9.5h-.9c-.2.8-.8.5-1.4.5 0-.4 0-1-.7-1.2-.1 1.1.3 2.1 1.1 2.8l-1-.2c.1.7.4 1 1.2 1 .4 0 .8.1.8.6-1-.1-1.9-.1-2.3-1.4-.1 1.1 1.2 2.3 2.4 2.4l-.9.5c.5.3 1.1.3 1.5 0 .5-.4.4-.9.1-1.4.5 0 .8.4.8.9.1.5-.2 1-.7 1.2-.7.4-1.6.2-2.1-.5-.4-.5-.8-1.1-1.1-1.7-.1-.2-.2-.4-.3-.5.2 1 .7 1.9 1.4 2.6.2.3.3.6.3.9 0 .2-.3.4-.6.5.5-1.3-1.1-1.4-1-2.4l-.3.1c.1.8.3 1.6.4 2.5-.2.4-.7.5-1 .3l-.3-.3.5-2.5-.3-.1c0 .9-1.5 1.1-1 2.3l-.2.1c-.2-.2-.5-.3-.5-.5 0-.4.1-.7.2-1 .4-.8.9-1.6 1.4-2.4 0-.1 0-.2-.1-.3-.1.2-.1.4-.2.6-.3.9-.8 1.6-1.5 2.1s-1.6.3-2.1-.4c-.4-.5-.3-1.1.2-1.5.1-.1.3-.2.5-.2-.4.5-.5 1 .1 1.4.5.3 1.1.3 1.5-.1-.2 0-.4-.1-.6-.1l-.3-.3c.5-.1 1-.3 1.4-.6.4-.5.8-1 1-1.6-.3.4-.6.7-.9.9-.5.2-.9.3-1.4.3 0-.5.4-.6.8-.7.9-.1 1.2-.4 1.2-1l-.9.4s0-.1-.1-.1c1.1-.6 1.2-1.6 1.3-2.8-.6.2-.9.8-.8 1.4-.5-.1-1.2.2-1.3-.6l-.9.1c.8-.1 1-.7 1.3-1.3.2-.4.5-.7.9-1 .4-.3.7-.7.9-1.2.2-.6.2-.8 0-.9-.1 0-.4.1-.4.1m1 6.1h.1v-2.1h-.1v2.1z"></path>
  <path class="st4" d="M28 21.9c-.1 0-.3 0-.4-.1l-.3-.3.5-2.5h-.1c0 .4-.3.6-.6.9-.4.3-.7.7-.4 1.3l-.3.1s-.1-.1-.2-.1c-.2-.1-.3-.2-.4-.4 0-.4.1-.7.2-1 .1-.1.1-.2.2-.3-.2.1-.3.3-.5.4-.7.5-1.7.3-2.2-.4-.2-.2-.3-.5-.2-.8 0-.3.2-.5.4-.7.2-.1.3-.2.5-.2h.1l-.1.1c-.2.3-.3.6-.3.8 0 .2.1.4.4.5.4.3.9.3 1.3 0-.2 0-.3-.1-.5-.1l-.3-.3v-.1h.1c.5-.1 1-.3 1.4-.6.3-.4.6-.8.8-1.3l-.7.7c-.5.2-.9.3-1.4.3h-.1v-.1c0-.6.5-.7.8-.8.8-.1 1.1-.3 1.2-.9l-1 .1V16s0-.1-.1-.1v-.1c1-.6 1.1-1.5 1.2-2.6-.5.2-.8.8-.7 1.3v.1h-.6c-.4 0-.8 0-.9-.5l-.9.1v-.1c.6-.1.9-.6 1.2-1.1 0-.1.1-.1.1-.2.2-.4.5-.7.9-1 .4-.3.7-.7.9-1.2.2-.6.2-.8 0-.9 0 0-.2 0-.3.1v-.1c.1 0 .3-.1.4-.1.3.1.2.5.1 1-.2.5-.5.9-.9 1.2-.3.3-.6.6-.9 1 0 .1-.1.1-.1.2-.2.4-.4.7-.8 1l.5-.1v.1c.1.5.4.5.8.5h.4c-.1-.6.3-1.2.9-1.4h.1v.1c-.1 1-.1 2.1-1.2 2.8v.1l1-.2v.1c-.1.7-.4 1-1.3 1.1-.4 0-.7.2-.7.6.4 0 .9-.1 1.3-.3.4-.3.7-.6.9-.9l.2-.3-.1.4c-.2.6-.5 1.2-1 1.7-.4.3-.9.5-1.3.6l.2.2c.2.1.4.1.6.1h.2l-.1.1c-.5.4-1.1.4-1.6.1-.2-.2-.4-.4-.4-.6 0-.2 0-.5.2-.8-.1 0-.2.1-.3.2-.2.2-.4.4-.4.7 0 .3 0 .5.2.7.5.6 1.4.8 2 .4.3-.2.6-.5.9-.9.1-.2.3-.5.4-.7.1-.2.1-.3.2-.5 0-.1.1-.3.1-.4l.1-.3.1.1c.1.2.1.3.1.3-.2.3-.3.5-.5.8-.1.2-.3.5-.4.7-.2.3-.3.6-.5.8-.2.3-.2.6-.2 1 0 .1.2.2.3.3.1 0 .1.1.2.1h.1c-.3-.7.1-1.1.5-1.4.3-.2.5-.5.5-.9v-.1l.4.1-.5 2.5c.1.1.1.2.2.2.3.2.8.1 1-.2l-.5-2.6.4-.1v.1c0 .4.2.6.5.9.4.3.7.7.5 1.3.2-.1.4-.3.4-.4 0-.3-.1-.6-.3-.9-.8-.7-1.3-1.6-1.5-2.7v-.3l.2.2c.1.2.2.4.3.5.3.6.7 1.2 1.1 1.7.5.6 1.3.8 2 .4.5-.2.7-.7.7-1.2 0-.4-.3-.7-.6-.8.2.4.4 1-.2 1.4-.5.4-1.1.4-1.6 0h-.1l.8-.4c-.6-.1-1.3-.5-1.7-1-.4-.5-.6-1-.5-1.4v-.3l.1.3c.3 1 1.1 1.1 1.9 1.3h.3c-.1-.5-.4-.5-.8-.5-.8-.1-1.2-.4-1.2-1.1v-.1h.1l.8.1c-.7-.7-1.1-1.7-1-2.7v-.1h.1c.7.2.7.7.8 1.1v.1h.3c.4 0 .8.1.9-.5v-.1h.7c-.2-.1-.4-.2-.6-.4-.6-.6-1.1-1.4-1.6-2l-.1-.1c-.4-.3-.6-.8-.9-1.2-.1-.2 0-.5.2-.6l.1.1c-.2.1-.2.3-.2.5.2.4.5.8.8 1.2l.1.1c.5.7 1 1.4 1.6 2 .3.2.6.4.9.5l.4.1-1.3.1c-.1.6-.6.5-1 .5h-.4v-.3c0-.4-.1-.8-.6-1-.1 1 .4 2 1.1 2.7l.2.1H29c.1.6.4.8 1.1.9.4 0 .8.1.9.7v.1h-.1c-.1 0-.2 0-.3-.1-.7-.1-1.5-.2-1.9-1 0 .3.2.7.5 1 .5.6 1.2 1 1.8 1h.2l-1 .5c.4.3 1 .2 1.4 0 .4-.3.4-.7.1-1.3v-.1h.1c.5 0 .9.4.9.9.1.5-.2 1.1-.7 1.3-.8.4-1.6.2-2.2-.5-.4-.5-.8-1.1-1.1-1.7 0-.1-.1-.1-.1-.2.2.9.7 1.6 1.3 2.2.2.3.3.6.3 1 0 .2-.3.4-.6.6l-.1.1.1-.2c.3-.7-.1-1-.5-1.3-.3-.2-.6-.5-.6-.9h-.2l.4 2.5c-.2.3-.5.4-.7.4zm-.6-4.7c-.1.1-.1.2-.1.3 0-.1.1-.1.1-.2.1 0 0 0 0-.1zm.4-1.3v-2.2h.2v2.2h-.2z"></path>
  <path class="st0" d="m27 6.8-1.5.3c-.5.5-1.3.9-1.9.5-.6-.5-.4-1.1-.2-1.8.4-1.1-.4-1.2-.9-1.7-.4-.7-.8-1.3-1.1-2.1 0 1.2.4 2.3 1.1 3.2-.7.2-1.1-.7-1.7-1.1-.1.9.4 1.7 1.2 2-.7.1-1.6.1-2.1-.7-.1.6.2 1.3.8 1.6.4.2.9.2 1.3.3-.3.2-.6.3-1 .4-.3.1-1-.1-.5.4.4.4 1 .6 1.6.4.2.7-.7 1.3-1.1 1.6.6.3 1.8.3 2.1-.6 0 .7-.2 1.5-.7 2.1-.4.7-.9 1.3-1.5 1.8.7.1 1.2-.4 1.8-.9.3-.2.5-.5.8-.8.3-.4.4-.9.6-1.3.5.8-.4 2.2-.6 2.9 1 .2 1.8-2 2.1-2.8.1.6-.1 1.2-.4 1.7.4-.2.5-.9.8-1.2.3-.4.5-1.1.9-1.3l.5-.1"></path>
  <path class="st4" d="M21.1 13.5h-.2l.1-.1c.6-.5 1.1-1.1 1.4-1.8.4-.5.6-1.1.6-1.8-.1.2-.3.3-.5.4-.5.2-1.2.1-1.6 0h-.1l.1-.1c.4-.2 1.2-.8 1.1-1.5-.6.1-1.2 0-1.6-.4-.2-.2-.2-.3-.2-.4.1-.1.3-.1.5-.1h.2c.3-.1.6-.2.8-.3-.1 0-.3-.1-.4-.1-.2 0-.5-.1-.7-.2-.6-.3-.9-1-.8-1.7v-.2l.1.2c.4.7 1.2.7 1.8.7-.7-.4-1.1-1.1-1-1.9v-.1l.1.1c.2.1.3.3.5.5.3.4.6.7 1 .7-.6-.9-1-2.1-1-3.2h.1c.3.7.6 1.4 1.1 2.1.1.1.3.2.4.3.4.3.8.5.5 1.4v.1c-.2.7-.4 1.2.2 1.6.5.3 1.1.2 1.8-.4l1.5-.4V7l-1.4.3c-.8.6-1.4.7-2 .4-.6-.5-.4-1.1-.2-1.7v-.1c.2-.8-.1-1-.5-1.3-.1-.1-.3-.2-.4-.3-.4-.6-.7-1.2-.9-1.8.1 1 .5 2 1 2.9v.1h-.1c-.5.1-.9-.3-1.2-.7-.1-.2-.3-.3-.4-.4-.1.8.4 1.5 1.1 1.8v.1c-.7.1-1.5.1-2-.6 0 .6.3 1.1.8 1.4.2.1.5.1.7.2.2 0 .4.1.6.1h.1l-.1.1c-.3.2-.6.3-1 .4h-.3c-.1 0-.3 0-.4.1 0 0 0 .1.1.3.4.4 1 .5 1.5.4h.1v.1c.2.7-.6 1.3-1 1.6.4.1.9.2 1.4 0 .3-.1.5-.3.6-.6h.1c0 .8-.2 1.5-.7 2.1-.3.4-.8 1-1.3 1.6.6-.1 1-.4 1.5-.8l.1-.1c.3-.2.5-.5.7-.8.1-.2.2-.4.3-.7l.3-.6v-.1.1c.4.6 0 1.6-.4 2.3-.1.2-.2.4-.2.5.8 0 1.5-1.9 1.9-2.6l.1-.1h.1c0 .5 0 1-.2 1.4.1-.1.2-.4.3-.5.1-.2.2-.3.2-.4.1-.1.2-.3.3-.5.2-.4.4-.7.6-.8l.5-.1v.1l-.5.1c-.3.1-.4.4-.6.8-.1.2-.2.3-.3.5-.1.1-.2.3-.2.4-.2.3-.3.6-.6.8l-.1-.1c.2-.4.4-.9.4-1.4-.4 1-1.1 2.8-2 2.6h-.1v-.1c0-.2.1-.4.2-.6.3-.7.7-1.5.4-2.1-.1.1-.1.3-.2.5s-.2.5-.3.7c-.2.3-.5.6-.8.8l-.1.1c-.3.4-.7.7-1.3.7z"></path>
  <path class="st0" d="M27 6.8c-.2-.2-1.2-.3-1.2-.3 1-.1 2-.7 2.4-1.7.2-.6.3-1.1-.4-1.4-.2-.1-.4-.3-.5-.4l.9-.4v-.1l-1.5.1v-.2c.7-.6 1.7.1 2.5-.2l-.4.2c.6.5.9 2.8.6 3.4-.1-.1-.2-.2-.3-.2l-.5 1.2v.1"></path>
  <path class="st4" d="M27 6.9c-.1-.2-.8-.3-1.1-.3v-.2c1-.1 1.9-.7 2.3-1.7.3-.7.2-1.1-.4-1.4-.2-.1-.4-.3-.5-.4l-.1-.1.9-.4-1.5.1v-.3c.4-.3.9-.2 1.4-.1.4.1.8.1 1.1 0v.1l-.3.1c.6.6.8 2.9.6 3.4v.1l-.1-.1-.2-.2-.5 1.1v.1h-.1s0-.1.1-.1l.5-1.2.1.1.2.2c.2-.7-.1-2.8-.7-3.3l-.1-.1h.1c-.2 0-.5 0-.8-.1-.5-.1-.9-.2-1.3.1v.1l1.5-.1v.2l-.8.5c.1.1.3.2.5.3.8.4.6 1 .4 1.5-.3.9-1.1 1.5-2 1.7.4.1.8.2.8.4z"></path>
  <path class="st0" d="M28.6 6.8c0 .4 1.6.4 1.6.4.5.4 1.3.8 1.9.4.6-.5.4-1.1.2-1.8-.4-1.1.4-1.2.9-1.7.4-.7.8-1.3 1.1-2.1 0 1.2-.4 2.3-1.1 3.3.8.2 1.2-.7 1.8-1.1.1.8-.3 1.6-1.1 1.9.7.1 1.6.1 2.1-.7 0 .7-.3 1.3-.8 1.6-.4.2-.9.2-1.3.3.3.2.6.3 1 .4.3.1 1-.1.5.4-.4.4-1 .6-1.6.4-.2.7.7 1.3 1.1 1.6-.6.3-1.8.3-2.1-.6 0 .7.2 1.5.7 2.1.4.7.9 1.3 1.5 1.8-.7.1-1.2-.4-1.8-.9-.3-.2-.5-.5-.8-.8-.3-.4-.4-.9-.6-1.3-.5.8.4 2.2.6 2.9-1 .2-1.8-2-2.1-2.8-.1.6.1 1.2.4 1.7-.4-.2-.5-.9-.8-1.2-.3-.4-.6-1.2-1-1.4h-.3"></path>
  <path class="st4" d="M34.8 13.5c-.6 0-1.1-.4-1.5-.8l-.2-.1c-.3-.2-.5-.5-.8-.8-.2-.2-.2-.5-.3-.7-.1-.2-.1-.4-.2-.5-.2.6.1 1.5.4 2.1.1.2.2.4.2.6v.1h-.1c-.9.2-1.7-1.6-2-2.6 0 .5.1 1 .4 1.4l-.1.1c-.2-.2-.4-.5-.6-.8-.1-.2-.2-.3-.2-.4s-.2-.2-.2-.4c-.2-.4-.5-.8-.8-1h-.3v-.1h.3c.3.2.6.6.8 1 .1.1.2.3.2.4.1.1.2.3.2.4.1.2.2.4.3.5-.2-.4-.3-.9-.2-1.4h.1l.1.1c.3.8 1 2.6 1.9 2.6 0-.1-.1-.3-.2-.5-.3-.8-.7-1.7-.4-2.3v-.1.1l.3.6c.1.2.2.5.3.7.2.3.5.5.7.8l.2.1c.5.4.9.7 1.4.7-.5-.5-1-1.1-1.3-1.7-.4-.6-.7-1.4-.7-2.1h.1c.1.3.3.4.6.6.5.2 1 .1 1.4 0-.4-.3-1.2-.9-1-1.6v-.1h.1c.5.2 1.1 0 1.6-.4.2-.2.2-.2.2-.3 0-.1-.2-.1-.4-.1h-.3c-.4-.1-.7-.2-1-.4l-.1-.1h.1c.2-.1.4-.1.6-.1.2 0 .5-.1.7-.2.5-.3.8-.8.8-1.4-.5.7-1.4.6-2 .6v-.1c.7-.3 1.2-1 1.1-1.8l-.4.4c-.3.4-.7.8-1.2.7h-.1v-.1c.6-.8 1-1.8 1-2.9-.3.8-.6 1.4-1 2-.1.1-.3.2-.4.3-.4.3-.8.5-.5 1.3v.1c.2.7.4 1.3-.2 1.7-.5.4-1.2.2-2-.4h-.1c-.3 0-1.3 0-1.5-.3 0-.1-.1-.1-.1-.2h.1v.1c.2.2 1.1.2 1.5.2h.1c.7.6 1.4.7 1.8.4.6-.4.4-.9.2-1.6v-.1c-.3-.9.1-1.1.5-1.4.1-.1.3-.2.4-.3.4-.7.8-1.3 1.1-2h.1c0 1.1-.4 2.3-1 3.2.4.1.7-.3 1-.7.2-.2.3-.4.5-.5l.2.1v.1c.1.8-.3 1.5-.9 1.9.7.1 1.4 0 1.8-.7l.1-.2v.2c.1.6-.3 1.3-.8 1.6-.2.1-.5.2-.7.2-.2 0-.3.1-.4.1.3.2.5.2.8.3h.2c.2 0 .4 0 .5.1 0 .1 0 .2-.2.4-.4.4-1 .6-1.6.4-.1.6.7 1.2 1.1 1.5l.1.1h-.1c-.4.2-1.1.3-1.6 0-.2-.1-.4-.2-.5-.4.1.6.3 1.2.7 1.8.4.7.9 1.3 1.4 1.8l.1.1h-.1s-.1 0-.1.1z"></path>
  <path class="st0" d="M28.3 9.8c-.2.1-.4.2-.6.1-.1 0-.2-.1-.3-.1-.4-.3-.6-2-.4-2.6v-.4l1.5-.1.5 1.1c0 .6-.1 1.1-.3 1.7-.1.1-.2.2-.4.3"></path>
  <path class="st4" d="M32.8 11.4c-.2-.3-.4-.7-.5-1.1-.2-.3-.3-.8-.4-1.2h.1c.1.4.2.9.4 1.3.1.4.3.7.5 1h-.1zm-9.6 0c.1-.4.3-.7.4-1.1.2-.4.3-.8.4-1.3h.1c-.1.4-.2.9-.4 1.3-.1.5-.3.8-.5 1.1zm8.1-.1c0-.1-.1-.2-.2-.3-.1-.1-.1-.2-.2-.4-.1-.4-.2-.8-.2-1.1h.1c0 .4.1.8.2 1.1 0 .1.1.2.2.4l.2.4c0-.2-.1-.1-.1-.1zm-6.7-.1h-.1c0-.1.1-.2.2-.4l.2-.4c.1-.4.2-.7.2-1.1h.1c-.7-.1-1.4-.3-1.9-.8 0 .2-.1.6-.4.9-.2.2-.5.5-.8.5v-.2c.2 0 .5-.3.7-.4.2-.2.3-.7.3-.8v-.1c-.1-.1-.2-.2-.3-.4-.1-.1-.1-.2-.2-.3-.1.1-.3.3-.8.4h-.6V8h.2c.1 0 .2.1.3 0 .5-.1.7-.3.8-.4-.1-.2-.1-.5-.1-.7-.2.1-.5.1-.8 0-.1 0-.3-.1-.4-.2-.1-.1-.1-.1-.2-.1v-.1c.1 0 .2.1.3.2.1.1.2.1.3.2.2.1.5.1.8 0v-.5c0-.1 0-.2.1-.2-.2 0-.4-.1-.5-.1l-.2-.2-.2-.2v-.3c.1 0 .2.1.3.2.1 0 .1.1.2.1.1.1.3.1.5.1 0-.1.1-.2.1-.3h.1c0 .1-.1.2-.1.3V6c0 .1-.1.2-.1.2v.5c0 .3 0 .6.1.8 0 .1.1.2.2.4.6.8 1.5 1.2 2.5 1.2h.4v.1h-.1c.2.4.3.8.2 1.3h-.1c0-.4-.1-.9-.3-1.3h-.3c0 .4-.1.8-.2 1.1 0 .1-.1.3-.2.4-.2.2-.2.4-.2.5zm5.4-.7c-.1-.4-.1-.8.1-1.2v-.1h.4c1 0 1.9-.4 2.5-1.2.3-.3.4-.8.3-1.2v-.5c0-.1-.1-.2-.1-.3v-.1c0-.1-.1-.2-.1-.3h.1c0 .1 0 .1.1.2.2 0 .4 0 .5-.1l.2-.2c.1-.1.2-.2.3-.2v.1c-.1 0-.2.1-.2.2l-.2.2c-.2.1-.3.1-.5.1.1.1.1.2.1.3v.5c.2.1.5.1.7 0 .1 0 .2-.1.3-.2.1-.1.2-.1.3-.2v.1c-.1 0-.2.1-.2.1-.1.1-.2.2-.4.2-.2.1-.5.1-.8 0 0 .4-.1.8-.4 1.2-.1.2-.3.3-.4.4 0 .2 0 .4.2.6.2.2.4.4.7.4v.1c-.3 0-.5-.2-.8-.5-.2-.1-.2-.4-.2-.6-.6.5-1.3.8-2.1.8h-.2c-.2.3-.2.8-.1 1.1l-.1.3zm4.1-2.3H34c-.1 0-.2-.1-.3-.2l-.2-.2v-.1c.1 0 .2.1.2.2.1 0 .2.1.3.1h.5v.1h-.2s-.1 0-.2.1z"></path>
</svg>
