<?xml version="1.0" encoding="utf-8"?>
<!-- Generator: Adobe Illustrator 26.1.0, SVG Export Plug-In . SVG Version: 6.00 Build 0)  -->
<svg version="1.1" id="logo-villeurbanne" xmlns="http://www.w3.org/2000/svg" xmlns:xlink="http://www.w3.org/1999/xlink" x="0px"
	 y="0px" viewBox="0 0 176.2 40.8" style="enable-background:new 0 0 176.2 40.8;" xml:space="preserve">
<style type="text/css">
	.st0{fill:#008299;}
</style>
<g id="Calque_2_00000171700280636630108330000017528906300980338840_">
	<g id="Calque_1-2">
		<path class="st0" d="M11.8,29.3l-5.5,5.5l-5.5-5.5C0.3,28.7,0,28,0,27.3v-6.9h3.2v5.9c0.1,0.4,0.2,0.7,0.5,1l2.6,2.6l2.6-2.6
			c0.3-0.3,0.4-0.6,0.5-1v-5.9h3.2v6.9C12.7,28,12.3,28.8,11.8,29.3"/>
		<path class="st0" d="M16.9,20.4h3.2V34h-3.2V20.4z M17.4,17c-0.5,0-0.5,0-0.5-0.5v-2.4c0-0.5,0-0.5,0.5-0.5h2.2
			c0.5,0,0.5,0,0.5,0.5v2.5c0,0.5,0,0.5-0.5,0.5L17.4,17z"/>
		<path class="st0" d="M66.3,34v-2.9H59c-0.5,0-0.5,0-0.5-0.5v-2.2h7.8v-6.3c0-0.9-0.6-1.6-1.5-1.7c-0.1,0-0.1,0-0.2,0H57
			c-0.9-0.1-1.6,0.6-1.7,1.5c0,0.1,0,0.2,0,0.2v10.2c0,0.9,0.6,1.6,1.5,1.7c0,0,0.1,0,0.1,0H66.3 M63.4,25.5c0,0.5,0,0.5-0.5,0.5H59
			c-0.5,0-0.5,0-0.5-0.5v-2.2c0-0.5,0-0.5,0.5-0.5h3.9c0.5,0,0.5,0,0.5,0.5L63.4,25.5z"/>
		<path class="st0" d="M176.2,34v-2.9h-7.4c-0.5,0-0.5,0-0.5-0.5v-2.2h7.9v-6.3c0-0.9-0.6-1.6-1.5-1.7c-0.1,0-0.1,0-0.2,0h-7.7
			c-0.9-0.1-1.6,0.6-1.7,1.5c0,0.1,0,0.2,0,0.2v10.2c0,0.9,0.6,1.6,1.5,1.7c0.1,0,0.1,0,0.2,0H176.2 M173.3,25.5
			c0,0.5,0,0.5-0.5,0.5h-3.9c-0.5,0-0.5,0-0.5-0.5v-2.2c0-0.5,0-0.5,0.5-0.5h3.9c0.5,0,0.5,0,0.5,0.5V25.5z"/>
		<path class="st0" d="M80.7,34h-8.3c-0.9,0-1.7-0.6-1.7-1.5c0-0.1,0-0.1,0-0.2V20.4H74v10.2c0,0.5,0,0.5,0.5,0.5h4.2
			c0.5,0,0.5,0,0.5-0.5V20.4h3.2v11.9c0,0.9-0.7,1.6-1.6,1.7C80.8,34,80.8,34,80.7,34"/>
		<path class="st0" d="M95.1,27.6v-3.8c0-0.5,0-0.5-0.6-0.5h-4.1c-0.5,0-0.5,0-0.5,0.5V34h-3.2V20.4c0,0,7.2,0,10,0
			c0.9,0.1,1.6,0.8,1.7,1.7v5.5L95.1,27.6"/>
		<path class="st0" d="M111.7,34c0.9,0,1.7-0.6,1.7-1.5c0-0.1,0-0.1,0-0.2V22.1c0.1-0.9-0.6-1.6-1.5-1.7c-0.1,0-0.1,0-0.2,0h-7.1
			v-5.8h-3.2V34H111.7 M110.1,23.8v6.8c0,0.5,0,0.5-0.5,0.5h-4.5c-0.5,0-0.5,0-0.5-0.5v-6.8c0-0.5,0-0.5,0.5-0.5h4.5
			C110.1,23.3,110.1,23.3,110.1,23.8"/>
		<path class="st0" d="M119.5,34h9.4V22.1c0-0.9-0.6-1.7-1.5-1.7c-0.1,0-0.1,0-0.2,0h-9.4v2.9h7.3c0.5,0,0.5,0,0.5,0.5v1.8h-6.1
			c-0.9-0.1-1.7,0.6-1.7,1.5c0,0.1,0,0.2,0,0.2v5c0,0.9,0.6,1.7,1.5,1.7C119.3,34,119.4,34,119.5,34 M125.6,30.9
			c0,0.5,0,0.5-0.5,0.5h-3.9c-0.5,0-0.5,0-0.5-0.5v-2.2c0-0.5,0-0.5,0.5-0.5h3.9c0.5,0,0.5,0,0.5,0.5L125.6,30.9z"/>
		<path class="st0" d="M141.7,34V23.8c0-0.5,0-0.5-0.5-0.5h-4.7V34h-3.2V20.4h10c0.9,0,1.6,0.6,1.7,1.5c0,0.1,0,0.1,0,0.2V34H141.7"
			/>
		<path class="st0" d="M157.6,34V23.8c0-0.5,0-0.5-0.5-0.5h-4.7V34h-3.2V20.4h10c0.9-0.1,1.7,0.6,1.7,1.5c0,0.1,0,0.1,0,0.2V34
			H157.6"/>
		<rect x="25.6" class="st0" width="9.3" height="40.8"/>
		<rect x="41.4" class="st0" width="9.4" height="40.8"/>
	</g>
</g>
</svg>
