<?xml version="1.0" encoding="utf-8"?>
<!-- Generator: Adobe Illustrator 22.0.1, SVG Export Plug-In . SVG Version: 6.00 Build 0)  -->
<svg version="1.1" id="Calque_1" xmlns="http://www.w3.org/2000/svg" xmlns:xlink="http://www.w3.org/1999/xlink" x="0px" y="0px"
	 viewBox="0 0 246 120" style="enable-background:new 0 0 246 120;" xml:space="preserve">
<style type="text/css">
	.st0{fill:#E42535;}
	.st1{fill:#FFFFFF;}
	.st2{fill-rule:evenodd;clip-rule:evenodd;fill:#FFFFFF;}
	.st3{fill-rule:evenodd;clip-rule:evenodd;fill:#BDDC04;}
	.st4{fill-rule:evenodd;clip-rule:evenodd;fill:#E42535;}
	.st5{fill:#005F72;}
	.st6{fill:#1D1D1B;}
	.st7{fill:#778792;}
	.st8{fill:#9C0F12;}
	.st9{fill:#AE0E16;}
	.st10{fill:#C00C1A;}
	.st11{fill:#D1091E;}
	.st12{fill:#9C9B9B;}
	.st13{fill:#220000;}
	.st14{fill:#390200;}
	.st15{fill:#500700;}
	.st16{fill:#630B00;}
	.st17{fill:#780E06;}
	.st18{fill:#890F0C;}
	.st19{clip-path:url(#SVGID_2_);fill:url(#SVGID_3_);}
	.st20{fill:#12110C;}
	.st21{clip-path:url(#SVGID_5_);fill:#E42535;}
	.st22{clip-path:url(#SVGID_7_);fill:url(#SVGID_8_);}
	.st23{fill:#901B15;}
	.st24{fill:#DC0F18;}
	.st25{clip-path:url(#SVGID_10_);fill:url(#SVGID_11_);}
	.st26{clip-path:url(#SVGID_13_);fill:#E42535;}
	.st27{clip-path:url(#SVGID_15_);fill:url(#SVGID_16_);}
	.st28{clip-path:url(#SVGID_18_);fill:url(#SVGID_19_);}
	.st29{clip-path:url(#SVGID_21_);fill:url(#SVGID_22_);}
	.st30{clip-path:url(#SVGID_24_);fill:url(#SVGID_25_);}
	.st31{clip-path:url(#SVGID_27_);fill:url(#SVGID_28_);}
	.st32{clip-path:url(#SVGID_30_);fill:url(#SVGID_31_);}
	.st33{clip-path:url(#SVGID_33_);fill:url(#SVGID_34_);}
	.st34{clip-path:url(#SVGID_36_);fill:url(#SVGID_37_);}
	.st35{clip-path:url(#SVGID_39_);fill:url(#SVGID_40_);}
	.st36{clip-path:url(#SVGID_42_);fill:url(#SVGID_43_);}
	.st37{clip-path:url(#SVGID_45_);fill:url(#SVGID_46_);}
	.st38{clip-path:url(#SVGID_48_);fill:url(#SVGID_49_);}
	.st39{clip-path:url(#SVGID_51_);}
	.st40{clip-path:url(#SVGID_53_);}
	.st41{fill:#38B5B8;}
	.st42{clip-path:url(#SVGID_57_);fill:#FFFFFF;}
	.st43{clip-path:url(#SVGID_59_);fill:#FFFFFF;}
	.st44{clip-path:url(#SVGID_61_);fill:#FFFFFF;}
	.st45{clip-path:url(#SVGID_63_);fill:#FFFFFF;}
	.st46{clip-path:url(#SVGID_65_);fill:#FFFFFF;}
	.st47{clip-path:url(#SVGID_67_);fill:#FFFFFF;}
	.st48{clip-path:url(#SVGID_69_);fill:#FFFFFF;}
	.st49{clip-path:url(#SVGID_71_);fill:#FFFFFF;}
	.st50{clip-path:url(#SVGID_73_);fill:#FFFFFF;}
	.st51{clip-path:url(#SVGID_75_);fill:#FFFFFF;}
	.st52{clip-path:url(#SVGID_77_);fill:#FFFFFF;}
	.st53{clip-path:url(#SVGID_79_);fill:#FFFFFF;}
	.st54{clip-path:url(#SVGID_81_);fill:#FFFFFF;}
	.st55{clip-path:url(#SVGID_83_);fill:#FFFFFF;}
	.st56{clip-path:url(#SVGID_85_);fill:#FFFFFF;}
	.st57{clip-path:url(#SVGID_87_);fill:#FFFFFF;}
	.st58{fill:#4A5F70;}
	.st59{fill:none;}
</style>
<g>
	<path d="M121.8,46.6v3.1c0,1,0.2,1.5,1,1.5c0.6,0,1-0.4,1-1.4v-3.3h1.3V50c0,0.5,0,2.1-2.2,2.1c-1.3,0-2.4-0.6-2.4-2.1v-3.4H121.8"
		/>
	<polyline points="126.5,46.6 127.7,46.6 130,49.8 130,49.8 130,46.6 131.1,46.6 131.1,52 129.9,52 127.6,48.7 127.6,48.7 127.6,52 
		126.5,52 126.5,46.6 	"/>
	<rect x="132.6" y="46.6" width="1.4" height="5.4"/>
	<polyline points="135.1,46.6 136.7,46.6 138.1,50.5 138.1,50.5 139.5,46.6 140.4,46.6 138.5,52 137.1,52 135.1,46.6 	"/>
	<polyline points="141.4,46.6 145.1,46.6 145.1,47.5 142.9,47.5 142.9,48.8 144.7,48.8 144.7,49.6 142.9,49.6 142.9,51.1 
		145.3,51.1 145.3,52 141.4,52 141.4,46.6 	"/>
	<path d="M146.6,46.6h2.6c0.7,0,1.5,0.4,1.5,1.4c0,0.7-0.4,1.3-1,1.5l1.7,2.5h-1.7l-1.2-2.2h-0.5V52h-1.4V46.6 M147.9,49h0.5
		c0.5,0,0.8-0.5,0.8-0.9c0-0.4-0.2-0.6-0.8-0.6h-0.4V49z"/>
	<path d="M152.1,50.9c0.5,0.2,1,0.3,1.5,0.3c0.4,0,0.9-0.1,0.9-0.6c0-0.9-2.4-1-2.4-2.7c0-1.1,1-1.5,1.9-1.5c0.5,0,1.1,0.1,1.6,0.2
		v1c-0.4-0.2-0.9-0.3-1.4-0.3c-0.3,0-0.7,0.1-0.7,0.5c0,0.8,2.5,0.9,2.5,2.7c0,0.5-0.3,1.6-2.2,1.6c-0.7,0-1.3-0.1-1.7-0.1V50.9"/>
	<rect x="157.1" y="46.6" width="1.4" height="5.4"/>
	<polyline points="161.5,47.5 159.6,47.5 159.6,46.6 164.9,46.6 164.9,47.5 163,47.5 163,52 161.5,52 161.5,47.5 	"/>
	<path d="M165.9,46.6h3.7v0.9h-2.3v1.3h1.9v0.8h-1.9v1.5h2.4V52h-3.9V46.6 M167.8,45.1h1.1l-1.1,1.1H167L167.8,45.1z"/>
	<path d="M120.3,57.3h2.4c1,0,1.6,0.4,1.6,1.4c0,1.1-0.7,1.9-1.9,1.9h-0.8v2.1h-1.4V57.3 M121.7,59.8c0.5,0,1.2-0.1,1.2-1
		c0-0.5-0.4-0.7-0.8-0.7c-0.1,0-0.3,0-0.4,0.1V59.8z"/>
	<path d="M126.4,57.3h1.4l2.1,5.4h-1.5l-0.5-1.4h-2.1l-0.5,1.4h-1L126.4,57.3 M127.6,60.5l-0.7-1.9l-0.7,1.9H127.6z"/>
	<path d="M130.9,57.3h2.6c0.7,0,1.5,0.4,1.5,1.4c0,0.7-0.4,1.3-1,1.5l1.7,2.5H134l-1.2-2.2h-0.5v2.2h-1.4V57.3 M132.3,59.7h0.5
		c0.5,0,0.8-0.5,0.8-0.9c0-0.4-0.2-0.6-0.8-0.6h-0.4V59.7z"/>
	<rect x="136.7" y="57.3" width="1.4" height="5.4"/>
	<path d="M139.5,61.6c0.5,0.2,1,0.3,1.5,0.3c0.4,0,0.9-0.1,0.9-0.6c0-0.9-2.4-1-2.4-2.7c0-1.1,1-1.5,1.9-1.5c0.5,0,1.1,0.1,1.6,0.2
		v1c-0.4-0.2-0.9-0.3-1.4-0.3c-0.3,0-0.7,0.1-0.7,0.5c0,0.8,2.5,0.9,2.5,2.7c0,0.5-0.3,1.6-2.2,1.6c-0.7,0-1.3-0.1-1.7-0.1V61.6"/>
	<rect x="144.1" y="60" width="1.6" height="0.8"/>
	<polyline points="147,57.3 150.7,57.3 150.7,58.2 148.4,58.2 148.4,59.5 150.3,59.5 150.3,60.3 148.4,60.3 148.4,61.8 150.8,61.8 
		150.8,62.7 147,62.7 147,57.3 	"/>
	<path d="M151.8,61.6c0.5,0.2,1,0.3,1.5,0.3c0.4,0,0.9-0.1,0.9-0.6c0-0.9-2.4-1-2.4-2.7c0-1.1,1-1.5,1.9-1.5c0.5,0,1.1,0.1,1.6,0.2
		v1c-0.4-0.2-0.9-0.3-1.4-0.3c-0.3,0-0.7,0.1-0.7,0.5c0,0.8,2.5,0.9,2.5,2.7c0,0.5-0.3,1.6-2.2,1.6c-0.7,0-1.3-0.1-1.7-0.1V61.6"/>
	<polyline points="158.2,58.2 156.3,58.2 156.3,57.3 161.6,57.3 161.6,58.2 159.7,58.2 159.7,62.7 158.2,62.7 158.2,58.2 	"/>
	<path d="M170,58.4c-0.5-0.2-1.1-0.3-1.6-0.3c-1.3,0-1.7,0.9-1.7,1.9c0,1.2,0.6,2,1.9,2c0.5,0,1.1-0.2,1.6-0.4v1
		c-0.6,0.2-1.3,0.3-2,0.3c-1.8,0-2.9-1-2.9-2.8c0-1.8,1.2-2.8,2.9-2.8c0.7,0,1.3,0.1,1.9,0.2V58.4"/>
	<path d="M171.3,57.3h2.6c0.7,0,1.5,0.4,1.5,1.4c0,0.7-0.4,1.3-1,1.5l1.7,2.5h-1.7l-1.2-2.2h-0.5v2.2h-1.4V57.3 M172.6,59.7h0.5
		c0.5,0,0.8-0.5,0.8-0.9c0-0.4-0.2-0.6-0.8-0.6h-0.4V59.7z"/>
	<path d="M177,57.3h3.7v0.9h-2.3v1.3h1.9v0.8h-1.9v1.5h2.4v0.9H177V57.3 M178.9,55.9h1.1L179,57h-0.9L178.9,55.9z"/>
	<polyline points="183.6,58.2 181.6,58.2 181.6,57.3 187,57.3 187,58.2 185,58.2 185,62.7 183.6,62.7 183.6,58.2 	"/>
	<polyline points="188,57.3 191.7,57.3 191.7,58.2 189.4,58.2 189.4,59.5 191.3,59.5 191.3,60.3 189.4,60.3 189.4,61.8 191.9,61.8 
		191.9,62.7 188,62.7 188,57.3 	"/>
	<rect x="193.1" y="57.3" width="1.4" height="5.4"/>
	<polyline points="196.1,57.3 197.6,57.3 197.6,61.8 200,61.8 200,62.7 196.1,62.7 196.1,57.3 	"/>
	<polyline points="119.8,68 121.3,68 122.7,72 122.8,72 124.2,68 125.1,68 123.2,73.4 121.8,73.4 119.8,68 	"/>
	<path d="M127.1,68h1.4l2.1,5.4h-1.5l-0.5-1.4h-2.1l-0.5,1.4h-1L127.1,68 M128.3,71.2l-0.7-1.9l-0.7,1.9H128.3z"/>
	<polyline points="131.6,68 133.1,68 133.1,72.6 135.5,72.6 135.5,73.4 131.6,73.4 131.6,68 	"/>
	<path d="M139.5,68h3c0.7,0,2.3,0.5,2.3,2.6c0,1.9-1.1,2.8-2.5,2.8h-2.7V68 M140.9,72.5c0.2,0,0.5,0.1,0.7,0.1
		c1.2,0,1.6-0.9,1.6-1.9c0-0.8-0.2-1.8-1.5-1.8h-0.7V72.5z"/>
	<polyline points="145.9,68 149.6,68 149.6,68.9 147.3,68.9 147.3,70.3 149.2,70.3 149.2,71.1 147.3,71.1 147.3,72.6 149.8,72.6 
		149.8,73.4 145.9,73.4 145.9,68 	"/>
	<polyline points="153.9,68 155.8,68 156.9,71.5 156.9,71.5 158.1,68 159.7,68 159.7,73.4 158.4,73.4 158.4,69.7 158.4,69.7 
		157.2,73.1 156.1,73.1 155,69.6 155,69.6 155,73.4 153.9,73.4 153.9,68 	"/>
	<path d="M162.8,68h1.4l2.1,5.4h-1.5l-0.5-1.4h-2.1l-0.5,1.4h-1L162.8,68 M164,71.2l-0.7-1.9l-0.7,1.9H164z"/>
	<path d="M167.3,68h2.6c0.7,0,1.5,0.4,1.5,1.4c0,0.7-0.4,1.3-1,1.5l1.7,2.5h-1.7l-1.2-2.2h-0.5v2.2h-1.4V68 M168.7,70.5h0.5
		c0.5,0,0.8-0.5,0.8-0.9c0-0.4-0.2-0.6-0.8-0.6h-0.4V70.5z"/>
	<polyline points="173.1,68 174.3,68 176.6,71.3 176.6,71.3 176.6,68 177.7,68 177.7,73.4 176.5,73.4 174.2,70.2 174.2,70.2 
		174.2,73.4 173.1,73.4 173.1,68 	"/>
	<polyline points="179.3,68 183,68 183,68.9 180.7,68.9 180.7,70.3 182.6,70.3 182.6,71.1 180.7,71.1 180.7,72.6 183.2,72.6 
		183.2,73.4 179.3,73.4 179.3,68 	"/>
	<path d="M0.4,84.5c0-1.1,0.5-2.1,1.2-2.8c0.7-0.7,1.5-1.1,2.5-1.1c1.1,0,1.9,0.6,2.3,1.3L6,82.1C5.6,81.4,5.1,81,4.1,81
		c-0.8,0-1.6,0.4-2.1,0.9c-0.7,0.7-1.1,1.6-1.1,2.6c0,1.3,0.9,2.1,2.1,2.1c0.9,0,1.5-0.4,2.1-0.9l0.3,0.3C4.8,86.5,4.1,87,3,87
		C1.6,87,0.4,86,0.4,84.5"/>
	<path d="M11.6,84.2c0,0.7-0.3,1.4-0.8,1.9C10.3,86.6,9.6,87,8.9,87c-1.2,0-2-0.8-2-2c0-0.7,0.3-1.4,0.8-1.9
		c0.5-0.5,1.1-0.8,1.9-0.8C10.8,82.2,11.6,83.1,11.6,84.2 M10.4,85.9c0.4-0.4,0.7-1,0.7-1.7c0-1-0.6-1.6-1.6-1.6
		c-0.5,0-1.1,0.3-1.5,0.6c-0.4,0.4-0.7,1-0.7,1.7c0,1,0.6,1.6,1.6,1.6C9.5,86.6,10.1,86.3,10.4,85.9z"/>
	<path d="M13.9,82.4h0.4l-0.2,0.8c0.4-0.5,0.9-0.9,1.7-0.9c0.9,0,1.5,0.6,1.5,1.4c0,0.2,0,0.4-0.1,0.6l-0.7,2.5h-0.4l0.7-2.6
		c0-0.2,0.1-0.4,0.1-0.6c0-0.7-0.4-1.1-1.2-1.1c-0.8,0-1.6,0.7-1.9,1.7l-0.7,2.5h-0.4L13.9,82.4"/>
	<path d="M19.8,82.4h0.4L20,83.2c0.4-0.5,0.9-0.9,1.7-0.9c0.9,0,1.5,0.6,1.5,1.4c0,0.2,0,0.4-0.1,0.6l-0.7,2.5H22l0.7-2.6
		c0-0.2,0.1-0.4,0.1-0.6c0-0.7-0.4-1.1-1.2-1.1c-0.8,0-1.6,0.7-1.9,1.7L19,86.9h-0.4L19.8,82.4"/>
	<path d="M24.4,85.7c0-0.4,0.2-0.8,0.4-1.1c0.4-0.4,0.9-0.6,1.6-0.6c0.6,0,1.3,0.1,1.7,0.3l0-0.1c0-0.1,0.1-0.3,0.1-0.5
		c0-0.7-0.5-1.1-1.4-1.1c-0.5,0-0.9,0.1-1.3,0.2l-0.1-0.4c0.4-0.2,0.9-0.3,1.4-0.3c1.1,0,1.7,0.5,1.7,1.4c0,0.2,0,0.4-0.1,0.6
		l-0.7,2.6h-0.4l0.2-0.8c-0.4,0.5-1,0.9-1.8,0.9C25.1,87,24.4,86.5,24.4,85.7 M28,85.1l0.1-0.4c-0.5-0.1-1-0.2-1.7-0.2
		c-0.5,0-0.9,0.2-1.2,0.4c-0.2,0.2-0.3,0.5-0.3,0.8c0,0.6,0.4,0.9,1.1,0.9C26.8,86.6,27.7,86,28,85.1z"/>
	<path d="M31.2,82.4h0.4l-1.2,4.5H30L31.2,82.4 M31.6,80.6h0.5L32,81.2h-0.5L31.6,80.6z"/>
	<path d="M32.3,86.2l0.3-0.3c0.5,0.5,1.1,0.7,1.7,0.7c0.6,0,1.2-0.4,1.2-0.9c0-0.3-0.2-0.6-1-0.9c-0.9-0.3-1.3-0.6-1.3-1.2
		c0-0.7,0.7-1.3,1.7-1.3c0.6,0,1.2,0.3,1.6,0.6l-0.3,0.3c-0.3-0.3-0.9-0.5-1.4-0.5c-0.8,0-1.2,0.4-1.2,0.8c0,0.3,0.2,0.6,1,0.9
		c0.9,0.4,1.2,0.7,1.2,1.2c0,0.8-0.8,1.4-1.7,1.4C33.5,87,32.8,86.7,32.3,86.2"/>
	<path d="M37.1,86.2l0.3-0.3c0.5,0.5,1.1,0.7,1.7,0.7c0.6,0,1.2-0.4,1.2-0.9c0-0.3-0.2-0.6-1-0.9c-0.9-0.3-1.3-0.6-1.3-1.2
		c0-0.7,0.7-1.3,1.7-1.3c0.6,0,1.2,0.3,1.6,0.6L41,83.2c-0.3-0.3-0.9-0.5-1.4-0.5c-0.8,0-1.2,0.4-1.2,0.8c0,0.3,0.2,0.6,1,0.9
		c0.9,0.4,1.2,0.7,1.2,1.2c0,0.8-0.8,1.4-1.7,1.4C38.3,87,37.6,86.7,37.1,86.2"/>
	<path d="M42.1,85.7c0-0.4,0.2-0.8,0.4-1.1c0.4-0.4,0.9-0.6,1.6-0.6c0.6,0,1.3,0.1,1.7,0.3l0-0.1c0-0.1,0.1-0.3,0.1-0.5
		c0-0.7-0.5-1.1-1.4-1.1c-0.5,0-0.9,0.1-1.3,0.2l-0.1-0.4c0.4-0.2,0.9-0.3,1.4-0.3c1.1,0,1.7,0.5,1.7,1.4c0,0.2,0,0.4-0.1,0.6
		l-0.7,2.6h-0.4l0.2-0.8c-0.4,0.5-1,0.9-1.8,0.9C42.8,87,42.1,86.5,42.1,85.7 M45.6,85.1l0.1-0.4c-0.5-0.1-1-0.2-1.7-0.2
		c-0.5,0-0.9,0.2-1.2,0.4c-0.2,0.2-0.3,0.5-0.3,0.8c0,0.6,0.4,0.9,1.1,0.9C44.5,86.6,45.4,86,45.6,85.1z"/>
	<path d="M48.8,82.4h0.4L49,83.2c0.4-0.5,0.9-0.9,1.7-0.9c0.9,0,1.5,0.6,1.5,1.4c0,0.2,0,0.4-0.1,0.6l-0.7,2.5H51l0.7-2.6
		c0-0.2,0.1-0.4,0.1-0.6c0-0.7-0.4-1.1-1.2-1.1c-0.8,0-1.6,0.7-1.9,1.7L48,86.9h-0.4L48.8,82.4"/>
	<path d="M53.6,85c0-0.8,0.3-1.5,0.8-2c0.5-0.5,1.1-0.8,1.8-0.8c0.9,0,1.5,0.5,1.8,1.1l-0.4,0.2c-0.3-0.5-0.7-0.9-1.4-0.9
		c-0.5,0-1.1,0.2-1.4,0.6c-0.4,0.4-0.7,1.1-0.7,1.7c0,1,0.7,1.6,1.5,1.6c0.6,0,1-0.3,1.5-0.6l0.3,0.3c-0.5,0.4-1,0.8-1.8,0.8
		C54.6,87,53.6,86.3,53.6,85"/>
	<path d="M59.4,84.8c0,0.1,0,0.2,0,0.3c0,0.9,0.6,1.5,1.5,1.5c0.7,0,1.1-0.2,1.5-0.6l0.3,0.3c-0.5,0.4-1,0.7-1.8,0.7
		c-1.1,0-2-0.8-2-1.9c0-0.8,0.3-1.5,0.9-2.1c0.5-0.5,1.1-0.8,1.7-0.8c1.1,0,1.7,0.8,1.7,1.7c0,0.3,0,0.6-0.1,0.8H59.4 M59.5,84.4
		h3.3c0-0.1,0-0.2,0-0.4c0-0.7-0.4-1.4-1.3-1.4c-0.5,0-1,0.2-1.4,0.6C59.9,83.6,59.6,83.9,59.5,84.4z"/>
	<polyline points="66.2,84 68.6,84 68.4,84.5 66.1,84.5 66.2,84 	"/>
	<path d="M74.7,80.6h0.4l1.2,6.2h-0.5l-0.3-1.7h-3.6l-1.3,1.7h-0.5L74.7,80.6 M75.5,84.7l-0.7-3.6l-2.6,3.6H75.5z"/>
	<path d="M77.9,85c0-0.8,0.3-1.5,0.8-2c0.5-0.5,1.1-0.8,1.8-0.8c0.9,0,1.5,0.5,1.8,1.1l-0.4,0.2c-0.3-0.5-0.7-0.9-1.4-0.9
		c-0.5,0-1.1,0.2-1.4,0.6c-0.4,0.4-0.7,1.1-0.7,1.7c0,1,0.7,1.6,1.5,1.6c0.6,0,1-0.3,1.5-0.6l0.3,0.3c-0.5,0.4-1,0.8-1.8,0.8
		C78.8,87,77.9,86.3,77.9,85"/>
	<path d="M83.6,86c0-0.1,0-0.3,0.1-0.4l0.8-2.9h-0.7l0.1-0.4h0.7l0.4-1.4h0.4l-0.4,1.4h1.6l-0.1,0.4h-1.6l-0.8,2.9
		c0,0.1,0,0.3,0,0.4c0,0.4,0.3,0.5,0.7,0.5c0.2,0,0.4,0,0.7-0.1l-0.1,0.4c-0.2,0.1-0.4,0.1-0.6,0.1C84,86.9,83.6,86.7,83.6,86"/>
	<path d="M88.3,82.4h0.4l-1.2,4.5h-0.4L88.3,82.4 M88.7,80.6h0.5l-0.2,0.6h-0.5L88.7,80.6z"/>
	<path d="M94.5,84.2c0,0.7-0.3,1.4-0.8,1.9c-0.5,0.5-1.1,0.8-1.9,0.8c-1.2,0-2-0.8-2-2c0-0.7,0.3-1.4,0.8-1.9
		c0.5-0.5,1.1-0.8,1.9-0.8C93.7,82.2,94.5,83.1,94.5,84.2 M93.4,85.9c0.4-0.4,0.7-1,0.7-1.7c0-1-0.6-1.6-1.6-1.6
		c-0.5,0-1.1,0.3-1.5,0.6c-0.4,0.4-0.7,1-0.7,1.7c0,1,0.6,1.6,1.6,1.6C92.5,86.6,93,86.3,93.4,85.9z"/>
	<path d="M96.9,82.4h0.4l-0.2,0.8c0.4-0.5,0.9-0.9,1.7-0.9c0.9,0,1.5,0.6,1.5,1.4c0,0.2,0,0.4-0.1,0.6l-0.7,2.5h-0.4l0.7-2.6
		c0-0.2,0.1-0.4,0.1-0.6c0-0.7-0.4-1.1-1.2-1.1c-0.8,0-1.6,0.7-1.9,1.7l-0.7,2.5h-0.4L96.9,82.4"/>
	<path d="M29.5,46.6h11c6.4,0,10.3,3.8,10.3,9.3v0.1c0,6.2-4.8,9.5-10.9,9.5h-4.5v8.1h-5.9V46.6 M40.1,60.1c3,0,4.7-1.8,4.7-4.1V56
		c0-2.7-1.8-4.1-4.8-4.1h-4.6v8.2H40.1z"/>
	<polyline points="53.4,46.6 73.7,46.6 73.7,51.8 59.3,51.8 59.3,57.3 72,57.3 72,62.5 59.3,62.5 59.3,68.2 73.9,68.2 73.9,73.5 
		53.4,73.5 53.4,46.6 	"/>
	<path d="M75.4,60.1L75.4,60.1c0-7.7,5.8-14,14-14c5.1,0,8.1,1.7,10.6,4.1l-3.8,4.3c-2.1-1.9-4.2-3-6.9-3c-4.5,0-7.8,3.8-7.8,8.4V60
		c0,4.6,3.2,8.5,7.8,8.5c3.1,0,5-1.2,7.1-3.2l3.8,3.8c-2.8,3-5.8,4.8-11,4.8C81.3,73.9,75.4,67.8,75.4,60.1"/>
	<path d="M17.5,62c0,4.3-2.2,6.5-5.8,6.5s-5.8-2.3-5.8-6.6V46.6H0v15.4c0,7.9,4.4,11.9,11.6,11.9c7.2,0,11.8-4,11.8-12.1l0-18.4
		l-6,2V62"/>
	<polygon class="st0" points="23.5,27.8 23.5,43.3 99.6,17.7 99.6,2.2 	"/>
	<rect x="109.8" y="33.3" width="0.7" height="53.4"/>
</g>
<rect class="st59" width="246" height="120"/>
</svg>
