<svg xmlns="http://www.w3.org/2000/svg" viewBox="0 0 108.5 47.06"><defs><style>.cls-1,.cls-3{fill:#878787;}.cls-2{fill:#1d1d1b;}.cls-3{fill-rule:evenodd;}.cls-4,.cls-7{fill:#ffdf00;}.cls-5{fill:#e63027;}.cls-6{fill:#134395;}.cls-7{stroke:#fff;stroke-width:0.16px;}.cls-8{fill:none;stroke:#1d1d1b;stroke-linecap:round;stroke-linejoin:round;stroke-width:0.35px;}</style></defs><g id="Calque_2" data-name="Calque 2"><g id="Calque_2-2" data-name="Calque 2"><path class="cls-1" d="M47.7,10.7l-.36,0V14H46.28V6.28a4.29,4.29,0,0,1,2-.44c1.89,0,2.75,1,2.75,2.44S50.07,10.93,47.7,10.7Zm.55-4.22a2.38,2.38,0,0,0-.91.16V10l.35,0c1.69.17,2.31-.61,2.31-1.78S49.48,6.48,48.25,6.48Z"/><path class="cls-1" d="M54.52,14.13c-1.64,0-2.4-.72-2.4-1.86,0-1.68,1.57-2.17,3.52-2.37V9.52c0-1-.58-1.26-1.39-1.26a3.58,3.58,0,0,0-1.52.4l-.25-.61a4.19,4.19,0,0,1,1.93-.47,1.92,1.92,0,0,1,2.2,2.05v4A4.38,4.38,0,0,1,54.52,14.13Zm1.12-3.7c-1.59.2-2.54.54-2.54,1.81,0,.91.57,1.29,1.5,1.29a2.29,2.29,0,0,0,1-.21Z"/><path class="cls-1" d="M61,8.38a1.86,1.86,0,0,0-1.43.12V14h-1V8a5,5,0,0,1,2.71-.44Z"/><path class="cls-1" d="M62.7,14V4.82h1V14Z"/><path class="cls-1" d="M66.49,11.25c.11,1.42.78,2.13,1.92,2.13A3.05,3.05,0,0,0,70,13l.27.68a3.72,3.72,0,0,1-1.91.44c-1.64,0-2.8-1.05-2.8-3.29s1-3.26,2.54-3.26,2.42,1,2.39,3.09Zm1.53-3c-.91,0-1.59.74-1.57,2.45l3-.46C69.47,8.81,68.92,8.25,68,8.25Z"/><path class="cls-1" d="M79.25,14V9.47A1.1,1.1,0,0,0,78,8.26a1.66,1.66,0,0,0-1.3.57V14h-1V9.42c0-.7-.47-1.17-1.38-1.17a2.64,2.64,0,0,0-1.14.21V14h-1V8a4.62,4.62,0,0,1,2.19-.45,2.3,2.3,0,0,1,1.93.76,2.62,2.62,0,0,1,2-.76,1.82,1.82,0,0,1,2,1.86V14Z"/><path class="cls-1" d="M83,11.25c.12,1.42.78,2.13,1.92,2.13A3.09,3.09,0,0,0,86.44,13l.27.68a3.78,3.78,0,0,1-1.91.44c-1.65,0-2.81-1.05-2.81-3.29S83,7.58,84.53,7.58s2.42,1,2.4,3.09Zm1.53-3c-.91,0-1.59.74-1.56,2.45l3-.46C85.94,8.81,85.4,8.25,84.49,8.25Z"/><path class="cls-1" d="M92.18,14V9.48c0-.59-.24-1.23-1.32-1.23a2.59,2.59,0,0,0-1.19.22V14h-1V8a5.23,5.23,0,0,1,2.3-.45c1.76,0,2.27,1,2.27,1.88V14Z"/><path class="cls-1" d="M97.06,14.07a1.47,1.47,0,0,1-1.57-1.59V8.34h-.72V7.7h.72V6.25l1-.31V7.7h1.1v.64h-1.1v4.11c0,.51.22.91.8.91a1.65,1.65,0,0,0,.3,0V14A2,2,0,0,1,97.06,14.07Z"/><path class="cls-2" d="M47.59,21.67v5.66h-1V21.67h-.72V21h.72v-.88a1.85,1.85,0,0,1,2.13-2v.65A1.06,1.06,0,0,0,47.59,20v1h1.1v.65Z"/><path class="cls-2" d="M52.6,21.7a1.88,1.88,0,0,0-1.44.12v5.51h-1v-6a5.15,5.15,0,0,1,2.72-.44Z"/><path class="cls-2" d="M56.07,27.45c-1.63,0-2.39-.71-2.39-1.86,0-1.67,1.56-2.17,3.52-2.36v-.39c0-1-.59-1.25-1.39-1.25a3.53,3.53,0,0,0-1.53.4L54,21.38A4.12,4.12,0,0,1,56,20.91c1.17,0,2.2.5,2.2,2.05V27A4.56,4.56,0,0,1,56.07,27.45Zm1.13-3.7c-1.59.2-2.54.54-2.54,1.82,0,.91.56,1.28,1.5,1.28a2.32,2.32,0,0,0,1-.21Z"/><path class="cls-2" d="M63.67,27.33V22.81c0-.59-.25-1.23-1.32-1.23a2.67,2.67,0,0,0-1.2.22v5.53h-1v-6a5.26,5.26,0,0,1,2.31-.44c1.75,0,2.27,1,2.27,1.87v4.55Z"/><path class="cls-2" d="M68.8,27.45c-1.38,0-2.39-1.24-2.39-3.27s1-3.27,2.42-3.27a2.07,2.07,0,0,1,1.39.42l-.24.6a1.48,1.48,0,0,0-.94-.31c-1.15,0-1.59,1-1.59,2.52S68,26.69,69,26.69a1.59,1.59,0,0,0,1-.3l.26.64A2.11,2.11,0,0,1,68.8,27.45Z"/><path class="cls-2" d="M73.74,27.45c-1.72,0-2.47-1.42-2.47-3.27s.76-3.27,2.46-3.27,2.47,1.39,2.47,3.27S75.45,27.45,73.74,27.45Zm0-5.89c-1.2,0-1.44,1.35-1.44,2.62s.26,2.56,1.44,2.56,1.43-1.29,1.43-2.56S75,21.56,73.74,21.56Z"/><path class="cls-2" d="M79.91,27.43a3,3,0,0,1-1-.16v2.58h-1v-8.5a3.94,3.94,0,0,1,2-.44c1.78,0,2.79,1.24,2.79,3.17C82.66,26.17,81.57,27.43,79.91,27.43Zm-.08-5.9a2.22,2.22,0,0,0-.9.17v4.95a1.83,1.83,0,0,0,.77.14c1.27,0,1.93-1,1.93-2.66S81.16,21.53,79.83,21.53Z"/><path class="cls-2" d="M87.91,27.33V22.86a1.12,1.12,0,0,0-1.29-1.24,2.2,2.2,0,0,0-1.23.32v5.39h-1V18.15h1v3.2A3.12,3.12,0,0,1,86.85,21c1.6,0,2.09,1,2.09,1.86v4.5Z"/><path class="cls-2" d="M93.12,27.45c-1.72,0-2.47-1.42-2.47-3.27s.76-3.27,2.46-3.27,2.46,1.39,2.46,3.27S94.82,27.45,93.12,27.45Zm0-5.89c-1.21,0-1.44,1.35-1.44,2.62s.26,2.56,1.44,2.56,1.43-1.29,1.43-2.56S94.32,21.56,93.12,21.56Z"/><path class="cls-2" d="M100.83,27.33V22.81c0-.59-.25-1.23-1.32-1.23a2.67,2.67,0,0,0-1.2.22v5.53h-1v-6a5.26,5.26,0,0,1,2.31-.44c1.75,0,2.27,1,2.27,1.87v4.55Z"/><path class="cls-2" d="M104.54,24.57c.11,1.43.78,2.13,1.91,2.13a3.11,3.11,0,0,0,1.56-.36l.27.68a3.84,3.84,0,0,1-1.91.43c-1.65,0-2.8-1-2.8-3.29s1.05-3.25,2.54-3.25,2.42,1,2.39,3.09Zm1.53-3c-.91,0-1.59.73-1.57,2.44l3-.45C107.52,22.14,107,21.58,106.07,21.58Z"/><path class="cls-2" d="M48.1,41a3.53,3.53,0,0,1-1.89-.45V31.72h1v3.09a2.5,2.5,0,0,1,1.29-.3C50,34.51,51,35.73,51,37.64S50,41,48.1,41Zm.16-5.9a1.83,1.83,0,0,0-1,.25V40.2a2.06,2.06,0,0,0,.89.15c1.3,0,1.81-1.09,1.81-2.68C49.93,36.29,49.45,35.12,48.26,35.12Z"/><path class="cls-2" d="M55.14,35.27a1.88,1.88,0,0,0-1.44.12V40.9h-1v-6a5.05,5.05,0,0,1,2.72-.44Z"/><path class="cls-2" d="M59,41c-1.58,0-2.24-.8-2.24-2.06V34.59h1V39A1.17,1.17,0,0,0,59,40.3a2.17,2.17,0,0,0,1.14-.25V34.59h1v5.94A4.49,4.49,0,0,1,59,41Z"/><path class="cls-2" d="M66.42,40.9l-1.36-2.56h0L63.66,40.9H62.59l2-3.26-1.75-3h1.08l1.23,2.31h0l1.25-2.31h1l-1.75,3,2,3.35Z"/><path class="cls-2" d="M69.52,38.14c.11,1.43.78,2.13,1.92,2.13A3.2,3.2,0,0,0,73,39.91l.27.67a3.72,3.72,0,0,1-1.91.44c-1.65,0-2.8-1-2.8-3.29s1-3.25,2.54-3.25,2.42,1,2.39,3.09Zm1.53-3c-.91,0-1.59.73-1.57,2.44l3-.46C72.5,35.71,72,35.15,71.05,35.15Z"/><path class="cls-2" d="M75.26,40.9V31.72h1V40.9Z"/><path class="cls-2" d="M78.49,40.9V31.72h1V40.9Z"/><path class="cls-2" d="M83.78,41c-1.72,0-2.47-1.42-2.47-3.27s.76-3.27,2.46-3.27,2.46,1.39,2.46,3.27S85.49,41,83.78,41Zm0-5.89c-1.21,0-1.44,1.35-1.44,2.62s.26,2.55,1.44,2.55S85.2,39,85.2,37.75,85,35.13,83.78,35.13Z"/><path class="cls-2" d="M88.53,33.38a.57.57,0,1,1,0-1.14.57.57,0,1,1,0,1.14ZM88,40.9V34.59h1V40.9Z"/><path class="cls-2" d="M92.28,41a2.78,2.78,0,0,1-1.61-.43l.28-.68a2,2,0,0,0,1.23.38,1.09,1.09,0,0,0,1.17-1.09c0-.66-.35-1-1-1.21-1.23-.45-1.48-1.11-1.48-1.76a1.76,1.76,0,0,1,1.89-1.73,2.64,2.64,0,0,1,1.47.43l-.27.62a1.76,1.76,0,0,0-1-.35,1,1,0,0,0-1.05,1c0,.61.44.9,1.05,1.14,1.23.46,1.53,1.12,1.53,1.85A2,2,0,0,1,92.28,41Z"/><g id="parenthese"><path class="cls-3" d="M41.14,23.55c-6,3.16-4.3,12.61-4.51,21.9-.17,1-1.16,1.63-2.58,1.61s1-.69,1-1.93c.3-8.88-1.57-18.19,4.19-21.26l.55-.34"/></g><g id="parenthese-2" data-name="parenthese"><path class="cls-3" d="M39.8,23.55l-.64-.36C33.4,20.13,35.28,10.82,35,1.93,35,.69,32.6.09,34,0s2.41.57,2.58,1.61c.21,9.3-1.56,18.68,4.47,21.84l.08.1"/></g><rect class="cls-4" x="0.17" y="8.99" width="14.32" height="13.99"/><path class="cls-5" d="M5.79,11.24c-.07.12-.17.08-.17,0s-.29.48-.29.54,0,.25,0,.24l.14,0c.11,0,.07-.17.16-.24s.07-.2.14-.2.09,0,.09.06-.09.17-.09.2a1,1,0,0,1,.71,0,.27.27,0,0,0,.36-.11c.18-.25.19-.28.15-.5L7,11c-.08-.64-.56.31-.56-.28-.14,0-.42.66-.42.18A1.17,1.17,0,0,0,5.79,11.24Z"/><path class="cls-5" d="M5.28,12.27c-.14.39,0,0,.29,0l0-.12S5.28,12.19,5.28,12.27Z"/><path class="cls-5" d="M5.62,12.32s-.25.16-.28.16a2.18,2.18,0,0,0,.39-.05C5.67,12.3,5.67,12.33,5.62,12.32Z"/><path class="cls-5" d="M5,12.89c0,.1.08.07.1.1.11-.12.12-.38.29-.38C5.22,12.62,5,12.76,5,12.89Z"/><path class="cls-5" d="M5.35,12.92c-.09.25.32.18.38,0a.54.54,0,0,0,0-.31C5.64,12.7,5.42,12.79,5.35,12.92Z"/><path class="cls-5" d="M5.44,17.57c0,.06,0,.23-.06.23s.18.15.24.21c0,.37.19.47.37.39a1.42,1.42,0,0,1,.46-.14c-.12-.19-.45-.48-.48-.72a1.82,1.82,0,0,1-.54-.19A.55.55,0,0,1,5.44,17.57Z"/><path class="cls-5" d="M6.54,16.91c-.11,0-.26.07-.31,0a3.07,3.07,0,0,0,.76.26c.26.06.19,0,.24-.12S6.57,16.91,6.54,16.91Z"/><path class="cls-5" d="M7.28,16.75a1.53,1.53,0,0,1-.38,0l-.16.08a4.24,4.24,0,0,1,.54.11S7.31,16.75,7.28,16.75Z"/><path class="cls-5" d="M7.28,16.45l0-.15a.9.9,0,0,1-.23.26l.25,0Z"/><path class="cls-5" d="M6.89,17.36c-.06,0-.2-.07-.25-.07a2,2,0,0,0,1.23.32s0-.15,0-.2-.19,0-.41,0A2.72,2.72,0,0,1,6.89,17.36Z"/><path class="cls-5" d="M6.32,17.82c.24.41.86.65,1,1,.1,0,.18.1.18.18a.46.46,0,0,1,.29,0s.17-.12.16-.2a.88.88,0,0,1,.12-.67.71.71,0,0,1-.54.25,1.73,1.73,0,0,0,.29-.65,5.29,5.29,0,0,1-1-.17c-.18-.06.1.07-.68,0C6.18,17.59,6.32,17.8,6.32,17.82Z"/><path class="cls-5" d="M4.47,17.78a1.28,1.28,0,0,1,.06.39A.56.56,0,0,0,4.6,18c0-.09,0-.13.13-.11a1.45,1.45,0,0,1,.72.37c0-.12,0-.1,0-.11-.21-.16-.14-.27-.21-.25-.89-.11-1-.33-1-.33l-.3-.08H3.51a2.09,2.09,0,0,1-.45.22.08.08,0,0,1,0,0l-.26.06c-.09,0-.28.11-.23.25s.05.06.07.11c-.05-.16,0-.09,0-.13a1.73,1.73,0,0,0,.5-.28c.14-.12.24-.08.17,0-.17.32-.17.34-.23.44s.13.27.11.22c-.08-.22,0,0,.1-.31s.08-.36.19-.42a.94.94,0,0,0,.41-.06l0,0A1.63,1.63,0,0,0,4,18.3c.07,0,.07,0,.07.12.2-.17-.13-.58,0-.75A.63.63,0,0,1,4.47,17.78Z"/><path class="cls-5" d="M8.81,14.09a4,4,0,0,0-.17.53c-.39.39.9-.37,1-.55l.43,0a3.49,3.49,0,0,1,.79.24,1.47,1.47,0,0,0-.56-.32c-.12-.08-.48-.06-.42-.2a1.41,1.41,0,0,0,.17-.32A1.68,1.68,0,0,0,8.81,14.09Z"/><path class="cls-5" d="M10,13.8l.17,0a.66.66,0,0,0,.15-.33l-.16,0A.71.71,0,0,1,10,13.8Z"/><path class="cls-5" d="M9.67,14.29h.19c-.06,0,.07-.1,0-.07H9.7Z"/><path class="cls-5" d="M8.14,15.79a.37.37,0,0,1,.09.14,2.22,2.22,0,0,1,2-.63,1,1,0,0,0-1-.27A3.2,3.2,0,0,0,8.14,15.79Z"/><path class="cls-5" d="M8.61,16.72a1.53,1.53,0,0,0,.22-.16c-.09-.09-.2-.17-.32-.11Z"/><path class="cls-5" d="M9.07,18.41c-.11,0,.2.12.45.05.07.17-.15.3-.34.45.57,0,.66-.51.58,0a2.68,2.68,0,0,0,.08,1.19,2,2,0,0,1,.24-1.15c.12-.18.16-.24.19-.2a1.36,1.36,0,0,0,.19.45,3.35,3.35,0,0,1,.35-1.32,1.47,1.47,0,0,1-1.07.24A.83.83,0,0,1,9.07,18.41Z"/><path class="cls-5" d="M5.77,11.93s.1-.17.51-.07.43.57.44.58a.66.66,0,0,0-.67-.27C6.14,11.79,5.81,11.9,5.77,11.93Z"/><path class="cls-5" d="M5.82,12.1s0,0,0-.07.11.06.09.07l0,.07,0,.07s0,0,0,0-.08.05-.08.08,0,0,0-.06a.24.24,0,0,1-.08-.09s0-.08,0-.09Z"/><path class="cls-5" d="M5.2,13.63s.67-.21.7-.79.13-.35.07-.38.28-.26.52,0a.67.67,0,0,1,.26.6,4.41,4.41,0,0,1-.15.75,4.32,4.32,0,0,0-.19.69,1.22,1.22,0,0,1-.12-.59c0-.35-.09-.12-.13-.08a.67.67,0,0,1-.23.24,1.06,1.06,0,0,0-.33.54c0,.11-.11-.31-.07-.48a1.73,1.73,0,0,1,.16-.35c0-.06,0-.09-.08-.09A.86.86,0,0,1,5.2,13.63Z"/><path class="cls-5" d="M6.16,14s-.16.2-.23.27a1.1,1.1,0,0,0-.17.33,1,1,0,0,1,.55,0c.07.06,0-.12,0-.16A1,1,0,0,1,6.16,14Z"/><path class="cls-5" d="M6.15,16.66c0,.1.23.17.09.17a1.36,1.36,0,0,1-.8-.34c-.1-.1-.18-.28-.24-.34a2.16,2.16,0,0,1-.32-.63A.3.3,0,0,1,5,15.2c.06,0,.14,0,.29-.09a.34.34,0,0,0,.21-.18A.55.55,0,0,1,6,14.75a1.08,1.08,0,0,1,.87.57.9.9,0,0,1-.08.92c0,.06-.07.1,0,.12a.28.28,0,0,0,.17,0,1.12,1.12,0,0,1-.15.19l-.23-.09s-.12,0-.07.07a.27.27,0,0,0,.15.13l-.17.09-.27-.08A.12.12,0,0,0,6.15,16.66Z"/><path class="cls-5" d="M4.58,16.26s0,.06,0,.06c.28.3.21.58,1,.92a3.23,3.23,0,0,0,1,.19c-.08,0-.26-.26-.31-.27a2.38,2.38,0,0,1-.87-.48s-.13,0-.18,0A2.64,2.64,0,0,1,4.58,16.26Z"/><path class="cls-5" d="M10.62,12.49l-.3-.06a2.63,2.63,0,0,0-.9.12c.06-.05.62-.36.95-.62a6.52,6.52,0,0,0,.86-.9,1.67,1.67,0,0,1-.26.66c-.19.24-.22.26-.28.3s0,.09,0,.09a2,2,0,0,0,.63-.11c.23-.11,0,.08,0,.07C11.06,12.24,10.89,12.3,10.62,12.49Z"/><path class="cls-5" d="M7.28,19.06s0-.06,0,0a.77.77,0,0,1,.09.13s0,0,.09,0l.14,0s.07,0,0,0a3.07,3.07,0,0,0-.52.64c-.12.26-.19.52,0,.67s.2.11.31.24a.23.23,0,0,1,.05.23s0,0,0-.12,0,0-.13,0-.12-.06-.2-.11.09,0-.09,0h-.4s0,0-.08.07a.48.48,0,0,1-.22.27c-.11.06-.11,0-.15,0s0,.13,0,.17,0,0,0,0-.18,0,0-.35a.45.45,0,0,1,.14-.14.06.06,0,0,1,0,0s0-.1,0-.06-.34,0-.34,0a.2.2,0,0,1-.16.08c-.12,0-.09,0-.1.08a.31.31,0,0,0,0,.1.52.52,0,0,1-.1-.2c0-.06,0-.07,0-.12a.72.72,0,0,1,.33-.1,2.28,2.28,0,0,1,.51,0c.13,0,.07-.11.25-.3A1.46,1.46,0,0,0,7,19.92c.06-.1,0-.1.08-.22s.16-.3.19-.39S7.28,19.07,7.28,19.06Z"/><path class="cls-5" d="M7.24,20s0,0,.07,0,.09,0,.13,0,0,.06-.13.07-.07,0-.07,0Z"/><path class="cls-5" d="M10.11,17.55a1.38,1.38,0,0,0,.06-.31s0-.51-.12-.28a.57.57,0,0,1-.52.24.81.81,0,0,0,0-.67s-.06-.19-.16.09-.47.31-.43.28a.39.39,0,0,0,0-.59c-.32-.21-.42,0-.44,0l-.12-.22a3.27,3.27,0,0,1,.85-.5,1.07,1.07,0,0,1,1,.21,1.29,1.29,0,0,1,.4.82A1,1,0,0,1,10.11,17.55Z"/><path class="cls-5" d="M9.79,14.9s.63.27.74.5-.09.13-.18.1a.94.94,0,0,0-.37-.09c-.19,0,.26,0,.46.32A1.69,1.69,0,0,1,10.78,17a1,1,0,0,1-.5.69,1.38,1.38,0,0,1-.73.12c-.22-.05.12.1.12.1a1.26,1.26,0,0,0,.92-.1.82.82,0,0,0,.38-.32s0,0,0,0a.75.75,0,0,1-.09.5c-.13.21.2-.1.37-.48a2.13,2.13,0,0,0-.25-1.89c-.46-.5-.16-.2-.49-.47A1.49,1.49,0,0,0,9.79,14.9Z"/><path class="cls-5" d="M8.07,15.68a3.39,3.39,0,0,1,1-.79,2.78,2.78,0,0,1,1.67-.24c.24,0-.54-.3-1.19-.2a1.93,1.93,0,0,0-1.06.46,3.71,3.71,0,0,0-.54.61Z"/><path class="cls-5" d="M11.34,15.8c.4,1,.32,1.16.25,1.58a3.46,3.46,0,0,1-.54,1.28,2.32,2.32,0,0,0-.33,1.09c0,.09.16-.58.46-.71.13-.06.15-.06.11.11a2.82,2.82,0,0,0,.21,1.22c.06.09,0-.11,0-.43a4.82,4.82,0,0,1,.26-1.31A4.47,4.47,0,0,0,12,16.11a1.69,1.69,0,0,0-1.79-1.34c-.57,0-.24,0,.14.15A1.27,1.27,0,0,1,11.34,15.8Z"/><path class="cls-5" d="M6.45,14.68A3.77,3.77,0,0,1,8,15.85,5.45,5.45,0,0,1,8.56,17a1.57,1.57,0,0,0,.51.61c.12,0-.35,0-.43-.15s0,.64.23.81-.27-.08-.32-.21-.07.71-.07.83a2.22,2.22,0,0,1-.24-1c0-.22-.15.16-.37.28s.19-.14.22-.79a1.94,1.94,0,0,0-.08-.6c0-.1,0-.15-.07-.17s-.08.08-.12.17a1.36,1.36,0,0,1-.26.33c-.38.27,0-.17-.12-.79s-.15-.4-.15-.4,0,.15-.26.26,0-.07,0-.27a1,1,0,0,0-.16-.81.92.92,0,0,0-.35-.31A.33.33,0,0,1,6.45,14.68Z"/><path class="cls-5" d="M7.61,15.17l.2.23a2.18,2.18,0,0,1,.67-1.34,3,3,0,0,1,1.5-.71,2,2,0,0,1,1.17.14,1.26,1.26,0,0,1,.63.74.89.89,0,0,1,0,.52c0,.08.16-.23.14-.66a1.8,1.8,0,0,0-1.07-1.32,2.3,2.3,0,0,0-1.61,0,2.64,2.64,0,0,0-1.4,1.2A3.12,3.12,0,0,0,7.61,15.17Z"/><path class="cls-5" d="M8.18,14.74a2,2,0,0,0-.12.31c.19-.24.37-.28.38-.32a1.18,1.18,0,0,1,.13-.55A3.34,3.34,0,0,0,8.18,14.74Z"/><path class="cls-5" d="M5.24,13.06a.17.17,0,0,0,.23.15c.16,0-.2.23-.28.27a2.55,2.55,0,0,0-.25.1s-.08.06,0,.15a.86.86,0,0,0,.41.11c.06,0,.07,0,0,.05a1.37,1.37,0,0,0,0,.7.27.27,0,0,1-.15.33,1.35,1.35,0,0,0-.45.21.71.71,0,0,0,0,.78,3.27,3.27,0,0,0,.3.5,3.65,3.65,0,0,1-.8-.61,1.19,1.19,0,0,1-.37-1c0-.46,0-.29.07-.39a1.22,1.22,0,0,0,.06-.29,1.1,1.1,0,0,1,.43-.74C4.91,13.22,5.24,13.06,5.24,13.06Z"/><path class="cls-4" d="M14.47,23H28.74V35.1a1.9,1.9,0,0,1-1.93,2.18H17.7c-1.81.07-2.72,1.82-3.2,3.61Z"/><path class="cls-6" d="M14.49,23H.18V35.15A1.93,1.93,0,0,0,2.1,37.29h9.14c1.83.07,2.77,1.79,3.25,3.58Z"/><path class="cls-5" d="M20.07,25.38c-.07.12-.17.08-.17,0s-.29.49-.29.55,0,.25,0,.23l.14,0c.11,0,.07-.17.16-.24s.07-.2.14-.2.09,0,.09.06-.09.17-.09.2a.94.94,0,0,1,.7,0,.27.27,0,0,0,.37-.11c.18-.25.19-.29.15-.5l0-.13c-.09-.64-.56.3-.56-.28-.14,0-.42.65-.42.18A1,1,0,0,0,20.07,25.38Z"/><path class="cls-5" d="M19.56,26.41c-.15.39,0-.05.29,0l0-.12C19.76,26.25,19.56,26.33,19.56,26.41Z"/><path class="cls-5" d="M19.9,26.46s-.26.15-.28.15a1.63,1.63,0,0,0,.39,0C20,26.43,20,26.47,19.9,26.46Z"/><path class="cls-5" d="M19.32,27c0,.09.08.06.1.08s.12-.37.28-.37C19.5,26.76,19.32,26.89,19.32,27Z"/><path class="cls-5" d="M19.63,27.05c-.09.25.32.19.38,0a.5.5,0,0,0,0-.32C19.92,26.84,19.7,26.93,19.63,27.05Z"/><path class="cls-5" d="M19.72,31.71c0,.06.05.23-.06.23s.18.15.24.2c0,.38.19.47.37.4a1.42,1.42,0,0,1,.46-.14c-.12-.19-.45-.48-.48-.72a1.59,1.59,0,0,1-.54-.2A.6.6,0,0,1,19.72,31.71Z"/><path class="cls-5" d="M20.82,31.05c-.11,0-.26.07-.31,0a2.91,2.91,0,0,0,.76.26c.26,0,.18,0,.23-.12Z"/><path class="cls-5" d="M21.56,30.89a1,1,0,0,1-.39-.05l-.15.1a2.88,2.88,0,0,1,.54.1S21.59,30.89,21.56,30.89Z"/><path class="cls-5" d="M21.55,30.59l0-.15c0,.08-.14.17-.22.26l.24,0Z"/><path class="cls-5" d="M21.17,31.5c-.06,0-.2-.07-.26-.07a2.17,2.17,0,0,0,1.24.31s0-.14,0-.2a3.66,3.66,0,0,1-.41,0A2.72,2.72,0,0,1,21.17,31.5Z"/><path class="cls-5" d="M20.6,32c.24.41.86.64,1,1,.1,0,.18.1.18.19a.46.46,0,0,1,.29,0s.17-.13.16-.21a.92.92,0,0,1,.11-.66.69.69,0,0,1-.53.25,1.89,1.89,0,0,0,.29-.65,5.29,5.29,0,0,1-1-.17c-.18-.07.1.06-.68,0C20.46,31.73,20.6,31.94,20.6,32Z"/><path class="cls-5" d="M18.75,31.92a1.28,1.28,0,0,1,.06.39.56.56,0,0,0,.07-.22c0-.09,0-.13.13-.11a1.45,1.45,0,0,1,.72.37c0-.13,0-.1,0-.11-.22-.17-.15-.28-.21-.25-.89-.11-1-.33-1-.33l-.3-.08h-.39a3.17,3.17,0,0,1-.45.23l0,0-.26.07c-.09,0-.28.1-.23.24s.05.06.07.11c-.05-.17,0-.09,0-.13a1.69,1.69,0,0,0,.5-.29c.14-.11.24-.08.17,0-.17.31-.17.33-.23.44s.13.27.11.22c-.08-.22,0,0,.1-.32,0-.13.08-.35.19-.41a1.12,1.12,0,0,0,.41-.06l0,0a1.71,1.71,0,0,0,.12.66c.08,0,.07,0,.07.14.21-.18-.12-.59,0-.76A.7.7,0,0,1,18.75,31.92Z"/><path class="cls-5" d="M23.09,28.23a3.23,3.23,0,0,0-.17.53c-.39.39.9-.38,1-.55l.43,0a3,3,0,0,1,.78.24,1.44,1.44,0,0,0-.56-.32c-.11-.08-.47-.06-.41-.2a1.91,1.91,0,0,0,.16-.32A1.6,1.6,0,0,0,23.09,28.23Z"/><path class="cls-5" d="M24.28,27.94l.18,0s.1-.14.15-.33l-.16,0A.63.63,0,0,1,24.28,27.94Z"/><path class="cls-5" d="M24,28.42h.19c-.06,0,.07-.1,0-.07l-.18,0Z"/><path class="cls-5" d="M22.42,29.93a.44.44,0,0,1,.09.13,2.24,2.24,0,0,1,2-.62,1,1,0,0,0-1-.28A3.37,3.37,0,0,0,22.42,29.93Z"/><path class="cls-5" d="M22.89,30.87l.22-.18c-.09-.08-.21-.16-.32-.1Z"/><path class="cls-5" d="M23.34,32.55c-.1,0,.21.11.46.05.07.17-.16.29-.34.45.57,0,.65-.51.58,0a2.67,2.67,0,0,0,.08,1.19,2,2,0,0,1,.24-1.15c.12-.18.16-.24.19-.21a1.25,1.25,0,0,0,.18.46A3.54,3.54,0,0,1,25.09,32a1.47,1.47,0,0,1-1.07.24C23.7,32.53,23.71,32.48,23.34,32.55Z"/><path class="cls-5" d="M20.05,26.06s.1-.16.51-.06a.62.62,0,0,1,.43.58.63.63,0,0,0-.66-.27C20.42,25.92,20.09,26,20.05,26.06Z"/><path class="cls-5" d="M20.1,26.24s0,0,0-.07.11.06.09.07l0,.07a.64.64,0,0,0,0,.07s0,0,0,0l-.08.07s0,0,0,0a.24.24,0,0,1-.08-.09s0-.08,0-.1Z"/><path class="cls-5" d="M19.48,27.77s.67-.21.7-.79.12-.35.07-.39.28-.25.52,0a.68.68,0,0,1,.26.61,4.41,4.41,0,0,1-.15.75,4.32,4.32,0,0,0-.19.69,1.3,1.3,0,0,1-.12-.6c0-.34-.09-.11-.13-.07a.84.84,0,0,1-.24.24,1.11,1.11,0,0,0-.32.54c0,.11-.11-.31-.07-.48a2.3,2.3,0,0,1,.16-.36c0-.05,0-.09-.08-.08A.84.84,0,0,1,19.48,27.77Z"/><path class="cls-5" d="M20.44,28.16l-.23.26a1,1,0,0,0-.17.34,1.09,1.09,0,0,1,.54,0c.07.06,0-.11,0-.15A1,1,0,0,1,20.44,28.16Z"/><path class="cls-5" d="M20.43,30.79c0,.11.23.18.09.18a1.36,1.36,0,0,1-.8-.35,3.75,3.75,0,0,1-.24-.33,2,2,0,0,1-.32-.63.3.3,0,0,1,.15-.32c.06-.05.13,0,.29-.09a.34.34,0,0,0,.21-.19.54.54,0,0,1,.46-.17,1.08,1.08,0,0,1,.87.57.91.91,0,0,1-.08.92c0,.06-.07.1,0,.11a.21.21,0,0,0,.16,0,1.26,1.26,0,0,1-.14.19,1.91,1.91,0,0,0-.23-.1s-.12,0-.08.08a.28.28,0,0,0,.16.13l-.17.09-.27-.08A.15.15,0,0,0,20.43,30.79Z"/><path class="cls-5" d="M18.86,30.4s0,.06,0,.06c.28.3.21.58,1,.92a3.23,3.23,0,0,0,1,.19c-.09,0-.26-.26-.31-.27a2.58,2.58,0,0,1-.87-.48l-.18,0A2.64,2.64,0,0,1,18.86,30.4Z"/><path class="cls-5" d="M24.9,26.62s.14,0-.3,0a2.38,2.38,0,0,0-.91.11c.07-.06.63-.36,1-.62a6.52,6.52,0,0,0,.86-.9,1.67,1.67,0,0,1-.26.66,1.14,1.14,0,0,1-.28.29c-.07.05,0,.1,0,.09a1.89,1.89,0,0,0,.64-.1c.23-.11,0,.07,0,.06C25.34,26.38,25.17,26.44,24.9,26.62Z"/><path class="cls-5" d="M21.56,33.2s0-.06,0,0a1.28,1.28,0,0,1,.09.14s0,0,.09,0l.14,0s.07,0,0,0a2.82,2.82,0,0,0-.52.64c-.12.25-.19.52,0,.67s.2.11.31.23a.24.24,0,0,1,.05.24s0,0,0-.12,0,0-.13,0-.12-.06-.2-.12.09,0-.09,0h-.41s0,0-.07.07a.58.58,0,0,1-.22.27c-.11.06-.11,0-.15.05s0,.13,0,.17,0,0,0,0-.19,0,0-.36a.46.46,0,0,1,.14-.14h.05s0-.1,0-.07-.34,0-.34,0a.17.17,0,0,1-.16.08c-.12,0-.09,0-.1.09a.31.31,0,0,0,0,.1.52.52,0,0,1-.1-.2c0-.06,0-.07.05-.13a.87.87,0,0,1,.33-.09,2.25,2.25,0,0,1,.51,0c.12,0,.07-.11.25-.31s.15-.15.21-.25,0-.11.08-.22.16-.3.19-.39S21.56,33.2,21.56,33.2Z"/><path class="cls-5" d="M21.52,34.12s0,0,.06,0,.1,0,.14,0,0,.06-.13.06-.08,0-.08,0Z"/><path class="cls-5" d="M24.38,31.68a2.12,2.12,0,0,0,.07-.3c0-.05,0-.51-.12-.29s-.53.27-.52.25a.84.84,0,0,0,0-.68s-.06-.18-.17.1-.46.31-.42.28a.39.39,0,0,0,0-.59c-.32-.21-.42,0-.44,0l-.12-.22a3.52,3.52,0,0,1,.85-.51,1.13,1.13,0,0,1,1,.21,1.39,1.39,0,0,1,.4.83A1,1,0,0,1,24.38,31.68Z"/><path class="cls-5" d="M24.07,29s.63.27.74.5-.09.13-.18.1a1,1,0,0,0-.38-.09c-.18,0,.27,0,.47.32a1.7,1.7,0,0,1,.34,1.23,1,1,0,0,1-.5.7,1.41,1.41,0,0,1-.74.12c-.21-.05.13.09.13.09a1.22,1.22,0,0,0,.92-.09.82.82,0,0,0,.38-.32c.05,0,.05,0,.05,0a.75.75,0,0,1-.09.5c-.14.21.19-.1.37-.48a2.13,2.13,0,0,0-.25-1.89c-.47-.5-.16-.2-.49-.47A1.49,1.49,0,0,0,24.07,29Z"/><path class="cls-5" d="M22.35,29.82a3.39,3.39,0,0,1,1-.79A2.78,2.78,0,0,1,25,28.79a1.9,1.9,0,0,0-1.19-.2,1.94,1.94,0,0,0-1.07.46,3.64,3.64,0,0,0-.53.6Z"/><path class="cls-5" d="M25.62,29.94c.4,1,.32,1.16.25,1.58a3.53,3.53,0,0,1-.54,1.28A2.32,2.32,0,0,0,25,33.89c0,.09.16-.58.46-.71.13,0,.15-.07.11.11a2.54,2.54,0,0,0,.21,1.22c.06.08,0-.12,0-.43a4.76,4.76,0,0,1,.26-1.31,4.47,4.47,0,0,0,.27-2.52,1.69,1.69,0,0,0-1.79-1.34c-.58,0-.25,0,.14.15S25.34,29.24,25.62,29.94Z"/><path class="cls-5" d="M20.73,28.82A3.81,3.81,0,0,1,22.27,30a6.38,6.38,0,0,1,.57,1.11c.13.22.32.53.5.6s-.35,0-.42-.14,0,.64.23.81-.27-.08-.32-.21-.07.71-.08.83a2.43,2.43,0,0,1-.23-1c0-.21-.15.16-.37.28s.19-.13.21-.79a1.68,1.68,0,0,0-.07-.59c0-.11,0-.15-.07-.17s-.08.08-.12.17a1.39,1.39,0,0,1-.26.33c-.38.26,0-.17-.12-.8s-.15-.39-.15-.39,0,.15-.26.26,0-.07.05-.27a1,1,0,0,0-.17-.81c-.19-.24-.26-.28-.34-.32A.4.4,0,0,1,20.73,28.82Z"/><path class="cls-5" d="M21.89,29.31l.2.23a2.22,2.22,0,0,1,.67-1.35,3,3,0,0,1,1.5-.71,2.08,2.08,0,0,1,1.17.15,1.26,1.26,0,0,1,.63.74,1.06,1.06,0,0,1,0,.53.94.94,0,0,0,.13-.66,1.73,1.73,0,0,0-1.06-1.33,2.3,2.3,0,0,0-1.61-.05,2.64,2.64,0,0,0-1.4,1.2A2.77,2.77,0,0,0,21.89,29.31Z"/><path class="cls-5" d="M22.46,28.88a1.66,1.66,0,0,0-.12.31c.19-.25.37-.28.38-.33a1.16,1.16,0,0,1,.13-.54A2.51,2.51,0,0,0,22.46,28.88Z"/><path class="cls-5" d="M19.51,27.2a.18.18,0,0,0,.24.15c.16,0-.2.23-.28.26s-.23.09-.25.11-.08.06,0,.15a.83.83,0,0,0,.41.1c.06,0,.07,0,0,.05a1.43,1.43,0,0,0,0,.71.27.27,0,0,1-.15.33,1.35,1.35,0,0,0-.45.21.69.69,0,0,0,0,.78c.19.34.27.46.29.49a4,4,0,0,1-.79-.59,1.24,1.24,0,0,1-.38-1c0-.45.06-.28.08-.38a1.53,1.53,0,0,0,.06-.29,1.1,1.1,0,0,1,.43-.74C19.19,27.35,19.51,27.2,19.51,27.2Z"/><path class="cls-7" d="M6.9,35.72c-1.43,0-1.51-1.26-1.51-2.1C3.9,33.27,5.26,30.55,3.76,31c-.36.1-.9.67-1,.67-1.93-.13-1.34-2.18.66-2.41a2.33,2.33,0,0,1,1.84.85c.51.75.31,1.83.45,2.75-.14-.92.06-2-.45-2.75a2.56,2.56,0,0,0-1.82-.86,1.14,1.14,0,0,1,2-.61c-1-1.33-.39-3.25.44-3.44A1.44,1.44,0,0,1,6,26a16,16,0,0,0,0,3.25A17.67,17.67,0,0,1,6,26c.14-.86,2-2.2,1.77-.84,0-.32-1.81,3.68-1.28,4.52a10.63,10.63,0,0,0,1-3.9c0-.47.62-.71.15-1.17s1.08.66,1.08,1.15c0,1.24-1.13,2.14-1.45,3.35.32-1.21,1.32-1.86,1.45-3.35,2.83,1-1.11,3.67-1.11,3.67.24,0,1.07.07,1.24.76A3.28,3.28,0,0,1,13,31.45c.47.82-.92,1.7-1.62,1a3.07,3.07,0,0,0-2.54-1.19A3.85,3.85,0,0,0,6,33.77c1-1.64,2.77-2.85,4.1-1.21.36.45-.31,1.26-.83.94C7.15,32.23,6.05,33.79,6.9,35.72Z"/><path class="cls-7" d="M5.9,32.25a2.24,2.24,0,0,1,1.49-1.64A14.59,14.59,0,0,1,5.9,32.25Z"/><rect class="cls-6" x="14.49" y="9" width="14.25" height="13.98"/><path class="cls-7" d="M21.18,21.59c-1.43,0-1.52-1.26-1.52-2.11-1.48-.35-.12-3.07-1.62-2.64-.36.1-.9.67-1.05.67-1.94-.13-1.34-2.18.66-2.41a2.34,2.34,0,0,1,1.84.85c.51.76.3,1.83.45,2.75-.15-.92.06-2-.45-2.75a2.57,2.57,0,0,0-1.82-.86,1.14,1.14,0,0,1,2-.61c-1-1.33-.39-3.24.44-3.44a1.48,1.48,0,0,1,.24.83,15.91,15.91,0,0,0,0,3.24,17.57,17.57,0,0,1,0-3.24c.14-.87,2-2.21,1.77-.85,0-.32-1.81,3.68-1.28,4.52a11,11,0,0,0,1-3.9c0-.47.62-.71.14-1.18S23,11.13,23,11.62c0,1.25-1.13,2.14-1.45,3.35.32-1.21,1.32-1.86,1.45-3.35,2.83,1.05-1.12,3.67-1.12,3.67.25,0,1.07.07,1.25.76a3.28,3.28,0,0,1,4.16,1.26c.47.82-.92,1.7-1.63,1a3.08,3.08,0,0,0-2.53-1.19,3.83,3.83,0,0,0-2.88,2.5c1-1.64,2.77-2.85,4.1-1.21.36.45-.31,1.26-.84.95C21.43,18.09,20.33,19.65,21.18,21.59Z"/><path class="cls-7" d="M20.18,18.11a2.22,2.22,0,0,1,1.49-1.64A14.59,14.59,0,0,1,20.18,18.11Z"/><path class="cls-8" d="M28.74,22.89h0V35.07c0,1.39-.66,2.2-1.93,2.19H17.7c-1.81.08-2.72,1.83-3.2,3.62v0c-.49-1.79-1.42-3.54-3.25-3.61H2.11A1.93,1.93,0,0,1,.18,35.15V23.21h0V9H28.74V22.89ZM.2,23H28.69M14.5,9V40.64"/></g></g></svg>