<?xml version="1.0" encoding="UTF-8"?><svg xmlns="http://www.w3.org/2000/svg" viewBox="0 0 442.67 96"><defs><style>.d{fill:#ffed75;}.e{fill:#fc6d71;}.f{fill:#09181b;}.g{fill:#057a8b;}</style></defs><g id="a"/><g id="b"><g id="c"><path class="g" d="M116.54,33h-2.78V15.87h9.67v2.37h-6.89v5.36h6.46v2.38h-6.46v7.03Zm25.21-8.59c0,2.79-.7,4.96-2.1,6.5-1.39,1.55-3.36,2.32-5.92,2.32s-4.57-.77-5.96-2.3c-1.38-1.54-2.08-3.72-2.08-6.55s.7-5,2.09-6.52c1.4-1.52,3.39-2.27,5.98-2.27s4.52,.77,5.91,2.31c1.39,1.54,2.09,3.71,2.09,6.5Zm-13.08,0c0,2.11,.43,3.71,1.28,4.8,.85,1.09,2.11,1.63,3.78,1.63s2.92-.54,3.76-1.62c.85-1.08,1.28-2.68,1.28-4.82s-.42-3.7-1.27-4.78c-.84-1.09-2.09-1.63-3.75-1.63s-2.95,.54-3.81,1.63c-.85,1.09-1.28,2.68-1.28,4.78Zm30.69-.14c0,2.83-.78,4.99-2.35,6.49-1.57,1.49-3.83,2.24-6.79,2.24h-4.79V15.87h5.3c2.73,0,4.85,.73,6.36,2.2,1.52,1.47,2.27,3.54,2.27,6.2Zm-2.95,.09c0-4.1-1.92-6.15-5.75-6.15h-2.42v12.43h1.99c4.12,0,6.19-2.09,6.19-6.28Zm12.88-8.5h5.09c2.36,0,4.06,.34,5.11,1.03,1.06,.69,1.58,1.77,1.58,3.26,0,1-.26,1.83-.77,2.5-.52,.66-1.26,1.08-2.23,1.25v.12c1.2,.23,2.09,.68,2.65,1.35,.57,.66,.85,1.57,.85,2.71,0,1.54-.54,2.75-1.62,3.62-1.07,.87-2.56,1.3-4.48,1.3h-6.19V15.87Zm2.8,7.08h2.7c1.17,0,2.03-.18,2.57-.55,.54-.38,.81-1.01,.81-1.9,0-.8-.29-1.39-.88-1.75-.58-.36-1.5-.54-2.76-.54h-2.43v4.73Zm0,2.27v5.43h2.98c1.17,0,2.06-.22,2.65-.67,.6-.45,.9-1.16,.9-2.13,0-.89-.3-1.55-.91-1.98-.61-.43-1.54-.64-2.78-.64h-2.84Zm18.41,8.02c-2.02,0-3.59-.59-4.73-1.76-1.13-1.18-1.7-2.8-1.7-4.86s.53-3.78,1.58-4.99c1.05-1.21,2.5-1.82,4.35-1.82,1.71,0,3.06,.52,4.05,1.56,.99,1.04,1.49,2.47,1.49,4.29v1.49h-8.64c.04,1.26,.38,2.23,1.02,2.91,.64,.67,1.54,1.01,2.71,1.01,.77,0,1.48-.07,2.13-.21,.66-.15,1.38-.39,2.13-.73v2.24c-.67,.32-1.35,.55-2.04,.68-.69,.13-1.47,.2-2.36,.2Zm-.5-11.34c-.88,0-1.58,.28-2.11,.83-.52,.55-.84,1.36-.94,2.43h5.88c-.02-1.07-.27-1.88-.77-2.43-.5-.55-1.19-.83-2.06-.83Zm11.43,11.11h-2.75V14.77h2.75v18.23Zm9.61,.23c-2.01,0-3.59-.59-4.73-1.76-1.13-1.18-1.7-2.8-1.7-4.86s.53-3.78,1.58-4.99c1.05-1.21,2.5-1.82,4.35-1.82,1.71,0,3.06,.52,4.06,1.56,.99,1.04,1.49,2.47,1.49,4.29v1.49h-8.64c.04,1.26,.38,2.23,1.02,2.91,.64,.67,1.54,1.01,2.71,1.01,.77,0,1.48-.07,2.13-.21,.66-.15,1.38-.39,2.13-.73v2.24c-.67,.32-1.35,.55-2.04,.68-.69,.13-1.47,.2-2.36,.2Zm-.5-11.34c-.88,0-1.58,.28-2.11,.83-.52,.55-.84,1.36-.94,2.43h5.88c-.01-1.07-.27-1.88-.77-2.43-.5-.55-1.19-.83-2.06-.83Zm11.43,11.11h-2.75v-12.96h2.75v12.96Zm-2.92-16.39c0-.49,.13-.87,.4-1.14,.27-.27,.66-.4,1.16-.4s.86,.13,1.12,.4c.27,.27,.41,.64,.41,1.14s-.14,.84-.41,1.11c-.27,.27-.64,.4-1.12,.4s-.89-.13-1.16-.4c-.27-.27-.4-.64-.4-1.11Zm11.24,16.63c-1.62,0-2.88-.59-3.79-1.76-.91-1.17-1.36-2.82-1.36-4.93s.46-3.78,1.37-4.96c.92-1.19,2.2-1.78,3.82-1.78s3,.63,3.89,1.89h.14c-.13-.93-.2-1.66-.2-2.2v-4.72h2.77v18.23h-2.16l-.48-1.7h-.13c-.88,1.29-2.18,1.93-3.88,1.93Zm.74-2.23c1.13,0,1.96-.32,2.47-.95,.52-.64,.78-1.68,.8-3.11v-.39c0-1.63-.27-2.79-.8-3.48-.53-.69-1.36-1.03-2.5-1.03-.97,0-1.71,.39-2.24,1.18-.52,.78-.79,1.9-.79,3.35s.25,2.54,.76,3.29c.51,.75,1.27,1.12,2.29,1.12Zm19.39-11.45c0,.49,.13,.96,.39,1.39,.27,.44,.63,.9,1.1,1.39,.88-.5,1.5-.96,1.85-1.39,.36-.44,.54-.93,.54-1.46,0-.51-.17-.91-.52-1.22-.34-.3-.79-.46-1.35-.46-.62,0-1.11,.16-1.48,.48-.36,.31-.54,.73-.54,1.27Zm1.75,11.31c1.43,0,2.65-.42,3.67-1.25l-4.49-4.42c-.83,.53-1.4,1.03-1.71,1.5-.31,.46-.47,.99-.47,1.58,0,.77,.27,1.39,.81,1.88,.55,.48,1.28,.71,2.19,.71Zm-5.91-2.4c0-1.02,.25-1.91,.75-2.67,.5-.77,1.4-1.52,2.71-2.27-.74-.87-1.25-1.6-1.52-2.19-.27-.6-.4-1.22-.4-1.86,0-1.19,.42-2.12,1.27-2.81,.85-.69,1.99-1.03,3.42-1.03s2.47,.34,3.26,1.01c.79,.66,1.18,1.56,1.18,2.7,0,.89-.27,1.7-.8,2.43-.52,.73-1.4,1.45-2.64,2.18l4.05,3.91c.63-.84,1.16-2.06,1.58-3.68h2.84c-.55,2.22-1.42,4.03-2.62,5.43l3.53,3.41h-3.55l-1.75-1.7c-.8,.64-1.65,1.12-2.55,1.45-.9,.32-1.89,.48-2.99,.48-1.8,0-3.21-.43-4.23-1.28-1.02-.85-1.54-2.02-1.54-3.49Zm40.35-4.05c0,2.79-.7,4.96-2.1,6.5-1.39,1.55-3.36,2.32-5.92,2.32s-4.57-.77-5.96-2.3c-1.38-1.54-2.07-3.72-2.07-6.55s.7-5,2.09-6.52c1.4-1.52,3.39-2.27,5.98-2.27s4.52,.77,5.91,2.31c1.39,1.54,2.09,3.71,2.09,6.5Zm-13.08,0c0,2.11,.43,3.71,1.28,4.8,.85,1.09,2.11,1.63,3.79,1.63s2.92-.54,3.76-1.62c.85-1.08,1.28-2.68,1.28-4.82s-.42-3.7-1.27-4.78c-.84-1.09-2.09-1.63-3.75-1.63s-2.95,.54-3.81,1.63c-.85,1.09-1.28,2.68-1.28,4.78Zm27.87,8.59h-2.77v-7.97c0-1-.2-1.75-.61-2.24-.4-.49-1.04-.74-1.91-.74-1.16,0-2.02,.34-2.55,1.03s-.81,1.84-.81,3.46v6.46h-2.75v-12.96h2.16l.39,1.7h.14c.39-.62,.95-1.09,1.66-1.43,.72-.34,1.52-.5,2.39-.5,3.11,0,4.66,1.58,4.66,4.75v8.45Zm8.2,.23c-1.62,0-2.88-.59-3.79-1.76-.91-1.17-1.36-2.82-1.36-4.93s.46-3.78,1.37-4.96c.92-1.19,2.2-1.78,3.82-1.78s3,.63,3.89,1.89h.14c-.13-.93-.2-1.66-.2-2.2v-4.72h2.77v18.23h-2.16l-.48-1.7h-.13c-.88,1.29-2.18,1.93-3.88,1.93Zm.74-2.23c1.13,0,1.96-.32,2.47-.95,.52-.64,.78-1.68,.8-3.11v-.39c0-1.63-.27-2.79-.8-3.48s-1.36-1.03-2.5-1.03c-.97,0-1.71,.39-2.24,1.18-.52,.78-.79,1.9-.79,3.35s.25,2.54,.76,3.29c.51,.75,1.27,1.12,2.29,1.12Zm15.5,2.23c-2.02,0-3.59-.59-4.73-1.76-1.13-1.18-1.7-2.8-1.7-4.86s.53-3.78,1.58-4.99c1.05-1.21,2.5-1.82,4.35-1.82,1.71,0,3.06,.52,4.05,1.56,.99,1.04,1.49,2.47,1.49,4.29v1.49h-8.64c.04,1.26,.38,2.23,1.02,2.91,.64,.67,1.54,1.01,2.71,1.01,.77,0,1.48-.07,2.13-.21,.66-.15,1.38-.39,2.13-.73v2.24c-.67,.32-1.35,.55-2.04,.68-.69,.13-1.47,.2-2.36,.2Zm-.5-11.34c-.88,0-1.58,.28-2.11,.83-.52,.55-.84,1.36-.94,2.43h5.88c-.02-1.07-.27-1.88-.77-2.43-.5-.55-1.19-.83-2.06-.83Zm15.25-2.09c.55,0,1.01,.04,1.37,.12l-.27,2.57c-.39-.09-.8-.14-1.22-.14-1.1,0-2,.36-2.68,1.08-.68,.72-1.02,1.65-1.02,2.8v6.77h-2.75v-12.96h2.16l.36,2.29h.14c.43-.77,.99-1.39,1.68-1.84,.7-.45,1.44-.68,2.24-.68Zm12.49,9.5c0,1.27-.46,2.24-1.38,2.92-.92,.67-2.24,1.01-3.96,1.01s-3.11-.26-4.16-.79v-2.38c1.52,.7,2.94,1.05,4.25,1.05,1.7,0,2.54-.51,2.54-1.54,0-.33-.09-.6-.28-.82-.19-.22-.5-.45-.93-.68-.43-.23-1.03-.5-1.79-.8-1.49-.58-2.5-1.16-3.04-1.73-.52-.58-.79-1.33-.79-2.25,0-1.11,.45-1.97,1.34-2.58,.9-.62,2.12-.93,3.66-.93s2.96,.31,4.32,.93l-.89,2.07c-1.4-.58-2.57-.87-3.53-.87-1.45,0-2.18,.41-2.18,1.24,0,.41,.19,.75,.56,1.03,.38,.28,1.21,.67,2.48,1.16,1.07,.41,1.85,.79,2.33,1.14,.48,.34,.84,.74,1.08,1.2,.23,.45,.35,.98,.35,1.61Zm7.82,1.7c.67,0,1.34-.11,2.02-.32v2.07c-.3,.13-.7,.24-1.18,.33-.48,.09-.97,.14-1.49,.14-2.61,0-3.91-1.38-3.91-4.12v-6.98h-1.77v-1.22l1.9-1.01,.94-2.74h1.7v2.88h3.69v2.09h-3.69v6.94c0,.66,.16,1.16,.49,1.48,.34,.31,.77,.47,1.31,.47Zm10.28,2.23c-2.02,0-3.59-.59-4.73-1.76-1.13-1.18-1.7-2.8-1.7-4.86s.53-3.78,1.58-4.99c1.05-1.21,2.5-1.82,4.35-1.82,1.71,0,3.06,.52,4.05,1.56,.99,1.04,1.49,2.47,1.49,4.29v1.49h-8.64c.04,1.26,.38,2.23,1.02,2.91,.64,.67,1.54,1.01,2.71,1.01,.77,0,1.48-.07,2.13-.21,.66-.15,1.38-.39,2.13-.73v2.24c-.67,.32-1.35,.55-2.04,.68-.69,.13-1.47,.2-2.36,.2Zm-.5-11.34c-.88,0-1.58,.28-2.11,.83-.52,.55-.84,1.36-.94,2.43h5.88c-.02-1.07-.27-1.88-.77-2.43-.5-.55-1.19-.83-2.06-.83Zm17.81,11.11l-.39-1.7h-.14c-.38,.6-.93,1.07-1.64,1.42-.7,.34-1.51,.52-2.41,.52-1.57,0-2.74-.39-3.52-1.17-.77-.78-1.16-1.96-1.16-3.55v-8.47h2.78v7.99c0,.99,.2,1.74,.61,2.24,.41,.49,1.04,.74,1.91,.74,1.16,0,2-.34,2.54-1.03,.55-.7,.82-1.86,.82-3.48v-6.46h2.77v12.96h-2.17Zm17.5,0h-2.77v-7.97c0-1-.2-1.75-.61-2.24-.4-.49-1.04-.74-1.91-.74-1.16,0-2.02,.34-2.55,1.03s-.81,1.84-.81,3.46v6.46h-2.75v-12.96h2.16l.39,1.7h.14c.39-.62,.95-1.09,1.66-1.43,.72-.34,1.52-.5,2.39-.5,3.11,0,4.66,1.58,4.66,4.75v8.45Zm6.59,0h-2.75v-12.96h2.75v12.96Zm-2.92-16.39c0-.49,.13-.87,.4-1.14,.27-.27,.66-.4,1.16-.4s.86,.13,1.12,.4c.27,.27,.41,.64,.41,1.14s-.14,.84-.41,1.11c-.27,.27-.64,.4-1.12,.4s-.89-.13-1.16-.4c-.27-.27-.4-.64-.4-1.11Zm18.27,16.39h-2.77v-7.97c0-1-.2-1.75-.61-2.24-.4-.49-1.04-.74-1.91-.74-1.16,0-2.02,.34-2.55,1.03s-.81,1.84-.81,3.46v6.46h-2.75v-12.96h2.16l.39,1.7h.14c.39-.62,.95-1.09,1.66-1.43,.72-.34,1.52-.5,2.39-.5,3.11,0,4.66,1.58,4.66,4.75v8.45Zm14.78-12.96v1.51l-2.21,.41c.2,.27,.37,.61,.5,1.01,.13,.4,.2,.82,.2,1.27,0,1.34-.46,2.39-1.38,3.15-.92,.77-2.19,1.15-3.81,1.15-.41,0-.79-.03-1.12-.09-.59,.37-.89,.8-.89,1.29,0,.3,.14,.52,.41,.67,.28,.15,.79,.22,1.54,.22h2.26c1.43,0,2.52,.3,3.26,.91,.74,.61,1.11,1.49,1.11,2.64,0,1.47-.61,2.6-1.82,3.4-1.21,.8-2.96,1.2-5.25,1.2-1.77,0-3.11-.31-4.04-.94s-1.39-1.52-1.39-2.67c0-.8,.25-1.47,.75-2.02,.51-.54,1.21-.91,2.12-1.12-.37-.16-.67-.41-.91-.75-.23-.35-.35-.72-.35-1.1,0-.48,.14-.89,.41-1.23s.68-.67,1.22-1c-.67-.29-1.22-.76-1.64-1.41-.41-.66-.62-1.42-.62-2.3,0-1.41,.44-2.5,1.32-3.27,.89-.77,2.16-1.16,3.8-1.16,.37,0,.75,.03,1.15,.08,.41,.05,.71,.1,.91,.15h4.49Zm-10.18,14.98c0,.59,.27,1.05,.8,1.37,.54,.32,1.29,.48,2.26,.48,1.5,0,2.62-.21,3.35-.64,.73-.43,1.1-1,1.1-1.71,0-.56-.2-.96-.61-1.21-.4-.23-1.14-.35-2.24-.35h-2.09c-.79,0-1.42,.18-1.89,.55-.46,.38-.69,.88-.69,1.51Zm1.18-10.78c0,.81,.21,1.44,.62,1.88,.42,.44,1.02,.66,1.8,.66,1.59,0,2.39-.85,2.39-2.55,0-.84-.2-1.49-.6-1.95-.39-.46-.99-.69-1.79-.69s-1.4,.23-1.82,.68c-.41,.45-.61,1.11-.61,1.98ZM123.64,76.35c0,1.52-.55,2.72-1.65,3.59-1.1,.87-2.62,1.3-4.56,1.3s-3.52-.3-4.76-.9v-2.65c.78,.37,1.61,.66,2.48,.87,.88,.21,1.7,.32,2.46,.32,1.11,0,1.93-.21,2.45-.63,.53-.42,.8-.99,.8-1.7,0-.64-.24-1.18-.73-1.63-.49-.44-1.49-.97-3-1.58-1.56-.63-2.66-1.35-3.3-2.17-.64-.81-.96-1.79-.96-2.93,0-1.43,.51-2.56,1.52-3.38,1.01-.82,2.38-1.23,4.09-1.23s3.27,.36,4.9,1.08l-.89,2.29c-1.52-.64-2.88-.96-4.08-.96-.91,0-1.59,.2-2.06,.6-.47,.39-.7,.91-.7,1.56,0,.44,.09,.83,.28,1.15,.19,.31,.5,.61,.93,.89,.43,.28,1.2,.65,2.32,1.11,1.26,.52,2.18,1.01,2.76,1.46,.59,.45,1.02,.97,1.29,1.54,.27,.57,.41,1.24,.41,2.02Zm14.66-7.3c0,1.79-.59,3.16-1.76,4.11-1.17,.95-2.84,1.43-5,1.43h-1.78v6.41h-2.8v-17.13h4.93c2.14,0,3.74,.44,4.8,1.31,1.07,.88,1.61,2.16,1.61,3.87Zm-8.54,3.19h1.49c1.44,0,2.49-.25,3.16-.75s1.01-1.28,1.01-2.34c0-.99-.3-1.72-.9-2.2-.6-.49-1.54-.73-2.81-.73h-1.95v6.02Zm14.74,8.77h-2.78v-17.13h9.67v2.37h-6.89v5.36h6.46v2.38h-6.46v7.03Zm26.11-4.65c0,1.52-.55,2.72-1.65,3.59-1.1,.87-2.62,1.3-4.56,1.3s-3.52-.3-4.76-.9v-2.65c.78,.37,1.61,.66,2.48,.87,.88,.21,1.7,.32,2.46,.32,1.11,0,1.93-.21,2.45-.63,.53-.42,.8-.99,.8-1.7,0-.64-.24-1.18-.73-1.63-.48-.44-1.48-.97-3-1.58-1.56-.63-2.66-1.35-3.3-2.17-.64-.81-.96-1.79-.96-2.93,0-1.43,.51-2.56,1.52-3.38,1.02-.82,2.38-1.23,4.09-1.23s3.27,.36,4.9,1.08l-.89,2.29c-1.52-.64-2.88-.96-4.08-.96-.91,0-1.59,.2-2.06,.6-.47,.39-.7,.91-.7,1.56,0,.44,.09,.83,.28,1.15,.19,.31,.5,.61,.93,.89,.43,.28,1.2,.65,2.32,1.11,1.26,.52,2.18,1.01,2.76,1.46,.59,.45,1.02,.97,1.29,1.54,.27,.57,.41,1.24,.41,2.02Zm7.85,2.66c.67,0,1.34-.11,2.02-.32v2.07c-.31,.13-.7,.24-1.18,.33-.48,.09-.97,.14-1.49,.14-2.61,0-3.91-1.38-3.91-4.12v-6.98h-1.77v-1.22l1.9-1.01,.94-2.74h1.7v2.88h3.69v2.09h-3.69v6.94c0,.67,.16,1.16,.49,1.48,.34,.31,.77,.47,1.31,.47Zm11.19-11.2c.56,0,1.01,.04,1.37,.12l-.27,2.57c-.39-.09-.8-.14-1.22-.14-1.1,0-2,.36-2.68,1.08-.68,.72-1.02,1.65-1.02,2.8v6.77h-2.75v-12.96h2.16l.36,2.28h.14c.43-.77,.99-1.39,1.68-1.84,.69-.45,1.44-.68,2.24-.68Zm11.9,13.19l-.55-1.81h-.09c-.62,.79-1.25,1.33-1.89,1.62-.63,.28-1.45,.42-2.44,.42-1.27,0-2.27-.34-2.99-1.03-.71-.69-1.07-1.66-1.07-2.92,0-1.34,.5-2.34,1.49-3.02,.99-.68,2.5-1.05,4.54-1.11l2.24-.07v-.69c0-.83-.2-1.45-.59-1.85-.38-.41-.98-.62-1.79-.62-.66,0-1.3,.1-1.91,.29-.61,.19-1.2,.43-1.76,.69l-.89-1.97c.7-.37,1.47-.64,2.31-.83,.84-.2,1.62-.29,2.37-.29,1.65,0,2.89,.36,3.73,1.08,.84,.72,1.27,1.85,1.27,3.39v8.73h-1.97Zm-4.1-1.88c1,0,1.8-.28,2.4-.83,.61-.56,.91-1.35,.91-2.35v-1.13l-1.66,.07c-1.3,.05-2.24,.26-2.84,.66-.59,.38-.88,.97-.88,1.77,0,.58,.17,1.03,.51,1.35,.34,.31,.86,.47,1.55,.47Zm14.74-.12c.67,0,1.34-.11,2.01-.32v2.07c-.31,.13-.7,.24-1.18,.33-.48,.09-.97,.14-1.49,.14-2.61,0-3.91-1.38-3.91-4.12v-6.98h-1.77v-1.22l1.9-1.01,.94-2.74h1.7v2.88h3.69v2.09h-3.69v6.94c0,.67,.16,1.16,.49,1.48,.34,.31,.77,.47,1.31,.47Zm10.28,2.23c-2.02,0-3.59-.59-4.73-1.76-1.13-1.18-1.7-2.8-1.7-4.86s.53-3.78,1.58-4.99c1.05-1.21,2.5-1.82,4.35-1.82,1.71,0,3.06,.52,4.05,1.56,.99,1.04,1.49,2.47,1.49,4.29v1.49h-8.64c.04,1.26,.38,2.23,1.02,2.91,.64,.67,1.54,1.01,2.71,1.01,.77,0,1.48-.07,2.13-.21,.66-.15,1.38-.39,2.13-.73v2.24c-.67,.32-1.35,.55-2.04,.68-.69,.13-1.47,.2-2.36,.2Zm-.5-11.34c-.88,0-1.58,.28-2.11,.83-.52,.55-.84,1.36-.94,2.43h5.88c-.02-1.07-.27-1.88-.77-2.43-.5-.56-1.19-.83-2.06-.83Zm-1.76-3.43v-.29c.45-.55,.9-1.16,1.37-1.83,.48-.67,.85-1.25,1.12-1.72h3.2v.25c-.41,.48-1.02,1.09-1.83,1.85-.8,.75-1.48,1.33-2.04,1.75h-1.83Zm21.38,1.58v1.51l-2.21,.41c.2,.27,.37,.61,.5,1.01,.13,.4,.2,.82,.2,1.26,0,1.34-.46,2.39-1.38,3.15-.92,.76-2.19,1.15-3.81,1.15-.41,0-.79-.03-1.12-.09-.59,.37-.89,.8-.89,1.29,0,.3,.14,.52,.41,.67,.28,.15,.79,.22,1.54,.22h2.26c1.43,0,2.52,.31,3.26,.91,.74,.61,1.11,1.49,1.11,2.64,0,1.47-.61,2.6-1.82,3.4s-2.96,1.2-5.25,1.2c-1.77,0-3.11-.31-4.04-.94s-1.39-1.52-1.39-2.67c0-.8,.25-1.47,.75-2.01,.51-.54,1.21-.91,2.12-1.12-.37-.16-.67-.41-.91-.75-.23-.35-.35-.72-.35-1.1,0-.48,.14-.89,.41-1.23,.27-.34,.68-.67,1.22-1-.67-.29-1.22-.76-1.64-1.41-.41-.66-.62-1.42-.62-2.3,0-1.41,.44-2.5,1.32-3.27,.89-.77,2.16-1.16,3.8-1.16,.37,0,.75,.03,1.15,.08,.41,.05,.71,.1,.91,.15h4.49Zm-10.18,14.98c0,.59,.27,1.05,.8,1.37,.54,.32,1.29,.48,2.26,.48,1.5,0,2.62-.21,3.35-.64,.73-.43,1.1-1,1.1-1.71,0-.56-.2-.97-.61-1.21-.4-.24-1.14-.35-2.24-.35h-2.09c-.79,0-1.42,.18-1.89,.55-.46,.38-.69,.88-.69,1.51Zm1.18-10.78c0,.81,.21,1.44,.62,1.88,.42,.44,1.02,.66,1.8,.66,1.59,0,2.39-.85,2.39-2.56,0-.84-.2-1.49-.6-1.94-.39-.46-.99-.69-1.79-.69s-1.4,.23-1.82,.68c-.41,.45-.61,1.11-.61,1.98Zm14.17,8.77h-2.75v-12.96h2.75v12.96Zm-2.92-16.39c0-.49,.13-.87,.4-1.14,.27-.27,.66-.4,1.16-.4s.86,.13,1.12,.4c.27,.26,.41,.64,.41,1.14s-.14,.84-.41,1.11c-.27,.26-.64,.4-1.12,.4s-.89-.13-1.16-.4c-.27-.27-.4-.65-.4-1.11Zm12.53,16.63c-2.02,0-3.59-.59-4.73-1.76-1.13-1.18-1.7-2.8-1.7-4.86s.53-3.78,1.58-4.99,2.5-1.82,4.35-1.82c1.71,0,3.06,.52,4.05,1.56s1.49,2.47,1.49,4.29v1.49h-8.64c.04,1.26,.38,2.23,1.02,2.91,.64,.67,1.54,1.01,2.71,1.01,.77,0,1.48-.07,2.13-.21,.66-.15,1.38-.39,2.13-.73v2.24c-.67,.32-1.35,.55-2.04,.68-.69,.13-1.47,.2-2.36,.2Zm-.5-11.34c-.88,0-1.58,.28-2.11,.83-.52,.55-.84,1.36-.94,2.43h5.88c-.02-1.07-.27-1.88-.77-2.43-.5-.56-1.19-.83-2.06-.83Zm18.22-2.33c0,.49,.13,.96,.39,1.39,.27,.44,.63,.9,1.1,1.39,.88-.5,1.5-.96,1.85-1.39,.36-.44,.54-.93,.54-1.47,0-.51-.17-.91-.52-1.22-.34-.31-.79-.46-1.35-.46-.62,0-1.11,.16-1.48,.48-.36,.31-.54,.73-.54,1.27Zm1.75,11.31c1.43,0,2.65-.42,3.67-1.25l-4.49-4.42c-.83,.53-1.4,1.03-1.71,1.5-.31,.46-.47,.99-.47,1.58,0,.77,.27,1.39,.81,1.88,.55,.48,1.28,.71,2.19,.71Zm-5.91-2.4c0-1.02,.25-1.91,.75-2.67,.5-.77,1.4-1.52,2.71-2.27-.74-.87-1.25-1.6-1.52-2.19-.27-.6-.4-1.22-.4-1.86,0-1.19,.42-2.12,1.27-2.81,.85-.69,1.99-1.03,3.42-1.03s2.47,.34,3.26,1.01c.79,.66,1.18,1.56,1.18,2.69,0,.89-.27,1.7-.8,2.43-.52,.73-1.4,1.45-2.64,2.18l4.05,3.91c.63-.84,1.16-2.06,1.58-3.68h2.84c-.55,2.22-1.42,4.03-2.62,5.43l3.53,3.41h-3.55l-1.75-1.7c-.8,.64-1.65,1.12-2.55,1.45-.9,.32-1.89,.48-2.99,.48-1.8,0-3.21-.43-4.23-1.28-1.02-.85-1.54-2.02-1.54-3.49Zm35.77,4.54l-1.71-4.76h-6.55l-1.68,4.76h-2.95l6.41-17.2h3.05l6.41,17.2h-2.98Zm-2.45-7.17l-1.61-4.66c-.12-.31-.28-.81-.49-1.48-.2-.67-.34-1.17-.42-1.48-.21,.96-.52,2.01-.93,3.15l-1.55,4.47h4.99Zm13.97,7.41c-1.64,0-2.91-.59-3.82-1.77h-.16c.11,1.09,.16,1.76,.16,1.99v5.31h-2.75v-18.73h2.23c.06,.24,.19,.82,.39,1.73h.14c.86-1.31,2.15-1.97,3.87-1.97,1.62,0,2.88,.59,3.77,1.76,.91,1.17,1.36,2.82,1.36,4.93s-.46,3.77-1.38,4.96c-.91,1.19-2.18,1.78-3.8,1.78Zm-.67-11.18c-1.09,0-1.89,.32-2.4,.96-.5,.64-.75,1.66-.75,3.07v.41c0,1.58,.25,2.72,.75,3.43,.5,.7,1.32,1.05,2.45,1.05,.95,0,1.69-.39,2.2-1.17,.52-.78,.77-1.89,.77-3.34s-.26-2.55-.77-3.29c-.51-.75-1.26-1.12-2.25-1.12Zm15.62,11.18c-1.64,0-2.91-.59-3.82-1.77h-.16c.11,1.09,.16,1.76,.16,1.99v5.31h-2.75v-18.73h2.23c.06,.24,.19,.82,.39,1.73h.14c.86-1.31,2.15-1.97,3.87-1.97,1.62,0,2.88,.59,3.77,1.76,.91,1.17,1.36,2.82,1.36,4.93s-.46,3.77-1.38,4.96c-.91,1.19-2.18,1.78-3.8,1.78Zm-.67-11.18c-1.09,0-1.89,.32-2.4,.96-.5,.64-.75,1.66-.75,3.07v.41c0,1.58,.25,2.72,.75,3.43,.5,.7,1.32,1.05,2.45,1.05,.95,0,1.69-.39,2.2-1.17,.52-.78,.77-1.89,.77-3.34s-.26-2.55-.77-3.29c-.51-.75-1.26-1.12-2.25-1.12Zm18.19,10.94l-.39-1.7h-.14c-.38,.6-.93,1.07-1.64,1.42-.7,.34-1.51,.51-2.41,.51-1.57,0-2.74-.39-3.52-1.17-.77-.78-1.16-1.96-1.16-3.55v-8.47h2.78v7.99c0,.99,.2,1.74,.61,2.24,.41,.49,1.04,.74,1.91,.74,1.16,0,2-.34,2.54-1.03,.55-.7,.82-1.86,.82-3.48v-6.46h2.77v12.96h-2.17Zm8.85,0h-2.75v-12.96h2.75v12.96Zm-2.92-16.39c0-.49,.13-.87,.4-1.14,.27-.27,.66-.4,1.16-.4s.86,.13,1.12,.4c.27,.26,.41,.64,.41,1.14s-.14,.84-.41,1.11c-.27,.26-.64,.4-1.12,.4s-.89-.13-1.16-.4c-.27-.27-.4-.65-.4-1.11Z"/><path class="g" d="M72.41,85.81c-2.83,2.74-6.63,4.25-10.57,4.21-1.89,0-3.75-.39-5.48-1.15-1.73-.76-3.28-1.86-4.57-3.24-2.61-2.79-4.07-6.47-4.07-10.3s1.45-7.51,4.07-10.3c1.28-1.39,2.84-2.5,4.58-3.26,1.74-.76,3.61-1.15,5.5-1.14,8.47,0,14.85,6.35,14.85,14.77,.02,1.93-.35,3.85-1.09,5.64-.74,1.79-1.82,3.41-3.19,4.77h-.03Zm10.47-10.6v-18.42c0-.34-.14-.66-.38-.9s-.57-.37-.9-.37h-3.62c-.34,0-.67,.13-.9,.37-.24,.24-.37,.57-.37,.9v3.71c-3.92-3.77-9.16-5.84-14.6-5.79-2.71,0-5.4,.52-7.9,1.57-2.5,1.05-4.77,2.58-6.67,4.52-3.78,3.89-5.88,9.11-5.85,14.54,.03,5.43,2.19,10.62,6.02,14.47,3.83,3.85,9.01,6.04,14.44,6.1,5.43,.06,10.66-2.01,14.58-5.77v3.71c0,.34,.13,.66,.37,.9,.24,.24,.57,.37,.9,.37h3.61c.34,0,.66-.13,.9-.37,.24-.24,.38-.57,.38-.9v-18.67"/><path class="g" d="M26.06,70.73c-4.22-1.54-6.82-2.64-6.82-5.6,0-2.53,2.72-4.49,5.07-4.49,1.13,0,2.24,.32,3.19,.93,.95,.61,1.7,1.49,2.15,2.53,.07,.16,.17,.3,.3,.42,.13,.12,.28,.21,.44,.27,.13,.05,.27,.07,.41,.07,.2,0,.4-.05,.58-.14l3.13-1.6c.29-.15,.52-.41,.62-.72,.11-.31,.09-.65-.05-.96-1-1.97-2.52-3.63-4.39-4.81-1.87-1.18-4.03-1.82-6.24-1.87-2.91-.03-5.73,1.01-7.92,2.91-1.1,.97-1.97,2.17-2.57,3.5-.6,1.34-.9,2.79-.89,4.25,0,7.21,6.75,9.68,11.68,11.48,3.74,1.3,6.38,2.5,6.38,6.1,.01,.93-.17,1.85-.52,2.72-.35,.86-.87,1.65-1.53,2.3-.66,.66-1.44,1.18-2.3,1.53-.86,.35-1.79,.53-2.72,.52-2.72,0-6.31-1.15-8.01-6.64-.05-.16-.13-.31-.24-.44-.11-.13-.24-.24-.39-.32-.18-.1-.38-.15-.59-.14-.13,0-.26,.02-.39,.06l-3.53,1.13c-.31,.1-.57,.31-.73,.6-.16,.28-.2,.62-.12,.93,1.65,6.53,7.15,10.76,14,10.76,7.54,0,13.23-5.53,13.23-12.84,0-8.3-6.22-10.55-11.24-12.38"/><path class="e" d="M92.25,44.15c-.74,0-1.47,.22-2.08,.63-.62,.41-1.1,1-1.38,1.68-.28,.69-.36,1.44-.21,2.17,.14,.73,.5,1.4,1.03,1.92,.52,.52,1.19,.88,1.92,1.03,.73,.14,1.48,.07,2.17-.21,.68-.28,1.27-.76,1.68-1.38,.41-.62,.63-1.34,.63-2.08,0-.49-.09-.98-.27-1.44-.19-.46-.46-.87-.81-1.22-.35-.35-.76-.63-1.22-.81-.46-.19-.95-.28-1.44-.27Z"/><path class="d" d="M15,45.38H81c1.24,0,2.25,1.01,2.25,2.25h0c0,1.24-1.01,2.25-2.25,2.25H15c-1.24,0-2.25-1.01-2.25-2.25h0c0-1.24,1.01-2.25,2.25-2.25Z"/><path class="f" d="M3.75,44.15c-.74,0-1.47,.22-2.08,.63-.62,.41-1.1,1-1.38,1.68-.28,.69-.36,1.44-.21,2.17,.14,.73,.5,1.4,1.03,1.92,.52,.52,1.19,.88,1.92,1.03,.73,.14,1.48,.07,2.17-.21,.69-.28,1.27-.76,1.68-1.38,.41-.62,.63-1.34,.63-2.08,0-.49-.09-.98-.27-1.44-.19-.46-.46-.87-.81-1.22-.35-.35-.76-.63-1.22-.81-.46-.19-.95-.28-1.44-.27Z"/><path class="g" d="M51.77,10.27c1.29-1.4,2.85-2.51,4.59-3.27,1.74-.76,3.62-1.15,5.52-1.14,8.48,0,14.89,6.36,14.89,14.8,.02,1.94-.35,3.86-1.09,5.65-.74,1.79-1.83,3.42-3.2,4.78-2.83,2.75-6.64,4.27-10.59,4.22-1.89,0-3.76-.39-5.5-1.14-1.73-.76-3.29-1.86-4.58-3.25-2.62-2.8-4.07-6.49-4.07-10.32s1.46-7.52,4.07-10.32h-.03Zm10.4,30.9c5.49,.05,10.78-2.07,14.71-5.9,3.86-3.91,6.03-9.18,6.03-14.68s-2.17-10.77-6.03-14.68C72.95,2.07,67.66-.06,62.16,0c-2.7,0-5.38,.53-7.87,1.57-2.49,1.04-4.75,2.58-6.64,4.51-2.85,2.88-4.79,6.54-5.57,10.52-.78,3.98-.37,8.1,1.18,11.85,1.55,3.75,4.17,6.95,7.54,9.22,3.36,2.26,7.32,3.48,11.38,3.51"/><path class="g" d="M19.34,23.01h3.07c2.42,0,4.93,.07,6.65,.93,.82,.46,1.5,1.13,1.96,1.95,.46,.82,.69,1.75,.65,2.69,0,.95-.25,1.88-.72,2.7-.46,.83-1.13,1.52-1.93,2.02-1.43,.97-3.15,1.04-5.43,1.04h-4.25v-11.33Zm0-16.18h1.98c1.93,0,3.74,0,5.07,.84,.67,.47,1.21,1.11,1.56,1.84,.35,.74,.51,1.56,.46,2.37,0,2.07-.48,3.16-1.84,4.15-1.24,.89-2.43,.96-4.1,.96h-3.12V6.83Zm-4.92,33.54h9.83c5.3,0,7.74-1.45,9.59-3.02,1.29-1.09,2.31-2.45,3-3.98s1.03-3.2,.99-4.88c.02-1.95-.49-3.87-1.46-5.56s-2.38-3.09-4.07-4.05c1.53-1.87,2.33-4.24,2.24-6.66,0-3.77-1.22-6.75-3.64-8.85-2.66-2.36-5.86-2.56-8.66-2.56h-7.82c-.33,0-.65,.13-.88,.36-.23,.23-.36,.55-.36,.88V39.12c0,.33,.13,.64,.37,.88,.23,.23,.55,.36,.88,.37Z"/></g></g></svg>