<?xml version="1.0" encoding="utf-8"?>
<!-- Generator: Adobe Illustrator 15.0.2, SVG Export Plug-In . SVG Version: 6.00 Build 0)  -->
<svg version="1.2" baseProfile="tiny" id="Calque_1"
	 xmlns="http://www.w3.org/2000/svg" xmlns:xlink="http://www.w3.org/1999/xlink" x="0px" y="0px" width="430px" height="363px"
	 viewBox="0 0 430 363" overflow="inherit" xml:space="preserve">
<path fill="#B0003E" d="M354.356,137.418c0.094,0.078,0.141,0.078,0.141,0.078l0.017,0.047L354.356,137.418 M375.987,163.341
	c-1.065-3.305-2.663-7.001-5.294-10.823c-3.211-4.683-9.492-9.648-13.643-12.891c0,0-1.66-1.363-2.271-1.864
	c-0.203-1.081-0.282-3.478-0.282-5.216c0-0.533,0-2.287,0-2.287c-0.016-2.741-1.44-5.31-2.302-6.829l-0.36-0.673l-0.109-1.3
	c-0.157-1.88-1.739-3.603-3.649-3.587c-1.52,0.016-2.788,0.83-3.321,2.114c-0.313,0.329-0.517,0.768-0.517,1.269
	c0,0.031,0.016,0.376,0.016,0.517c0,0.595-0.062,1.41-0.282,1.833l-0.376,0.736c-0.814,1.457-2.036,3.696-2.021,5.999
	c0,0,0.016,1.723,0.016,2.255c0.016,2.099-0.016,5.435-0.376,6.25l-2.771,2.255c-4.058,3.242-10.135,8.145-13.157,12.64
	c-5.294,7.91-6.359,15.209-6.5,19.109c-2.271,0.016-8.177,0.047-11.059,0.047c0-2.709-0.031-6.516-0.031-6.516
	c-0.016-2.788-1.66-5.419-2.757-7.174l-0.657-1.081c-0.173-0.407-0.298-1.958-0.313-3.508c0-0.329,0.016-0.658,0.016-0.987v-0.11
	c0-1.457-1.159-2.647-2.616-2.709c-1.503-0.032-2.772,1.127-2.819,2.647c-0.047,1.065-0.047,3.273,0.282,5.137l-0.689,1.128
	c-1.08,1.786-2.568,4.198-2.553,6.735l0.078,14.379c-0.094,0-0.156-0.062-0.25-0.047l-13.032,0.078l-1.816,0.016
	c-2.851,0.094-2.851,0.094-4.198-2.804c-4.495-9.648-12.061-14.128-15.694-16.274c0,0-0.282-0.156-0.532-0.329
	c-0.188-1.128-0.251-3.274-0.251-4.934c-0.016-0.548-0.016-2.35-0.016-2.35c0-2.772-1.456-5.325-2.303-6.86l-0.359-0.658l-0.11-1.3
	c-0.156-1.849-1.754-3.587-3.649-3.571c-1.896,0.031-3.461,1.222-3.587,3.101V145c-0.141,0.25-0.25,0.548-0.25,0.877
	c0,0.031,0.031,0.345,0.031,0.486c0,0.611-0.078,1.41-0.282,1.848l-0.407,0.751c-0.783,1.457-2.021,3.681-1.989,5.983
	c0,0,0.016,1.723,0.016,2.24c0,2.13-0.031,5.467-0.376,6.281l-2.929,2.6c-4.245,3.743-10.667,9.413-13.063,13.501
	c-2.553,4.386-3.328,10.573-3.547,13.581c-1.48,0.016-4.738,0.047-7.182,0.047l-0.062-12.719c-0.008-2.475-1.434-4.73-2.373-6.218
	l-0.533-0.908c-0.141-0.376-0.242-2.13-0.195-3.556c0.039-1.519-1.128-2.772-2.624-2.819c-1.511-0.047-2.772,1.128-2.819,2.631
	c-0.008,0.157-0.008,0.376-0.008,0.548c-0.016,0.094-0.039,0.157-0.047,0.25l0.008,0.062c0.008,0.282,0.023,0.548,0.023,0.846
	c0,1.394-0.117,2.788-0.297,3.179l-0.564,0.956c-0.932,1.504-2.185,3.571-2.169,5.764c0,0,0.016,5.655,0.031,8.051
	c-1.574,0.031-5.31,0.047-8.169,0.047l0.04-0.188l0.062-8.756c0-0.783-0.274-1.582-0.752-2.224c0,0-2.726-3.509-3.493-4.496
	c-0.266-1.926-0.415-8.708-0.446-15.569c-0.023-7.033,0.047-13.987,0.188-15.35c0.086-0.313,0.117-0.642,0.117-0.939
	c-0.016-1.896-1.3-3.759-2.373-5.326c0,0-0.181-0.266-0.368-0.548c-0.086-0.736-0.125-2.162-0.133-4.01
	c-0.016-1.974,0.008-4.323,0.016-6.422c0.031-2.96,0.039-5.467,0.031-7.597c-0.039-8.239-0.376-10.651-1.332-12.17
	c-1.276-2.005-3.391-3.415-5.106-4.542c0,0-0.211-0.157-0.376-0.267c0.133-3.289,0.204-5.827,0.188-7.784
	c-0.016-2.631-0.157-4.198-0.439-5.153c-0.736-2.506-8.34-21.161-9.773-24.293c-0.893-1.926-1.237-5.92-1.245-7.988
	c-0.016-2.005-1.645-3.618-3.65-3.618c-1.542,0.031-2.835,0.986-3.352,2.365c-0.25,0.376-0.431,0.799-0.431,1.3
	c0.016,1.566-0.211,6.124-1.261,8.474c-1.542,3.415-8.857,21.975-9.5,24.23c-0.235,0.846-0.345,2.694-0.329,5.999
	c0.008,2.6,0.094,6.14,0.282,10.839c0,0,0.016,0.642,0.039,1.065c-0.172,0.267-1.652,2.412-1.652,2.412l-2.208,3.18
	c-0.83,1.332-1.073,4.213-1.034,11.481c0,2.13,0.047,4.668,0.109,7.628c0.016,2.068,0.063,4.386,0.071,6.344
	c0.016,2.287-0.016,4.135-0.125,4.667c0.039-0.25,0.055-0.219,0.18-0.423c-1.801,3.023-1.981,35.257-1.981,35.586l-1.042,12.562
	c-0.846,8.599-1.864,18.153-2.021,25.233l4.84,0.893c0.165-6.876,1.167-17.197,1.989-25.656l1.073-13.063
	c-0.062-12.17,0.768-31.201,1.425-33.362c0.384-0.611,0.525-1.598,0.501-6.108c-0.008-1.708-0.031-3.9-0.086-6.735
	c-0.039-2.146-0.078-4.824-0.086-7.409c-0.023-4.245,0.047-8.27,0.384-9.272l1.918-2.663c1.793-2.475,2.6-3.603,2.592-4.903
	l-0.062-1.645c-0.18-5.153-0.266-8.63-0.266-10.995c-0.016-2.788,0.062-3.947,0.156-4.37c0.478-1.692,6.273-16.478,8.615-22.054
	c2.169,5.043,8.497,20.707,8.959,22.32c0.078,0.329,0.141,1.159,0.149,2.914c0.008,1.676-0.032,4.198-0.165,7.957l-0.063,1.582
	c0.016,2.365,1.786,3.54,3.673,4.793c0.885,0.58,2.24,1.503,2.796,2.193c0.282,1.284,0.36,4.746,0.383,8.536
	c0.024,2.6-0.008,5.326-0.023,7.471c-0.023,2.679-0.031,4.777-0.023,6.469c0.016,5.153,0.235,6.234,0.862,7.283l0.924,1.394
	c0,0,1.002,1.613,1.089,1.723c-0.118,2.647-0.407,10.667-0.36,18.467c0.031,7.722,0.376,15.162,1.488,16.619
	c0,0,2.091,2.709,3.258,4.213c-0.016,1.865-0.062,7.597-0.062,7.597c0.008,1.551,0.986,2.819,2.341,3.336
	c0.321,0.234,0.729,0.423,1.175,0.423l13.697-0.062c1.003,0,1.817-0.814,1.81-1.817l-0.039-9.883
	c-0.008-1.018,0.729-2.334,1.378-3.415c0.54,0.893,1.144,1.989,1.159,2.709l0.055,13.315c0.008,0.673,0.274,1.252,0.682,1.723
	c0.219,0.752,0.893,1.3,1.715,1.3l11.959-0.048c0.986-0.016,1.801-0.814,1.801-1.785c0.016-0.094,0.204-8.552,3.148-13.596
	c2.099-3.587,8.505-9.241,12.343-12.625l3.587-3.399c0.846-1.3,0.971-4.229,0.924-9.507l-0.016-0.956
	c0-1.018,0.532-2.255,1.065-3.289c0.47,0.861,0.971,1.926,0.971,2.616v0.939c-0.031,5.89,0.173,8.787,1.315,10.51l3.039,2.365
	c3.242,1.927,9.272,5.482,12.797,13.079c3.148,6.735,6.249,7.144,10.995,7.018l1.645-0.031l13.032-0.078
	c1.582,0,2.882-1.034,3.383-2.428c0.282-0.313,0.47-0.752,0.47-1.206l-0.078-17.966c-0.016-1.19,0.705-2.584,1.426-3.806
	c0.72,1.175,1.598,2.694,1.598,3.775l0.047,9.257c0,1.504,1.222,2.71,2.74,2.694l14.677-0.079c1.237,0,2.24-0.83,2.553-1.974
	c0.157-0.297,0.22-0.611,0.188-0.955c0-0.11-1.019-9.32,5.857-19.595c2.694-4.025,8.771-8.928,12.405-11.81l3.587-3.18
	c0.846-1.3,0.972-4.229,0.924-9.523l-0.031-0.939c0-0.909,0.438-1.974,0.909-2.945c0.485,0.909,1.143,2.177,1.143,2.945v0.924
	c-0.016,5.89,0.173,8.834,1.301,10.526l4.01,3.555c3.587,2.804,9.554,7.519,12.154,11.277c1.598,2.365,2.757,4.668,3.603,6.798
	L375.987,163.341z"/>
<path fill="#B0003E" d="M180.99,275.928l-4.221,0.016c-0.58,0-0.783,0.799-0.783,1.676l0.149,28.883
	c0.023,5.449,2.396,8.176,8.685,8.145c6.68-0.031,11.167-7.033,11.105-19.799C195.87,282.35,192.017,275.881,180.99,275.928
	 M184.734,316.494c-3.141,0.016-7.284-1.049-7.973-1.049c-0.392,0.016-0.587,0.406-0.572,1.205l0.062,15.477
	c0.016,1.08,0.102,2.16,4.025,2.145l1.3-0.016c1.065,0,1.66,0.299,1.66,0.768c0,0.908-0.971,1.395-2.835,1.316l-11.121-0.252
	l-9.226,0.33c-0.901,0.016-1.378-0.377-1.394-1.064c0.008-0.299,0.987-0.502,3.046-0.799l3.148-0.408
	c1.073-0.109,1.558-0.674,1.542-5.264l-0.227-50.621c-0.008-1.488-1.511-2.256-4.44-2.24h-1.175c-1.096,0-1.59-0.298-1.59-0.783
	c-0.008-0.689,0.783-0.986,2.467-1.002l19.947-0.079c17.793-0.094,26.001,9.79,26.04,20.315
	C207.492,305.39,199.974,316.416,184.734,316.494"/>
<path fill="#B0003E" d="M221.385,302.617l-5.834,6.938c-0.251,0.345-0.775,0.657-0.971,0.657c-0.282,0-0.502-0.203-0.502-0.531
	c0-0.235,0.11-0.564,0.259-0.94l3.086-8.004c0.384-0.987,1.206-1.503,1.918-1.503h1.363c0.932,0,1.543,0.548,1.543,1.362
	C222.247,301.238,221.973,301.99,221.385,302.617 M216.287,314.426c-2.694,0-4.308,2.037-4.902,6.312
	c0.72,0,1.158-0.047,1.378-0.047l6.633-0.031c0.807-0.016,1.198-0.406,1.183-1.205C220.562,317.48,219.185,314.395,216.287,314.426
	 M226.076,334.711c-0.102,0.799-0.932,0.877-2.295,1.299c-1.652,0.502-4.096,1.129-6.171,1.129
	c-5.709,0.031-12.632-3.729-12.663-12.092c-0.016-4.871,3.383-11.732,11.95-11.779c5.075-0.031,10.087,3.588,10.11,7.957
	c0,0.533-0.501,0.814-1.479,0.83l-12.978,0.062c-0.375,0-1.386-0.344-1.37,1.41c0.047,9.648,3.141,12.529,6.626,12.514
	c1.809,0,4.064-1.205,5.951-4.182l1.919-2.977c0.259-0.438,0.368-0.609,0.588-0.531l0.673,0.094c0.102,0,0.157,0.281,0.102,0.611
	L226.076,334.711z"/>
<path fill="#B0003E" d="M250.84,316.008l-0.533,1.598c-0.328,1.051-0.704,1.488-1.378,1.488c-0.313,0-0.627-0.219-1.504-1.127
	c-0.846-0.939-2.6-2.209-4.135-2.209c-3.791,0.016-3.133,5.342-3.133,8.035l0.047,8.428c0.016,1.314,0.016,2.678,1.019,2.834
	l1.551,0.219c0.344,0.062,0.485,0.158,0.517,0.33c-0.031,0.266-0.438,0.438-1.315,0.438l-6.751,0.031l-3.493,0.236
	c-0.595,0.062-0.877-0.094-0.877-0.361c0-0.141,0-0.344,0.156-0.359l2.569-0.314c0.657-0.125,1.378,0.031,1.347-2.756
	c-0.047-11.074,3.258-19.234,12.312-19.281c2.819-0.016,3.759,0.471,3.759,1.473C251.027,315.021,250.949,315.648,250.84,316.008"/>
<path fill="#B0003E" d="M259.721,304.09c-1.974,0-3.618-1.629-3.649-3.604c0-1.957,1.645-3.617,3.603-3.633
	c1.989-0.016,3.634,1.629,3.634,3.602C263.339,302.43,261.694,304.074,259.721,304.09 M266.503,335.947l-11.842,0.047
	c-0.156-0.016-0.266-0.125-0.266-0.375c-0.017-0.172-0.017-0.408,0.312-0.455l1.927-0.281c0.877-0.125,1.206-0.658,1.19-1.535
	l-0.062-15.773c0-2.035-0.893-3.006-2.663-3.006h-0.846c-0.172,0-0.234-0.109-0.234-0.377c0-0.328,0.062-0.484,0.172-0.5
	l11.481-0.047c0.172,0,0.266,0.109,0.266,0.391c0,0.094-0.094,0.439-0.188,0.439l-1.66,0.281c-0.878,0.156-1.097,0.643-1.081,1.629
	l0.078,15.725c0,1.301,0.157,3.023,2.537,3.008l0.814-0.016c0.157,0,0.267,0.094,0.267,0.393
	C266.706,335.76,266.659,335.947,266.503,335.947"/>
<path fill="#B0003E" d="M281.226,314.553c-2.396,0.016-4.26,1.377-4.229,7.58c0.031,5.043,1.409,7.564,4.104,7.518
	c2.897,0,4.464-2.129,4.448-6.953C285.518,317.168,284.076,314.537,281.226,314.553 M295.417,318.217
	c-1.942,0.016-1.504-1.189-3.493-1.189c-0.596,0.016-2.365,0.016-1.802,1.002c0.658,1.205,1.112,3.398,1.112,4.166
	c0.016,3.273-1.551,7.973-9.257,8.74c0,0.328-0.156,1.033-0.125,2.084l0.188,2.113c0,0.611,0.564,0.721,1.817,0.721
	c4.762-0.031,7.127,2.773,7.158,8.35c0.016,4.744-3.729,10.947-9.696,10.979c-1.096,0.016-2.913-0.658-2.929-2.396
	c0-1.363,0.674-2.834,3.712-3.352c4.12-0.674,7.269-2.004,7.269-4.746c-0.032-2.896-2.82-3.336-5.765-3.367l-3.728-0.047
	c-0.156,0-0.485,0.062-0.501-0.533c0-1.268,1.033-1.879,1.018-6.186c0-2.412-0.172-3.697-0.329-3.666
	c-6.547-0.799-8.739-5.012-8.771-8.943c0-2.914,2.271-8.537,9.992-8.584c5.295-0.031,6.688,2.584,7.565,2.568
	c1.081,0,3.289-1.91,5.686-1.926c1.786-0.016,2.569,0.768,2.585,2.678C297.124,317.605,296.481,318.217,295.417,318.217"/>
<path fill="#B0003E" d="M324.706,314.395c-0.814,0.174-1.253,0.721-1.253,1.725l0.095,19.594c0,0.658-0.157,0.861-0.533,0.861
	c-0.172,0.016-0.329-0.141-0.626-0.439l-2.193-1.988l-2.506,1.158c-1.786,0.736-2.632,0.879-3.603,0.879
	c-7.393,0.047-11.199-4.746-11.23-12.422l-0.047-7.268c0-1.379-0.548-2.1-1.66-2.1h-1.19c-0.485,0-0.768-0.141-0.768-0.469
	c-0.016-0.281,0.109-0.439,0.376-0.439l6.97-0.031c1.019,0,1.52,0.156,1.52,0.533l0.062,11.168c0.016,4.84,1.629,9.695,5.356,9.68
	c3.556-0.016,4.809-1.66,4.809-3.258l-0.062-14.348c0-1.363-0.188-2.992-2.6-2.992h-0.972c-0.188,0-0.234-0.109-0.234-0.391
	c0-0.283,0.047-0.439,0.172-0.424l11.591-0.047c0.392,0,0.563,0.078,0.563,0.299v0.328L324.706,314.395z"/>
<path fill="#B0003E" d="M343.22,313.816c-2.693,0.016-4.322,2.051-4.887,6.328c0.705,0,1.128-0.062,1.348-0.062l6.641-0.016
	c0.814,0,1.19-0.408,1.19-1.223C347.496,316.871,346.134,313.816,343.22,313.816 M352.994,334.084
	c-0.094,0.83-0.909,0.893-2.287,1.348c-1.645,0.484-4.104,1.111-6.187,1.111c-5.686,0.031-12.609-3.697-12.641-12.092
	c-0.031-4.871,3.399-11.748,11.92-11.779c5.106-0.016,10.103,3.557,10.118,7.957c0,0.533-0.485,0.814-1.457,0.814l-13,0.078
	c-0.376,0-1.347-0.344-1.347,1.426c0.047,9.633,3.133,12.531,6.625,12.5c1.802,0,4.057-1.207,5.952-4.184l1.896-2.959
	c0.281-0.455,0.392-0.627,0.595-0.549l0.658,0.078c0.125,0,0.188,0.299,0.125,0.611L352.994,334.084z"/>
<path fill="#B0003E" d="M383.192,314.129c-0.814,0.172-1.253,0.721-1.253,1.707l0.094,19.596c0,0.656-0.156,0.877-0.548,0.877
	c-0.173,0-0.329-0.156-0.611-0.439l-2.192-2.004l-2.507,1.158c-1.816,0.721-2.631,0.893-3.603,0.893
	c-7.408,0.047-11.214-4.762-11.246-12.42l-0.031-7.299c0-1.348-0.563-2.068-1.66-2.068l-1.19,0.016
	c-0.501-0.016-0.783-0.156-0.783-0.5c-0.016-0.268,0.126-0.424,0.392-0.424l6.955-0.047c1.049,0,1.55,0.156,1.534,0.533
	l0.048,11.184c0.031,4.824,1.645,9.695,5.356,9.664c3.571,0,4.824-1.662,4.793-3.244l-0.047-14.361c0-1.363-0.188-3.023-2.585-2.977
	h-0.986c-0.173,0-0.22-0.125-0.235-0.408c0.016-0.266,0.062-0.422,0.173-0.422l11.606-0.047c0.375,0,0.532,0.094,0.532,0.312
	l0.016,0.33L383.192,314.129z"/>
<path fill="#B0003E" d="M414.848,313.66c-1.708,0.234-2.146,0.893-2.146,1.691c-0.125,5.545-4.604,8.238-8.583,8.379v0.062
	c4.636,0.016,8.27,3.51,8.396,8.693c0,0.846,0.438,1.723,2.146,1.926c0.423,0,0.658,0.143,0.658,0.502
	c0,0.203-0.157,0.312-0.423,0.312l-5.044-0.031l-4.604,0.078c-0.596,0-0.877-0.094-0.877-0.422c0-0.346,0.266-0.518,0.986-0.518
	c0.814,0,1.691-0.547,1.691-2.176c-0.031-5.482-1.691-7.941-4.589-7.926c-2.945,0-4.479,2.521-4.448,7.973
	c0,1.629,0.814,2.176,1.66,2.16c0.689,0,1.033,0.156,1.033,0.502c0,0.266-0.312,0.422-0.986,0.422l-4.589-0.078l-4.95,0.174
	c-0.313,0-0.47-0.158-0.485-0.408c0-0.297,0.22-0.455,0.705-0.502c1.66-0.141,2.13-1.018,2.13-1.816
	c-0.016-5.199,3.571-8.787,7.675-8.85v-0.047c-3.383-0.062-7.941-2.771-8.051-8.363c0-0.705-0.47-1.473-2.114-1.582
	c-0.485-0.031-0.721-0.205-0.721-0.486c0-0.266,0.173-0.438,0.485-0.438l4.935,0.156l4.604-0.141c0.658,0,0.986,0.156,0.986,0.438
	c0,0.314-0.312,0.486-1.033,0.486c-0.83,0-1.645,0.721-1.629,1.973c0,3.572,1.331,7.504,4.793,7.488c3.461,0,4.73-4.01,4.73-7.457
	c0-1.268-0.847-2.02-1.646-2.02c-0.72,0-0.986-0.172-1.002-0.502c0-0.328,0.267-0.438,0.877-0.438l4.59,0.031l5.043-0.062
	c0.282,0,0.438,0.094,0.438,0.297C415.489,313.486,415.271,313.66,414.848,313.66"/>
<path fill="#D9DADB" d="M235.897,225.962c-17.128,4.479-35.164,7.205-53.6,8.051c-57.765,2.694-111.16-12.969-142.87-41.852
	c-16.611-15.162-25.844-33.065-26.713-51.782C11.391,111.12,30.766,82.285,65.89,61.343l-1.065,0.016l3.751,2.13l-0.016-1.848
	c-27.277,16.148-43.026,38.531-44.358,63.044c-2.819,51.923,60.381,97.784,140.897,102.265c20.934,1.143,41.303-0.518,60.53-4.98
	l-0.768-0.11l10.769,6.093L235.897,225.962z M225.152,219.869c-19.031,4.417-39.205,6.077-59.943,4.934
	c-79.317-4.416-141.617-49.276-138.86-100.009c1.292-23.761,16.666-45.532,43.3-61.321l1.605-0.939l-1.621-0.924l-3.751-2.115
	l-0.548-0.313l-0.533,0.329c-35.845,21.364-55.588,50.874-54.218,80.962c0.885,19.312,10.354,37.717,27.411,53.286
	c32.093,29.259,86.092,45.11,144.413,42.399c18.584-0.861,36.753-3.586,54.022-8.113l2.568-0.657l-2.302-1.315l-10.776-6.094
	l-0.36-0.203L225.152,219.869z"/>
<path fill="#D9DADB" d="M227.392,264.289c-21.254,2.694-42.462,3.337-63.028,1.943l0.846,1.613l12.797-22.117l-0.948,0.549
	c15.483,0.328,31.373-0.502,47.193-2.521c104.762-13.299,183.938-74.322,176.499-136.066c-2.429-20.033-13.847-38.531-33.034-53.474
	c-38.123-29.729-103.47-42.932-170.508-34.427c-32.234,4.104-63.49,12.969-90.399,25.688l1.01,0.047l-9.414-5.733l-0.07,1.88
	c29.274-14.504,63.404-24.528,98.693-28.992c35.673-4.527,71.51-3.274,103.619,3.665c31.075,6.704,58.172,18.561,78.346,34.286
	c22.085,17.229,35.242,38.609,38.062,61.869C425.42,181.854,340.338,249.942,227.392,264.289 M419.186,112.232
	c-2.882-23.824-16.32-45.705-38.875-63.294C337.707,15.717,269.087,1.369,196.763,10.532c-35.516,4.511-69.888,14.598-99.39,29.196
	l-1.747,0.877l1.653,1.019l9.429,5.748l0.494,0.298l0.517-0.267c26.713-12.593,57.75-21.411,89.757-25.468
	c66.489-8.427,131.24,4.589,168.926,33.973c18.718,14.598,29.854,32.595,32.203,52.048c7.299,60.554-71.031,120.528-174.627,133.653
	c-15.71,2.005-31.482,2.851-46.879,2.506l-0.627-0.016l-0.321,0.564l-12.805,22.1l-0.846,1.504l1.707,0.109
	c20.707,1.395,42.063,0.752,63.436-1.973C341.779,251.947,427.691,182.779,419.186,112.232"/>
<path fill="#78B74A" d="M414.8,110.792C406.232,41.639,305.911-2.875,190.74,11.378c-37.184,4.605-71.345,14.755-100.314,28.757
	l9.531,5.654c26.439-12.186,57.507-21.098,91.237-25.264c105.678-13.063,197.432,25.343,204.904,85.786
	c7.487,60.459-72.112,120.058-177.814,133.12c-16.298,2.037-32.258,2.82-47.631,2.476l-12.969,21.834
	c20.44,1.362,41.969,0.783,64.046-1.942C336.908,247.546,423.353,179.944,414.8,110.792"/>
<path fill="#0076BD" d="M227.188,218.162c-18.796,4.307-39.487,6.14-61.125,4.949C84.835,218.663,21.29,173.177,24.125,121.521
	c1.386-25.124,18.216-47.083,44.491-62.496l-3.83-2.13c-34.702,20.519-55.925,49.354-54.484,80.398
	c2.624,56.811,80.171,99.383,173.218,95.091c19.21-0.893,37.568-3.712,54.601-8.113L227.188,218.162z"/>
<polygon fill="#B0003E" points="149.296,240.795 149.75,336.23 152.178,336.215 151.731,241.297 "/>
<path fill="#B0003E" d="M96.684,250.1c-0.611,0-1.316,0.359-1.888,1.707l-5.012,12.514c-0.07,0.142-0.211,0.533-0.556,0.549
	c-0.267-0.016-0.329-0.376-0.533-0.877l-5.662-12.531c-0.329-0.814-0.932-1.221-1.512-1.205c-0.564,0-0.673-0.062-0.673-0.329
	c0-0.22,0.062-0.267,0.274-0.267l2.851,0.047l4.589-0.156c0.267,0,0.368,0.109,0.368,0.25c0,0.173-0.102,0.173-0.493,0.251
	l-1.261,0.204c-0.705,0.109-0.877,0.406-0.626,0.924l3.979,8.787l3.352-8.364c0.478-1.112-1.042-1.566-1.747-1.566h-0.58
	c-0.133,0-0.204-0.016-0.204-0.173c0-0.188,0.133-0.344,0.501-0.344c0.375,0,2.396,0.203,2.944,0.203
	c0.736-0.016,1.896-0.203,2.24-0.203c0.337,0,0.58,0.062,0.58,0.25C97.616,250.1,97.279,250.1,96.684,250.1"/>
<path fill="#B0003E" d="M102.104,244.304c-1.222,0-2.225-1.003-2.232-2.224c0-1.207,0.995-2.225,2.208-2.225
	s2.225,1.002,2.225,2.209C104.304,243.285,103.302,244.288,102.104,244.304 M106.27,263.883l-7.268,0.016
	c-0.117,0-0.188-0.047-0.188-0.235c0.016-0.078,0-0.22,0.211-0.267l1.183-0.156c0.533-0.078,0.744-0.423,0.729-0.955l-0.031-9.711
	c-0.024-1.238-0.556-1.833-1.645-1.833h-0.524c-0.102,0-0.149-0.063-0.149-0.251s0.039-0.281,0.102-0.297l7.072-0.016
	c0.117,0,0.172,0.062,0.172,0.234l-0.141,0.266l-0.995,0.173c-0.541,0.11-0.681,0.407-0.673,1.019l0.039,9.648
	c0.016,0.814,0.109,1.848,1.566,1.848h0.509c0.094,0,0.157,0.078,0.157,0.235C106.411,263.773,106.364,263.867,106.27,263.883"/>
<path fill="#B0003E" d="M115.582,263.93l-3.563-0.047l-3.164,0.078c-0.329,0-0.493-0.094-0.509-0.345
	c0-0.095,0.375-0.22,0.712-0.251l1.48-0.156c0.243-0.031,0.501,0.062,0.493-1.691l-0.086-18.607c0-0.502-0.478-0.752-1.449-0.752
	h-0.438c-0.337,0-0.501-0.11-0.501-0.282c0-0.235,0.36-0.376,1.081-0.376h3.415c0.658,0,0.956,0.548,0.956,1.738l0.094,19.281
	c0.008,0.58,0.509,0.736,1.441,0.721h0.423c0.399,0,0.611,0.125,0.611,0.281C116.576,263.789,116.224,263.93,115.582,263.93"/>
<path fill="#B0003E" d="M125.347,263.883l-3.556-0.062l-3.171,0.109c-0.329,0-0.494-0.109-0.494-0.345
	c0-0.126,0.353-0.235,0.689-0.298l1.48-0.125c0.243-0.031,0.509,0.078,0.501-1.707l-0.086-18.592c0-0.502-0.47-0.752-1.457-0.752
	h-0.431c-0.337,0-0.501-0.126-0.501-0.283c0-0.219,0.36-0.359,1.073-0.375h3.43c0.634-0.016,0.947,0.548,0.955,1.738l0.094,19.281
	c0,0.564,0.493,0.736,1.449,0.736h0.392c0.407,0,0.611,0.094,0.619,0.25C126.334,263.741,125.997,263.883,125.347,263.883"/>
<path fill="#B0003E" d="M135.56,250.365c-1.645,0.016-2.655,1.253-3.007,3.885c0.423,0.016,0.705-0.031,0.83-0.031l4.08-0.031
	c0.494,0,0.752-0.235,0.736-0.736C138.191,252.229,137.345,250.35,135.56,250.365 M141.574,262.817
	c-0.062,0.517-0.564,0.548-1.402,0.83c-1.018,0.298-2.53,0.688-3.806,0.688c-3.493,0.016-7.761-2.286-7.769-7.439
	c-0.023-2.976,2.076-7.221,7.331-7.236c3.132-0.016,6.195,2.193,6.21,4.887c0,0.329-0.29,0.502-0.909,0.502l-7.964,0.047
	c-0.251,0-0.854-0.204-0.854,0.877c0.031,5.92,1.927,7.69,4.081,7.69c1.104,0,2.482-0.752,3.657-2.585l1.175-1.816
	c0.164-0.266,0.227-0.376,0.376-0.329l0.391,0.063c0.079,0,0.11,0.156,0.079,0.344L141.574,262.817z"/>
<path fill="#B0003E" d="M126.044,278.246c-0.525-0.377-1.253-0.705-2.248-0.705c-1.55,0-2.983,1.252-2.968,5.324
	c0.008,2.287,0.861,4.621,2.984,4.605c0.807,0,2.279-0.094,2.263-2.819L126.044,278.246z M129.843,270.602l-0.846,0.172
	c-0.392,0.079-0.611,0.22-0.611,0.814l0.086,16.134c0.008,0.204-0.086,0.282-0.196,0.282c-0.094-0.016-0.274-0.094-0.556-0.33
	c-0.274-0.219-0.368-0.438-0.713-0.438c-0.736,0.016-0.963,0.736-3.563,0.768c-2.357,0-5.553-1.691-5.576-5.732
	c-0.008-2.334,1.598-5.342,5.553-5.342c0.689-0.016,1.441-0.047,2.624,0.596l-0.032-5.404c0-0.971-0.383-1.441-1.198-1.441
	l-0.486,0.016c-0.07,0-0.102-0.062-0.102-0.188s0.031-0.219,0.078-0.219l5.373-0.016c0.18,0,0.258,0.047,0.258,0.141
	L129.843,270.602"/>
<path fill="#B0003E" d="M137.4,277.211c-1.292,0.016-2.06,1.003-2.333,3.023c0.336,0.016,0.548-0.031,0.65-0.031l3.172-0.016
	c0.391,0,0.587-0.188,0.571-0.564C139.459,278.684,138.802,277.211,137.4,277.211 M142.075,286.923
	c-0.047,0.376-0.431,0.392-1.096,0.626c-0.775,0.251-1.95,0.533-2.945,0.533c-2.725,0.016-6.038-1.77-6.054-5.779
	c-0.008-2.35,1.621-5.623,5.709-5.623c2.428-0.016,4.832,1.707,4.832,3.79c0,0.267-0.228,0.392-0.697,0.407l-6.21,0.016
	c-0.18,0-0.666-0.156-0.65,0.674c0.016,4.62,1.496,5.998,3.164,5.998c0.861,0,1.95-0.579,2.851-2.004l0.916-1.41
	c0.133-0.219,0.165-0.313,0.29-0.266l0.313,0.047c0.047,0,0.063,0.125,0.047,0.281L142.075,286.923z"/>
</svg>
