<?xml version="1.0" encoding="UTF-8" standalone="no"?>
<!-- Created with Inkscape (http://www.inkscape.org/) -->
<svg xmlns:dc="http://purl.org/dc/elements/1.1/" xmlns:cc="http://creativecommons.org/ns#" xmlns:rdf="http://www.w3.org/1999/02/22-rdf-syntax-ns#" xmlns:svg="http://www.w3.org/2000/svg" xmlns="http://www.w3.org/2000/svg" xmlns:sodipodi="http://sodipodi.sourceforge.net/DTD/sodipodi-0.dtd" xmlns:inkscape="http://www.inkscape.org/namespaces/inkscape" version="1.0" width="838.17462" height="741.41882" id="svg2" sodipodi:version="0.32" inkscape:version="0.48.1 " sodipodi:docname="AJAX.svg" inkscape:output_extension="org.inkscape.output.svg.inkscape">
  <metadata id="metadata10">
    <rdf:RDF>
      <cc:Work rdf:about="">
        <dc:format>image/svg+xml</dc:format>
        <dc:type rdf:resource="http://purl.org/dc/dcmitype/StillImage"/>
      </cc:Work>
    </rdf:RDF>
  </metadata>
  <sodipodi:namedview inkscape:window-height="750" inkscape:window-width="1280" inkscape:pageshadow="2" inkscape:pageopacity="0.0" guidetolerance="10.0" gridtolerance="10.0" objecttolerance="10.0" borderopacity="1.0" bordercolor="#666666" pagecolor="#ffffff" id="base" showgrid="false" inkscape:zoom="0.62702079" inkscape:cx="621.53852" inkscape:cy="254.27722" inkscape:window-x="-8" inkscape:window-y="-8" inkscape:current-layer="svg2" fit-margin-top="0" fit-margin-left="0" fit-margin-right="0" fit-margin-bottom="0" inkscape:window-maximized="0"/>
  <defs id="defs5">
    <inkscape:perspective sodipodi:type="inkscape:persp3d" inkscape:vp_x="0 : 433 : 1" inkscape:vp_y="0 : 1000 : 0" inkscape:vp_z="960 : 433 : 1" inkscape:persp3d-origin="480 : 288.66667 : 1" id="perspective12"/>
  </defs>
  <path style="fill:#004494;fill-opacity:1" d="M 403.11964,739.61478 C 381.87291,732.81555 369.20417,714.84282 369.20417,691.5 c 0,-14.9134 5.04797,-27.23794 15.39091,-37.57662 C 395.19821,643.32461 406.95352,638.5 422.17461,638.5 c 23.35799,0 40.67557,13.07024 46.54724,35.13096 1.88006,7.06364 1.84076,21.93783 -0.0777,29.40894 -4.76598,18.56037 -18.22775,32.115 -36.80823,37.06214 -7.30269,1.94437 -21.89128,1.69684 -28.71629,-0.48726 z m 30.22474,-9.67468 c 31.63635,-11.16195 30.95069,-67.4529 -0.96814,-79.4812 -4.72994,-1.78244 -7.23543,-2.07675 -14.70163,-1.72697 -14.81033,0.69385 -23.74328,6.41128 -30.09416,19.26141 -3.12666,6.32637 -3.72193,8.64864 -4.15157,16.19599 -0.28148,4.94464 0.006,11.25253 0.65458,14.37566 5.18238,24.94521 27.39203,39.09091 49.26092,31.37511 z M 4.7256372,736.03212 c 1.185617,-2.83758 1.448973,-10.94489 1.448973,-44.6061 l 0,-41.13821 -2.832192,-3.64391 c -4.959846,-6.38134 -5.135287,-6.1439 4.53959,-6.1439 l 8.8254308,0 2.556857,5.25 c 1.406271,2.8875 13.098884,19.55316 25.983584,37.0348 l 23.42673,31.7848 0.26397,-32.76969 c 0.21397,-26.5631 -0.0113,-33.57751 -1.18931,-37.03481 l -1.45326,-4.2651 8.50669,0 c 8.39727,0 8.49617,0.0289 7.6893,2.25 -0.44957,1.2375 -0.81739,22.5 -0.81739,47.25 0,24.75 0.36782,46.0125 0.81739,47.25 0.79766,2.19571 0.64994,2.25 -6.12262,2.25 l -6.94001,0 -2.37738,-4.7657 C 65.74443,732.11317 54.32461,715.87648 41.67461,698.65279 l -23,-31.31582 -0.26351,33.10505 c -0.224506,28.20489 -0.03568,33.54562 1.27568,36.08151 l 1.53919,2.97647 -8.974653,0 -8.9746538,0 1.448974,-3.46788 z m 106.4489728,2.94292 c 0,-0.28873 1.50842,-3.55123 3.35205,-7.25 1.84363,-3.69877 12.03158,-26.86254 22.63989,-51.47504 10.60831,-24.6125 19.56238,-44.7404 19.89795,-44.72866 0.33556,0.0117 9.12693,19.47424 19.53638,43.25 10.40945,23.77576 20.85522,47.16616 23.21282,51.97866 l 4.28655,8.75 -9.27051,0 -9.27051,0 -0.0197,-4.75 c -0.0142,-3.43329 -1.42524,-8.07642 -5.09013,-16.75 l -5.07043,-12 -18.45503,-0.27152 -18.45503,-0.27153 -4.31577,10.27153 c -3.20358,7.6245 -4.43025,12.01103 -4.75999,17.02152 l -0.44422,6.75 -8.88716,0 c -4.88794,0 -8.88716,-0.23623 -8.88716,-0.52496 z M 169.82108,693.25 c -0.7592,-1.7875 -3.94484,-9.3171 -7.0792,-16.73245 -3.13436,-7.41534 -5.81578,-13.59939 -5.95872,-13.74233 -0.14293,-0.14294 -1.42358,2.54916 -2.84588,5.98245 -1.4223,3.43328 -4.6229,11.07983 -7.11245,16.99233 l -4.52644,10.75 14.45153,0 14.45153,0 -1.38037,-3.25 z m 75.92748,42.5 c 1.03279,-2.89402 1.34828,-13.19748 1.38216,-45.13871 l 0.0439,-41.3887 -8.75,0.55349 c -4.8125,0.30442 -10.91189,1.31745 -13.5542,2.25117 -2.64231,0.93373 -5.05224,1.44965 -5.3554,1.14649 -0.30316,-0.30317 0.50644,-3.27878 1.79911,-6.61247 l 2.3503,-6.06127 33.25509,0 c 18.2903,0 33.25518,0.3375 33.2553,0.75 1.1e-4,0.4125 -0.98568,3.49925 -2.19065,6.85944 l -2.19085,6.10944 -4.47744,-1.98059 c -2.75095,-1.21687 -7.70212,-2.18177 -12.84021,-2.50232 l -8.36277,-0.52173 0.28086,43.39288 c 0.15447,23.86608 0.66649,44.18038 1.13784,45.14288 0.78375,1.60044 0.0887,1.75 -8.13216,1.75 l -8.98915,0 1.33827,-3.75 z m 75.06906,2 c 1.09417,-2.23433 1.13159,-91.99412 0.0396,-95 -0.80984,-2.22923 -0.7327,-2.25 8.35699,-2.25 8.34598,0 9.10916,0.15802 8.45214,1.75 -2.0893,5.06238 -2.44403,11.99294 -2.44403,47.75 0,35.75706 0.35473,42.68762 2.44403,47.75 0.65716,1.5923 -0.10805,1.75 -8.49174,1.75 -8.43502,0 -9.14153,-0.14795 -8.35699,-1.75 z m 177.95486,-2.90893 c 1.10106,-3.65855 1.40213,-13.18349 1.40213,-44.35927 l 0,-39.70034 -3.49029,-4.39073 c -1.91967,-2.4149 -3.49467,-4.72823 -3.5,-5.14073 -0.005,-0.4125 3.92779,-0.73939 8.74029,-0.72643 l 8.75,0.0236 2.08798,4.75895 c 1.14839,2.61743 12.84839,19.36152 26,37.20909 l 23.91202,32.45014 0.26536,-28.74468 c 0.24698,-26.7544 -0.41064,-39.71952 -2.23027,-43.97064 -0.68062,-1.59009 0.0472,-1.75 7.96491,-1.75 7.9075,0 8.64713,0.16196 7.99174,1.75 -2.0893,5.06238 -2.44403,11.99294 -2.44403,47.75 0,35.75706 0.35473,42.68762 2.44403,47.75 0.64988,1.57467 -0.0149,1.74764 -6.63475,1.72643 l -7.35699,-0.0236 -2.10331,-4.72643 c -1.49085,-3.35013 -43.08905,-61.4866 -48.06119,-67.16895 -0.80616,-0.92132 0.20445,68.52411 1.02149,70.19252 0.78192,1.5967 0.1116,1.75 -7.65213,1.75 l -8.50912,0 1.40213,-4.65893 z m 98.50016,1.21736 c 1.11681,-1.89286 11.33914,-24.97593 22.71627,-51.2957 11.37714,-26.31977 21.10813,-48.05856 21.62444,-48.30843 0.5163,-0.24986 10.69858,21.7029 22.62728,48.78393 11.92869,27.08103 22.42914,50.36853 23.33431,51.75 l 1.64578,2.51177 -9.52306,0 -9.52305,0 0.0191,-4.75 c 0.0141,-3.50369 -1.33891,-7.9698 -5.15668,-17.02149 l -5.1758,-12.27149 -18.41866,0.27149 L 623.0239,706 l -4.55111,11 c -3.46046,8.3639 -4.57839,12.37796 -4.66496,16.75 l -0.11385,5.75 -9.22597,0 -9.22597,0 2.03058,-3.44157 z M 649.50082,681.25 c -3.57917,-8.3875 -6.8297,-16.0794 -7.22341,-17.0931 -0.52353,-1.34797 -2.58112,2.51688 -7.65931,14.38672 -3.81892,8.92641 -7.09349,16.6183 -7.27682,17.0931 -0.18334,0.47481 6.19177,0.86328 14.16689,0.86328 l 14.50023,0 -6.50758,-15.25 z m 59.22482,54.78212 c 2.04171,-4.88651 2.06198,-86.06839 0.0229,-91.78212 l -1.33827,-3.75 9.40784,0 9.40784,0 -1.52568,2.95034 c -1.29675,2.50769 -1.52566,9.27398 -1.52566,45.09811 l 0,42.14778 13.25,-0.38321 c 11.50985,-0.33289 14.08052,-0.72842 19.57383,-3.0117 3.4781,-1.44566 6.1124,-2.10487 5.85399,-1.4649 -0.25841,0.63997 -1.70045,3.97608 -3.20454,7.41358 l -2.73471,6.25 -24.31826,0 -24.31826,0 1.44898,-3.46788 z m 74.09198,1.71788 c 0.47135,-0.9625 0.85699,-22.45 0.85699,-47.75 0,-25.3 -0.38564,-46.7875 -0.85699,-47.75 -0.80565,-1.64516 0.80132,-1.75 26.82339,-1.75 l 27.68038,0 -3.23672,5.75 c -1.7802,3.1625 -3.34556,5.89483 -3.47857,6.07185 -0.13302,0.17701 -2.32525,-0.38549 -4.87162,-1.25 C 822.54285,649.98826 817.38805,649.5 809.13966,649.5 l -11.96505,0 0,17 0,17 17.5,0 c 11.1741,0 17.5,0.36696 17.5,1.01515 0,1.02036 -5.93403,11.98485 -6.48625,11.98485 -0.16244,0 -2.25698,-0.89012 -4.65455,-1.97804 -3.37271,-1.5304 -6.56564,-1.98301 -14.1092,-2 l -9.75,-0.022 0,19.65555 0,19.65555 13.75,-0.63708 c 8.56678,-0.39693 16.29449,-1.34735 20.5,-2.52127 3.7125,-1.0363 6.75,-1.50458 6.75,-1.04062 0,0.46396 -1.21874,3.32853 -2.70832,6.36572 l -2.70832,5.52215 -25.39867,0 c -23.84901,0 -25.34638,-0.10677 -24.54168,-1.75 z m -658.39301,-131.95874 -5.25,-1.54741 0,-7.37192 c 0,-4.05456 0.17978,-7.37193 0.39951,-7.37193 0.21973,0 2.72715,1.56638 5.57204,3.48085 9.00768,6.06172 17.45407,6.89136 24.68187,2.42433 5.38321,-3.32701 7.83203,-8.35183 7.83984,-16.08686 0.006,-6.05842 -0.27309,-6.97698 -2.99326,-9.84755 -1.65,-1.74124 -7.55535,-6.27671 -13.12299,-10.07884 -11.02428,-7.52844 -18.68098,-14.98184 -20.93688,-20.38098 -2.30698,-5.52137 -1.83631,-13.32324 1.16741,-19.35091 5.25899,-10.55342 17.02368,-15.92717 32.62005,-14.89985 11.89309,0.78338 11.77241,0.69318 11.77241,8.79892 l 0,6.84513 -5.18918,-2.69224 c -7.02291,-3.64362 -17.78829,-4.27109 -22.50649,-1.31182 -4.63797,2.90896 -6.5351,6.37132 -6.5351,11.92692 0,8.70246 3.54852,12.89942 20.02546,23.68486 5.66208,3.70626 11.38566,8.169 12.71906,9.91718 5.63536,7.38834 7.16718,15.86969 4.5261,25.06017 -2.01993,7.02902 -10.46347,15.4997 -18.32736,18.38628 -6.98131,2.56261 -18.56126,2.74451 -26.46249,0.41567 z m 81,0 -5.25,-1.54741 0,-7.37192 c 0,-4.05456 0.17978,-7.37193 0.39951,-7.37193 0.21973,0 2.72715,1.56638 5.57204,3.48085 9.00768,6.06172 17.45407,6.89136 24.68187,2.42433 5.38321,-3.32701 7.83203,-8.35183 7.83984,-16.08686 0.006,-6.05842 -0.27309,-6.97698 -2.99326,-9.84755 -1.65,-1.74124 -7.55535,-6.27671 -13.12299,-10.07884 -11.02428,-7.52844 -18.68098,-14.98184 -20.93688,-20.38098 -2.30698,-5.52137 -1.83631,-13.32324 1.16741,-19.35091 5.25899,-10.55342 17.02368,-15.92717 32.62005,-14.89985 11.89309,0.78338 11.77241,0.69318 11.77241,8.79892 l 0,6.84513 -5.18918,-2.69224 c -7.02291,-3.64362 -17.78829,-4.27109 -22.50649,-1.31182 -4.63797,2.90896 -6.5351,6.37132 -6.5351,11.92692 0,8.70246 3.54852,12.89942 20.02546,23.68486 5.66208,3.70626 11.38566,8.169 12.71906,9.91718 5.63536,7.38834 7.16718,15.86969 4.5261,25.06017 -2.01993,7.02902 -10.46347,15.4997 -18.32736,18.38628 -6.98131,2.56261 -18.56126,2.74451 -26.46249,0.41567 z M 1.1746102,604.9778 c 0,-0.28721 1.720876,-3.99971 3.824169,-8.25 2.103294,-4.25029 12.3132578,-27.4153 22.6888098,-51.4778 10.375552,-24.0625 19.117181,-43.7404 19.425831,-43.72866 0.30865,0.0117 9.07801,19.47424 19.48746,43.25 C 77.01033,568.5471 87.4561,591.9375 89.8137,596.75 l 4.28655,8.75 -9.28586,0 -9.28587,0 0.0418,-4.75 c 0.0312,-3.54712 -1.25394,-7.78886 -5.07478,-16.75 l -5.11656,-12 -18.43007,-0.27143 -18.430075,-0.27143 -4.672103,11.48655 c -3.616538,8.89137 -4.672122,12.73708 -4.672122,17.02144 l 0,5.53487 -9,0 c -4.9499998,0 -8.9999998,-0.23499 -8.9999998,-0.5222 z M 59.81652,559.25 c -0.76171,-1.7875 -3.99078,-9.43947 -7.1757,-17.00438 -3.18493,-7.56491 -5.89289,-13.63991 -6.01768,-13.5 -0.12479,0.13991 -1.8118,4.07938 -3.74891,8.75438 -1.9371,4.675 -5.119906,12.2125 -7.072887,16.75 l -3.550876,8.25 14.475493,0 14.47549,0 -1.38493,-3.25 z m 222.90912,42.78212 c 1.18828,-2.84397 1.44897,-11.12566 1.44897,-46.03212 0,-34.90646 -0.26069,-43.18815 -1.44897,-46.03212 l -1.44898,-3.46788 27.44898,0 c 15.09693,0 27.44475,0.3375 27.43959,0.75 -0.01,0.77312 -5.85061,11.2585 -6.26085,11.23918 -0.12637,-0.006 -2.43879,-0.68096 -5.1387,-1.5 -3.10785,-0.9428 -9.06996,-1.48918 -16.25,-1.48918 l -11.34107,0 0,17 0,17 17.5,0 c 9.625,0 17.5,0.28272 17.5,0.62827 0,0.56303 -5.78975,11.21791 -6.6941,12.31916 -0.20209,0.24609 -1.81609,-0.41824 -3.58667,-1.47629 -2.49557,-1.49128 -5.63576,-2.01012 -13.96923,-2.30805 l -10.75,-0.38434 0,19.76428 0,19.76428 13.75,-0.59547 c 9.58056,-0.4149 15.70799,-1.20732 20.20708,-2.61324 3.55139,-1.10978 6.61835,-1.8565 6.81547,-1.65938 0.19712,0.19712 -1.02754,3.10393 -2.72147,6.45959 l -3.07987,6.10119 -25.43458,0 -25.43458,0 1.44898,-3.46788 z m 90.92329,0.51754 c 1.29173,-2.49794 1.52568,-8.98364 1.52568,-42.29643 l 0,-39.34608 -3.47729,-6.45358 c -1.91251,-3.54946 -3.48751,-6.80796 -3.5,-7.2411 -0.0125,-0.43314 4.13979,-0.65814 9.22729,-0.5 l 9.25,0.28753 0.62068,5.5 c 0.51033,4.5221 3.51316,11.06712 16.88884,36.81117 8.94748,17.22114 16.59489,30.94614 16.99425,30.5 0.39936,-0.44614 7.16153,-14.08617 15.02704,-30.31117 13.23423,-27.29959 14.33427,-30.00348 14.74791,-36.25 l 0.44697,-6.75 7.99415,0 c 7.23506,0 7.92229,0.16617 7.23745,1.75 -1.77757,4.11098 -2.28852,14.7721 -2.28852,47.75 0,32.9779 0.51095,43.63902 2.28852,47.75 0.6887,1.59276 -0.0484,1.75 -8.20381,1.75 l -8.96051,0 1.35352,-5.21793 c 0.97809,-3.77063 1.33784,-12.43846 1.29702,-31.25 L 452.06163,543 436.37555,574.25 c -8.62734,17.1875 -15.91442,31.24876 -16.19351,31.24724 -0.27909,-0.002 -7.70743,-13.82622 -16.50743,-30.72157 l -16,-30.71881 -0.26606,27.21525 c -0.21599,22.09358 0.01,27.87511 1.19897,30.72157 l 1.46504,3.50632 -8.97466,0 -8.97465,0 1.52568,-2.95034 z m 131.00644,1.29816 c 2.03874,-4.89372 2.43214,-12.63317 2.43214,-47.84782 0,-35.04159 -0.39803,-42.97853 -2.39461,-47.75 -0.67552,-1.61439 0.26405,-1.74865 12.12472,-1.73264 19.9454,0.0269 30.68057,3.0314 37.14712,10.39639 8.16091,9.29476 6.24234,23.88851 -4.18747,31.85226 -4.34679,3.31902 -4.4743,3.54939 -2.2707,4.10246 3.63926,0.91339 11.75923,8.62309 13.78957,13.09282 2.27664,5.01197 2.43826,14.53955 0.35057,20.66658 -2.27666,6.68161 -6.69898,11.366 -14.23351,15.07699 L 540.72299,605 l -18.41871,0.34782 c -17.59485,0.33226 -18.38429,0.26516 -17.64891,-1.5 z m 26.51924,-7.40517 c 7.57347,-1.21437 13.21773,-4.53229 15.63076,-9.18838 7.03959,-13.58336 -0.41602,-28.30431 -15.28899,-30.1878 -2.11298,-0.26759 -5.75427,-0.73482 -8.09177,-1.03831 l -4.25,-0.5518 0,21.01182 0,21.01182 2.75,-0.008 c 1.5125,-0.004 5.675,-0.47657 9.25,-1.0498 z m 0,-48.15243 c 8.89798,-2.62561 14,-8.76597 14,-16.84925 0,-9.71749 -6.18941,-14.93262 -18.67315,-15.73378 l -7.32685,-0.4702 0,17.53635 0,17.53635 4.25,-0.49335 c 2.3375,-0.27134 5.825,-0.9581 7.75,-1.52612 z M 601.85722,603.25 c 1.0864,-2.99051 1.02486,-91.61428 -0.0656,-94.5 -0.84256,-2.22963 -0.7688,-2.25 8.14854,-2.25 l 8.99879,0 -1.33827,3.75 c -1.03352,2.89608 -1.34826,13.25696 -1.38216,45.5 l -0.0439,41.75 5.75,-0.008 c 9.95476,-0.0131 21.95818,-1.81127 27.22984,-4.07909 2.79456,-1.20218 5.29631,-1.9705 5.55944,-1.70738 0.26312,0.26313 -0.88005,3.47444 -2.54039,7.13624 l -3.0188,6.65782 -24.05743,0 -24.05744,0 0.81739,-2.25 z m 87.86842,-1.21788 c 2.04171,-4.88651 2.06198,-86.06839 0.0229,-91.78212 l -1.33827,-3.75 27.38216,0 c 15.06021,0 27.38218,0.28272 27.38218,0.62827 0,1.15647 -6.13772,11.37193 -6.82339,11.35667 -0.37214,-0.008 -2.47661,-0.66353 -4.67661,-1.4561 -2.59057,-0.93329 -8.1402,-1.45652 -15.75,-1.48495 l -11.75,-0.0439 0,17 0,17 16.83333,0 c 9.25834,0 17.11758,0.28425 17.465,0.63166 0.62443,0.62443 -3.54441,8.68174 -5.76306,11.13853 -0.92159,1.0205 -1.82407,0.92222 -4.59117,-0.5 -2.45364,-1.26111 -6.39183,-1.86826 -13.6941,-2.11121 l -10.25,-0.34103 0,19.74468 0,19.74468 13.75,-0.59547 c 9.58056,-0.4149 15.70799,-1.20732 20.20708,-2.61324 3.55139,-1.10978 6.57631,-1.89854 6.72205,-1.7528 0.14574,0.14573 -1.05334,3.05255 -2.66461,6.45959 l -2.92959,6.19461 -25.49144,0 -25.49144,0 1.44898,-3.46788 z m 93.66379,1.21788 c 0.97568,-1.70815 1.35785,-12.21681 1.58696,-43.63693 0.27596,-37.84595 -0.0912,-46.09343 -2.28667,-51.36307 -0.6841,-1.64201 0.97445,-1.75 26.8779,-1.75 15.18385,0 27.60699,0.2052 27.60699,0.45599 0,0.42971 -5.86936,10.67504 -6.51129,11.36586 -0.16449,0.17701 -2.38247,-0.38549 -4.92884,-1.25 C 822.58723,516.00333 817.43344,515.5 809.63966,515.5 l -11.46505,0 0,17 0,17 17,0 c 11.95515,0 17,0.33482 17,1.12827 0,1.11897 -5.85491,11.87173 -6.46419,11.87173 -0.17457,0 -2.27904,-0.89012 -4.67661,-1.97804 -3.31998,-1.50648 -6.56438,-1.98327 -13.6092,-2 l -9.25,-0.022 0,19.5 0,19.5 8.42764,0 c 9.89506,0 22.02985,-1.54449 27.61381,-3.51462 2.1772,-0.76817 3.95855,-1.021 3.95855,-0.56186 0,0.45913 -1.15799,3.36417 -2.57331,6.45564 l -2.5733,5.62084 -25.46188,0 -25.46188,0 1.28519,-2.25 z M 709.67804,496.50554 c -0.34913,-0.56489 3.518,-5.51657 8.5936,-11.00372 9.92881,-10.73386 9.84292,-10.70364 13.9655,-4.914 l 1.96917,2.76545 -11.26585,6.72874 c -6.19622,3.70081 -11.57226,6.89117 -11.94675,7.08968 -0.3745,0.19851 -0.96655,-0.10125 -1.31567,-0.66615 z" id="path2392" sodipodi:nodetypes="cssssssccsssssccccccccccccccsssccccccccccccsssscccccccccccccccssscccccccccsscccsccccccsccccsssssscccccsccccccssssscccssccccsssccccccccccccccccsssccccccccccccssccccccsscccsscccccssscccccsscccccccssssssssscccssssssccccssssssssscccssssssccsssscccccccccccccccsssccccccscccssscccccssscccccsscccccccccscccssscccsssccccccscccccccccsssssssscccccsscccccccscccccccsccccccsscccccccccssscccccssscccccssccccccsssssscccccssscccccssccccccscccsc" inkscape:connector-curvature="0"/>
  <path style="fill:#c5c7c8;fill-opacity:1;fill-rule:nonzero;stroke:none" d="m 3.6746102,0 0,480.5 108.2499998,-50 616.5,0 108.25,50 0,-480.5 L 3.6746102,0 z M 420.26836,30.78125 584.98711,72.625 c 90.58417,23.0128 165.3157,42.20139 166.09375,42.65625 0.77809,0.45485 2.04377,1.77973 2.8125,2.9375 1.32778,1.99976 0.90283,2.45647 -8.65625,9.28125 l -10.0625,7.1875 0,16.90625 0,16.90625 -316,0 -316,0 0,-16.9375 0,-16.90625 -9.4375,-6.59375 c -5.19716,-3.62348 -9.72055,-6.99727 -10.03125,-7.5 -0.31071,-0.50274 0.47339,-2.0547 1.71875,-3.4375 2.0242,-2.24758 19.89532,-6.96127 168.5625,-44.4375 L 420.26836,30.78125 z m 60.0625,153.9375 c 2.11943,0.0349 6.52625,1.46375 7.96875,2.90625 1.02469,1.02466 2.5532,1.875 3.375,1.875 0.8218,0 3.44234,1.9125 5.8125,4.25 5.8356,5.75517 10.43053,16.95368 11.75,28.53125 0.54689,4.7988 1.65634,11.41875 2.46875,14.71875 2.41863,9.82448 3.55268,23.40399 4.375,53 0.64605,23.2514 0.51542,29.10235 -0.71875,34.5 -1.02763,4.49438 -1.5343,13.13399 -1.65625,28 -0.12156,14.8192 -0.7046,24.42843 -1.84375,30.90625 -1.30441,7.41742 -1.4399,10.88077 -0.65625,16.40625 0.54609,3.85054 0.89715,7.04727 0.75,7.125 -0.14713,0.0777 -1.94295,1.3535 -3.96875,2.84375 -4.34457,3.19604 -4.99428,3.29192 -7.125,0.9375 -2.13773,-2.36214 -6.08226,-11.5162 -7.5625,-17.53125 -0.65231,-2.6507 -3.05206,-8.95069 -5.34375,-14 -3.93734,-8.67518 -4.20586,-9.87562 -4.875,-21.6875 -0.3895,-6.875 -1.24494,-15.875 -1.875,-20 -0.63009,-4.125 -1.11424,-12.45 -1.09375,-18.5 0.092,-27.17001 -1.92487,-102.77074 -2.9375,-110 -0.92492,-6.60282 -0.85427,-9.30985 0.4375,-15.5 0.86083,-4.125 1.56205,-7.84383 1.5625,-8.28125 3.6e-4,-0.35275 0.44977,-0.51163 1.15625,-0.5 z m -138.65625,4.96875 c 0.87315,-0.01 2.00508,0.44258 2.6875,1.125 0.77991,0.77991 2.37024,1.74659 3.5625,2.125 1.19225,0.3784 3.88666,2.60143 5.96875,4.96875 3.32521,3.78074 4.10479,5.77504 6.5,16.21875 4.01264,17.49608 5.04641,25.76036 4.5,35.84375 -0.28489,5.25747 0.14397,13.62852 1,20.03125 1.55479,11.6292 1.41752,20.7297 -0.8125,56.5 -0.66863,10.725 -1.28229,35.475 -1.375,55 -0.0927,19.525 -0.24559,36.0625 -0.34375,36.75 -0.30076,2.10645 -5.67826,1.42673 -7.90625,-1 -2.57595,-2.80572 -7.95666,-13.46137 -10.46875,-20.75 -2.88102,-8.3591 -6.86399,-28.75009 -6.9375,-35.5 -0.0359,-3.3 -0.67068,-8.7 -1.4375,-12 -1.72593,-7.42755 -1.90036,-48.53288 -0.3125,-75 0.59394,-9.9 0.93436,-25.2 0.75,-34 -0.78918,-37.67189 0.19902,-49.50119 4.25,-50.28125 0.11197,-0.0216 0.25026,-0.0299 0.375,-0.0312 z m 70.375,3.9375 c 1.82341,-0.19816 4.08058,0.7688 7.03125,2.90625 7.99488,5.79147 13.3031,17.0128 15.125,31.96875 2.69738,22.14277 3.90774,72.55957 1.96875,82 -0.50833,2.475 -1.65742,14.4 -2.53125,26.5 -0.87382,12.1 -2.46679,26.86844 -3.5625,32.8125 -1.24673,6.76327 -1.92336,14.36493 -1.8125,20.3125 0.17092,9.16906 0.06,9.60234 -2.65625,12.4375 -3.74248,3.90629 -6.61427,3.80379 -8.8125,-0.3125 -0.95459,-1.7875 -2.41394,-4.50046 -3.25,-6.03125 -2.09715,-3.83974 -6.50036,-24.81667 -6.875,-32.71875 -0.1695,-3.575 -1.03827,-16.49701 -1.90625,-28.71875 -1.29108,-18.17933 -1.38388,-26.81951 -0.5625,-47.5 2.00513,-50.48428 2.21089,-56.5339 2.34375,-72.3125 0.11385,-13.52264 0.41179,-16.46867 1.90625,-18.75 1.02068,-1.55807 2.17554,-2.43963 3.59375,-2.59375 z" id="rect2384" inkscape:connector-curvature="0"/>
  <path style="fill:#004494;fill-opacity:1" d="M 139.52721,414.54945 C 133.35944,408.2409 131.6195,402.67999 127.30919,375.5 c -2.69123,-16.97035 -4.22907,-30.35019 -4.59749,-40 -0.30448,-7.975 -0.97142,-19.45 -1.48209,-25.5 -0.51067,-6.05 -0.95115,-32.825 -0.97885,-59.5 -0.0474,-45.68139 0.0651,-48.8684 1.93675,-54.83909 1.09291,-3.48651 1.9871,-8.44076 1.9871,-11.00946 0,-6.77807 2.14178,-7.8306 8.5905,-4.22157 10.12834,5.66832 11.36711,6.6497 13.01969,10.31447 0.93146,2.06561 2.02179,3.75565 2.42297,3.75565 2.05023,0 4.92894,22.18102 6.93873,53.46424 1.08074,16.82213 -0.26221,113.62673 -1.84557,133.03576 -0.44868,5.5 -0.75075,14.87331 -0.67127,20.82958 0.14381,10.77654 0.13043,10.84142 -2.73199,13.25 -3.81436,3.20957 -6.86676,3.05353 -10.37046,-0.53013 z m 144.41448,-7.56176 c -4.39644,-2.98745 -8.76708,-10.00557 -8.76708,-14.07766 0,-1.60283 -1.3059,-7.48307 -2.90201,-13.06719 -2.5748,-9.00818 -3.03803,-12.84153 -4.10845,-33.9979 -0.66355,-13.11471 -0.92123,-28.11994 -0.57262,-33.34494 0.5681,-8.51478 1.04224,-21.20516 3.1571,-84.5 0.37541,-11.23581 1.13214,-19.61023 2.0137,-22.28495 0.77676,-2.35672 1.41228,-5.15339 1.41228,-6.21481 0,-2.21742 2.81421,-4.01901 6.18426,-3.95902 3.39593,0.0605 11.14987,4.14127 12.31169,6.47952 0.55223,1.11141 2.04415,3.46964 3.31538,5.2405 1.27123,1.77087 2.54785,4.91153 2.83693,6.97926 0.28909,2.06772 1.10861,5.3345 1.82117,7.2595 2.30934,6.23877 2.79553,24.20302 1.16377,43 -0.83554,9.625 -1.79663,22.9 -2.13576,29.5 -0.33913,6.6 -1.28222,19.425 -2.09574,28.5 -2.8845,32.17694 -4.22269,55.51067 -3.41274,59.50686 0.44513,2.19623 1.37412,6.46814 2.06442,9.49314 1.94299,8.51453 1.62579,10.70406 -2.10893,14.55731 -3.98171,4.10809 -5.32081,4.23051 -10.17737,0.93038 z m -65.48977,0.85913 c -1.89326,-0.76691 -8.00463,-11.38425 -10.74787,-18.67237 -3.40271,-9.04018 -7.66466,-27.83361 -8.09019,-35.67445 -0.19403,-3.575 -1.07494,-10.68429 -1.95759,-15.79843 -1.43951,-8.34062 -1.47137,-12.82149 -0.30925,-43.5 C 198.05959,275.39071 198.6498,246.05 198.6586,229 c 0.0176,-34.12352 0.58992,-38.5 5.03455,-38.5 1.29988,0 2.64576,0.45682 2.99082,1.01515 0.34507,0.55833 2.08793,1.6254 3.87303,2.37126 5.71851,2.38935 8.98862,7.91952 11.89361,20.11359 3.91009,16.41314 4.85855,23.80749 4.54821,35.45851 -0.15443,5.79782 0.35132,17.19308 1.1239,25.32279 1.16905,12.30186 1.18876,16.57927 0.11744,25.5 -1.70898,14.23054 -2.15554,26.77445 -2.48198,69.7187 -0.15051,19.8 -0.34339,36.5625 -0.42861,37.25 -0.151,1.21805 -4.42784,1.58918 -6.87765,0.59682 z" id="path2399" sodipodi:nodetypes="csssssssssssssccssssssssssssssssssccssssssssssssssc" inkscape:connector-curvature="0"/>
  <path style="fill:#e2001a;fill-opacity:1" d="m 715.17282,410.99785 c -1.5988,-1.92644 -2.46699,-6.6794 -4.46782,-24.45932 -0.83318,-7.4038 -1.92335,-14.8288 -2.4226,-16.5 -0.49926,-1.67119 -1.6506,-10.91353 -2.55855,-20.53853 -0.90795,-9.625 -2.55136,-23.575 -3.65203,-31 -1.10068,-7.425 -2.4152,-22.05 -2.92116,-32.5 -0.50597,-10.45 -1.44532,-26.65261 -2.08746,-36.0058 -1.01743,-14.81978 -0.95676,-18.24216 0.47195,-26.62387 0.9017,-5.28993 1.63946,-12.10973 1.63946,-15.1551 0,-3.04537 0.85586,-8.28694 1.90192,-11.64793 1.12835,-3.62538 1.69972,-7.62727 1.40479,-9.83909 -0.64512,-4.83794 2.71636,-9.65198 6.04379,-8.65541 4.57981,1.37165 16.7848,11.73493 19.57586,16.6219 3.54488,6.20686 5.0005,21.26805 2.71605,28.10281 -1.63987,4.90628 -4.31111,78.62631 -3.26847,90.20249 1.40696,15.6213 1.82684,70.20421 0.59728,77.64425 -2.33845,14.14988 -2.60872,15.37734 -4.04173,18.35575 -1.7053,3.54434 -6.71733,4.66549 -8.93128,1.99785 z M 569.37461,407.3 c -0.66,-0.66 -1.2,-1.6435 -1.2,-2.18555 0,-0.54205 -0.84364,-1.91455 -1.87475,-3.05 -3.55341,-3.91296 -8.70332,-24.17213 -10.18444,-40.06445 -0.51258,-5.5 -1.3858,-14.275 -1.94048,-19.5 -2.54812,-24.00296 -2.93741,-34.88235 -3.04155,-85 -0.0611,-29.425 -0.0528,-55.525 0.0186,-58 0.23308,-8.08612 4.39211,-11.12729 10.05016,-7.34888 10.15033,6.77833 15.35626,16.54116 17.98819,33.73381 4.08023,26.65341 6.83344,71.72835 5.11775,83.78683 -0.60034,4.21946 -1.34975,16.59446 -1.66534,27.5 -0.31875,11.0146 -1.51334,26.85289 -2.6875,35.63175 -1.77521,13.27271 -1.93134,16.78412 -0.97493,21.92692 1.03043,5.54084 0.94921,6.43013 -0.85368,9.34727 -2.70163,4.37133 -6.284,5.69028 -8.75198,3.2223 z m 78.04743,-3.05 c -2.16027,-2.7072 -4.23252,-7.78383 -5.86224,-14.36141 -0.93873,-3.78873 -3.20942,-10.80913 -5.04598,-15.60089 -2.4896,-6.49559 -3.34425,-10.31211 -3.35901,-15 -0.0109,-3.45824 -0.67677,-11.83457 -1.47974,-18.61409 -0.80296,-6.77951 -1.43973,-19.48754 -1.41504,-28.24007 0.0247,-8.75252 -0.18685,-16.28864 -0.47008,-16.74692 -0.28324,-0.45829 -0.57284,-14.75025 -0.64355,-31.75993 -0.0707,-17.00968 -0.57148,-36.55169 -1.1128,-43.42669 -0.72877,-9.25585 -0.66416,-14.49603 0.24898,-20.19088 l 1.23318,-7.69089 2.98568,0.59714 c 1.64212,0.32842 3.70286,1.19718 4.57942,1.93058 9.88462,8.27019 10.94003,9.56395 13.5706,16.63529 1.62409,4.36578 3.06225,10.97332 3.6389,16.71876 0.52441,5.225 1.36849,10.85 1.87572,12.5 3.20506,10.42589 5.29592,71.134 2.89306,84 -0.80572,4.31416 -1.24416,13.52276 -1.14271,24 0.10518,10.86139 -0.37829,20.61095 -1.33889,27 -0.96889,6.44412 -1.2677,12.56054 -0.84034,17.20087 0.64779,7.03377 0.59674,7.25929 -2.19971,9.7184 -3.22351,2.83465 -4.66506,3.14834 -6.11545,1.33073 z" id="path2397" sodipodi:nodetypes="cssssssssssssssssccsssssssssssssccsssssssscccsssssssssc" inkscape:connector-curvature="0"/>
</svg>