<?xml version="1.0" encoding="utf-8"?>
<svg version="1.1" id="Capa_1" xmlns="http://www.w3.org/2000/svg" xmlns:xlink="http://www.w3.org/1999/xlink" x="0px" y="0px"
	 viewBox="0 0 502.8 110.5" style="enable-background:new 0 0 502.8 110.5;" xml:space="preserve">
<style type="text/css">
	.st0{fill:#007BC0;}
</style>
<g>
	<path class="st0" d="M139,34.5c4.9,0,7.6-2.5,7.6-7.1v-11h-4v11c0,2.7-1,3.8-3.6,3.8c-3.1,0-3.6-1.9-3.6-3.8v-11h-4v11
		C131.5,32,134.1,34.5,139,34.5z"/>
	<polygon class="st0" points="162.7,28.1 155.4,16.3 155.4,16.3 151.5,16.3 151.5,34.1 155.2,34.1 155.2,22.3 162.5,34 162.5,34.1 
		166.5,34.1 166.5,16.3 162.7,16.3 	"/>
	<rect x="172.7" y="16.3" class="st0" width="4" height="17.7"/>
	<polygon class="st0" points="186.7,34.1 191.2,34.1 197,16.4 197.1,16.3 192.9,16.3 189,28.7 185.1,16.3 181,16.3 186.7,34 	"/>
	<polygon class="st0" points="214.6,30.7 205.1,30.7 205.1,26.5 213.6,26.5 213.6,23.3 205.1,23.3 205.1,19.7 214.4,19.7 
		214.4,16.3 201.1,16.3 201.1,34.1 214.6,34.1 	"/>
	<path class="st0" d="M223.4,27.2h3.8c1.8,0,2.6,0.7,2.9,2.6c0.1,0.5,0.1,1,0.1,1.4c0.1,1,0.2,2,0.5,2.8l0,0h4l-0.1-0.1
		c-0.6-0.8-0.6-2.4-0.7-3.5c0-0.2,0-0.4,0-0.6c-0.2-2.3-1-3.7-2.5-4.1c1.8-0.8,2.7-2.3,2.7-4.4c0-2.9-2.2-4.9-5.2-4.9h-9.6V34h4
		L223.4,27.2L223.4,27.2z M223.4,19.4h4.2c1.8,0,2.6,0.8,2.6,2.4c0,1.7-0.8,2.5-2.6,2.5h-4.2V19.4z"/>
	<path class="st0" d="M245.4,34.5c4.6,0,7.4-2.2,7.4-5.7c0-3.9-3.7-4.8-5.1-5.2l-0.6-0.1c-4.1-1-4.8-1.2-4.8-2.5
		c0-1.4,1.4-1.9,2.6-1.9c2.2,0,3.3,0.8,3.4,2.6l0,0.1h3.9v-0.1c0-3.6-2.7-5.7-7.1-5.7c-3.3,0-6.6,1.9-6.6,5.4c0,3.4,2.7,4.4,5.3,5.1
		c0.4,0.1,0.8,0.2,1.1,0.3c2.2,0.5,4.1,1,4.1,2.6c0,2-2.6,2.1-3.4,2.1c-2.4,0-3.8-1.2-3.8-3.2v-0.1h-3.9l0,0.1
		c0,1.7,0.5,3.1,1.6,4.2C240.8,33.7,242.9,34.5,245.4,34.5z"/>
	<rect x="257.7" y="16.3" class="st0" width="4" height="17.7"/>
	<polygon class="st0" points="270.6,34.1 274.6,34.1 274.6,19.7 279.9,19.7 279.9,16.3 265.3,16.3 265.3,19.7 270.6,19.7 	"/>
	<path class="st0" d="M279.8,34.1h4.1l1.4-3.9h6.5l1.3,3.9h4.1l-6.6-17.7l0,0h-4.1L279.8,34.1L279.8,34.1z M286.2,27.1l2.2-6.3
		l2.2,6.3H286.2z"/>
	<polygon class="st0" points="302.5,34.1 306.5,34.1 306.5,19.7 311.8,19.7 311.8,16.3 297.3,16.3 297.3,19.7 302.5,19.7 	"/>
	<path class="st0" d="M326.9,27.7h4c4.5,0,6.2-2.9,6.2-5.7c0-2.8-1.6-5.7-6.2-5.7h-8v17.7h4V27.7z M326.9,19.4h3
		c1.7,0,3.4,0.3,3.4,2.6c0,2.3-1.7,2.6-3.4,2.6h-3V19.4z"/>
	<path class="st0" d="M347.8,34.5c5.1,0,8.7-3.8,8.7-9.2c0-5.6-3.5-9.4-8.7-9.4c-5.2,0-8.7,3.8-8.7,9.4
		C339.1,30.7,342.7,34.5,347.8,34.5z M343.1,25.3c0-1.4,0.3-6,4.7-6c4.4,0,4.7,4.6,4.7,6c0,2.8-1.2,5.8-4.7,5.8
		C344.3,31.1,343.1,28.1,343.1,25.3z"/>
	<polygon class="st0" points="364.1,16.3 360.1,16.3 360.1,34.1 372.6,34.1 372.6,30.7 364.1,30.7 	"/>
	<rect x="376.1" y="16.3" class="st0" width="4" height="17.7"/>
	<polygon class="st0" points="384,19.7 389.3,19.7 389.3,34.1 393.2,34.1 393.2,19.7 398.5,19.7 398.5,16.3 384,16.3 	"/>
	<polygon class="st0" points="406.1,26.5 414.6,26.5 414.6,23.3 406.1,23.3 406.1,19.7 415.4,19.7 415.4,16.3 402.1,16.3 
		402.1,34.1 415.6,34.1 415.6,30.7 406.1,30.7 	"/>
	<polygon class="st0" points="410.5,14.8 408,11.2 404,11.2 407.9,14.8 	"/>
	<path class="st0" d="M431.2,27.2c-0.3,2.5-1.8,3.9-3.9,3.9c-3.5,0-4.7-3-4.7-5.8c0-1.4,0.3-6,4.7-6c1.9,0,3.6,1.3,3.8,3l0,0h3.9
		l0-0.1c-0.4-3.9-3.5-6.4-7.7-6.4c-5.2,0-8.7,3.8-8.7,9.4c0,5.4,3.6,9.2,8.7,9.2c4.3,0,7.4-2.9,7.8-7.3l0-0.1L431.2,27.2L431.2,27.2
		z"/>
	<polygon class="st0" points="449.8,28.1 442.5,16.3 442.5,16.3 438.5,16.3 438.5,34.1 442.3,34.1 442.3,22.3 449.6,34 449.6,34.1 
		453.5,34.1 453.5,16.3 449.8,16.3 	"/>
	<rect x="459.2" y="16.3" class="st0" width="4" height="17.7"/>
	<path class="st0" d="M480.1,27.2c-0.3,2.5-1.8,3.9-3.9,3.9c-3.5,0-4.7-3-4.7-5.8c0-1.4,0.3-6,4.7-6c1.9,0,3.5,1.3,3.8,3l0,0h3.9
		l0-0.1c-0.4-3.9-3.5-6.4-7.7-6.4c-5.2,0-8.7,3.8-8.7,9.4c0,5.4,3.6,9.2,8.7,9.2c4.3,0,7.4-2.9,7.8-7.3l0-0.1L480.1,27.2L480.1,27.2
		z"/>
	<path class="st0" d="M496.2,16.3L496.2,16.3l-4.1,0L485.4,34l0,0.1h4l1.4-3.9h6.5l1.3,3.9h4.1L496.2,16.3z M496.2,27.1h-4.4
		l2.2-6.3L496.2,27.1z"/>
	<path class="st0" d="M139.2,46.4h-7.7v17.7h7.7c5,0,8.1-3.4,8.1-9C147.3,49.6,144.2,46.4,139.2,46.4z M135.5,49.7h2.7
		c3.5,0,5,1.8,5,5.8c0,3.3-1.6,5.2-4.3,5.2h-3.4V49.7z"/>
	<polygon class="st0" points="154.8,56.5 163.3,56.5 163.3,53.4 154.8,53.4 154.8,49.7 164.1,49.7 164.1,46.4 150.8,46.4 
		150.8,64.1 164.3,64.1 164.3,60.7 154.8,60.7 	"/>
	<path class="st0" d="M191.3,57.3L191.3,57.3l-3.9-0.1l0,0c-0.3,2.5-1.8,3.9-3.9,3.9c-3.5,0-4.7-3-4.7-5.8c0-1.4,0.3-6,4.7-6
		c1.9,0,3.6,1.3,3.8,3l0,0h3.9l0-0.1c-0.4-3.9-3.5-6.4-7.7-6.4c-5.2,0-8.7,3.8-8.7,9.4c0,5.4,3.6,9.2,8.7,9.2
		C187.8,64.5,190.9,61.7,191.3,57.3z"/>
	<path class="st0" d="M209.8,64.1l-6.6-17.7l0,0h-4.1L192.5,64l0,0.1h4l1.4-3.9h6.5l1.3,3.9C205.7,64.1,209.8,64.1,209.8,64.1z
		 M203.3,57.2h-4.4l2.2-6.3L203.3,57.2z"/>
	<polygon class="st0" points="224.5,46.4 209.9,46.4 209.9,49.7 215.2,49.7 215.2,64.1 219.2,64.1 219.2,49.7 224.5,49.7 	"/>
	<path class="st0" d="M224.2,64L224.2,64l4,0.1l1.4-3.9h6.5l1.3,3.9h4.1L235,46.4l0,0h-4.1L224.2,64z M230.6,57.2l2.2-6.3l2.2,6.3
		H230.6z"/>
	<polygon class="st0" points="244.4,46.4 244.4,64.1 257,64.1 257,60.7 248.4,60.7 248.4,46.4 	"/>
	<path class="st0" d="M269.9,57.4c0,2.7-1,3.8-3.6,3.8c-3.2,0-3.6-1.9-3.6-3.8v-11h-4v11c0,4.7,2.6,7.1,7.6,7.1
		c4.9,0,7.6-2.5,7.6-7.1v-11h-4V57.4z"/>
	<polygon class="st0" points="290.4,58.1 283.1,46.4 283.1,46.4 279.1,46.4 279.1,64.1 282.9,64.1 282.9,52.4 290.1,64.1 
		290.2,64.1 294.1,64.1 294.1,46.4 290.4,46.4 	"/>
	<polygon class="st0" points="313.8,46.4 313.8,46.4 309.4,46.4 305.3,53.3 301.2,46.4 296.7,46.4 303.2,57.2 303.2,64.1 
		307.2,64.1 307.2,57.3 	"/>
	<path class="st0" d="M330.3,64.1l-6.6-17.7l0,0h-4.1L312.9,64l0,0.1h4l1.4-3.9h6.5l1.3,3.9C326.1,64.1,330.3,64.1,330.3,64.1z
		 M323.7,57.2h-4.4l2.2-6.3L323.7,57.2z"/>
	<path class="st0" d="M142.4,84.7c0.8-0.3,1.4-0.8,1.9-1.5c0.5-0.7,0.7-1.5,0.7-2.5c0-0.9-0.2-1.7-0.6-2.3c-0.4-0.6-0.9-1.1-1.5-1.4
		c-0.3-0.2-0.6-0.3-1-0.4c-0.4-0.1-0.8-0.1-1.2-0.2c-0.4,0-0.9-0.1-1.3-0.1c-0.4,0-0.8,0-1.2,0h-6.5v17.7h8.6c0.9,0,1.7-0.1,2.3-0.4
		c0.7-0.3,1.2-0.7,1.7-1.1c0.5-0.5,0.8-1,1-1.6c0.2-0.6,0.3-1.2,0.3-1.9c0-1.1-0.3-2-0.9-2.8C144.3,85.5,143.5,85,142.4,84.7z
		 M134.2,86h5.3c0.5,0,1,0,1.4,0.1c0.4,0.1,0.9,0.2,1.2,0.5c0.3,0.2,0.6,0.5,0.8,0.9c0.2,0.4,0.3,0.8,0.3,1.4c0,1-0.3,1.7-0.9,2.3
		c-0.6,0.5-1.4,0.8-2.4,0.8h-5.8V86z M141.7,83.3c-0.6,0.5-1.5,0.7-2.8,0.7h-4.6v-5.5h4.6c0.5,0,1,0,1.4,0.1
		c0.4,0.1,0.8,0.2,1.2,0.4c0.3,0.2,0.6,0.5,0.8,0.8c0.2,0.3,0.3,0.8,0.3,1.5C142.5,82.1,142.3,82.8,141.7,83.3z"/>
	<path class="st0" d="M154.5,76.4l-6.9,17.7h2.5l2-5.3h7.4l1.9,5.3l0,0h2.7l-6.9-17.7L154.5,76.4L154.5,76.4z M158.7,86.7h-5.8
		l2.9-8.1L158.7,86.7z"/>
	<path class="st0" d="M181.1,93c-0.1-0.4-0.2-0.8-0.3-1.2s-0.1-0.9-0.1-1.3c0-0.4,0-0.9-0.1-1.3c-0.1-0.4-0.1-0.8-0.2-1.2
		c-0.1-0.4-0.2-0.8-0.4-1.1c-0.2-0.3-0.5-0.6-0.8-0.8c-0.3-0.2-0.7-0.4-1.1-0.5c1-0.3,1.8-0.9,2.2-1.6c0.5-0.8,0.7-1.8,0.7-2.8
		c0-1.4-0.5-2.6-1.4-3.4c-1-0.8-2.3-1.2-4-1.2h-8.3v17.7h2.5v-7.5h5.7c0.6,0,1,0.1,1.4,0.3s0.6,0.4,0.8,0.7c0.2,0.3,0.4,0.6,0.5,1
		c0.1,0.4,0.2,0.8,0.2,1.2c0.1,0.4,0.1,0.9,0.1,1.3c0,0.3,0,0.6,0,0.9l0,0.4c0,0.4,0.1,0.7,0.1,1.1c0.1,0.3,0.2,0.6,0.3,0.8l2.8,0
		l-0.1-0.1C181.4,93.7,181.2,93.4,181.1,93z M169.8,78.5h5.8c1.1,0,1.9,0.3,2.4,0.8c0.5,0.5,0.7,1.3,0.7,2.1c0,0.6-0.1,1.1-0.3,1.5
		c-0.2,0.4-0.5,0.7-0.9,0.9c-0.4,0.2-0.8,0.4-1.3,0.5c-0.5,0.1-1,0.1-1.5,0.1h-4.8L169.8,78.5L169.8,78.5z"/>
	<path class="st0" d="M198.8,87.4c0,0.7-0.2,1.4-0.4,2c-0.2,0.6-0.6,1.2-1,1.6c-0.4,0.4-0.9,0.8-1.5,1c-0.6,0.2-1.3,0.4-2,0.4
		c-1,0-1.9-0.2-2.7-0.6c-0.7-0.4-1.4-0.9-1.8-1.6c-0.5-0.7-0.8-1.4-1.1-2.3c-0.2-0.9-0.3-1.8-0.3-2.8c0-0.9,0.1-1.8,0.3-2.7
		c0.2-0.8,0.6-1.6,1.1-2.3c0.5-0.7,1.1-1.2,1.8-1.6c0.7-0.4,1.6-0.6,2.7-0.6c1.2,0,2.3,0.3,3.2,0.9c0.9,0.6,1.5,1.6,1.7,2.8l0,0h2.5
		l0-0.1c-0.1-0.9-0.4-1.8-0.8-2.5c-0.4-0.7-1-1.3-1.6-1.8c-0.6-0.5-1.4-0.8-2.2-1.1c-0.8-0.2-1.7-0.4-2.6-0.4
		c-1.4,0-2.6,0.2-3.6,0.7c-1,0.5-1.9,1.2-2.6,2c-0.7,0.8-1.2,1.8-1.6,3c-0.4,1.1-0.5,2.4-0.5,3.6c0,1.3,0.2,2.5,0.5,3.6
		c0.3,1.1,0.9,2.1,1.5,2.9c0.7,0.8,1.5,1.5,2.6,2c1,0.5,2.2,0.7,3.6,0.7c2.3,0,4.1-0.6,5.4-1.9c1.3-1.2,2.1-3,2.3-5.2l0-0.1
		L198.8,87.4L198.8,87.4z"/>
	<polygon class="st0" points="207.9,86 217.1,86 217.1,84 207.9,84 207.9,78.5 217.8,78.5 217.8,76.4 205.5,76.4 205.5,94.1 
		217.8,94.1 217.8,92 207.9,92 	"/>
	<polygon class="st0" points="225.1,76.4 222.6,76.4 222.6,94.1 234.4,94.1 234.4,92 225.1,92 	"/>
	<path class="st0" d="M250.1,78.8c-0.7-0.9-1.6-1.6-2.7-2.1c-1.1-0.5-2.3-0.8-3.7-0.8c-1.4,0-2.6,0.3-3.7,0.8
		c-1.1,0.5-1.9,1.2-2.7,2.1c-0.7,0.9-1.2,1.9-1.6,3c-0.4,1.1-0.5,2.3-0.5,3.5c0,1.2,0.2,2.4,0.5,3.5c0.4,1.1,0.9,2.1,1.6,3
		c0.7,0.9,1.6,1.5,2.7,2.1c1.1,0.5,2.3,0.8,3.7,0.8c1.4,0,2.6-0.3,3.7-0.8c1.1-0.5,1.9-1.2,2.7-2.1c0.7-0.9,1.2-1.9,1.6-3
		c0.4-1.1,0.5-2.3,0.5-3.5c0-1.2-0.2-2.4-0.5-3.5C251.4,80.6,250.8,79.6,250.1,78.8z M243.8,92.4c-1.1,0-2-0.2-2.7-0.6
		c-0.8-0.4-1.4-1-1.9-1.7c-0.5-0.7-0.8-1.5-1.1-2.3c-0.2-0.9-0.3-1.7-0.3-2.6c0-0.9,0.1-1.8,0.3-2.6c0.2-0.9,0.6-1.6,1.1-2.3
		c0.5-0.7,1.1-1.2,1.9-1.7c0.8-0.4,1.7-0.6,2.7-0.6c1.1,0,2,0.2,2.7,0.6c0.8,0.4,1.4,1,1.9,1.7c0.5,0.7,0.9,1.5,1.1,2.3
		c0.2,0.8,0.3,1.7,0.3,2.6c0,0.9-0.1,1.8-0.3,2.6c-0.2,0.9-0.6,1.6-1.1,2.3c-0.5,0.7-1.1,1.2-1.9,1.7
		C245.7,92.2,244.8,92.4,243.8,92.4z"/>
	<polygon class="st0" points="268.6,90.6 259.3,76.4 259.3,76.4 256.7,76.4 256.7,94.1 259.1,94.1 259.1,80 268.2,94.1 270.9,94.1 
		270.9,76.4 268.6,76.4 	"/>
	<path class="st0" d="M281.3,76.4l-6.9,17.7h2.5l2-5.3h7.4l1.9,5.3l0,0h2.7L284,76.4L281.3,76.4L281.3,76.4z M285.5,86.7h-5.8
		l2.9-8.1L285.5,86.7z"/>
	<polygon class="st0" points="291.7,79.8 297,79.8 297,94.1 301,94.1 301,79.8 306.3,79.8 306.3,76.4 291.7,76.4 	"/>
	<polygon class="st0" points="313.5,86.5 322.1,86.5 322.1,83.4 313.5,83.4 313.5,79.8 322.8,79.8 322.8,76.4 309.5,76.4 
		309.5,94.1 323,94.1 323,90.7 313.5,90.7 	"/>
	<path class="st0" d="M338.7,87.3c-0.3,2.5-1.8,3.9-3.9,3.9c-3.5,0-4.7-3-4.7-5.8c0-1.4,0.3-6,4.7-6c1.9,0,3.5,1.3,3.8,3l0,0h3.9
		l0-0.1c-0.4-3.9-3.5-6.4-7.7-6.4c-5.2,0-8.7,3.8-8.7,9.4c0,5.4,3.6,9.2,8.7,9.2c4.3,0,7.4-2.8,7.8-7.3l0-0.1L338.7,87.3L338.7,87.3
		z"/>
	<polygon class="st0" points="356.4,83.1 349.4,83.1 349.4,76.4 345.4,76.4 345.4,94.1 349.4,94.1 349.4,86.5 356.4,86.5 
		356.4,94.1 360.4,94.1 360.4,76.4 356.4,76.4 	"/>
	<g>
		<g>
			<path class="st0" d="M56.5,79.9h-2.1v4.3h2.1c1.4,0,1.9-1.1,1.9-2.2C58.4,80.8,58,79.9,56.5,79.9z M55.2,0C24.7,0,0,24.7,0,55.2
				c0,30.5,24.7,55.2,55.2,55.2c30.5,0,55.2-24.7,55.2-55.2C110.5,24.7,85.7,0,55.2,0z M55.5,15.6c4.4,0,7.9,3.5,7.9,7.9
				s-3.5,7.9-7.9,7.9c-4.4,0-7.9-3.5-7.9-7.9S51.1,15.6,55.5,15.6z M55.5,34.3c4.4,0,7.9,3.5,7.9,7.9c0,4.4-3.5,7.9-7.9,7.9
				c-4.4,0-7.9-3.5-7.9-7.9C47.6,37.8,51.1,34.3,55.5,34.3z M36.3,15.6c4.4,0,7.9,3.5,7.9,7.9s-3.5,7.9-7.9,7.9
				c-4.4,0-7.9-3.5-7.9-7.9S31.9,15.6,36.3,15.6z M36.3,34.3c4.4,0,7.9,3.5,7.9,7.9c0,4.4-3.5,7.9-7.9,7.9c-4.4,0-7.9-3.5-7.9-7.9
				C28.4,37.8,31.9,34.3,36.3,34.3z M36.3,53.5c4.4,0,7.9,3.5,7.9,7.9c0,4.4-3.5,7.9-7.9,7.9c-4.4,0-7.9-3.5-7.9-7.9
				C28.4,57,31.9,53.5,36.3,53.5z M45.6,87c0,1.9-0.1,4.3-2.6,6.1c-1.7,1.2-3.6,1.4-5.4,1.4c-1.8,0-3.7-0.2-5.4-1.4
				c-2.5-1.8-2.6-4.2-2.6-6.1V75.9h5.3V87c0,1.1,0.1,1.9,0.9,2.5c0.6,0.5,1,0.6,1.8,0.6c0.7,0,1.2-0.2,1.8-0.6
				c0.8-0.7,0.9-1.5,0.9-2.5V75.9h5.3L45.6,87L45.6,87z M55.5,53.5c4.4,0,7.9,3.5,7.9,7.9c0,4.4-3.5,7.9-7.9,7.9
				c-4.4,0-7.9-3.5-7.9-7.9C47.6,57,51.1,53.5,55.5,53.5z M61.1,87.2c-1,0.7-2.2,1-5.1,1l-1.5,0v6h-4.6V75.9h7.6c3.7,0,6,2.2,6,6.3
				C63.5,84.3,62.6,86.1,61.1,87.2z M80.1,81.4c-1.8-1.5-2.5-1.4-3.9-1.4c-2.8,0-4.7,2.1-4.7,5.1c0,3,1.9,5.1,4.7,5.1
				c1.5,0,2.2-0.2,3.9-1.4v4.7c-1.7,0.9-2.7,1.1-4.4,1.1c-5.5,0-9.4-3.9-9.4-9.5c0-5.5,4-9.6,9.3-9.6c1.6,0,2.7,0.3,4.5,1.1V81.4z
				 M74.2,69.2c-4.4,0-7.9-3.5-7.9-7.9c0-4.4,3.5-7.9,7.9-7.9c4.3,0,7.9,3.5,7.9,7.9C82.1,65.7,78.5,69.2,74.2,69.2z M74.2,50
				c-4.4,0-7.9-3.5-7.9-7.9c0-4.4,3.5-7.9,7.9-7.9c4.3,0,7.9,3.5,7.9,7.9C82.1,46.5,78.5,50,74.2,50z M74.2,31.4
				c-4.4,0-7.9-3.5-7.9-7.9s3.5-7.9,7.9-7.9c4.3,0,7.9,3.5,7.9,7.9S78.5,31.4,74.2,31.4z"/>
		</g>
	</g>
</g>
</svg>
