<svg width="1001" height="216" viewBox="0 0 1001 216" fill="none" xmlns="http://www.w3.org/2000/svg">
<g clip-path="url(#clip0_1_1142)">
<path d="M415.481 80.038L365.051 177.738L314.601 80.038H343.881L365.051 121.118L386.221 80.038H415.481Z" fill="black"/>
<path d="M418.961 127.138C418.961 113.138 423.761 101.378 433.181 91.958C442.801 82.538 454.721 77.738 468.751 77.738C482.781 77.738 494.751 82.538 504.121 91.958C513.734 101.378 518.541 113.105 518.541 127.138C518.541 141.138 513.731 152.898 504.311 162.318C494.891 171.738 482.981 176.318 468.751 176.318C454.521 176.318 442.601 171.698 433.181 162.318C423.761 152.938 418.961 141.178 418.961 127.138ZM446.831 127.138C446.831 134.058 448.951 139.828 452.991 144.248C455.027 146.375 457.474 148.068 460.182 149.224C462.891 150.381 465.806 150.977 468.751 150.977C471.696 150.977 474.61 150.381 477.319 149.224C480.027 148.068 482.474 146.375 484.511 144.248C488.511 139.828 490.661 134.058 490.661 127.138C490.661 120.218 488.551 114.458 484.511 110.028C482.472 107.903 480.025 106.213 477.317 105.058C474.609 103.903 471.695 103.308 468.751 103.308C465.806 103.308 462.892 103.903 460.184 105.058C457.476 106.213 455.029 107.903 452.991 110.028C448.951 114.458 446.831 120.218 446.831 127.138Z" fill="black"/>
<path d="M624.621 156.358C614.431 169.628 600.791 176.358 583.291 176.358C569.071 176.358 557.151 171.738 547.731 162.358C538.311 152.978 533.501 141.218 533.501 127.178C533.501 113.138 538.311 101.418 547.731 91.998C557.341 82.578 569.261 77.778 583.291 77.778C598.291 77.778 611.361 84.118 622.701 96.618L604.221 114.458C598.221 107.148 591.531 103.458 584.221 103.458C571.151 103.458 561.351 113.258 561.351 127.098C561.351 140.938 571.151 150.748 584.221 150.748C592.491 150.748 599.791 146.748 606.141 138.448L624.621 156.358Z" fill="black"/>
<path d="M648.331 91.578C657.331 82.348 668.711 77.738 681.971 77.738C691.781 77.738 699.851 80.428 706.191 85.998V39.478H733.491V174.238H706.581V167.508C700.431 173.508 692.161 176.358 681.971 176.358C668.711 176.358 657.361 171.938 648.331 162.898C639.301 153.858 634.871 141.898 634.871 127.138C634.871 112.528 639.291 100.618 648.331 91.578ZM706.581 127.138C706.581 120.028 704.461 114.068 700.231 109.458C698.318 107.213 695.927 105.426 693.232 104.229C690.537 103.031 687.608 102.453 684.661 102.538C681.688 102.473 678.737 103.059 676.015 104.254C673.293 105.45 670.865 107.226 668.901 109.458C664.901 114.068 662.751 120.028 662.751 127.138C662.751 134.248 664.861 140.218 668.901 144.828C670.866 147.059 673.294 148.834 676.016 150.029C678.738 151.224 681.688 151.811 684.661 151.748C687.608 151.831 690.536 151.252 693.231 150.054C695.925 148.857 698.317 147.071 700.231 144.828C704.461 140.218 706.581 134.258 706.581 127.138Z" fill="black"/>
<path d="M750.391 127.138C750.391 113.138 755.201 101.378 764.621 91.958C774.231 82.538 786.151 77.738 800.191 77.738C814.231 77.738 826.191 82.538 835.561 91.958C845.174 101.378 849.981 113.105 849.981 127.138C849.981 141.138 845.171 152.898 835.751 162.318C826.331 171.738 814.411 176.318 800.191 176.318C785.971 176.318 774.041 171.698 764.621 162.318C755.201 152.938 750.391 141.178 750.391 127.138ZM778.271 127.138C778.271 134.058 780.381 139.828 784.421 144.248C786.458 146.375 788.906 148.068 791.615 149.225C794.324 150.382 797.24 150.978 800.186 150.978C803.132 150.978 806.047 150.382 808.756 149.225C811.466 148.068 813.913 146.375 815.951 144.248C819.951 139.828 822.101 134.058 822.101 127.138C822.101 120.218 819.991 114.458 815.951 110.028C813.911 107.903 811.464 106.212 808.755 105.057C806.045 103.902 803.131 103.307 800.186 103.307C797.241 103.307 794.326 103.902 791.617 105.057C788.908 106.212 786.46 107.903 784.421 110.028C780.381 114.458 778.271 120.218 778.271 127.138Z" fill="black"/>
<path d="M865.221 80.038H911.311C922.379 80.0406 932.993 84.4394 940.819 92.2668C948.644 100.094 953.041 110.71 953.041 121.778V174.238H925.521V121.918C925.448 117.495 923.647 113.275 920.504 110.162C917.361 107.049 913.124 105.289 908.701 105.258H892.491V174.258H865.221V80.038Z" fill="black"/>
<path d="M972.901 174.238V80.038H1000.39V174.238H972.901Z" fill="black"/>
<path d="M1000.39 39.4879H972.951V66.9279H1000.39V39.4879Z" fill="black"/>
<path d="M188.921 116.288L126.071 152.578L63.2306 116.298L0.390625 80.0079V142.858L63.2306 179.138L126.071 215.418L188.911 179.138L251.761 142.858V80.0079L188.921 116.288Z" fill="black"/>
<path d="M154.551 0.417969L91.7106 36.698V99.548L154.551 63.258V0.417969Z" fill="black"/>
</g>
<defs>
<clipPath id="clip0_1_1142">
<rect width="1000" height="215" fill="white" transform="translate(0.390625 0.417969)"/>
</clipPath>
</defs>
</svg>
