<?xml version="1.0" encoding="UTF-8"?>
<svg version="1.1" viewBox="0 0 200 71.61" xmlns="http://www.w3.org/2000/svg" xmlns:cc="http://creativecommons.org/ns#" xmlns:dc="http://purl.org/dc/elements/1.1/" xmlns:rdf="http://www.w3.org/1999/02/22-rdf-syntax-ns#">
 <defs>
  <clipPath id="cvfb">
   <path d="m0 432h864v-432h-864v432z"/>
  </clipPath>
  <clipPath id="cvfa">
   <path d="m468.4 240 13.94-12.09-4.368-48.88 2.52-10.08 10.58 6.551-1.51 12.43 49.72 27.21 4.703 8.005-7.56 4.089-23.35 1.847-30.82 19.15-13.86 1.847v-10.08z"/>
  </clipPath>
 </defs>
 <title>CiviCRM logo</title>
 <metadata>
  <rdf:RDF>
   <cc:Work rdf:about="">
    <dc:format>image/svg+xml</dc:format>
    <dc:type rdf:resource="http://purl.org/dc/dcmitype/StillImage"/>
   </cc:Work>
  </rdf:RDF>
 </metadata>
 <g transform="translate(-357.8 -504.7)">
  <g transform="matrix(.7514 0 0 -.7514 144.9 699.6)">
   <g clip-path="url(#cvfb)">
    <g transform="translate(380.5 203)">
     <path d="m0 0v-1.453c0-1.09-0.099-2.157-0.295-3.202-0.197-1.044-0.522-1.975-0.976-2.792-0.455-0.818-1.053-1.476-1.794-1.976-0.742-0.499-1.658-0.749-2.748-0.749-1.089 0-2.005 0.25-2.747 0.749-0.742 0.5-1.339 1.158-1.794 1.976-0.454 0.817-0.779 1.748-0.976 2.792-0.197 1.045-0.295 2.112-0.295 3.202v14.53c0 1.453 0.098 2.725 0.295 3.815 0.197 1.089 0.522 1.998 0.976 2.724 0.455 0.727 1.052 1.272 1.794 1.635s1.658 0.545 2.747 0.545c1.09 0 2.006-0.182 2.748-0.545 0.741-0.363 1.339-0.908 1.794-1.635 0.454-0.726 0.779-1.635 0.976-2.724 0.196-1.09 0.295-2.362 0.295-3.815h5.813c0 1.998-0.22 3.826-0.659 5.483-0.439 1.658-1.124 3.077-2.055 4.258-0.931 1.18-2.134 2.1-3.61 2.758-1.476 0.659-3.243 0.988-5.302 0.988-2.179 0-4.011-0.371-5.494-1.113-1.484-0.741-2.679-1.771-3.588-3.087-0.908-1.317-1.559-2.892-1.952-4.723-0.394-1.832-0.591-3.837-0.591-6.017v-11.6c0-2.18 0.197-4.186 0.591-6.017 0.393-1.832 1.044-3.41 1.952-4.734 0.909-1.325 2.104-2.358 3.588-3.099 1.483-0.742 3.315-1.113 5.494-1.113 2.18 0 4.012 0.363 5.495 1.09 1.483 0.726 2.679 1.703 3.588 2.929 0.908 1.226 1.558 2.656 1.952 4.291s0.591 3.36 0.591 5.177v1.453h-5.813zm32.7-14.53-6.556 20.34c0.956 0.348 1.807 0.924 2.551 1.726 0.319 0.334 0.631 0.739 0.934 1.216 0.304 0.477 0.578 1.029 0.821 1.658s0.436 1.344 0.581 2.147c0.144 0.803 0.216 1.704 0.216 2.704 0 1.635-0.204 3.122-0.613 4.461-0.409 1.34-1.112 2.487-2.111 3.44-0.999 0.954-2.339 1.692-4.019 2.214s-3.792 0.783-6.335 0.783h-7.266v-40.69h5.813v18.89h4.359l6.092-18.89h5.533zm-15.98 36.33h1.453c1.09 0 2.081-0.102 2.974-0.307 0.893-0.204 1.658-0.556 2.294-1.055 0.635-0.5 1.127-1.17 1.475-2.01s0.523-1.896 0.523-3.167c0-1.272-0.175-2.327-0.523-3.168-0.348-0.84-0.84-1.509-1.475-2.009-0.636-0.499-1.401-0.851-2.294-1.056-0.893-0.204-1.884-0.306-2.974-0.306h-1.453v13.08zm36.33-36.33 5.813 32.1v-32.1h5.812v40.69h-8.158l-5.785-31.19-5.786 31.19h-7.88v-40.69h5.812v32.1l5.813-32.1h4.359z" style="fill:#373535"/>
    </g>
    <g transform="translate(303.4 203)">
     <path d="m0 0v-1.453c0-1.09-0.099-2.157-0.295-3.202-0.197-1.044-0.522-1.975-0.976-2.792-0.455-0.818-1.053-1.476-1.794-1.976-0.742-0.499-1.658-0.749-2.748-0.749-1.089 0-2.005 0.25-2.747 0.749-0.742 0.5-1.339 1.158-1.794 1.976-0.454 0.817-0.779 1.748-0.976 2.792-0.197 1.045-0.295 2.112-0.295 3.202v14.53c0 1.453 0.098 2.725 0.295 3.815 0.197 1.089 0.522 1.998 0.976 2.724 0.455 0.727 1.052 1.272 1.794 1.635s1.658 0.545 2.747 0.545c1.09 0 2.006-0.182 2.748-0.545 0.741-0.363 1.339-0.908 1.794-1.635 0.454-0.726 0.779-1.635 0.976-2.724 0.196-1.09 0.295-2.362 0.295-3.815h5.813c0 1.998-0.22 3.826-0.659 5.483-0.439 1.658-1.124 3.077-2.055 4.258-0.931 1.18-2.134 2.1-3.61 2.758-1.476 0.659-3.243 0.988-5.302 0.988-2.179 0-4.011-0.371-5.494-1.113-1.484-0.741-2.679-1.771-3.588-3.087-0.908-1.317-1.559-2.892-1.952-4.723-0.394-1.832-0.591-3.837-0.591-6.017v-11.6c0-2.18 0.197-4.186 0.591-6.017 0.393-1.832 1.044-3.41 1.952-4.734 0.909-1.325 2.104-2.358 3.588-3.099 1.483-0.742 3.315-1.113 5.494-1.113 2.18 0 4.012 0.363 5.495 1.09 1.483 0.726 2.679 1.703 3.588 2.929 0.908 1.226 1.558 2.656 1.952 4.291s0.591 3.36 0.591 5.177v1.453h-5.813zm10.9-14.53h5.813v40.69h-5.813v-40.69zm21.6 8.718-1.323 10.17-4.298 21.8h-5.806l8.347-40.69h6.185l8.711 40.69h-5.805l-4.647-21.72-1.364-10.25zm16.18-8.718h5.813v40.69h-5.813v-40.69z" style="fill:#2a698b"/>
    </g>
    <g transform="translate(470.8 245.6)">
     <path d="m0 0s-9.858 2.099-6.73-7.483l20.6-63.12s3.127-9.583 9.857-2.079l44.21 49.29s6.728 7.503-3.129 9.601l-64.8 13.79z" style="fill:none;stroke-width:6.719;stroke:#2a698b"/>
    </g>
    <g transform="translate(481.2 252.2)">
     <path d="m0 0s-8.887 4.753-8.526-5.319l2.376-66.51s0.359-10.07 8.881-4.693l55.84 35.26s8.523 5.382-0.364 10.14l-58.2 31.13z" style="fill:none;stroke-width:6.719;stroke:#86c661"/>
    </g>
   </g>
   <g clip-path="url(#cvfa)">
    <g transform="translate(470.8 245.6)">
     <path d="m0 0s-9.858 2.098-6.73-7.484l20.6-63.12s3.127-9.583 9.857-2.079l44.21 49.29s6.728 7.503-3.129 9.602l-64.8 13.79z" style="fill:none;stroke-width:6.719;stroke:#2a698b"/>
    </g>
   </g>
  </g>
 </g>
</svg>
