<svg width="169" height="73" viewBox="0 0 169 73" fill="none" xmlns="http://www.w3.org/2000/svg">
<path d="M154.987 13.9515C155.269 13.9515 155.519 13.9253 155.519 13.5927C155.519 13.3149 155.245 13.2821 155.02 13.2821H154.565V13.9515H154.987ZM154.565 15.251H154.191V12.9627H155.059C155.613 12.9627 155.893 13.1552 155.893 13.6212C155.893 14.0347 155.639 14.2075 155.295 14.2447L155.939 15.251H155.512L154.919 14.2731H154.565V15.251ZM154.976 12.3588C154.079 12.3588 153.383 13.0611 153.383 14.0675C153.383 15.0082 153.989 15.7783 154.976 15.7783C155.86 15.7783 156.558 15.0804 156.558 14.0675C156.558 13.0611 155.86 12.3588 154.976 12.3588V12.3588ZM154.976 16.1371C153.786 16.1371 152.939 15.2467 152.939 14.0675C152.939 12.8248 153.88 12.0001 154.976 12.0001C156.059 12.0001 157 12.8248 157 14.0675C157 15.3123 156.059 16.1371 154.976 16.1371ZM153.978 33.1074L157 30.1256V21.0617L147.938 12.0001H117.73L108.666 21.0617V15.0213L105.647 12.0001H93.5615L90.5424 15.0213V21.0617L84.4998 27.1043L78.4573 21.0617V15.0213L75.4382 12.0001H63.353L60.334 15.0213L57.3126 12.0001H45.2296L42.2084 15.0213V27.1043L27.1042 12.0001H15.0212L12 15.0213V57.3127L15.0212 60.334H27.1042L30.1254 57.3127V45.2298L45.2296 60.334H57.3126L60.334 57.3127V33.1446L75.4382 48.2489V57.3127L78.4573 60.334H90.5424L93.5615 57.3127V48.2489L108.666 33.1446V51.2701L117.73 60.334H147.938L157 51.2701V42.2085L153.978 39.1828H138.874V42.2085H126.791V30.1256H138.874V33.1074H153.978Z" fill="#1A5A94"/>
</svg>
