<svg xmlns="http://www.w3.org/2000/svg" viewBox="0 0 602 149"><defs><style>.cls-1{fill:#484848;}.cls-2{fill:#164194;stroke:#fff;stroke-miterlimit:10;}.cls-3{fill:#ffed00;}</style></defs><g id="Layer_1" data-name="Layer 1"><path class="cls-1" d="M262,23.81a11.37,11.37,0,0,1-3.63,7.59,11.88,11.88,0,0,1-8.12,2.67,10.9,10.9,0,0,1-8.8-3.94q-3.32-3.93-3.31-10.54v-3A17.66,17.66,0,0,1,239.7,9a11.54,11.54,0,0,1,4.38-5,12.16,12.16,0,0,1,6.55-1.76A11.19,11.19,0,0,1,258.55,5,11.5,11.5,0,0,1,262,12.61h-4.11a8.86,8.86,0,0,0-2.31-5.38,7,7,0,0,0-5-1.66,7.31,7.31,0,0,0-6.14,2.89c-1.48,1.94-2.22,4.68-2.22,8.25v3a13.73,13.73,0,0,0,2.1,8,6.83,6.83,0,0,0,5.9,3,7.94,7.94,0,0,0,5.23-1.54c1.21-1,2-2.83,2.41-5.38Z"/><path class="cls-1" d="M265.73,21.92a13.55,13.55,0,0,1,1.33-6.09,9.87,9.87,0,0,1,3.7-4.18,10.07,10.07,0,0,1,5.42-1.46,9.71,9.71,0,0,1,7.61,3.25,12.52,12.52,0,0,1,2.91,8.67v.27a13.7,13.7,0,0,1-1.29,6,9.76,9.76,0,0,1-3.69,4.16,10.21,10.21,0,0,1-5.5,1.49,9.67,9.67,0,0,1-7.59-3.26,12.44,12.44,0,0,1-2.9-8.62Zm4,.46a9.9,9.9,0,0,0,1.77,6.16,6,6,0,0,0,9.53,0,10.73,10.73,0,0,0,1.77-6.58,9.85,9.85,0,0,0-1.8-6.15,5.74,5.74,0,0,0-4.78-2.35,5.66,5.66,0,0,0-4.71,2.32Q269.68,18.06,269.69,22.38Z"/><path class="cls-1" d="M294.88,10.61l.13,2.9a8.38,8.38,0,0,1,6.9-3.32q7.29,0,7.36,8.23V33.65h-3.94V18.4a5.24,5.24,0,0,0-1.14-3.68,4.53,4.53,0,0,0-3.48-1.19,5.71,5.71,0,0,0-3.36,1,7,7,0,0,0-2.26,2.68V33.65h-3.93v-23Z"/><path class="cls-1" d="M316.21,33.65v-20h-3.64V10.61h3.64V8.25a7.85,7.85,0,0,1,2-5.73,7.46,7.46,0,0,1,5.6-2,10.38,10.38,0,0,1,2.7.36L326.28,4a11.18,11.18,0,0,0-2.13-.19,3.82,3.82,0,0,0-3,1.12,4.54,4.54,0,0,0-1,3.22v2.43h4.91v3.05h-4.91v20Z"/><path class="cls-1" d="M337.67,34.07A10,10,0,0,1,330.05,31a11.44,11.44,0,0,1-2.94-8.23V22a13.75,13.75,0,0,1,1.31-6.12,10.17,10.17,0,0,1,3.66-4.21,9.17,9.17,0,0,1,5.1-1.52,8.63,8.63,0,0,1,7,3c1.66,2,2.49,4.8,2.49,8.48v1.64h-15.6a8.15,8.15,0,0,0,2,5.5,6.24,6.24,0,0,0,4.84,2.1,6.91,6.91,0,0,0,3.53-.85A8.92,8.92,0,0,0,344,27.75l2.4,1.87A9.66,9.66,0,0,1,337.67,34.07Zm-.49-20.65a5.26,5.26,0,0,0-4,1.74,8.48,8.48,0,0,0-2,4.86h11.54v-.3a7.45,7.45,0,0,0-1.62-4.65A4.93,4.93,0,0,0,337.18,13.42Z"/><path class="cls-1" d="M362.13,14.14a13.11,13.11,0,0,0-1.94-.14,5.19,5.19,0,0,0-5.26,3.3V33.65H351v-23h3.83l.07,2.66a6.12,6.12,0,0,1,5.49-3.08,4,4,0,0,1,1.75.29Z"/><path class="cls-1" d="M374.53,34.07A10.07,10.07,0,0,1,366.91,31,11.44,11.44,0,0,1,364,22.77V22a13.89,13.89,0,0,1,1.31-6.12,10.31,10.31,0,0,1,3.66-4.21,9.17,9.17,0,0,1,5.1-1.52,8.64,8.64,0,0,1,7,3c1.66,2,2.49,4.8,2.49,8.48v1.64H367.91a8.2,8.2,0,0,0,2,5.5,6.26,6.26,0,0,0,4.85,2.1,6.94,6.94,0,0,0,3.53-.85,8.75,8.75,0,0,0,2.53-2.26l2.41,1.87A9.67,9.67,0,0,1,374.53,34.07ZM374,13.42a5.24,5.24,0,0,0-4,1.74A8.41,8.41,0,0,0,368,20h11.54v-.3A7.45,7.45,0,0,0,378,15.07,4.94,4.94,0,0,0,374,13.42Z"/><path class="cls-1" d="M391.58,10.61l.13,2.9a8.38,8.38,0,0,1,6.9-3.32q7.31,0,7.37,8.23V33.65H402V18.4a5.34,5.34,0,0,0-1.14-3.68,4.56,4.56,0,0,0-3.48-1.19,5.72,5.72,0,0,0-3.37,1,6.93,6.93,0,0,0-2.25,2.68V33.65h-3.94v-23Z"/><path class="cls-1" d="M420.69,30.86a5.69,5.69,0,0,0,3.68-1.28,4.53,4.53,0,0,0,1.75-3.19h3.72a7.08,7.08,0,0,1-1.36,3.76A8.92,8.92,0,0,1,425.13,33a9.68,9.68,0,0,1-4.44,1.06,9.49,9.49,0,0,1-7.48-3.14c-1.86-2.09-2.78-5-2.78-8.59v-.66a13.89,13.89,0,0,1,1.23-6,9.47,9.47,0,0,1,3.55-4.07,10.11,10.11,0,0,1,5.46-1.44,9.23,9.23,0,0,1,6.44,2.32,8.25,8.25,0,0,1,2.73,6h-3.72a5.47,5.47,0,0,0-1.69-3.67,5.27,5.27,0,0,0-3.76-1.44A5.51,5.51,0,0,0,416,15.58a10.14,10.14,0,0,0-1.65,6.25v.75A9.92,9.92,0,0,0,416,28.71,5.54,5.54,0,0,0,420.69,30.86Z"/><path class="cls-1" d="M443.52,34.07A10,10,0,0,1,435.9,31,11.44,11.44,0,0,1,433,22.77V22a13.75,13.75,0,0,1,1.31-6.12,10.17,10.17,0,0,1,3.66-4.21,9.17,9.17,0,0,1,5.1-1.52,8.63,8.63,0,0,1,7,3c1.66,2,2.49,4.8,2.49,8.48v1.64H436.9a8.15,8.15,0,0,0,2,5.5,6.24,6.24,0,0,0,4.84,2.1,6.91,6.91,0,0,0,3.53-.85,8.92,8.92,0,0,0,2.54-2.26l2.4,1.87A9.66,9.66,0,0,1,443.52,34.07ZM443,13.42a5.26,5.26,0,0,0-4,1.74A8.48,8.48,0,0,0,437,20h11.54v-.3a7.45,7.45,0,0,0-1.62-4.65A4.93,4.93,0,0,0,443,13.42Z"/><path class="cls-1" d="M237.56,74.92a13.55,13.55,0,0,1,1.33-6.09,9.89,9.89,0,0,1,3.71-4.18A10,10,0,0,1,248,63.19a9.7,9.7,0,0,1,7.61,3.25,12.52,12.52,0,0,1,2.91,8.67v.27a13.7,13.7,0,0,1-1.29,6,9.74,9.74,0,0,1-3.68,4.16,10.23,10.23,0,0,1-5.5,1.49,9.64,9.64,0,0,1-7.59-3.26,12.44,12.44,0,0,1-2.91-8.62Zm4,.46a9.84,9.84,0,0,0,1.78,6.16,6,6,0,0,0,9.53,0,10.79,10.79,0,0,0,1.76-6.58,9.85,9.85,0,0,0-1.8-6.15A5.74,5.74,0,0,0,248,66.42a5.64,5.64,0,0,0-4.7,2.32A10.71,10.71,0,0,0,241.52,75.38Z"/><path class="cls-1" d="M266.72,63.61l.12,2.9a8.38,8.38,0,0,1,6.9-3.32q7.31,0,7.37,8.23V86.65h-3.94V71.4A5.29,5.29,0,0,0,276,67.72a4.54,4.54,0,0,0-3.48-1.19,5.66,5.66,0,0,0-3.36,1,6.87,6.87,0,0,0-2.26,2.68V86.65H263v-23Z"/><path class="cls-1" d="M303.18,58v5.58h4.3v3h-4.3V81a3.24,3.24,0,0,0,.58,2.08,2.41,2.41,0,0,0,2,.69,9.6,9.6,0,0,0,1.87-.26v3.18a11.5,11.5,0,0,1-3,.42,4.88,4.88,0,0,1-4-1.6,6.8,6.8,0,0,1-1.34-4.53V66.66h-4.2v-3h4.2V58Z"/><path class="cls-1" d="M315.24,66.4a8.39,8.39,0,0,1,6.81-3.21q7.31,0,7.37,8.23V86.65h-3.94V71.4a5.24,5.24,0,0,0-1.14-3.68,4.53,4.53,0,0,0-3.48-1.19,5.66,5.66,0,0,0-3.36,1,6.87,6.87,0,0,0-2.26,2.68V86.65H311.3V54h3.94Z"/><path class="cls-1" d="M344.41,87.07A10.07,10.07,0,0,1,336.79,84a11.44,11.44,0,0,1-2.94-8.23V75a13.89,13.89,0,0,1,1.31-6.12,10.17,10.17,0,0,1,3.66-4.21,9.17,9.17,0,0,1,5.1-1.52,8.63,8.63,0,0,1,7,3c1.66,2,2.49,4.8,2.49,8.48v1.64h-15.6a8.15,8.15,0,0,0,2,5.5,6.24,6.24,0,0,0,4.84,2.1,7,7,0,0,0,3.54-.85,8.88,8.88,0,0,0,2.53-2.26l2.4,1.87A9.66,9.66,0,0,1,344.41,87.07Zm-.49-20.65a5.24,5.24,0,0,0-4,1.74,8.34,8.34,0,0,0-2,4.86h11.53v-.3a7.51,7.51,0,0,0-1.61-4.65A5,5,0,0,0,343.92,66.42Z"/><path class="cls-1" d="M387.18,74H374.92V86.65h-6.39v-31h20.18v5.17H374.92v8h12.26Z"/><path class="cls-1" d="M404.66,84.3a7.71,7.71,0,0,1-6.31,2.77,7.27,7.27,0,0,1-5.65-2.13q-1.95-2.13-2-6.24V63.61h6.15v14.9c0,2.4,1.1,3.6,3.28,3.6s3.52-.72,4.3-2.17V63.61h6.18v23h-5.79Z"/><path class="cls-1" d="M422.43,58v5.66h3.94v4.51h-3.94v11.5a2.73,2.73,0,0,0,.49,1.83,2.44,2.44,0,0,0,1.87.55,10.83,10.83,0,0,0,1.81-.14v4.66a12.66,12.66,0,0,1-3.73.55q-6.47,0-6.6-6.53V68.12h-3.36V63.61h3.36V58Z"/><path class="cls-1" d="M443.09,84.3a7.7,7.7,0,0,1-6.3,2.77,7.29,7.29,0,0,1-5.66-2.13q-2-2.13-2-6.24V63.61h6.16v14.9q0,3.6,3.27,3.6t4.3-2.17V63.61h6.18v23h-5.79Z"/><path class="cls-1" d="M466.4,69.38a17.29,17.29,0,0,0-2.21-.17q-3.49,0-4.58,2.36V86.65h-6.15v-23h5.81l.17,2.75a5.7,5.7,0,0,1,5.13-3.17,6.65,6.65,0,0,1,1.92.27Z"/><path class="cls-1" d="M479.51,87.07A11.27,11.27,0,0,1,471.26,84a11,11,0,0,1-3.18-8.28v-.59a13.82,13.82,0,0,1,1.34-6.21,9.87,9.87,0,0,1,3.8-4.22,10.72,10.72,0,0,1,5.61-1.47,9.55,9.55,0,0,1,7.44,3q2.72,3,2.71,8.45v2.51H474.31a5.74,5.74,0,0,0,1.8,3.62,5.43,5.43,0,0,0,3.8,1.36,6.64,6.64,0,0,0,5.56-2.58l3,3.39a9.18,9.18,0,0,1-3.74,3A12.18,12.18,0,0,1,479.51,87.07Zm-.7-18.92a3.84,3.84,0,0,0-3,1.24,6.38,6.38,0,0,0-1.46,3.55h8.56v-.5a4.57,4.57,0,0,0-1.11-3.17A4,4,0,0,0,478.81,68.15Z"/><path class="cls-1" d="M237.56,127.92a13.55,13.55,0,0,1,1.33-6.09,9.89,9.89,0,0,1,3.71-4.18,10,10,0,0,1,5.41-1.46,9.7,9.7,0,0,1,7.61,3.25,12.52,12.52,0,0,1,2.91,8.67v.27a13.7,13.7,0,0,1-1.29,6,9.74,9.74,0,0,1-3.68,4.16,10.23,10.23,0,0,1-5.5,1.49,9.64,9.64,0,0,1-7.59-3.26,12.44,12.44,0,0,1-2.91-8.62Zm4,.46a9.84,9.84,0,0,0,1.78,6.16,6,6,0,0,0,9.53,0,10.79,10.79,0,0,0,1.76-6.58,9.85,9.85,0,0,0-1.8-6.15,5.74,5.74,0,0,0-4.78-2.35,5.64,5.64,0,0,0-4.7,2.32A10.71,10.71,0,0,0,241.52,128.38Z"/><path class="cls-1" d="M264.2,139.65v-20h-3.64v-3h3.64v-2.36a7.85,7.85,0,0,1,2-5.73,7.45,7.45,0,0,1,5.59-2,10.46,10.46,0,0,1,2.71.36l-.21,3.17a11.18,11.18,0,0,0-2.13-.19,3.82,3.82,0,0,0-3,1.12,4.54,4.54,0,0,0-1.05,3.22v2.43h4.92v3h-4.92v20Z"/><path class="cls-1" d="M306.62,126.17H294.36v8.34h14.39v5.14H288v-31h20.73v5.17H294.36v7.39h12.26Z"/><path class="cls-1" d="M325.58,137.3a7.7,7.7,0,0,1-6.3,2.77,7.27,7.27,0,0,1-5.65-2.13q-2-2.13-2-6.24V116.61h6.15v14.9q0,3.6,3.28,3.6c2.08,0,3.52-.72,4.3-2.17V116.61h6.17v23h-5.79Z"/><path class="cls-1" d="M348.9,122.38a17.44,17.44,0,0,0-2.22-.17q-3.49,0-4.57,2.36v15.08H336v-23h5.81l.18,2.75a5.68,5.68,0,0,1,5.13-3.17,6.53,6.53,0,0,1,1.91.27Z"/><path class="cls-1" d="M350.54,127.92a13.62,13.62,0,0,1,1.32-6.11,9.7,9.7,0,0,1,3.8-4.16,11.06,11.06,0,0,1,5.76-1.46A10.5,10.5,0,0,1,369,119a11.43,11.43,0,0,1,3.29,7.75l0,1.57a12,12,0,0,1-3,8.51,11.48,11.48,0,0,1-15.89,0q-3-3.19-3-8.69Zm6.15.43a8.55,8.55,0,0,0,1.24,5,4.43,4.43,0,0,0,7,0q1.26-1.71,1.26-5.49a8.46,8.46,0,0,0-1.26-5,4.07,4.07,0,0,0-3.53-1.77,4,4,0,0,0-3.49,1.75A9.54,9.54,0,0,0,356.69,128.35Z"/><path class="cls-1" d="M396.58,128.34a13.84,13.84,0,0,1-2.42,8.53,7.76,7.76,0,0,1-6.52,3.2,7.2,7.2,0,0,1-5.65-2.43V148.5h-6.15V116.61h5.71l.21,2.26a7.22,7.22,0,0,1,5.83-2.68,7.79,7.79,0,0,1,6.62,3.15q2.37,3.15,2.37,8.68Zm-6.16-.47a9.16,9.16,0,0,0-1.13-5,3.71,3.71,0,0,0-3.31-1.75,4,4,0,0,0-4,2.22v9.46a4.11,4.11,0,0,0,4,2.28C389,135.11,390.42,132.7,390.42,127.87Z"/><path class="cls-1" d="M410.61,140.07a11.27,11.27,0,0,1-8.25-3.11,11,11,0,0,1-3.18-8.28v-.59a14,14,0,0,1,1.34-6.21,9.87,9.87,0,0,1,3.8-4.22,10.72,10.72,0,0,1,5.61-1.47,9.55,9.55,0,0,1,7.44,3q2.72,3,2.71,8.45v2.51H405.42a5.68,5.68,0,0,0,1.79,3.62,5.46,5.46,0,0,0,3.81,1.36,6.62,6.62,0,0,0,5.55-2.58l3,3.39a9.18,9.18,0,0,1-3.74,3.05A12.18,12.18,0,0,1,410.61,140.07Zm-.7-18.92a3.84,3.84,0,0,0-3,1.24,6.38,6.38,0,0,0-1.46,3.55H414v-.5a4.57,4.57,0,0,0-1.11-3.17A4,4,0,0,0,409.91,121.15Z"/><rect class="cls-2" x="1.44" y="9" width="211.62" height="131"/><polygon class="cls-3" points="109.84 18.13 111.63 23.71 117.48 23.69 112.73 27.11 114.56 32.67 109.84 29.21 105.11 32.67 106.95 27.11 102.19 23.69 108.05 23.71 109.84 18.13"/><polygon class="cls-3" points="109.84 114.65 111.63 120.23 117.48 120.2 112.73 123.63 114.56 129.19 109.84 125.72 105.11 129.19 106.95 123.63 102.19 120.2 108.05 120.23 109.84 114.65"/><polygon class="cls-3" points="85.83 24.55 87.62 30.13 93.48 30.11 88.72 33.53 90.56 39.09 85.83 35.63 81.11 39.09 82.94 33.53 78.19 30.11 84.05 30.13 85.83 24.55"/><polygon class="cls-3" points="68.16 42.26 69.94 47.84 75.8 47.81 71.05 51.24 72.88 56.8 68.16 53.34 63.43 56.8 65.27 51.24 60.51 47.81 66.37 47.84 68.16 42.26"/><polygon class="cls-3" points="61.64 66.33 63.43 71.91 69.29 71.88 64.53 75.31 66.37 80.87 61.64 77.41 56.92 80.87 58.75 75.31 54 71.88 59.85 71.91 61.64 66.33"/><polygon class="cls-3" points="68.09 90.41 69.88 95.99 75.74 95.96 70.98 99.39 72.82 104.95 68.09 101.48 63.37 104.95 65.2 99.39 60.45 95.96 66.31 95.99 68.09 90.41"/><polygon class="cls-3" points="85.83 108.11 87.62 113.69 93.48 113.67 88.72 117.09 90.56 122.65 85.83 119.19 81.11 122.65 82.94 117.09 78.19 113.67 84.05 113.69 85.83 108.11"/><polygon class="cls-3" points="133.87 24.55 132.08 30.13 126.22 30.11 130.98 33.53 129.14 39.09 133.87 35.63 138.59 39.09 136.76 33.53 141.51 30.11 135.65 30.13 133.87 24.55"/><polygon class="cls-3" points="151.54 42.26 149.75 47.84 143.9 47.81 148.65 51.24 146.82 56.8 151.54 53.34 156.27 56.8 154.43 51.24 159.19 47.81 153.33 47.84 151.54 42.26"/><polygon class="cls-3" points="158.06 66.33 156.27 71.91 150.41 71.88 155.17 75.31 153.33 80.87 158.06 77.41 162.78 80.87 160.95 75.31 165.7 71.88 159.84 71.91 158.06 66.33"/><polygon class="cls-3" points="151.61 90.41 149.82 95.99 143.96 95.96 148.72 99.39 146.88 104.95 151.61 101.48 156.33 104.95 154.5 99.39 159.25 95.96 153.39 95.99 151.61 90.41"/><polygon class="cls-3" points="133.87 108.11 132.08 113.69 126.22 113.67 130.98 117.09 129.14 122.65 133.87 119.19 138.59 122.65 136.76 117.09 141.51 113.67 135.65 113.69 133.87 108.11"/><path class="cls-1" d="M262,23.81a11.37,11.37,0,0,1-3.63,7.59,11.88,11.88,0,0,1-8.12,2.67,10.9,10.9,0,0,1-8.8-3.94q-3.32-3.93-3.31-10.54v-3A17.66,17.66,0,0,1,239.7,9a11.54,11.54,0,0,1,4.38-5,12.16,12.16,0,0,1,6.55-1.76A11.19,11.19,0,0,1,258.55,5,11.5,11.5,0,0,1,262,12.61h-4.11a8.86,8.86,0,0,0-2.31-5.38,7,7,0,0,0-5-1.66,7.31,7.31,0,0,0-6.14,2.89c-1.48,1.94-2.22,4.68-2.22,8.25v3a13.73,13.73,0,0,0,2.1,8,6.83,6.83,0,0,0,5.9,3,7.94,7.94,0,0,0,5.23-1.54c1.21-1,2-2.83,2.41-5.38Z"/><path class="cls-1" d="M265.73,21.92a13.55,13.55,0,0,1,1.33-6.09,9.87,9.87,0,0,1,3.7-4.18,10.07,10.07,0,0,1,5.42-1.46,9.71,9.71,0,0,1,7.61,3.25,12.52,12.52,0,0,1,2.91,8.67v.27a13.7,13.7,0,0,1-1.29,6,9.76,9.76,0,0,1-3.69,4.16,10.21,10.21,0,0,1-5.5,1.49,9.67,9.67,0,0,1-7.59-3.26,12.44,12.44,0,0,1-2.9-8.62Zm4,.46a9.9,9.9,0,0,0,1.77,6.16,6,6,0,0,0,9.53,0,10.73,10.73,0,0,0,1.77-6.58,9.85,9.85,0,0,0-1.8-6.15,5.74,5.74,0,0,0-4.78-2.35,5.66,5.66,0,0,0-4.71,2.32Q269.68,18.06,269.69,22.38Z"/><path class="cls-1" d="M294.88,10.61l.13,2.9a8.38,8.38,0,0,1,6.9-3.32q7.29,0,7.36,8.23V33.65h-3.94V18.4a5.24,5.24,0,0,0-1.14-3.68,4.53,4.53,0,0,0-3.48-1.19,5.71,5.71,0,0,0-3.36,1,7,7,0,0,0-2.26,2.68V33.65h-3.93v-23Z"/><path class="cls-1" d="M316.21,33.65v-20h-3.64V10.61h3.64V8.25a7.85,7.85,0,0,1,2-5.73,7.46,7.46,0,0,1,5.6-2,10.38,10.38,0,0,1,2.7.36L326.28,4a11.18,11.18,0,0,0-2.13-.19,3.82,3.82,0,0,0-3,1.12,4.54,4.54,0,0,0-1,3.22v2.43h4.91v3.05h-4.91v20Z"/><path class="cls-1" d="M337.67,34.07A10,10,0,0,1,330.05,31a11.44,11.44,0,0,1-2.94-8.23V22a13.75,13.75,0,0,1,1.31-6.12,10.17,10.17,0,0,1,3.66-4.21,9.17,9.17,0,0,1,5.1-1.52,8.63,8.63,0,0,1,7,3c1.66,2,2.49,4.8,2.49,8.48v1.64h-15.6a8.15,8.15,0,0,0,2,5.5,6.24,6.24,0,0,0,4.84,2.1,6.91,6.91,0,0,0,3.53-.85A8.92,8.92,0,0,0,344,27.75l2.4,1.87A9.66,9.66,0,0,1,337.67,34.07Zm-.49-20.65a5.26,5.26,0,0,0-4,1.74,8.48,8.48,0,0,0-2,4.86h11.54v-.3a7.45,7.45,0,0,0-1.62-4.65A4.93,4.93,0,0,0,337.18,13.42Z"/><path class="cls-1" d="M362.13,14.14a13.11,13.11,0,0,0-1.94-.14,5.19,5.19,0,0,0-5.26,3.3V33.65H351v-23h3.83l.07,2.66a6.12,6.12,0,0,1,5.49-3.08,4,4,0,0,1,1.75.29Z"/><path class="cls-1" d="M374.53,34.07A10.07,10.07,0,0,1,366.91,31,11.44,11.44,0,0,1,364,22.77V22a13.89,13.89,0,0,1,1.31-6.12,10.31,10.31,0,0,1,3.66-4.21,9.17,9.17,0,0,1,5.1-1.52,8.64,8.64,0,0,1,7,3c1.66,2,2.49,4.8,2.49,8.48v1.64H367.91a8.2,8.2,0,0,0,2,5.5,6.26,6.26,0,0,0,4.85,2.1,6.94,6.94,0,0,0,3.53-.85,8.75,8.75,0,0,0,2.53-2.26l2.41,1.87A9.67,9.67,0,0,1,374.53,34.07ZM374,13.42a5.24,5.24,0,0,0-4,1.74A8.41,8.41,0,0,0,368,20h11.54v-.3A7.45,7.45,0,0,0,378,15.07,4.94,4.94,0,0,0,374,13.42Z"/><path class="cls-1" d="M391.58,10.61l.13,2.9a8.38,8.38,0,0,1,6.9-3.32q7.31,0,7.37,8.23V33.65H402V18.4a5.34,5.34,0,0,0-1.14-3.68,4.56,4.56,0,0,0-3.48-1.19,5.72,5.72,0,0,0-3.37,1,6.93,6.93,0,0,0-2.25,2.68V33.65h-3.94v-23Z"/><path class="cls-1" d="M420.69,30.86a5.69,5.69,0,0,0,3.68-1.28,4.53,4.53,0,0,0,1.75-3.19h3.72a7.08,7.08,0,0,1-1.36,3.76A8.92,8.92,0,0,1,425.13,33a9.68,9.68,0,0,1-4.44,1.06,9.49,9.49,0,0,1-7.48-3.14c-1.86-2.09-2.78-5-2.78-8.59v-.66a13.89,13.89,0,0,1,1.23-6,9.47,9.47,0,0,1,3.55-4.07,10.11,10.11,0,0,1,5.46-1.44,9.23,9.23,0,0,1,6.44,2.32,8.25,8.25,0,0,1,2.73,6h-3.72a5.47,5.47,0,0,0-1.69-3.67,5.27,5.27,0,0,0-3.76-1.44A5.51,5.51,0,0,0,416,15.58a10.14,10.14,0,0,0-1.65,6.25v.75A9.92,9.92,0,0,0,416,28.71,5.54,5.54,0,0,0,420.69,30.86Z"/><path class="cls-1" d="M443.52,34.07A10.07,10.07,0,0,1,435.89,31,11.48,11.48,0,0,1,433,22.77V22a13.75,13.75,0,0,1,1.31-6.12,10.17,10.17,0,0,1,3.66-4.21,9.17,9.17,0,0,1,5.1-1.52,8.63,8.63,0,0,1,7,3c1.66,2,2.49,4.8,2.49,8.48v1.64H436.9a8.15,8.15,0,0,0,2,5.5,6.24,6.24,0,0,0,4.84,2.1,6.91,6.91,0,0,0,3.53-.85,8.92,8.92,0,0,0,2.54-2.26l2.4,1.87A9.66,9.66,0,0,1,443.52,34.07ZM443,13.42a5.26,5.26,0,0,0-4,1.74A8.48,8.48,0,0,0,437,20h11.54v-.3a7.45,7.45,0,0,0-1.62-4.65A4.93,4.93,0,0,0,443,13.42Z"/><path class="cls-1" d="M237.56,74.92a13.55,13.55,0,0,1,1.33-6.09,9.89,9.89,0,0,1,3.71-4.18A10,10,0,0,1,248,63.19a9.7,9.7,0,0,1,7.61,3.25,12.52,12.52,0,0,1,2.91,8.67v.27a13.7,13.7,0,0,1-1.29,6,9.74,9.74,0,0,1-3.68,4.16,10.23,10.23,0,0,1-5.5,1.49,9.64,9.64,0,0,1-7.59-3.26,12.44,12.44,0,0,1-2.91-8.62Zm4,.46a9.84,9.84,0,0,0,1.78,6.16,6,6,0,0,0,9.53,0,10.79,10.79,0,0,0,1.76-6.58,9.85,9.85,0,0,0-1.8-6.15A5.74,5.74,0,0,0,248,66.42a5.64,5.64,0,0,0-4.7,2.32A10.71,10.71,0,0,0,241.52,75.38Z"/><path class="cls-1" d="M266.72,63.61l.12,2.9a8.38,8.38,0,0,1,6.9-3.32q7.31,0,7.37,8.23V86.65h-3.94V71.4A5.29,5.29,0,0,0,276,67.72a4.54,4.54,0,0,0-3.48-1.19,5.66,5.66,0,0,0-3.36,1,6.87,6.87,0,0,0-2.26,2.68V86.65H263v-23Z"/><path class="cls-1" d="M303.18,58v5.58h4.3v3h-4.3V81a3.24,3.24,0,0,0,.58,2.08,2.41,2.41,0,0,0,2,.69,9.6,9.6,0,0,0,1.87-.26v3.18a11.5,11.5,0,0,1-3,.42,4.88,4.88,0,0,1-4-1.6,6.8,6.8,0,0,1-1.34-4.53V66.66h-4.2v-3h4.2V58Z"/><path class="cls-1" d="M315.24,66.4a8.39,8.39,0,0,1,6.81-3.21q7.31,0,7.37,8.23V86.65h-3.94V71.4a5.24,5.24,0,0,0-1.14-3.68,4.53,4.53,0,0,0-3.48-1.19,5.66,5.66,0,0,0-3.36,1,6.87,6.87,0,0,0-2.26,2.68V86.65H311.3V54h3.94Z"/><path class="cls-1" d="M344.41,87.07A10.07,10.07,0,0,1,336.79,84a11.44,11.44,0,0,1-2.94-8.23V75a13.89,13.89,0,0,1,1.31-6.12,10.17,10.17,0,0,1,3.66-4.21,9.17,9.17,0,0,1,5.1-1.52,8.63,8.63,0,0,1,7,3c1.66,2,2.49,4.8,2.49,8.48v1.64h-15.6a8.15,8.15,0,0,0,2,5.5,6.24,6.24,0,0,0,4.84,2.1,7,7,0,0,0,3.54-.85,8.88,8.88,0,0,0,2.53-2.26l2.4,1.87A9.66,9.66,0,0,1,344.41,87.07Zm-.49-20.65a5.24,5.24,0,0,0-4,1.74,8.34,8.34,0,0,0-2,4.86h11.53v-.3a7.51,7.51,0,0,0-1.61-4.65A5,5,0,0,0,343.92,66.42Z"/><path class="cls-1" d="M387.18,74H374.92V86.65h-6.39v-31h20.18v5.17H374.92v8h12.26Z"/><path class="cls-1" d="M404.66,84.3a7.71,7.71,0,0,1-6.31,2.77,7.27,7.27,0,0,1-5.65-2.13q-1.95-2.13-2-6.24V63.61h6.15v14.9c0,2.4,1.1,3.6,3.28,3.6s3.52-.72,4.3-2.17V63.61h6.18v23h-5.79Z"/><path class="cls-1" d="M422.43,58v5.66h3.94v4.51h-3.94v11.5a2.73,2.73,0,0,0,.49,1.83,2.44,2.44,0,0,0,1.87.55,10.83,10.83,0,0,0,1.81-.14v4.66a12.66,12.66,0,0,1-3.73.55q-6.47,0-6.6-6.53V68.12h-3.36V63.61h3.36V58Z"/><path class="cls-1" d="M443.09,84.3a7.7,7.7,0,0,1-6.3,2.77,7.29,7.29,0,0,1-5.66-2.13q-2-2.13-2-6.24V63.61h6.16v14.9q0,3.6,3.27,3.6t4.3-2.17V63.61h6.18v23h-5.79Z"/><path class="cls-1" d="M466.4,69.38a17.29,17.29,0,0,0-2.21-.17q-3.49,0-4.58,2.36V86.65h-6.15v-23h5.81l.17,2.75a5.7,5.7,0,0,1,5.13-3.17,6.65,6.65,0,0,1,1.92.27Z"/><path class="cls-1" d="M479.51,87.07A11.27,11.27,0,0,1,471.26,84a11,11,0,0,1-3.18-8.28v-.59a13.82,13.82,0,0,1,1.34-6.21,9.87,9.87,0,0,1,3.8-4.22,10.72,10.72,0,0,1,5.61-1.47,9.55,9.55,0,0,1,7.44,3q2.72,3,2.71,8.45v2.51H474.31a5.74,5.74,0,0,0,1.8,3.62,5.43,5.43,0,0,0,3.8,1.36,6.64,6.64,0,0,0,5.56-2.58l3,3.39a9.18,9.18,0,0,1-3.74,3A12.18,12.18,0,0,1,479.51,87.07Zm-.7-18.92a3.84,3.84,0,0,0-3,1.24,6.38,6.38,0,0,0-1.46,3.55h8.56v-.5a4.57,4.57,0,0,0-1.11-3.17A4,4,0,0,0,478.81,68.15Z"/><path class="cls-1" d="M237.56,127.92a13.55,13.55,0,0,1,1.33-6.09,9.89,9.89,0,0,1,3.71-4.18,10,10,0,0,1,5.41-1.46,9.7,9.7,0,0,1,7.61,3.25,12.52,12.52,0,0,1,2.91,8.67v.27a13.7,13.7,0,0,1-1.29,6,9.74,9.74,0,0,1-3.68,4.16,10.23,10.23,0,0,1-5.5,1.49,9.64,9.64,0,0,1-7.59-3.26,12.44,12.44,0,0,1-2.91-8.62Zm4,.46a9.84,9.84,0,0,0,1.78,6.16,6,6,0,0,0,9.53,0,10.79,10.79,0,0,0,1.76-6.58,9.85,9.85,0,0,0-1.8-6.15,5.74,5.74,0,0,0-4.78-2.35,5.64,5.64,0,0,0-4.7,2.32A10.71,10.71,0,0,0,241.52,128.38Z"/><path class="cls-1" d="M264.2,139.65v-20h-3.64v-3h3.64v-2.36a7.85,7.85,0,0,1,2-5.73,7.45,7.45,0,0,1,5.59-2,10.46,10.46,0,0,1,2.71.36l-.21,3.17a11.18,11.18,0,0,0-2.13-.19,3.82,3.82,0,0,0-3,1.12,4.54,4.54,0,0,0-1.05,3.22v2.43h4.92v3h-4.92v20Z"/><path class="cls-1" d="M306.62,126.17H294.36v8.34h14.39v5.14H288v-31h20.73v5.17H294.36v7.39h12.26Z"/><path class="cls-1" d="M325.58,137.3a7.7,7.7,0,0,1-6.3,2.77,7.27,7.27,0,0,1-5.65-2.13q-2-2.13-2-6.24V116.61h6.15v14.9q0,3.6,3.28,3.6c2.08,0,3.52-.72,4.3-2.17V116.61h6.17v23h-5.79Z"/><path class="cls-1" d="M348.9,122.38a17.44,17.44,0,0,0-2.22-.17q-3.49,0-4.57,2.36v15.08H336v-23h5.81l.18,2.75a5.68,5.68,0,0,1,5.13-3.17,6.53,6.53,0,0,1,1.91.27Z"/><path class="cls-1" d="M350.54,127.92a13.62,13.62,0,0,1,1.32-6.11,9.7,9.7,0,0,1,3.8-4.16,11.06,11.06,0,0,1,5.76-1.46A10.5,10.5,0,0,1,369,119a11.43,11.43,0,0,1,3.29,7.75l0,1.57a12.06,12.06,0,0,1-3,8.51,11.48,11.48,0,0,1-15.89,0q-3-3.19-3-8.69Zm6.15.43a8.55,8.55,0,0,0,1.24,5,4.43,4.43,0,0,0,7,0q1.26-1.71,1.26-5.49a8.46,8.46,0,0,0-1.26-5,4.07,4.07,0,0,0-3.53-1.77,4,4,0,0,0-3.49,1.75A9.54,9.54,0,0,0,356.69,128.35Z"/><path class="cls-1" d="M396.58,128.34a13.84,13.84,0,0,1-2.42,8.53,7.76,7.76,0,0,1-6.52,3.2,7.2,7.2,0,0,1-5.65-2.43V148.5h-6.15V116.61h5.71l.21,2.26a7.22,7.22,0,0,1,5.83-2.68,7.79,7.79,0,0,1,6.62,3.15q2.37,3.15,2.37,8.68Zm-6.16-.47a9.16,9.16,0,0,0-1.13-5,3.71,3.71,0,0,0-3.31-1.75,4,4,0,0,0-4,2.22v9.46a4.11,4.11,0,0,0,4,2.28C389,135.11,390.42,132.7,390.42,127.87Z"/><path class="cls-1" d="M410.61,140.07a11.27,11.27,0,0,1-8.25-3.11,11,11,0,0,1-3.18-8.28v-.59a14,14,0,0,1,1.34-6.21,9.87,9.87,0,0,1,3.8-4.22,10.72,10.72,0,0,1,5.61-1.47,9.55,9.55,0,0,1,7.44,3q2.72,3,2.71,8.45v2.51H405.42a5.68,5.68,0,0,0,1.79,3.62,5.46,5.46,0,0,0,3.81,1.36,6.62,6.62,0,0,0,5.55-2.58l3,3.39a9.18,9.18,0,0,1-3.74,3.05A12.18,12.18,0,0,1,410.61,140.07Zm-.7-18.92a3.84,3.84,0,0,0-3,1.24,6.38,6.38,0,0,0-1.46,3.55H414v-.5a4.57,4.57,0,0,0-1.11-3.17A4,4,0,0,0,409.91,121.15Z"/></g></svg>