<svg width="248" height="124" viewBox="0 0 248 124" fill="none" xmlns="http://www.w3.org/2000/svg">
<path d="M210.088 38.8098C210.088 38.8098 209.815 38.8098 209.693 38.8098C208.844 38.8098 208.116 39.0218 207.509 39.4759C206.872 39.93 206.387 40.5052 206.053 41.2621H205.993V39.1731H202.989V51.6764H206.114V44.9555C206.114 44.7436 206.144 44.4106 206.235 44.0473C206.326 43.6537 206.478 43.2904 206.721 42.9271C206.963 42.5639 207.297 42.2611 207.752 41.9886C208.207 41.7162 208.753 41.5951 209.481 41.5951C209.633 41.5951 209.754 41.5951 209.906 41.5951C210.057 41.5951 210.239 41.6556 210.452 41.6859V38.8098C210.452 38.8098 210.239 38.7493 210.088 38.7493V38.8098ZM180.087 51.6764H183.212V41.6556H186.124V39.1429H183.212V37.1145C183.212 36.8117 183.212 36.4787 183.303 36.1457C183.363 35.8127 183.454 35.5099 183.606 35.2375C183.758 34.965 183.97 34.7228 184.243 34.5714C184.516 34.3898 184.88 34.299 185.335 34.299C185.547 34.299 185.79 34.299 185.972 34.3595C186.184 34.3898 186.366 34.4503 186.548 34.4806L186.761 31.8165C186.518 31.7559 186.275 31.6954 186.033 31.6651C185.79 31.6651 185.517 31.6348 185.153 31.6348C184.182 31.6348 183.363 31.7862 182.726 32.0889C182.089 32.3917 181.574 32.8155 181.179 33.3302C180.785 33.8448 180.512 34.4503 180.33 35.1466C180.178 35.8429 180.087 36.5393 180.087 37.2961V39.1429H177.721V41.6556H180.087V51.6764V51.6764ZM131.037 51.5553C131.886 51.8884 132.766 52.0397 133.706 52.0397C134.647 52.0397 135.526 51.8884 136.376 51.5553C137.225 51.2223 137.923 50.7682 138.56 50.193C139.166 49.6178 139.652 48.9215 140.016 48.1041C140.38 47.2867 140.562 46.3784 140.562 45.3794C140.562 44.3803 140.38 43.4721 140.016 42.685C139.652 41.8675 139.166 41.1712 138.56 40.596C137.953 40.0208 137.225 39.5667 136.376 39.264C135.526 38.9612 134.647 38.8098 133.706 38.8098C132.766 38.8098 131.886 38.9612 131.037 39.264C130.187 39.5667 129.49 40.0208 128.853 40.596C128.246 41.1712 127.761 41.8675 127.397 42.685C127.033 43.5024 126.851 44.3803 126.851 45.3794C126.851 46.3784 127.033 47.2867 127.397 48.1041C127.761 48.9215 128.246 49.6178 128.853 50.193C129.459 50.7682 130.187 51.2223 131.037 51.5553V51.5553ZM130.278 43.9262C130.43 43.4418 130.643 43.018 130.946 42.6244C131.249 42.2308 131.613 41.9281 132.068 41.6859C132.523 41.4437 133.069 41.3226 133.676 41.3226C134.283 41.3226 134.859 41.4437 135.284 41.6859C135.739 41.9281 136.103 42.2308 136.406 42.6244C136.709 43.018 136.922 43.4418 137.073 43.9262C137.225 44.4106 137.286 44.895 137.286 45.3794C137.286 45.8638 137.225 46.3482 137.073 46.8325C136.922 47.3169 136.709 47.7408 136.406 48.1343C136.103 48.5279 135.739 48.8307 135.284 49.0728C134.829 49.315 134.283 49.4361 133.676 49.4361C133.069 49.4361 132.493 49.315 132.068 49.0728C131.613 48.8307 131.249 48.5279 130.946 48.1343C130.643 47.7408 130.43 47.3169 130.278 46.8325C130.127 46.3482 130.066 45.8638 130.066 45.3794C130.066 44.895 130.127 44.4106 130.278 43.9262V43.9262ZM121.755 48.6187C120.996 49.0123 120.117 49.1939 119.116 49.1939C118.115 49.1939 117.295 49.0426 116.537 48.7096C115.779 48.3765 115.111 47.9224 114.565 47.3169C114.019 46.7114 113.595 45.9849 113.291 45.1675C112.988 44.3198 112.836 43.4115 112.836 42.4125C112.836 41.4437 112.988 40.5657 113.291 39.7483C113.595 38.9309 114.019 38.2043 114.596 37.5989C115.172 36.9934 115.839 36.509 116.628 36.176C117.417 35.8429 118.297 35.6613 119.237 35.6613C119.995 35.6613 120.754 35.8127 121.542 36.1154C122.331 36.4182 122.968 36.9026 123.453 37.5686L125.971 35.5705C125.607 35.0861 125.152 34.6622 124.636 34.3292C124.121 33.9962 123.544 33.6935 122.968 33.4513C122.361 33.2091 121.755 33.0577 121.118 32.9366C120.481 32.8155 119.844 32.755 119.267 32.755C117.841 32.755 116.507 32.9669 115.293 33.421C114.08 33.8751 113.018 34.5109 112.108 35.3586C111.198 36.2062 110.501 37.2053 109.985 38.386C109.469 39.5667 109.227 40.8988 109.227 42.3822C109.227 43.8657 109.469 45.1372 109.955 46.3482C110.44 47.5289 111.138 48.5582 111.987 49.4361C112.867 50.2838 113.898 50.9801 115.111 51.4342C116.325 51.9186 117.659 52.1608 119.085 52.1608C120.663 52.1608 122.058 51.8884 123.241 51.3131C124.424 50.7379 125.425 49.9508 126.244 48.9215L123.605 47.0747C123.12 47.7105 122.513 48.2252 121.755 48.6187V48.6187ZM152.756 49.7994H152.817V51.6764H155.79V31.9376H152.665V40.7474H152.574C152.422 40.5355 152.21 40.3236 151.967 40.0814C151.725 39.8694 151.421 39.6575 151.088 39.4456C150.754 39.264 150.36 39.0823 149.905 38.9612C149.45 38.8401 148.934 38.7796 148.358 38.7796C147.478 38.7796 146.659 38.9612 145.901 39.2942C145.142 39.6272 144.505 40.1116 143.959 40.6868C143.413 41.2923 142.988 41.9886 142.715 42.7758C142.412 43.5629 142.26 44.4409 142.26 45.3491C142.26 46.2573 142.412 47.1353 142.685 47.9527C142.958 48.7701 143.383 49.4664 143.929 50.0719C144.475 50.6774 145.112 51.1618 145.87 51.4948C146.629 51.8581 147.478 52.0397 148.449 52.0397C149.328 52.0397 150.178 51.8581 150.936 51.4645C151.725 51.071 152.331 50.526 152.756 49.7994V49.7994ZM149.055 49.4361C148.449 49.4361 147.903 49.315 147.448 49.0728C146.993 48.8307 146.629 48.5279 146.325 48.1343C146.022 47.7408 145.81 47.3169 145.658 46.8325C145.506 46.3482 145.446 45.8638 145.446 45.3794C145.446 44.895 145.506 44.4106 145.658 43.9262C145.81 43.4418 146.022 43.018 146.325 42.6244C146.629 42.2308 146.993 41.9281 147.448 41.6859C147.903 41.4437 148.418 41.3226 149.055 41.3226C149.632 41.3226 150.147 41.4437 150.602 41.6859C151.057 41.9281 151.452 42.2308 151.755 42.6244C152.089 43.018 152.331 43.4418 152.483 43.9262C152.635 44.4106 152.726 44.895 152.726 45.3794C152.726 45.8638 152.635 46.3482 152.483 46.8325C152.331 47.3169 152.058 47.7408 151.755 48.1343C151.421 48.5279 151.057 48.8307 150.602 49.0728C150.147 49.315 149.632 49.4361 149.055 49.4361V49.4361ZM169.319 40.5052C168.773 39.93 168.135 39.5061 167.407 39.2337C166.679 38.9612 165.86 38.8098 164.981 38.8098C164.04 38.8098 163.161 38.9612 162.342 39.2942C161.523 39.6272 160.825 40.0814 160.249 40.6566C159.642 41.2318 159.187 41.9584 158.853 42.7758C158.52 43.5932 158.338 44.5317 158.338 45.5307C158.338 46.5298 158.52 47.4683 158.853 48.2857C159.187 49.1031 159.672 49.7692 160.279 50.3444C160.886 50.8893 161.583 51.3434 162.402 51.6462C163.221 51.9489 164.131 52.1003 165.102 52.1003C167.468 52.1003 169.258 51.2526 170.502 49.5875L168.409 47.9224C168.045 48.4371 167.62 48.8306 167.074 49.1031C166.528 49.3756 165.86 49.527 165.072 49.527C164.617 49.527 164.192 49.4361 163.767 49.2848C163.343 49.1334 162.979 48.9215 162.645 48.649C162.311 48.3765 162.038 48.0435 161.856 47.6802C161.644 47.3169 161.553 46.8931 161.492 46.439H171.048C171.048 46.439 171.048 46.1665 171.048 46.0151V45.5913C171.048 44.4711 170.896 43.4721 170.593 42.6244C170.289 41.7767 169.865 41.0804 169.319 40.5052V40.5052ZM161.462 44.1684C161.523 43.2904 161.887 42.5639 162.554 41.9886C163.221 41.4134 164.01 41.141 164.95 41.141C165.466 41.141 165.891 41.2318 166.285 41.3832C166.649 41.5345 166.983 41.7767 167.225 42.0492C167.468 42.3217 167.65 42.6547 167.771 43.018C167.893 43.3813 167.953 43.7748 167.953 44.1684H161.523H161.462ZM196.255 51.5553C197.105 51.2223 197.802 50.7682 198.439 50.193C199.046 49.6178 199.531 48.9215 199.895 48.1041C200.259 47.2867 200.441 46.3784 200.441 45.3794C200.441 44.3803 200.259 43.4721 199.895 42.685C199.531 41.8675 199.046 41.1712 198.439 40.596C197.833 40.0208 197.105 39.5667 196.255 39.264C195.406 38.9612 194.526 38.8098 193.586 38.8098C192.645 38.8098 191.766 38.9612 190.916 39.264C190.067 39.5667 189.369 40.0208 188.732 40.596C188.126 41.1712 187.64 41.8675 187.276 42.685C186.912 43.5024 186.73 44.3803 186.73 45.3794C186.73 46.3784 186.912 47.2867 187.276 48.1041C187.64 48.9215 188.126 49.6178 188.732 50.193C189.339 50.7682 190.067 51.2223 190.916 51.5553C191.766 51.8884 192.645 52.0397 193.586 52.0397C194.526 52.0397 195.406 51.8884 196.255 51.5553V51.5553ZM190.856 48.1343C190.552 47.7408 190.34 47.3169 190.188 46.8325C190.037 46.3482 189.976 45.8638 189.976 45.3794C189.976 44.895 190.037 44.4106 190.188 43.9262C190.34 43.4418 190.552 43.018 190.856 42.6244C191.159 42.2308 191.523 41.9281 191.978 41.6859C192.433 41.4437 192.979 41.3226 193.586 41.3226C194.193 41.3226 194.769 41.4437 195.194 41.6859C195.649 41.9281 196.013 42.2308 196.316 42.6244C196.619 43.018 196.832 43.4418 196.983 43.9262C197.135 44.4106 197.196 44.895 197.196 45.3794C197.196 45.8638 197.135 46.3482 196.983 46.8325C196.832 47.3169 196.619 47.7408 196.316 48.1343C196.013 48.5279 195.649 48.8307 195.194 49.0728C194.739 49.315 194.193 49.4361 193.586 49.4361C192.979 49.4361 192.403 49.315 191.978 49.0728C191.523 48.8307 191.159 48.5279 190.856 48.1343V48.1343ZM144.263 80.9215V72.8079C144.263 71.7786 144.111 70.8401 143.777 69.9622C143.474 69.0842 142.989 68.2971 142.351 67.6613C141.714 66.9953 140.926 66.4806 139.925 66.1173C138.954 65.754 137.801 65.5421 136.467 65.5421C134.95 65.5421 133.524 65.7843 132.22 66.299C130.885 66.7833 129.793 67.4797 128.853 68.3273L130.825 70.6887C131.462 70.053 132.22 69.5383 133.16 69.1447C134.101 68.7512 135.071 68.5393 136.133 68.5393C137.528 68.5393 138.62 68.8723 139.47 69.5383C140.319 70.2044 140.713 71.2337 140.713 72.596V73.1107C139.136 73.1107 137.589 73.1712 136.042 73.2923C134.495 73.4134 133.1 73.7162 131.886 74.14C130.643 74.5639 129.672 75.1996 128.913 76.017C128.155 76.8344 127.791 77.9546 127.791 79.3775C127.791 80.4371 128.003 81.3453 128.428 82.0719C128.853 82.7985 129.399 83.404 130.066 83.8278C130.734 84.2819 131.431 84.5847 132.25 84.7966C133.039 84.9782 133.797 85.0993 134.556 85.0993C135.981 85.0993 137.195 84.8269 138.226 84.2819C139.257 83.737 140.107 82.9499 140.804 81.9811H140.926C140.926 82.859 141.017 83.7673 141.229 84.6452H144.566C144.475 84.1911 144.384 83.6462 144.354 82.9499C144.323 82.2535 144.293 81.5875 144.293 80.982L144.263 80.9215ZM140.744 76.7436C140.744 78.3179 140.289 79.6197 139.348 80.649C138.408 81.6783 137.104 82.193 135.375 82.193C134.92 82.193 134.434 82.1324 134.01 82.0416C133.555 81.9508 133.16 81.7994 132.796 81.5572C132.432 81.315 132.129 81.0123 131.917 80.649C131.704 80.2857 131.583 79.8316 131.583 79.2867C131.583 78.4995 131.856 77.8638 132.372 77.4096C132.887 76.9253 133.555 76.5922 134.343 76.35C135.132 76.1079 136.042 75.9565 137.013 75.8657C137.983 75.7748 138.954 75.7446 139.864 75.7446H140.774V76.7133L140.744 76.7436ZM166.588 68.3576C165.769 67.4797 164.799 66.7833 163.646 66.2687C162.524 65.7843 161.25 65.5118 159.885 65.5118C158.338 65.5118 157.003 65.8448 155.82 66.4806C154.667 67.1164 153.787 67.9338 153.181 68.9328H153.059V66.0265H149.45V93.9697H153.15V81.7994H153.272C153.939 82.8288 154.879 83.6462 156.063 84.2214C157.246 84.7966 158.489 85.0691 159.824 85.0691C161.25 85.0691 162.554 84.8269 163.707 84.3122C164.859 83.7975 165.83 83.1012 166.649 82.2233C167.468 81.3453 168.075 80.2857 168.53 79.105C168.985 77.894 169.197 76.6225 169.197 75.2602C169.197 73.8978 168.985 72.6263 168.53 71.4456C168.075 70.2649 167.468 69.2053 166.619 68.3273L166.588 68.3576ZM164.981 77.8032C164.708 78.6206 164.313 79.3169 163.798 79.9527C163.282 80.5885 162.615 81.0728 161.856 81.4664C161.098 81.86 160.188 82.0416 159.157 82.0416C158.216 82.0416 157.367 81.86 156.578 81.4967C155.82 81.1334 155.152 80.649 154.606 80.0435C154.06 79.438 153.636 78.7114 153.332 77.9243C153.029 77.1069 152.877 76.2592 152.877 75.3813C152.877 74.5033 153.029 73.6556 153.332 72.8382C153.636 72.0208 154.06 71.3245 154.606 70.6887C155.152 70.053 155.82 69.5686 156.578 69.2053C157.337 68.842 158.216 68.6604 159.157 68.6604C160.188 68.6604 161.068 68.842 161.856 69.2053C162.615 69.5686 163.282 70.053 163.798 70.6887C164.313 71.3245 164.708 72.0208 164.981 72.8382C165.254 73.6556 165.375 74.473 165.375 75.351C165.375 76.2289 165.254 77.0464 164.981 77.8638V77.8032ZM119.965 75.9565C119.965 76.7739 119.904 77.5307 119.783 78.2573C119.662 78.9839 119.419 79.5894 119.116 80.1343C118.812 80.6793 118.388 81.1031 117.841 81.4059C117.295 81.7086 116.628 81.86 115.779 81.86C114.747 81.86 113.868 81.527 113.14 80.8912C112.442 80.2252 111.987 79.4078 111.775 78.439L108.165 79.4683C108.59 81.1939 109.469 82.5866 110.804 83.7067C112.139 84.7966 113.868 85.3415 115.991 85.3415C117.599 85.3415 118.934 85.0388 119.965 84.4333C120.996 83.8278 121.815 83.0709 122.392 82.1627C122.968 81.2545 123.362 80.2554 123.575 79.1958C123.787 78.1362 123.878 77.1069 123.878 76.1381V56.9139H119.995V75.9868L119.965 75.9565ZM208.541 67.7824C207.964 67.1164 207.236 66.5714 206.387 66.1476C205.537 65.754 204.476 65.5421 203.293 65.5421C202.625 65.5421 201.958 65.6329 201.321 65.8146C200.684 65.9962 200.108 66.2384 199.592 66.5714C199.076 66.9044 198.591 67.2677 198.197 67.6916C197.802 68.1154 197.469 68.5998 197.226 69.0842H197.105C197.105 68.6906 197.105 68.2062 197.074 67.631C197.074 67.0558 197.014 66.5109 196.953 66.0568H193.465C193.525 66.6622 193.556 67.3586 193.586 68.1457C193.586 68.9328 193.616 69.5686 193.616 70.053V84.6149H197.317V74.7455C197.317 72.8988 197.772 71.4153 198.712 70.2952C199.653 69.175 200.836 68.6301 202.292 68.6301C203.141 68.6301 203.869 68.7815 204.415 69.1145C204.961 69.4172 205.386 69.8411 205.719 70.3557C206.023 70.8704 206.235 71.4759 206.357 72.1419C206.478 72.8079 206.539 73.5345 206.539 74.2914V84.5847H210.239V73.0804C210.239 72.0511 210.088 71.052 209.815 70.1438C209.542 69.2356 209.117 68.4484 208.541 67.7521V67.7824ZM188.459 80.9215V72.8079C188.459 71.7786 188.308 70.8401 187.974 69.9622C187.671 69.0842 187.185 68.2971 186.548 67.6613C185.911 66.9953 185.123 66.4806 184.122 66.1173C183.151 65.754 181.998 65.5421 180.663 65.5421C179.147 65.5421 177.721 65.7843 176.417 66.299C175.082 66.7833 173.99 67.4797 173.05 68.3273L175.021 70.6887C175.658 70.053 176.417 69.5383 177.357 69.1447C178.297 68.7512 179.268 68.5393 180.33 68.5393C181.725 68.5393 182.817 68.8723 183.667 69.5383C184.516 70.2044 184.91 71.2337 184.91 72.596V73.1107C183.333 73.1107 181.786 73.1712 180.239 73.2923C178.692 73.4134 177.296 73.7162 176.083 74.14C174.839 74.5639 173.869 75.1996 173.11 76.017C172.352 76.8344 171.988 77.9546 171.988 79.3775C171.988 80.4371 172.2 81.3453 172.625 82.0719C173.05 82.7985 173.596 83.404 174.263 83.8278C174.93 84.2819 175.628 84.5847 176.447 84.7966C177.236 84.9782 177.994 85.0993 178.752 85.0993C180.178 85.0993 181.392 84.8269 182.423 84.2819C183.454 83.737 184.304 82.9499 185.001 81.9811H185.123C185.123 82.859 185.214 83.7673 185.426 84.6452H188.763C188.672 84.1911 188.581 83.6462 188.55 82.9499C188.52 82.2535 188.49 81.5875 188.49 80.982L188.459 80.9215ZM184.941 76.7436C184.941 78.3179 184.486 79.6197 183.545 80.649C182.605 81.6783 181.301 82.193 179.571 82.193C179.116 82.193 178.631 82.1324 178.206 82.0416C177.751 81.9508 177.357 81.7994 176.993 81.5572C176.629 81.315 176.326 81.0123 176.113 80.649C175.901 80.2857 175.78 79.8316 175.78 79.2867C175.78 78.4995 176.053 77.8638 176.568 77.4096C177.084 76.9253 177.751 76.5922 178.54 76.35C179.329 76.1079 180.239 75.9565 181.21 75.8657C182.18 75.7748 183.151 75.7446 184.061 75.7446H184.971V76.7133L184.941 76.7436Z" fill="black"/>
<path d="M92.1182 47.8354C90.6318 44.3472 88.5084 41.1926 85.8693 38.5537C83.2303 35.9148 80.0755 33.7612 76.5871 32.3053C73.0986 30.819 69.2462 30 65.2118 30C61.1773 30 57.3552 30.819 53.8365 32.3053C50.348 33.7915 47.1933 35.9148 44.5542 38.5537C41.9152 41.1926 39.7614 44.3472 38.3054 47.8354C36.819 51.3236 36 55.1758 36 59.21C36 63.2442 36.819 67.0964 38.3054 70.5846C39.7918 74.0728 41.9152 77.2274 44.5542 79.8663C47.1933 82.5052 50.348 84.6588 53.8365 86.1147C57.3249 87.601 61.1773 88.42 65.2118 88.42C69.2462 88.42 73.0683 87.601 76.5871 86.1147C80.0755 84.6285 83.2303 82.5052 85.8693 79.8663C88.5084 77.2274 90.6621 74.0728 92.1182 70.5846C93.6045 67.0964 94.4235 63.2442 94.4235 59.21C94.4235 55.1758 93.6045 51.3236 92.1182 47.8354V47.8354Z" fill="white"/>
<path d="M92.1182 47.8354C90.6318 44.3472 88.5084 41.1926 85.8693 38.5537C83.2303 35.9148 80.0755 33.7612 76.5871 32.3053C73.0986 30.819 69.2462 30 65.2118 30C61.1773 30 57.3552 30.819 53.8365 32.3053C50.348 33.7915 47.1933 35.9148 44.5542 38.5537C41.9152 41.1926 39.7614 44.3472 38.3054 47.8354C36.819 51.3236 36 55.1758 36 59.21C36 63.2442 36.819 67.0964 38.3054 70.5846C39.7918 74.0728 41.9152 77.2274 44.5542 79.8663C47.1933 82.5052 50.348 84.6588 53.8365 86.1147C57.3249 87.601 61.1773 88.42 65.2118 88.42C69.2462 88.42 73.0683 87.601 76.5871 86.1147C80.0755 84.6285 83.2303 82.5052 85.8693 79.8663C88.5084 77.2274 90.6621 74.0728 92.1182 70.5846C93.6045 67.0964 94.4235 63.2442 94.4235 59.21C94.4235 55.1758 93.6045 51.3236 92.1182 47.8354V47.8354ZM58.8719 44.3775H56.8396C55.7172 44.3775 54.8982 44.7112 54.3522 45.3178C53.8061 45.9548 53.5331 47.3501 53.5331 49.4733V69.2197C53.5331 71.3429 53.8061 72.7382 54.3522 73.3752C54.8982 74.0122 55.7172 74.3155 56.8396 74.3155H58.8719V76.6814H55.1712C53.3815 76.6814 52.0164 76.1658 51.0154 75.1345C50.0447 74.1032 49.5594 72.1316 49.5594 69.2197V66.7627C49.5594 64.9731 49.165 63.5172 48.3763 62.4252C47.5876 61.3029 46.4349 60.7569 44.8879 60.7569V58.0877C46.4349 58.0877 47.5876 57.5417 48.3763 56.4194C49.165 55.3275 49.5594 53.8715 49.5594 52.0819V49.443C49.5594 46.5918 50.0447 44.6505 51.0154 43.5889C51.9861 42.5272 53.3815 41.9813 55.1712 41.9813H58.8719V44.3472V44.3775ZM81.5922 69.25C81.5922 72.1316 81.1069 74.1032 80.1362 75.1648C79.1655 76.1961 77.7701 76.7117 75.9804 76.7117H72.2796V74.3458H74.312C75.404 74.3458 76.2534 74.0425 76.7994 73.4055C77.3454 72.7685 77.6184 71.3732 77.6184 69.25V42.1026H81.5922V69.25Z" fill="#BE003F"/>
</svg>
