<svg width="195" height="40" viewBox="0 0 195 40" fill="none" xmlns="http://www.w3.org/2000/svg">
<g clip-path="url(#clip0_2431_20876)">
<path fill-rule="evenodd" clip-rule="evenodd" d="M31.4384 17.1274C35.8761 17.1274 39.2868 19.1982 39.2868 23.8641V38.2004H35.1163V35.2666H35.039C33.54 37.8822 31.0763 38.5772 28.8591 38.5773C24.6499 38.5773 22.2988 36.1325 22.2988 32.5949L22.2959 32.5919C22.2959 28.8657 24.9319 27.1926 29.046 26.3443L32.875 25.5547C34.5817 25.1983 35.1131 24.5769 35.1131 23.4841C35.1131 21.6019 33.6351 20.5854 31.3227 20.5854C28.574 20.5854 25.5967 22.0348 23.3971 23.917H23.2844V19.9111C25.0297 18.3882 28.0634 17.1274 31.4384 17.1274ZM35.1131 27.381C34.7154 28.0202 33.7864 28.4531 32.5724 28.6976L29.7286 29.281C27.3391 29.7699 26.5049 30.9748 26.5049 32.5183C26.505 34.3239 27.6421 35.4521 29.8237 35.4521C33.0265 35.4521 35.1131 33.0072 35.1131 29.6581V27.381Z" fill="black"/>
<path d="M64.4615 17.1274C66.8124 17.1274 69.7331 17.8815 71.1728 19.4986V23.4134H71.0215C69.8074 21.9464 67.6464 20.5531 64.8027 20.5531C60.6322 20.5532 58.5454 23.5637 58.5454 27.8524C58.5455 32.1412 60.6323 35.1514 64.8027 35.1515C67.6464 35.1515 69.8074 33.7583 71.0215 32.2914H71.1728V36.2061C69.7331 37.8232 66.8124 38.5773 64.4615 38.5773C58.3556 38.5773 54.2236 34.2886 54.2236 27.8524C54.2236 21.4193 58.3556 17.1274 64.4615 17.1274Z" fill="black"/>
<path fill-rule="evenodd" clip-rule="evenodd" d="M82.5858 17.1274C88.6913 17.1274 92.1021 21.2659 92.1021 27.2867V29.1309H77.0471C77.3114 33.1191 79.3417 35.1133 83.3429 35.1133C86.8696 35.1133 89.4846 33.7965 90.6979 32.2914H90.8496V36.2061C89.4104 37.8232 86.0354 38.5772 83.3429 38.5773C76.5929 38.5773 72.6865 34.2501 72.6865 27.8139H72.6894C72.6894 21.4161 76.48 17.1274 82.5858 17.1274ZM82.5858 20.4766C79.0595 20.4767 77.2399 22.3381 77.032 26.0465H88.1604C87.9704 22.341 86.1121 20.4766 82.5858 20.4766Z" fill="black"/>
<path fill-rule="evenodd" clip-rule="evenodd" d="M110.586 17.1274C116.692 17.1274 120.957 21.4162 120.957 27.8139C120.957 34.2118 116.692 38.5772 110.586 38.5773C104.48 38.5773 100.215 34.2501 100.215 27.8139C100.215 21.4161 104.48 17.1274 110.586 17.1274ZM110.586 20.4766C106.754 20.4766 104.537 23.1864 104.537 27.8139C104.537 32.4415 106.754 35.2284 110.586 35.2284C114.418 35.2283 116.636 32.518 116.636 27.8139C116.636 23.1865 114.418 20.4767 110.586 20.4766Z" fill="black"/>
<path fill-rule="evenodd" clip-rule="evenodd" d="M152.733 17.1274C157.17 17.1274 160.581 19.1983 160.581 23.8641V38.2004H156.41V35.2666H156.336C154.838 37.8822 152.374 38.5772 150.157 38.5773C145.948 38.5773 143.596 36.1325 143.596 32.5949L143.594 32.5919C143.594 28.8657 146.23 27.1926 150.344 26.3443L154.173 25.5547C155.88 25.1983 156.41 24.5769 156.41 23.4841C156.41 21.6019 154.933 20.5854 152.62 20.5854C149.871 20.5854 146.895 22.0348 144.695 23.917H144.582V19.9111C146.327 18.3882 149.361 17.1274 152.733 17.1274ZM156.408 27.381C156.01 28.0202 155.081 28.4531 153.867 28.6976L151.024 29.281C148.634 29.7699 147.8 30.9748 147.8 32.5183C147.8 34.3239 148.936 35.4521 151.118 35.4521C154.321 35.4521 156.408 33.0073 156.408 29.6581V27.381Z" fill="black"/>
<path d="M51.4947 17.1304C52.2723 17.1304 53.0678 17.2629 53.8456 17.5633V21.5341H53.6942C52.9165 21.1777 52.0644 20.989 51.0789 20.989C48.0632 20.9891 45.9586 22.7566 45.9586 27.4047V38.2034H41.7881V17.5075L41.7852 17.5044H45.9557V20.836H46.0327C47.416 17.9758 49.4821 17.1304 51.4947 17.1304Z" fill="black"/>
<path fill-rule="evenodd" clip-rule="evenodd" d="M10.7307 10.1284C17.2521 10.1284 20.4758 13.177 20.4758 17.8046C20.4758 20.6471 19.1488 23.1303 15.9253 24.1259V24.2203C19.3567 25.1039 20.8556 27.5517 20.8556 30.3353C20.8556 35.0777 17.7448 38.2001 11.3748 38.2002H0V10.1284H10.7307ZM4.32179 34.6593H11.3006V34.6623C15.0168 34.6622 16.5337 32.7802 16.5337 30.2588C16.5337 27.7373 14.9042 25.8933 11.2621 25.8933H4.32179V34.6593ZM4.32498 22.3585H11.2649C14.8299 22.3585 16.2308 20.4025 16.2308 17.9548C16.2308 15.5069 14.904 13.666 10.9977 13.666H4.32498V22.3585Z" fill="black"/>
<path d="M98.169 38.2002H93.999V10.1284H98.169V38.2002Z" fill="black"/>
<path d="M133.701 17.1274C138.213 17.1274 141.701 19.8934 141.701 25.7816V38.2004H137.53V26.2528C137.53 22.6032 135.577 20.4766 132.504 20.4766C129.433 20.4766 127.176 22.8095 127.176 26.4798V38.2004H123.006V17.5043H127.176V20.4381H127.253C128.713 17.9933 131.178 17.1274 133.701 17.1274Z" fill="black"/>
<path d="M180.862 6.67615C180.655 6.7439 180.503 6.94126 180.44 7.19458C180.643 7.36249 180.874 7.43612 181.09 7.36837C181.299 7.30357 181.444 7.10621 181.51 6.85289C181.465 7.10621 181.518 7.34481 181.685 7.49504C181.848 7.64232 182.091 7.67178 182.344 7.60108C182.391 7.33892 182.337 7.10327 182.171 6.95305C182.005 6.80871 181.768 6.7822 181.512 6.85584C181.765 6.76158 181.937 6.59957 181.981 6.38454C182.032 6.17245 181.934 5.94859 181.744 5.76301C181.495 5.85138 181.314 6.01633 181.266 6.23136C181.221 6.44934 181.32 6.67026 181.506 6.85289C181.307 6.68205 181.07 6.61135 180.86 6.6791M184.43 7.23582C184.522 7.03257 184.472 6.79693 184.323 6.57895C184.062 6.61725 183.855 6.74096 183.762 6.9442C183.67 7.14451 183.718 7.38016 183.869 7.60108C184.13 7.56573 184.341 7.43907 184.433 7.23582M183.866 7.59813C183.706 7.389 183.49 7.26822 183.266 7.29179C183.047 7.31535 182.863 7.47442 182.747 7.71007C182.91 7.9192 183.124 8.03114 183.344 8.01052C183.566 7.9899 183.75 7.83084 183.866 7.59519M179.045 37.8938L165.213 24.1614L179.045 10.4318L192.884 24.1614L179.045 37.8968V37.8938ZM186.671 16.4527C181.865 11.6837 179.072 10.1432 179.064 10.1402L179.045 10.1313L179.025 10.1402C179.025 10.1402 176.149 11.7692 171.28 16.5941C166.475 21.366 164.913 24.1378 164.913 24.1378L164.901 24.1584L164.913 24.1791C164.913 24.1791 166.558 27.0363 171.423 31.8672C176.229 36.6332 179.022 38.1796 179.022 38.1796L179.045 38.1943L179.07 38.1796C179.07 38.1796 181.949 36.5507 186.81 31.7227C191.616 26.9479 193.178 24.1791 193.181 24.1732L193.193 24.1555L193.181 24.1378C193.181 24.1378 191.536 21.2806 186.671 16.4497M163.67 23.5987C163.352 23.5987 163.094 23.8521 163.094 24.1643C163.094 24.4766 163.352 24.7357 163.67 24.7357C163.987 24.7357 164.24 24.4824 164.24 24.1643C164.24 23.8462 163.985 23.5987 163.67 23.5987ZM179.049 38.86C178.731 38.86 178.475 39.1163 178.475 39.4315C178.475 39.7467 178.731 40 179.049 40C179.366 40 179.627 39.7467 179.627 39.4315C179.627 39.1163 179.369 38.86 179.049 38.86ZM194.428 23.5987C194.107 23.5987 193.852 23.8521 193.852 24.1643C193.852 24.4766 194.107 24.7357 194.428 24.7357C194.748 24.7357 195 24.4824 195 24.1643C195 23.8462 194.742 23.5987 194.428 23.5987ZM173.934 5.79247C173.703 5.60395 173.563 5.35357 173.563 5.08257C173.563 4.4964 174.198 4.0251 174.982 4.0251C175.169 4.0251 175.344 4.0516 175.51 4.10168C175.484 4.2195 175.472 4.34027 175.472 4.46399C175.472 4.84986 175.605 5.20924 175.837 5.51264L176.472 4.87638C176.4 4.75266 176.36 4.61127 176.36 4.46399C176.36 3.87781 176.995 3.40651 177.775 3.40651C178.093 3.40651 178.386 3.4831 178.627 3.61565V4.87049H179.511V3.59503C179.74 3.47131 180.022 3.40357 180.328 3.40357C181.109 3.40357 181.744 3.87486 181.744 4.46105C181.744 4.60833 181.702 4.74971 181.628 4.87343L182.263 5.50969C182.492 5.20629 182.625 4.84692 182.625 4.46105C182.625 4.33733 182.614 4.21656 182.587 4.09874C182.747 4.0516 182.928 4.02215 183.115 4.02215C183.899 4.02215 184.534 4.4964 184.534 5.07963C184.534 5.35063 184.395 5.601 184.163 5.78952L184.786 6.41105C185.178 6.06346 185.415 5.59511 185.415 5.07963C185.415 4.01037 184.385 3.1414 183.112 3.1414C182.777 3.1414 182.465 3.20032 182.177 3.3093C181.765 2.83211 181.085 2.51988 180.325 2.51988C179.853 2.51988 179.414 2.64065 179.051 2.8439C178.686 2.64065 178.247 2.51988 177.778 2.51988C177.018 2.51988 176.345 2.83211 175.923 3.3093C175.638 3.20326 175.323 3.1414 174.988 3.1414C173.717 3.1414 172.687 4.00742 172.687 5.07963C172.687 5.59511 172.925 6.06346 173.314 6.41105L173.94 5.78952L173.934 5.79247ZM174.73 8.01346C174.95 8.03114 175.166 7.92215 175.326 7.71301C175.214 7.47736 175.026 7.3183 174.804 7.29473C174.584 7.27117 174.37 7.39194 174.21 7.60108C174.323 7.83673 174.507 7.9958 174.726 8.01641M178.395 6.55539C178.203 6.67026 178.101 6.88824 178.09 7.1504C178.325 7.27411 178.568 7.29474 178.76 7.18575C178.954 7.07676 179.055 6.85584 179.064 6.59368C179.072 6.8529 179.176 7.07676 179.366 7.18575C179.559 7.29474 179.803 7.27411 180.034 7.1504C180.025 6.88824 179.925 6.67026 179.728 6.55539C179.539 6.4464 179.295 6.46407 179.064 6.59073C179.286 6.45229 179.429 6.25493 179.429 6.034C179.429 5.81309 179.286 5.61867 179.064 5.47729C178.838 5.61573 178.695 5.81309 178.695 6.034C178.695 6.25493 178.835 6.45229 179.06 6.59073C178.826 6.46407 178.583 6.44345 178.393 6.55539M179.055 1.9278C179.387 1.9278 179.651 1.6627 179.651 1.33574C179.651 1.00878 179.384 0.740723 179.055 0.740723C178.725 0.740723 178.452 1.00583 178.452 1.33574C178.452 1.66565 178.722 1.9278 179.055 1.9278ZM174.317 6.94126C174.225 6.73801 174.017 6.6143 173.756 6.576C173.605 6.79398 173.554 7.02963 173.646 7.23288C173.738 7.43318 173.949 7.56279 174.21 7.59813C174.355 7.37721 174.406 7.14156 174.314 6.94126M175.899 6.9501C175.733 7.10032 175.685 7.33892 175.727 7.59813C175.98 7.66883 176.225 7.63938 176.389 7.4921C176.555 7.34187 176.609 7.10327 176.558 6.84995C176.626 7.10032 176.769 7.30063 176.985 7.36543C177.194 7.43612 177.43 7.36249 177.63 7.19164C177.57 6.93831 177.425 6.74095 177.208 6.6732C177 6.60545 176.769 6.6732 176.57 6.84405C176.757 6.66437 176.852 6.4405 176.805 6.22548C176.76 6.01045 176.582 5.84549 176.33 5.75712C176.14 5.9427 176.048 6.16361 176.089 6.37865C176.134 6.59367 176.318 6.75863 176.558 6.84995C176.305 6.7763 176.065 6.80281 175.896 6.94715M179.045 8.62025C180.446 8.62025 181.765 8.962 182.88 9.47158L183.374 8.72925C182.112 8.13424 180.636 7.77487 179.055 7.77487C177.472 7.77487 175.997 8.12245 174.72 8.73216L175.216 9.47158C176.335 8.95899 177.66 8.62025 179.043 8.62025M179.254 24.3676H182.073V27.8463H179.254V24.3676ZM178.85 23.964H176.035V20.4912H178.85V23.964ZM178.85 19.092H176.035V14.3112L174.625 15.7074V19.092H171.224L169.814 20.4912H174.625V23.964H166.311L166.11 24.1643L166.309 24.3647H167.582V25.6312L168.989 27.0275V24.3647H170.395V28.4237L171.805 29.8228V24.3617H173.215V31.2162L174.625 32.6123V24.3617H176.033V34.0086L177.44 35.4077V24.3617H178.847V36.804L179.049 37.0013L179.25 36.804V29.2337H182.07V34.0145L183.477 32.6123V29.2337H186.879L188.286 27.8404H183.477V24.3617H191.785L191.994 24.1555L191.795 23.9582H190.521V22.6944L189.111 21.2982V23.9611H187.705V19.8991L186.295 18.5028V23.9611H184.885V17.1066L183.477 15.7074V23.9582H182.07V14.3112L180.66 12.915V23.9582H179.25V11.5158L179.055 11.3155L178.85 11.5187V19.0861V19.092Z" fill="black"/>
</g>
<defs>
<clipPath id="clip0_2431_20876">
<rect width="195" height="40" fill="white"/>
</clipPath>
</defs>
</svg>
