<?xml version="1.0" encoding="UTF-8"?>
<svg id="Ebene_1" data-name="Ebene 1" xmlns="http://www.w3.org/2000/svg" xmlns:xlink="http://www.w3.org/1999/xlink" viewBox="0 0 130.39 68.03">
  <defs>
    <style>
      .cls-1, .cls-2 {
        fill: none;
      }

      .cls-3 {
        clip-path: url(#clippath);
      }

      .cls-4 {
        fill: #00b5e5;
      }

      .cls-5 {
        fill: #fff;
      }

      .cls-6, .cls-7 {
        fill: #551285;
      }

      .cls-7 {
        isolation: isolate;
        opacity: .6;
      }

      .cls-2 {
        stroke: #551285;
        stroke-width: 1.24px;
      }
    </style>
    <clipPath id="clippath">
      <rect class="cls-1" width="130.39" height="68.03"/>
    </clipPath>
  </defs>
  <polygon class="cls-5" points="18 16.77 13.49 16.77 13.49 21.28 8.98 21.28 8.98 25.5 13.49 25.5 13.49 30.16 18 30.16 18 25.5 22.51 25.5 22.51 21.28 18 21.28 18 16.77"/>
  <polygon class="cls-7" points="22.51 27.31 22.51 25.5 18 25.5 18 30.16 19.81 30.16 19.81 33.76 26.12 33.76 26.12 27.31 22.51 27.31"/>
  <polygon class="cls-7" points="8.98 19.48 8.98 21.28 13.49 21.28 13.49 16.77 11.69 16.77 11.69 13.16 5.37 13.16 5.37 19.48 8.98 19.48"/>
  <polygon class="cls-7" points="8.98 25.5 8.98 21.28 5.37 21.28 5.37 19.48 .86 19.48 .86 27.31 5.37 27.31 5.37 25.5 8.98 25.5"/>
  <polygon class="cls-7" points="26.12 19.48 26.12 21.28 22.51 21.28 22.51 25.5 26.12 25.5 26.12 27.31 30.63 27.31 30.63 19.48 26.12 19.48"/>
  <polygon class="cls-7" points="19.81 16.77 18 16.77 18 21.28 22.51 21.28 22.51 19.48 26.12 19.48 26.12 13.16 19.81 13.16 19.81 16.77"/>
  <polygon class="cls-7" points="11.69 30.16 13.49 30.16 13.49 25.5 8.98 25.5 8.98 27.31 5.37 27.31 5.37 33.76 11.69 33.76 11.69 30.16"/>
  <polygon class="cls-7" points="13.49 16.77 18 16.77 18 13.16 19.81 13.16 19.81 8.65 11.69 8.65 11.69 13.16 13.49 13.16 13.49 16.77"/>
  <polygon class="cls-7" points="18 30.16 13.49 30.16 13.49 33.76 11.69 33.76 11.69 38.28 19.81 38.28 19.81 33.76 18 33.76 18 30.16"/>
  <polygon class="cls-6" points="8.98 19.48 5.37 19.48 5.37 21.28 8.98 21.28 8.98 19.48"/>
  <polygon class="cls-6" points="22.51 21.28 26.12 21.28 26.12 19.48 22.51 19.48 22.51 21.28"/>
  <polygon class="cls-6" points="8.98 25.5 5.37 25.5 5.37 27.31 8.98 27.31 8.98 25.5"/>
  <polygon class="cls-6" points="22.51 27.31 26.12 27.31 26.12 25.5 22.51 25.5 22.51 27.31"/>
  <polygon class="cls-6" points="11.69 16.77 13.49 16.77 13.49 13.16 11.69 13.16 11.69 16.77"/>
  <polygon class="cls-6" points="18 16.77 19.81 16.77 19.81 13.16 18 13.16 18 16.77"/>
  <polygon class="cls-6" points="13.49 30.16 11.69 30.16 11.69 33.77 13.49 33.77 13.49 30.16"/>
  <polygon class="cls-6" points="19.81 30.16 18 30.16 18 33.77 19.81 33.77 19.81 30.16"/>
  <g class="cls-3">
    <line class="cls-2" x1="42.54" y1="1.56" x2="42.54" y2="45.43"/>
  </g>
  <polygon class="cls-4" points="129.54 16.95 129.54 15.11 125.6 15.11 125.6 16.95 129.54 16.95"/>
  <path class="cls-6" d="M64.52,18.18h-5.28l5.14-7.38v-1.47h-7.71v1.88h5l-5.14,7.38v1.47h7.98v-1.88h0Zm9.06,1.88V11.86h-2.23v3.86c0,.97-.14,1.66-.42,2.08s-.73,.63-1.36,.63c-.46,0-.8-.15-1.01-.44-.21-.3-.32-.74-.32-1.33v-4.79h-2.24v5.35c0,.97,.24,1.71,.73,2.23,.49,.52,1.22,.77,2.18,.77,.56,0,1.06-.1,1.5-.31s.78-.5,1.02-.88h.12l.3,1.05h1.73v-.02Zm4.47-4.46l.12-1.86v-5.1h-2.24v11.42h2.24v-2.55l.96-.77,2.36,3.32h2.58l-3.46-4.65,3.26-3.56h-2.52l-2.3,2.5-.98,1.25h-.02Zm14.73,4.46V11.86h-2.24v3.86c0,.97-.14,1.66-.42,2.08s-.73,.63-1.36,.63c-.46,0-.79-.15-1.01-.44-.21-.3-.32-.74-.32-1.33v-4.79h-2.24v5.35c0,.97,.24,1.71,.73,2.23,.49,.52,1.22,.77,2.18,.77,.56,0,1.06-.1,1.5-.31s.78-.5,1.02-.88h.12l.3,1.05h1.74v-.02Zm9.92-5.35c0-.97-.25-1.72-.74-2.23-.49-.52-1.22-.77-2.17-.77-.56,0-1.06,.1-1.49,.3-.44,.2-.78,.5-1.03,.9h-.12l-.3-1.05h-1.71v8.2h2.24v-3.86c0-.97,.14-1.66,.42-2.08s.73-.63,1.36-.63c.46,0,.79,.15,1.01,.44,.21,.3,.32,.74,.32,1.33v4.79h2.24v-5.34h-.03Zm6.84-2.85h-1.94v-.51c0-.29,.07-.53,.21-.72,.14-.19,.37-.28,.69-.28,.38,0,.8,.07,1.25,.21l.57-1.64c-.6-.23-1.29-.34-2.06-.34-1.01,0-1.75,.22-2.21,.65-.46,.43-.69,1.11-.69,2.05v.6l-1.23,.6v1.08h1.23v6.52h2.24v-6.52h1.94v-1.7h0Zm4.79,6.34c-.18-.15-.27-.39-.27-.7v-3.96h2.3v-1.68h-2.3v-1.75h-1.43l-.65,1.73-1.23,.75v.95h1.07v3.96c0,.91,.2,1.58,.61,2.04,.41,.45,1.06,.68,1.96,.68,.81,0,1.5-.12,2.05-.37v-1.67c-.55,.17-1.02,.26-1.41,.26-.29-.02-.52-.09-.7-.24h0Zm9.58-1.63c-.14-.29-.36-.55-.66-.78-.3-.23-.77-.47-1.41-.73-.72-.29-1.18-.51-1.4-.65-.21-.15-.32-.32-.32-.52,0-.36,.33-.54,.99-.54,.37,0,.74,.06,1.09,.17,.36,.11,.74,.26,1.15,.43l.68-1.61c-.93-.43-1.89-.65-2.88-.65-1.04,0-1.84,.2-2.4,.6-.57,.4-.85,.96-.85,1.69,0,.43,.07,.78,.2,1.08,.14,.29,.35,.55,.65,.77,.3,.23,.76,.47,1.39,.73,.44,.19,.79,.35,1.06,.49,.26,.14,.45,.26,.56,.37s.16,.25,.16,.43c0,.47-.41,.7-1.22,.7-.4,0-.85-.07-1.38-.2-.52-.13-.99-.3-1.41-.49v1.85c.37,.16,.76,.28,1.18,.36s.93,.12,1.53,.12c1.16,0,2.04-.22,2.62-.66s.88-1.08,.88-1.92c.01-.39-.06-.74-.21-1.04h0Z"/>
  <path class="cls-6" d="M62.95,37.32c.59-.73,.88-1.76,.88-3.08s-.29-2.34-.87-3.07c-.58-.73-1.4-1.09-2.47-1.09-.54,0-1.02,.1-1.43,.29-.42,.2-.78,.51-1.09,.95h-.06l-.17-1.1h-.99v11.65h1.22v-3.31c0-.42-.03-.87-.09-1.34h.09c.29,.4,.66,.7,1.09,.89s.91,.29,1.43,.29c1.05,.02,1.87-.34,2.46-1.08h0Zm-.97-5.4c.39,.54,.59,1.31,.59,2.31s-.2,1.76-.59,2.33c-.39,.56-.94,.84-1.63,.84-.83,0-1.44-.24-1.81-.73-.38-.49-.57-1.3-.57-2.43v-.27c0-.99,.2-1.72,.57-2.17,.37-.45,.96-.68,1.78-.68,.71,0,1.27,.27,1.66,.8h0Zm6.27-1.41c-.42,.28-.78,.69-1.08,1.21h-.06l-.14-1.49h-1.01v8.04h1.22v-4.32c0-.79,.23-1.45,.69-1.97,.46-.53,1.02-.79,1.67-.79,.25,0,.55,.04,.88,.11l.17-1.13c-.28-.06-.6-.09-.96-.09-.5,0-.96,.15-1.38,.43h0Zm9.65,.7c-.66-.75-1.56-1.12-2.68-1.12s-2.07,.37-2.73,1.1-.98,1.75-.98,3.06c0,.85,.15,1.59,.45,2.22,.3,.63,.73,1.12,1.29,1.45,.56,.34,1.2,.51,1.92,.51,1.16,0,2.08-.37,2.74-1.1,.66-.74,.99-1.76,.99-3.07,0-1.29-.34-2.3-1-3.05h0Zm-4.53,.7c.41-.52,1.01-.79,1.81-.79s1.42,.27,1.83,.8,.62,1.31,.62,2.33-.21,1.82-.62,2.35c-.41,.54-1.02,.8-1.82,.8s-1.4-.27-1.81-.81c-.41-.54-.62-1.32-.62-2.35s.21-1.81,.61-2.33h0Zm12.8,5.42h-4.44l4.33-6.15v-.95h-5.45v.95h4.12l-4.39,6.27v.83h5.83v-.95h0Zm6.67,.97c.38-.08,.79-.21,1.22-.4v-1.09c-.85,.36-1.7,.54-2.57,.54-.82,0-1.46-.24-1.91-.73-.45-.49-.69-1.21-.72-2.15h5.54v-.77c0-1.09-.29-1.96-.88-2.62s-1.38-.99-2.39-.99c-1.08,0-1.93,.38-2.57,1.14s-.96,1.79-.96,3.09,.34,2.29,1.03,3.02c.69,.72,1.63,1.09,2.81,1.09,.56-.01,1.02-.05,1.4-.13h0Zm-.25-6.58c.34,.41,.51,1,.51,1.76h-4.21c.07-.74,.29-1.33,.68-1.75,.38-.42,.9-.63,1.54-.63,.65,.01,1.14,.21,1.48,.62h0Zm8.58,3.03c-.34-.35-.98-.7-1.93-1.05-.69-.26-1.16-.46-1.41-.59-.24-.14-.42-.28-.53-.43s-.17-.34-.17-.55c0-.32,.15-.57,.44-.75s.73-.27,1.31-.27c.66,0,1.39,.17,2.19,.5l.43-.99c-.83-.35-1.67-.53-2.54-.53-.93,0-1.66,.19-2.19,.57s-.8,.9-.8,1.55c0,.37,.08,.68,.23,.95,.15,.26,.39,.5,.7,.71,.32,.21,.85,.45,1.6,.73,.79,.3,1.32,.57,1.59,.79s.41,.49,.41,.8c0,.42-.17,.73-.51,.93-.34,.2-.83,.3-1.47,.3-.41,0-.84-.06-1.28-.17-.44-.11-.86-.27-1.24-.46v1.13c.6,.34,1.43,.51,2.5,.51,1.01,0,1.79-.2,2.35-.61s.84-.98,.84-1.73c0-.54-.18-.98-.52-1.34h0Zm7.17,0c-.34-.35-.98-.7-1.93-1.05-.69-.26-1.16-.46-1.41-.59-.24-.14-.42-.28-.53-.43s-.16-.34-.16-.55c0-.32,.15-.57,.44-.75s.73-.27,1.31-.27c.66,0,1.39,.17,2.19,.5l.43-.99c-.83-.35-1.67-.53-2.54-.53-.93,0-1.66,.19-2.19,.57s-.8,.9-.8,1.55c0,.37,.08,.68,.23,.95,.15,.26,.39,.5,.7,.71,.32,.21,.85,.45,1.6,.73,.79,.3,1.32,.57,1.59,.79s.41,.49,.41,.8c0,.42-.17,.73-.51,.93-.34,.2-.83,.3-1.47,.3-.41,0-.84-.06-1.28-.17-.44-.11-.86-.27-1.24-.46v1.13c.6,.34,1.43,.51,2.49,.51s1.79-.2,2.35-.61,.84-.98,.84-1.73c0-.54-.18-.98-.52-1.34h0Z"/>
</svg>