<svg width="195" height="48" viewBox="0 0 195 48" fill="none" xmlns="http://www.w3.org/2000/svg">
<g clip-path="url(#clip0_1365_68715)">
<path d="M69.0559 38.0804H73.7414L81.1097 17.5029H75.9839L71.3786 32.1197L66.7733 17.5029H61.6875L69.0559 38.0804Z" fill="#0D4752"/>
<path d="M90.5731 38.4075C96.6998 38.4075 101.105 33.9166 101.105 27.7922C101.105 21.6679 96.6998 17.1768 90.5731 17.1768C84.4461 17.1768 80.041 21.6679 80.041 27.7922C80.041 33.9166 84.4461 38.4075 90.5731 38.4075ZM90.5731 33.9572C87.2891 33.9572 85.1268 31.4667 85.1268 27.7922C85.1268 24.1176 87.2891 21.6271 90.5731 21.6271C93.8168 21.6271 96.0192 24.1176 96.0192 27.7922C96.0192 31.4667 93.8168 33.9572 90.5731 33.9572Z" fill="#0D4752"/>
<path d="M112.756 38.4075C117.841 38.4075 121.485 35.7945 122.247 31.4667L117.321 30.446C116.84 32.6506 115.279 33.9572 112.916 33.9572C109.792 33.9572 107.75 31.5485 107.75 27.7922C107.75 24.036 109.792 21.6271 112.916 21.6271C115.279 21.6271 116.96 23.0969 117.321 25.2608L122.247 24.2809C121.566 19.9123 117.922 17.1768 112.756 17.1768C106.709 17.1768 102.504 21.5046 102.504 27.7922C102.504 34.0798 106.709 38.4075 112.756 38.4075Z" fill="#0D4752"/>
<path d="M132.96 38.407C135.484 38.407 137.726 37.3454 138.727 35.7125V38.0803H143.773V9.17383H138.727V19.7893C137.566 18.2378 135.403 17.1762 132.881 17.1762C126.914 17.1762 123.35 21.5041 123.35 27.7917C123.35 34.0793 126.914 38.407 132.96 38.407ZM133.682 33.9566C130.478 33.9566 128.356 31.5071 128.356 27.7917C128.356 24.0762 130.478 21.6265 133.682 21.6265C136.925 21.6265 139.047 24.0762 139.047 27.7917C139.047 31.5071 136.925 33.9566 133.682 33.9566Z" fill="#0D4752"/>
<path d="M155.925 38.4075C162.052 38.4075 166.457 33.9166 166.457 27.7922C166.457 21.6679 162.052 17.1768 155.925 17.1768C149.798 17.1768 145.393 21.6679 145.393 27.7922C145.393 33.9166 149.798 38.4075 155.925 38.4075ZM155.925 33.9572C152.641 33.9572 150.478 31.4667 150.478 27.7922C150.478 24.1176 152.641 21.6271 155.925 21.6271C159.168 21.6271 161.371 24.1176 161.371 27.7922C161.371 31.4667 159.168 33.9572 155.925 33.9572Z" fill="#0D4752"/>
<path d="M168.047 38.0808H173.093V29.0579C173.093 24.4442 174.895 21.7495 177.978 21.7495C180.341 21.7495 181.823 23.4235 181.823 25.8324V38.0808H186.868V24.6076C186.868 20.1164 183.905 17.1768 179.5 17.1768C176.657 17.1768 174.374 18.6058 173.093 20.6063V17.5034H168.047V38.0808Z" fill="#0D4752"/>
<path d="M189.541 38.0804H194.587V17.5029H189.541V38.0804Z" fill="#0D4752"/>
<path d="M191.978 15.3642C193.641 15.3642 194.989 13.9898 194.989 12.2944C194.989 10.599 193.641 9.22461 191.978 9.22461C190.315 9.22461 188.967 10.599 188.967 12.2944C188.967 13.9898 190.315 15.3642 191.978 15.3642Z" fill="#0D4752"/>
<path d="M0 20.266V31.8915C0 32.4304 0.278055 32.9296 0.731995 33.2055L24.2899 47.5278C24.7634 47.8158 25.3535 47.8158 25.8269 47.5278L49.3848 33.2055C49.8389 32.9296 50.1168 32.4304 50.1168 31.8915V20.266C50.1168 19.8215 49.6427 19.5459 49.2675 19.7723L25.823 33.9274C25.3515 34.212 24.7653 34.212 24.2938 33.9274L0.849393 19.7723C0.474307 19.5459 0 19.8215 0 20.266Z" fill="url(#paint0_linear_1365_68715)"/>
<path d="M15.8398 1.01206V12.6836C15.8398 13.2229 16.1184 13.7224 16.573 13.9982L28.8441 21.4428C29.2192 21.6703 29.6945 21.3947 29.6945 20.9498V9.32483C29.6945 8.78695 29.4175 8.28858 28.9648 8.01229L16.6916 0.51987C16.3165 0.290914 15.8398 0.56638 15.8398 1.01206Z" fill="url(#paint1_linear_1365_68715)"/>
</g>
<defs>
<linearGradient id="paint0_linear_1365_68715" x1="25.0584" y1="19.2595" x2="25.0584" y2="47.9951" gradientUnits="userSpaceOnUse">
<stop stop-color="#A3EC93"/>
<stop offset="1" stop-color="#46C4C2"/>
</linearGradient>
<linearGradient id="paint1_linear_1365_68715" x1="22.7672" y1="-8.80697e-05" x2="22.7672" y2="21.9587" gradientUnits="userSpaceOnUse">
<stop stop-color="#A3EC93"/>
<stop offset="1" stop-color="#46C4C2"/>
</linearGradient>
<clipPath id="clip0_1365_68715">
<rect width="195" height="48" fill="white"/>
</clipPath>
</defs>
</svg>
