<?xml version="1.0" encoding="UTF-8"?>
<svg width="899px" height="293px" viewBox="0 0 899 293" version="1.1" xmlns="http://www.w3.org/2000/svg" xmlns:xlink="http://www.w3.org/1999/xlink">
    <title>Icon/cl@ve</title>
    <g id="Mi-sede" stroke="none" stroke-width="1" fill="none" fill-rule="evenodd">
        <g id="Group" fill-rule="nonzero">
            <g>
                <path d="M88.2995256,190.457097 C86.1600527,193.769004 83.6037793,196.691573 80.6307054,199.224806 C74.8990318,204.108527 68.3153527,206.550388 60.879668,206.550388 C47.2475795,206.550388 36.5587828,201.485788 28.813278,191.356589 C21.2226833,181.589147 17.4273859,169.470284 17.4273859,155 C17.4273859,140.529716 21.2226833,128.410853 28.813278,118.643411 C32.3762102,113.940568 36.7524205,110.232558 41.9419087,107.51938 C47.131397,104.806202 53.4439834,103.449612 60.879668,103.449612 C68.3153527,103.449612 74.8990318,105.891473 80.6307054,110.775194 C83.499249,113.219361 85.9797855,116.435344 88.0723148,119.604392 C88.0887951,119.629351 88.1137215,119.666104 88.1470941,119.714651 L93.9718233,119.713489 L103.185038,119.713489 L108.56066,119.713489 C108.541136,119.665429 108.526088,119.629064 108.515516,119.604392 C104.751877,110.820908 99.407147,103.446317 92.4813278,97.4806202 C82.5670816,89.1602067 70.7939142,85 57.1618257,85 C40.1217151,85 26.2572614,91.7829457 15.5684647,105.348837 C5.18948824,118.552972 -1.42108547e-14,135.103359 -1.42108547e-14,155 C-1.42108547e-14,174.896641 5.18948824,191.447028 15.5684647,204.651163 C26.2572614,218.217054 40.1217151,225 57.1618257,225 C70.7939142,225 82.5670816,220.839793 92.4813278,212.51938 C99.47139,206.498346 104.850895,199.348436 108.619841,190.457097 L88.2995256,190.457097 Z M213.001072,222.875706 L213.001072,37 L193.118971,37 L193.118971,222.875706 L213.001072,222.875706 Z M662.240086,222.875706 L713.933548,90.1073446 L692.195784,90.1073446 L650.57592,201.632768 L608.690961,90.1073446 L586.953198,90.1073446 L638.911754,222.875706 L662.240086,222.875706 Z M838.237406,206.943503 C825.904073,206.943503 815.737406,202.87194 807.737406,194.728814 C799.904073,186.762712 795.32074,176.672316 793.987406,164.457627 L898.737406,164.457627 L898.737406,156.491525 C898.737406,136.841808 893.237406,120.644068 882.237406,107.898305 C870.57074,94.6214689 855.404073,87.9830508 836.737406,87.9830508 C818.07074,87.9830508 802.904073,94.6214689 791.237406,107.898305 C780.237406,120.644068 774.737406,136.841808 774.737406,156.491525 C774.737406,175.964218 780.487406,192.161959 791.987406,205.084746 C803.82074,218.361582 819.154073,225 837.987406,225 M793.737406,145.870056 C795.404073,134.186441 799.904073,124.715631 807.237406,117.457627 C815.07074,109.845574 824.737406,106.039548 836.237406,106.039548 C847.737406,106.039548 857.404073,109.845574 865.237406,117.457627 C872.57074,124.715631 877.07074,134.186441 878.737406,145.870056 L793.737406,145.870056 Z" id="clve" fill="#575757"></path>
                <g id="clave" transform="translate(267.224366, 0.000000)" fill="#FF5A00">
                    <path d="M146.5,0 C226.600619,0 291.686662,64.2850375 292.980373,144.077355 L293,146.5 L270.80303,146.5 C270.80303,77.849332 215.150668,22.1969697 146.5,22.1969697 C77.849332,22.1969697 22.1969697,77.849332 22.1969697,146.5 C22.1969697,214.464161 76.74185,269.688683 144.444422,270.786377 L146.5,270.80303 L146.5,293 C65.5902842,293 0,227.409716 0,146.5 C0,65.5902842 65.5902842,0 146.5,0 Z M142.060606,77.6893939 C162.561588,77.6893939 180.898789,87.2624499 193.114137,102.318555 L193.113636,95.4469697 L215.310606,95.4469697 L215.310606,197.55303 L193.113636,197.55303 L193.113929,190.681702 C180.89858,205.737659 162.561471,215.310606 142.060606,215.310606 C105.283462,215.310606 75.469697,184.503048 75.469697,146.5 C75.469697,108.496952 105.283462,77.6893939 142.060606,77.6893939 Z M142.060606,126.522727 C134.705177,126.522727 128.742424,132.48548 128.742424,139.840909 C128.742424,144.655855 131.297558,148.874018 135.125868,151.213438 L135.401467,151.377327 L135.401515,166.477273 L140.950758,173.136364 L145.390152,173.136364 L145.390152,166.477273 L146.5,166.477273 L146.5,164.257576 L145.390152,164.257576 L145.390152,160.92803 L147.609848,160.92803 L147.610039,151.951395 C152.194787,149.847065 155.378788,145.215819 155.378788,139.840909 C155.378788,132.48548 149.416035,126.522727 142.060606,126.522727 Z M142.060606,137.621212 C143.286511,137.621212 144.280303,138.615004 144.280303,139.840909 C144.280303,141.066814 143.286511,142.060606 142.060606,142.060606 C140.834701,142.060606 139.840909,141.066814 139.840909,139.840909 C139.840909,138.615004 140.834701,137.621212 142.060606,137.621212 Z" id="Combined-Shape"></path>
                </g>
            </g>
        </g>
    </g>
</svg>