<svg width="169" height="49" viewBox="0 0 169 49" fill="none" xmlns="http://www.w3.org/2000/svg">
<path d="M73.2962 25.3675H77.0355C77.0864 25.3657 77.1372 25.3745 77.1846 25.3932C77.2319 25.412 77.2749 25.4403 77.3108 25.4764C77.3467 25.5126 77.3748 25.5558 77.3932 25.6032C77.4116 25.6507 77.42 25.7015 77.4179 25.7524V47.3602C77.42 47.411 77.4116 47.4617 77.3932 47.5091C77.3747 47.5564 77.3467 47.5994 77.3107 47.6354C77.2748 47.6713 77.2317 47.6994 77.1844 47.7179C77.137 47.7363 77.0863 47.7447 77.0355 47.7426H73.2962C73.2453 47.7447 73.1945 47.7363 73.147 47.7179C73.0995 47.6994 73.0563 47.6714 73.0202 47.6355C72.984 47.5996 72.9557 47.5566 72.937 47.5092C72.9182 47.4619 72.9095 47.4111 72.9113 47.3602V46.3049C72.9113 46.1775 72.817 46.1443 72.7201 46.2412C72.296 46.8105 71.7398 47.2681 71.0994 47.5745C70.4591 47.8809 69.7538 48.0269 69.0445 48C66.0392 48 63.8037 46.2157 62.8759 43.3328C62.494 42.0802 62.3108 40.7754 62.333 39.466C62.3051 38.122 62.4997 36.7827 62.9091 35.5023C63.8343 32.8794 65.9449 31.0594 69.1413 31.0594C70.7701 31.0594 71.9223 31.6661 72.7099 32.6576C72.8068 32.7851 72.9011 32.7214 72.9011 32.5914V25.7448C72.8999 25.6934 72.9094 25.6423 72.9291 25.5948C72.9488 25.5473 72.9782 25.5044 73.0153 25.4689C73.0525 25.4334 73.0967 25.4061 73.1451 25.3886C73.1934 25.3712 73.2449 25.364 73.2962 25.3675ZM72.8807 39.5297C72.8807 38.1227 72.6564 37.0037 72.1772 36.1727C71.9669 35.7903 71.6565 35.4723 71.2793 35.2527C70.9022 35.0332 70.4724 34.9203 70.036 34.9262C69.5794 34.9045 69.1256 35.0094 68.7248 35.2294C68.324 35.4493 67.9918 35.7758 67.7649 36.1727C67.2551 36.9705 66.967 38.1227 66.967 39.5603C66.9381 40.6635 67.1677 41.7581 67.6374 42.7567C67.8682 43.1803 68.2109 43.5323 68.628 43.7746C69.0451 44.0169 69.5206 44.14 70.0029 44.1306C70.9944 44.1306 71.7285 43.6208 72.2409 42.7567C72.6462 41.9895 72.8807 40.8399 72.8807 39.5297Z" fill="#FF3333"/>
<path d="M94.7128 40.5519C94.7112 40.6044 94.6991 40.6561 94.6772 40.704C94.6553 40.7518 94.6242 40.7948 94.5855 40.8304C94.5468 40.866 94.5013 40.8935 94.4519 40.9113C94.4024 40.9292 94.3499 40.9369 94.2973 40.9342H84.42C84.3231 40.9342 84.2594 40.9979 84.2926 41.0948C84.3526 41.5334 84.4709 41.962 84.6443 42.3693C85.1541 43.4552 86.1737 44.1536 88.0319 44.1536C88.6623 44.1582 89.2844 44.0104 89.8454 43.7228C90.4064 43.4352 90.8896 43.0163 91.2538 42.5018C91.4119 42.2775 91.5725 42.2469 91.7636 42.4381L94.0577 44.7067C94.1003 44.7369 94.1355 44.7762 94.1609 44.8218C94.1862 44.8675 94.201 44.9182 94.2042 44.9702C94.2074 45.0223 94.1989 45.0745 94.1793 45.1228C94.1596 45.1712 94.1294 45.2145 94.0909 45.2496C92.6507 47.0339 90.2852 48.0306 87.6011 48C83.9561 48 81.4326 46.1775 80.3442 43.2691C79.8707 42.0247 79.643 40.7002 79.6738 39.3691C79.6288 38.2203 79.7911 37.0728 80.153 35.9815C81.1114 32.9763 83.7012 31.0263 87.0888 31.0263C91.468 31.0263 94.0246 33.8302 94.5701 37.8346C94.6987 38.7343 94.7465 39.6437 94.7128 40.5519ZM84.4837 36.8125C84.3864 37.147 84.3114 37.4876 84.2594 37.8321C84.2579 37.8536 84.261 37.8751 84.2686 37.8953C84.2761 37.9155 84.2879 37.9338 84.3031 37.949C84.3183 37.9642 84.3366 37.976 84.3568 37.9835C84.377 37.9911 84.3985 37.9942 84.42 37.9927H89.9488C90.0456 37.9927 90.1093 37.929 90.0788 37.8321C90.0125 37.4803 89.9819 37.1923 89.9182 36.9374C89.5333 35.6629 88.5749 34.9237 87.1372 34.9237C85.7633 34.9212 84.8992 35.5966 84.4837 36.8125Z" fill="#FF3333"/>
<path d="M96.8615 43.2054C96.476 41.9859 96.2926 40.7116 96.3186 39.4329C96.2912 38.175 96.4747 36.9213 96.8615 35.7241C97.8811 32.8488 100.537 31.0594 103.958 31.0594C107.473 31.0594 110.19 33.04 111.021 35.566C111.163 35.9344 111.249 36.3219 111.276 36.7156C111.286 36.7645 111.285 36.8149 111.274 36.8634C111.263 36.912 111.241 36.9575 111.211 36.997C111.18 37.0364 111.142 37.0688 111.097 37.092C111.053 37.1151 111.005 37.1285 110.955 37.1311L107.279 37.6741C107.229 37.6855 107.176 37.6861 107.125 37.6759C107.074 37.6657 107.026 37.6449 106.984 37.6149C106.941 37.5848 106.906 37.5462 106.88 37.5015C106.853 37.4568 106.837 37.407 106.831 37.3554L106.736 36.8456C106.448 35.7904 105.393 34.9288 103.932 34.9288C102.559 34.9288 101.6 35.6629 101.218 36.8456C100.955 37.6941 100.836 38.5807 100.866 39.4685C100.838 40.3531 100.945 41.2368 101.185 42.0889C101.342 42.6911 101.7 43.2216 102.199 43.5924C102.699 43.9633 103.311 44.1523 103.932 44.1281C104.549 44.1501 105.156 43.968 105.659 43.6099C106.162 43.2518 106.532 42.7377 106.713 42.1475C106.74 42.0876 106.752 42.0219 106.747 41.9564C106.758 41.9433 106.767 41.928 106.772 41.9113C106.778 41.8945 106.779 41.8769 106.777 41.8595C106.782 41.8094 106.798 41.761 106.823 41.7174C106.849 41.6738 106.883 41.6361 106.924 41.6067C106.965 41.5774 107.012 41.557 107.061 41.5469C107.11 41.5369 107.161 41.5375 107.21 41.5485L110.881 42.1169C110.931 42.12 110.979 42.1336 111.023 42.1569C111.067 42.1802 111.105 42.2126 111.135 42.252C111.165 42.2914 111.187 42.3368 111.198 42.3852C111.209 42.4336 111.21 42.4838 111.2 42.5324C111.162 42.8356 111.098 43.1349 111.008 43.4271C110.083 46.3049 107.269 48 103.945 48C100.53 48 97.9092 46.1367 96.8615 43.2054Z" fill="#FF3333"/>
<path d="M113.027 26.9352C113.027 26.2652 113.293 25.6227 113.767 25.149C114.241 24.6753 114.883 24.4091 115.553 24.4091C116.223 24.4091 116.866 24.6753 117.339 25.149C117.813 25.6227 118.079 26.2652 118.079 26.9352C118.079 27.6051 117.813 28.2476 117.339 28.7214C116.866 29.1951 116.223 29.4612 115.553 29.4612C114.883 29.4612 114.241 29.1951 113.767 28.7214C113.293 28.2476 113.027 27.6051 113.027 26.9352ZM113.252 47.3602V31.6661C113.249 31.615 113.258 31.564 113.276 31.5163C113.295 31.4686 113.323 31.4253 113.359 31.3891C113.396 31.3529 113.439 31.3247 113.487 31.3061C113.534 31.2875 113.585 31.279 113.636 31.2812H117.376C117.427 31.2794 117.477 31.2881 117.525 31.3069C117.572 31.3256 117.615 31.3539 117.651 31.3901C117.687 31.4262 117.715 31.4694 117.733 31.5169C117.752 31.5644 117.76 31.6152 117.758 31.6661V47.3602C117.76 47.411 117.752 47.4617 117.733 47.5091C117.715 47.5564 117.687 47.5995 117.651 47.6354C117.615 47.6713 117.572 47.6994 117.525 47.7179C117.477 47.7363 117.427 47.7447 117.376 47.7426H113.636C113.586 47.7447 113.535 47.7363 113.487 47.7179C113.44 47.6995 113.397 47.6714 113.36 47.6355C113.324 47.5996 113.296 47.5566 113.277 47.5092C113.259 47.4619 113.25 47.4111 113.252 47.3602Z" fill="#FF3333"/>
<path d="M131.087 25.3675H134.842C134.892 25.3657 134.943 25.3745 134.991 25.3932C135.038 25.412 135.081 25.4403 135.117 25.4764C135.153 25.5126 135.181 25.5558 135.199 25.6032C135.218 25.6507 135.226 25.7015 135.224 25.7524V47.3602C135.226 47.411 135.218 47.4617 135.199 47.5091C135.181 47.5564 135.153 47.5994 135.117 47.6354C135.081 47.6713 135.038 47.6994 134.99 47.7179C134.943 47.7363 134.892 47.7447 134.842 47.7426H131.087C131.036 47.7447 130.985 47.7363 130.938 47.7179C130.891 47.6994 130.848 47.6713 130.812 47.6354C130.776 47.5994 130.748 47.5564 130.729 47.5091C130.711 47.4617 130.702 47.411 130.705 47.3602V46.3049C130.705 46.1775 130.608 46.1443 130.513 46.2412C130.089 46.8105 129.533 47.2681 128.893 47.5745C128.252 47.8809 127.547 48.0269 126.838 48C123.832 48 121.594 46.2157 120.667 43.3328C120.286 42.0799 120.103 40.7753 120.124 39.466C120.097 38.1221 120.292 36.783 120.7 35.5023C121.628 32.8794 123.736 31.0594 126.932 31.0594C128.563 31.0594 129.713 31.6661 130.501 32.6576C130.595 32.7851 130.692 32.7214 130.692 32.5914V25.7448C130.691 25.6934 130.7 25.6423 130.72 25.5948C130.739 25.5473 130.769 25.5044 130.806 25.4689C130.843 25.4334 130.887 25.4061 130.936 25.3886C130.984 25.3712 131.036 25.364 131.087 25.3675ZM130.671 39.5297C130.671 38.1227 130.45 37.0037 129.968 36.1727C129.758 35.7899 129.448 35.4716 129.07 35.252C128.693 35.0324 128.263 34.9198 127.827 34.9262C127.37 34.9044 126.917 35.0093 126.516 35.2293C126.116 35.4493 125.784 35.7758 125.558 36.1727C125.048 36.9705 124.76 38.1227 124.76 39.5603C124.731 40.6635 124.961 41.7581 125.431 42.7567C125.661 43.1803 126.004 43.5323 126.421 43.7746C126.838 44.0169 127.314 44.14 127.796 44.1306C128.788 44.1306 129.522 43.6208 130.034 42.7567C130.45 41.9895 130.671 40.8399 130.671 39.5297Z" fill="#FF3333"/>
<path d="M137.737 26.9352C137.726 26.5969 137.784 26.2598 137.906 25.9441C138.028 25.6284 138.212 25.3405 138.448 25.0973C138.683 24.8542 138.965 24.6609 139.277 24.5289C139.588 24.3969 139.923 24.3289 140.262 24.3289C140.6 24.3289 140.935 24.3969 141.247 24.5289C141.559 24.6609 141.841 24.8542 142.076 25.0973C142.312 25.3405 142.496 25.6284 142.618 25.9441C142.74 26.2598 142.797 26.5969 142.787 26.9352C142.797 27.2735 142.74 27.6105 142.618 27.9262C142.496 28.2419 142.312 28.5299 142.076 28.773C141.841 29.0161 141.559 29.2094 141.247 29.3414C140.935 29.4734 140.6 29.5414 140.262 29.5414C139.923 29.5414 139.588 29.4734 139.277 29.3414C138.965 29.2094 138.683 29.0161 138.448 28.773C138.212 28.5299 138.028 28.2419 137.906 27.9262C137.784 27.6105 137.726 27.2735 137.737 26.9352ZM137.961 47.3602V31.6661C137.959 31.6152 137.968 31.5644 137.986 31.5169C138.005 31.4694 138.033 31.4262 138.068 31.3901C138.104 31.3539 138.147 31.3256 138.195 31.3069C138.242 31.2881 138.293 31.2794 138.344 31.2812H142.083C142.134 31.279 142.185 31.2875 142.233 31.3061C142.281 31.3247 142.324 31.3529 142.36 31.3891C142.396 31.4253 142.425 31.4686 142.443 31.5163C142.462 31.564 142.47 31.615 142.468 31.6661V47.3602C142.47 47.4111 142.461 47.4619 142.442 47.5092C142.424 47.5566 142.395 47.5996 142.359 47.6355C142.323 47.6714 142.28 47.6995 142.232 47.7179C142.185 47.7363 142.134 47.7447 142.083 47.7426H138.344C138.293 47.7447 138.242 47.7363 138.195 47.7179C138.148 47.6994 138.105 47.6713 138.069 47.6354C138.033 47.5994 138.005 47.5564 137.986 47.5091C137.968 47.4617 137.959 47.411 137.961 47.3602Z" fill="#FF3333"/>
<path d="M168.743 36.7794V47.3602C168.745 47.4111 168.736 47.4619 168.717 47.5092C168.699 47.5566 168.67 47.5996 168.634 47.6355C168.598 47.6714 168.555 47.6995 168.507 47.7179C168.46 47.7363 168.409 47.7447 168.358 47.7426H164.619C164.568 47.7447 164.517 47.7363 164.47 47.7179C164.422 47.6995 164.379 47.6714 164.343 47.6355C164.307 47.5996 164.278 47.5566 164.26 47.5092C164.241 47.4619 164.232 47.4111 164.234 47.3602V37.7709C164.234 36.0453 163.275 34.9263 161.774 34.9263C160.273 34.9263 159.248 36.0121 159.248 37.7301V47.3602C159.25 47.411 159.242 47.4617 159.223 47.5091C159.205 47.5564 159.177 47.5994 159.141 47.6354C159.105 47.6713 159.062 47.6994 159.015 47.7179C158.967 47.7363 158.916 47.7447 158.866 47.7426H155.157C155.106 47.7447 155.055 47.7363 155.008 47.7179C154.961 47.6994 154.918 47.6713 154.882 47.6354C154.846 47.5994 154.818 47.5564 154.799 47.5091C154.781 47.4617 154.772 47.411 154.775 47.3602V37.7709C154.775 36.0453 153.755 34.9263 152.249 34.9263C150.875 34.9263 149.916 35.7878 149.722 37.2203V47.3602C149.725 47.411 149.716 47.4617 149.698 47.5091C149.679 47.5564 149.651 47.5994 149.615 47.6354C149.579 47.6713 149.536 47.6994 149.489 47.7179C149.442 47.7363 149.391 47.7447 149.34 47.7426H145.601C145.55 47.7447 145.499 47.7363 145.452 47.7179C145.404 47.6995 145.361 47.6714 145.325 47.6355C145.289 47.5996 145.26 47.5566 145.242 47.5092C145.223 47.4619 145.214 47.4111 145.216 47.3602V31.6967C145.214 31.6458 145.223 31.595 145.242 31.5477C145.26 31.5003 145.289 31.4573 145.325 31.4214C145.361 31.3855 145.404 31.3574 145.452 31.339C145.499 31.3206 145.55 31.3122 145.601 31.3143H149.34C149.391 31.3122 149.442 31.3206 149.489 31.339C149.536 31.3575 149.579 31.3856 149.615 31.4215C149.651 31.4575 149.679 31.5005 149.698 31.5478C149.716 31.5952 149.725 31.6459 149.722 31.6967V32.9431C149.722 33.0731 149.819 33.1369 149.916 33.0094C150.811 31.6661 152.21 31.0594 153.974 31.0594C156.115 31.0594 157.747 32.0179 158.608 33.6467C158.675 33.7741 158.738 33.7741 158.833 33.6467C159.791 31.8624 161.486 31.0594 163.436 31.0594C166.76 31.0594 168.743 33.1674 168.743 36.7794Z" fill="#FF3333"/>
<path d="M6.31044e-06 19.7521C-0.00133349 18.6696 0.210684 17.5974 0.62394 16.5969C1.0372 15.5964 1.64359 14.6871 2.40845 13.921C3.17331 13.155 4.08165 12.5472 5.08154 12.1324C6.08143 11.7176 7.15327 11.5039 8.23579 11.5036H14.8275C15.264 11.5043 15.6824 11.678 15.9911 11.9866C16.2997 12.2953 16.4734 12.7137 16.4741 13.1502V46.0959C16.4741 46.3121 16.4315 46.5263 16.3488 46.726C16.266 46.9258 16.1447 47.1073 15.9918 47.2603C15.8389 47.4132 15.6574 47.5345 15.4576 47.6172C15.2578 47.7 15.0437 47.7425 14.8275 47.7425H8.23579C6.05217 47.7419 3.95815 46.8743 2.41386 45.3305C0.869569 43.7867 0.00135745 41.6929 6.31044e-06 39.5093V19.7521Z" fill="#FF3333"/>
<path d="M34.5949 0H21.4141C20.5046 0 19.7674 0.737229 19.7674 1.64665V46.0959C19.7674 47.0053 20.5046 47.7426 21.4141 47.7426H34.5949C35.5043 47.7426 36.2415 47.0053 36.2415 46.0959V1.64665C36.2415 0.737229 35.5043 0 34.5949 0Z" fill="#FF3333"/>
<path d="M57.6556 39.5093C57.6551 41.1381 57.1716 42.7302 56.2663 44.0842C55.3611 45.4382 54.0746 46.4934 52.5697 47.1164C51.0648 47.7393 49.4089 47.9021 47.8115 47.584C46.2141 47.2659 44.7468 46.4813 43.5953 45.3294C42.4438 44.1776 41.6596 42.7101 41.3421 41.1126C41.0245 39.515 41.1877 37.8592 41.8112 36.3545C42.4346 34.8497 43.4902 33.5636 44.8445 32.6588C46.1988 31.754 47.791 31.271 49.4198 31.271C51.6043 31.2717 53.6991 32.1399 55.2435 33.6848C56.7879 35.2298 57.6556 37.3248 57.6556 39.5093Z" fill="#FF3333"/>
</svg>
