<?xml version="1.0" encoding="UTF-8" standalone="no"?>
<!-- Created with Inkscape (http://www.inkscape.org/) -->

<svg
   xmlns:dc="http://purl.org/dc/elements/1.1/"
   xmlns:cc="http://creativecommons.org/ns#"
   xmlns:rdf="http://www.w3.org/1999/02/22-rdf-syntax-ns#"
   xmlns:svg="http://www.w3.org/2000/svg"
   xmlns="http://www.w3.org/2000/svg"
   xmlns:sodipodi="http://sodipodi.sourceforge.net/DTD/sodipodi-0.dtd"
   xmlns:inkscape="http://www.inkscape.org/namespaces/inkscape"
   width="182.38301mm"
   height="47.911446mm"
   viewBox="0 0 646.23901 169.76496"
   id="svg4075"
   version="1.1"
   inkscape:version="0.91 r13725"
   sodipodi:docname="logo-clar.svg">
  <defs
     id="defs4077">
    <clipPath
       clipPathUnits="userSpaceOnUse"
       id="clipPath3421">
      <path
         d="m 0,0 1920,0 0,1080 L 0,1080 0,0 Z"
         id="path3423"
         inkscape:connector-curvature="0" />
    </clipPath>
    <clipPath
       clipPathUnits="userSpaceOnUse"
       id="clipPath3405">
      <path
         d="m 0,0 1920,0 0,1080 L 0,1080 0,0 Z"
         id="path3407"
         inkscape:connector-curvature="0" />
    </clipPath>
    <clipPath
       clipPathUnits="userSpaceOnUse"
       id="clipPath3369">
      <path
         d="m 0,0 1920,0 0,1080 L 0,1080 0,0 Z"
         id="path3371"
         inkscape:connector-curvature="0" />
    </clipPath>
    <clipPath
       clipPathUnits="userSpaceOnUse"
       id="clipPath3369-3">
      <path
         d="m 0,0 1920,0 0,1080 L 0,1080 0,0 Z"
         id="path3371-6"
         inkscape:connector-curvature="0" />
    </clipPath>
    <clipPath
       clipPathUnits="userSpaceOnUse"
       id="clipPath3405-7">
      <path
         d="m 0,0 1920,0 0,1080 L 0,1080 0,0 Z"
         id="path3407-5"
         inkscape:connector-curvature="0" />
    </clipPath>
    <clipPath
       clipPathUnits="userSpaceOnUse"
       id="clipPath3421-3">
      <path
         d="m 0,0 1920,0 0,1080 L 0,1080 0,0 Z"
         id="path3423-5"
         inkscape:connector-curvature="0" />
    </clipPath>
  </defs>
  <sodipodi:namedview
     id="base"
     pagecolor="#ffffff"
     bordercolor="#666666"
     borderopacity="1.0"
     inkscape:pageopacity="0.0"
     inkscape:pageshadow="2"
     inkscape:zoom="0.35"
     inkscape:cx="-116.19507"
     inkscape:cy="-59.40325"
     inkscape:document-units="px"
     inkscape:current-layer="layer1"
     showgrid="false"
     inkscape:window-width="1375"
     inkscape:window-height="876"
     inkscape:window-x="65"
     inkscape:window-y="24"
     inkscape:window-maximized="1"
     borderlayer="false"
     fit-margin-top="0"
     fit-margin-left="0"
     fit-margin-right="0"
     fit-margin-bottom="0" />
  <metadata
     id="metadata4080">
    <rdf:RDF>
      <cc:Work
         rdf:about="">
        <dc:format>image/svg+xml</dc:format>
        <dc:type
           rdf:resource="http://purl.org/dc/dcmitype/StillImage" />
        <dc:title></dc:title>
      </cc:Work>
    </rdf:RDF>
  </metadata>
  <g
     inkscape:label="Capa 1"
     inkscape:groupmode="layer"
     id="layer1"
     transform="translate(-54.052211,-294.62256)">
    <g
       id="g3373"
       transform="matrix(0.48729349,0,0,-0.48729349,228.25267,378.6458)">
      <path
         d="m 0,0 c -97.278,0.945 -175.966,77.614 -176.919,172.428 l -3.631,0 C -181.519,77.614 -260.183,0.945 -357.477,0 l 0,-3.526 c 97.294,-0.945 175.958,-77.615 176.927,-172.429 l 3.623,0 C -175.966,-81.141 -97.286,-4.467 0,-3.522 L 0,0 Z"
         style="fill:#9fc7bc;fill-opacity:1;fill-rule:nonzero;stroke:none"
         id="path3375"
         inkscape:connector-curvature="0" />
    </g>
    <g
       id="g3377"
       transform="matrix(0.48729349,0,0,-0.48729349,228.25267,378.6458)">
      <path
         d="M 0,0 C -0.961,94.812 -79.633,171.48 -176.919,172.428 -175.966,77.614 -97.278,0.945 0,0"
         style="fill:#314e6d;fill-opacity:1;fill-rule:nonzero;stroke:none"
         id="path3379"
         inkscape:connector-curvature="0" />
    </g>
    <g
       id="g3381"
       transform="matrix(0.48729349,0,0,-0.48729349,228.25267,380.36224)">
      <path
         d="M 0,0 C -97.286,-0.945 -175.966,-77.618 -176.927,-172.432 -79.633,-171.488 -0.961,-94.818 0,0"
         style="fill:#314e6d;fill-opacity:1;fill-rule:nonzero;stroke:none"
         id="path3383"
         inkscape:connector-curvature="0" />
    </g>
    <g
       id="g3385"
       transform="matrix(0.48729349,0,0,-0.48729349,54.052211,294.62256)">
      <path
         d="m 0,0 0,-172.428 0.008,0 C 97.303,-171.484 175.966,-94.814 176.936,0 L 0,0 Z"
         style="fill:#ee5050;fill-opacity:1;fill-rule:nonzero;stroke:none"
         id="path3387"
         inkscape:connector-curvature="0" />
    </g>
    <g
       id="g3389"
       transform="matrix(0.48729349,0,0,-0.48729349,54.056256,380.36424)">
      <path
         d="m 0,0 -0.008,0 0,-172.428 176.935,0 C 175.958,-77.614 97.294,-0.945 0,0"
         style="fill:#ee5050;fill-opacity:1;fill-rule:nonzero;stroke:none"
         id="path3391"
         inkscape:connector-curvature="0" />
    </g>
    <g
       id="g4270"
       style="fill:#d8e6e4;fill-opacity:1">
      <g
         transform="matrix(0.48729349,0,0,-0.48729349,339.33014,375.92461)"
         id="g3393"
         style="fill:#d8e6e4;fill-opacity:1">
        <path
           inkscape:connector-curvature="0"
           id="path3395"
           style="fill:#d8e6e4;fill-opacity:1;fill-rule:nonzero;stroke:none"
           d="M 0,0 0,-14.695 C 0,-51.44 -26.878,-71.981 -59.166,-71.981 l -50.269,0 0,129.265 50.269,0 C -26.878,57.284 0,36.741 0,0 m -79.466,-48.802 20.3,0 c 15.858,0 27.84,10.175 27.84,29.957 l 0,22.991 c 0,19.786 -11.982,29.959 -27.84,29.959 l -20.3,0 0,-82.907 z" />
      </g>
      <g
         style="fill:#d8e6e4;fill-opacity:1"
         clip-path="none"
         transform="matrix(0.48729349,0,0,-0.48729349,350.63819,348.01028)"
         id="g3397">
        <path
           inkscape:connector-curvature="0"
           id="path3399"
           style="fill:#d8e6e4;fill-opacity:1;fill-rule:nonzero;stroke:none"
           d="m 0,0 93.392,0 -3.292,-23.18 -60.713,0 0,-28.264 56.652,0 0,-23.175 -56.652,0 0,-31.467 61.29,0 3.293,-23.18 -93.97,0 L 0,0 Z" />
      </g>
      <g
         style="fill:#d8e6e4;fill-opacity:1"
         clip-path="none"
         id="g3401"
         transform="matrix(0.48729349,0,0,-0.48729349,-90.63005,735.13583)">
        <g
           style="fill:#d8e6e4;fill-opacity:1"
           clip-path="url(#clipPath3405-7)"
           id="g3403">
          <g
             style="fill:#d8e6e4;fill-opacity:1"
             transform="translate(1075.895,686.468)"
             id="g3409">
            <path
               inkscape:connector-curvature="0"
               id="path3411"
               style="fill:#d8e6e4;fill-opacity:1;fill-rule:nonzero;stroke:none"
               d="m 0,0 c 18.37,0 26.878,9.421 26.878,29.583 l 27.257,0 c 0,-34.292 -23.197,-52.757 -52.782,-52.757 l -2.707,0 c -32.869,0 -58.006,19.784 -58.006,57.281 l 0,18.465 c 0,36.555 25.525,57.282 57.235,57.282 l 2.711,0 c 30.158,0 53.549,-17.524 53.549,-53.137 l -28.421,0 c 0,19.784 -9.284,29.962 -25.908,29.962 -15.469,0 -27.844,-10.178 -27.844,-29.962 l 0,-26.756 C -28.038,10.179 -15.469,0 0,0" />
          </g>
        </g>
      </g>
      <g
         style="fill:#d8e6e4;fill-opacity:1"
         clip-path="none"
         transform="matrix(0.48729349,0,0,-0.48729349,501.10841,348.01028)"
         id="g3413">
        <path
           inkscape:connector-curvature="0"
           id="path3415"
           style="fill:#d8e6e4;fill-opacity:1;fill-rule:nonzero;stroke:none"
           d="m 0,0 0,-23.18 -15.465,0 0,-82.906 15.465,0 0,-23.18 -61.101,0 0,23.18 15.663,0 0,82.906 -15.663,0 0,23.18 L 0,0 Z" />
      </g>
      <g
         style="fill:#d8e6e4;fill-opacity:1"
         clip-path="none"
         id="g3417"
         transform="matrix(0.48729349,0,0,-0.48729349,-90.63005,735.13583)">
        <g
           style="fill:#d8e6e4;fill-opacity:1"
           clip-path="url(#clipPath3421-3)"
           id="g3419">
          <g
             style="fill:#d8e6e4;fill-opacity:1"
             transform="translate(1351.8135,737.1558)"
             id="g3425">
            <path
               inkscape:connector-curvature="0"
               id="path3427"
               style="fill:#d8e6e4;fill-opacity:1;fill-rule:nonzero;stroke:none"
               d="M 0,0 0,-14.695 C 0,-51.44 -26.878,-71.981 -59.17,-71.981 l -50.265,0 0,129.265 50.265,0 C -26.878,57.284 0,36.741 0,0 m -79.462,-48.802 20.292,0 c 15.861,0 27.844,10.175 27.844,29.957 l 0,22.991 c 0,19.786 -11.983,29.959 -27.844,29.959 l -20.292,0 0,-82.907 z" />
          </g>
        </g>
      </g>
      <g
         style="fill:#d8e6e4;fill-opacity:1"
         clip-path="none"
         transform="matrix(0.48729349,0,0,-0.48729349,609.17978,348.01028)"
         id="g3429">
        <path
           inkscape:connector-curvature="0"
           id="path3431"
           style="fill:#d8e6e4;fill-opacity:1;fill-rule:nonzero;stroke:none"
           d="m 0,0 0,-23.18 -15.465,0 0,-82.906 15.465,0 0,-23.18 -61.096,0 0,23.18 15.658,0 0,82.906 -15.658,0 0,23.18 L 0,0 Z" />
      </g>
      <g
         style="fill:#d8e6e4;fill-opacity:1"
         clip-path="none"
         transform="matrix(0.48729349,0,0,-0.48729349,685.7801,364.63128)"
         id="g3433">
        <path
           inkscape:connector-curvature="0"
           id="path3435"
           style="fill:#d8e6e4;fill-opacity:1;fill-rule:nonzero;stroke:none"
           d="m 0,0 -0.961,0 -34.417,-95.157 -31.326,0 -34.421,95.157 -0.961,0 0,-95.157 -27.068,0 0,129.266 48.149,0 30.93,-85.358 0.775,0 30.935,85.358 48.144,0 0,-129.266 L 0,-95.157 0,0 Z" />
      </g>
    </g>
  </g>
</svg>
