<svg width="128" height="96" viewBox="0 0 128 96" fill="none" xmlns="http://www.w3.org/2000/svg">
<path d="M111.607 46.2453C112.541 46.2389 113.466 46.4257 114.325 46.794C116.014 47.5155 117.357 48.8652 118.07 50.5582C118.437 51.4226 118.623 52.3527 118.618 53.2918V72.1869C118.618 72.7545 118.844 73.2989 119.245 73.7003C119.646 74.1017 120.191 74.3272 120.758 74.3272H125.86C126.427 74.3272 126.972 74.1017 127.373 73.7003C127.774 73.2989 128 72.7545 128 72.1869V53.2918C128.013 51.0892 127.575 48.9073 126.712 46.8805C125.88 44.9236 124.684 43.1429 123.187 41.6334C121.69 40.1274 119.917 38.9255 117.964 38.0941C115.956 37.231 113.792 36.7918 111.607 36.804H97.2523C96.6883 36.8059 96.1478 37.0306 95.7485 37.4291C95.3492 37.8276 95.1234 38.3677 95.1201 38.932V72.1869C95.1201 72.7545 95.3455 73.2989 95.7468 73.7003C96.148 74.1017 96.6922 74.3272 97.2597 74.3272H102.285C102.852 74.3266 103.396 74.1008 103.796 73.6995C104.197 73.2981 104.422 72.7541 104.422 72.1869V46.2354" fill="#1061A3"/>
<path d="M16.4941 46.2455C17.4281 46.239 18.3534 46.4258 19.2118 46.7942C20.0414 47.1541 20.7958 47.6673 21.4354 48.3068C22.0803 48.9523 22.5938 49.717 22.9474 50.5584C23.3146 51.4227 23.502 52.3528 23.4984 53.2919V72.187C23.4984 72.7542 23.7235 73.2983 24.1242 73.6996C24.5249 74.1009 25.0685 74.3267 25.6355 74.3274H30.7399C31.3069 74.3267 31.8505 74.1009 32.2512 73.6996C32.6519 73.2983 32.877 72.7542 32.877 72.187V53.2919C32.8912 51.0892 32.4531 48.9071 31.5898 46.8807C30.7599 44.9251 29.5669 43.1446 28.074 41.6335C26.578 40.123 24.8034 38.9169 22.8486 38.0819C20.8418 37.2188 18.6785 36.7796 16.4941 36.7918H2.13959C1.57213 36.7918 1.02792 37.0173 0.62667 37.4187C0.22542 37.8201 0 38.3645 0 38.9321L0 72.187C0 72.7547 0.22542 73.2991 0.62667 73.7005C1.02792 74.1019 1.57213 74.3274 2.13959 74.3274H7.16489C7.73192 74.3267 8.27549 74.1009 8.67621 73.6996C9.07693 73.2983 9.30201 72.7542 9.30201 72.187V46.2356" fill="#1061A3"/>
<path d="M49.7494 21.6138H40.403V35.2766C40.403 35.5154 40.3083 35.7445 40.1397 35.9136C39.9711 36.0827 39.7424 36.178 39.5036 36.1787H35.4345C35.196 36.1787 34.9672 36.2735 34.7986 36.4422C34.6299 36.6109 34.5352 36.8397 34.5352 37.0783V44.6265C34.5352 44.8651 34.6299 45.0939 34.7986 45.2626C34.9672 45.4314 35.196 45.5261 35.4345 45.5261H39.5036C39.7424 45.5268 39.9711 45.6221 40.1397 45.7912C40.3083 45.9604 40.403 46.1894 40.403 46.4283V57.9458C40.3898 60.143 40.8288 62.3195 41.6926 64.3397C43.3757 68.2908 46.5212 71.4375 50.4709 73.1212C51.6788 73.6421 52.9483 74.0067 54.2485 74.2062C54.3774 74.2257 54.509 74.2172 54.6343 74.1813C54.7597 74.1453 54.8758 74.0827 54.9747 73.9978C55.0737 73.9129 55.1532 73.8076 55.2078 73.6892C55.2624 73.5707 55.2908 73.4419 55.2911 73.3115V64.3422C55.2908 64.145 55.2329 63.9522 55.1245 63.7875C55.0161 63.6228 54.8619 63.4934 54.6809 63.4153L54.0805 63.1682C53.2343 62.8067 52.4646 62.2875 51.8124 61.6383C51.168 60.9923 50.6546 60.2277 50.3004 59.3867C49.9295 58.5113 49.742 57.5692 49.7494 56.6185V46.4283C49.7494 46.1894 49.8441 45.9604 50.0127 45.7912C50.1813 45.6221 50.41 45.5268 50.6488 45.5261H54.8637C54.982 45.5265 55.0992 45.5034 55.2086 45.4584C55.318 45.4133 55.4174 45.3471 55.5012 45.2635C55.585 45.1799 55.6514 45.0807 55.6968 44.9713C55.7421 44.862 55.7655 44.7449 55.7655 44.6265V37.0783C55.7655 36.96 55.7421 36.8428 55.6968 36.7335C55.6514 36.6242 55.585 36.5249 55.5012 36.4413C55.4174 36.3577 55.318 36.2915 55.2086 36.2465C55.0992 36.2014 54.982 36.1784 54.8637 36.1787H50.6488C50.4096 36.1787 50.1802 36.0836 50.0111 35.9145C49.842 35.7453 49.747 35.5158 49.747 35.2766L49.7494 21.6138Z" fill="#1061A3"/>
<path d="M91.97 58.6871H69.3018C69.0707 58.6868 68.843 58.7437 68.6392 58.8529C68.4355 58.9621 68.2619 59.1201 68.1342 59.3128C68.0064 59.5055 67.9284 59.7269 67.9071 59.9572C67.8858 60.1874 67.9219 60.4194 68.0121 60.6323C68.5984 61.9757 69.527 63.1416 70.7051 64.0134C72.4412 65.3167 74.603 65.9692 77.1906 65.9708C78.8092 65.9952 80.4171 65.7039 81.9244 65.1132C82.9604 64.6884 83.924 64.1047 84.7804 63.3831C85.0602 63.1525 85.4191 63.0407 85.7802 63.0716C86.1414 63.1026 86.4761 63.2739 86.7125 63.5487L90.2357 67.5848C90.4659 67.8471 90.5896 68.1863 90.5823 68.5354C90.5749 68.8844 90.4372 69.2181 90.1961 69.4706C87.0189 72.7479 82.598 74.3865 76.9337 74.3865C73.0761 74.3865 69.6658 73.5882 66.7027 71.9916C63.8253 70.4853 61.4412 68.1836 59.8343 65.3604C58.2234 62.5296 57.418 59.3166 57.418 55.7213C57.418 52.1688 58.2135 48.9657 59.8046 46.1118C61.3295 43.3264 63.5945 41.0169 66.3494 39.4386C69.1875 37.8301 72.4021 37.0053 75.6637 37.0486C78.8376 37.0049 81.9676 37.7922 84.7434 39.3323C87.4587 40.8663 89.6763 43.1482 91.1325 45.9067C92.6791 48.7638 93.4524 52.079 93.4524 55.8523C93.4524 55.9478 93.4195 56.457 93.3536 57.3797C93.33 57.7319 93.1744 58.0622 92.9179 58.3046C92.6614 58.5469 92.3229 58.6836 91.97 58.6871ZM70.0702 47.0214C68.9585 48.0099 68.1376 49.2832 67.6959 50.704C67.6264 50.9146 67.6078 51.1387 67.6416 51.3579C67.6754 51.5771 67.7606 51.7852 67.8903 51.9651C68.02 52.145 68.1905 52.2916 68.3877 52.3929C68.585 52.4941 68.8034 52.5472 69.0251 52.5478H82.3666C82.5887 52.5471 82.8075 52.4937 83.0049 52.392C83.2023 52.2903 83.3728 52.1431 83.5023 51.9626C83.6319 51.7822 83.7167 51.5735 83.7499 51.3538C83.7831 51.1342 83.7637 50.9098 83.6934 50.699C83.24 49.2973 82.4253 48.0399 81.3314 47.0535C79.8046 45.6809 77.9392 44.9955 75.7354 44.9971C73.4855 44.9971 71.597 45.6719 70.0702 47.0214Z" fill="#1061A3"/>
</svg>
