<?xml version="1.0" encoding="utf-8"?>
<!-- Generator: Adobe Illustrator 22.0.1, SVG Export Plug-In . SVG Version: 6.00 Build 0)  -->
<svg version="1.1" id="daa92041-3bd8-464c-9c92-61b3fade74bd"
	 xmlns="http://www.w3.org/2000/svg" xmlns:xlink="http://www.w3.org/1999/xlink" x="0px" y="0px" viewBox="0 0 483.9 755.2"
	 style="enable-background:new 0 0 483.9 755.2;" xml:space="preserve">
<style type="text/css">
	.st0{fill:url(#SVGID_1_);}
	.st1{fill:#F6B9AD;}
	.st2{fill:url(#SVGID_2_);}
	.st3{fill:url(#SVGID_3_);}
	.st4{fill:#FFFFFF;}
	.st5{fill:#FF3333;}
	.st6{fill:#DBDBDB;}
	.st7{fill:url(#SVGID_4_);}
	.st8{fill:url(#SVGID_5_);}
	.st9{fill:#FF8976;}
	.st10{fill:url(#SVGID_6_);}
	.st11{fill:url(#SVGID_7_);}
	.st12{fill:url(#SVGID_8_);}
	.st13{fill:url(#SVGID_9_);}
	.st14{fill:#69F0AE;}
	.st15{fill:url(#SVGID_10_);}
	.st16{fill:url(#SVGID_11_);}
</style>
<title>mail_2</title>
<linearGradient id="SVGID_1_" gradientUnits="userSpaceOnUse" x1="476.9186" y1="-32.67" x2="476.9186" y2="256.5298" gradientTransform="matrix(1 0 0 -1 -198.33 685.56)">
	<stop  offset="0" style="stop-color:#808080;stop-opacity:0.25"/>
	<stop  offset="0.54" style="stop-color:#808080;stop-opacity:0.12"/>
	<stop  offset="1" style="stop-color:#808080;stop-opacity:0.1"/>
</linearGradient>
<path class="st0" d="M483.9,510.3c0-44.9-36.3-81.2-81.2-81.2c-39,0-72.5,27.7-79.8,66.1l-249.6-6.8l2.7,42.9
	c0,0-35.6,82.1,151.5,104v83h216.2v-138C468.6,565.7,483.9,539.1,483.9,510.3z"/>
<path class="st1" d="M84.6,533c0,0-34.1,78.6,145.1,99.6v79.5h207.1V501.6L81.9,492L84.6,533z"/>
<linearGradient id="SVGID_2_" gradientUnits="userSpaceOnUse" x1="298.6179" y1="462.9522" x2="298.6179" y2="612.2698" gradientTransform="matrix(1 0 0 -1 -198.33 685.56)">
	<stop  offset="0" style="stop-color:#808080;stop-opacity:0.25"/>
	<stop  offset="0.54" style="stop-color:#808080;stop-opacity:0.12"/>
	<stop  offset="1" style="stop-color:#808080;stop-opacity:0.1"/>
</linearGradient>
<path class="st2" d="M188.1,204.9L188.1,204.9c-11.2,17.7-34.7,23.1-52.5,11.9L24.4,143.5C6.7,132.3,1.3,108.8,12.5,91l0,0
	c11.2-17.7,34.7-23,52.5-11.9l111.2,73.3C193.9,163.6,199.2,187,188.1,204.9z"/>
<path class="st1" d="M181.9,200.9L181.9,200.9c-10.4,16.5-32.3,21.4-48.8,11.1L29.8,143.8C13.3,133.4,8.3,111.6,18.7,95l0,0
	c10.4-16.5,32.3-21.4,48.8-11.1l103.4,68.1C187.3,162.5,192.3,184.3,181.9,200.9z"/>
<circle class="st1" cx="397.4" cy="512.9" r="77.8"/>
<linearGradient id="SVGID_3_" gradientUnits="userSpaceOnUse" x1="432.7936" y1="103.6" x2="432.7936" y2="685.56" gradientTransform="matrix(1 0 0 -1 -198.33 685.56)">
	<stop  offset="0" style="stop-color:#808080;stop-opacity:0.25"/>
	<stop  offset="0.54" style="stop-color:#808080;stop-opacity:0.12"/>
	<stop  offset="1" style="stop-color:#808080;stop-opacity:0.1"/>
</linearGradient>
<path class="st3" d="M85.5,0h297.9c6.8,0,12.2,5.5,12.2,12.2v557.5c0,6.8-5.5,12.2-12.2,12.2H85.5c-6.8,0-12.2-5.5-12.2-12.2V12.2
	C73.3,5.5,78.7,0,85.5,0z"/>
<path class="st4" d="M91.3,7.9h286.4c7.5,0,13.6,6.1,13.6,13.6v539c0,7.5-6.1,13.6-13.6,13.6H91.3c-7.5,0-13.6-6.1-13.6-13.6v-539
	C77.6,14,83.7,7.9,91.3,7.9z"/>
<path class="st5" d="M313.3,22.1c-1.9,12.4-12.5,21.6-25.1,21.6H179.9c-12.5,0-23.2-9.2-25.1-21.6H97.4c-6.6,0-11.9,5.3-11.9,11.9
	c0,0,0,0,0,0v514c0,6.6,5.3,11.9,11.9,11.9c0,0,0,0,0,0h274.1c6.6,0,11.9-5.3,11.9-11.9c0,0,0,0,0,0V34c0-6.6-5.3-11.9-11.9-11.9
	c0,0,0,0,0,0H313.3z"/>
<path class="st6" d="M202,28.8h65.9c1.1,0,2,0.9,2,2v0.4c0,1.1-0.9,2-2,2H202c-1.1,0-2-0.9-2-2v-0.4C200,29.7,200.8,28.8,202,28.8z"
	/>
<circle class="st6" cx="284.7" cy="30.6" r="2.6"/>
<linearGradient id="SVGID_4_" gradientUnits="userSpaceOnUse" x1="613.1602" y1="157.8562" x2="613.1602" y2="435.1045" gradientTransform="matrix(1 0 0 -1 -198.33 685.56)">
	<stop  offset="0" style="stop-color:#808080;stop-opacity:0.25"/>
	<stop  offset="0.54" style="stop-color:#808080;stop-opacity:0.12"/>
	<stop  offset="1" style="stop-color:#808080;stop-opacity:0.1"/>
</linearGradient>
<path class="st7" d="M447.7,526.7L447.7,526.7c-22.6,5.2-38.1-9.5-43.3-32.1L352.6,302c-5.2-22.6,8.9-45.2,31.5-50.5l0,0
	c22.6-5.2,45.2,8.9,50.5,31.5l42.3,197.5C482.2,503.2,470.3,521.4,447.7,526.7z"/>
<path class="st1" d="M386.4,261.3L386.4,261.3c19-4.4,38,7.5,42.4,26.5l47.7,206.4c4.4,19-7.5,38-26.5,42.4l0,0
	c-19,4.4-38-7.5-42.4-26.5l-47.7-206.4C355.4,284.7,367.3,265.7,386.4,261.3z"/>
<linearGradient id="SVGID_5_" gradientUnits="userSpaceOnUse" x1="525.2036" y1="-69.59" x2="525.2036" y2="-0.59" gradientTransform="matrix(1 0 0 -1 -198.33 685.56)">
	<stop  offset="0" style="stop-color:#808080;stop-opacity:0.25"/>
	<stop  offset="0.54" style="stop-color:#808080;stop-opacity:0.12"/>
	<stop  offset="1" style="stop-color:#808080;stop-opacity:0.1"/>
</linearGradient>
<rect x="178.9" y="686.2" class="st8" width="296" height="69"/>
<rect x="186.9" y="694.2" class="st9" width="280" height="54"/>
<path class="st5" d="M230.9,142.2l-56,41.3c-2.7,1.9-4.3,5.1-4.1,8.5l125.9,0.4c0-4.6-1-5.9-3.1-7.6l-57-42.5
	C234.8,141,232.5,141,230.9,142.2z"/>
<linearGradient id="SVGID_6_" gradientUnits="userSpaceOnUse" x1="283.3286" y1="358.1364" x2="283.3286" y2="495.1636" gradientTransform="matrix(1 0 0 -1 -198.33 685.56)">
	<stop  offset="0" style="stop-color:#808080;stop-opacity:0.25"/>
	<stop  offset="0.54" style="stop-color:#808080;stop-opacity:0.12"/>
	<stop  offset="1" style="stop-color:#808080;stop-opacity:0.1"/>
</linearGradient>
<path class="st10" d="M164.2,309.8L164.2,309.8c-11.2,17.6-34.4,22.9-52.1,11.8l-94.5-61.5C0,249-5.3,225.7,5.8,208l0,0
	c11.2-17.6,34.4-22.9,52.1-11.8l94.5,61.5C170,268.9,175.3,292.1,164.2,309.8z"/>
<linearGradient id="SVGID_7_" gradientUnits="userSpaceOnUse" x1="274.1499" y1="256.5923" x2="274.1499" y2="379.9977" gradientTransform="matrix(1 0 0 -1 -198.33 685.56)">
	<stop  offset="0" style="stop-color:#808080;stop-opacity:0.25"/>
	<stop  offset="0.54" style="stop-color:#808080;stop-opacity:0.12"/>
	<stop  offset="1" style="stop-color:#808080;stop-opacity:0.1"/>
</linearGradient>
<path class="st11" d="M144.9,411.4L144.9,411.4c-11.1,17.5-34.3,22.8-51.9,11.8L18.5,375C1,363.9-4.3,340.7,6.7,323.1l0,0
	c11.1-17.5,34.3-22.8,51.9-11.8l74.6,48.3C150.7,370.7,155.9,393.8,144.9,411.4z"/>
<linearGradient id="SVGID_8_" gradientUnits="userSpaceOnUse" x1="269.3318" y1="154.2904" x2="269.3318" y2="263.8009" gradientTransform="matrix(1 0 0 -1 -198.33 685.56)">
	<stop  offset="0" style="stop-color:#808080;stop-opacity:0.25"/>
	<stop  offset="0.54" style="stop-color:#808080;stop-opacity:0.12"/>
	<stop  offset="1" style="stop-color:#808080;stop-opacity:0.1"/>
</linearGradient>
<path class="st12" d="M126.2,513.6L126.2,513.6c-11.2,17.7-34.6,23-52.3,11.9l-46.2-33.7c-17.7-11.2-23-34.6-11.9-52.3l0,0
	c11.2-17.7,34.6-23,52.3-11.9l46.2,33.7C132,472.5,137.3,495.8,126.2,513.6z"/>
<path class="st1" d="M122.5,511.1L122.5,511.1c-10.4,16.5-32.3,21.4-48.8,11.1l-43.1-31.4c-16.5-10.4-21.4-32.3-11.1-48.8l0,0
	c10.4-16.5,32.3-21.4,48.8-11.1l43.1,31.4C127.9,472.7,132.8,494.5,122.5,511.1z"/>
<linearGradient id="SVGID_9_" gradientUnits="userSpaceOnUse" x1="234.4636" y1="533.43" x2="234.4636" y2="594.43" gradientTransform="matrix(1 0 0 -1 0 758)">
	<stop  offset="0" style="stop-color:#000000;stop-opacity:0.12"/>
	<stop  offset="0.55" style="stop-color:#000000;stop-opacity:9.000000e-02"/>
	<stop  offset="1" style="stop-color:#000000;stop-opacity:2.000000e-02"/>
</linearGradient>
<rect x="132.5" y="163.6" class="st13" width="204" height="61"/>
<rect x="139.5" y="169.6" class="st14" width="190" height="44"/>
<linearGradient id="SVGID_10_" gradientUnits="userSpaceOnUse" x1="234.9086" y1="446.5445" x2="234.9086" y2="507.5445" gradientTransform="matrix(1 0 0 -1 0 758)">
	<stop  offset="0" style="stop-color:#000000;stop-opacity:0.12"/>
	<stop  offset="0.55" style="stop-color:#000000;stop-opacity:9.000000e-02"/>
	<stop  offset="1" style="stop-color:#000000;stop-opacity:2.000000e-02"/>
</linearGradient>
<rect x="132.9" y="250.5" class="st15" width="204" height="61"/>
<rect x="139.9" y="256.5" class="st14" width="190" height="44"/>
<linearGradient id="SVGID_11_" gradientUnits="userSpaceOnUse" x1="234.9086" y1="346.2032" x2="234.9086" y2="407.2032" gradientTransform="matrix(1 0 0 -1 0 758)">
	<stop  offset="0" style="stop-color:#000000;stop-opacity:0.12"/>
	<stop  offset="0.55" style="stop-color:#000000;stop-opacity:9.000000e-02"/>
	<stop  offset="1" style="stop-color:#000000;stop-opacity:2.000000e-02"/>
</linearGradient>
<rect x="132.9" y="350.8" class="st16" width="204" height="61"/>
<rect x="139.9" y="356.8" class="st14" width="190" height="44"/>
<path class="st1" d="M159.2,306.6L159.2,306.6c-10.4,16.5-32.3,21.4-48.8,11.1L21.9,260c-16.5-10.4-21.4-32.3-11.1-48.8l0,0
	c10.4-16.5,32.3-21.4,48.8-11.1l88.5,57.6C164.6,268.2,169.6,290,159.2,306.6z"/>
<path class="st1" d="M140.8,408.8L140.8,408.8c-10.4,16.5-32.3,21.4-48.8,11.1l-70.2-45.4c-16.5-10.4-21.4-32.3-11.1-48.8l0,0
	c10.4-16.5,32.2-21.5,48.8-11.1l70.2,45.4C146.3,370.4,151.2,392.3,140.8,408.8z"/>
</svg>
