<svg xmlns="http://www.w3.org/2000/svg" width="638" height="457" viewBox="0 0 638 457">
  <defs>
    <linearGradient id="logo_codit_v1-a" x1="-12.619%" x2="129.237%" y1="50%" y2="50%">
      <stop offset="0%" stop-color="#2A2860"/>
      <stop offset="100%" stop-color="#7500ED"/>
    </linearGradient>
  </defs>
  <g fill="none">
    <path fill="url(#logo_codit_v1-a)" d="M196.793,9.99200722e-15 C205.179,50.565 209.543,102.485 209.543,155.428 C209.543,201.624 206.222,247.041 199.804,291.458 L199.791,291.491 C225.553,283.463 250.443,273.467 274.327,261.737 C274.146,287.749 272.959,313.527 270.71,339 C333.814,318.373 391.581,285.95 441.407,244.339 L441.404,244.337 C418.647,192.583 384.808,146.815 342.917,109.988 C334.717,90.682 325.948,71.677 316.569,53.03 C279.098,31.134 238.947,13.261 196.793,9.99200722e-15 Z M225.073,153.082 C225.073,108.434 221.999,64.501 216.053,21.486 C249.473,32.496 281.547,46.464 311.967,63.083 C317.593,74.479 322.979,86.012 328.165,97.656 C304.87,79.147 279.394,63.264 252.168,50.494 C266.17,113.808 273.784,179.519 274.349,246.912 C256.137,255.41 237.353,262.888 218.058,269.237 C222.691,231.167 225.073,192.403 225.073,153.082 Z M273.512,78.227 L273.462,78.162 C296.911,90.736 318.826,105.783 338.958,122.863 C348.391,145.775 356.997,169.117 364.682,192.875 L364.645,192.887 C340.986,210.566 315.741,226.236 289.182,239.687 C288.506,184.616 283.16,130.669 273.512,78.227 Z M286.956,318.381 C288.427,297.145 289.184,275.713 289.238,254.12 C319.752,237.895 348.49,218.766 375.039,197.055 L375.074,196.946 C368.527,176.223 361.265,155.815 353.399,135.713 C385.092,165.517 411.621,200.75 431.454,239.954 L431.503,240.035 C388.322,273.497 339.606,300.155 286.962,318.404 L286.956,318.381 Z"/>
    <path fill="#131313" d="M0 438.7425L0 423.8125C0 412.8845 4.099 406.5415 18.931 406.5415 23.127 406.5415 27.811 407.2235 30.25 408.0055L29.567 414.8355C25.859 414.0555 22.444 413.7625 19.126 413.7625 10.929 413.7625 8.197 416.1035 8.197 423.5195L8.197 439.0355C8.197 446.4515 10.929 448.7935 19.126 448.7935 22.444 448.7935 25.859 448.5005 29.567 447.7205L30.348 454.5505C27.908 455.3315 23.127 456.0135 18.931 456.0135 3.708 456.0135 0 449.6715 0 438.7425M58.9482 413.6644C51.5322 413.6644 47.8242 417.1774 47.8242 424.1054L47.8242 438.4494C47.8242 445.3784 51.5322 448.8914 58.9482 448.8914 66.3642 448.8914 70.0722 445.3784 70.0722 438.4494L70.0722 424.1054C70.0722 417.1774 66.3642 413.6644 58.9482 413.6644M58.9482 456.0144C45.0922 456.0144 39.6272 448.1104 39.6272 438.1574L39.6272 424.3984C39.6272 414.4454 45.0922 406.5414 58.9482 406.5414 72.8042 406.5414 78.2692 414.4454 78.2692 424.3984L78.2692 438.1574C78.2692 448.1104 72.8042 456.0144 58.9482 456.0144M118.6382 415.2259C114.2472 414.3479 108.8802 413.7619 105.5622 413.7619 100.0972 413.7619 97.8532 416.2989 97.8532 422.0559L97.8532 441.4749C97.8532 446.3539 99.4152 448.7929 105.1722 448.7929 109.8562 448.7929 115.1252 446.2559 118.6382 443.1339L118.6382 415.2259zM89.6572 422.0559C89.6572 412.5909 93.9502 406.5409 105.0742 406.5409 109.2702 406.5409 114.8322 407.2239 118.6382 408.0049L118.6382 388.0989 126.8352 386.9279 126.8352 455.0389 119.9072 455.0389 119.2232 450.7449C115.3202 453.8679 109.7582 456.0139 103.5132 456.0139 94.1452 456.0139 89.6572 451.0379 89.6572 441.4749L89.6572 422.0559zM140.73 455.038L148.927 455.038 148.927 407.517 140.73 407.517 140.73 455.038zM140.73 399.906L148.927 399.906 148.927 388.099 140.73 388.099 140.73 399.906zM189.6162 454.1605C187.0792 455.2335 182.2002 456.0145 179.1762 456.0145 170.4912 456.0145 166.0992 451.9165 166.0992 443.4265L166.0992 416.9815 158.9762 416.9815 158.9762 407.5165 166.0992 407.5165 166.0992 395.7095 178.0042 394.0515 178.0042 407.5165 190.2022 407.5165 189.4212 416.9815 178.0042 416.9815 178.0042 441.8655C178.0042 444.4025 179.1762 446.0605 182.2982 446.0605 184.0542 446.0605 186.2012 445.6705 188.2502 445.0855L189.6162 454.1605zM223.9644 417.4701C219.3784 419.5191 215.6704 421.6661 211.3764 424.3991L211.3764 455.0381 199.4714 455.0381 199.4714 407.5171 209.5224 407.5171 210.3024 412.7861C212.9374 411.0301 218.5974 407.7121 222.7934 406.5411L223.9644 417.4701zM255.9893 437.0833L247.2073 437.0833C243.3043 437.0833 242.2313 438.1573 242.2313 441.7683 242.2313 445.0853 243.3043 446.5493 247.0123 446.5493 250.5253 446.5493 253.7453 445.3783 255.9893 444.1093L255.9893 437.0833zM267.8943 455.0383L258.1363 455.0383 257.2583 451.8183C252.9653 454.6473 247.8903 456.0143 243.1093 456.0143 234.4243 456.0143 230.7163 450.0623 230.7163 441.8653 230.7163 432.2043 234.9123 428.4963 244.5723 428.4963L255.9893 428.4963 255.9893 423.5203C255.9893 418.2503 254.5263 416.3963 246.9143 416.3963 242.6213 416.3963 237.9373 416.9813 233.7413 417.8603L232.2773 408.7853C236.7663 407.4193 243.3043 406.5413 248.5733 406.5413 263.5033 406.5413 267.8943 411.8113 267.8943 423.7153L267.8943 455.0383zM308.0781 455.0384L308.0781 421.8614C308.0781 419.3244 307.0051 418.0564 304.2721 418.0564 301.3451 418.0564 296.1731 419.8114 291.8801 422.0564L291.8801 455.0384 279.9741 455.0384 279.9741 407.5174 289.0501 407.5174 290.2211 411.5174C296.1731 408.5904 303.6861 406.5414 309.2491 406.5414 313.8351 406.5414 316.6651 408.3944 318.2261 411.6154 323.9831 408.6874 331.5951 406.5414 337.3511 406.5414 345.2561 406.5414 348.0861 412.1024 348.0861 420.5934L348.0861 455.0384 336.1811 455.0384 336.1811 421.8614C336.1811 419.3244 335.1071 418.0564 332.3751 418.0564 329.4481 418.0564 323.6901 419.9094 319.9821 422.0564L319.9821 455.0384 308.0781 455.0384zM372.0898 407.5169L372.0898 440.6939C372.0898 443.2309 373.1638 444.4989 375.8958 444.4989 378.8228 444.4989 383.9948 442.7439 388.2888 440.4989L388.2888 407.5169 400.1938 407.5169 400.1938 455.0379 391.1178 455.0379 389.9468 451.0379C383.9948 453.9649 376.4818 456.0139 370.9188 456.0139 363.0158 456.0139 360.1858 450.4529 360.1858 441.9619L360.1858 407.5169 372.0898 407.5169zM440.8643 455.0384L440.8643 421.8614C440.8643 419.3244 439.7913 418.0564 437.0583 418.0564 434.1323 418.0564 428.9603 419.8114 424.6663 422.0564L424.6663 455.0384 412.7613 455.0384 412.7613 407.5174 421.8363 407.5174 423.0083 411.5174C428.9603 408.5904 436.4733 406.5414 442.0353 406.5414 449.9393 406.5414 452.7693 412.1024 452.7693 420.5934L452.7693 455.0384 440.8643 455.0384zM492.2402 454.1605C489.7032 455.2335 484.8242 456.0145 481.8002 456.0145 473.1152 456.0145 468.7232 451.9165 468.7232 443.4265L468.7232 416.9815 461.6002 416.9815 461.6002 407.5165 468.7232 407.5165 468.7232 395.7095 480.6292 394.0515 480.6292 407.5165 492.8262 407.5165 492.0452 416.9815 480.6292 416.9815 480.6292 441.8655C480.6292 444.4025 481.8002 446.0605 484.9222 446.0605 486.6782 446.0605 488.8252 445.6705 490.8752 445.0855L492.2402 454.1605zM525.6318 437.0833L516.8498 437.0833C512.9468 437.0833 511.8728 438.1573 511.8728 441.7683 511.8728 445.0853 512.9468 446.5493 516.6538 446.5493 520.1678 446.5493 523.3878 445.3783 525.6318 444.1093L525.6318 437.0833zM537.5368 455.0383L527.7788 455.0383 526.9008 451.8183C522.6078 454.6473 517.5328 456.0143 512.7518 456.0143 504.0668 456.0143 500.3598 450.0623 500.3598 441.8653 500.3598 432.2043 504.5548 428.4963 514.2148 428.4963L525.6318 428.4963 525.6318 423.5203C525.6318 418.2503 524.1678 416.3963 516.5568 416.3963 512.2638 416.3963 507.5798 416.9813 503.3838 417.8603L501.9198 408.7853C506.4088 407.4193 512.9468 406.5413 518.2158 406.5413 533.1458 406.5413 537.5368 411.8113 537.5368 423.7153L537.5368 455.0383zM577.7207 455.0384L577.7207 421.8614C577.7207 419.3244 576.6477 418.0564 573.9147 418.0564 570.9877 418.0564 565.8157 419.8114 561.5227 422.0564L561.5227 455.0384 549.6167 455.0384 549.6167 407.5174 558.6927 407.5174 559.8637 411.5174C565.8157 408.5904 573.3287 406.5414 578.8917 406.5414 586.7947 406.5414 589.6247 412.1024 589.6247 420.5934L589.6247 455.0384 577.7207 455.0384zM625.3203 437.0833L616.5383 437.0833C612.6343 437.0833 611.5603 438.1573 611.5603 441.7683 611.5603 445.0853 612.6343 446.5493 616.3423 446.5493 619.8553 446.5493 623.0763 445.3783 625.3203 444.1093L625.3203 437.0833zM637.2243 455.0383L627.4663 455.0383 626.5883 451.8183C622.2953 454.6473 617.2203 456.0143 612.4393 456.0143 603.7553 456.0143 600.0473 450.0623 600.0473 441.8653 600.0473 432.2043 604.2423 428.4963 613.9033 428.4963L625.3203 428.4963 625.3203 423.5203C625.3203 418.2503 623.8563 416.3963 616.2453 416.3963 611.9513 416.3963 607.2673 416.9813 603.0723 417.8603L601.6073 408.7853C606.0963 407.4193 612.6343 406.5413 617.9043 406.5413 632.8343 406.5413 637.2243 411.8113 637.2243 423.7153L637.2243 455.0383z"/>
  </g>
</svg>
