<?xml version="1.0" encoding="UTF-8" standalone="no"?>
<svg width="210px" height="50px" viewBox="0 0 210 50" version="1.1" xmlns="http://www.w3.org/2000/svg" xmlns:xlink="http://www.w3.org/1999/xlink" xmlns:sketch="http://www.bohemiancoding.com/sketch/ns">
    <title>Swwweet</title>
    <g id="Page-1" stroke="none" stroke-width="1" fill="none" fill-rule="evenodd" sketch:type="MSPage">
        <g id="Swwweet-small-logo-color" sketch:type="MSArtboardGroup">
            <g id="logotipo-peque" sketch:type="MSLayerGroup" transform="translate(5.000000, 1.000000)">
                <g id="logotipo" transform="translate(46.000000, 3.000000)" fill="#333333" sketch:type="MSShapeGroup">
                    <path d="M11.9209,23.2874 L5.0199,14.7104 C4.2849,13.7714 3.9129,12.4624 3.9129,10.8194 L3.9129,8.4814 C3.9129,6.7424 4.2139,5.4444 4.8079,4.6254 C5.3709,3.8464 6.2219,3.4664 7.4049,3.4664 L7.5069,3.4664 C8.7669,3.4664 9.6269,3.8364 10.1389,4.5974 C10.7089,5.4444 10.9979,6.7514 10.9979,8.4814 L10.9979,12.0224 L14.5819,12.0224 L14.5819,8.4314 C14.5819,5.5764 13.9879,3.4474 12.8159,2.1044 C11.6159,0.7324 9.8299,0.0364 7.5069,0.0364 L7.4049,0.0364 C5.0789,0.0364 3.2909,0.7414 2.0919,2.1344 C0.9219,3.4924 0.3289,5.6114 0.3289,8.4314 L0.3289,10.9714 C0.3289,12.5644 0.5479,13.8664 0.9799,14.8414 C1.3959,15.7824 2.1409,16.9164 3.1919,18.2124 L10.0549,26.8044 L10.0669,26.8184 C10.3979,27.2044 10.6509,27.7114 10.8219,28.3254 C11.0069,28.9844 11.0999,29.6404 11.0999,30.2764 L11.0999,34.3914 C11.0999,36.1194 10.8039,37.4234 10.2209,38.2694 C9.6919,39.0344 8.8379,39.4064 7.6089,39.4064 L7.2019,39.4064 C5.9719,39.4064 5.1169,39.0344 4.5889,38.2694 C4.0059,37.4234 3.7099,36.1184 3.7099,34.3914 L3.7099,30.5964 L0.1259,30.5964 L0.1259,34.4424 C0.1259,37.2984 0.7199,39.4274 1.8929,40.7694 C3.0909,42.1424 4.8769,42.8384 7.2019,42.8384 L7.6089,42.8384 C9.9659,42.8384 11.7699,42.1424 12.9679,40.7694 C14.1399,39.4274 14.7339,37.2984 14.7339,34.4424 L14.7339,30.1234 C14.7339,28.6954 14.5129,27.4984 14.0759,26.5684 C13.6639,25.6904 12.9399,24.5874 11.9209,23.2874" id="Fill-1"></path>
                    <path d="M66.4912,33.5674 L61.9472,10.7034 L58.7942,10.7034 L54.2762,33.4354 L50.8522,10.7034 L47.0362,10.7034 L52.2182,42.3304 L55.7452,42.3304 L60.3702,19.8184 L65.0482,42.3304 L68.5232,42.3304 L73.7052,10.7034 L69.8872,10.7034 L66.4912,33.5674 Z" id="Fill-3"></path>
                    <path d="M37.2813,33.5674 L32.7363,10.7034 L29.5833,10.7034 L25.0653,33.4354 L21.6413,10.7034 L17.8253,10.7034 L23.0083,42.3304 L26.5343,42.3304 L31.1603,19.8184 L35.8373,42.3304 L39.3123,42.3304 L44.4943,10.7034 L40.6763,10.7034 L37.2813,33.5674 Z" id="Fill-5"></path>
                    <path d="M154,39.6733 C154,39.6733 153.316,39.8773 151.632,39.8773 C150.67,39.8773 149.94,39.6823 149.482,38.9143 C149.186,38.4183 149.072,37.3153 149.072,35.8133 L149.072,13.9833 L154,13.9833 L154,10.7043 L149.072,10.7043 L149.072,3.6933 L145.488,3.6933 L145.488,10.7043 L141.83,10.7043 L141.83,13.9833 L145.488,13.9833 L145.488,36.7283 C145.488,38.6983 145.884,40.2173 146.665,41.2413 C147.787,42.7113 149.576,42.8353 151.165,42.8353 C153.236,42.8353 154,42.4603 154,42.4603 L154,39.6733 Z" id="Fill-7"></path>
                    <path d="M128.1377,18.6426 C128.1377,16.9176 128.4397,15.6156 129.0357,14.7726 C129.5807,14.0016 130.4787,13.6276 131.7817,13.6276 L131.8827,13.6276 C133.1797,13.6276 134.0687,13.9986 134.5967,14.7656 C135.1797,15.6116 135.4757,16.9156 135.4757,18.6426 L135.4757,24.7766 L128.1377,24.7766 L128.1377,18.6426 Z M135.5267,34.3646 C135.4637,36.1396 135.1497,37.4656 134.5897,38.3046 C134.0957,39.0466 133.2267,39.4066 131.9337,39.4066 L131.7817,39.4066 C130.4777,39.4066 129.5807,39.0326 129.0357,38.2616 C128.4397,37.4176 128.1377,36.1166 128.1377,34.3916 L128.1377,27.9536 L139.0597,27.9536 L139.0597,18.5916 C139.0597,15.6996 138.4637,13.5616 137.2887,12.2356 C136.0907,10.8826 134.2717,10.1956 131.8827,10.1956 L131.7817,10.1956 C129.3917,10.1956 127.5637,10.8906 126.3487,12.2606 C125.1577,13.6026 124.5537,15.7326 124.5537,18.5916 L124.5537,34.4426 C124.5537,37.3336 125.1487,39.4726 126.3237,40.7986 C127.5227,42.1526 129.3577,42.8386 131.7817,42.8386 L131.9337,42.8386 C134.3277,42.8386 136.1407,42.1406 137.3227,40.7656 C138.4727,39.4256 139.0747,37.3046 139.1107,34.4636 L139.1807,31.6646 L135.5977,31.6646 L135.5267,34.3646 Z" id="Fill-9"></path>
                    <path d="M109.499,18.6426 C109.499,16.9176 109.801,15.6156 110.397,14.7726 C110.942,14.0016 111.84,13.6276 113.143,13.6276 L113.244,13.6276 C114.541,13.6276 115.43,13.9986 115.958,14.7656 C116.541,15.6116 116.837,16.9156 116.837,18.6426 L116.837,24.7766 L109.499,24.7766 L109.499,18.6426 Z M116.888,34.3646 C116.825,36.1396 116.511,37.4656 115.951,38.3046 C115.456,39.0466 114.588,39.4066 113.295,39.4066 L113.143,39.4066 C111.84,39.4066 110.941,39.0326 110.397,38.2616 C109.801,37.4176 109.499,36.1166 109.499,34.3916 L109.499,27.9536 L120.421,27.9536 L120.421,18.5916 C120.421,15.6996 119.825,13.5616 118.65,12.2356 C117.452,10.8826 115.633,10.1956 113.244,10.1956 L113.143,10.1956 C110.754,10.1956 108.926,10.8906 107.71,12.2606 C106.519,13.6026 105.915,15.7326 105.915,18.5916 L105.915,34.4426 C105.915,37.3336 106.511,39.4726 107.685,40.7986 C108.884,42.1526 110.72,42.8386 113.143,42.8386 L113.295,42.8386 C115.689,42.8386 117.502,42.1406 118.684,40.7656 C119.834,39.4256 120.436,37.3046 120.472,34.4636 L120.543,31.6646 L116.96,31.6646 L116.888,34.3646 Z" id="Fill-11"></path>
                    <path d="M95.7021,33.5674 L91.1581,10.7034 L88.0051,10.7034 L83.4861,33.4344 L80.0621,10.7034 L76.2461,10.7034 L81.4291,42.3304 L84.9551,42.3304 L89.5811,19.8184 L94.2591,42.3304 L97.7331,42.3304 L102.9151,10.7034 L99.0981,10.7034 L95.7021,33.5674 Z" id="Fill-13"></path>
                </g>
                <g id="isotipo" sketch:type="MSShapeGroup">
                    <g id="bolas">
                        <path d="M10.507,0.8741 C16.309,0.8741 21.012,5.5771 21.012,11.3801 C21.012,17.1821 16.309,21.8861 10.507,21.8861 C6.202,21.8861 4.257,17.3911 0.88,15.5941 C0.313,14.3041 0,12.8781 0,11.3801 C0,5.5771 4.703,0.8741 10.507,0.8741 Z" id="izquierda" fill="#4F301F"></path>
                        <path d="M10.5068,11.3801 C10.5068,5.5771 15.2098,0.8741 21.0118,0.8741 C26.8148,0.8741 31.5178,5.5771 31.5178,11.3801 C31.5178,12.8781 31.2028,14.3041 30.6388,15.5941 C27.0138,17.8031 25.3158,21.8861 21.0118,21.8861 C15.2098,21.8861 10.5068,17.1821 10.5068,11.3801" id="derecha" fill="#FF6067"></path>
                    </g>
                    <g id="topin" transform="translate(2.000000, 2.000000)">
                        <path d="M22.6006,4.8594 C22.5216,4.8594 22.4416,4.8484 22.3656,4.8254 L19.6186,4.0034 C19.1786,3.8724 18.9266,3.4074 19.0576,2.9674 C19.1626,2.6184 19.4926,2.3734 19.8586,2.3734 C19.9376,2.3734 20.0176,2.3854 20.0946,2.4074 L22.8416,3.2294 C23.2816,3.3604 23.5326,3.8254 23.4016,4.2654 C23.2966,4.6154 22.9676,4.8594 22.6006,4.8594" id="Fill-19" fill="#54D4AE"></path>
                        <path d="M17.8994,11.1143 C17.6464,11.1143 17.4104,11.0023 17.2524,10.8073 C16.9624,10.4513 17.0164,9.9263 17.3744,9.6353 L19.6004,7.8303 C19.7484,7.7093 19.9334,7.6443 20.1254,7.6443 C20.3784,7.6443 20.6144,7.7573 20.7724,7.9523 C20.9114,8.1233 20.9754,8.3403 20.9524,8.5623 C20.9294,8.7833 20.8214,8.9843 20.6494,9.1233 L18.4234,10.9303 C18.2764,11.0483 18.0894,11.1143 17.8994,11.1143" id="Fill-21" fill="#54D4AE"></path>
                        <path d="M13.5186,9.0623 C13.2986,9.0393 13.0996,8.9293 12.9586,8.7563 C12.8196,8.5833 12.7556,8.3663 12.7796,8.1463 L13.0816,5.2953 C13.1276,4.8713 13.4846,4.5503 13.9116,4.5503 C14.4556,4.6043 14.7876,5.0163 14.7386,5.4713 L14.4346,8.3233 C14.3906,8.7473 14.0356,9.0673 13.6086,9.0673 C13.6026,9.0673 13.5246,9.0623 13.5186,9.0623" id="Fill-23" fill="#F6F6F6"></path>
                        <path d="M6.418,12.0635 C6.125,12.0635 5.85,11.9075 5.701,11.6565 L4.234,9.1935 C4.121,9.0025 4.089,8.7785 4.145,8.5625 C4.198,8.3465 4.334,8.1655 4.524,8.0525 C4.653,7.9765 4.8,7.9355 4.949,7.9355 C5.242,7.9355 5.517,8.0915 5.666,8.3415 L7.131,10.8055 C7.245,10.9955 7.277,11.2195 7.223,11.4365 C7.168,11.6525 7.033,11.8335 6.842,11.9465 C6.714,12.0225 6.567,12.0635 6.418,12.0635" id="Fill-25" fill="#F6F6F6"></path>
                        <path d="M8.4297,3.4683 C8.3267,3.4683 8.2267,3.4493 8.1297,3.4123 L5.4567,2.3763 C5.0297,2.2103 4.8157,1.7283 4.9817,1.3003 C5.1047,0.9813 5.4167,0.7683 5.7597,0.7683 C5.8617,0.7683 5.9617,0.7873 6.0577,0.8233 L8.7327,1.8603 C9.1597,2.0253 9.3727,2.5093 9.2067,2.9373 C9.0847,3.2553 8.7727,3.4683 8.4297,3.4683" id="Fill-27" fill="#54D4AE"></path>
                        <path d="M1.6836,8.0486 C1.5706,8.0486 1.4576,8.0256 1.3536,7.9796 C1.1496,7.8916 0.9936,7.7286 0.9116,7.5206 C0.8296,7.3126 0.8336,7.0876 0.9226,6.8846 L2.0646,4.2556 C2.1966,3.9506 2.4966,3.7546 2.8296,3.7546 C2.9446,3.7546 3.0546,3.7776 3.1596,3.8226 C3.5796,4.0066 3.7746,4.4976 3.5916,4.9186 L2.4496,7.5476 C2.3176,7.8526 2.0166,8.0486 1.6836,8.0486" id="Fill-29" fill="#FF6067"></path>
                        <path d="M23.4316,11.5505 C23.1336,11.5505 22.8586,11.3915 22.7096,11.1355 C22.5986,10.9445 22.5696,10.7205 22.6266,10.5055 C22.6836,10.2895 22.8216,10.1095 23.0126,9.9985 L25.4936,8.5605 C25.6196,8.4875 25.7626,8.4485 25.9096,8.4485 C26.2056,8.4485 26.4836,8.6075 26.6306,8.8635 C26.7426,9.0555 26.7716,9.2795 26.7146,9.4945 C26.6576,9.7105 26.5196,9.8895 26.3276,10.0005 L23.8476,11.4385 C23.7216,11.5115 23.5776,11.5505 23.4316,11.5505" id="Fill-31" fill="#F6F6F6"></path>
                    </g>
                    <path d="M19.1494,27.9409 C18.3834,27.9409 17.7624,27.3199 17.7624,26.5549 C17.7624,25.7889 18.3834,25.1689 19.1494,25.1689 L26.3214,25.1689 L30.6384,15.5939 L0.8794,15.5939 L10.0414,35.9119 L15.0494,35.9119 C15.8154,35.9119 16.4364,36.5329 16.4364,37.2989 C16.4364,38.0639 15.8154,38.6849 15.0494,38.6849 L11.2914,38.6849 L15.3014,47.5799 C15.5534,48.1399 15.9634,48.1399 16.2154,47.5799 L25.0714,27.9409 L19.1494,27.9409 Z" id="cono" fill="#F8CA84"></path>
                    <path d="M15.0879,13.7585 C14.4049,13.7585 13.8519,14.3125 13.8519,14.9945 L13.8519,12.5375 C13.8519,11.8545 13.2989,11.3005 12.6159,11.3005 C11.9329,11.3005 11.3799,11.8545 11.3799,12.5375 L11.3799,17.4515 C11.3799,18.1345 11.9329,18.6875 12.6159,18.6875 C13.2989,18.6875 13.8519,18.1345 13.8519,17.4515 L13.8519,19.9095 C13.8519,20.5925 14.4049,21.1445 15.0879,21.1445 C15.7709,21.1445 16.3239,20.5925 16.3239,19.9095 L16.3239,14.9945 C16.3239,14.3125 15.7709,13.7585 15.0879,13.7585" id="gotas" fill="#FF6067"></path>
                </g>
            </g>
        </g>
    </g>
</svg>
